<svg width="130" height="130" viewBox="0 0 130 130" fill="none" xmlns="http://www.w3.org/2000/svg">
<path d="M8.125 49.2915C8.125 34.882 8.125 27.6771 10.9293 22.1734C13.3961 17.3321 17.3321 13.3961 22.1734 10.9293C27.6771 8.125 34.882 8.125 49.2915 8.125H80.7085C95.1182 8.125 102.323 8.125 107.826 10.9293C112.668 13.3961 116.604 17.3321 119.071 22.1734C121.875 27.6771 121.875 34.882 121.875 49.2915V80.7085C121.875 95.1182 121.875 102.323 119.071 107.826C116.604 112.668 112.668 116.604 107.826 119.071C102.323 121.875 95.1182 121.875 80.7085 121.875H49.2915C34.882 121.875 27.6771 121.875 22.1734 119.071C17.3321 116.604 13.3961 112.668 10.9293 107.826C8.125 102.323 8.125 95.1182 8.125 80.7085V49.2915Z" fill="#330000"/>
<path d="M63.2474 79.6099H45.6207L42.0343 91.0365C41.9348 91.461 41.5439 91.7616 41.1186 91.7405H32.1906C31.6814 91.7405 31.5034 91.4537 31.6565 90.8797L46.9178 45.7997C47.0706 45.3301 47.2233 44.7955 47.3757 44.1954C47.5755 43.151 47.6775 42.0898 47.6812 41.0259C47.6373 40.7114 47.9135 40.4337 48.215 40.4778H60.348C60.7035 40.4778 60.9066 40.6082 60.9582 40.8691L78.2803 90.9581C78.4327 91.4801 78.2803 91.7409 77.8225 91.7405H67.9023C67.5545 91.7803 67.2222 91.5418 67.1393 91.1929L63.2474 79.6099ZM48.3677 69.7486H60.4244C58.4435 62.9796 56.2079 56.2997 54.3961 49.4783C52.4412 56.3114 50.3084 63.1169 48.3677 69.7486Z" fill="#FF9A00"/>
<path d="M88.5808 48.7736C87.8024 48.8057 87.0265 48.6688 86.3029 48.3722C85.5798 48.0756 84.9258 47.6255 84.3838 47.0519C83.8435 46.4531 83.4234 45.7511 83.1484 44.9853C82.8734 44.2199 82.7487 43.4062 82.7812 42.5909C82.7535 41.7836 82.8921 40.9797 83.1878 40.2312C83.484 39.4827 83.9304 38.8066 84.4984 38.2471C85.0606 37.6935 85.7244 37.2597 86.4516 36.9709C87.1784 36.682 87.9539 36.5439 88.7331 36.5645C90.5649 36.5645 92.0018 37.1254 93.0447 38.2471C93.5712 38.8301 93.9802 39.5138 94.2488 40.2592C94.5169 41.0044 94.6396 41.797 94.6087 42.5909C94.6408 43.409 94.512 44.226 94.2301 44.9922C93.9486 45.7584 93.5192 46.4588 92.9683 47.0519C92.3926 47.634 91.7052 48.0874 90.9504 48.384C90.1952 48.6801 89.3884 48.813 88.5808 48.7736ZM83.3154 90.9578V53.5478C83.3154 53.0782 83.5181 52.8434 83.926 52.8434H93.312C93.7182 52.8434 93.9218 53.0782 93.9222 53.5478V90.9578C93.9222 91.4802 93.7186 91.741 93.312 91.7406H84.0023C83.5445 91.7406 83.3154 91.4798 83.3154 90.9578Z" fill="#FF9A00"/>
</svg>
