<svg width="130" height="130" viewBox="0 0 130 130" fill="none" xmlns="http://www.w3.org/2000/svg">
<path d="M106.352 80.3425C110.928 79.7852 121.02 78.5858 122.816 80.8998C124.612 83.1713 120.806 92.7289 119.096 96.9712C118.583 98.2574 119.694 98.7713 120.849 97.7859C128.375 91.4428 130.342 78.1992 128.803 76.2709C127.263 74.3859 114.05 72.7566 106.01 78.4142C104.77 79.3138 104.984 80.5141 106.352 80.3425Z" fill="#FF9900"/>
<path d="M64.8717 103.528C82.4477 103.528 102.888 97.9991 116.958 87.5852C119.266 85.8709 117.257 83.2571 114.904 84.3283C99.125 91.0137 81.9771 94.2715 66.3685 94.2715C43.2337 94.2715 20.8685 87.8859 2.7378 77.3429C1.1544 76.4 -0.0424711 78.0285 1.28266 79.2288C18.0466 94.3998 40.2402 103.528 64.8717 103.528Z" fill="#FF9900"/>
<path d="M36.9478 54.457C36.9478 56.043 37.1185 57.3282 37.4175 58.2712C37.7976 59.3318 38.2553 60.363 38.7868 61.3565C39 61.6997 39.0858 62.0429 39.0858 62.3428C39.0858 62.7718 38.8293 63.2008 38.2729 63.6289L35.5793 65.429C35.1945 65.6855 34.8088 65.8146 34.4674 65.8146C34.0392 65.8146 33.612 65.5997 33.1847 65.214C32.6081 64.5934 32.0924 63.919 31.6446 63.1999C31.1665 62.3763 30.7241 61.5326 30.3186 60.671C26.9837 64.6143 22.7925 66.586 17.7468 66.586C14.1544 66.586 11.2901 65.5572 9.19449 63.5006C7.09889 61.4432 6.02942 58.6993 6.02942 55.2716C6.02942 51.6282 7.31209 48.6711 9.92075 46.4429C12.5294 44.2138 15.9935 43.1002 20.3988 43.1002C21.8522 43.1002 23.3489 43.2284 24.9314 43.4425C26.5131 43.6574 28.1381 43.9998 29.8489 44.3854V41.2568C29.8489 37.9998 29.1642 35.7283 27.8382 34.3997C26.4706 33.0711 24.161 32.4289 20.8685 32.4289C19.3718 32.4289 17.8326 32.5996 16.25 32.9853C14.6778 33.3609 13.1344 33.848 11.6316 34.443C11.1453 34.6611 10.6453 34.8473 10.1348 35.0003C9.83582 35.0852 9.62175 35.1286 9.45015 35.1286C8.85215 35.1286 8.55229 34.7004 8.55229 33.8V31.7C8.55229 31.0145 8.63895 30.4997 8.85215 30.2007C9.06535 29.9 9.45015 29.6001 10.049 29.2994C11.5458 28.528 13.3424 27.8858 15.4371 27.371C17.5327 26.8146 19.7574 26.5564 22.1087 26.5564C27.1978 26.5564 30.9175 27.7142 33.3121 30.0282C35.6642 32.3422 36.862 35.8574 36.862 40.5712V54.457H36.9478ZM19.5858 60.9717C20.9968 60.9717 22.451 60.7143 23.9902 60.2004C25.5294 59.6856 26.8979 58.7426 28.0523 57.4574C28.737 56.6427 29.25 55.7431 29.5066 54.7144C29.7631 53.6856 29.9338 52.4428 29.9338 50.986V49.1859C28.6372 48.8698 27.3239 48.6267 26 48.4579C24.6669 48.2879 23.3244 48.2016 21.9804 48.1996C19.1152 48.1996 17.0196 48.7569 15.6087 49.9139C14.1978 51.0718 13.5131 52.7002 13.5131 54.8426C13.5131 56.8568 14.0262 58.357 15.0956 59.3857C16.1218 60.4569 17.6185 60.9717 19.585 60.9717H19.5858ZM53.924 65.5997C53.1544 65.5997 52.6414 65.4714 52.299 65.1716C51.9576 64.9142 51.6577 64.3136 51.4012 63.4998L41.3522 30.3714C41.0956 29.5134 40.9674 28.957 40.9674 28.6572C40.9674 27.9716 41.3088 27.586 41.9935 27.586H46.1838C46.9968 27.586 47.5532 27.7142 47.8522 28.0141C48.1945 28.2715 48.4502 28.8721 48.7076 29.6859L55.8922 58.0571L62.563 29.6859C62.7762 28.8279 63.0327 28.2715 63.375 28.0141C63.7174 27.7567 64.3154 27.586 65.0858 27.586H68.5066C69.3195 27.586 69.875 27.7142 70.2173 28.0141C70.5597 28.2715 70.8587 28.8721 71.0294 29.6859L77.786 58.4003L85.1847 29.6859C85.4404 28.8279 85.7394 28.2715 86.0392 28.0141C86.3816 27.7567 86.9371 27.586 87.7075 27.586H91.6838C92.3685 27.586 92.7533 27.9283 92.7533 28.6572C92.7533 28.8712 92.7108 29.0853 92.6675 29.3427C92.6006 29.7081 92.5006 30.0667 92.3685 30.4139L82.063 63.544C81.8056 64.4011 81.5066 64.9575 81.1642 65.2149C80.8228 65.4723 80.2664 65.6439 79.5392 65.6439H75.8619C75.049 65.6439 74.4926 65.5148 74.1512 65.2149C73.8097 64.915 73.5098 64.3578 73.3391 63.5006L66.7108 35.8583L60.125 63.4582C59.911 64.3153 59.6544 64.8726 59.3121 65.1724C58.9706 65.4723 58.3717 65.6006 57.6021 65.6006L53.924 65.5997ZM108.875 66.7576C106.651 66.7576 104.427 66.5002 102.289 65.9862C100.151 65.4714 98.4837 64.9142 97.3718 64.2711C96.6871 63.8854 96.2174 63.4564 96.0458 63.0716C95.8794 62.6932 95.7921 62.2847 95.7892 61.8713V59.6856C95.7892 58.786 96.1316 58.357 96.7729 58.357C97.0294 58.357 97.286 58.4003 97.5425 58.4852C97.799 58.5719 98.1838 58.7426 98.612 58.9142C100.122 59.5798 101.699 60.0824 103.316 60.4136C105.026 60.7568 106.694 60.9284 108.404 60.9284C111.099 60.9284 113.194 60.4569 114.648 59.514C116.102 58.571 116.872 57.2 116.872 55.4424C116.872 54.2429 116.487 53.2575 115.717 52.4428C114.948 51.6282 113.493 50.9002 111.398 50.2146L105.198 48.2854C102.076 47.3 99.7664 45.8432 98.3554 43.914C96.9445 42.0281 96.2173 39.9282 96.2173 37.7C96.2173 35.8999 96.6022 34.3139 97.3718 32.9428C98.1414 31.5718 99.1675 30.3714 100.451 29.4285C101.734 28.4431 103.187 27.7142 104.898 27.2003C106.609 26.6855 108.404 26.4714 110.286 26.4714C111.227 26.4714 112.211 26.5148 113.151 26.643C114.135 26.7713 115.033 26.9429 115.931 27.1145C116.786 27.3286 117.599 27.5426 118.368 27.7992C119.138 28.0574 119.737 28.314 120.164 28.5714C120.763 28.9146 121.191 29.2569 121.448 29.6426C121.704 29.9858 121.833 30.4572 121.833 31.057V33.072C121.833 33.9724 121.49 34.4439 120.849 34.4439C120.507 34.4439 119.951 34.2723 119.224 33.9291C116.786 32.8154 114.049 32.2582 111.013 32.2582C108.576 32.2582 106.651 32.6438 105.326 33.4576C104 34.2723 103.316 35.5151 103.316 37.2727C103.316 38.4722 103.743 39.5 104.599 40.3147C105.454 41.1294 107.036 41.944 109.302 42.672L115.375 44.6012C118.454 45.5866 120.677 46.9586 122.003 48.7153C123.329 50.472 123.971 52.4862 123.971 54.7152C123.971 56.5578 123.586 58.2296 122.859 59.6864C122.089 61.1433 121.063 62.4294 119.737 63.4582C118.411 64.5294 116.829 65.3007 114.99 65.858C113.066 66.4577 111.056 66.7576 108.875 66.7576Z" fill="white"/>
</svg>
