<svg width="130" height="130" viewBox="0 0 130 130" fill="none" xmlns="http://www.w3.org/2000/svg">
<path d="M22.3693 81.6631C28.5815 80.5657 33.7124 79.6576 33.7713 79.6451L33.8785 79.6224L28.0135 72.6462C24.7878 68.8093 22.1486 65.6551 22.1486 65.6369C22.1486 65.6025 28.2047 48.9254 28.2387 48.8661C28.2501 48.8463 32.3714 55.9616 38.2291 66.1142C43.7131 75.6193 48.2345 83.4562 48.2765 83.5296L48.3529 83.6632L29.7136 83.6608L11.0743 83.6584L22.3693 81.6631ZM93.8488 79.9759C91.0115 79.794 89.3614 78.1784 88.9241 75.1544C88.8078 74.3499 88.8073 74.329 88.7954 69.1066L88.7839 64.0521H90.0396H91.2953L91.3052 68.9411C91.3141 73.3474 91.3197 73.864 91.3618 74.174C91.5328 75.432 91.8732 76.2779 92.4526 76.8852C92.9164 77.3711 93.4593 77.6557 94.2108 77.8067C94.5654 77.8779 95.574 77.878 95.8973 77.807C96.6592 77.6393 97.2699 77.3077 97.8086 76.7692C98.4226 76.1555 98.8768 75.2846 99.0966 74.2999L99.1707 73.968L99.1789 69.0377L99.1872 64.1074H100.469H101.751V71.858V79.6086H100.482H99.2136V78.3789C99.2136 77.5434 99.2044 77.1522 99.185 77.1587C99.1693 77.164 99.1041 77.2636 99.0402 77.3802C98.603 78.1776 97.8745 78.9069 97.0763 79.3462C96.1194 79.8728 95.1599 80.06 93.8488 79.9759ZM122.647 79.9634C121.646 79.8881 120.591 79.5438 119.729 79.0106C117.912 77.8868 116.838 76.0345 116.523 73.4853C116.414 72.6032 116.401 71.4183 116.492 70.6687C116.695 68.9939 117.353 67.3498 118.29 66.176C118.53 65.8751 119.075 65.33 119.376 65.0898C120.189 64.4411 121.139 63.9874 122.148 63.7667C122.736 63.6381 123.772 63.5777 124.396 63.6356C125.965 63.781 127.404 64.5198 128.381 65.6827C129.374 66.8641 129.92 68.515 129.99 70.5478C130.001 70.8663 130.003 71.4249 129.996 71.789L129.982 72.451L124.486 72.4579L118.99 72.4649V72.7101C118.99 73.4567 119.172 74.3071 119.485 75.0306C119.756 75.6544 120.222 76.3357 120.603 76.6654C121.385 77.3414 122.342 77.7461 123.389 77.8434C123.778 77.8795 124.767 77.8415 125.21 77.7735C126.472 77.5795 127.673 77.0843 128.642 76.3576C128.756 76.2721 128.865 76.1922 128.885 76.1801C128.913 76.1623 128.92 76.3857 128.919 77.3247L128.918 78.4915L128.658 78.6521C127.562 79.3303 126.305 79.7657 124.975 79.9288C124.579 79.9774 123.122 79.9991 122.647 79.9634ZM127.43 70.1232C127.43 68.8726 126.903 67.4833 126.157 66.768C125.625 66.2574 124.982 65.9454 124.217 65.827C123.855 65.7709 123.092 65.7925 122.711 65.8696C121.904 66.0326 121.237 66.3871 120.655 66.9621C120.043 67.5672 119.584 68.3021 119.295 69.1395C119.191 69.4406 119.07 69.9349 119.032 70.2099L119.014 70.3409H123.222H127.43V70.1232ZM52.8811 79.5741C52.8875 79.5551 54.7538 74.6524 57.0283 68.6792L61.1638 57.8186H62.4925H63.8213L63.9315 58.1013C64.2684 58.9652 72.2105 79.585 72.2105 79.5957C72.2105 79.6028 71.5744 79.6084 70.7969 79.6084L69.3833 79.6081L68.2386 76.5605L67.094 73.5129L62.485 73.5129L57.876 73.5128L57.836 73.6162C57.814 73.6731 57.3249 75.0444 56.7492 76.6636L55.7025 79.6075L54.2859 79.608C53.1647 79.6084 52.8718 79.6014 52.8811 79.5741ZM66.2527 71.1872C66.2527 71.1823 65.4824 69.094 64.5409 66.5465C62.7795 61.7804 62.681 61.4936 62.5418 60.7285C62.4766 60.3697 62.4435 60.3597 62.4048 60.6871C62.3771 60.9211 62.2571 61.4448 62.1645 61.7352C62.1186 61.8793 61.3254 64.0563 60.4019 66.573C59.4783 69.0897 58.7227 71.1594 58.7227 71.1724C58.7227 71.1853 60.417 71.196 62.4877 71.196C64.5585 71.196 66.2527 71.192 66.2527 71.1872ZM73.0655 79.2116V78.8147L77.6575 72.5022L82.2494 66.1898L78.0919 66.176L73.9344 66.1622L73.9272 65.1072L73.9199 64.0521H79.9332H85.9465V64.4085V64.7648L81.354 71.1117C78.8282 74.6025 76.7616 77.4645 76.7616 77.4717C76.7616 77.4788 78.8033 77.4847 81.2989 77.4847H85.8361V78.5466V79.6086H79.4508H73.0655V79.2116ZM106.762 79.5902C106.752 79.5801 106.744 76.0799 106.744 71.812V64.0521H107.999H109.254V65.6519C109.254 66.5318 109.264 67.2517 109.277 67.2517C109.29 67.2517 109.351 67.1077 109.413 66.9316C109.695 66.125 110.185 65.3713 110.815 64.7722C111.383 64.2326 112.032 63.9099 112.798 63.7864C113.013 63.7517 113.195 63.745 113.625 63.7563C114.166 63.7703 114.448 63.8098 114.777 63.9173L114.88 63.9511V65.2537V66.5564L114.584 66.408C114.06 66.1458 113.543 66.042 112.922 66.0743C112.518 66.0954 112.252 66.1473 111.929 66.2686C111.264 66.5182 110.724 66.9588 110.347 67.5602C109.802 68.4308 109.413 69.5499 109.298 70.5785C109.277 70.763 109.265 72.2663 109.26 75.2299L109.253 79.6086H108.017C107.337 79.6086 106.772 79.6003 106.762 79.5902ZM0 79.5357C0 79.5259 2.76354 74.7286 6.14119 68.875L12.2824 58.2323L19.4392 52.2262C23.3755 48.9229 26.6067 46.2161 26.6196 46.2111C26.6326 46.2063 26.5808 46.3366 26.5046 46.5008C26.4283 46.665 22.9312 54.1659 18.7332 63.1695L11.1005 79.5396L5.55027 79.5466C2.49762 79.5504 0 79.5455 0 79.5357Z" fill="#0089D6"/>
</svg>
