<svg width="600" height="338" viewBox="0 0 600 338" fill="none" xmlns="http://www.w3.org/2000/svg">
<g clip-path="url(#clip0_279_2)">
<rect width="600" height="337.5" fill="#0E002F"/>
<g filter="url(#filter0_f_279_2)">
<path d="M247 5C247 158.259 122.759 282.5 -30.5 282.5C-183.759 282.5 -308 158.259 -308 5C-308 -148.259 -183.759 -211 -30.5 -211C-30.5 -80 247 -148.259 247 5Z" fill="#560BAD" fill-opacity="0.47"/>
</g>
<g filter="url(#filter1_f_279_2)">
<path d="M277 -109C277 44.259 152.759 168.5 -0.5 168.5C-153.759 168.5 -278 44.259 -278 -109C-278 -262.259 -153.759 -325 -0.5 -325C-0.5 -194 277 -262.259 277 -109Z" fill="#4361EE" fill-opacity="0.74"/>
</g>
<g filter="url(#filter2_f_279_2)">
<path d="M1064.58 246.492C1161.52 447.639 1083.42 686.218 890.135 779.372C720.304 755.21 461.573 784.981 364.63 583.834C267.686 382.687 384.689 224.825 577.975 131.671C660.838 303.604 967.636 45.3453 1064.58 246.492Z" fill="#7209B7" fill-opacity="0.47"/>
</g>
</g>
<defs>
<filter id="filter0_f_279_2" x="-508" y="-411" width="955" height="893.5" filterUnits="userSpaceOnUse" color-interpolation-filters="sRGB">
<feFlood flood-opacity="0" result="BackgroundImageFix"/>
<feBlend mode="normal" in="SourceGraphic" in2="BackgroundImageFix" result="shape"/>
<feGaussianBlur stdDeviation="100" result="effect1_foregroundBlur_279_2"/>
</filter>
<filter id="filter1_f_279_2" x="-478" y="-525" width="955" height="893.5" filterUnits="userSpaceOnUse" color-interpolation-filters="sRGB">
<feFlood flood-opacity="0" result="BackgroundImageFix"/>
<feBlend mode="normal" in="SourceGraphic" in2="BackgroundImageFix" result="shape"/>
<feGaussianBlur stdDeviation="100" result="effect1_foregroundBlur_279_2"/>
</filter>
<filter id="filter2_f_279_2" x="129.878" y="-68.3291" width="1176.34" height="1047.7" filterUnits="userSpaceOnUse" color-interpolation-filters="sRGB">
<feFlood flood-opacity="0" result="BackgroundImageFix"/>
<feBlend mode="normal" in="SourceGraphic" in2="BackgroundImageFix" result="shape"/>
<feGaussianBlur stdDeviation="100" result="effect1_foregroundBlur_279_2"/>
</filter>
<clipPath id="clip0_279_2">
<rect width="600" height="337.5" fill="white"/>
</clipPath>
</defs>
</svg>
