<?xml version="1.0" encoding="UTF-8"?>
<svg xmlns="http://www.w3.org/2000/svg" xmlns:xlink="http://www.w3.org/1999/xlink" viewBox="0 0 409.96 361.46">
  <defs>
    <style>
      .cls-1 {
        fill: url(#linear-gradient-38);
      }

      .cls-1, .cls-2, .cls-3, .cls-4, .cls-5, .cls-6, .cls-7, .cls-8, .cls-9, .cls-10, .cls-11, .cls-12, .cls-13, .cls-14, .cls-15, .cls-16, .cls-17, .cls-18, .cls-19, .cls-20, .cls-21, .cls-22, .cls-23, .cls-24, .cls-25, .cls-26, .cls-27, .cls-28, .cls-29, .cls-30, .cls-31, .cls-32, .cls-33, .cls-34, .cls-35, .cls-36, .cls-37, .cls-38, .cls-39, .cls-40, .cls-41, .cls-42, .cls-43, .cls-44, .cls-45, .cls-46, .cls-47, .cls-48, .cls-49, .cls-50, .cls-51, .cls-52, .cls-53, .cls-54, .cls-55, .cls-56, .cls-57, .cls-58, .cls-59, .cls-60, .cls-61, .cls-62, .cls-63, .cls-64, .cls-65, .cls-66, .cls-67, .cls-68, .cls-69, .cls-70, .cls-71, .cls-72, .cls-73, .cls-74, .cls-75, .cls-76, .cls-77, .cls-78, .cls-79, .cls-80, .cls-81, .cls-82, .cls-83, .cls-84, .cls-85, .cls-86, .cls-87, .cls-88, .cls-89, .cls-90, .cls-91, .cls-92, .cls-93, .cls-94, .cls-95, .cls-96, .cls-97, .cls-98, .cls-99, .cls-100, .cls-101, .cls-102, .cls-103, .cls-104, .cls-105, .cls-106, .cls-107, .cls-108, .cls-109, .cls-110, .cls-111, .cls-112, .cls-113, .cls-114, .cls-115, .cls-116, .cls-117, .cls-118, .cls-119, .cls-120 {
        stroke-width: 0px;
      }

      .cls-2 {
        fill: url(#linear-gradient-12);
      }

      .cls-121 {
        font-size: 1.46px;
      }

      .cls-121, .cls-122, .cls-54, .cls-123, .cls-124 {
        fill: #fff;
      }

      .cls-121, .cls-122, .cls-123 {
        font-family: Raleway-Regular, 'Raleway Regular';
      }

      .cls-3 {
        fill: #7e2bf2;
      }

      .cls-4 {
        fill: #66acff;
      }

      .cls-5 {
        fill: url(#linear-gradient-17);
      }

      .cls-122 {
        font-size: 1.62px;
      }

      .cls-6 {
        fill: url(#linear-gradient-19);
      }

      .cls-7 {
        fill: url(#linear-gradient-33);
      }

      .cls-8 {
        fill: url(#linear-gradient-62);
      }

      .cls-9 {
        fill: #685eef;
      }

      .cls-10 {
        fill: url(#linear-gradient-67);
      }

      .cls-11 {
        fill: url(#linear-gradient-57);
      }

      .cls-12 {
        fill: url(#linear-gradient-79);
      }

      .cls-12, .cls-17, .cls-63, .cls-69, .cls-77, .cls-84, .cls-91, .cls-115 {
        mix-blend-mode: overlay;
      }

      .cls-13 {
        fill: #eaeaea;
        mix-blend-mode: multiply;
      }

      .cls-14 {
        fill: url(#linear-gradient-21);
      }

      .cls-15 {
        fill: #203fc4;
      }

      .cls-16 {
        fill: url(#linear-gradient-6);
      }

      .cls-17 {
        fill: url(#linear-gradient-76);
      }

      .cls-18 {
        fill: #120f4c;
      }

      .cls-125 {
        isolation: isolate;
      }

      .cls-19 {
        fill: url(#linear-gradient-42);
      }

      .cls-20 {
        fill: #1d37e5;
      }

      .cls-21 {
        fill: #c622fc;
      }

      .cls-22 {
        fill: url(#linear-gradient-15);
      }

      .cls-23 {
        fill: url(#linear-gradient-11);
      }

      .cls-24 {
        fill: #ffc024;
      }

      .cls-25 {
        fill: url(#linear-gradient-73);
      }

      .cls-26 {
        fill: #81eac2;
      }

      .cls-27 {
        fill: url(#linear-gradient-5);
      }

      .cls-28 {
        fill: #3d34ea;
      }

      .cls-29 {
        fill: url(#linear-gradient-31);
      }

      .cls-30 {
        fill: url(#linear-gradient-71);
      }

      .cls-31 {
        fill: #8234ce;
      }

      .cls-32 {
        fill: url(#linear-gradient-58);
      }

      .cls-33 {
        fill: #662eef;
      }

      .cls-34 {
        fill: url(#linear-gradient-63);
      }

      .cls-35 {
        fill: url(#linear-gradient-34);
      }

      .cls-36 {
        fill: url(#linear-gradient-41);
      }

      .cls-37 {
        fill: #3534e9;
      }

      .cls-38 {
        fill: #2d2d2d;
      }

      .cls-39 {
        fill: #ae25f9;
      }

      .cls-40 {
        fill: url(#linear-gradient-40);
      }

      .cls-41 {
        fill: url(#linear-gradient-66);
      }

      .cls-42 {
        fill: url(#linear-gradient-13);
      }

      .cls-43 {
        fill: url(#linear-gradient-23);
      }

      .cls-44 {
        fill: #7777fc;
      }

      .cls-45 {
        fill: url(#linear-gradient-25);
      }

      .cls-46 {
        fill: #053ae2;
      }

      .cls-47 {
        fill: #f236ca;
      }

      .cls-48 {
        fill: url(#linear-gradient-43);
      }

      .cls-49 {
        fill: #6ebaff;
      }

      .cls-50 {
        fill: url(#linear-gradient-16);
      }

      .cls-51 {
        fill: url(#linear-gradient-22);
      }

      .cls-52 {
        fill: url(#linear-gradient-54);
      }

      .cls-53 {
        fill: url(#linear-gradient-55);
      }

      .cls-55 {
        fill: url(#linear-gradient-35);
      }

      .cls-56 {
        fill: url(#linear-gradient-50);
      }

      .cls-57 {
        fill: url(#linear-gradient-32);
      }

      .cls-58 {
        fill: url(#linear-gradient-60);
      }

      .cls-59 {
        fill: url(#linear-gradient-59);
      }

      .cls-60 {
        fill: #e5db28;
      }

      .cls-61 {
        fill: url(#linear-gradient-20);
      }

      .cls-62 {
        fill: url(#linear-gradient-14);
      }

      .cls-63 {
        fill: url(#linear-gradient);
      }

      .cls-64 {
        fill: url(#linear-gradient-52);
      }

      .cls-65 {
        fill: #4b31c9;
      }

      .cls-66 {
        fill: #5454ef;
      }

      .cls-67 {
        fill: url(#linear-gradient-45);
      }

      .cls-68 {
        fill: #9628f6;
      }

      .cls-69 {
        fill: url(#linear-gradient-7);
      }

      .cls-70 {
        fill: url(#linear-gradient-39);
      }

      .cls-71 {
        fill: url(#linear-gradient-69);
      }

      .cls-72 {
        fill: #2d1baa;
      }

      .cls-73 {
        fill: url(#linear-gradient-9);
      }

      .cls-74 {
        fill: url(#linear-gradient-27);
      }

      .cls-123 {
        font-size: 2.78px;
      }

      .cls-75 {
        fill: #f5a856;
      }

      .cls-76 {
        fill: url(#linear-gradient-53);
      }

      .cls-124 {
        font-family: Raleway-Bold, 'Raleway Bold';
        font-size: 8.6px;
        font-weight: 700;
      }

      .cls-77 {
        fill: url(#linear-gradient-3);
      }

      .cls-78 {
        fill: url(#linear-gradient-65);
      }

      .cls-79 {
        fill: url(#linear-gradient-36);
      }

      .cls-80 {
        fill: url(#linear-gradient-48);
      }

      .cls-81 {
        fill: url(#linear-gradient-49);
      }

      .cls-82 {
        fill: url(#linear-gradient-8);
      }

      .cls-83 {
        fill: url(#linear-gradient-47);
      }

      .cls-84 {
        fill: url(#linear-gradient-78);
      }

      .cls-85 {
        fill: url(#linear-gradient-24);
      }

      .cls-86 {
        fill: url(#linear-gradient-26);
      }

      .cls-87 {
        fill: url(#linear-gradient-61);
      }

      .cls-88 {
        fill: #1a1193;
      }

      .cls-89 {
        fill: #ff5a85;
      }

      .cls-90 {
        fill: url(#linear-gradient-18);
      }

      .cls-91 {
        fill: url(#linear-gradient-2);
      }

      .cls-92 {
        fill: url(#linear-gradient-51);
      }

      .cls-93 {
        fill: url(#linear-gradient-30);
      }

      .cls-94 {
        fill: #66f;
      }

      .cls-95 {
        fill: #e8e8e8;
      }

      .cls-96 {
        fill: url(#linear-gradient-44);
      }

      .cls-97 {
        fill: url(#linear-gradient-68);
      }

      .cls-98 {
        fill: #1a1472;
      }

      .cls-99 {
        fill: url(#linear-gradient-72);
      }

      .cls-100 {
        fill: url(#linear-gradient-29);
      }

      .cls-101 {
        fill: url(#linear-gradient-46);
      }

      .cls-102 {
        fill: #1e1596;
      }

      .cls-103 {
        fill: url(#linear-gradient-64);
      }

      .cls-104 {
        fill: #bdf;
      }

      .cls-105 {
        fill: url(#linear-gradient-28);
      }

      .cls-106 {
        fill: url(#linear-gradient-56);
      }

      .cls-107 {
        fill: url(#linear-gradient-10);
      }

      .cls-108 {
        fill: url(#linear-gradient-70);
      }

      .cls-109 {
        fill: #1d1d1b;
      }

      .cls-110 {
        fill: url(#linear-gradient-74);
      }

      .cls-111 {
        fill: url(#linear-gradient-4);
      }

      .cls-112 {
        fill: #4d31ec;
      }

      .cls-113 {
        fill: url(#linear-gradient-37);
      }

      .cls-114 {
        fill: url(#linear-gradient-80);
      }

      .cls-115 {
        fill: url(#linear-gradient-77);
      }

      .cls-116 {
        fill: #3523b5;
      }

      .cls-117 {
        fill: #efefef;
      }

      .cls-118 {
        fill: #ef2070;
      }

      .cls-119 {
        fill: #7469ff;
      }

      .cls-120 {
        fill: url(#linear-gradient-75);
      }
    </style>
    <linearGradient id="linear-gradient" x1="446.09" y1="177.34" x2="434.4" y2=".43" gradientTransform="translate(653.63) rotate(-180) scale(1 -1)" gradientUnits="userSpaceOnUse">
      <stop offset="0" stop-color="#17ffff"/>
      <stop offset=".9" stop-color="#fff" stop-opacity="0"/>
    </linearGradient>
    <linearGradient id="linear-gradient-2" x1="387.08" y1="208.98" x2="375.39" y2="32.07" xlink:href="#linear-gradient"/>
    <linearGradient id="linear-gradient-3" x1="327.27" y1="241.8" x2="315.58" y2="64.9" xlink:href="#linear-gradient"/>
    <linearGradient id="linear-gradient-4" x1="88" y1="173.35" x2="172.05" y2="89.31" gradientUnits="userSpaceOnUse">
      <stop offset="0" stop-color="#1c1ca5"/>
      <stop offset="1" stop-color="#a91ca5"/>
    </linearGradient>
    <linearGradient id="linear-gradient-5" x1="219.73" y1="204.79" x2="223.91" y2="170.25" xlink:href="#linear-gradient-4"/>
    <linearGradient id="linear-gradient-6" x1="247.41" y1="195.6" x2="332.03" y2="195.6" gradientUnits="userSpaceOnUse">
      <stop offset="0" stop-color="#1c86d8"/>
      <stop offset="1" stop-color="#1cf1d8"/>
    </linearGradient>
    <linearGradient id="linear-gradient-7" x1="60.12" y1="244.97" x2="44.49" y2="8.49" gradientTransform="matrix(1,0,0,1,0,0)" xlink:href="#linear-gradient"/>
    <linearGradient id="linear-gradient-8" x1="336.24" y1="397.78" x2="341.41" y2="392.61" gradientTransform="translate(376.98 -52.94) rotate(30) skewX(-30)" xlink:href="#linear-gradient-6"/>
    <linearGradient id="linear-gradient-9" x1="332.76" y1="394.77" x2="337.93" y2="389.6" gradientTransform="translate(376.98 -52.94) rotate(30) skewX(-30)" xlink:href="#linear-gradient-6"/>
    <linearGradient id="linear-gradient-10" x1="329.29" y1="391.76" x2="334.45" y2="386.59" gradientTransform="translate(376.98 -52.94) rotate(30) skewX(-30)" xlink:href="#linear-gradient-6"/>
    <linearGradient id="linear-gradient-11" x1="325.81" y1="388.75" x2="330.98" y2="383.58" gradientTransform="translate(376.98 -52.94) rotate(30) skewX(-30)" xlink:href="#linear-gradient-6"/>
    <linearGradient id="linear-gradient-12" x1="322.34" y1="385.73" x2="327.5" y2="380.57" gradientTransform="translate(376.98 -52.94) rotate(30) skewX(-30)" xlink:href="#linear-gradient-6"/>
    <linearGradient id="linear-gradient-13" x1="318.86" y1="382.72" x2="324.02" y2="377.56" gradientTransform="translate(376.98 -52.94) rotate(30) skewX(-30)" xlink:href="#linear-gradient-6"/>
    <linearGradient id="linear-gradient-14" x1="315.38" y1="379.71" x2="320.55" y2="374.55" gradientTransform="translate(376.98 -52.94) rotate(30) skewX(-30)" xlink:href="#linear-gradient-6"/>
    <linearGradient id="linear-gradient-15" x1="311.91" y1="376.7" x2="317.07" y2="371.54" gradientTransform="translate(376.98 -52.94) rotate(30) skewX(-30)" xlink:href="#linear-gradient-6"/>
    <linearGradient id="linear-gradient-16" x1="308.43" y1="373.69" x2="313.59" y2="368.53" gradientTransform="translate(376.98 -52.94) rotate(30) skewX(-30)" xlink:href="#linear-gradient-6"/>
    <linearGradient id="linear-gradient-17" x1="304.95" y1="370.68" x2="310.12" y2="365.51" gradientTransform="translate(376.98 -52.94) rotate(30) skewX(-30)" xlink:href="#linear-gradient-6"/>
    <linearGradient id="linear-gradient-18" x1="336.43" y1="406.09" x2="341.6" y2="400.92" gradientTransform="translate(376.98 -52.94) rotate(30) skewX(-30)" xlink:href="#linear-gradient-6"/>
    <linearGradient id="linear-gradient-19" x1="332.96" y1="403.08" x2="338.12" y2="397.91" gradientTransform="translate(376.98 -52.94) rotate(30) skewX(-30)" xlink:href="#linear-gradient-6"/>
    <linearGradient id="linear-gradient-20" x1="329.48" y1="400.07" x2="334.64" y2="394.9" gradientTransform="translate(376.98 -52.94) rotate(30) skewX(-30)" xlink:href="#linear-gradient-6"/>
    <linearGradient id="linear-gradient-21" x1="326" y1="397.05" x2="331.17" y2="391.89" gradientTransform="translate(376.98 -52.94) rotate(30) skewX(-30)" xlink:href="#linear-gradient-6"/>
    <linearGradient id="linear-gradient-22" x1="322.53" y1="394.04" x2="327.69" y2="388.88" gradientTransform="translate(376.98 -52.94) rotate(30) skewX(-30)" xlink:href="#linear-gradient-6"/>
    <linearGradient id="linear-gradient-23" x1="336.68" y1="414.35" x2="341.84" y2="409.18" gradientTransform="translate(376.98 -52.94) rotate(30) skewX(-30)" xlink:href="#linear-gradient-6"/>
    <linearGradient id="linear-gradient-24" x1="333.2" y1="411.34" x2="338.37" y2="406.17" gradientTransform="translate(376.98 -52.94) rotate(30) skewX(-30)" xlink:href="#linear-gradient-6"/>
    <linearGradient id="linear-gradient-25" x1="329.72" y1="408.33" x2="334.89" y2="403.16" gradientTransform="translate(376.98 -52.94) rotate(30) skewX(-30)" xlink:href="#linear-gradient-6"/>
    <linearGradient id="linear-gradient-26" x1="326.25" y1="405.32" x2="331.41" y2="400.15" gradientTransform="translate(376.98 -52.94) rotate(30) skewX(-30)" xlink:href="#linear-gradient-6"/>
    <linearGradient id="linear-gradient-27" x1="322.77" y1="402.31" x2="327.94" y2="397.14" gradientTransform="translate(376.98 -52.94) rotate(30) skewX(-30)" xlink:href="#linear-gradient-6"/>
    <linearGradient id="linear-gradient-28" x1="319.29" y1="399.3" x2="324.46" y2="394.13" gradientTransform="translate(376.98 -52.94) rotate(30) skewX(-30)" xlink:href="#linear-gradient-6"/>
    <linearGradient id="linear-gradient-29" x1="315.82" y1="396.29" x2="320.98" y2="391.12" gradientTransform="translate(376.98 -52.94) rotate(30) skewX(-30)" xlink:href="#linear-gradient-6"/>
    <linearGradient id="linear-gradient-30" x1="312.34" y1="393.27" x2="317.51" y2="388.11" gradientTransform="translate(376.98 -52.94) rotate(30) skewX(-30)" xlink:href="#linear-gradient-6"/>
    <linearGradient id="linear-gradient-31" x1="308.86" y1="390.26" x2="314.03" y2="385.1" gradientTransform="translate(376.98 -52.94) rotate(30) skewX(-30)" xlink:href="#linear-gradient-6"/>
    <linearGradient id="linear-gradient-32" x1="305.39" y1="387.25" x2="310.55" y2="382.09" gradientTransform="translate(376.98 -52.94) rotate(30) skewX(-30)" xlink:href="#linear-gradient-6"/>
    <linearGradient id="linear-gradient-33" x1="301.91" y1="384.24" x2="307.08" y2="379.08" gradientTransform="translate(376.98 -52.94) rotate(30) skewX(-30)" xlink:href="#linear-gradient-6"/>
    <linearGradient id="linear-gradient-34" x1="298.43" y1="381.23" x2="303.6" y2="376.07" gradientTransform="translate(376.98 -52.94) rotate(30) skewX(-30)" xlink:href="#linear-gradient-6"/>
    <linearGradient id="linear-gradient-35" x1="294.96" y1="378.22" x2="300.12" y2="373.06" gradientTransform="translate(376.98 -52.94) rotate(30) skewX(-30)" xlink:href="#linear-gradient-6"/>
    <linearGradient id="linear-gradient-36" x1="291.48" y1="375.21" x2="296.65" y2="370.04" gradientTransform="translate(376.98 -52.94) rotate(30) skewX(-30)" xlink:href="#linear-gradient-6"/>
    <linearGradient id="linear-gradient-37" x1="288" y1="372.2" x2="293.17" y2="367.03" gradientTransform="translate(376.98 -52.94) rotate(30) skewX(-30)" xlink:href="#linear-gradient-6"/>
    <linearGradient id="linear-gradient-38" x1="284.53" y1="369.19" x2="289.69" y2="364.02" gradientTransform="translate(376.98 -52.94) rotate(30) skewX(-30)" xlink:href="#linear-gradient-6"/>
    <linearGradient id="linear-gradient-39" x1="183.31" y1="126.92" x2="267.93" y2="126.92" xlink:href="#linear-gradient-6"/>
    <linearGradient id="linear-gradient-40" x1="112.82" y1="173.87" x2="110.17" y2="152.01" gradientTransform="translate(56.55)" xlink:href="#linear-gradient-4"/>
    <linearGradient id="linear-gradient-41" x1="278.85" y1="205.28" x2="297.13" y2="205.28" gradientTransform="translate(467.68) rotate(-180) scale(1 -1)" gradientUnits="userSpaceOnUse">
      <stop offset="0" stop-color="#1c1cc4"/>
      <stop offset="1" stop-color="#a91ca5"/>
    </linearGradient>
    <linearGradient id="linear-gradient-42" x1="274.43" y1="206.03" x2="292.32" y2="206.03" xlink:href="#linear-gradient-41"/>
    <linearGradient id="linear-gradient-43" x1="264.37" y1="157.23" x2="285.94" y2="157.23" gradientTransform="translate(464.74 319.5) rotate(-119.46) scale(1 -1)" gradientUnits="userSpaceOnUse">
      <stop offset="0" stop-color="#fff"/>
      <stop offset=".72" stop-color="#efefef"/>
      <stop offset="1" stop-color="#e8e8e8"/>
    </linearGradient>
    <linearGradient id="linear-gradient-44" x1="281.43" y1="146.82" x2="292.37" y2="146.82" gradientTransform="translate(467.68) rotate(-180) scale(1 -1)" gradientUnits="userSpaceOnUse">
      <stop offset="0" stop-color="#ffe2c4"/>
      <stop offset="1" stop-color="#ffb870"/>
    </linearGradient>
    <linearGradient id="linear-gradient-45" x1="276.13" y1="170.83" x2="300.56" y2="170.83" gradientTransform="translate(467.68) rotate(-180) scale(1 -1)" gradientUnits="userSpaceOnUse">
      <stop offset="0" stop-color="#1c1ca5"/>
      <stop offset=".14" stop-color="#211ca5"/>
      <stop offset=".32" stop-color="#2f1ca5"/>
      <stop offset=".51" stop-color="#481ca5"/>
      <stop offset=".71" stop-color="#6a1ca5"/>
      <stop offset=".92" stop-color="#961ca5"/>
      <stop offset="1" stop-color="#a91ca5"/>
    </linearGradient>
    <linearGradient id="linear-gradient-46" x1="267.64" y1="164.25" x2="272.32" y2="164.25" xlink:href="#linear-gradient-44"/>
    <linearGradient id="linear-gradient-47" x1="274.33" y1="181.64" x2="277.46" y2="155.77" gradientTransform="translate(467.68) rotate(-180) scale(1 -1)" xlink:href="#linear-gradient-4"/>
    <linearGradient id="linear-gradient-48" x1="225.02" y1="159.32" x2="234.42" y2="159.32" gradientTransform="translate(-34.96 20.9) rotate(-5.43)" xlink:href="#linear-gradient-44"/>
    <linearGradient id="linear-gradient-49" x1="231.78" y1="159.96" x2="263.07" y2="179.16" gradientTransform="translate(-34.96 20.9) rotate(-5.43)" xlink:href="#linear-gradient-45"/>
    <linearGradient id="linear-gradient-50" x1="241.7" y1="219.74" x2="257.02" y2="219.74" gradientTransform="translate(-17.4)" xlink:href="#linear-gradient-41"/>
    <linearGradient id="linear-gradient-51" x1="234.41" y1="220.49" x2="252.04" y2="220.49" gradientTransform="translate(-17.4)" xlink:href="#linear-gradient-41"/>
    <linearGradient id="linear-gradient-52" x1="241.15" y1="161.28" x2="252.09" y2="161.28" gradientTransform="translate(-17.4)" xlink:href="#linear-gradient-44"/>
    <linearGradient id="linear-gradient-53" x1="235.86" y1="185.3" x2="260.28" y2="185.3" gradientTransform="translate(-17.4)" xlink:href="#linear-gradient-45"/>
    <linearGradient id="linear-gradient-54" x1="233.84" y1="204.08" x2="238.05" y2="203.68" gradientTransform="translate(77.9 -74.41) rotate(22.73)" xlink:href="#linear-gradient-44"/>
    <linearGradient id="linear-gradient-55" x1="205.81" y1="9.67" x2="205.81" y2="-13.51" gradientTransform="translate(368.03 -135) rotate(90) scale(1.15 .87) skewX(23.41)" gradientUnits="userSpaceOnUse">
      <stop offset="0" stop-color="#5517b0"/>
      <stop offset=".04" stop-color="#5819b3"/>
      <stop offset=".39" stop-color="#6d2dca"/>
      <stop offset=".72" stop-color="#7a39d8"/>
      <stop offset="1" stop-color="#7f3edd"/>
    </linearGradient>
    <linearGradient id="linear-gradient-56" x1="205.81" y1="8.06" x2="205.81" y2="-11.9" gradientTransform="translate(368.03 -135) rotate(90) scale(1.15 .87) skewX(23.41)" gradientUnits="userSpaceOnUse">
      <stop offset="0" stop-color="#7f3edd"/>
      <stop offset=".28" stop-color="#7a39d8"/>
      <stop offset=".61" stop-color="#6d2dca"/>
      <stop offset=".96" stop-color="#5819b3"/>
      <stop offset="1" stop-color="#5517b0"/>
    </linearGradient>
    <linearGradient id="linear-gradient-57" x1="224.59" y1="31.27" x2="224.59" y2="8.09" gradientTransform="translate(368.03 -135) rotate(90) scale(1.15 .87) skewX(23.41)" gradientUnits="userSpaceOnUse">
      <stop offset="0" stop-color="#146fc9"/>
      <stop offset=".02" stop-color="#1570ca"/>
      <stop offset=".37" stop-color="#2c85de"/>
      <stop offset=".71" stop-color="#3a92ea"/>
      <stop offset="1" stop-color="#3f97ef"/>
    </linearGradient>
    <linearGradient id="linear-gradient-58" x1="224.59" y1="29.87" x2="224.59" y2="9.49" gradientTransform="translate(368.03 -135) rotate(90) scale(1.15 .87) skewX(23.41)" gradientUnits="userSpaceOnUse">
      <stop offset="0" stop-color="#3f97ef"/>
      <stop offset=".29" stop-color="#3a92ea"/>
      <stop offset=".63" stop-color="#2c85de"/>
      <stop offset=".98" stop-color="#1570ca"/>
      <stop offset="1" stop-color="#146fc9"/>
    </linearGradient>
    <linearGradient id="linear-gradient-59" x1="243.37" y1="7.05" x2="243.37" y2="-10.88" gradientTransform="translate(368.03 -135) rotate(90) scale(1.15 .87) skewX(23.41)" gradientUnits="userSpaceOnUse">
      <stop offset="0" stop-color="#0faac4"/>
      <stop offset=".21" stop-color="#1ec0d3"/>
      <stop offset=".5" stop-color="#2fd7e4"/>
      <stop offset=".77" stop-color="#39e5ee"/>
      <stop offset="1" stop-color="#3deaf2"/>
    </linearGradient>
    <linearGradient id="linear-gradient-60" x1="243.37" y1="5.7" x2="243.37" y2="-9.54" gradientTransform="translate(368.03 -135) rotate(90) scale(1.15 .87) skewX(23.41)" gradientUnits="userSpaceOnUse">
      <stop offset="0" stop-color="#3deaf2"/>
      <stop offset=".23" stop-color="#39e5ee"/>
      <stop offset=".5" stop-color="#2fd7e4"/>
      <stop offset=".79" stop-color="#1ec0d3"/>
      <stop offset="1" stop-color="#0faac4"/>
    </linearGradient>
    <linearGradient id="linear-gradient-61" x1="262.15" y1="27.79" x2="262.15" y2="11.58" gradientTransform="translate(368.03 -135) rotate(90) scale(1.15 .87) skewX(23.41)" gradientUnits="userSpaceOnUse">
      <stop offset="0" stop-color="#34bd21"/>
      <stop offset=".03" stop-color="#37be21"/>
      <stop offset=".47" stop-color="#6ad324"/>
      <stop offset=".81" stop-color="#8ae027"/>
      <stop offset="1" stop-color="#97e528"/>
    </linearGradient>
    <linearGradient id="linear-gradient-62" x1="262.15" y1="26.5" x2="262.15" y2="12.87" gradientTransform="translate(368.03 -135) rotate(90) scale(1.15 .87) skewX(23.41)" gradientUnits="userSpaceOnUse">
      <stop offset="0" stop-color="#97e528"/>
      <stop offset=".19" stop-color="#8ae027"/>
      <stop offset=".53" stop-color="#6ad324"/>
      <stop offset=".97" stop-color="#37be21"/>
      <stop offset="1" stop-color="#34bd21"/>
    </linearGradient>
    <linearGradient id="linear-gradient-63" x1="281.18" y1="10.77" x2="281.18" y2="-12.41" xlink:href="#linear-gradient-55"/>
    <linearGradient id="linear-gradient-64" x1="281.19" y1="9.16" x2="281.19" y2="-10.8" xlink:href="#linear-gradient-56"/>
    <linearGradient id="linear-gradient-65" x1="299.97" y1="32.37" x2="299.97" y2="9.19" xlink:href="#linear-gradient-57"/>
    <linearGradient id="linear-gradient-66" x1="299.97" y1="30.97" x2="299.97" y2="10.59" xlink:href="#linear-gradient-58"/>
    <linearGradient id="linear-gradient-67" x1="318.75" y1="8.14" x2="318.75" y2="-9.78" xlink:href="#linear-gradient-59"/>
    <linearGradient id="linear-gradient-68" x1="318.75" y1="6.8" x2="318.75" y2="-8.44" xlink:href="#linear-gradient-60"/>
    <linearGradient id="linear-gradient-69" x1="337.53" y1="28.89" x2="337.53" y2="12.68" xlink:href="#linear-gradient-61"/>
    <linearGradient id="linear-gradient-70" x1="337.53" y1="27.59" x2="337.53" y2="13.97" xlink:href="#linear-gradient-62"/>
    <linearGradient id="linear-gradient-71" x1="356.31" y1="6.1" x2="356.31" y2="-7.74" gradientTransform="translate(368.03 -135) rotate(90) scale(1.15 .87) skewX(23.41)" gradientUnits="userSpaceOnUse">
      <stop offset="0" stop-color="#fcce22"/>
      <stop offset=".33" stop-color="#fcc522"/>
      <stop offset=".86" stop-color="#fcaf22"/>
      <stop offset="1" stop-color="#fca822"/>
    </linearGradient>
    <linearGradient id="linear-gradient-72" x1="356.31" y1="4.97" x2="356.31" y2="-6.61" gradientTransform="translate(368.03 -135) rotate(90) scale(1.15 .87) skewX(23.41)" gradientUnits="userSpaceOnUse">
      <stop offset="0" stop-color="#fca822"/>
      <stop offset=".14" stop-color="#fcaf22"/>
      <stop offset=".67" stop-color="#fcc522"/>
      <stop offset="1" stop-color="#fcce22"/>
    </linearGradient>
    <linearGradient id="linear-gradient-73" x1="27.98" y1="294.38" x2="91.64" y2="294.38" gradientUnits="userSpaceOnUse">
      <stop offset="0" stop-color="#631ca5"/>
      <stop offset=".22" stop-color="#681ca5"/>
      <stop offset=".48" stop-color="#761ca5"/>
      <stop offset=".77" stop-color="#8f1ca5"/>
      <stop offset="1" stop-color="#a91ca5"/>
    </linearGradient>
    <linearGradient id="linear-gradient-74" x1=".02" y1="137.49" x2="18.97" y2="137.49" gradientTransform="translate(43.25 144.43) rotate(-30) skewX(-30)" gradientUnits="userSpaceOnUse">
      <stop offset="0" stop-color="#368cad"/>
      <stop offset=".13" stop-color="#2d98b3"/>
      <stop offset=".45" stop-color="#1dafbf"/>
      <stop offset=".74" stop-color="#14bdc6"/>
      <stop offset="1" stop-color="#11c2c9"/>
    </linearGradient>
    <linearGradient id="linear-gradient-75" x1="117.48" y1="140.79" x2="131.99" y2="140.79" gradientTransform="translate(-70.45 512.86) rotate(-90) scale(1.15 .87) skewX(23.41)" xlink:href="#linear-gradient-74"/>
    <linearGradient id="linear-gradient-76" x1="583.49" y1="357.88" x2="565.27" y2="82.08" xlink:href="#linear-gradient"/>
    <linearGradient id="linear-gradient-77" x1="328.39" y1="316.01" x2="307.8" y2="4.41" xlink:href="#linear-gradient"/>
    <linearGradient id="linear-gradient-78" x1="392.22" y1="362.69" x2="385.73" y2="264.48" xlink:href="#linear-gradient"/>
    <linearGradient id="linear-gradient-79" x1="476.03" y1="358.02" x2="463.98" y2="175.65" gradientTransform="translate(-262.93)" xlink:href="#linear-gradient"/>
    <linearGradient id="linear-gradient-80" x1="165.31" y1="328.51" x2="249.36" y2="244.46" gradientTransform="translate(408.64) rotate(-180) scale(1 -1)" xlink:href="#linear-gradient-6"/>
  </defs>
  <g class="cls-125">
    <g id="Layer_2" data-name="Layer 2">
      <g id="OBJECTS">
        <g>
          <polygon class="cls-63" points="190.03 0 236.78 0 236.78 177.3 190.03 150.41 190.03 0"/>
          <polygon class="cls-91" points="249.04 31.64 295.78 31.64 295.78 208.93 249.04 182.05 249.04 31.64"/>
          <polygon class="cls-77" points="308.85 64.47 355.59 64.47 355.59 241.76 308.85 214.88 308.85 64.47"/>
          <g>
            <path class="cls-18" d="m232.13,326.62l-158.69-91.62,84.35-48.7,158.69,91.62-84.35,48.7Zm-121.03-91.62l121.03,69.88,46.7-26.96-121.04-69.88-46.7,26.96Z"/>
            <polygon class="cls-18" points="237.14 242.98 218.32 232.11 279.31 196.9 342.46 233.36 365 220.35 383.83 231.22 342.46 255.1 279.3 218.64 237.14 242.98"/>
            <polygon class="cls-18" points="322.04 334.71 260.67 299.28 279.5 288.41 322.04 312.97 391.13 273.08 409.96 283.95 322.04 334.71"/>
            <polygon class="cls-18" points="56.14 302.15 0 269.76 18.83 258.89 56.14 280.41 83 264.9 153.84 305.8 184.37 288.18 203.19 299.04 153.84 327.54 83 286.64 56.14 302.15"/>
            <polygon class="cls-18" points="115.62 221.52 54.8 186.41 144.27 134.75 225.62 181.72 206.8 192.59 144.27 156.49 92.45 186.41 134.45 210.65 115.62 221.52"/>
          </g>
          <g>
            <g>
              <polygon class="cls-94" points="107.39 192.74 105.86 191.87 105.86 95.18 151.13 69.04 152.66 69.92 137.53 110.98 107.39 192.74"/>
              <polygon class="cls-28" points="107.39 192.74 105.86 191.87 105.86 95.18 137.53 112.36 107.39 192.74"/>
              <polygon class="cls-111" points="152.66 166.6 107.39 192.74 107.39 96.06 152.66 69.92 152.66 166.6"/>
              <g>
                <polygon class="cls-31" points="118.19 139.09 114.37 141.3 114.37 110.53 118.19 108.32 118.19 139.09"/>
                <polygon class="cls-47" points="125.06 135.13 121.25 137.33 121.25 112.28 125.06 110.07 125.06 135.13"/>
                <polygon class="cls-118" points="131.93 131.16 128.12 133.36 128.12 113.27 131.93 111.07 131.93 131.16"/>
                <polygon class="cls-24" points="138.81 127.19 134.99 129.39 134.99 102.07 138.81 99.87 138.81 127.19"/>
                <polygon class="cls-60" points="145.68 123.22 141.86 125.43 141.86 111.05 145.68 108.85 145.68 123.22"/>
              </g>
            </g>
            <polygon class="cls-94" points="145.95 132.16 114.6 150.26 114.6 147 145.95 128.89 145.95 132.16"/>
            <polygon class="cls-94" points="145.95 137.41 114.6 155.51 114.6 152.25 145.95 134.14 145.95 137.41"/>
            <polygon class="cls-94" points="145.95 142.66 114.6 160.76 114.6 157.5 145.95 139.39 145.95 142.66"/>
            <polygon class="cls-94" points="145.95 147.91 114.6 166.01 114.6 162.75 145.95 144.64 145.95 147.91"/>
          </g>
          <g>
            <g>
              <polygon class="cls-66" points="230.75 298.85 121.54 235.8 121.54 229.8 268.39 271.13 268.39 277.13 230.75 298.85"/>
              <polygon class="cls-94" points="230.75 298.85 121.54 235.8 121.54 229.8 230.83 288.08 230.75 298.85"/>
              <polygon class="cls-4" points="230.75 292.85 121.54 229.8 159.18 208.07 268.39 271.13 230.75 292.85"/>
            </g>
            <g>
              <polygon class="cls-66" points="226.41 286.05 130.45 230.65 130.45 225.38 259.48 261.69 259.48 266.96 226.41 286.05"/>
              <polygon class="cls-94" points="226.41 286.05 130.45 230.65 130.45 225.38 226.48 276.59 226.41 286.05"/>
              <polygon class="cls-4" points="226.41 280.78 130.45 225.38 163.52 206.29 259.48 261.69 226.41 280.78"/>
            </g>
            <g>
              <polygon class="cls-66" points="224.39 276.18 137.64 226.09 137.64 221.33 254.29 254.15 254.29 258.92 224.39 276.18"/>
              <polygon class="cls-94" points="224.39 276.18 137.64 226.09 137.64 221.33 224.46 267.63 224.39 276.18"/>
              <polygon class="cls-4" points="224.39 271.41 137.64 221.33 167.54 204.07 254.29 254.15 224.39 271.41"/>
            </g>
            <g>
              <polygon class="cls-66" points="223.06 266.28 147.61 222.71 147.61 218.57 249.06 247.12 249.06 251.26 223.06 266.28"/>
              <polygon class="cls-94" points="223.06 266.28 147.61 222.71 147.61 218.57 223.12 258.84 223.06 266.28"/>
              <polygon class="cls-4" points="223.06 262.13 147.61 218.57 173.61 203.56 249.06 247.12 223.06 262.13"/>
            </g>
          </g>
          <path class="cls-27" d="m218.83,174.33s1.54-2.62,3.79-2.71c2.25-.08,3.58,11.22,3.71,17.51.12,6.28-8.02,13.5-8.02,13.5,0,0-2.11-1.28-2.73-2.37-.62-1.09,5.12-9.57,4.75-13.96s-1.87-6.93-1.5-11.97Z"/>
          <g>
            <g>
              <g>
                <path class="cls-65" d="m262.31,236.52h0v-3.43l2.46,1.24,4.33-2.5c1.41-.81,3.69-.81,5.1,0l43.48,25.11,2.48-1.21v3.39h0c.05.57-.29,1.15-1.05,1.59l-5.74,3.32c-1.41.81-3.69.81-5.1,0l-44.91-25.93c-.75-.43-1.1-1.01-1.05-1.57Z"/>
                <path class="cls-116" d="m317.69,256.94l2.48-1.21v3.39h0c.05.57-.29,1.15-1.05,1.59l-5.74,3.32c-.68.39-1.58.59-2.48.6v-11.61l6.79,3.92Z"/>
                <path class="cls-9" d="m313.38,260.4c-1.41.82-3.69.82-5.1,0l-44.91-25.93c-1.41-.82-1.41-2.13,0-2.95l5.74-3.32c1.41-.81,3.69-.81,5.1,0l44.91,25.93c1.41.81,1.41,2.13,0,2.95l-5.74,3.31Z"/>
              </g>
              <g>
                <polygon class="cls-102" points="299.77 251.45 302.9 249.68 302.9 233.66 282.71 222 299.77 251.45"/>
                <polygon class="cls-72" points="279.58 239.79 299.77 251.45 299.77 235.44 279.58 223.77 279.58 239.79"/>
              </g>
              <path class="cls-116" d="m246.31,139.18l2.94-1.68c.06-.05.13-.09.2-.11h0c.28-.11.65-.06,1.05.17l84.53,48.8c.91.52,1.64,1.8,1.64,2.84v64.91c0,.52-.18.89-.48,1.06-.04.02-.09.04-.14.06l-2.92,1.68-.61-3.16.87.36-82.89-47.86c-.91-.52-1.64-1.8-1.64-2.84v-62.46l-2.55-1.77Z"/>
              <path class="cls-9" d="m249.25,137.5c.06-.05.13-.09.2-.11h0c.28-.11.65-.06,1.05.17l84.53,48.8c.39.23.75.6,1.03,1.03l-56.5,35.64-29.06-16.77c-.91-.52-1.64-1.8-1.64-2.84v-62.46l-2.55-1.77,2.94-1.68Z"/>
              <path class="cls-65" d="m245.82,205.15c0,1.05.73,2.32,1.64,2.84l84.53,48.8c.91.52,1.64.1,1.64-.95v-64.91c0-1.05-.73-2.32-1.64-2.84l-84.53-48.8c-.91-.52-1.64-.1-1.64.95v64.91Z"/>
              <polygon class="cls-16" points="247.41 200.39 332.03 249.25 332.03 190.82 247.41 141.96 247.41 200.39"/>
              <polygon class="cls-44" points="248.24 142.44 248.24 199.75 332.03 248.12 332.03 249.25 247.41 200.39 247.41 141.96 248.24 142.44"/>
            </g>
            <g>
              <polygon class="cls-31" points="306.32 227.45 312.1 230.78 312.1 184.22 306.32 180.89 306.32 227.45"/>
              <polygon class="cls-47" points="295.92 221.45 301.7 224.78 301.7 186.87 295.92 183.54 295.92 221.45"/>
              <polygon class="cls-118" points="285.52 215.44 291.3 218.78 291.3 188.37 285.52 185.04 285.52 215.44"/>
              <polygon class="cls-24" points="275.12 209.44 280.9 212.77 280.9 171.43 275.12 168.09 275.12 209.44"/>
              <polygon class="cls-60" points="264.72 203.43 270.5 206.77 270.5 185.01 264.72 181.68 264.72 203.43"/>
            </g>
            <polygon class="cls-15" points="288.16 187.68 277.96 170.65 268.01 183.84 267.21 183.23 278.06 168.87 288.66 186.58 298.89 184.81 309.08 182.07 309.34 183.04 299.11 185.78 288.16 187.68"/>
            <path class="cls-54" d="m268.46,184.25c0,.79-.56,1.12-1.25.72-.69-.4-1.25-1.36-1.25-2.16s.56-1.12,1.25-.72c.69.4,1.24,1.36,1.25,2.16Z"/>
            <path class="cls-54" d="m279.26,170.63c0,.79-.56,1.12-1.25.72-.69-.4-1.25-1.36-1.25-2.16s.56-1.12,1.25-.72c.69.4,1.24,1.36,1.25,2.16Z"/>
            <path class="cls-54" d="m289.52,187.75c0,.79-.56,1.12-1.25.72-.69-.4-1.25-1.36-1.25-2.16s.56-1.12,1.25-.72c.69.4,1.24,1.36,1.25,2.16Z"/>
            <path class="cls-54" d="m299.9,186.15c0,.79-.56,1.12-1.25.72-.69-.4-1.25-1.36-1.25-2.16s.56-1.12,1.25-.72c.69.4,1.24,1.36,1.25,2.16Z"/>
            <path class="cls-54" d="m310.27,183.22c0,.79-.56,1.12-1.25.72-.69-.4-1.25-1.36-1.25-2.16s.56-1.12,1.25-.72c.69.4,1.24,1.36,1.25,2.16Z"/>
          </g>
          <polygon class="cls-69" points="83.52 7.92 21.04 7.92 21.04 244.91 83.52 208.97 83.52 7.92"/>
          <g>
            <g>
              <polygon class="cls-46" points="31.72 238.71 24.6 242.83 24.6 235.19 31.72 231.08 31.72 238.71"/>
              <polygon class="cls-20" points="31.72 226.56 24.6 230.68 24.6 223.04 31.72 218.92 31.72 226.56"/>
              <polygon class="cls-37" points="31.72 214.41 24.6 218.52 24.6 210.89 31.72 206.77 31.72 214.41"/>
              <polygon class="cls-112" points="31.72 202.26 24.6 206.37 24.6 198.74 31.72 194.62 31.72 202.26"/>
              <polygon class="cls-33" points="31.72 190.11 24.6 194.22 24.6 186.59 31.72 182.47 31.72 190.11"/>
              <polygon class="cls-3" points="31.72 177.96 24.6 182.07 24.6 174.43 31.72 170.32 31.72 177.96"/>
              <polygon class="cls-68" points="31.72 165.81 24.6 169.92 24.6 162.28 31.72 158.17 31.72 165.81"/>
              <polygon class="cls-39" points="31.72 153.65 24.6 157.77 24.6 150.13 31.72 146.02 31.72 153.65"/>
              <polygon class="cls-21" points="31.72 141.5 24.6 145.62 24.6 137.98 31.72 133.87 31.72 141.5"/>
            </g>
            <g>
              <polygon class="cls-46" points="41.45 233.1 34.33 237.21 34.33 229.57 41.45 225.46 41.45 233.1"/>
              <polygon class="cls-20" points="41.45 220.94 34.33 225.06 34.33 217.42 41.45 213.31 41.45 220.94"/>
              <polygon class="cls-37" points="41.45 208.79 34.33 212.91 34.33 205.27 41.45 201.16 41.45 208.79"/>
              <polygon class="cls-112" points="41.45 196.64 34.33 200.76 34.33 193.12 41.45 189.01 41.45 196.64"/>
              <polygon class="cls-33" points="41.45 184.49 34.33 188.6 34.33 180.97 41.45 176.86 41.45 184.49"/>
              <polygon class="cls-3" points="41.45 172.34 34.33 176.45 34.33 168.82 41.45 164.7 41.45 172.34"/>
              <polygon class="cls-68" points="41.45 160.19 34.33 164.3 34.33 156.66 41.45 152.55 41.45 160.19"/>
            </g>
            <g>
              <polygon class="cls-46" points="51.18 227.48 44.05 231.6 44.05 223.96 51.18 219.84 51.18 227.48"/>
              <polygon class="cls-20" points="51.18 215.33 44.05 219.44 44.05 211.81 51.18 207.69 51.18 215.33"/>
              <polygon class="cls-37" points="51.18 203.18 44.05 207.29 44.05 199.65 51.18 195.54 51.18 203.18"/>
              <polygon class="cls-112" points="51.18 191.03 44.05 195.14 44.05 187.5 51.18 183.39 51.18 191.03"/>
              <polygon class="cls-33" points="51.18 178.87 44.05 182.99 44.05 175.35 51.18 171.24 51.18 178.87"/>
            </g>
            <g>
              <polygon class="cls-46" points="60.91 221.86 53.78 225.98 53.78 218.34 60.91 214.23 60.91 221.86"/>
              <polygon class="cls-20" points="60.91 209.71 53.78 213.83 53.78 206.19 60.91 202.08 60.91 209.71"/>
              <polygon class="cls-37" points="60.91 197.56 53.78 201.67 53.78 194.04 60.91 189.92 60.91 197.56"/>
              <polygon class="cls-112" points="60.91 185.41 53.78 189.52 53.78 181.89 60.91 177.77 60.91 185.41"/>
              <polygon class="cls-33" points="60.91 173.26 53.78 177.37 53.78 169.74 60.91 165.62 60.91 173.26"/>
              <polygon class="cls-3" points="60.91 161.11 53.78 165.22 53.78 157.58 60.91 153.47 60.91 161.11"/>
              <polygon class="cls-68" points="60.91 148.96 53.78 153.07 53.78 145.43 60.91 141.32 60.91 148.96"/>
              <polygon class="cls-39" points="60.91 136.8 53.78 140.92 53.78 133.28 60.91 129.17 60.91 136.8"/>
            </g>
            <g>
              <polygon class="cls-46" points="70.64 216.25 63.51 220.36 63.51 212.72 70.64 208.61 70.64 216.25"/>
              <polygon class="cls-20" points="70.64 204.09 63.51 208.21 63.51 200.57 70.64 196.46 70.64 204.09"/>
              <polygon class="cls-37" points="70.64 191.94 63.51 196.06 63.51 188.42 70.64 184.31 70.64 191.94"/>
            </g>
            <g>
              <polygon class="cls-46" points="80.36 210.63 73.24 214.74 73.24 207.11 80.36 202.99 80.36 210.63"/>
              <polygon class="cls-20" points="80.36 198.48 73.24 202.59 73.24 194.96 80.36 190.84 80.36 198.48"/>
              <polygon class="cls-37" points="80.36 186.33 73.24 190.44 73.24 182.8 80.36 178.69 80.36 186.33"/>
              <polygon class="cls-112" points="80.36 174.18 73.24 178.29 73.24 170.65 80.36 166.54 80.36 174.18"/>
              <polygon class="cls-33" points="80.36 162.02 73.24 166.14 73.24 158.5 80.36 154.39 80.36 162.02"/>
              <polygon class="cls-3" points="80.36 149.87 73.24 153.99 73.24 146.35 80.36 142.24 80.36 149.87"/>
            </g>
          </g>
          <g>
            <g>
              <g>
                <polygon class="cls-66" points="275.21 348.84 270.42 346.07 270.42 344.66 280.01 344.66 280.01 346.07 275.21 348.84"/>
                <polygon class="cls-94" points="275.21 348.84 270.42 346.07 270.42 344.66 275.21 347.42 275.21 348.84"/>
                <polygon class="cls-82" points="275.21 347.42 270.42 344.66 275.21 341.89 280.01 344.66 275.21 347.42"/>
              </g>
              <g>
                <polygon class="cls-66" points="275.21 345.36 270.42 342.6 270.42 341.18 280.01 341.18 280.01 342.6 275.21 345.36"/>
                <polygon class="cls-94" points="275.21 345.36 270.42 342.6 270.42 341.18 275.21 343.95 275.21 345.36"/>
                <polygon class="cls-73" points="275.21 343.95 270.42 341.18 275.21 338.41 280.01 341.18 275.21 343.95"/>
              </g>
              <g>
                <polygon class="cls-66" points="275.21 341.89 270.42 339.12 270.42 337.7 280.01 337.7 280.01 339.12 275.21 341.89"/>
                <polygon class="cls-94" points="275.21 341.89 270.42 339.12 270.42 337.7 275.21 340.47 275.21 341.89"/>
                <polygon class="cls-107" points="275.21 340.47 270.42 337.7 275.21 334.93 280.01 337.7 275.21 340.47"/>
              </g>
              <g>
                <polygon class="cls-66" points="275.21 338.41 270.42 335.64 270.42 334.23 280.01 334.23 280.01 335.64 275.21 338.41"/>
                <polygon class="cls-94" points="275.21 338.41 270.42 335.64 270.42 334.23 275.21 337 275.21 338.41"/>
                <polygon class="cls-23" points="275.21 337 270.42 334.23 275.21 331.46 280.01 334.23 275.21 337"/>
              </g>
              <g>
                <polygon class="cls-66" points="275.21 334.93 270.42 332.17 270.42 330.75 280.01 330.75 280.01 332.17 275.21 334.93"/>
                <polygon class="cls-94" points="275.21 334.93 270.42 332.17 270.42 330.75 275.21 333.52 275.21 334.93"/>
                <polygon class="cls-2" points="275.21 333.52 270.42 330.75 275.21 327.98 280.01 330.75 275.21 333.52"/>
              </g>
              <g>
                <polygon class="cls-66" points="275.21 331.46 270.42 328.69 270.42 327.27 280.01 327.27 280.01 328.69 275.21 331.46"/>
                <polygon class="cls-94" points="275.21 331.46 270.42 328.69 270.42 327.27 275.21 330.04 275.21 331.46"/>
                <polygon class="cls-42" points="275.21 330.04 270.42 327.27 275.21 324.5 280.01 327.27 275.21 330.04"/>
              </g>
              <g>
                <polygon class="cls-66" points="275.21 327.98 270.42 325.21 270.42 323.8 280.01 323.8 280.01 325.21 275.21 327.98"/>
                <polygon class="cls-94" points="275.21 327.98 270.42 325.21 270.42 323.8 275.21 326.56 275.21 327.98"/>
                <polygon class="cls-62" points="275.21 326.56 270.42 323.8 275.21 321.03 280.01 323.8 275.21 326.56"/>
              </g>
              <g>
                <polygon class="cls-66" points="275.21 324.5 270.42 321.74 270.42 320.32 280.01 320.32 280.01 321.74 275.21 324.5"/>
                <polygon class="cls-94" points="275.21 324.5 270.42 321.74 270.42 320.32 275.21 323.09 275.21 324.5"/>
                <polygon class="cls-22" points="275.21 323.09 270.42 320.32 275.21 317.55 280.01 320.32 275.21 323.09"/>
              </g>
              <g>
                <polygon class="cls-66" points="275.21 321.03 270.42 318.26 270.42 316.84 280.01 316.84 280.01 318.26 275.21 321.03"/>
                <polygon class="cls-94" points="275.21 321.03 270.42 318.26 270.42 316.84 275.21 319.61 275.21 321.03"/>
                <polygon class="cls-50" points="275.21 319.61 270.42 316.84 275.21 314.07 280.01 316.84 275.21 319.61"/>
              </g>
              <g>
                <polygon class="cls-66" points="275.21 317.55 270.42 314.78 270.42 313.37 280.01 313.37 280.01 314.78 275.21 317.55"/>
                <polygon class="cls-94" points="275.21 317.55 270.42 314.78 270.42 313.37 275.21 316.13 275.21 317.55"/>
                <polygon class="cls-5" points="275.21 316.13 270.42 313.37 275.21 310.6 280.01 313.37 275.21 316.13"/>
              </g>
            </g>
            <g>
              <g>
                <polygon class="cls-66" points="267.07 353.73 262.27 350.97 262.27 349.55 271.86 349.55 271.86 350.97 267.07 353.73"/>
                <polygon class="cls-94" points="267.07 353.73 262.27 350.97 262.27 349.55 267.07 352.32 267.07 353.73"/>
                <polygon class="cls-90" points="267.07 352.32 262.27 349.55 267.07 346.78 271.86 349.55 267.07 352.32"/>
              </g>
              <g>
                <polygon class="cls-66" points="267.07 350.26 262.27 347.49 262.27 346.07 271.86 346.07 271.86 347.49 267.07 350.26"/>
                <polygon class="cls-94" points="267.07 350.26 262.27 347.49 262.27 346.07 267.07 348.84 267.07 350.26"/>
                <polygon class="cls-6" points="267.07 348.84 262.27 346.07 267.07 343.3 271.86 346.07 267.07 348.84"/>
              </g>
              <g>
                <polygon class="cls-66" points="267.07 346.78 262.27 344.01 262.27 342.6 271.86 342.6 271.86 344.01 267.07 346.78"/>
                <polygon class="cls-94" points="267.07 346.78 262.27 344.01 262.27 342.6 267.07 345.36 267.07 346.78"/>
                <polygon class="cls-61" points="267.07 345.36 262.27 342.6 267.07 339.83 271.86 342.6 267.07 345.36"/>
              </g>
              <g>
                <polygon class="cls-66" points="267.07 343.3 262.27 340.54 262.27 339.12 271.86 339.12 271.86 340.54 267.07 343.3"/>
                <polygon class="cls-94" points="267.07 343.3 262.27 340.54 262.27 339.12 267.07 341.89 267.07 343.3"/>
                <polygon class="cls-14" points="267.07 341.89 262.27 339.12 267.07 336.35 271.86 339.12 267.07 341.89"/>
              </g>
              <g>
                <polygon class="cls-66" points="267.07 339.83 262.27 337.06 262.27 335.64 271.86 335.64 271.86 337.06 267.07 339.83"/>
                <polygon class="cls-94" points="267.07 339.83 262.27 337.06 262.27 335.64 267.07 338.41 267.07 339.83"/>
                <polygon class="cls-51" points="267.07 338.41 262.27 335.64 267.07 332.87 271.86 335.64 267.07 338.41"/>
              </g>
            </g>
            <g>
              <g>
                <polygon class="cls-66" points="259.02 358.63 254.22 355.86 254.22 354.44 263.81 354.44 263.81 355.86 259.02 358.63"/>
                <polygon class="cls-94" points="259.02 358.63 254.22 355.86 254.22 354.44 259.02 357.21 259.02 358.63"/>
                <polygon class="cls-43" points="259.02 357.21 254.22 354.44 259.02 351.67 263.81 354.44 259.02 357.21"/>
              </g>
              <g>
                <polygon class="cls-66" points="259.02 355.15 254.22 352.38 254.22 350.97 263.81 350.97 263.81 352.38 259.02 355.15"/>
                <polygon class="cls-94" points="259.02 355.15 254.22 352.38 254.22 350.97 259.02 353.73 259.02 355.15"/>
                <polygon class="cls-85" points="259.02 353.73 254.22 350.97 259.02 348.2 263.81 350.97 259.02 353.73"/>
              </g>
              <g>
                <polygon class="cls-66" points="259.02 351.67 254.22 348.91 254.22 347.49 263.81 347.49 263.81 348.91 259.02 351.67"/>
                <polygon class="cls-94" points="259.02 351.67 254.22 348.91 254.22 347.49 259.02 350.26 259.02 351.67"/>
                <polygon class="cls-45" points="259.02 350.26 254.22 347.49 259.02 344.72 263.81 347.49 259.02 350.26"/>
              </g>
              <g>
                <polygon class="cls-66" points="259.02 348.2 254.22 345.43 254.22 344.01 263.81 344.01 263.81 345.43 259.02 348.2"/>
                <polygon class="cls-94" points="259.02 348.2 254.22 345.43 254.22 344.01 259.02 346.78 259.02 348.2"/>
                <polygon class="cls-86" points="259.02 346.78 254.22 344.01 259.02 341.24 263.81 344.01 259.02 346.78"/>
              </g>
              <g>
                <polygon class="cls-66" points="259.02 344.72 254.22 341.95 254.22 340.54 263.81 340.54 263.81 341.95 259.02 344.72"/>
                <polygon class="cls-94" points="259.02 344.72 254.22 341.95 254.22 340.54 259.02 343.3 259.02 344.72"/>
                <polygon class="cls-74" points="259.02 343.3 254.22 340.54 259.02 337.77 263.81 340.54 259.02 343.3"/>
              </g>
              <g>
                <polygon class="cls-66" points="259.02 341.24 254.22 338.48 254.22 337.06 263.81 337.06 263.81 338.48 259.02 341.24"/>
                <polygon class="cls-94" points="259.02 341.24 254.22 338.48 254.22 337.06 259.02 339.83 259.02 341.24"/>
                <polygon class="cls-105" points="259.02 339.83 254.22 337.06 259.02 334.29 263.81 337.06 259.02 339.83"/>
              </g>
              <g>
                <polygon class="cls-66" points="259.02 337.77 254.22 335 254.22 333.58 263.81 333.58 263.81 335 259.02 337.77"/>
                <polygon class="cls-94" points="259.02 337.77 254.22 335 254.22 333.58 259.02 336.35 259.02 337.77"/>
                <polygon class="cls-100" points="259.02 336.35 254.22 333.58 259.02 330.81 263.81 333.58 259.02 336.35"/>
              </g>
              <g>
                <polygon class="cls-66" points="259.02 334.29 254.22 331.52 254.22 330.11 263.81 330.11 263.81 331.52 259.02 334.29"/>
                <polygon class="cls-94" points="259.02 334.29 254.22 331.52 254.22 330.11 259.02 332.87 259.02 334.29"/>
                <polygon class="cls-93" points="259.02 332.87 254.22 330.11 259.02 327.34 263.81 330.11 259.02 332.87"/>
              </g>
              <g>
                <polygon class="cls-66" points="259.02 330.81 254.22 328.04 254.22 326.63 263.81 326.63 263.81 328.04 259.02 330.81"/>
                <polygon class="cls-94" points="259.02 330.81 254.22 328.04 254.22 326.63 259.02 329.4 259.02 330.81"/>
                <polygon class="cls-29" points="259.02 329.4 254.22 326.63 259.02 323.86 263.81 326.63 259.02 329.4"/>
              </g>
              <g>
                <polygon class="cls-66" points="259.02 327.34 254.22 324.57 254.22 323.15 263.81 323.15 263.81 324.57 259.02 327.34"/>
                <polygon class="cls-94" points="259.02 327.34 254.22 324.57 254.22 323.15 259.02 325.92 259.02 327.34"/>
                <polygon class="cls-57" points="259.02 325.92 254.22 323.15 259.02 320.38 263.81 323.15 259.02 325.92"/>
              </g>
              <g>
                <polygon class="cls-66" points="259.02 323.86 254.22 321.09 254.22 319.68 263.81 319.68 263.81 321.09 259.02 323.86"/>
                <polygon class="cls-94" points="259.02 323.86 254.22 321.09 254.22 319.68 259.02 322.44 259.02 323.86"/>
                <polygon class="cls-7" points="259.02 322.44 254.22 319.68 259.02 316.91 263.81 319.68 259.02 322.44"/>
              </g>
              <g>
                <polygon class="cls-66" points="259.02 320.38 254.22 317.62 254.22 316.2 263.81 316.2 263.81 317.62 259.02 320.38"/>
                <polygon class="cls-94" points="259.02 320.38 254.22 317.62 254.22 316.2 259.02 318.97 259.02 320.38"/>
                <polygon class="cls-35" points="259.02 318.97 254.22 316.2 259.02 313.43 263.81 316.2 259.02 318.97"/>
              </g>
              <g>
                <polygon class="cls-66" points="259.02 316.91 254.22 314.14 254.22 312.72 263.81 312.72 263.81 314.14 259.02 316.91"/>
                <polygon class="cls-94" points="259.02 316.91 254.22 314.14 254.22 312.72 259.02 315.49 259.02 316.91"/>
                <polygon class="cls-55" points="259.02 315.49 254.22 312.72 259.02 309.95 263.81 312.72 259.02 315.49"/>
              </g>
              <g>
                <polygon class="cls-66" points="259.02 313.43 254.22 310.66 254.22 309.25 263.81 309.25 263.81 310.66 259.02 313.43"/>
                <polygon class="cls-94" points="259.02 313.43 254.22 310.66 254.22 309.25 259.02 312.01 259.02 313.43"/>
                <polygon class="cls-79" points="259.02 312.01 254.22 309.25 259.02 306.48 263.81 309.25 259.02 312.01"/>
              </g>
              <g>
                <polygon class="cls-66" points="259.02 309.95 254.22 307.18 254.22 305.77 263.81 305.77 263.81 307.18 259.02 309.95"/>
                <polygon class="cls-94" points="259.02 309.95 254.22 307.18 254.22 305.77 259.02 308.54 259.02 309.95"/>
                <polygon class="cls-113" points="259.02 308.54 254.22 305.77 259.02 303 263.81 305.77 259.02 308.54"/>
              </g>
              <g>
                <polygon class="cls-66" points="259.02 306.48 254.22 303.71 254.22 302.29 263.81 302.29 263.81 303.71 259.02 306.48"/>
                <polygon class="cls-94" points="259.02 306.48 254.22 303.71 254.22 302.29 259.02 305.06 259.02 306.48"/>
                <polygon class="cls-1" points="259.02 305.06 254.22 302.29 259.02 299.52 263.81 302.29 259.02 305.06"/>
              </g>
            </g>
          </g>
          <g>
            <polygon class="cls-70" points="183.31 131.71 267.93 180.57 267.93 122.14 183.31 73.28 183.31 131.71"/>
            <g>
              <g>
                <polygon class="cls-54" points="197.23 135.21 255.44 168.82 255.44 168.34 197.23 134.73 197.23 135.21"/>
                <polygon class="cls-54" points="197.23 129.87 255.44 163.48 255.44 163 197.23 129.39 197.23 129.87"/>
                <polygon class="cls-54" points="197.23 124.54 255.44 158.15 255.44 157.66 197.23 124.05 197.23 124.54"/>
                <polygon class="cls-54" points="197.23 119.2 255.44 152.81 255.44 152.33 197.23 118.72 197.23 119.2"/>
                <polygon class="cls-54" points="197.23 113.86 255.44 147.47 255.44 146.99 197.23 113.38 197.23 113.86"/>
                <polygon class="cls-54" points="197.23 108.52 255.44 142.13 255.44 141.65 197.23 108.04 197.23 108.52"/>
                <polygon class="cls-54" points="197.23 103.19 255.44 136.8 255.44 136.32 197.23 102.71 197.23 103.19"/>
                <polygon class="cls-54" points="197.23 97.52 255.44 131.13 255.44 130.65 197.23 97.04 197.23 97.52"/>
                <polygon class="cls-54" points="197.23 92.19 255.44 125.8 255.44 125.32 197.23 91.71 197.23 92.19"/>
                <polygon class="cls-54" points="197.23 86.85 255.44 120.46 255.44 119.98 197.23 86.37 197.23 86.85"/>
              </g>
              <g>
                <polygon class="cls-60" points="252.9 166.88 239.6 159.2 246.25 120.49 252.9 166.88"/>
                <polygon class="cls-60" points="239.6 159.2 226.3 151.52 232.95 123.33 239.6 159.2"/>
                <polygon class="cls-60" points="226.3 151.52 213 143.84 219.65 99.56 226.3 151.52"/>
                <polygon class="cls-60" points="206.35 98.39 213 143.84 199.7 136.16 206.35 98.39"/>
              </g>
              <g>
                <polygon class="cls-118" points="252.9 166.88 239.6 159.2 246.25 134.31 252.9 166.88"/>
                <polygon class="cls-118" points="239.6 159.2 226.3 151.52 232.96 130.48 239.6 159.2"/>
                <polygon class="cls-118" points="226.3 151.52 213 143.84 219.65 113.26 226.3 151.52"/>
                <polygon class="cls-118" points="206.35 107.98 213 143.84 199.7 136.16 206.35 107.98"/>
              </g>
              <g>
                <polygon class="cls-47" points="252.9 166.88 239.6 159.2 246.25 146.54 252.9 166.88"/>
                <polygon class="cls-47" points="239.6 159.2 226.3 151.52 232.95 134.01 239.6 159.2"/>
                <polygon class="cls-47" points="226.3 151.52 213 143.84 219.65 120.51 226.3 151.52"/>
                <polygon class="cls-47" points="206.35 120.88 213 143.84 199.7 136.16 206.35 120.88"/>
              </g>
              <g>
                <polygon class="cls-31" points="252.9 166.88 239.6 159.2 246.25 154.16 252.9 166.88"/>
                <polygon class="cls-31" points="239.6 159.2 226.3 151.52 232.95 142.1 239.6 159.2"/>
                <polygon class="cls-31" points="226.3 151.52 213 143.84 219.65 128.26 226.3 151.52"/>
                <polygon class="cls-31" points="206.35 125.48 213 143.84 199.7 136.16 206.35 125.48"/>
              </g>
            </g>
          </g>
          <g>
            <g>
              <path class="cls-38" d="m190.28,230.78s-.32,2.47-.1,3.04c.22.57,1.55.45,2.05.31,1.63-.46,5.55-2.41,5.45-4.02-.04-.66-1.03-.59-2.63.15-1.6.75-2.5.62-2.71.16-.21-.46-2.06.36-2.06.36Z"/>
              <path class="cls-38" d="m178.83,229.61s-.32,2.47-.1,3.04c.22.57,1.55.45,2.04.31,1.63-.46,5.55-2.4,5.45-4.02-.04-.66-1.03-.59-2.63.15-1.6.75-2.5.62-2.71.16-.21-.46-2.06.36-2.06.36Z"/>
              <g>
                <path class="cls-40" d="m168.43,152.77s-3.37,6.04-3.78,18.62c.69,2.41,7.56,1.03,8.32,0,.76-1.03,0-3.23,0-3.23h-3.03l.91-6.05-2.43-9.34Z"/>
                <g>
                  <path class="cls-36" d="m178.24,229.68c-.15-2.19-1.32-23.73-1.39-24.4-.67-6.27-6.42-11.68-6.77-13.01-1.24-4.85,0-11.39,0-11.39l11.33.47s2.63,10.7,2.76,22.81c.02,2.27-2.36,23.2-2.38,25.41l-3.55.1Z"/>
                  <path class="cls-19" d="m185.52,206.73c-.97-2.26-5.6-9.51-6.57-11.64-4.55-8.59-3.47-13.65-3.47-13.65l14.16-.56s2.48,17.46,3.59,21.91c.18.71-.38,27.53-.22,28.12l-2.89.28-4.59-24.45Z"/>
                  <rect class="cls-95" x="182.89" y="149.95" width="19.26" height="14.66" transform="translate(-39.1 247.57) rotate(-60.55)"/>
                  <rect class="cls-48" x="183.17" y="150.13" width="18.73" height="14.2" transform="translate(-39.05 247.56) rotate(-60.54)"/>
                  <path class="cls-96" d="m182.45,139.95s2.26-.09,3.21,2.49c.13.36.18.77.07,1.14-.2.72.08,1.81.38,2.61.55,1.5-.51,4.08-1.5,5.34-1.22.44-2.13-.48-2.13-.48l-.77,2.71-6.03-1.54s.73-2.15,0-5.48c-.72-3.32-.45-4.98,1.71-6.09,2.17-1.11,5.06-.7,5.06-.7"/>
                  <path class="cls-109" d="m184.71,135.91s-1.59,1.07-6.46,1.41c-4.88.34-5.04,3.72-4.38,5.44-1.44.54,1.67,5.82,1.66,7.88,2.77.98,4.9-.3,4.9-.3,0,0,.99-1.62.38-3.45-.62-1.82.53-3.59,1.25-3.1.16.11.38,3,.5,3.02.07.02.3.01.36,0,.22-.05-.06-.79.17-2.03.11-.59.89-1.85.85-2.18-.05-.46-.56-1.76-.56-1.76l1.05-.17s1.16.12,1.14-.99c-.02-1.99-.86-3.77-.86-3.77"/>
                  <path class="cls-67" d="m190.09,158.63s-2.68-3.16-8.26-5.24c-2.64-.99-5.59-1.32-5.59-1.32,0,0-5.03-.51-7.52.49-1.41.57-2.44,7.46-.62,12,1.82,4.54,3.03,9.86,1.64,12.41-1.39,2.56-2.24,9.99-2.24,9.99,0,0,2.1,1.35,6.16,2.14,0,0,1.29-6.67,1.45-6.67.09,0,.67,7.08.67,7.08,4.22.53,9.72.19,15.76-2.85-.6-3.36-3.01-9.86-3.66-13-.65-3.13,2.2-15.04,2.2-15.04"/>
                  <path class="cls-101" d="m195.92,166.81s-.2-1.72,0-2.78c.2-1.06-.22-1.67-.49-2.05-.26-.38.19-1.4,1.02-.49.83.91.95,1.98.95,1.98l2.12-3.75s1.77,3.82-1.24,8.83c-1.97,1.01-2.37-1.74-2.37-1.74Z"/>
                  <path class="cls-83" d="m191.33,164.48c.72-2.11.21-4.5-1.41-6.03-.34-.32-.72-.6-1.16-.82-2.62-1.29-4.42.92-4.53,5.68-.1,4.76.39,11.71,3.14,16.13,1.68,2.54,8.38,1.42,11.83-10.79-.87-1.24-3.99-2.07-3.99-2.07,0,0-3.08,7.84-4.26,6.8-1.54-1.35-.61-6.04.37-8.91"/>
                </g>
              </g>
            </g>
            <path class="cls-13" d="m198.62,236.14c-5.48,3.16-14.35,3.16-19.83,0-5.48-3.16-5.48-8.29,0-11.45,5.48-3.16,14.35-3.16,19.83,0,5.48,3.16,5.48,8.29,0,11.45Z"/>
          </g>
          <g>
            <g>
              <g>
                <path class="cls-80" d="m212.44,157.85s-2.31-1.77-3.13-2.7c-.29-.32-2.32.84-2.32.84,0,0-2.93-1.32-3.54-1.62-.62-.31-1.39.13.1,1.23,1.49,1.1,2.68,1.76,3.21,2.06.54.29.2.83.2.83,0,0-1-.79-1.45-1.32-.45-.53-.97.17-.12,1.18.85,1.01,1.5,1.37,2.96,1.66,1.46.29,2.49,1.15,3.03,1.55.54.41,1.07-3.7,1.07-3.7"/>
                <path class="cls-81" d="m225.64,171.51c-1.4-.71-5.05-2.54-5.8-3.1-5.56-4.1-7.38-5.44-9.36-7.06-.43-.36-.62-.93-.46-1.47.34-1.21,1.75-2.83,2.46-2.47,5.04,2.53,7.8,4.9,13.08,7.99,5.46,1.97,15.73,1.64,15.73,1.64l-.94,6.88s-4.69,2.65-14.7-2.41"/>
              </g>
              <g>
                <g>
                  <path class="cls-38" d="m219.73,245.24s.32,2.47.1,3.04c-.22.57-1.55.45-2.05.31-1.63-.46-5.55-2.41-5.45-4.02.04-.66,1.03-.59,2.63.15,1.6.75,2.5.62,2.71.16.21-.46,2.06.36,2.06.36Z"/>
                  <path class="cls-38" d="m231.18,244.07s.32,2.47.1,3.04c-.22.57-1.55.45-2.04.31-1.63-.46-5.55-2.4-5.45-4.02.04-.66,1.03-.59,2.63.15,1.6.75,2.5.62,2.71.16.21-.46,2.06.36,2.06.36Z"/>
                  <g>
                    <path class="cls-56" d="m231.77,244.14c.15-2.19,3.97-22.15,4.04-22.82.67-6.27,3.77-13.25,4.11-14.59,1.24-4.85,0-11.39,0-11.39l-11.33.47s.34,10.23.22,22.34c-.02,2.27-.62,23.67-.6,25.88l3.55.1Z"/>
                    <path class="cls-92" d="m225.7,221.32c1.35-3.16,4.63-10.17,5.36-11.76,4.55-8.59,3.47-13.65,3.47-13.65l-14.16-.56s-1.92,17.32-1.92,21.96c0,.73-1.29,27.48-1.44,28.06l2.89.28,5.8-24.33Z"/>
                    <path class="cls-64" d="m227.56,154.42s-2.26-.09-3.21,2.49c-.13.36-.18.77-.07,1.14.2.72-.08,1.81-.38,2.61-.55,1.5.51,4.08,1.5,5.34,1.22.44,2.13-.48,2.13-.48l.77,2.71,6.03-1.54s-.73-2.15,0-5.48c.72-3.32.45-4.98-1.71-6.09-2.17-1.11-5.06-.7-5.06-.7"/>
                    <path class="cls-109" d="m225.3,150.37s1.59,1.07,6.46,1.41c4.88.34,5.04,3.72,4.38,5.44,1.44.54-1.67,5.82-1.67,7.88-2.77.98-4.9-.3-4.9-.3,0,0-.99-1.62-.38-3.45.62-1.82-.53-3.59-1.25-3.1-.16.11-.38,3-.5,3.02-.07.02-.3.01-.36,0-.22-.05.06-.79-.17-2.03-.11-.59-.89-1.85-.85-2.18.05-.46.56-1.76.56-1.76l-1.05-.17s-1.16.12-1.14-.99c.02-1.99.86-3.77.86-3.77"/>
                    <path class="cls-76" d="m219.91,173.1s2.68-3.16,8.26-5.24c2.64-.99,5.59-1.32,5.59-1.32,0,0,5.03-.51,7.52.49,1.41.57,2.44,7.46.62,12-1.82,4.54-3.03,9.86-1.64,12.42,1.39,2.56,2.24,9.99,2.24,9.99,0,0-2.1,1.35-6.16,2.14,0,0-1.29-6.67-1.45-6.67-.09,0-.67,7.09-.67,7.09-4.22.53-9.72.19-15.76-2.85.6-3.36,3.01-9.86,3.66-13,.65-3.13-2.2-15.04-2.2-15.04"/>
                  </g>
                </g>
                <path class="cls-13" d="m211.38,250.61c5.48,3.16,14.35,3.16,19.83,0,5.47-3.16,5.48-8.29,0-11.45-5.48-3.16-14.35-3.16-19.83,0-5.48,3.16-5.48,8.29,0,11.45Z"/>
              </g>
            </g>
            <path class="cls-52" d="m216.46,199.73s-5.26,6.66-.44,9.85c.4-.06.9-2.2.76-3.7.04-.75.43-.86.37.7-.06,1.56.98.14.92-1.15-.05-1.29-.61-1.7.1-2.89.72-1.19-1.72-2.8-1.72-2.8Z"/>
          </g>
          <g>
            <g>
              <g>
                <g>
                  <rect class="cls-54" x="368.95" y="101.88" width=".99" height=".46" transform="translate(96.94 371.66) rotate(-60.14)"/>
                  <path class="cls-54" d="m352.61,131.81l-.4-.23.93-1.62.4.23-.93,1.62Zm1.86-3.24l-.39-.23.93-1.62.39.23-.93,1.62Zm1.87-3.24l-.4-.23.93-1.62.39.23-.93,1.62Zm1.87-3.24l-.4-.23.93-1.62.4.23-.93,1.62Zm1.87-3.24l-.4-.23.93-1.62.39.23-.93,1.62Zm1.86-3.24l-.4-.23.93-1.62.4.23-.93,1.62Zm1.87-3.24l-.4-.23.93-1.62.4.23-.93,1.62Zm1.87-3.24l-.39-.23.93-1.62.4.23-.93,1.62Zm1.87-3.24l-.39-.23.93-1.62.4.23-.93,1.62Z"/>
                  <polygon class="cls-54" points="351.28 134.8 350.59 134.4 351.28 133.2 351.68 133.43 351.38 133.94 351.68 134.12 351.28 134.8"/>
                  <path class="cls-54" d="m368.07,144.57l-.93-.54.39-.69.93.54-.39.68Zm-1.87-1.08l-.93-.54.39-.68.93.54-.4.68Zm-1.87-1.09l-.93-.54.4-.68.93.54-.4.68Zm-1.86-1.09l-.93-.54.4-.68.93.54-.4.68Zm-1.87-1.09l-.93-.54.4-.68.93.54-.39.68Zm-1.87-1.09l-.93-.54.4-.68.93.54-.4.68Zm-1.86-1.08l-.93-.54.4-.68.93.54-.39.68Zm-1.87-1.08l-.93-.54.39-.68.93.54-.39.68Zm-1.87-1.09l-.93-.54.4-.68.93.54-.4.68Z"/>
                  <polygon class="cls-54" points="369.4 146.03 369 145.8 369.3 145.28 369 145.11 369.4 144.43 370.09 144.83 369.4 146.03"/>
                  <path class="cls-54" d="m352.61,175.18l-.4-.23.93-1.62.4.23-.93,1.62Zm1.86-3.24l-.39-.23.93-1.62.39.23-.93,1.62Zm1.87-3.24l-.4-.23.93-1.62.39.22-.93,1.62Zm1.87-3.24l-.4-.23.93-1.62.4.23-.93,1.62Zm1.87-3.24l-.4-.23.93-1.62.39.23-.93,1.62Zm1.87-3.24l-.4-.23.93-1.62.4.23-.93,1.62Zm1.87-3.24l-.4-.23.93-1.62.4.23-.93,1.62Zm1.87-3.24l-.39-.23.93-1.62.4.23-.93,1.62Zm1.87-3.24l-.39-.23.93-1.62.39.23-.93,1.62Z"/>
                  <polygon class="cls-54" points="351.27 178.18 350.59 177.77 351.28 176.57 351.68 176.8 351.38 177.32 351.67 177.5 351.27 178.18"/>
                  <path class="cls-54" d="m368.08,188.49l-.93-.57.4-.68.93.57-.4.68Zm-1.87-1.15l-.93-.57.4-.68.93.58-.4.68Zm-1.87-1.14l-.93-.57.4-.68.93.57-.4.68Zm-1.86-1.15l-.93-.57.4-.68.93.57-.4.68Zm-1.87-1.14l-.93-.57.4-.68.93.57-.4.68Zm-1.87-1.15l-.93-.57.4-.68.94.57-.4.68Zm-1.87-1.14l-.93-.58.4-.68.93.58-.4.68Zm-1.86-1.15l-.93-.57.4-.68.93.57-.4.68Zm-1.87-1.14l-.93-.57.4-.68.93.57-.4.68Z"/>
                  <polygon class="cls-54" points="369.49 189.36 369.01 189.06 369.41 188.38 369.9 188.68 369.49 189.36"/>
                </g>
                <g>
                  <g>
                    <path class="cls-53" d="m369.7,113.27c-5.54,3.2-10.04.61-10.04-5.79s4.49-14.18,10.04-17.38c5.54-3.2,10.04-.61,10.04,5.79s-4.49,14.18-10.04,17.38Z"/>
                    <path class="cls-106" d="m369.7,111.66c-4.77,2.75-8.64.52-8.64-4.99s3.87-12.21,8.64-14.96c4.77-2.75,8.64-.52,8.64,4.99s-3.87,12.21-8.64,14.96Z"/>
                  </g>
                  <g>
                    <path class="cls-11" d="m350.99,145.76c-5.54,3.2-10.04.61-10.04-5.79s4.49-14.18,10.04-17.38c5.54-3.2,10.04-.61,10.04,5.8s-4.49,14.18-10.04,17.38Z"/>
                    <path class="cls-32" d="m350.99,144.36c-4.87,2.81-8.83.53-8.83-5.1s3.95-12.47,8.83-15.29c4.87-2.81,8.82-.53,8.82,5.1s-3.95,12.47-8.82,15.29Z"/>
                  </g>
                  <g>
                    <path class="cls-59" d="m369.7,154.02c-4.29,2.47-7.76.47-7.76-4.48s3.47-10.97,7.76-13.45c4.29-2.48,7.76-.47,7.76,4.48s-3.47,10.97-7.76,13.45Z"/>
                    <path class="cls-58" d="m369.7,152.67c-3.65,2.11-6.6.4-6.6-3.81s2.96-9.33,6.6-11.43c3.64-2.11,6.6-.4,6.6,3.81,0,4.21-2.95,9.33-6.6,11.43Z"/>
                  </g>
                  <g>
                    <path class="cls-87" d="m350.99,185.65c-3.88,2.24-7.02.42-7.02-4.05s3.14-9.92,7.02-12.15c3.87-2.24,7.02-.42,7.02,4.05s-3.14,9.92-7.02,12.15Z"/>
                    <path class="cls-8" d="m350.99,184.36c-3.26,1.88-5.9.36-5.9-3.41s2.64-8.34,5.9-10.22c3.26-1.88,5.9-.36,5.9,3.41s-2.64,8.34-5.9,10.22Z"/>
                  </g>
                </g>
              </g>
              <text class="cls-124" transform="translate(366.33 105.83) rotate(-30) scale(1 .87) skewX(-26.56)"><tspan x="0" y="0">01</tspan></text>
              <text class="cls-124" transform="translate(347.12 138.61) rotate(-30) scale(1 .87) skewX(-26.56)"><tspan x="0" y="0">02</tspan></text>
              <text class="cls-124" transform="translate(366.33 149.57) rotate(-30) scale(1 .87) skewX(-26.56)"><tspan x="0" y="0">03</tspan></text>
              <text class="cls-124" transform="translate(347.52 181.94) rotate(-30) scale(1 .87) skewX(-26.56)"><tspan x="0" y="0">04</tspan></text>
            </g>
            <g>
              <g>
                <g>
                  <rect class="cls-54" x="368" y="189.47" width=".99" height=".46" transform="translate(20.51 414.82) rotate(-60.14)"/>
                  <path class="cls-54" d="m351.66,219.4l-.4-.23.93-1.62.4.23-.93,1.62Zm1.86-3.24l-.39-.23.93-1.62.39.23-.93,1.62Zm1.87-3.24l-.4-.23.93-1.62.39.23-.93,1.62Zm1.87-3.24l-.4-.23.93-1.62.4.23-.93,1.62Zm1.87-3.24l-.4-.23.93-1.62.39.23-.93,1.62Zm1.86-3.24l-.4-.23.93-1.62.4.23-.93,1.62Zm1.87-3.24l-.4-.23.93-1.62.4.23-.93,1.62Zm1.87-3.24l-.39-.23.93-1.62.4.23-.93,1.62Zm1.87-3.24l-.39-.23.93-1.62.4.23-.93,1.62Z"/>
                  <polygon class="cls-54" points="350.33 222.39 349.64 221.99 350.33 220.79 350.73 221.02 350.43 221.53 350.73 221.7 350.33 222.39"/>
                  <path class="cls-54" d="m367.12,232.16l-.93-.54.39-.69.93.54-.39.68Zm-1.87-1.08l-.93-.54.39-.69.93.54-.4.69Zm-1.87-1.09l-.93-.54.4-.68.93.54-.4.68Zm-1.86-1.08l-.93-.54.4-.68.93.54-.4.68Zm-1.87-1.09l-.93-.54.4-.68.93.54-.39.68Zm-1.87-1.08l-.93-.54.4-.68.93.54-.4.68Zm-1.86-1.08l-.93-.54.4-.68.93.54-.39.68Zm-1.87-1.08l-.93-.54.39-.68.93.54-.39.68Zm-1.87-1.09l-.93-.54.4-.68.93.54-.4.68Z"/>
                  <polygon class="cls-54" points="368.45 233.62 368.05 233.39 368.35 232.87 368.05 232.7 368.45 232.01 369.14 232.42 368.45 233.62"/>
                  <path class="cls-54" d="m351.66,262.77l-.4-.23.93-1.62.4.23-.93,1.62Zm1.86-3.24l-.39-.23.93-1.62.39.23-.93,1.62Zm1.87-3.24l-.4-.23.93-1.62.39.22-.93,1.62Zm1.87-3.24l-.4-.23.93-1.62.4.23-.93,1.62Zm1.87-3.24l-.4-.23.93-1.62.39.23-.93,1.62Zm1.87-3.24l-.4-.23.93-1.62.4.23-.93,1.62Zm1.87-3.24l-.4-.23.93-1.62.4.23-.93,1.62Zm1.87-3.24l-.39-.23.93-1.62.4.23-.93,1.62Zm1.87-3.24l-.39-.23.93-1.62.39.23-.93,1.62Z"/>
                  <polygon class="cls-54" points="350.32 265.77 349.64 265.36 350.33 264.16 350.73 264.39 350.43 264.91 350.72 265.09 350.32 265.77"/>
                  <path class="cls-54" d="m367.12,276.08l-.93-.57.4-.68.93.57-.4.68Zm-1.87-1.15l-.93-.57.4-.68.93.57-.4.68Zm-1.87-1.14l-.93-.57.4-.68.93.57-.4.68Zm-1.86-1.15l-.93-.57.4-.68.93.57-.4.68Zm-1.87-1.14l-.93-.57.4-.68.93.57-.4.68Zm-1.87-1.15l-.93-.57.4-.68.94.57-.4.68Zm-1.87-1.14l-.93-.58.4-.68.93.57-.4.68Zm-1.86-1.15l-.93-.57.4-.68.93.57-.4.68Zm-1.87-1.14l-.93-.57.4-.68.93.57-.4.68Z"/>
                  <polygon class="cls-54" points="368.54 276.95 368.06 276.65 368.46 275.97 368.95 276.27 368.54 276.95"/>
                </g>
                <g>
                  <g>
                    <path class="cls-34" d="m368.75,200.86c-5.54,3.2-10.04.61-10.04-5.79s4.49-14.18,10.04-17.38c5.54-3.2,10.04-.6,10.04,5.79s-4.49,14.18-10.04,17.38Z"/>
                    <path class="cls-103" d="m368.75,199.25c-4.77,2.75-8.64.52-8.64-4.99s3.87-12.21,8.64-14.96c4.77-2.75,8.64-.52,8.64,4.99s-3.87,12.21-8.64,14.96Z"/>
                  </g>
                  <g>
                    <path class="cls-78" d="m350.04,233.35c-5.54,3.2-10.04.61-10.04-5.79s4.49-14.18,10.04-17.38c5.54-3.2,10.04-.61,10.04,5.8s-4.49,14.18-10.04,17.38Z"/>
                    <path class="cls-41" d="m350.04,231.95c-4.87,2.81-8.83.53-8.83-5.1s3.95-12.47,8.83-15.29c4.87-2.81,8.82-.53,8.82,5.1s-3.95,12.47-8.82,15.29Z"/>
                  </g>
                  <g>
                    <path class="cls-10" d="m368.75,241.61c-4.29,2.47-7.76.47-7.76-4.48s3.47-10.97,7.76-13.45c4.29-2.48,7.76-.47,7.76,4.48s-3.47,10.97-7.76,13.45Z"/>
                    <path class="cls-97" d="m368.75,240.26c-3.65,2.11-6.6.4-6.6-3.81s2.96-9.33,6.6-11.43c3.64-2.11,6.6-.4,6.6,3.81,0,4.21-2.96,9.33-6.6,11.43Z"/>
                  </g>
                  <g>
                    <path class="cls-71" d="m350.04,273.23c-3.88,2.24-7.02.42-7.02-4.05s3.14-9.92,7.02-12.15c3.87-2.24,7.02-.42,7.02,4.05s-3.14,9.91-7.02,12.15Z"/>
                    <path class="cls-108" d="m350.04,271.94c-3.26,1.88-5.9.36-5.9-3.41s2.64-8.34,5.9-10.22c3.26-1.88,5.9-.36,5.9,3.41s-2.64,8.34-5.9,10.22Z"/>
                  </g>
                  <g>
                    <path class="cls-30" d="m368.74,282.94c-3.31,1.91-5.99.36-5.99-3.46s2.68-8.47,5.99-10.38c3.31-1.91,5.99-.36,5.99,3.46s-2.68,8.47-5.99,10.38Z"/>
                    <path class="cls-99" d="m368.74,281.81c-2.77,1.6-5.01.3-5.01-2.9s2.25-7.09,5.01-8.69c2.77-1.6,5.02-.3,5.02,2.89s-2.25,7.09-5.02,8.69Z"/>
                  </g>
                </g>
              </g>
              <text class="cls-124" transform="translate(365.38 193.42) rotate(-30) scale(1 .87) skewX(-26.56)"><tspan x="0" y="0">05</tspan></text>
              <text class="cls-124" transform="translate(346.17 226.2) rotate(-30) scale(1 .87) skewX(-26.56)"><tspan x="0" y="0">06</tspan></text>
              <text class="cls-124" transform="translate(365.38 237.16) rotate(-30) scale(1 .87) skewX(-26.56)"><tspan x="0" y="0">07</tspan></text>
              <text class="cls-124" transform="translate(346.57 269.52) rotate(-30) scale(1 .87) skewX(-26.56)"><tspan x="0" y="0">08</tspan></text>
              <text class="cls-124" transform="translate(365.38 280.2) rotate(-30) scale(1 .87) skewX(-26.56)"><tspan x="0" y="0">09</tspan></text>
            </g>
          </g>
          <g>
            <g>
              <g>
                <polygon class="cls-119" points="91.55 252.39 93.62 253.69 91.65 254.6 91.55 252.39"/>
                <polygon class="cls-65" points="26.06 335.11 23.94 333.79 25.79 332.52 26.06 335.11"/>
                <g>
                  <path class="cls-54" d="m91.84,293.67c0,.76-.62,1.73-1.38,2.17l-65.5,37.81c-.76.44-1.38.18-1.38-.58v-40.6c0-.76.62-1.73,1.38-2.17l65.49-37.81c.76-.44,1.38-.18,1.38.58v40.6Z"/>
                  <path class="cls-65" d="m23.59,292.47v40.6c0,.76.62,1.02,1.38.58l35.26-20.36-36.22-22.06c-.26.4-.42.84-.42,1.23Z"/>
                  <path class="cls-119" d="m90.46,252.49l-65.49,37.81c-.37.21-.71.56-.95.94l36.22,22.06,30.23-17.45c.76-.44,1.38-1.41,1.38-2.17v-40.6c0-.76-.62-1.02-1.38-.58Z"/>
                  <path class="cls-116" d="m93.93,294.98c0,.76-.62,1.73-1.38,2.17l-65.49,37.81c-.76.44-1.38.18-1.38-.58v-40.6c0-.76.62-1.73,1.38-2.17l65.49-37.81c.76-.44,1.38-.18,1.38.58v40.6Z"/>
                  <polygon class="cls-25" points="91.64 292.92 27.98 329.68 27.98 295.84 91.64 259.09 91.64 292.92"/>
                  <polygon class="cls-119" points="90.44 259.78 90.44 292.22 27.98 328.28 27.98 329.68 91.64 292.92 91.64 259.09 90.44 259.78"/>
                </g>
              </g>
              <g>
                <polygon class="cls-116" points="129.31 318.79 131.32 319.97 131.32 317.61 129.31 318.79"/>
                <polygon class="cls-65" points="27.02 337.79 27.02 335.47 30.18 335.54 27.02 337.79"/>
                <g>
                  <path class="cls-117" d="m62.62,358.74c.66.38,1.81.33,2.57-.11l65.49-37.81c.76-.44.84-1.1.19-1.48l-35.17-20.3c-.66-.38-1.81-.33-2.57.11l-65.5,37.81c-.76.44-.84,1.1-.18,1.48l35.17,20.3Z"/>
                  <path class="cls-116" d="m130.87,319.34l-35.17-20.3c-.66-.38-1.81-.33-2.57.11l-29.36,16.95v42.9c.49,0,1.01-.12,1.42-.36l65.49-37.81c.76-.44.84-1.1.19-1.48Z"/>
                  <path class="cls-65" d="m27.64,336.95c-.76.44-.84,1.1-.18,1.48l35.17,20.3c.31.18.72.26,1.15.25v-42.9l-36.13,20.86Z"/>
                  <path class="cls-4" d="m62.62,356.38c.66.38,1.81.33,2.57-.11l65.49-37.81c.76-.44.84-1.1.19-1.48l-35.17-20.3c-.66-.38-1.81-.33-2.57.11l-65.5,37.81c-.76.44-.84,1.1-.18,1.48l35.17,20.3Z"/>
                  <g>
                    <path class="cls-104" d="m103.89,329.15l1.37.79c.4.23.35.64-.11.91l-18.49,10.67c-.47.27-1.17.3-1.58.07l-1.37-.79,20.18-11.65Z"/>
                    <path class="cls-104" d="m83.13,340.47l-7.23-4.17c-.41-.23-.35-.64.11-.91l18.49-10.67c.47-.27,1.17-.3,1.58-.07l7.23,4.17-20.18,11.65Z"/>
                    <g>
                      <polygon class="cls-104" points="94.03 306.59 99.29 303.55 95.53 301.38 90.27 304.42 94.03 306.59"/>
                      <polygon class="cls-104" points="95.42 311.5 104.23 306.41 100.47 304.23 91.65 309.32 95.42 311.5"/>
                      <polygon class="cls-104" points="88.58 315.44 94.12 312.24 90.36 310.07 84.82 313.27 88.58 315.44"/>
                      <polygon class="cls-104" points="81.69 319.42 87.23 316.23 83.46 314.05 77.93 317.25 81.69 319.42"/>
                      <polygon class="cls-104" points="74.8 323.4 80.33 320.21 76.57 318.03 71.03 321.23 74.8 323.4"/>
                      <polygon class="cls-104" points="67.9 327.38 73.44 324.19 69.67 322.01 64.14 325.21 67.9 327.38"/>
                      <polygon class="cls-104" points="61.01 331.36 66.54 328.17 62.78 325.99 57.24 329.19 61.01 331.36"/>
                      <polygon class="cls-104" points="54.11 335.34 59.65 332.15 55.88 329.98 50.35 333.17 54.11 335.34"/>
                      <polygon class="cls-104" points="44.31 341 52.75 336.13 48.99 333.96 40.55 338.83 44.31 341"/>
                      <polygon class="cls-104" points="96.77 316.37 109.13 309.23 105.36 307.06 93 314.19 96.77 316.37"/>
                      <polygon class="cls-104" points="89.93 320.32 95.46 317.12 91.7 314.95 86.16 318.14 89.93 320.32"/>
                      <polygon class="cls-104" points="83.03 324.3 88.57 321.1 84.8 318.93 79.27 322.13 83.03 324.3"/>
                      <polygon class="cls-104" points="76.14 328.28 81.67 325.08 77.91 322.91 72.37 326.11 76.14 328.28"/>
                      <polygon class="cls-104" points="69.24 332.26 74.78 329.06 71.01 326.89 65.48 330.09 69.24 332.26"/>
                      <polygon class="cls-104" points="62.35 336.24 67.88 333.04 64.12 330.87 58.58 334.07 62.35 336.24"/>
                      <polygon class="cls-104" points="49.2 343.83 60.98 337.03 57.21 334.86 45.44 341.65 49.2 343.83"/>
                      <polygon class="cls-104" points="74.16 335.1 100.38 319.96 96.62 317.79 70.4 332.93 74.16 335.1"/>
                      <polygon class="cls-104" points="87.2 310.54 92.46 307.5 88.7 305.33 83.43 308.37 87.2 310.54"/>
                      <polygon class="cls-104" points="108.78 315.11 114.05 312.07 110.29 309.9 105.02 312.94 108.78 315.11"/>
                      <polygon class="cls-104" points="101.95 319.06 107.22 316.02 103.45 313.84 98.19 316.88 101.95 319.06"/>
                      <polygon class="cls-104" points="80.37 314.48 85.63 311.44 81.87 309.27 76.6 312.31 80.37 314.48"/>
                      <polygon class="cls-104" points="73.53 318.43 78.8 315.39 75.04 313.21 69.77 316.25 73.53 318.43"/>
                      <polygon class="cls-104" points="66.7 322.37 71.97 319.33 68.2 317.16 62.94 320.2 66.7 322.37"/>
                      <polygon class="cls-104" points="59.87 326.32 65.13 323.28 61.37 321.1 56.1 324.14 59.87 326.32"/>
                      <polygon class="cls-104" points="53.04 330.26 58.3 327.22 54.54 325.05 49.27 328.09 53.04 330.26"/>
                      <polygon class="cls-104" points="46.2 334.21 51.47 331.17 47.71 328.99 42.44 332.03 46.2 334.21"/>
                      <polygon class="cls-104" points="39.37 338.15 44.64 335.11 40.87 332.94 35.61 335.98 39.37 338.15"/>
                      <polygon class="cls-104" points="67.27 339.08 72.8 335.88 69.04 333.71 63.5 336.91 67.27 339.08"/>
                      <polygon class="cls-104" points="60.71 342.87 65.97 339.83 62.21 337.66 56.94 340.7 60.71 342.87"/>
                      <polygon class="cls-104" points="54.13 346.67 59.39 343.63 55.63 341.46 50.36 344.5 54.13 346.67"/>
                    </g>
                  </g>
                </g>
                <g>
                  <polygon class="cls-98" points="57.09 353.78 61.02 356.05 61.02 357.35 57.09 355.07 57.09 353.78"/>
                  <polygon class="cls-88" points="58.18 354.41 61.02 356.05 61.02 357.35 57.09 355.07 58.18 354.41"/>
                </g>
                <g>
                  <polygon class="cls-98" points="28.6 337.29 32.53 339.56 32.53 340.87 28.6 338.59 28.6 337.29"/>
                  <polygon class="cls-88" points="29.69 337.92 32.53 339.56 32.53 340.87 28.6 338.59 29.69 337.92"/>
                </g>
                <g>
                  <polygon class="cls-98" points="33.18 339.94 37.11 342.2 37.11 343.51 33.18 341.23 33.18 339.94"/>
                  <polygon class="cls-88" points="34.27 340.56 37.11 342.2 37.11 343.51 33.18 341.23 34.27 340.56"/>
                </g>
              </g>
            </g>
            <g>
              <g>
                <path class="cls-89" d="m63.81,291.27s0,.03,0,.04c0,7.86-5.54,17.45-12.34,21.38-6.8,3.93-12.34.73-12.34-7.12s5.47-17.32,12.21-21.3v-.67c-7.06,4.16-12.79,14.12-12.79,22.3s5.8,11.57,12.92,7.46c7.12-4.11,12.92-14.15,12.92-22.37,0-.01,0-.03,0-.04l-.58.33Z"/>
                <path class="cls-26" d="m62.14,292.24s0,.03,0,.04c0,6.8-4.79,15.09-10.67,18.49-5.89,3.4-10.67.63-10.67-6.16s4.72-14.97,10.55-18.41v-.67c-6.14,3.63-11.12,12.3-11.12,19.41,0,7.16,5.05,10.08,11.25,6.5,6.2-3.58,11.25-12.32,11.25-19.49,0-.01,0-.03,0-.04l-.58.33Z"/>
                <path class="cls-75" d="m60.6,293.12s0,.03,0,.04c0,5.82-4.1,12.91-9.14,15.82-5.04,2.91-9.14.54-9.14-5.27s4.03-12.79,9.01-15.75v-.67c-5.3,3.14-9.58,10.61-9.58,16.75s4.36,8.7,9.71,5.61,9.71-10.64,9.71-16.82c0-.01,0-.03,0-.04l-.58.33Z"/>
                <path class="cls-110" d="m59.68,293.7c0,5.23-3.67,11.6-8.21,14.21-4.53,2.62-8.21.5-8.21-4.74s3.67-11.6,8.21-14.21,8.21-.5,8.21,4.74Z"/>
                <path class="cls-120" d="m51.47,290.06c4.01-2.31,7.25-.44,7.25,4.19s-3.25,10.25-7.25,12.56c-4.01,2.31-7.25.44-7.25-4.19s3.25-10.25,7.25-12.56Z"/>
              </g>
              <text class="cls-123" transform="translate(48.19 299.75) rotate(-30) scale(1 .87) skewX(-26.56)"><tspan x="0" y="0">Lorem</tspan><tspan x=".1" y="3.33">ipsum</tspan></text>
              <text class="cls-122" transform="translate(52.2 283.68) rotate(-30) scale(1 .87) skewX(-26.56)"><tspan x="0" y="0">75%</tspan></text>
              <text class="cls-122" transform="translate(52.2 285.67) rotate(-30) scale(1 .87) skewX(-26.56)"><tspan x="0" y="0">50%</tspan></text>
              <text class="cls-122" transform="translate(52.2 287.66) rotate(-30) scale(1 .87) skewX(-26.56)"><tspan x="0" y="0">25%</tspan></text>
            </g>
            <text class="cls-121" transform="translate(70.11 282.88) rotate(-30) scale(1 .87) skewX(-26.56)"><tspan x="0" y="0">Lorem ipsum dolor sit amet,</tspan><tspan x="0" y="1.75">consectetur adipiscing elit.</tspan></text>
            <text class="cls-121" transform="translate(70.11 287.78) rotate(-30) scale(1 .87) skewX(-26.56)"><tspan x="0" y="0">Lorem ipsum dolor sit amet,</tspan><tspan x="0" y="1.75">consectetur adipiscing elit.</tspan></text>
            <text class="cls-121" transform="translate(70.11 292.68) rotate(-30) scale(1 .87) skewX(-26.56)"><tspan x="0" y="0">Lorem ipsum dolor sit amet,</tspan><tspan x="0" y="1.75">consectetur adipiscing elit.</tspan></text>
            <polygon class="cls-89" points="69.24 285.09 66.68 286.57 66.68 283.84 69.24 282.36 69.24 285.09"/>
            <polygon class="cls-26" points="69.24 289.84 66.69 291.32 66.69 288.59 69.24 287.11 69.24 289.84"/>
            <polygon class="cls-75" points="69.24 294.59 66.68 296.06 66.69 293.33 69.24 291.86 69.24 294.59"/>
          </g>
          <polygon class="cls-17" points="28.22 132.39 129.68 82.33 129.68 316.73 64.14 354.41 28.22 334.24 28.22 132.39"/>
          <polygon class="cls-115" points="289.96 48.67 380.66 3.92 380.66 278.64 322.07 312.33 289.96 294.3 289.96 48.67"/>
          <polygon class="cls-84" points="246.49 282.4 282.61 264.57 282.61 348.04 259.27 361.46 246.49 354.28 246.49 282.4"/>
          <polygon class="cls-12" points="240.82 208.92 173.74 175.82 173.74 330.81 217.07 355.72 240.82 342.39 240.82 208.92"/>
          <g>
            <g>
              <polygon class="cls-94" points="223.94 347.9 225.47 347.03 225.47 250.34 180.2 224.2 178.67 225.08 193.81 266.14 223.94 347.9"/>
              <polygon class="cls-28" points="223.94 347.9 225.47 347.03 225.47 250.34 193.81 267.51 223.94 347.9"/>
              <polygon class="cls-114" points="178.67 321.76 223.94 347.9 223.94 251.21 178.67 225.08 178.67 321.76"/>
            </g>
            <g>
              <g>
                <polygon class="cls-54" points="219.9 298.82 182.71 277.34 182.71 277.07 219.9 298.55 219.9 298.82"/>
                <polygon class="cls-54" points="219.9 294.38 182.71 272.9 182.71 272.64 219.9 294.11 219.9 294.38"/>
                <polygon class="cls-54" points="219.9 289.94 182.71 268.47 182.71 268.2 219.9 289.68 219.9 289.94"/>
                <polygon class="cls-54" points="219.9 285.51 182.71 264.03 182.71 263.77 219.9 285.24 219.9 285.51"/>
                <polygon class="cls-54" points="219.9 281.07 182.71 259.6 182.71 259.33 219.9 280.8 219.9 281.07"/>
                <polygon class="cls-54" points="219.9 276.64 182.71 255.16 182.71 254.89 219.9 276.37 219.9 276.64"/>
                <polygon class="cls-54" points="219.9 272.2 182.71 250.72 182.71 250.46 219.9 271.93 219.9 272.2"/>
                <polygon class="cls-54" points="183.76 250.11 183.76 277.68 183.53 277.55 183.53 249.98 183.76 250.11"/>
              </g>
              <polygon class="cls-60" points="183.86 277.98 183.67 277.39 192.04 277.94 198.42 272.48 204.64 280.73 209.55 270.19 218.17 270.69 218.36 271.28 209.91 270.8 204.85 281.65 198.51 273.25 192.33 278.54 192.28 278.54 183.86 277.98"/>
              <polygon class="cls-24" points="183.92 277.97 183.61 277.4 192.13 273.34 198.43 279.21 204.58 278.32 209.58 273.5 209.64 273.5 218.17 273.99 218.36 274.58 209.88 274.1 204.87 278.91 198.5 279.82 192.25 274.01 183.92 277.97"/>
              <polygon class="cls-47" points="183.82 277.97 183.71 277.39 198.46 281.73 204.61 285.16 209.58 279.07 209.64 279.07 218.17 279.83 218.35 280.42 209.89 279.67 204.87 285.83 198.49 282.28 183.82 277.97"/>
              <polygon class="cls-31" points="183.94 277.95 183.58 277.41 192.16 270.14 198.44 280.46 204.6 275.09 209.66 276.01 218.17 276.34 218.36 276.94 209.83 276.6 204.88 275.71 198.49 281.27 192.21 270.95 183.94 277.95"/>
              <polygon class="cls-118" points="183.89 277.98 183.64 277.39 192.06 275.97 198.35 275.51 204.59 272.93 209.61 268.51 218.23 272.19 218.29 272.75 209.86 269.15 204.92 273.49 198.62 276.1 192.3 276.56 183.89 277.98"/>
            </g>
            <polygon class="cls-49" points="185.38 287.32 216.73 305.42 216.73 302.15 185.38 284.05 185.38 287.32"/>
            <polygon class="cls-49" points="185.38 292.57 216.73 310.67 216.73 307.4 185.38 289.3 185.38 292.57"/>
            <polygon class="cls-49" points="185.38 297.82 216.73 315.92 216.73 312.65 185.38 294.55 185.38 297.82"/>
            <polygon class="cls-49" points="185.38 303.07 216.73 321.17 216.73 317.9 185.38 299.8 185.38 303.07"/>
          </g>
        </g>
      </g>
    </g>
  </g>
</svg>