<?xml version="1.0" encoding="UTF-8"?>
<svg id="Layer_2" data-name="Layer 2" xmlns="http://www.w3.org/2000/svg" xmlns:xlink="http://www.w3.org/1999/xlink" viewBox="0 0 2517.99 2720.16">
  <defs>
    <style>
      .cls-1 {
        fill: url(#linear-gradient-12);
      }

      .cls-1, .cls-2, .cls-3, .cls-4, .cls-5, .cls-6, .cls-7, .cls-8, .cls-9, .cls-10, .cls-11, .cls-12, .cls-13, .cls-14, .cls-15, .cls-16, .cls-17, .cls-18, .cls-19, .cls-20, .cls-21, .cls-22, .cls-23, .cls-24, .cls-25, .cls-26, .cls-27, .cls-28, .cls-29, .cls-30, .cls-31 {
        stroke-width: 0px;
      }

      .cls-2 {
        fill: url(#linear-gradient);
      }

      .cls-3 {
        fill: url(#linear-gradient-19);
      }

      .cls-3, .cls-10, .cls-19 {
        opacity: .63;
      }

      .cls-4 {
        fill: url(#linear-gradient-21);
      }

      .cls-5 {
        fill: url(#linear-gradient-6);
      }

      .cls-6 {
        fill: #dd0ee2;
      }

      .cls-7 {
        fill: #bdd0fb;
      }

      .cls-8 {
        fill: url(#linear-gradient-15);
      }

      .cls-9 {
        fill: url(#linear-gradient-11);
      }

      .cls-10 {
        fill: url(#linear-gradient-17);
      }

      .cls-11 {
        fill: url(#linear-gradient-5);
      }

      .cls-12 {
        fill: url(#linear-gradient-13);
      }

      .cls-13 {
        fill: url(#linear-gradient-16);
      }

      .cls-14 {
        fill: url(#linear-gradient-22);
      }

      .cls-15, .cls-24, .cls-27, .cls-30, .cls-31 {
        fill: #fff;
      }

      .cls-16 {
        fill: url(#linear-gradient-20);
      }

      .cls-17 {
        fill: url(#linear-gradient-14);
      }

      .cls-18 {
        fill: url(#linear-gradient-2);
      }

      .cls-32, .cls-31 {
        opacity: .57;
      }

      .cls-19 {
        fill: url(#linear-gradient-18);
      }

      .cls-20 {
        fill: url(#linear-gradient-7);
      }

      .cls-21 {
        fill: url(#linear-gradient-3);
      }

      .cls-22 {
        fill: url(#linear-gradient-9);
      }

      .cls-23 {
        fill: url(#linear-gradient-8);
      }

      .cls-24 {
        opacity: .78;
      }

      .cls-25 {
        fill: #2894e5;
      }

      .cls-26 {
        fill: #91b3fa;
      }

      .cls-27 {
        opacity: .74;
      }

      .cls-28 {
        fill: url(#linear-gradient-10);
      }

      .cls-29 {
        fill: url(#linear-gradient-4);
      }

      .cls-30 {
        opacity: .2;
      }
    </style>
    <linearGradient id="linear-gradient" x1="1433.63" y1="446.6" x2="-451.83" y2="3457.24" gradientTransform="translate(144.58 34.23) rotate(2.03)" gradientUnits="userSpaceOnUse">
      <stop offset="0" stop-color="#09005d"/>
      <stop offset="1" stop-color="#1a0f91"/>
    </linearGradient>
    <linearGradient id="linear-gradient-2" x1="1904.6" y1="-8.69" x2="-994.33" y2="4189.76" gradientUnits="userSpaceOnUse">
      <stop offset="0" stop-color="#4f52ff"/>
      <stop offset="1" stop-color="#4042e2"/>
    </linearGradient>
    <linearGradient id="linear-gradient-3" x1="574.8" y1="2758.38" x2="-66.92" y2="3602.54" gradientTransform="translate(673.07 -2943.91) rotate(1.52)" xlink:href="#linear-gradient"/>
    <linearGradient id="linear-gradient-4" x1="645.19" y1="2811.89" x2="3.47" y2="3656.05" gradientTransform="translate(673.07 -2943.91) rotate(1.52)" xlink:href="#linear-gradient"/>
    <linearGradient id="linear-gradient-5" x1="564.33" y1="2863.52" x2="121.23" y2="3677.14" gradientTransform="translate(673.07 -2943.91) rotate(1.52)" xlink:href="#linear-gradient"/>
    <linearGradient id="linear-gradient-6" x1="1167.12" y1="2020.46" x2="2352.95" y2="2020.46" gradientTransform="matrix(1,0,0,1,0,0)" xlink:href="#linear-gradient"/>
    <linearGradient id="linear-gradient-7" x1="1062.18" y1="2224.63" x2="1857.33" y2="1459.12" xlink:href="#linear-gradient-2"/>
    <linearGradient id="linear-gradient-8" x1="1193.47" y1="2361" x2="1988.62" y2="1595.48" xlink:href="#linear-gradient-2"/>
    <linearGradient id="linear-gradient-9" x1="1319.7" y1="2492.13" x2="2114.86" y2="1726.61" xlink:href="#linear-gradient-2"/>
    <linearGradient id="linear-gradient-10" x1="1156.59" y1="2322.7" x2="1951.74" y2="1557.18" xlink:href="#linear-gradient-2"/>
    <linearGradient id="linear-gradient-11" x1="1287.88" y1="2459.07" x2="2083.03" y2="1693.55" xlink:href="#linear-gradient-2"/>
    <linearGradient id="linear-gradient-12" x1="1414.11" y1="2590.19" x2="2209.26" y2="1824.67" xlink:href="#linear-gradient-2"/>
    <linearGradient id="linear-gradient-13" x1="1545.4" y1="2726.56" x2="2340.55" y2="1961.04" xlink:href="#linear-gradient-2"/>
    <linearGradient id="linear-gradient-14" x1="1240.2" y1="2409.55" x2="2035.35" y2="1644.03" xlink:href="#linear-gradient-2"/>
    <linearGradient id="linear-gradient-15" x1="1371.49" y1="2545.92" x2="2166.64" y2="1780.4" xlink:href="#linear-gradient-2"/>
    <linearGradient id="linear-gradient-16" x1="1497.73" y1="2677.04" x2="2292.88" y2="1911.52" xlink:href="#linear-gradient-2"/>
    <linearGradient id="linear-gradient-17" x1="1331.99" y1="2504.89" x2="2127.14" y2="1739.37" xlink:href="#linear-gradient-2"/>
    <linearGradient id="linear-gradient-18" x1="1463.28" y1="2641.26" x2="2258.43" y2="1875.74" xlink:href="#linear-gradient-2"/>
    <linearGradient id="linear-gradient-19" x1="1589.51" y1="2772.38" x2="2384.66" y2="2006.86" xlink:href="#linear-gradient-2"/>
    <linearGradient id="linear-gradient-20" x1="1570.17" y1="703.34" x2="327.89" y2="2580.07" gradientTransform="translate(1134.71 -641.13) rotate(45)" gradientUnits="userSpaceOnUse">
      <stop offset="0" stop-color="#dd0ee2"/>
      <stop offset="1" stop-color="#dd0ee2"/>
    </linearGradient>
    <linearGradient id="linear-gradient-21" x1="2027.72" y1="882.94" x2="1155.39" y2="2200.78" gradientTransform="translate(1342.86 -990.42) rotate(45)" xlink:href="#linear-gradient-20"/>
    <linearGradient id="linear-gradient-22" x1="2466.1" y1="896.44" x2="1593.77" y2="2214.28" gradientTransform="translate(1480.81 -1296.46) rotate(45)" xlink:href="#linear-gradient-20"/>
  </defs>
  <g id="Illustration">
    <g>
      <g>
        <g>
          <path class="cls-2" d="m222.31,287.87l1394.71,36.95c76.95,2.04,138.79,64.02,140.67,140.97l49.37,2024.8c1.47,60.22-47.21,109.68-107.44,109.18l-1599.29-13.3c-56.6-.47-101.8-47.27-100.3-103.85L53.96,447.53c2.4-90.58,77.77-162.06,168.35-159.66Z"/>
          <path class="cls-7" d="m334.97,2557.81s-.09,0-.13,0l-178.8-7.05c-59.52-2.35-106.67-52.7-105.09-112.25l7.15-270.05c.05-1.81,1.53-3.24,3.33-3.24.03,0,.06,0,.09,0,1.84.05,3.29,1.58,3.24,3.42l-7.15,270.05c-1.48,55.92,42.79,103.21,98.68,105.42l178.8,7.05c1.84.07,3.27,1.62,3.2,3.46-.07,1.79-1.55,3.2-3.33,3.2Z"/>
          <path class="cls-7" d="m63.66,2088.22s-.06,0-.09,0c-1.84-.05-3.29-1.58-3.24-3.42l1.16-43.73c.05-1.84,1.7-3.34,3.42-3.24,1.84.05,3.29,1.58,3.24,3.42l-1.16,43.73c-.05,1.81-1.53,3.24-3.33,3.24Z"/>
          <path class="cls-18" d="m227.03,271.59c189.78,30.87,842.61,128.11,1385.21,100.89,24.75-1.24,45.68,18.04,46.34,42.8l54.13,2033.95c.74,27.89-21.16,51.14-49.04,52.05-228.1,7.44-1167.41,34.69-1501.02-9.21-20.3-2.67-35.3-20.22-34.88-40.7L171.74,317.68c.6-28.98,26.68-50.74,55.29-46.08Z"/>
          <path class="cls-7" d="m279.81,377.89c176.97,28.79,785.73,119.46,1291.71,94.08,23.07-1.16,42.6,16.82,43.21,39.91l50.48,1896.67c.69,26.01-19.73,47.69-45.73,48.54-212.71,6.94-1088.61,32.35-1399.71-8.59-18.93-2.49-32.92-18.86-32.53-37.95l41.01-1989.68c.56-27.03,24.88-47.31,51.56-42.97Z"/>
          <path class="cls-21" d="m1013.47,32.94c-49.45-36.38-93.27-36.85-124.35-28.57-28.35,7.56-47.3,34.23-45.4,63.51l9.45,145.51,157.87,18.24s99.41-127.33,2.42-198.68Zm-72.69,115.26c-21.79-.58-38.99-18.71-38.41-40.5.58-21.79,18.71-38.99,40.5-38.41,21.79.58,38.99,18.71,38.41,40.5-.58,21.79-18.71,38.99-40.5,38.41Z"/>
          <path class="cls-7" d="m867.81,156.22c-2.73-1.08-4.74-3.66-4.94-6.78l-1.5-23.17c-.28-4.32,2.99-8.05,7.31-8.33,4.32-.29,8.06,2.98,8.33,7.32l1.5,23.17c.28,4.32-2.99,8.05-7.31,8.33-1.2.08-2.35-.12-3.4-.53Zm-2.95-45.41c-2.73-1.08-4.74-3.66-4.94-6.78l-1.14-17.59c-1.93-29.8,17.51-56.98,46.24-64.64,19.66-5.24,39.8-5.54,59.85-.87,4.15,1.03,6.84,5.19,5.86,9.42-.98,4.22-5.19,6.84-9.41,5.86-17.51-4.08-35.09-3.82-52.25.75-21.52,5.73-36.08,26.12-34.63,48.48l1.14,17.6c.28,4.32-2.99,8.05-7.31,8.33-1.2.08-2.35-.12-3.4-.53Z"/>
          <path class="cls-29" d="m634.71,301.47l1.93-72.98c.67-25.19,22.08-44.82,47.24-43.29l502.7,30.57c22.31,1.36,39.93,19.46,40.67,41.8l2.35,70.23-594.89-26.34Z"/>
          <path class="cls-7" d="m803.17,212.06l21.64.57-21.64-.57Z"/>
          <path class="cls-7" d="m659.76,282.75c-2.97-1.18-5.04-4.11-4.94-7.5l.78-29.52c.32-12.12,5.34-23.39,14.14-31.74,8.8-8.35,20.32-12.77,32.45-12.45l79.55,2.11c4.31.13,7.74,3.71,7.63,8.05-.11,4.33-3.72,7.74-8.05,7.63l-79.55-2.11c-16.38-.43-30.06,12.54-30.5,28.92l-.78,29.52c-.11,4.33-3.72,7.74-8.05,7.63-.94-.03-1.85-.22-2.68-.55Z"/>
          <path class="cls-11" d="m477.76,270.58l879.86,23.29c31.64.84,58.08,24.32,62.65,55.64l.63,4.32c5.01,34.3-22.11,64.84-56.76,63.92l-902.69-23.92c-20.74-.55-36.81-18.33-35.26-39.01l3.01-40.35c1.88-25.24,23.25-44.55,48.55-43.88Z"/>
        </g>
        <path class="cls-31" d="m1565.91,2214.28c-.15,15.01-10.39,27.22-22.89,27.27l-1229.58,4.69c-13.75.05-24.89-12.68-24.87-28.45v-2.38c.03-15.77,11.2-28.57,24.96-28.59l1230.03-1.96c12.51-.02,22.52,12.14,22.37,27.16l-.02,2.27Z"/>
        <path class="cls-31" d="m1565.91,2342.03c-.15,15.01-10.39,27.22-22.89,27.27l-1229.58,4.69c-13.75.05-24.89-12.68-24.87-28.45v-2.38c.03-15.77,11.2-28.57,24.96-28.59l1230.03-1.96c12.51-.02,22.52,12.14,22.37,27.16l-.02,2.27Z"/>
        <path class="cls-31" d="m1570.62,1295.54c-.15,15.01-10.39,27.22-22.89,27.27l-1229.58,4.69c-13.75.05-24.89-12.68-24.87-28.45v-2.38c.03-15.77,11.2-28.57,24.96-28.59l1230.03-1.96c12.51-.02,22.52,12.14,22.37,27.16l-.02,2.27Z"/>
        <path class="cls-31" d="m1570.62,1423.29c-.15,15.01-10.39,27.22-22.89,27.27l-1229.58,4.69c-13.75.05-24.89-12.68-24.87-28.45v-2.38c.03-15.77,11.2-28.57,24.96-28.59l1230.03-1.96c12.51-.02,22.52,12.14,22.37,27.16l-.02,2.27Z"/>
        <path class="cls-31" d="m1544.4,1741.05c-.15,15.01-5.02,27.27-10.89,27.39l-577.5,11.04c-6.46.12-11.62-12.55-11.53-28.32v-2.38c.11-15.77,5.42-28.63,11.88-28.72l577.7-8.31c5.87-.08,10.51,12.02,10.37,27.04l-.02,2.27Z"/>
        <path class="cls-31" d="m1545.39,1867.42c-.15,15.01-5.02,27.27-10.89,27.39l-577.5,11.04c-6.46.12-11.62-12.55-11.53-28.32v-2.38c.11-15.77,5.42-28.63,11.88-28.72l577.7-8.31c5.87-.08,10.51,12.02,10.37,27.04l-.02,2.27Z"/>
        <path class="cls-31" d="m1544.73,1985.3c-.15,15.01-5.02,27.27-10.89,27.39l-577.5,11.04c-6.46.12-11.62-12.55-11.53-28.32v-2.38c.11-15.77,5.42-28.63,11.88-28.72l577.7-8.31c5.87-.08,10.51,12.02,10.37,27.04l-.02,2.27Z"/>
        <g class="cls-32">
          <rect class="cls-15" x="525.87" y="956.11" width="56.87" height="158.98"/>
          <rect class="cls-15" x="620.9" y="750.36" width="56.87" height="364.72"/>
          <rect class="cls-15" x="715.92" y="1027.46" width="56.87" height="87.62"/>
          <rect class="cls-15" x="810.95" y="799.12" width="56.87" height="315.96"/>
          <rect class="cls-15" x="905.97" y="853.83" width="56.87" height="261.25"/>
          <rect class="cls-15" x="1001" y="913.29" width="56.87" height="201.79"/>
          <rect class="cls-15" x="1096.02" y="676.63" width="56.87" height="438.46"/>
          <rect class="cls-15" x="1191.05" y="723.01" width="56.87" height="392.08"/>
          <rect class="cls-15" x="1286.07" y="793.18" width="56.87" height="321.91"/>
          <rect class="cls-15" x="1381.1" y="1035.59" width="56.87" height="79.49"/>
          <rect class="cls-15" x="1476.12" y="881.18" width="56.87" height="233.9"/>
        </g>
        <rect class="cls-31" x="302.22" y="1590.03" width="563.24" height="485.13" rx="17" ry="17"/>
        <rect class="cls-31" x="289.85" y="643.74" width="178.35" height="477.92" rx="10.21" ry="10.21"/>
      </g>
      <g>
        <g>
          <path class="cls-5" d="m1186.52,1392.08c-6.24,222.97-26.49,992.06-16.83,1264.6,1.02,28.87,27.17,52.05,59.78,52.99,161.3,4.67,752.61,16.52,1016.44,6.72,54.95-2.04,98.65-41.45,99.79-90.13,5.48-234.03,17.58-892.27-11.17-1193.81-3.45-36.13-35.47-64.9-76.23-68.51-175.66-15.56-769.51-53.59-997.45-40.49-41.11,2.36-73.32,32.17-74.34,68.63Z"/>
          <path class="cls-26" d="m1298.45,1424.77h902.78c36.21,0,65.61,29.4,65.61,65.61v188.96c0,36.21-29.4,65.61-65.61,65.61h-902.79c-36.21,0-65.61-29.4-65.61-65.61v-188.96c0-36.21,29.4-65.61,65.61-65.61Z"/>
          <path class="cls-30" d="m2220.8,1489.3c-7.98-8.25-18.92-12.99-30.4-13.17l-844.75-13.42c-22.58-.36-41.64,16.72-43.74,39.21l-17.55,187.41c-1.44,15.35,23.81,28.27,55.99,28.66l830.51,10.06c32.14.39,58.7-11.87,58.97-27.2l3.13-180.72c.2-11.48-4.17-22.57-12.16-30.82Z"/>
        </g>
        <path class="cls-20" d="m1458.54,1936.53c0,33.34-27.02,60.36-60.36,60.36h-73.48c-33.34,0-60.36-27.02-60.36-60.36h0c0-33.34,27.02-60.36,60.36-60.36h73.48c33.34,0,60.36,27.02,60.36,60.36h0Z"/>
        <path class="cls-23" d="m1731.48,1936.53c0,33.34-27.02,60.36-60.36,60.36h-73.48c-33.34,0-60.36-27.02-60.36-60.36h0c0-33.34,27.02-60.36,60.36-60.36h73.48c33.34,0,60.36,27.02,60.36,60.36h0Z"/>
        <path class="cls-22" d="m1993.91,1936.53c0,33.34-27.02,60.36-60.36,60.36h-73.48c-33.34,0-60.36-27.02-60.36-60.36h0c0-33.34,27.02-60.36,60.36-60.36h73.48c33.34,0,60.36,27.02,60.36,60.36h0Z"/>
        <path class="cls-25" d="m2259.95,1945.39c0,33.88-27.46,61.34-61.34,61.34h-71.02c-33.88,0-61.34-27.46-61.34-61.34h0c0-33.88,27.46-61.34,61.34-61.34h71.02c33.88,0,61.34,27.46,61.34,61.34h0Z"/>
        <path class="cls-28" d="m1458.54,2125.48c0,33.34-27.02,60.36-60.36,60.36h-73.48c-33.34,0-60.36-27.02-60.36-60.36h0c0-33.34,27.02-60.36,60.36-60.36h73.48c33.34,0,60.36,27.02,60.36,60.36h0Z"/>
        <path class="cls-9" d="m1731.48,2125.48c0,33.34-27.02,60.36-60.36,60.36h-73.48c-33.34,0-60.36-27.02-60.36-60.36h0c0-33.34,27.02-60.36,60.36-60.36h73.48c33.34,0,60.36,27.02,60.36,60.36h0Z"/>
        <path class="cls-1" d="m1993.91,2125.48c0,33.34-27.02,60.36-60.36,60.36h-73.48c-33.34,0-60.36-27.02-60.36-60.36h0c0-33.34,27.02-60.36,60.36-60.36h73.48c33.34,0,60.36,27.02,60.36,60.36h0Z"/>
        <path class="cls-12" d="m2266.85,2125.48c0,33.34-27.02,60.36-60.36,60.36h-73.48c-33.34,0-60.36-27.02-60.36-60.36h0c0-33.34,27.02-60.36,60.36-60.36h73.48c33.34,0,60.36,27.02,60.36,60.36h0Z"/>
        <g>
          <path class="cls-17" d="m1458.54,2292.83c0,33.34-27.02,60.36-60.36,60.36h-73.48c-33.34,0-60.36-27.02-60.36-60.36h0c0-33.34,27.02-60.36,60.36-60.36h73.48c33.34,0,60.36,27.02,60.36,60.36h0Z"/>
          <path class="cls-8" d="m1731.48,2292.83c0,33.34-27.02,60.36-60.36,60.36h-73.48c-33.34,0-60.36-27.02-60.36-60.36h0c0-33.34,27.02-60.36,60.36-60.36h73.48c33.34,0,60.36,27.02,60.36,60.36h0Z"/>
          <path class="cls-13" d="m1993.91,2292.83c0,33.34-27.02,60.36-60.36,60.36h-73.48c-33.34,0-60.36-27.02-60.36-60.36h0c0-33.34,27.02-60.36,60.36-60.36h73.48c33.34,0,60.36,27.02,60.36,60.36h0Z"/>
        </g>
        <g>
          <path class="cls-10" d="m1458.54,2476.53c0,33.34-27.02,60.36-60.36,60.36h-73.48c-33.34,0-60.36-27.02-60.36-60.36h0c0-33.34,27.02-60.36,60.36-60.36h73.48c33.34,0,60.36,27.02,60.36,60.36h0Z"/>
          <path class="cls-19" d="m1731.48,2476.53c0,33.34-27.02,60.36-60.36,60.36h-73.48c-33.34,0-60.36-27.02-60.36-60.36h0c0-33.34,27.02-60.36,60.36-60.36h73.48c33.34,0,60.36,27.02,60.36,60.36h0Z"/>
          <path class="cls-3" d="m1993.91,2476.53c0,33.34-27.02,60.36-60.36,60.36h-73.48c-33.34,0-60.36-27.02-60.36-60.36h0c0-33.34,27.02-60.36,60.36-60.36h73.48c33.34,0,60.36,27.02,60.36,60.36h0Z"/>
        </g>
        <rect class="cls-26" x="2083.14" y="2248.83" width="157.46" height="299.18" rx="76.4" ry="76.4"/>
      </g>
      <g>
        <circle class="cls-16" cx="1341.27" cy="1049.15" r="302.79" transform="translate(-349.01 1255.71) rotate(-45)"/>
        <path class="cls-27" d="m1091.59,926.7c-.5,0-1.02-.11-1.5-.36-1.64-.83-2.3-2.83-1.47-4.48,48.43-95.95,145.25-155.56,252.65-155.56,17.14,0,34.31,1.54,51.02,4.59,1.81.33,3.01,2.06,2.68,3.88-.33,1.81-2.04,3.01-3.88,2.68-16.32-2.97-33.08-4.48-49.83-4.48-104.88,0-199.41,58.2-246.71,151.9-.59,1.16-1.76,1.83-2.98,1.83Z"/>
        <circle class="cls-24" cx="1347.87" cy="1055.75" r="256.28" transform="translate(-351.74 1262.31) rotate(-45)"/>
        <path class="cls-6" d="m1322.72,1246.27v-27.88c-29.07-1.16-57.81-8.02-78.23-16.96-17.94-7.38-4.14-32.36-1.83-45.02,2.6-9.53,12.96-14.45,22.07-10.64,27.89,13.15,116.45,32.2,121.11-13.74,0-17.56-16.13-27.99-55.04-38.43-119.46-19.23-131.03-154.81-7.12-175.09,1.18-14.25-6.32-43.66,16.25-44.13,38.05-2.61,32.33,10.69,32.63,41.28,26.32,2.58,78.8,4.07,72.11,30.65,0,0-6.52,24.02-6.52,24.02-2.51,9.26-12.41,14.34-21.39,10.94-19.37-10.22-106.18-23.2-103.52,15.06,0,15.18,19.93,25.62,63.11,38.91,121,25.68,114.78,160.89-4.74,179.84-1.55,14.52,7.18,47.03-16.25,47.45-13.44.18-31.78,2.45-32.63-16.25Z"/>
      </g>
      <g>
        <circle class="cls-4" cx="1866.98" cy="1125.77" r="212.62" transform="translate(-249.21 1649.88) rotate(-45)"/>
        <path class="cls-27" d="m1691.65,1039.78c-.35,0-.71-.08-1.05-.25-1.15-.58-1.62-1.99-1.04-3.14,34.01-67.38,101.99-109.24,177.41-109.24,12.04,0,24.09,1.08,35.83,3.22,1.27.23,2.11,1.45,1.88,2.72-.23,1.27-1.43,2.11-2.72,1.88-11.46-2.09-23.23-3.15-34.99-3.15-73.65,0-140.03,40.87-173.24,106.66-.41.82-1.24,1.29-2.09,1.29Z"/>
        <circle class="cls-24" cx="1871.61" cy="1130.4" r="179.96" transform="translate(-251.13 1654.52) rotate(-45)"/>
        <path class="cls-6" d="m1853.95,1264.18v-19.58c-20.41-.82-40.6-5.63-54.94-11.91-12.6-5.18-2.9-22.72-1.29-31.62,1.82-6.69,9.1-10.15,15.5-7.47,19.58,9.24,81.77,22.61,85.04-9.65,0-12.33-11.33-19.66-38.65-26.99-83.89-13.51-92.01-108.71-5-122.95.83-10.01-4.44-30.66,11.41-30.99,26.72-1.83,22.7,7.51,22.91,28.99,18.49,1.81,55.33,2.86,50.64,21.52,0,0-4.57,16.87-4.57,16.87-1.76,6.5-8.71,10.07-15.02,7.68-13.6-7.18-74.56-16.29-72.69,10.57,0,10.66,13.99,17.99,44.31,27.32,84.96,18.03,80.6,112.98-3.33,126.28-1.09,10.2,5.04,33.02-11.41,33.32-9.44.12-22.32,1.72-22.91-11.41Z"/>
      </g>
      <g>
        <circle class="cls-14" cx="2305.37" cy="1139.26" r="212.62" transform="translate(-130.35 1963.82) rotate(-45)"/>
        <path class="cls-27" d="m2130.04,1053.28c-.35,0-.71-.08-1.05-.25-1.15-.58-1.62-1.99-1.04-3.14,34.01-67.38,101.99-109.24,177.41-109.24,12.04,0,24.09,1.08,35.83,3.22,1.27.23,2.11,1.45,1.88,2.72-.23,1.27-1.43,2.11-2.72,1.88-11.46-2.09-23.23-3.15-34.99-3.15-73.65,0-140.03,40.87-173.24,106.66-.41.82-1.24,1.29-2.09,1.29Z"/>
        <circle class="cls-24" cx="2310" cy="1143.9" r="179.96" transform="translate(-132.27 1968.46) rotate(-45)"/>
        <path class="cls-6" d="m2292.34,1277.68v-19.58c-20.41-.82-40.6-5.63-54.94-11.91-12.6-5.18-2.9-22.72-1.29-31.62,1.82-6.69,9.1-10.15,15.5-7.47,19.58,9.24,81.77,22.61,85.04-9.65,0-12.33-11.33-19.66-38.65-26.99-83.89-13.51-92.01-108.71-5-122.95.83-10.01-4.44-30.66,11.41-30.99,26.72-1.83,22.7,7.51,22.91,28.99,18.49,1.81,55.33,2.86,50.64,21.52,0,0-4.57,16.87-4.57,16.87-1.76,6.5-8.71,10.07-15.02,7.68-13.6-7.18-74.56-16.29-72.69,10.57,0,10.66,13.99,17.99,44.31,27.32,84.96,18.03,80.6,112.98-3.33,126.28-1.09,10.2,5.04,33.02-11.41,33.32-9.44.12-22.32,1.72-22.91-11.41Z"/>
      </g>
    </g>
  </g>
</svg>