<?xml version="1.0" encoding="UTF-8"?>
<svg xmlns="http://www.w3.org/2000/svg" xmlns:xlink="http://www.w3.org/1999/xlink" viewBox="0 0 350.37 295.05">
  <defs>
    <style>
      .cls-1 {
        fill: url(#_Áåçûìÿííûé_ãðàäèåíò_28-2);
      }

      .cls-1, .cls-2, .cls-3, .cls-4, .cls-5, .cls-6, .cls-7, .cls-8, .cls-9, .cls-10, .cls-11, .cls-12, .cls-13, .cls-14, .cls-15, .cls-16, .cls-17, .cls-18, .cls-19, .cls-20, .cls-21, .cls-22, .cls-23, .cls-24, .cls-25 {
        stroke-width: 0px;
      }

      .cls-2 {
        fill: url(#_Áåçûìÿííûé_ãðàäèåíò_14);
      }

      .cls-3 {
        fill: url(#_Áåçûìÿííûé_ãðàäèåíò_6-2);
      }

      .cls-26 {
        opacity: .5;
      }

      .cls-4, .cls-10, .cls-18 {
        fill: #d4088c;
      }

      .cls-5 {
        fill: url(#_Áåçûìÿííûé_ãðàäèåíò_29-2);
      }

      .cls-27 {
        isolation: isolate;
      }

      .cls-6 {
        fill: #0c0f38;
      }

      .cls-6, .cls-18 {
        opacity: .8;
      }

      .cls-7 {
        fill: url(#_Áåçûìÿííûé_ãðàäèåíò_28);
      }

      .cls-8 {
        fill: url(#_Áåçûìÿííûé_ãðàäèåíò_103);
      }

      .cls-9 {
        fill: url(#_Áåçûìÿííûé_ãðàäèåíò_18);
      }

      .cls-10, .cls-14, .cls-18 {
        mix-blend-mode: lighten;
      }

      .cls-11 {
        fill: url(#_Áåçûìÿííûé_ãðàäèåíò_3-2);
      }

      .cls-12 {
        fill: url(#_Áåçûìÿííûé_ãðàäèåíò_6);
      }

      .cls-13 {
        fill: none;
      }

      .cls-14, .cls-24 {
        fill: #6ee8fc;
      }

      .cls-15 {
        fill: url(#_Áåçûìÿííûé_ãðàäèåíò_29);
      }

      .cls-28 {
        opacity: .11;
      }

      .cls-16 {
        fill: url(#_Áåçûìÿííûé_ãðàäèåíò_29-5);
      }

      .cls-17 {
        fill: #fff;
      }

      .cls-19 {
        fill: #3a9bd5;
      }

      .cls-20 {
        fill: url(#_Áåçûìÿííûé_ãðàäèåíò_29-4);
      }

      .cls-29 {
        clip-path: url(#clippath);
      }

      .cls-21 {
        fill: #6ee1f8;
      }

      .cls-22 {
        fill: url(#_Áåçûìÿííûé_ãðàäèåíò_21);
      }

      .cls-23 {
        fill: url(#_Áåçûìÿííûé_ãðàäèåíò_3);
      }

      .cls-25 {
        fill: url(#_Áåçûìÿííûé_ãðàäèåíò_29-3);
      }
    </style>
    <linearGradient id="_Áåçûìÿííûé_ãðàäèåíò_18" data-name="Áåçûìÿííûé ãðàäèåíò 18" x1="216.76" y1="950.64" x2="263.79" y2="950.64" gradientTransform="translate(865.61 717.96) rotate(135)" gradientUnits="userSpaceOnUse">
      <stop offset="0" stop-color="#d4088c"/>
      <stop offset=".04" stop-color="#cb078b"/>
      <stop offset=".46" stop-color="#85068a"/>
      <stop offset=".76" stop-color="#580689"/>
      <stop offset=".91" stop-color="#480689"/>
    </linearGradient>
    <linearGradient id="_Áåçûìÿííûé_ãðàäèåíò_28" data-name="Áåçûìÿííûé ãðàäèåíò 28" x1="96.96" y1="1054.28" x2="116.44" y2="1054.28" gradientTransform="translate(160.64 1103.81) rotate(-180)" gradientUnits="userSpaceOnUse">
      <stop offset="0" stop-color="#6ee8fc"/>
      <stop offset=".16" stop-color="#69e1fa"/>
      <stop offset=".37" stop-color="#5ed0f6"/>
      <stop offset=".61" stop-color="#4ab4f0"/>
      <stop offset=".87" stop-color="#308ee8"/>
      <stop offset=".96" stop-color="#267fe5"/>
    </linearGradient>
    <linearGradient id="_Áåçûìÿííûé_ãðàäèåíò_28-2" data-name="Áåçûìÿííûé ãðàäèåíò 28" x1="-40.98" y1="738.04" x2="2.8" y2="738.04" gradientTransform="translate(1039.19 -70.65) rotate(71.42)" xlink:href="#_Áåçûìÿííûé_ãðàäèåíò_28"/>
    <linearGradient id="_Áåçûìÿííûé_ãðàäèåíò_6" data-name="Áåçûìÿííûé ãðàäèåíò 6" x1="-5327.15" y1="128.62" x2="-5190.17" y2="128.62" gradientTransform="translate(-5048.89) rotate(-180) scale(1 -1)" gradientUnits="userSpaceOnUse">
      <stop offset="0" stop-color="#7bdaff"/>
      <stop offset="1" stop-color="#59bdef"/>
    </linearGradient>
    <linearGradient id="_Áåçûìÿííûé_ãðàäèåíò_14" data-name="Áåçûìÿííûé ãðàäèåíò 14" x1="-5325.29" y1="129.22" x2="-5188.31" y2="129.22" gradientTransform="translate(-5048.89) rotate(-180) scale(1 -1)" gradientUnits="userSpaceOnUse">
      <stop offset="0" stop-color="#2573ba"/>
      <stop offset="1" stop-color="#0063ad"/>
    </linearGradient>
    <linearGradient id="_Áåçûìÿííûé_ãðàäèåíò_3" data-name="Áåçûìÿííûé ãðàäèåíò 3" x1="-5325.29" y1="129.22" x2="-5188.31" y2="129.22" gradientTransform="translate(-5048.89) rotate(-180) scale(1 -1)" gradientUnits="userSpaceOnUse">
      <stop offset="0" stop-color="#2c75e4"/>
      <stop offset=".04" stop-color="#3361d4"/>
      <stop offset=".13" stop-color="#4040bb"/>
      <stop offset=".22" stop-color="#4b26a7"/>
      <stop offset=".32" stop-color="#521499"/>
      <stop offset=".41" stop-color="#560990"/>
      <stop offset=".52" stop-color="#58068e"/>
      <stop offset=".66" stop-color="#5a068f"/>
      <stop offset=".76" stop-color="#640a92"/>
      <stop offset=".85" stop-color="#740f98"/>
      <stop offset=".93" stop-color="#8a16a0"/>
      <stop offset="1" stop-color="#a31fa9"/>
    </linearGradient>
    <linearGradient id="_Áåçûìÿííûé_ãðàäèåíò_6-2" data-name="Áåçûìÿííûé ãðàäèåíò 6" x1="-5322.48" y1="129.24" x2="-5191.26" y2="129.24" xlink:href="#_Áåçûìÿííûé_ãðàäèåíò_6"/>
    <linearGradient id="_Áåçûìÿííûé_ãðàäèåíò_3-2" data-name="Áåçûìÿííûé ãðàäèåíò 3" x1="-5308.8" y1="203.24" x2="-5115.34" y2="203.24" xlink:href="#_Áåçûìÿííûé_ãðàäèåíò_3"/>
    <radialGradient id="_Áåçûìÿííûé_ãðàäèåíò_103" data-name="Áåçûìÿííûé ãðàäèåíò 103" cx="-5314.73" cy="212.46" fx="-5314.73" fy="212.46" r="205.39" gradientTransform="translate(-5048.89) rotate(-180) scale(1 -1)" gradientUnits="userSpaceOnUse">
      <stop offset="0" stop-color="#2979e4"/>
      <stop offset=".24" stop-color="#4958cc"/>
      <stop offset=".57" stop-color="#6d32b1"/>
      <stop offset=".83" stop-color="#841ba1"/>
      <stop offset="1" stop-color="#8d139b"/>
    </radialGradient>
    <clipPath id="clippath">
      <polygon class="cls-13" points="157.81 54.42 273.58 121.27 259.41 204.83 143.71 138.03 157.81 54.42"/>
    </clipPath>
    <linearGradient id="_Áåçûìÿííûé_ãðàäèåíò_21" data-name="Áåçûìÿííûé ãðàäèåíò 21" x1="-5332.47" y1="155.37" x2="-5116.98" y2="155.37" gradientTransform="translate(-5048.89) rotate(-180) scale(1 -1)" gradientUnits="userSpaceOnUse">
      <stop offset="0" stop-color="#c0bff6"/>
      <stop offset=".29" stop-color="#c4c3f6"/>
      <stop offset=".64" stop-color="#d2d2f9"/>
      <stop offset="1" stop-color="#e9e9fd"/>
    </linearGradient>
    <radialGradient id="_Áåçûìÿííûé_ãðàäèåíò_29" data-name="Áåçûìÿííûé ãðàäèåíò 29" cx="215.73" cy="167.94" fx="215.73" fy="167.94" r="40.15" gradientUnits="userSpaceOnUse">
      <stop offset="0" stop-color="#22215b"/>
      <stop offset=".33" stop-color="#1e1e55"/>
      <stop offset=".75" stop-color="#141544"/>
      <stop offset="1" stop-color="#0c0f38"/>
    </radialGradient>
    <radialGradient id="_Áåçûìÿííûé_ãðàäèåíò_29-2" data-name="Áåçûìÿííûé ãðàäèåíò 29" cx="223.35" cy="160.84" fx="223.35" fy="160.84" r="38.24" xlink:href="#_Áåçûìÿííûé_ãðàäèåíò_29"/>
    <radialGradient id="_Áåçûìÿííûé_ãðàäèåíò_29-3" data-name="Áåçûìÿííûé ãðàäèåíò 29" cx="237.15" cy="161.59" fx="237.15" fy="161.59" r="44.4" xlink:href="#_Áåçûìÿííûé_ãðàäèåíò_29"/>
    <radialGradient id="_Áåçûìÿííûé_ãðàäèåíò_29-4" data-name="Áåçûìÿííûé ãðàäèåíò 29" cx="243.4" cy="157.99" fx="243.4" fy="157.99" r="44.4" xlink:href="#_Áåçûìÿííûé_ãðàäèåíò_29"/>
    <radialGradient id="_Áåçûìÿííûé_ãðàäèåíò_29-5" data-name="Áåçûìÿííûé ãðàäèåíò 29" cx="249.64" cy="154.38" fx="249.64" fy="154.38" r="44.4" xlink:href="#_Áåçûìÿííûé_ãðàäèåíò_29"/>
  </defs>
  <g class="cls-27">
    <g id="Layer_2" data-name="Layer 2">
      <g id="_Ñëîé_1" data-name="Ñëîé 1">
        <g>
          <circle class="cls-9" cx="23.51" cy="215.66" r="23.51"/>
          <circle class="cls-7" cx="53.94" cy="49.53" r="9.74"/>
          <circle class="cls-1" cx="332.87" cy="144.37" r="17.5" transform="translate(-4.59 277.66) rotate(-45)"/>
          <path class="cls-6" d="m337.35,215.25c-7.04,1.37-14.66-.82-17.02-4.88-2.37-4.06,1.42-8.46,8.46-9.83,7.04-1.37,14.66.82,17.02,4.88,2.37,4.06-1.42,8.46-8.46,9.83Z"/>
          <path class="cls-6" d="m29.75,294.49c-9.79,1.9-20.39-1.14-23.69-6.8-3.29-5.65,1.98-11.77,11.77-13.67,9.79-1.9,20.39,1.14,23.69,6.8,3.29,5.65-1.98,11.77-11.77,13.67Z"/>
          <path class="cls-6" d="m56.08,88.89c-3.51.68-7.32-.41-8.5-2.44-1.18-2.03.71-4.23,4.22-4.91s7.32.41,8.5,2.44c1.18,2.03-.71,4.23-4.22,4.91Z"/>
          <g>
            <circle class="cls-18" cx="118.26" cy="9.02" r="2.49"/>
            <circle class="cls-18" cx="74.54" cy="262.66" r="3.01"/>
            <path class="cls-14" d="m57.04,249.36c0,.85-.69,1.55-1.55,1.55s-1.55-.69-1.55-1.55.69-1.55,1.55-1.55,1.55.69,1.55,1.55Z"/>
            <path class="cls-14" d="m319.63,192.25c0,.88-.72,1.6-1.6,1.6s-1.6-.72-1.6-1.6.72-1.6,1.6-1.6,1.6.72,1.6,1.6Z"/>
            <g>
              <circle class="cls-14" cx="21.54" cy="84.32" r="2.25"/>
              <path class="cls-14" d="m192,2.25c0,1.24-1.01,2.25-2.25,2.25s-2.25-1.01-2.25-2.25,1.01-2.25,2.25-2.25,2.25,1.01,2.25,2.25Z"/>
              <path class="cls-14" d="m32.95,79.33c0,.69-.56,1.25-1.25,1.25s-1.25-.56-1.25-1.25.56-1.25,1.25-1.25,1.25.56,1.25,1.25Z"/>
            </g>
            <path class="cls-10" d="m247.48,10.29c0,.81-.66,1.47-1.47,1.47s-1.47-.66-1.47-1.47.66-1.47,1.47-1.47,1.47.66,1.47,1.47Z"/>
          </g>
          <g>
            <polygon class="cls-21" points="31.24 158.12 30.7 156.19 34.98 155 33.78 150.71 35.71 150.17 37.45 156.38 31.24 158.12"/>
            <polygon class="cls-21" points="27.46 164.83 26.92 162.9 31.2 161.71 30.01 157.42 31.93 156.88 33.67 163.09 27.46 164.83"/>
            <polygon class="cls-21" points="31.47 162.67 29.74 156.46 35.95 154.73 36.48 156.65 32.2 157.85 33.4 162.13 31.47 162.67"/>
          </g>
          <path class="cls-21" d="m179.16,15.05c-2.62,0-4.76-2.13-4.76-4.76s2.14-4.76,4.76-4.76,4.76,2.14,4.76,4.76-2.13,4.76-4.76,4.76Zm0-7.52c-1.52,0-2.76,1.24-2.76,2.76s1.24,2.76,2.76,2.76,2.76-1.24,2.76-2.76-1.24-2.76-2.76-2.76Z"/>
          <path class="cls-21" d="m283.58,253.21l-5.4-5.4,5.4-5.4,5.4,5.4-5.4,5.4Zm-2.57-5.4l2.57,2.57,2.57-2.57-2.57-2.57-2.57,2.57Z"/>
          <g>
            <rect class="cls-4" x="297.62" y="55.55" width="2" height="8.18" transform="translate(45.3 228.65) rotate(-45.01)"/>
            <rect class="cls-4" x="294.53" y="58.64" width="8.18" height="2" transform="translate(45.29 228.63) rotate(-45)"/>
          </g>
        </g>
        <path class="cls-10" d="m3.61,125.93c0,.81-.66,1.47-1.47,1.47s-1.47-.66-1.47-1.47.66-1.47,1.47-1.47,1.47.66,1.47,1.47Z"/>
        <g>
          <path class="cls-6" d="m67.45,204.99l117.37,67.76c1.28.74,3.23.82,4.34.18l70.04-40.44c1.11-.64.97-1.76-.31-2.51l-117.37-67.76c-1.28-.74-3.23-.82-4.34-.18l-70.04,40.44c-1.11.64-.97,1.76.31,2.51Z"/>
          <g>
            <g>
              <g>
                <g>
                  <path class="cls-12" d="m141.31,137.14l14.84-88.02-1.19-.5,1.79-1.03h0c.35-.22.84-.21,1.38.11l118.57,68.46c.97.56,1.71,2,1.54,3.01l-14.95,88.72c-.08.46-.31.77-.62.9h0s-1.75,1.01-1.75,1.01l-.3-1.64.1.03-117.86-68.04c-.97-.56-1.71-2-1.54-3.01Z"/>
                  <path class="cls-19" d="m276.03,118.56l1.95-.86c.22.5.33,1.02.25,1.47l-14.95,88.72c-.08.46-.31.77-.62.9h0s-1.75,1.01-1.75,1.01l-.3-1.64.1.03-5.96-3.44,21.3-86.19Z"/>
                  <path class="cls-2" d="m140.98,141.22l118.57,68.46c.92.53,1.7.22,1.86-.72l14.95-88.72c.17-1.01-.57-2.45-1.54-3.01l-118.57-68.46c-.92-.53-1.7-.22-1.86.72l-14.95,88.72c-.17,1.01.57,2.45,1.54,3.01Z"/>
                  <path class="cls-23" d="m140.98,141.22l118.57,68.46c.92.53,1.7.22,1.86-.72l14.95-88.72c.17-1.01-.57-2.45-1.54-3.01l-118.57-68.46c-.92-.53-1.7-.22-1.86.72l-14.95,88.72c-.17,1.01.57,2.45,1.54,3.01Z"/>
                  <polygon class="cls-3" points="156.47 53.65 273.58 121.27 259.41 204.83 142.37 137.25 156.47 53.65"/>
                </g>
                <g>
                  <path class="cls-11" d="m66.45,183.23l6.47,3.38,64.89-37.46c1.09-.63,2.98-.55,4.24.18l111.91,64.61c1.07-.6,5.95-2.95,5.95-2.95l-2.37,6.17s0,0,0,0c-.1.27-.31.53-.66.73l-68.34,39.46c-1.09.63-2.98.55-4.24-.18l-114.52-66.12c-.51-.3-.83-.66-.96-1.02h0s-2.35-6.8-2.35-6.8Z"/>
                  <path class="cls-8" d="m67.45,184.29l117.37,67.76c1.28.74,3.23.82,4.34.18l70.04-40.44c1.11-.64.97-1.76-.31-2.51l-117.37-67.76c-1.28-.74-3.23-.82-4.34-.18l-70.04,40.44c-1.11.64-.97,1.76.31,2.51Z"/>
                  <path class="cls-24" d="m67.45,183.14l117.37,67.76c1.28.74,3.23.82,4.34.18l70.04-40.44c.26-.15.46-.33.58-.53.34.6.16,1.25-.58,1.68l-70.04,40.44c-1.11.64-3.06.56-4.34-.18l-117.37-67.76c-.98-.57-1.29-1.35-.89-1.98.17.3.47.58.89.83Z"/>
                </g>
              </g>
              <g class="cls-28">
                <g class="cls-29">
                  <g>
                    <path class="cls-22" d="m141.68,141.46l130.66,75.44c1.43.83,3.59.92,4.83.2l77.97-45.02c1.24-.72,1.08-1.96-.35-2.79l-130.66-75.44c-1.43-.83-3.59-.92-4.83-.2l-77.97,45.02c-1.24.72-1.08,1.96.35,2.79Z"/>
                    <g>
                      <polygon class="cls-15" points="170.3 139.56 264.9 194.17 261.15 196.33 166.56 141.72 170.3 139.56"/>
                      <polygon class="cls-5" points="180.27 133.8 270.18 185.71 266.43 187.87 176.52 135.97 180.27 133.8"/>
                      <polygon class="cls-21" points="276.89 189.59 285.29 194.44 281.54 196.6 273.15 191.75 276.89 189.59"/>
                      <polygon class="cls-21" points="269.48 196.81 275.32 200.19 271.58 202.35 265.73 198.98 269.48 196.81"/>
                      <polygon class="cls-25" points="186.51 130.2 291.54 190.83 287.79 192.99 182.77 132.36 186.51 130.2"/>
                      <polygon class="cls-20" points="192.76 126.59 297.78 187.22 294.03 189.39 189.01 128.75 192.76 126.59"/>
                      <polygon class="cls-16" points="199.01 122.98 304.03 183.62 300.28 185.78 195.26 125.15 199.01 122.98"/>
                    </g>
                  </g>
                </g>
              </g>
            </g>
            <g>
              <polygon class="cls-21" points="138.68 156.79 223.4 205.7 227.17 203.53 142.45 154.61 138.68 156.79"/>
              <polygon class="cls-21" points="129.45 162.12 208.91 208 212.68 205.82 133.21 159.94 129.45 162.12"/>
              <polygon class="cls-21" points="123.43 165.59 216.99 219.61 220.76 217.44 127.2 163.42 123.43 165.59"/>
              <polygon class="cls-21" points="117.42 169.07 210.98 223.08 214.74 220.91 121.18 166.89 117.42 169.07"/>
              <polygon class="cls-21" points="111.4 172.54 204.96 226.56 208.73 224.38 115.17 170.36 111.4 172.54"/>
              <polygon class="cls-21" points="228.52 208.66 232.29 210.83 236.06 208.66 232.29 206.48 228.52 208.66"/>
              <polygon class="cls-21" points="215.23 211.65 223.05 216.16 226.82 213.99 219 209.47 215.23 211.65"/>
            </g>
          </g>
          <g class="cls-26">
            <polygon class="cls-17" points="166.14 78.61 173.89 83.09 174.11 81.74 166.37 77.27 166.14 78.61"/>
            <polygon class="cls-17" points="175.13 83.8 179.35 86.24 179.58 84.89 175.36 82.46 175.13 83.8"/>
            <polygon class="cls-17" points="185.91 90.03 188.97 91.79 189.19 90.44 186.14 88.68 185.91 90.03"/>
            <polygon class="cls-17" points="183.69 88.74 184.73 89.34 184.96 88 183.91 87.4 183.69 88.74"/>
            <polygon class="cls-17" points="180.61 86.96 182.5 88.06 182.73 86.71 180.84 85.62 180.61 86.96"/>
            <polygon class="cls-17" points="172.27 88.89 175.32 90.66 175.55 89.31 172.5 87.55 172.27 88.89"/>
            <polygon class="cls-17" points="165.11 84.76 171.09 88.21 171.31 86.87 165.33 83.41 165.11 84.76"/>
            <g>
              <polygon class="cls-17" points="173.68 106.54 179.66 110 179.89 108.65 173.91 105.2 173.68 106.54"/>
              <polygon class="cls-17" points="170.61 104.76 172.5 105.86 172.73 104.51 170.83 103.42 170.61 104.76"/>
            </g>
            <polygon class="cls-17" points="174.68 100.39 180.66 103.85 180.89 102.5 174.91 99.05 174.68 100.39"/>
            <polygon class="cls-17" points="171.6 98.61 173.5 99.71 173.72 98.36 171.83 97.27 171.6 98.61"/>
            <polygon class="cls-17" points="169.27 133.08 158.01 126.57 157.78 127.92 169.05 134.43 169.27 133.08"/>
            <polygon class="cls-17" points="173.24 135.38 170.46 133.77 170.23 135.11 173.02 136.72 173.24 135.38"/>
            <polygon class="cls-17" points="193.04 136.68 181.77 130.17 181.55 131.51 192.81 138.02 193.04 136.68"/>
            <polygon class="cls-17" points="197.01 138.97 194.22 137.36 194 138.71 196.78 140.32 197.01 138.97"/>
            <polygon class="cls-17" points="161.58 125.27 158.53 123.5 158.3 124.85 161.35 126.61 161.58 125.27"/>
            <polygon class="cls-17" points="180.15 129.25 177.1 127.48 176.87 128.83 179.92 130.59 180.15 129.25"/>
            <polygon class="cls-17" points="168.74 129.4 162.76 125.95 162.53 127.29 168.51 130.75 168.74 129.4"/>
            <polygon class="cls-17" points="171.82 131.18 169.92 130.09 169.7 131.43 171.59 132.53 171.82 131.18"/>
            <polygon class="cls-17" points="179.04 135.35 173.06 131.89 172.83 133.23 178.81 136.69 179.04 135.35"/>
            <polygon class="cls-17" points="182.11 137.12 180.22 136.03 179.99 137.37 181.89 138.47 182.11 137.12"/>
            <polygon class="cls-17" points="179.63 132.32 176.58 130.55 176.35 131.9 179.4 133.66 179.63 132.32"/>
            <polygon class="cls-17" points="186.79 136.46 180.81 133 180.59 134.35 186.57 137.8 186.79 136.46"/>
            <polygon class="cls-17" points="189.87 138.23 187.98 137.14 187.75 138.48 189.64 139.58 189.87 138.23"/>
            <polygon class="cls-17" points="165.29 124.04 159.04 120.43 158.82 121.78 165.06 125.38 165.29 124.04"/>
            <polygon class="cls-17" points="170.99 127.33 166.47 124.72 166.25 126.07 170.76 128.68 170.99 127.33"/>
            <polygon class="cls-17" points="175.22 129.78 172.17 128.02 171.94 129.36 175 131.12 175.22 129.78"/>
            <polygon class="cls-17" points="204.83 143.47 198.58 139.87 198.35 141.21 204.6 144.82 204.83 143.47"/>
            <polygon class="cls-17" points="210.52 146.77 206.01 144.16 205.78 145.5 210.3 148.11 210.52 146.77"/>
            <polygon class="cls-17" points="214.76 149.21 211.71 147.45 211.48 148.8 214.53 150.56 214.76 149.21"/>
            <polygon class="cls-17" points="202.38 102.9 208.63 106.51 208.85 105.16 202.61 101.56 202.38 102.9"/>
            <polygon class="cls-17" points="196.68 99.61 201.2 102.22 201.42 100.87 196.91 98.26 196.68 99.61"/>
            <polygon class="cls-17" points="192.45 97.16 195.5 98.92 195.72 97.58 192.67 95.82 192.45 97.16"/>
            <polygon class="cls-17" points="200.31 98.32 206.55 101.93 206.78 100.58 200.53 96.97 200.31 98.32"/>
            <polygon class="cls-17" points="194.61 95.03 199.12 97.64 199.35 96.29 194.83 93.68 194.61 95.03"/>
            <polygon class="cls-17" points="190.37 92.58 193.42 94.34 193.65 93 190.6 91.23 190.37 92.58"/>
            <polygon class="cls-17" points="175.09 104 177.2 105.22 177.43 103.88 175.32 102.66 175.09 104"/>
            <polygon class="cls-17" points="171.12 101.71 173.91 103.32 174.14 101.97 171.35 100.36 171.12 101.71"/>
            <polygon class="cls-17" points="165.85 120.99 159.6 117.38 159.38 118.72 165.62 122.33 165.85 120.99"/>
            <polygon class="cls-17" points="171.55 124.28 167.03 121.67 166.8 123.01 171.32 125.62 171.55 124.28"/>
            <polygon class="cls-17" points="175.78 126.73 172.73 124.96 172.5 126.31 175.56 128.07 175.78 126.73"/>
            <polygon class="cls-17" points="162.23 115.53 160.12 114.31 159.89 115.65 162 116.87 162.23 115.53"/>
            <polygon class="cls-17" points="166.2 117.82 163.41 116.21 163.19 117.55 165.97 119.17 166.2 117.82"/>
            <polygon class="cls-17" points="171.87 121.1 167.38 118.5 167.16 119.85 171.65 122.44 171.87 121.1"/>
            <polygon class="cls-17" points="177.96 95.53 180.07 96.75 180.3 95.41 178.19 94.19 177.96 95.53"/>
            <polygon class="cls-17" points="173.99 93.24 176.78 94.85 177 93.51 174.22 91.9 173.99 93.24"/>
            <polygon class="cls-17" points="168.32 89.96 172.81 92.56 173.03 91.21 168.54 88.62 168.32 89.96"/>
            <polygon class="cls-17" points="181.17 100.52 185.67 103.11 185.89 101.77 181.4 99.17 181.17 100.52"/>
            <polygon class="cls-17" points="173.83 96.52 179.88 100.01 180.11 98.67 174.06 95.17 173.83 96.52"/>
            <polygon class="cls-17" points="170.75 94.74 172.65 95.83 172.87 94.49 170.98 93.39 170.75 94.74"/>
            <polygon class="cls-17" points="167.8 93.03 169.69 94.13 169.92 92.78 168.03 91.69 167.8 93.03"/>
            <g>
              <polygon class="cls-17" points="168.21 110.38 174.19 113.84 174.41 112.5 168.43 109.04 168.21 110.38"/>
              <polygon class="cls-17" points="165.13 108.61 167.02 109.7 167.25 108.36 165.36 107.26 165.13 108.61"/>
              <polygon class="cls-17" points="168.62 113.99 170.73 115.21 170.95 113.87 168.85 112.65 168.62 113.99"/>
              <polygon class="cls-17" points="176.06 111.53 178.17 112.75 178.4 111.41 176.29 110.19 176.06 111.53"/>
              <polygon class="cls-17" points="179.07 113.27 184.13 116.19 184.36 114.85 179.3 111.92 179.07 113.27"/>
              <polygon class="cls-17" points="185.03 116.71 188.04 118.45 188.27 117.1 185.26 115.36 185.03 116.71"/>
              <polygon class="cls-17" points="164.65 111.7 167.44 113.31 167.66 111.97 164.87 110.36 164.65 111.7"/>
              <g>
                <polygon class="cls-17" points="164.39 114.86 166.5 116.07 166.72 114.73 164.61 113.51 164.39 114.86"/>
                <polygon class="cls-17" points="160.42 112.56 163.2 114.17 163.43 112.83 160.64 111.22 160.42 112.56"/>
              </g>
              <polygon class="cls-17" points="173 109.77 174.9 110.86 175.12 109.52 173.23 108.42 173 109.77"/>
              <polygon class="cls-17" points="170.05 108.06 171.95 109.16 172.17 107.81 170.28 106.72 170.05 108.06"/>
            </g>
            <polygon class="cls-17" points="184.6 92.63 191.06 96.36 191.28 95.01 184.82 91.28 184.6 92.63"/>
            <polygon class="cls-17" points="177.36 88.44 183.41 91.94 183.64 90.6 177.59 87.1 177.36 88.44"/>
            <polygon class="cls-17" points="174.28 86.67 176.18 87.76 176.4 86.42 174.51 85.32 174.28 86.67"/>
            <polygon class="cls-17" points="171.33 84.96 173.22 86.05 173.45 84.71 171.56 83.62 171.33 84.96"/>
            <polygon class="cls-17" points="169.72 84.03 165.63 81.67 165.86 80.32 169.94 82.68 169.72 84.03"/>
          </g>
        </g>
      </g>
    </g>
  </g>
</svg>