<?xml version="1.0" encoding="UTF-8"?>
<svg xmlns="http://www.w3.org/2000/svg" xmlns:xlink="http://www.w3.org/1999/xlink" viewBox="0 0 529.51 341.6">
  <defs>
    <style>
      .cls-1 {
        fill: url(#linear-gradient-38);
      }

      .cls-1, .cls-2, .cls-3, .cls-4, .cls-5, .cls-6, .cls-7, .cls-8, .cls-9, .cls-10, .cls-11, .cls-12, .cls-13, .cls-14, .cls-15, .cls-16, .cls-17, .cls-18, .cls-19, .cls-20, .cls-21, .cls-22, .cls-23, .cls-24, .cls-25, .cls-26, .cls-27, .cls-28, .cls-29, .cls-30, .cls-31, .cls-32, .cls-33, .cls-34, .cls-35, .cls-36, .cls-37, .cls-38, .cls-39, .cls-40, .cls-41, .cls-42, .cls-43, .cls-44, .cls-45, .cls-46, .cls-47, .cls-48, .cls-49, .cls-50, .cls-51, .cls-52, .cls-53, .cls-54 {
        stroke-width: 0px;
      }

      .cls-2 {
        fill: url(#linear-gradient-12);
      }

      .cls-3 {
        fill: url(#linear-gradient-17);
      }

      .cls-4 {
        fill: #b3e5fc;
      }

      .cls-4, .cls-8, .cls-50, .cls-52 {
        mix-blend-mode: multiply;
      }

      .cls-5 {
        fill: url(#linear-gradient-19);
      }

      .cls-6 {
        fill: url(#linear-gradient-33);
      }

      .cls-7 {
        fill: url(#linear-gradient);
      }

      .cls-8 {
        fill: #29b6f6;
      }

      .cls-9 {
        opacity: .32;
      }

      .cls-9, .cls-12, .cls-22, .cls-25, .cls-28 {
        fill: #fff;
      }

      .cls-9, .cls-12, .cls-22, .cls-25, .cls-55 {
        mix-blend-mode: overlay;
      }

      .cls-56 {
        isolation: isolate;
      }

      .cls-10 {
        fill: url(#linear-gradient-42);
      }

      .cls-11 {
        fill: url(#linear-gradient-15);
      }

      .cls-12 {
        opacity: .36;
      }

      .cls-13 {
        fill: url(#linear-gradient-11);
      }

      .cls-14 {
        fill: url(#linear-gradient-5);
      }

      .cls-15, .cls-57 {
        fill: none;
      }

      .cls-16 {
        fill: url(#linear-gradient-31);
      }

      .cls-17 {
        fill: url(#linear-gradient-34);
      }

      .cls-58 {
        clip-path: url(#clippath-1);
      }

      .cls-18 {
        fill: url(#linear-gradient-41);
      }

      .cls-19 {
        fill: url(#linear-gradient-40);
      }

      .cls-20 {
        fill: url(#linear-gradient-13);
      }

      .cls-21 {
        fill: url(#linear-gradient-23);
      }

      .cls-22 {
        opacity: .2;
      }

      .cls-23 {
        fill: url(#linear-gradient-25);
      }

      .cls-24 {
        fill: url(#linear-gradient-43);
      }

      .cls-25 {
        opacity: .38;
      }

      .cls-26 {
        fill: url(#linear-gradient-16);
      }

      .cls-27 {
        fill: url(#linear-gradient-22);
      }

      .cls-29 {
        fill: url(#linear-gradient-35);
      }

      .cls-30 {
        fill: url(#linear-gradient-32);
      }

      .cls-31 {
        fill: url(#linear-gradient-20);
      }

      .cls-32 {
        fill: url(#linear-gradient-14);
      }

      .cls-55 {
        opacity: .65;
      }

      .cls-33 {
        fill: url(#linear-gradient-2);
      }

      .cls-34 {
        fill: url(#linear-gradient-7);
      }

      .cls-35 {
        fill: url(#linear-gradient-39);
      }

      .cls-36 {
        fill: url(#linear-gradient-3);
      }

      .cls-57 {
        stroke: #fff;
        stroke-linecap: round;
        stroke-linejoin: round;
        stroke-width: 2px;
      }

      .cls-59 {
        clip-path: url(#clippath);
      }

      .cls-37 {
        fill: #eceff1;
      }

      .cls-38 {
        fill: url(#linear-gradient-9);
      }

      .cls-39 {
        fill: url(#linear-gradient-27);
      }

      .cls-40 {
        fill: url(#linear-gradient-36);
      }

      .cls-41 {
        fill: url(#linear-gradient-8);
      }

      .cls-42 {
        fill: url(#linear-gradient-24);
      }

      .cls-43 {
        fill: url(#linear-gradient-26);
      }

      .cls-44 {
        fill: url(#linear-gradient-18);
      }

      .cls-45 {
        fill: url(#linear-gradient-30);
      }

      .cls-46 {
        fill: url(#linear-gradient-44);
      }

      .cls-47 {
        fill: url(#linear-gradient-29);
      }

      .cls-48 {
        fill: url(#linear-gradient-28);
      }

      .cls-49 {
        fill: url(#linear-gradient-10);
      }

      .cls-50 {
        fill: url(#linear-gradient-21);
      }

      .cls-51 {
        fill: url(#linear-gradient-4);
      }

      .cls-52 {
        fill: url(#linear-gradient-6);
      }

      .cls-53 {
        fill: #90caf9;
      }

      .cls-54 {
        fill: url(#linear-gradient-37);
      }
    </style>
    <linearGradient id="linear-gradient" x1="-26.7" y1="105.97" x2="367.05" y2="499.72" gradientUnits="userSpaceOnUse">
      <stop offset="0" stop-color="#fff"/>
      <stop offset="1" stop-color="#fff" stop-opacity=".5"/>
    </linearGradient>
    <linearGradient id="linear-gradient-2" x1="280.04" y1="-200.78" x2="673.79" y2="192.98" xlink:href="#linear-gradient"/>
    <linearGradient id="linear-gradient-3" x1="73.45" y1="40.22" x2="341.28" y2="40.22" gradientUnits="userSpaceOnUse">
      <stop offset="0" stop-color="#1e88e5"/>
      <stop offset="1" stop-color="#0d47a1"/>
    </linearGradient>
    <linearGradient id="linear-gradient-4" x1="207.36" y1="176.35" x2="207.36" y2="52.2" gradientUnits="userSpaceOnUse">
      <stop offset="0" stop-color="#90caf9"/>
      <stop offset="1" stop-color="#d3eafc"/>
    </linearGradient>
    <linearGradient id="linear-gradient-5" x1="288.32" y1="308.52" x2="288.32" y2="260.01" gradientUnits="userSpaceOnUse">
      <stop offset="0" stop-color="#90caf9"/>
      <stop offset="1" stop-color="#64b5f6"/>
    </linearGradient>
    <linearGradient id="linear-gradient-6" x1="256.44" y1="273.93" x2="320.19" y2="273.93" xlink:href="#linear-gradient-5"/>
    <linearGradient id="linear-gradient-7" x1="238.14" y1="313.57" x2="338.49" y2="313.57" gradientUnits="userSpaceOnUse">
      <stop offset="0" stop-color="#0d47a1"/>
      <stop offset="1" stop-color="#1e88e5"/>
    </linearGradient>
    <linearGradient id="linear-gradient-8" x1="288.32" y1="281.57" x2="288.32" y2="86.15" xlink:href="#linear-gradient-7"/>
    <linearGradient id="linear-gradient-9" x1="288.32" y1="249.24" x2="288.32" y2="100.1" gradientUnits="userSpaceOnUse">
      <stop offset="0" stop-color="#ea80fc"/>
      <stop offset="1" stop-color="#ab47bc"/>
    </linearGradient>
    <linearGradient id="linear-gradient-10" x1="261.68" y1="79.44" x2="529.51" y2="79.44" gradientUnits="userSpaceOnUse">
      <stop offset="0" stop-color="#ab47bc"/>
      <stop offset="1" stop-color="#ea80fc"/>
    </linearGradient>
    <linearGradient id="linear-gradient-11" x1="395.6" y1="215.57" x2="395.6" y2="91.42" gradientUnits="userSpaceOnUse">
      <stop offset="0" stop-color="#bbdefb"/>
      <stop offset="1" stop-color="#e3f2fd"/>
    </linearGradient>
    <clipPath id="clippath">
      <path class="cls-15" d="m261.68,91.42v114.17c0,5.52,4.47,9.99,9.99,9.99h247.85c5.52,0,9.99-4.47,9.99-9.99v-114.17h-267.83Z"/>
    </clipPath>
    <linearGradient id="linear-gradient-12" x1="303.61" y1="-361.6" x2="303.61" y2="-422.25" gradientTransform="translate(165.75 -289.8) scale(1 -1)" xlink:href="#linear-gradient-7"/>
    <linearGradient id="linear-gradient-13" x1="303.61" y1="-366.58" x2="303.61" y2="-387.4" gradientTransform="translate(165.75 -289.8) scale(1 -1)" gradientUnits="userSpaceOnUse">
      <stop offset="0" stop-color="#fff"/>
      <stop offset="1" stop-color="#bbdefb"/>
    </linearGradient>
    <linearGradient id="linear-gradient-14" x1="427.32" y1="287.68" x2="427.32" y2="274.85" gradientTransform="translate(42.04 -142.4)" gradientUnits="userSpaceOnUse">
      <stop offset="0" stop-color="#64b5f6"/>
      <stop offset="1" stop-color="#1e88e5"/>
    </linearGradient>
    <linearGradient id="linear-gradient-15" x1="427.32" y1="274.85" x2="427.32" y2="266.02" gradientTransform="translate(42.04 -142.4)" gradientUnits="userSpaceOnUse">
      <stop offset="0" stop-color="#0d47a1"/>
      <stop offset="1" stop-color="#1565c0"/>
    </linearGradient>
    <linearGradient id="linear-gradient-16" x1="427.32" y1="266.02" x2="427.32" y2="245.56" gradientTransform="translate(42.04 -142.4)" gradientUnits="userSpaceOnUse">
      <stop offset="0" stop-color="#1e88e5"/>
      <stop offset="1" stop-color="#64b5f6"/>
    </linearGradient>
    <linearGradient id="linear-gradient-17" x1="360.81" y1="-16.87" x2="423.36" y2="45.68" xlink:href="#linear-gradient-5"/>
    <linearGradient id="linear-gradient-18" x1="359.59" y1="14.84" x2="437.82" y2="14.84" gradientUnits="userSpaceOnUse">
      <stop offset="0" stop-color="#bbdefb"/>
      <stop offset="1" stop-color="#fff"/>
    </linearGradient>
    <linearGradient id="linear-gradient-19" x1="376.41" y1="237.01" x2="396.35" y2="237.01" gradientTransform="translate(280.77 -203.79) rotate(45)" xlink:href="#linear-gradient-7"/>
    <linearGradient id="linear-gradient-20" x1="334.23" y1="184.86" x2="381.36" y2="231.99" gradientTransform="matrix(1,0,0,1,0,0)" xlink:href="#linear-gradient-13"/>
    <linearGradient id="linear-gradient-21" x1="338.54" y1="237.26" x2="386.51" y2="237.26" gradientTransform="translate(-66.31 297) rotate(-45)" gradientUnits="userSpaceOnUse">
      <stop offset="0" stop-color="#80d8ff"/>
      <stop offset="1" stop-color="#29b6f6"/>
    </linearGradient>
    <linearGradient id="linear-gradient-22" x1="277.95" y1="294.75" x2="311.02" y2="294.75" gradientTransform="translate(102.45 542.32) rotate(-90)" gradientUnits="userSpaceOnUse">
      <stop offset="0" stop-color="#1e88e5"/>
      <stop offset="1" stop-color="#90caf9"/>
    </linearGradient>
    <linearGradient id="linear-gradient-23" x1="113.19" y1="340.32" x2="113.19" y2="286.98" xlink:href="#linear-gradient-7"/>
    <linearGradient id="linear-gradient-24" x1="113.19" y1="341.6" x2="113.19" y2="313.65" xlink:href="#linear-gradient-7"/>
    <linearGradient id="linear-gradient-25" x1="-173.41" y1="300.97" x2="-173.41" y2="233.99" gradientTransform="translate(-60.04) rotate(-180) scale(1 -1)" xlink:href="#linear-gradient-7"/>
    <linearGradient id="linear-gradient-26" x1="-84.66" y1="331.19" x2="-84.66" y2="248.52" gradientTransform="translate(-176.64 92) rotate(133.57) scale(1 -1)" xlink:href="#linear-gradient-7"/>
    <linearGradient id="linear-gradient-27" x1="105.24" y1="275.84" x2="121.5" y2="292.11" gradientTransform="matrix(1,0,0,1,0,0)" xlink:href="#linear-gradient-13"/>
    <linearGradient id="linear-gradient-28" x1="-168.41" y1="245.98" x2="-178.41" y2="255.99" gradientTransform="translate(-60.04) rotate(-180) scale(1 -1)" xlink:href="#linear-gradient-13"/>
    <linearGradient id="linear-gradient-29" x1="-125.22" y1="148.66" x2="-125.22" y2="12.22" gradientTransform="translate(-27.51 131.18) rotate(-132.28)" xlink:href="#linear-gradient-16"/>
    <linearGradient id="linear-gradient-30" x1="-119.26" y1="20.83" x2="-131.24" y2="21.39" gradientTransform="translate(-27.51 131.18) rotate(-132.28)" xlink:href="#linear-gradient-13"/>
    <linearGradient id="linear-gradient-31" x1="49.06" y1="-301.81" x2="49.06" y2="-362.46" gradientTransform="translate(-100.4 -57.39) rotate(-45) scale(1 -1)" xlink:href="#linear-gradient-7"/>
    <linearGradient id="linear-gradient-32" x1="150.46" y1="124.07" x2="166.72" y2="140.34" gradientTransform="matrix(1,0,0,1,0,0)" xlink:href="#linear-gradient-13"/>
    <linearGradient id="linear-gradient-33" x1="172.78" y1="228.05" x2="172.78" y2="215.21" gradientTransform="translate(22.35 -52.88)" xlink:href="#linear-gradient-14"/>
    <linearGradient id="linear-gradient-34" x1="172.78" y1="215.21" x2="172.78" y2="206.38" gradientTransform="translate(-83.76 134.2) rotate(-45)" xlink:href="#linear-gradient-15"/>
    <linearGradient id="linear-gradient-35" x1="172.78" y1="206.38" x2="172.78" y2="185.92" gradientTransform="translate(-83.76 134.2) rotate(-45)" xlink:href="#linear-gradient-16"/>
    <clipPath id="clippath-1">
      <rect class="cls-15" x="61.81" y="313.65" width="102.75" height="27.95"/>
    </clipPath>
    <linearGradient id="linear-gradient-36" x1="14.26" y1="345.01" x2="14.26" y2="311.13" gradientTransform="translate(264.14 85.29) rotate(45)" xlink:href="#linear-gradient-18"/>
    <linearGradient id="linear-gradient-37" x1="26.8" y1="332.47" x2="26.8" y2="298.59" gradientTransform="translate(264.14 85.29) rotate(45)" xlink:href="#linear-gradient-18"/>
    <linearGradient id="linear-gradient-38" x1="39.34" y1="319.93" x2="39.34" y2="286.05" gradientTransform="translate(264.14 85.29) rotate(45)" xlink:href="#linear-gradient-18"/>
    <linearGradient id="linear-gradient-39" x1="51.88" y1="307.39" x2="51.88" y2="273.51" gradientTransform="translate(264.14 85.29) rotate(45)" xlink:href="#linear-gradient-18"/>
    <linearGradient id="linear-gradient-40" x1="64.42" y1="294.85" x2="64.42" y2="260.97" gradientTransform="translate(264.14 85.29) rotate(45)" xlink:href="#linear-gradient-18"/>
    <linearGradient id="linear-gradient-41" x1="76.96" y1="282.31" x2="76.96" y2="248.43" gradientTransform="translate(264.14 85.29) rotate(45)" xlink:href="#linear-gradient-18"/>
    <linearGradient id="linear-gradient-42" x1="89.5" y1="269.77" x2="89.5" y2="235.89" gradientTransform="translate(264.14 85.29) rotate(45)" xlink:href="#linear-gradient-18"/>
    <linearGradient id="linear-gradient-43" x1="102.04" y1="257.23" x2="102.04" y2="223.34" gradientTransform="translate(264.14 85.29) rotate(45)" xlink:href="#linear-gradient-18"/>
    <linearGradient id="linear-gradient-44" x1="114.58" y1="244.69" x2="114.58" y2="210.8" gradientTransform="translate(264.14 85.29) rotate(45)" xlink:href="#linear-gradient-18"/>
  </defs>
  <g class="cls-56">
    <g id="Layer_2" data-name="Layer 2">
      <g id="OBJECTS">
        <g>
          <g class="cls-55">
            <circle class="cls-7" cx="24.5" cy="157.17" r="24.5"/>
            <circle class="cls-33" cx="495.47" cy="14.65" r="12"/>
          </g>
          <g>
            <g>
              <g>
                <path class="cls-36" d="m341.28,38.22c0-5.52-4.47-9.99-9.99-9.99H83.44c-5.52,0-9.99,4.47-9.99,9.99v13.97h267.83v-13.97Z"/>
                <path class="cls-51" d="m73.45,52.2v114.17c0,5.52,4.47,9.99,9.99,9.99h247.85c5.52,0,9.99-4.47,9.99-9.99V52.2H73.45Z"/>
              </g>
              <path class="cls-9" d="m129.59,35.52l5.41,5.41,4.85,4.85,16.2,16.2c.65.65,1.29,1.29,1.94,1.94l5.43,5.43c.71.71,1.43,1.43,2.14,2.14l9.19,9.19c3.43,3.43,6.89,6.89,10.39,10.39l5.16,5.16,2.89,2.89,9.04,9.04c1.07,1.07,2.14,2.14,3.21,3.21l21.09,21.09c1.28,1.28,2.56,2.56,3.84,3.84l36.99,36.99c1.02,1.02,2.04,2.04,3.05,3.05h60.86c5.52,0,9.99-4.47,9.99-9.99V38.22c0-5.52-4.47-9.99-9.99-9.99H122.31l2.85,2.85c1.46,1.46,2.93,2.93,4.43,4.43Z"/>
              <g>
                <circle class="cls-28" cx="85.93" cy="38.65" r="3.77"/>
                <circle class="cls-28" cx="103.09" cy="38.65" r="3.77"/>
                <circle class="cls-28" cx="120.26" cy="38.65" r="3.77"/>
              </g>
            </g>
            <g>
              <rect class="cls-14" x="256.44" y="260.01" width="63.75" height="48.51"/>
              <rect class="cls-52" x="256.44" y="260.01" width="63.75" height="27.84"/>
              <path class="cls-34" d="m338.49,322.6h-100.35l2.24-6.74c2.25-6.77,8.57-11.33,15.7-11.33h64.46c7.13,0,13.46,4.57,15.7,11.33l2.24,6.74Z"/>
              <rect class="cls-41" x="138.81" y="86.15" width="299.02" height="195.42" rx="14.23" ry="14.23"/>
              <rect class="cls-38" x="146.89" y="100.1" width="282.86" height="149.14"/>
              <path class="cls-37" d="m294.6,265.4c0,3.47-2.81,6.29-6.29,6.29s-6.29-2.81-6.29-6.29,2.81-6.29,6.29-6.29,6.29,2.81,6.29,6.29Z"/>
              <path class="cls-22" d="m423.59,281.57c7.86,0,14.23-6.37,14.23-14.23V100.38c0-7.86-6.37-14.23-14.23-14.23h-243.1l195.42,195.42h47.68Z"/>
            </g>
            <path class="cls-4" d="m510.36,76.62h-247.85c-5.52,0-9.99,4.47-9.99,9.99v126.02c0,6.69,5.42,12.11,12.11,12.11h245.73c2.41,0,4.63-.86,6.35-2.28.25-.2.48-.42.71-.64.45-.45.86-.95,1.22-1.48.42-.63.77-1.31,1.04-2.03.16-.42.29-.85.4-1.29.17-.73.27-1.48.27-2.26h0V86.61c0-5.52-4.47-9.99-9.99-9.99Z"/>
            <g>
              <g>
                <path class="cls-49" d="m529.51,77.44c0-5.52-4.47-9.99-9.99-9.99h-247.85c-5.52,0-9.99,4.47-9.99,9.99v13.97h267.83v-13.97Z"/>
                <path class="cls-13" d="m261.68,91.42v114.17c0,5.52,4.47,9.99,9.99,9.99h247.85c5.52,0,9.99-4.47,9.99-9.99v-114.17h-267.83Z"/>
              </g>
              <path class="cls-25" d="m317.82,74.73l5.41,5.41c1.6,1.6,3.22,3.22,4.85,4.85l16.2,16.2c.65.65,1.29,1.29,1.94,1.94l5.43,5.43c.71.71,1.43,1.43,2.14,2.14l9.19,9.19c3.43,3.43,6.89,6.89,10.39,10.39l5.16,5.16c.96.96,1.92,1.92,2.89,2.89l9.04,9.04c1.07,1.07,2.14,2.14,3.21,3.21l21.09,21.09c1.28,1.28,2.56,2.56,3.84,3.84l36.99,36.99,3.05,3.05h60.86c5.52,0,9.99-4.47,9.99-9.99V77.44c0-5.52-4.47-9.99-9.99-9.99h-208.98l2.85,2.85c1.46,1.46,2.93,2.93,4.43,4.43Z"/>
              <g>
                <circle class="cls-28" cx="274.17" cy="77.87" r="3.77"/>
                <circle class="cls-28" cx="291.33" cy="77.87" r="3.77"/>
                <circle class="cls-28" cx="308.5" cy="77.87" r="3.77"/>
              </g>
              <g class="cls-59">
                <g>
                  <g>
                    <rect class="cls-2" x="453.97" y="71.8" width="30.78" height="60.65" rx="15.39" ry="15.39"/>
                    <circle class="cls-20" cx="469.36" cy="87.19" r="10.41"/>
                  </g>
                  <g>
                    <g>
                      <polygon class="cls-28" points="449.58 170.28 449.58 145.28 436.91 145.28 436.91 170.28 456.91 187.45 456.91 198.94 462.24 198.94 462.24 192.03 462.24 181.28 449.58 170.28"/>
                      <polygon class="cls-28" points="489.14 170.28 489.14 145.28 501.81 145.28 501.81 170.28 481.81 187.45 481.81 198.94 476.48 198.94 476.48 192.03 476.48 181.28 489.14 170.28"/>
                    </g>
                    <rect class="cls-32" x="432.91" y="132.44" width="72.9" height="12.83"/>
                    <polygon class="cls-11" points="491.81 123.61 446.91 123.61 432.91 132.44 505.81 132.44 491.81 123.61"/>
                    <path class="cls-26" d="m446.91,123.61h44.9v-11.28c0-5.07-4.11-9.18-9.18-9.18h-26.54c-5.07,0-9.18,4.11-9.18,9.18v11.28Z"/>
                  </g>
                </g>
              </g>
            </g>
            <g>
              <path class="cls-3" d="m359.59,0h78.23v38.52c0,4.71-3.83,8.54-8.54,8.54h-61.15c-4.71,0-8.54-3.83-8.54-8.54V0h0Z"/>
              <path class="cls-8" d="m392.21,32.61L359.59,0h78.23l-32.62,32.61c-3.59,3.59-9.41,3.59-13,0Z"/>
              <path class="cls-44" d="m394.6,28.24L359.59,0h78.23l-35.01,28.24c-2.4,1.93-5.81,1.93-8.21,0Z"/>
            </g>
            <g>
              <rect class="cls-53" x="277.09" y="118.33" width="39.77" height="39.77"/>
              <polyline class="cls-57" points="286.15 135.15 295.5 144.49 332.35 107.63"/>
            </g>
            <g>
              <rect class="cls-5" x="381.68" y="227.62" width="9.4" height="18.8" transform="translate(-54.42 342.64) rotate(-45)"/>
              <circle class="cls-12" cx="357.8" cy="208.43" r="23.99"/>
              <path class="cls-31" d="m334.23,184.86c-13.01,13.01-13.01,34.11,0,47.13,13.01,13.01,34.12,13.01,47.13,0,13.01-13.01,13.01-34.11,0-47.13-13.01-13.01-34.12-13.01-47.13,0Zm40.53,6.6c9.37,9.37,9.37,24.55,0,33.92-9.37,9.37-24.55,9.37-33.92,0-9.37-9.37-9.37-24.55,0-33.92,9.37-9.37,24.55-9.37,33.92,0Z"/>
              <path class="cls-50" d="m344.91,224.03c-8.62-8.62-8.62-22.59,0-31.2,8.39-8.39,21.85-8.61,30.51-.66-.22-.23-.43-.47-.66-.7-9.37-9.37-24.55-9.37-33.92,0-9.37,9.37-9.37,24.55,0,33.92,9.37,9.37,24.55,9.37,33.92,0,.23-.23.45-.46.66-.7-8.66,7.94-22.12,7.73-30.51-.66Z"/>
              <path class="cls-27" d="m411.49,262.12h0c-3,3-7.87,3-10.88,0l-19.94-19.94,10.88-10.88,19.94,19.94c3,3,3,7.87,0,10.88Z"/>
            </g>
            <g>
              <g>
                <rect class="cls-28" x="336.97" y="113.31" width="6.66" height="44.78"/>
                <rect class="cls-28" x="346.96" y="131.08" width="6.66" height="27.02"/>
                <rect class="cls-28" x="356.95" y="123.16" width="6.66" height="34.94"/>
              </g>
              <g>
                <rect class="cls-28" x="375.71" y="113.31" width="6.66" height="44.78"/>
                <rect class="cls-28" x="385.7" y="131.08" width="6.66" height="27.02"/>
                <rect class="cls-28" x="395.69" y="123.16" width="6.66" height="34.94"/>
              </g>
            </g>
            <g>
              <path class="cls-57" d="m158.59,132.21l-22.58-22.58c-4.68-4.68-12.27-4.68-16.94,0h0c-4.68,4.68-4.68,12.27,0,16.95l.09.09c3.82,3.82,3.82,10.01,0,13.83l-14.72,14.72c-3.82,3.82-3.82,10.01,0,13.83l6.21,6.21"/>
              <path class="cls-57" d="m96.37,267.48h-55.95c-7.73,0-14,6.27-14,14h0c0,7.73,6.27,14,14,14h21.77c4.51,0,8.17,3.66,8.17,8.17v16.18c0,4.51,3.66,8.17,8.17,8.17h0"/>
              <path class="cls-21" d="m101.27,286.98h23.83c7.04,0,12.75,5.71,12.75,12.75v40.58h-49.33v-40.58c0-7.04,5.71-12.75,12.75-12.75Z"/>
              <rect class="cls-42" x="61.81" y="313.65" width="102.75" height="27.95"/>
              <path class="cls-23" d="m113.37,300.97h0c9.39,0,17-7.61,17-17v-32.99c0-9.39-7.61-17-17-17h0c-9.39,0-17,7.61-17,17v32.99c0,9.39,7.61,17,17,17Z"/>
              <path class="cls-43" d="m121.7,258.91h0c4.2-4.42,4.03-11.41-.39-15.62l-43.9-41.75c-4.42-4.2-11.41-4.03-15.62.39h0c-4.2,4.42-4.03,11.41.39,15.62l43.9,41.75c4.42,4.2,11.41,4.03,15.62-.39Z"/>
              <path class="cls-39" d="m113.37,272.47c-6.35,0-11.5,5.15-11.5,11.5s5.15,11.5,11.5,11.5,11.5-5.15,11.5-11.5-5.15-11.5-11.5-11.5Zm0,17c-3.04,0-5.5-2.46-5.5-5.5s2.46-5.5,5.5-5.5,5.5,2.46,5.5,5.5-2.46,5.5-5.5,5.5Z"/>
              <circle class="cls-48" cx="113.37" cy="250.99" r="7.08"/>
              <g>
                <path class="cls-47" d="m166.72,123.81h0c3.54,3.89,3.25,9.92-.64,13.45l-86.85,78.98c-3.89,3.54-9.92,3.25-13.45-.64h0c-3.54-3.89-3.25-9.92.64-13.45l86.85-78.98c3.89-3.54,9.92-3.25,13.45.64Z"/>
                <path class="cls-45" d="m68.34,205.21c2.45-2.23,6.25-2.05,8.48.4,2.23,2.45,2.05,6.25-.4,8.48-2.45,2.23-6.25,2.05-8.48-.4-2.23-2.45-2.05-6.25.4-8.48Z"/>
              </g>
              <g>
                <g>
                  <path class="cls-16" d="m147.7,121.32h0c-6.01,6.01-6.01,15.76,0,21.77l21.12,21.12c6.01,6.01,15.76,6.01,21.77,0h0c6.01-6.01,6.01-15.76,0-21.77l-21.12-21.12c-6.01-6.01-15.76-6.01-21.77,0Z"/>
                  <path class="cls-30" d="m158.59,120.71c-6.35,0-11.5,5.15-11.5,11.5s5.15,11.5,11.5,11.5,11.5-5.15,11.5-11.5-5.15-11.5-11.5-11.5Zm0,17c-3.04,0-5.5-2.46-5.5-5.5s2.46-5.5,5.5-5.5,5.5,2.46,5.5,5.5-2.46,5.5-5.5,5.5Z"/>
                </g>
                <g>
                  <g>
                    <polygon class="cls-28" points="203.35 204.95 185.67 187.27 176.72 196.23 194.4 213.91 220.68 211.9 228.81 220.03 232.58 216.26 227.69 211.37 220.09 203.77 203.35 204.95"/>
                    <polygon class="cls-28" points="231.33 176.97 213.65 159.29 222.61 150.34 240.29 168.01 238.29 194.3 246.41 202.43 242.64 206.2 237.75 201.31 230.15 193.71 231.33 176.97"/>
                  </g>
                  <rect class="cls-6" x="158.68" y="162.33" width="72.9" height="12.83" transform="translate(-62.17 187.4) rotate(-45)"/>
                  <polygon class="cls-17" points="200.22 142.09 168.47 173.84 164.81 189.98 216.36 138.43 200.22 142.09"/>
                  <path class="cls-29" d="m168.47,173.84l31.75-31.75-7.98-7.98c-3.58-3.58-9.4-3.58-12.98,0l-18.77,18.77c-3.58,3.58-3.58,9.4,0,12.98l7.98,7.98Z"/>
                </g>
              </g>
              <g class="cls-58">
                <g>
                  <polygon class="cls-40" points="44.86 319.58 29.3 335.13 39.64 335.13 55.19 319.58 44.86 319.58"/>
                  <polygon class="cls-54" points="62.59 319.58 47.04 335.13 57.37 335.13 72.93 319.58 62.59 319.58"/>
                  <polygon class="cls-1" points="80.33 319.58 64.77 335.13 75.11 335.13 90.66 319.58 80.33 319.58"/>
                  <polygon class="cls-35" points="98.06 319.58 82.51 335.13 92.84 335.13 108.4 319.58 98.06 319.58"/>
                  <polygon class="cls-19" points="115.8 319.58 100.24 335.13 110.58 335.13 126.13 319.58 115.8 319.58"/>
                  <polygon class="cls-18" points="133.53 319.58 117.98 335.13 128.31 335.13 143.86 319.58 133.53 319.58"/>
                  <polygon class="cls-10" points="151.26 319.58 135.71 335.13 146.05 335.13 161.6 319.58 151.26 319.58"/>
                  <polygon class="cls-24" points="169 319.58 153.45 335.13 163.78 335.13 179.33 319.58 169 319.58"/>
                  <polygon class="cls-46" points="186.73 319.58 171.18 335.13 181.52 335.13 197.07 319.58 186.73 319.58"/>
                </g>
              </g>
            </g>
          </g>
        </g>
      </g>
    </g>
  </g>
</svg>