<?xml version="1.0" encoding="UTF-8"?>
<svg xmlns="http://www.w3.org/2000/svg" xmlns:xlink="http://www.w3.org/1999/xlink" viewBox="0 0 2850.51 2800">
  <defs>
    <style>
      .cls-1 {
        fill: url(#linear-gradient);
      }

      .cls-1, .cls-2, .cls-3, .cls-4, .cls-5, .cls-6, .cls-7, .cls-8, .cls-9, .cls-10, .cls-11, .cls-12, .cls-13, .cls-14, .cls-15, .cls-16, .cls-17, .cls-18 {
        stroke-width: 0px;
      }

      .cls-2 {
        fill: #dd0ee2;
      }

      .cls-3 {
        opacity: .48;
      }

      .cls-3, .cls-19, .cls-20, .cls-18 {
        mix-blend-mode: soft-light;
      }

      .cls-3, .cls-9, .cls-18 {
        fill: #fff;
      }

      .cls-4 {
        fill: #f4f7fa;
      }

      .cls-21 {
        isolation: isolate;
      }

      .cls-5 {
        fill: #035ba9;
      }

      .cls-6 {
        fill: url(#linear-gradient-11);
      }

      .cls-7 {
        fill: url(#linear-gradient-5);
      }

      .cls-8 {
        fill: url(#linear-gradient-6);
      }

      .cls-8, .cls-22 {
        mix-blend-mode: multiply;
        opacity: .3;
      }

      .cls-20 {
        opacity: .5;
      }

      .cls-23 {
        opacity: .15;
      }

      .cls-10 {
        fill: url(#linear-gradient-2);
      }

      .cls-11 {
        fill: url(#linear-gradient-7);
      }

      .cls-12 {
        fill: url(#linear-gradient-3);
      }

      .cls-13 {
        fill: url(#linear-gradient-9);
      }

      .cls-14 {
        fill: #4661ac;
      }

      .cls-15 {
        fill: url(#linear-gradient-8);
      }

      .cls-16 {
        fill: url(#linear-gradient-10);
      }

      .cls-17 {
        fill: url(#linear-gradient-4);
      }

      .cls-18 {
        opacity: .74;
      }
    </style>
    <linearGradient id="linear-gradient" x1="1225.61" y1="2494.1" x2="1028.05" y2="2577.07" gradientUnits="userSpaceOnUse">
      <stop offset="0" stop-color="#40447e"/>
      <stop offset="1" stop-color="#3c3b6b"/>
    </linearGradient>
    <linearGradient id="linear-gradient-2" x1="905.3" y1="1666.11" x2="703.48" y2="1750.88" xlink:href="#linear-gradient"/>
    <linearGradient id="linear-gradient-3" x1="36.74" y1="1712.24" x2="1904.54" y2="1712.24" xlink:href="#linear-gradient"/>
    <linearGradient id="linear-gradient-4" x1="216.24" y1="1759.74" x2="1796.34" y2="1759.74" gradientTransform="translate(-287.73 60.23) rotate(-7.02)" gradientUnits="userSpaceOnUse">
      <stop offset="0" stop-color="#ffc444"/>
      <stop offset="1" stop-color="#f36f56"/>
    </linearGradient>
    <linearGradient id="linear-gradient-5" x1="36.74" y1="2406.99" x2="2850.51" y2="2406.99" xlink:href="#linear-gradient"/>
    <linearGradient id="linear-gradient-6" x1="312.68" y1="2385.2" x2="2374.31" y2="2385.2" xlink:href="#linear-gradient"/>
    <linearGradient id="linear-gradient-7" x1="1769.04" y1="1237.62" x2="2811.87" y2="1237.62" gradientUnits="userSpaceOnUse">
      <stop offset="0" stop-color="#e38ddd"/>
      <stop offset="1" stop-color="#9571f6"/>
    </linearGradient>
    <linearGradient id="linear-gradient-8" x1="2296.85" y1="502.98" x2="2193.23" y2="1439.54" xlink:href="#linear-gradient"/>
    <linearGradient id="linear-gradient-9" x1="1858.67" y1="1243.81" x2="2730.69" y2="1243.81" xlink:href="#linear-gradient-7"/>
    <linearGradient id="linear-gradient-10" x1="975.3" y1="381.59" x2="-26.57" y2="2385.33" gradientTransform="translate(-287.73 60.23) rotate(-7.02)" gradientUnits="userSpaceOnUse">
      <stop offset="0" stop-color="#fb6fbb"/>
      <stop offset="1" stop-color="#ff9085"/>
    </linearGradient>
    <linearGradient id="linear-gradient-11" x1="810.58" y1="1847.33" x2="1905.95" y2="1847.33" xlink:href="#linear-gradient-7"/>
  </defs>
  <g class="cls-21">
    <g id="Layer_2" data-name="Layer 2">
      <g id="Illustration">
        <g id="Cross-platform_software" data-name="Cross-platform software">
          <circle class="cls-4" cx="1400" cy="1400" r="1400"/>
          <g>
            <path class="cls-1" d="m2850.51,2387.23l-2813.77-23.16v68.53c0,18.6,12.27,34.41,28.89,37.23l795.65,134.94c9.44,1.6,19.02,2.03,28.55,1.27l1930.1-153.85c17.23-1.37,30.58-17.24,30.58-36.35v-28.6Z"/>
            <g>
              <path class="cls-10" d="m1829.4,2276.15l-1763.57,125.36c-31.56,2.24-57.22-21.59-57.22-53.25v-1268.13c0-31.65,25.66-57.31,57.22-57.31h1763.57c26,0,47.02,23.2,47.02,51.81v1146.37c0,28.61-21.02,53.3-47.02,55.15Z"/>
              <path class="cls-12" d="m1857.52,2276.15l-1763.57,125.36c-31.56,2.24-57.22-21.59-57.22-53.25v-1268.13c0-31.65,25.66-57.31,57.22-57.31h1763.57c26,0,47.02,23.2,47.02,51.81v1146.37c0,28.61-21.02,53.3-47.02,55.15Z"/>
              <path class="cls-2" d="m1841.38,1138.89v1011.24c0,23.53-17.34,43.75-38.81,45.2l-328.6,21.77-1189.21,78.85-124.77,8.28c-25.66,1.68-46.54-17.89-46.54-43.72v-1110.26c0-25.83,20.88-46.88,46.54-46.98l622.48-2.58,211.01-.89,168.08-.69,147.81-.62,493.21-2.06c21.46-.07,38.81,18.92,38.81,42.45Z"/>
              <g class="cls-22">
                <path class="cls-17" d="m1677.36,1802.48c29.23-4.95,50.79-32.76,48.18-62.16l-8.89-100.21c-2.61-29.4-28.4-49.32-57.63-44.44l-56.39,9.34c-12.16-45.57-28.99-88.64-50-128.86l48.01-37.64c24.04-18.85,29.85-52.85,12.95-75.97l-57.63-78.82c-16.93-23.15-50.21-26.68-74.32-7.83l-50.55,39.46c-32.56-30.81-68.52-57.9-107.19-80.91l26.75-59.89c12.47-27.92.82-59.24-26.03-69.96l-15.25-6.08-147.81.62-.04.03-27.51,61.37c-43.89-9.24-89.53-14.05-136.38-13.91l-4.16-46.81-211.01.89c-.69,4.33-.86,8.76-.45,13.22l5.84,65.87c-45.88,14.56-89.84,33.62-131.4,56.53l-37.98-51.41c-17.34-23.46-51.45-27.06-76.17-8.04l-84.52,64.98c-24.83,19.06-30.88,53.61-13.46,77.1l37.3,50.31c-34.41,35.06-65.39,73.39-92.45,114.26l-57.66-22.46c-27.58-10.75-60.38,3.54-73.25,31.94l-43.93,96.88c-12.91,28.47-.96,60.21,26.72,70.89l55.09,21.33c-13.91,46.67-23.15,94.89-27.2,143.97l-58.52,9.69c-30.43,5.05-52.96,33.48-50.28,63.5l9.07,102.38c2.68,30.02,29.5,50.18,59.93,45.06l55.26-9.31c11.3,47.77,27.65,93,48.53,135.14l-43.48,33.97c-24.97,19.47-31.05,54.23-13.53,77.62l8.86,11.85,1189.21-78.85c15.35-20.23,29.67-41.21,42.9-62.85l44.2,17.1c26.72,10.3,58.38-4.05,70.78-32.11l42.17-95.51c12.36-27.99.79-59.1-25.86-69.48l-46.47-18.13c12.4-47.02,20.02-95.47,22.43-144.69l53.23-8.96Zm-689.41,432.18c-225.29,38.98-425.14-111.79-445.13-336.98-19.99-225.16,147.68-437.43,373.18-473.94,224.16-36.27,420.91,115.05,440.66,337.77,19.75,222.68-144.76,434.45-368.71,473.15Z"/>
              </g>
              <path class="cls-9" d="m1038.03,1057.51c0,11.78-9.08,21.36-20.29,21.4-11.22.03-20.33-9.51-20.33-21.32s9.11-21.39,20.33-21.4c11.21,0,20.29,9.54,20.29,21.32Z"/>
              <path class="cls-3" d="m1954.49,1405.3c-135.96-73.58-242.86,19.65-346.02-72.34-62.55-55.77-31.84-97.36-108.8-180.7-85.24-92.31-140.74-61.28-226.41-144.36-108.32-105.05-54.14-186.77-147.45-262.19-113.19-91.5-235.26-6.81-343.01-94.56-46.47-37.85-71.97-92.87-85.29-151.38h-105.43c-18.47,0-33.48,15.06-33.48,33.64v1314.53c0,18.58,15,32.57,33.48,31.25l1797.36-128.33c8.82-.63,16.64-5.81,21.66-13.32-131.57-4.82-212.4-49.19-264.07-95.05-101.08-89.72-83.55-178.2-192.55-237.19Z"/>
            </g>
            <path class="cls-7" d="m1927.82,2270.46L36.74,2402.42l824.54,139.84c9.44,1.6,19.02,2.03,28.55,1.27l1960.68-156.29-892.61-115.87c-9.98-1.3-20.05-1.6-30.08-.9Z"/>
            <polygon class="cls-8" points="312.68 2405.73 1887.05 2294.24 2374.31 2356.98 813.5 2476.17 312.68 2405.73"/>
          </g>
          <g>
            <g>
              <path class="cls-5" d="m2302.69,219.56l-1396.22-47.53c-46.72-1.59-84.75,35.21-84.75,82.21v1018.99c0,47,38.03,84.22,84.75,83.14l1396.22-32.11c40.47-.93,73.16-36.94,73.16-80.43V300.8c0-43.49-32.68-79.86-73.16-81.24Z"/>
              <path class="cls-18" d="m129.24,2184.74v-975.86c0-43.49,35.15-77.6,78.35-76.18l1357.4,44.44c37.58,1.23,67.94,34.94,67.94,75.29v905.38c0,40.35-30.36,73.72-67.94,74.54l-1357.4,29.45c-43.2.94-78.35-33.56-78.35-77.05Z"/>
              <path class="cls-9" d="m2302.69,219.56l-1396.22-47.53c-46.72-1.59-84.75,35.21-84.75,82.21v61.04l1554.12,42.01v-56.49c0-43.49-32.68-79.86-73.16-81.24Z"/>
              <path class="cls-9" d="m972.42,250.58c0,15.27-12.3,27.29-27.48,26.85-15.21-.44-27.56-13.21-27.56-28.52s12.35-27.33,27.56-26.85c15.19.48,27.48,13.25,27.48,28.52Z"/>
              <path class="cls-9" d="m1068.38,253.49c0,15.2-12.18,27.17-27.23,26.73-15.07-.44-27.3-13.15-27.3-28.39s12.23-27.21,27.3-26.73c15.05.48,27.23,13.18,27.23,28.38Z"/>
              <path class="cls-9" d="m1163.45,256.37c0,15.13-12.07,27.04-26.98,26.61-14.93-.43-27.05-13.08-27.05-28.25s12.12-27.08,27.05-26.61c14.91.47,26.98,13.12,26.98,28.25Z"/>
              <polygon class="cls-14" points="2290.46 970.29 920.51 976.76 920.51 573.84 2290.46 593.97 2290.46 970.29"/>
              <polygon class="cls-9" points="2290.46 1065.32 920.51 1078.5 920.51 1035.24 2290.46 1024.91 2290.46 1065.32"/>
              <polygon class="cls-9" points="2290.46 1164.45 920.51 1184.64 920.51 1141.37 2290.46 1124.04 2290.46 1164.45"/>
              <g>
                <polygon class="cls-9" points="1657.29 486.54 920.51 472.09 920.51 515.36 1657.29 528.27 1657.29 486.54"/>
                <polygon class="cls-9" points="2212.28 497.42 2212.28 537.99 2290.46 539.36 2290.46 498.95 2212.28 497.42"/>
              </g>
              <g class="cls-20">
                <path class="cls-9" d="m1051.01,1691.2c-163.11-237.34-445.25-162.44-623.61-424.45-32.16-47.24-53.97-95.29-68.94-139.59l-160.26-5.46c-46.72-1.59-84.75,35.21-84.75,82.21v1018.99c0,47,38.03,84.22,84.75,83.14l1061.89-24.42c-31.78-45.68-61.12-96.73-85.94-153.76-95.19-218.67-24.69-293.42-123.14-436.67Z"/>
              </g>
              <g class="cls-19">
                <polygon class="cls-9" points="1111.77 674.95 944.9 673.17 944.9 625.31 1111.77 627.46 1111.77 674.95"/>
                <polygon class="cls-9" points="2003.24 684.44 1218.3 676.08 1218.3 628.83 2003.24 638.93 2003.24 684.44"/>
                <polygon class="cls-9" points="1380.99 757.91 1218.3 756.79 1218.3 709.54 1380.99 711.02 1380.99 757.91"/>
                <polygon class="cls-9" points="2250.64 763.88 1484.86 758.62 1484.86 711.96 2250.64 718.91 2250.64 763.88"/>
                <polygon class="cls-9" points="1380.99 838.01 1218.3 837.51 1218.3 790.26 1380.99 791.12 1380.99 838.01"/>
                <polygon class="cls-9" points="2250.64 840.68 1484.86 838.33 1484.86 791.67 2250.64 795.72 2250.64 840.68"/>
                <polygon class="cls-9" points="1111.77 918.3 944.9 918.42 944.9 870.56 1111.77 870.81 1111.77 918.3"/>
                <polygon class="cls-9" points="2003.24 917.66 1218.3 918.22 1218.3 870.97 2003.24 872.15 2003.24 917.66"/>
              </g>
            </g>
            <g>
              <path class="cls-11" d="m2742.32,461.46l-896.39-9.45c-42.39-.45-76.89,35.47-76.89,80.23v1415.06c0,44.76,34.5,78.67,76.89,75.75l896.39-61.75c38.47-2.65,69.55-39.17,69.55-81.58V538.98c0-42.41-31.07-77.11-69.55-77.52Z"/>
              <path class="cls-18" d="m1793.66,1925.8V552.31c0-41.42,31.89-74.71,71.09-74.35l860.38,7.95c35.72.33,64.58,32.49,64.58,71.84v1304.5c0,39.34-28.86,73.19-64.58,75.6l-860.38,58.15c-39.2,2.65-71.09-28.78-71.09-70.2Z"/>
              <path class="cls-15" d="m2742.32,461.46l-896.39-9.45c-42.39-.45-76.89,35.47-76.89,80.23v58.14l1042.82,3.68v-55.08c0-42.41-31.07-77.11-69.55-77.52Z"/>
              <path class="cls-9" d="m2742.62,526.52c0,14.42-10.97,26.05-24.51,25.97-13.56-.07-24.57-11.85-24.57-26.31s11.01-26.09,24.57-25.97c13.54.11,24.51,11.89,24.51,26.31Z"/>
              <polygon class="cls-13" points="2730.69 1616.71 1858.67 1660.84 1858.67 834.46 2730.69 826.78 2730.69 1616.71"/>
              <polygon class="cls-9" points="2730.69 1709.36 1858.67 1757.77 1858.67 1716.55 2730.69 1669.96 2730.69 1709.36"/>
              <polygon class="cls-9" points="2730.69 1806.01 1858.67 1858.88 1858.67 1817.66 2730.69 1766.61 2730.69 1806.01"/>
              <g>
                <polygon class="cls-9" points="2528.42 734.92 1858.67 737.53 1858.67 778.75 2528.42 774.74 2528.42 734.92"/>
                <polygon class="cls-9" points="2656.39 734.43 2656.39 773.98 2730.69 773.53 2730.69 734.14 2656.39 734.43"/>
              </g>
              <g class="cls-23">
                <path class="cls-9" d="m2506.78,1307.24c-144.13-189.76-324.96-195.19-425.65-398.24-72.9-146.99-62.56-314.36-30.2-454.82l-204.99-2.16c-42.39-.45-76.89,35.47-76.89,80.23v1415.06c0,44.76,34.5,78.67,76.89,75.75l805.94-55.52c24.81-358.36-61.42-550.15-145.09-660.3Z"/>
              </g>
              <g class="cls-19">
                <polygon class="cls-9" points="2008.67 917.13 1916.04 918.37 1916.19 877.17 2008.83 876.21 2008.67 917.13"/>
                <polygon class="cls-9" points="2506.57 910.46 2067.91 916.34 2068.06 875.59 2506.75 871.04 2506.57 910.46"/>
                <polygon class="cls-9" points="2158.22 984.24 2067.64 985.93 2067.79 945.19 2158.38 943.78 2158.22 984.24"/>
                <polygon class="cls-9" points="2645.32 975.21 2216.15 983.17 2216.31 942.88 2645.52 936.21 2645.32 975.21"/>
                <polygon class="cls-9" points="2157.94 1053.35 2067.37 1055.5 2067.53 1014.77 2158.11 1012.9 2157.94 1053.35"/>
                <polygon class="cls-9" points="2645 1041.8 2215.86 1051.97 2216.03 1011.7 2645.19 1002.82 2645 1041.8"/>
                <polygon class="cls-9" points="2007.89 1126.76 1915.28 1129.43 1915.43 1088.26 2008.04 1085.86 2007.89 1126.76"/>
                <polygon class="cls-9" points="2505.63 1112.39 2067.1 1125.05 2067.26 1084.33 2505.81 1073 2505.63 1112.39"/>
                <polygon class="cls-9" points="2157.39 1191.5 2066.83 1194.58 2066.99 1153.88 2157.55 1151.07 2157.39 1191.5"/>
                <polygon class="cls-9" points="2644.34 1174.94 2215.29 1189.53 2215.46 1149.27 2644.53 1135.98 2644.34 1174.94"/>
                <polygon class="cls-9" points="2157.11 1260.55 2066.56 1264.1 2066.72 1223.4 2157.27 1220.13 2157.11 1260.55"/>
                <polygon class="cls-9" points="2644.02 1241.49 2215.01 1258.29 2215.18 1218.04 2644.21 1202.53 2644.02 1241.49"/>
                <polygon class="cls-9" points="2156.83 1329.59 2066.29 1333.6 2066.45 1292.91 2156.99 1289.17 2156.83 1329.59"/>
                <polygon class="cls-9" points="2643.69 1308.02 2214.73 1327.02 2214.89 1286.78 2643.88 1269.07 2643.69 1308.02"/>
                <polygon class="cls-9" points="2304.37 1391.29 2215.84 1395.67 2216.01 1355.45 2304.55 1351.34 2304.37 1391.29"/>
                <polygon class="cls-9" points="2710.26 1371.23 2361 1388.49 2361.17 1348.71 2710.46 1332.49 2710.26 1371.23"/>
                <polygon class="cls-9" points="2006.58 1475.77 1914.02 1480.83 1914.17 1439.71 2006.73 1434.93 2006.58 1475.77"/>
                <polygon class="cls-9" points="2504.06 1448.62 2065.76 1472.54 2065.91 1431.88 2504.24 1409.27 2504.06 1448.62"/>
                <polygon class="cls-9" points="2156 1536.58 2065.49 1541.99 2065.65 1501.34 2156.16 1496.2 2156 1536.58"/>
                <polygon class="cls-9" points="2642.71 1507.51 2213.87 1533.13 2214.04 1492.92 2642.9 1468.6 2642.71 1507.51"/>
                <polygon class="cls-9" points="2155.72 1605.55 2065.22 1611.42 2065.38 1570.78 2155.88 1565.18 2155.72 1605.55"/>
                <polygon class="cls-9" points="2642.38 1573.98 2213.59 1601.8 2213.76 1561.6 2642.57 1535.07 2642.38 1573.98"/>
              </g>
            </g>
          </g>
          <g>
            <path class="cls-16" d="m484.37,1774.67s-451.92-654.89-10.44-1175.33l-113.09-20.3,350.6-103.74-104.89,281.5-45.11-88.3s-331.41,322.57-77.07,1106.17Z"/>
            <path class="cls-6" d="m810.58,2085s694.64,236,1045.13-286.6l46.48,95.2,3.76-337.1-223.29,163.9,89.68,17.78s-202.69,375.16-961.76,346.81Z"/>
            <path class="cls-9" d="m294.39,1793.98l5.57,62.77c1.63,18.42,18.09,30.79,36.75,27.65l33.9-5.72c6.91,29.31,16.96,57.04,29.76,82.9l-26.67,20.82c-15.32,11.95-19.04,33.27-8.31,47.61l36.55,48.81c10.71,14.31,31.78,16.19,47.04,4.22l25.22-19.78c21.04,20.53,44.44,38.51,69.74,53.59l-12.55,28c-7.84,17.5-.55,36.84,16.28,43.19l57.28,21.6c16.78,6.33,36.7-2.71,44.5-20.18l12.01-26.9c29.11,6.09,59.42,8.95,90.5,8.28l2.47,27.81c1.62,18.25,17.78,30.4,36.08,27.14l62.28-11.08c18.24-3.24,31.7-20.62,30.09-38.82l-2.46-27.73c30.02-10.1,58.62-23.31,85.44-39.18l16.13,21.76c10.46,14.12,31.01,15.95,45.89,4.11l50.64-40.31c14.83-11.81,18.41-32.8,7.99-46.9l-16.68-22.58c21.35-22.98,40.37-48.04,56.69-74.72l27.11,10.49c16.38,6.33,35.81-2.48,43.41-19.68l25.86-58.58c7.58-17.17.49-36.24-15.85-42.61l-28.51-11.11c7.6-28.84,12.28-58.55,13.76-88.74l32.65-5.51c17.92-3.02,31.15-20.09,29.55-38.12l-5.45-61.46c-1.6-18.03-17.42-30.24-35.35-27.27l-34.58,5.73c-7.45-27.94-17.79-54.36-30.67-79.01l29.45-23.09c14.75-11.57,18.3-32.42,7.94-46.59l-35.35-48.35c-10.38-14.2-30.78-16.35-45.58-4.81l-31,24.2c-19.98-18.88-42.02-35.51-65.74-49.62l16.41-36.74c7.65-17.12.5-36.32-15.96-42.9l-56.2-22.45c-16.51-6.59-36.14,1.96-43.83,19.11l-16.88,37.66c-26.93-5.68-54.92-8.63-83.65-8.53l-3.57-40.29c-1.61-18.2-17.72-30.63-35.99-27.77l-62.39,9.77c-18.34,2.87-31.9,19.99-30.28,38.24l3.58,40.4c-28.14,8.92-55.1,20.61-80.59,34.66l-23.3-31.54c-10.63-14.39-31.54-16.6-46.72-4.93l-51.83,39.85c-15.23,11.71-18.93,32.89-8.25,47.29l22.88,30.87c-21.1,21.51-40.12,45-56.7,70.07l-35.37-13.79c-16.92-6.59-37.04,2.17-44.93,19.59l-26.94,59.43c-7.91,17.45-.57,36.92,16.39,43.48l33.79,13.07c-8.53,28.63-14.19,58.19-16.67,88.3l-35.9,5.95c-18.66,3.09-32.47,20.53-30.84,38.95Zm234.71-.97c-12.25-138.1,90.57-268.29,228.89-290.67,137.48-22.24,258.14,70.55,270.26,207.14,12.12,136.59-88.79,266.46-226.14,290.21-138.18,23.89-260.76-68.58-273.01-206.68Z"/>
          </g>
        </g>
      </g>
    </g>
  </g>
</svg>