<svg width="743" height="294" viewBox="0 0 743 294" fill="none" xmlns="http://www.w3.org/2000/svg">
<path d="M226.939 257.616L226.891 250.229C227.326 250.226 227.761 250.22 228.195 250.212L228.335 257.599C227.869 257.607 227.405 257.614 226.937 257.616L226.939 257.616ZM224.018 257.52C223.555 257.496 223.094 257.469 222.633 257.44L223.092 250.067C223.529 250.094 223.968 250.12 224.409 250.144L224.018 257.52ZM231.124 257.51L230.802 250.13C231.237 250.111 231.672 250.089 232.104 250.065L232.521 257.442C232.057 257.467 231.591 257.491 231.123 257.512L231.124 257.51ZM235.31 257.247L234.711 249.884C235.145 249.848 235.578 249.811 236.012 249.77L236.703 257.126C236.239 257.17 235.775 257.21 235.31 257.249V257.247ZM219.866 257.242C219.403 257.204 218.942 257.165 218.483 257.123L219.154 249.765C219.589 249.804 220.026 249.842 220.465 249.877L219.866 257.24V257.242ZM215.721 256.844C215.26 256.793 214.799 256.74 214.342 256.684L215.226 249.35C215.66 249.403 216.097 249.453 216.534 249.502L215.721 256.844ZM239.484 256.829L238.607 249.494C239.039 249.442 239.471 249.388 239.903 249.33L240.872 256.653C240.411 256.715 239.949 256.773 239.484 256.827L239.484 256.829ZM211.588 256.326C211.129 256.261 210.67 256.194 210.214 256.124L211.322 248.82C211.754 248.884 212.187 248.947 212.623 249.009L211.59 256.324L211.588 256.326ZM243.64 256.252L242.487 248.954C242.917 248.886 243.348 248.816 243.776 248.743L245.022 256.025C244.563 256.104 244.104 256.179 243.641 256.252L243.64 256.252ZM207.469 255.679C207.009 255.601 206.554 255.519 206.1 255.435L207.436 248.169C207.865 248.248 208.297 248.325 208.729 248.4L207.469 255.679ZM247.773 255.519L246.34 248.272C246.767 248.188 247.194 248.101 247.619 248.011L249.142 255.24C248.686 255.336 248.228 255.43 247.771 255.52L247.773 255.519ZM203.368 254.903C202.912 254.809 202.458 254.713 202.006 254.614L203.576 247.395C204.003 247.487 204.43 247.577 204.86 247.666L203.368 254.901L203.368 254.903ZM251.873 254.63L250.168 247.441C250.591 247.34 251.013 247.238 251.434 247.132L253.232 254.297C252.78 254.41 252.327 254.52 251.871 254.628L251.873 254.63ZM199.291 253.993C198.837 253.884 198.387 253.773 197.936 253.659L199.749 246.497C200.171 246.603 200.594 246.709 201.019 246.811L199.29 253.995L199.291 253.993ZM255.938 253.584L253.959 246.466C254.379 246.35 254.797 246.231 255.216 246.11L257.283 253.203C256.836 253.333 256.387 253.461 255.938 253.585L255.938 253.584ZM195.242 252.947C194.793 252.823 194.348 252.696 193.902 252.568L195.954 245.472C196.374 245.593 196.794 245.712 197.216 245.828L195.242 252.947ZM259.958 252.384L257.71 245.345C258.125 245.212 258.538 245.077 258.951 244.941L261.288 251.949C260.846 252.096 260.402 252.241 259.958 252.382V252.384ZM191.229 251.761C190.785 251.621 190.341 251.48 189.9 251.335L192.203 244.315C192.617 244.45 193.033 244.584 193.45 244.716L191.229 251.763L191.229 251.761ZM263.931 251.033L261.416 244.086C261.826 243.938 262.234 243.787 262.64 243.634L265.245 250.548C264.808 250.712 264.371 250.874 263.931 251.033ZM187.258 250.434C186.819 250.278 186.38 250.12 185.945 249.959L188.501 243.026C188.909 243.177 189.318 243.325 189.73 243.472L187.258 250.434ZM267.852 249.529L265.069 242.685C265.472 242.521 265.873 242.356 266.273 242.189L269.137 248.999C268.711 249.178 268.282 249.355 267.852 249.529ZM183.335 248.961C182.901 248.789 182.469 248.615 182.039 248.439L184.847 241.605C185.25 241.771 185.653 241.933 186.059 242.095L183.335 248.963L183.335 248.961ZM271.693 247.886L268.658 241.149C269.052 240.972 269.446 240.791 269.839 240.609L272.961 247.304C272.54 247.5 272.118 247.695 271.693 247.886ZM179.465 247.344C179.038 247.156 178.613 246.965 178.19 246.772L181.256 240.051C181.65 240.231 182.048 240.409 182.447 240.585L179.465 247.345L179.465 247.344ZM275.476 246.096L272.185 239.482C272.574 239.29 272.961 239.093 273.347 238.895L276.719 245.47C276.306 245.682 275.891 245.891 275.476 246.098V246.096ZM175.658 245.581C175.238 245.376 174.82 245.17 174.403 244.96L177.725 238.361C178.113 238.556 178.502 238.749 178.895 238.94L175.66 245.583L175.658 245.581ZM279.186 244.165L275.647 237.679C276.029 237.471 276.408 237.261 276.787 237.047L280.404 243.489C280 243.716 279.594 243.941 279.186 244.163V244.165ZM171.917 243.67C171.506 243.45 171.095 243.226 170.688 243.001L174.265 236.536C174.645 236.745 175.026 236.954 175.41 237.158L171.917 243.67ZM282.822 242.093L279.04 235.745C279.414 235.524 279.786 235.298 280.157 235.071L284.015 241.373C283.619 241.615 283.221 241.856 282.822 242.093ZM168.254 241.614C167.851 241.376 167.45 241.138 167.052 240.897L170.881 234.578C171.252 234.804 171.626 235.025 172.001 235.246L168.254 241.614ZM286.379 239.883L282.359 233.684C282.724 233.449 283.088 233.21 283.45 232.969L287.545 239.119C287.158 239.377 286.77 239.631 286.379 239.885V239.883ZM164.674 239.412C164.28 239.158 163.889 238.904 163.5 238.646L167.581 232.488C167.942 232.727 168.305 232.964 168.67 233.198L164.674 239.412ZM289.85 237.542L285.601 231.497C285.956 231.248 286.311 230.995 286.665 230.741L290.987 236.733C290.61 237.005 290.231 237.274 289.85 237.542ZM161.185 237.07C160.801 236.8 160.42 236.529 160.041 236.256L164.369 230.266C164.718 230.519 165.072 230.77 165.429 231.019L161.185 237.068V237.07ZM293.232 235.073L288.761 229.19C289.107 228.927 289.451 228.662 289.794 228.395L294.342 234.218C293.975 234.505 293.604 234.79 293.234 235.071L293.232 235.073ZM157.791 234.587C157.42 234.304 157.052 234.019 156.685 233.73L161.248 227.918C161.589 228.186 161.934 228.453 162.279 228.717L157.791 234.587ZM296.522 232.474L291.829 226.767C292.165 226.49 292.5 226.212 292.832 225.932L297.595 231.582C297.24 231.882 296.882 232.179 296.523 232.474L296.522 232.474ZM154.501 231.966C154.141 231.667 153.784 231.367 153.429 231.063L158.23 225.446C158.559 225.728 158.892 226.007 159.225 226.284L154.501 231.966ZM299.711 229.754L294.808 224.226C295.134 223.938 295.456 223.647 295.777 223.356L300.75 228.821C300.405 229.135 300.059 229.446 299.709 229.754H299.711ZM151.323 229.214C150.974 228.9 150.629 228.584 150.286 228.267L155.314 222.852C155.631 223.148 155.951 223.439 156.273 223.729L151.323 229.214ZM302.797 226.915L297.689 221.574C298.003 221.274 298.316 220.972 298.626 220.668L303.803 225.943C303.47 226.268 303.133 226.593 302.797 226.915ZM148.258 226.335C147.924 226.007 147.591 225.678 147.261 225.347L152.506 220.141C152.811 220.448 153.118 220.754 153.427 221.057L148.258 226.337L148.258 226.335ZM305.774 223.961L300.467 218.819C300.771 218.506 301.073 218.191 301.372 217.875L306.739 222.955C306.418 223.293 306.097 223.629 305.773 223.961H305.774ZM145.312 223.33C144.991 222.989 144.673 222.648 144.357 222.303L149.81 217.315C150.102 217.634 150.397 217.953 150.696 218.269L145.312 223.33ZM308.637 220.899L303.145 215.955C303.435 215.631 303.726 215.307 304.013 214.979L309.568 219.853C309.26 220.202 308.95 220.55 308.639 220.897L308.637 220.899ZM142.493 220.209C142.184 219.854 141.879 219.496 141.576 219.138L147.232 214.38C147.512 214.713 147.794 215.042 148.079 215.372L142.493 220.209ZM311.387 217.725L305.706 212.998C305.984 212.664 306.263 212.326 306.539 211.986L312.273 216.646C311.98 217.006 311.684 217.366 311.386 217.723L311.387 217.725ZM139.794 216.965C139.502 216.599 139.212 216.232 138.925 215.861L144.764 211.331C145.03 211.676 145.3 212.017 145.573 212.358L139.794 216.965ZM314.013 214.454L308.159 209.944C308.425 209.599 308.69 209.251 308.953 208.903L314.86 213.343C314.58 213.715 314.296 214.085 314.013 214.454ZM137.23 213.618C136.954 213.24 136.679 212.862 136.407 212.479L142.425 208.19C142.678 208.545 142.934 208.898 143.191 209.248L137.23 213.616L137.23 213.618ZM316.512 211.087L310.498 206.792C310.751 206.439 311 206.084 311.249 205.727L317.321 209.939C317.055 210.323 316.785 210.705 316.514 211.087L316.512 211.087ZM134.808 210.172C134.546 209.785 134.287 209.394 134.031 209.004L140.214 204.956C140.453 205.32 140.694 205.683 140.938 206.045L134.809 210.172L134.808 210.172ZM318.889 207.621L312.714 203.562C312.953 203.199 313.19 202.832 313.426 202.465L319.652 206.447C319.401 206.84 319.146 207.232 318.89 207.621H318.889ZM132.525 206.635C132.279 206.238 132.037 205.838 131.796 205.437L138.135 201.639C138.359 202.013 138.586 202.385 138.814 202.755L132.525 206.637L132.525 206.635ZM321.132 204.067L314.805 200.248C315.03 199.875 315.254 199.499 315.478 199.122L321.849 202.868C321.613 203.269 321.374 203.67 321.133 204.067H321.132ZM130.384 203.014C130.154 202.607 129.927 202.199 129.702 201.787L136.187 198.242C136.395 198.622 136.607 199.003 136.82 199.382L130.384 203.014ZM323.237 200.434L316.772 196.853C316.983 196.472 317.192 196.09 317.398 195.706L323.909 199.201C323.687 199.614 323.464 200.023 323.237 200.433L323.237 200.434ZM128.389 199.313C128.175 198.899 127.965 198.482 127.757 198.064L134.372 194.769C134.567 195.158 134.763 195.547 134.963 195.935L128.389 199.313ZM325.205 196.718L318.607 193.387C318.803 192.998 318.998 192.606 319.191 192.213L325.828 195.464C325.623 195.883 325.415 196.3 325.205 196.716V196.718ZM126.54 195.541C126.344 195.119 126.151 194.696 125.958 194.273L132.693 191.229C132.872 191.626 133.054 192.024 133.239 192.42L126.54 195.541ZM327.032 192.928L320.311 189.855C320.493 189.457 320.672 189.06 320.85 188.659L327.607 191.652C327.417 192.078 327.226 192.503 327.032 192.928ZM124.838 191.703C124.657 191.273 124.479 190.843 124.304 190.411L131.151 187.63C131.315 188.034 131.482 188.437 131.651 188.838L124.838 191.703ZM328.711 189.075L321.879 186.255C322.047 185.852 322.211 185.447 322.373 185.041L329.239 187.777C329.066 188.212 328.891 188.643 328.711 189.077V189.075ZM123.284 187.807C123.121 187.372 122.958 186.935 122.8 186.497L129.746 183.973C129.895 184.383 130.046 184.792 130.2 185.2L123.284 187.807ZM330.244 185.156L323.31 182.601C323.462 182.192 323.61 181.781 323.757 181.369L330.722 183.838C330.565 184.279 330.407 184.719 330.246 185.157L330.244 185.156ZM121.878 183.859C121.729 183.417 121.584 182.973 121.441 182.53L128.478 180.27C128.611 180.685 128.746 181.098 128.884 181.509L121.876 183.859H121.878ZM331.625 181.18L324.599 178.89C324.734 178.474 324.867 178.057 324.998 177.641L332.052 179.844C331.912 180.291 331.771 180.736 331.625 181.18ZM120.618 179.857C120.486 179.412 120.358 178.965 120.232 178.516L127.347 176.515C127.465 176.935 127.586 177.354 127.709 177.772L120.618 179.857ZM332.851 177.161L325.741 175.143C325.86 174.725 325.977 174.305 326.091 173.884L333.225 175.815C333.102 176.266 332.979 176.714 332.851 177.161ZM119.507 175.819C119.392 175.368 119.28 174.918 119.169 174.465L126.351 172.722C126.453 173.145 126.559 173.57 126.666 173.991L119.505 175.819L119.507 175.819ZM333.92 173.107L326.74 171.355C326.842 170.933 326.943 170.51 327.04 170.087L334.243 171.746C334.137 172.201 334.031 172.655 333.92 173.107ZM118.544 171.739C118.445 171.285 118.349 170.829 118.257 170.374L125.499 168.894C125.586 169.322 125.676 169.749 125.768 170.176L118.544 171.737L118.544 171.739ZM334.835 169.014L327.593 167.534C327.68 167.109 327.764 166.684 327.844 166.258L335.105 167.637C335.018 168.097 334.927 168.555 334.833 169.014H334.835ZM117.731 167.631C117.649 167.174 117.569 166.717 117.492 166.258L124.782 165.036C124.853 165.466 124.928 165.896 125.005 166.326L117.731 167.63L117.731 167.631ZM335.595 164.886L328.302 163.686C328.372 163.258 328.44 162.828 328.505 162.398L335.813 163.504C335.743 163.965 335.67 164.425 335.595 164.886ZM117.065 163.5C116.999 163.04 116.936 162.577 116.876 162.115L124.205 161.159C124.261 161.591 124.319 162.023 124.382 162.453L117.065 163.499L117.065 163.5ZM336.197 160.738L328.863 159.811C328.918 159.381 328.969 158.951 329.017 158.52L336.363 159.345C336.31 159.811 336.255 160.274 336.197 160.738ZM116.548 159.344C116.499 158.883 116.453 158.422 116.408 157.962L123.766 157.257C123.809 157.692 123.851 158.129 123.897 158.564L116.548 159.345V159.344ZM336.641 156.562L329.278 155.924C329.316 155.491 329.352 155.056 329.384 154.619L336.754 155.172C336.72 155.636 336.68 156.098 336.641 156.561L336.641 156.562ZM116.178 155.177C116.145 154.713 116.114 154.247 116.087 153.783L123.465 153.351C123.491 153.786 123.518 154.22 123.551 154.655L116.178 155.179L116.178 155.177ZM336.926 152.385L329.544 152.013C329.567 151.58 329.585 151.146 329.601 150.713L336.986 150.986C336.969 151.454 336.948 151.919 336.926 152.385ZM115.956 150.995C115.94 150.53 115.925 150.066 115.915 149.602L123.303 149.428C123.313 149.865 123.327 150.302 123.343 150.737L115.956 150.995ZM337.056 148.193L329.666 148.102C329.671 147.667 329.674 147.232 329.674 146.797L329.674 146.64L337.066 146.64L337.066 146.797C337.066 147.263 337.063 147.729 337.058 148.195L337.056 148.193ZM123.273 146.811L115.881 146.811C115.881 146.347 115.884 145.882 115.889 145.417L123.279 145.5C123.274 145.937 123.273 146.374 123.273 146.811ZM329.637 144.034C329.625 143.599 329.611 143.164 329.594 142.729L336.979 142.448C336.996 142.91 337.011 143.372 337.023 143.836L329.635 144.034L329.637 144.034ZM123.341 142.884L115.954 142.627C115.969 142.161 115.99 141.697 116.012 141.231L123.395 141.579C123.375 142.014 123.358 142.449 123.343 142.884L123.341 142.884ZM329.461 140.123C329.434 139.688 329.403 139.255 329.369 138.822L336.738 138.26C336.774 138.724 336.807 139.188 336.836 139.654L329.461 140.123ZM123.547 138.968L116.174 138.444C116.207 137.982 116.243 137.52 116.28 137.059L123.646 137.658C123.611 138.095 123.578 138.531 123.546 138.968L123.547 138.968ZM329.138 136.224C329.094 135.789 329.048 135.356 328.998 134.924L336.342 134.09C336.395 134.551 336.445 135.013 336.493 135.475L329.14 136.224L329.138 136.224ZM123.894 135.059L116.545 134.278C116.594 133.815 116.645 133.351 116.702 132.889L124.041 133.761C123.99 134.192 123.94 134.626 123.894 135.059ZM328.669 132.337C328.609 131.906 328.546 131.476 328.479 131.047L335.786 129.931C335.856 130.392 335.924 130.853 335.989 131.315L328.669 132.337ZM124.379 131.169L117.062 130.123C117.127 129.662 117.197 129.203 117.267 128.744L124.572 129.873C124.505 130.305 124.44 130.737 124.379 131.169ZM328.054 128.474C327.977 128.044 327.897 127.616 327.815 127.189L335.074 125.8C335.161 126.256 335.246 126.713 335.328 127.172L328.054 128.476V128.474ZM125.004 127.295L117.729 125.992C117.811 125.534 117.897 125.077 117.984 124.621L125.243 126.009C125.161 126.437 125.08 126.867 125.004 127.295ZM327.293 124.635C327.201 124.21 327.105 123.787 327.006 123.364L334.207 121.695C334.313 122.149 334.415 122.604 334.514 123.06L327.293 124.635ZM125.765 123.447L118.54 121.884C118.639 121.429 118.74 120.975 118.844 120.519L126.048 122.173C125.951 122.598 125.857 123.021 125.765 123.447ZM326.385 120.828C326.275 120.407 326.164 119.987 326.05 119.569L333.181 117.625C333.304 118.076 333.423 118.526 333.541 118.978L326.386 120.828H326.385ZM126.665 119.634L119.503 117.806C119.618 117.356 119.735 116.907 119.857 116.456L126.996 118.368C126.883 118.789 126.772 119.21 126.665 119.634ZM325.333 117.059C325.208 116.641 325.08 116.224 324.951 115.81L332.003 113.6C332.143 114.044 332.279 114.489 332.412 114.936L325.333 117.059ZM127.703 115.854L120.611 113.767C120.743 113.322 120.877 112.877 121.014 112.431L128.08 114.6C127.952 115.016 127.825 115.434 127.703 115.852L127.703 115.854ZM324.138 113.332C323.998 112.919 323.853 112.51 323.708 112.1L330.671 109.626C330.828 110.064 330.98 110.505 331.132 110.945L324.138 113.332ZM128.879 112.117L121.869 109.773C122.016 109.332 122.168 108.892 122.32 108.454L129.3 110.882C129.157 111.293 129.017 111.706 128.879 112.119L128.879 112.117ZM322.801 109.653C322.644 109.247 322.485 108.843 322.325 108.438L329.189 105.7C329.362 106.131 329.533 106.566 329.7 107.002L322.801 109.655V109.653ZM130.192 108.428L123.274 105.824C123.438 105.389 123.605 104.956 123.774 104.522L130.659 107.21C130.501 107.616 130.345 108.022 130.192 108.43V108.428ZM321.33 106.037C321.159 105.64 320.985 105.242 320.809 104.846L327.562 101.845C327.752 102.27 327.936 102.695 328.121 103.123L321.33 106.037ZM131.639 104.794L124.826 101.93C125.007 101.502 125.19 101.074 125.376 100.647L132.153 103.592C131.979 103.992 131.808 104.391 131.639 104.792V104.794ZM319.723 102.483C319.537 102.091 319.348 101.7 319.157 101.311L325.794 98.0603C325.999 98.4767 326.2 98.8947 326.398 99.3128L319.723 102.483ZM133.222 101.22L126.523 98.0978C126.719 97.6764 126.917 97.2566 127.12 96.8369L133.78 100.041C133.592 100.434 133.406 100.826 133.222 101.22ZM317.982 98.9903C317.781 98.6046 317.577 98.2224 317.373 97.8402L323.882 94.3405C324.102 94.75 324.319 95.1595 324.534 95.5707L317.982 98.992L317.982 98.9903ZM134.941 97.7105L128.365 94.3354C128.577 93.9224 128.793 93.5095 129.01 93.0983L135.542 96.5553C135.339 96.9392 135.137 97.3232 134.939 97.7105H134.941ZM316.111 95.5673C315.894 95.1885 315.676 94.8131 315.455 94.4377L321.828 90.6957C322.062 91.095 322.294 91.496 322.525 91.8987L316.111 95.569V95.5673ZM136.791 94.2739L130.352 90.6479C130.581 90.2435 130.811 89.8391 131.045 89.4364L137.437 93.1443C137.218 93.5197 137.003 93.8968 136.791 94.2739ZM314.109 92.2109C313.88 91.8424 313.648 91.4755 313.414 91.1104L319.638 87.1277C319.889 87.5185 320.136 87.9127 320.384 88.3068L314.11 92.2109H314.109ZM138.773 90.9124L132.481 87.039C132.725 86.6431 132.972 86.2473 133.222 85.8531L139.461 89.8135C139.229 90.1787 139 90.5456 138.773 90.9124ZM311.976 88.9296C311.734 88.5713 311.49 88.2147 311.242 87.8581L317.311 83.6417C317.577 84.0239 317.842 84.4095 318.103 84.7969L311.976 88.9296ZM140.883 87.6362L134.748 83.5171C135.007 83.1315 135.269 82.7476 135.533 82.3636L141.614 86.5629C141.368 86.9196 141.124 87.2762 140.883 87.6362ZM309.728 85.7354C309.472 85.3856 309.212 85.0375 308.953 84.6911L314.858 80.2477C315.138 80.6197 315.416 80.9951 315.693 81.3705L309.73 85.7354L309.728 85.7354ZM143.12 84.4488L137.155 80.0857C137.432 79.7086 137.708 79.3349 137.99 78.9612L143.896 83.4028C143.635 83.7509 143.376 84.099 143.12 84.4488ZM307.357 82.6247C307.087 82.2851 306.816 81.9456 306.543 81.6094L312.277 76.9477C312.57 77.3094 312.862 77.6729 313.153 78.038L307.357 82.623L307.357 82.6247ZM145.489 81.3432L139.704 76.7446C139.996 76.3778 140.289 76.0143 140.586 75.6509L146.305 80.3314C146.03 80.6675 145.759 81.0037 145.489 81.3432ZM304.868 79.6028C304.586 79.2734 304.303 78.9441 304.016 78.6182L309.571 73.7466C309.878 74.0981 310.184 74.4496 310.488 74.8045L304.868 79.6028ZM147.982 78.3366L142.387 73.5094C142.693 73.1562 143 72.8047 143.311 72.4549L148.839 77.3589C148.55 77.6831 148.265 78.009 147.982 78.3366ZM302.27 76.6781C301.974 76.359 301.679 76.0416 301.38 75.7259L306.749 70.6495C307.07 70.9874 307.388 71.3287 307.703 71.6717L302.27 76.6781ZM150.594 75.4359L145.202 70.3817C145.522 70.0421 145.843 69.7025 146.167 69.3664L151.492 74.4905C151.189 74.8028 150.891 75.1185 150.594 75.4359ZM299.562 73.8524C299.255 73.5435 298.946 73.2364 298.633 72.9309L303.811 67.6583C304.142 67.9842 304.473 68.3119 304.801 68.6412L299.562 73.8524ZM153.322 72.6426L148.14 67.3751C148.473 67.0474 148.81 66.7215 149.148 66.399L154.257 71.7382C153.943 72.0385 153.632 72.3405 153.323 72.6443L153.322 72.6426ZM296.749 71.129C296.429 70.8321 296.108 70.5369 295.788 70.2434L300.759 64.7763C301.104 65.0903 301.447 65.4059 301.788 65.7233L296.749 71.1273V71.129ZM156.162 69.9636L151.201 64.4879C151.548 64.174 151.896 63.8634 152.248 63.5529L157.134 69.0968C156.808 69.3834 156.483 69.6718 156.162 69.9636ZM293.835 68.5132C293.505 68.2282 293.172 67.945 292.839 67.6634L297.602 62.0154C297.957 62.3158 298.312 62.6178 298.664 62.9215L293.835 68.5132ZM159.111 67.4041L154.377 61.7305C154.735 61.4319 155.097 61.135 155.461 60.8398L160.114 66.5782C159.776 66.8512 159.442 67.1259 159.109 67.4041L159.111 67.4041ZM290.82 66.0049C290.482 65.7336 290.14 65.464 289.797 65.1961L294.342 59.3706C294.71 59.6573 295.077 59.9473 295.441 60.2391L290.818 66.0032L290.82 66.0049ZM162.159 64.9674L157.663 59.1044C158.033 58.8212 158.405 58.5396 158.781 58.2598L163.197 64.1842C162.849 64.4436 162.503 64.7046 162.159 64.9691L162.159 64.9674ZM287.716 63.616C287.366 63.3566 287.015 63.099 286.659 62.8447L290.984 56.852C291.363 57.125 291.738 57.3998 292.114 57.6779L287.716 63.616ZM165.306 62.6553L161.05 56.6148C161.432 56.3452 161.816 56.079 162.204 55.8146L166.373 61.9148C166.014 62.1605 165.659 62.4062 165.304 62.6553L165.306 62.6553ZM284.522 61.3431C284.162 61.0974 283.8 60.8534 283.436 60.6111L287.532 54.4614C287.919 54.7191 288.307 54.9802 288.693 55.2429L284.522 61.3414V61.3431ZM168.544 60.4729L164.536 54.2652C164.928 54.0127 165.321 53.7618 165.719 53.5127L169.642 59.7733C169.273 60.0036 168.908 60.2374 168.542 60.4712L168.544 60.4729ZM281.243 59.1931C280.872 58.9611 280.502 58.7307 280.13 58.5021L283.989 52.2022C284.387 52.4462 284.783 52.692 285.179 52.9394L281.243 59.1914V59.1931ZM171.87 58.4219L168.112 52.0606C168.513 51.8234 168.918 51.5897 169.324 51.3559L172.996 57.7666C172.619 57.9833 172.244 58.2 171.87 58.4202L171.87 58.4219ZM277.883 57.1677C277.506 56.9493 277.127 56.7343 276.746 56.521L280.362 50.0778C280.77 50.3065 281.176 50.5385 281.581 50.7706L277.883 57.1677ZM175.275 56.5022L171.772 49.9976C172.182 49.7775 172.595 49.5591 173.01 49.3424L176.428 55.8931C176.042 56.0944 175.658 56.2975 175.275 56.5039V56.5022ZM274.448 55.2702C274.062 55.0672 273.677 54.8658 273.287 54.6662L276.657 48.0916C277.074 48.3049 277.487 48.5199 277.9 48.7383L274.447 55.2702L274.448 55.2702ZM178.755 54.7174L175.506 48.0814C175.924 47.8766 176.346 47.6753 176.767 47.4739L179.929 54.1526C179.535 54.3386 179.144 54.528 178.755 54.7174ZM270.947 53.5059C270.553 53.3165 270.158 53.1305 269.762 52.9462L272.879 46.2471C273.303 46.4433 273.724 46.6429 274.146 46.846L270.949 53.5059L270.947 53.5059ZM182.302 53.0673L179.313 46.3119C179.738 46.1242 180.165 45.9382 180.593 45.7557L183.5 52.5486C183.099 52.721 182.7 52.8933 182.302 53.0691L182.302 53.0673ZM267.372 51.8729C266.973 51.6989 266.573 51.5282 266.17 51.361L269.026 44.5476C269.458 44.7284 269.89 44.9127 270.319 45.0987L267.37 51.8729L267.372 51.8729ZM185.913 51.5504L183.179 44.6858C183.611 44.5134 184.045 44.3445 184.48 44.1773L187.132 51.0726C186.723 51.2296 186.319 51.3883 185.914 51.5487L185.913 51.5504ZM263.743 50.3781C263.336 50.2195 262.928 50.0642 262.519 49.9106L265.114 42.9931C265.552 43.1569 265.989 43.3241 266.425 43.4947L263.741 50.3781L263.743 50.3781ZM189.581 50.1666L187.099 43.2081C187.538 43.0528 187.977 42.8975 188.419 42.7474L190.814 49.7366C190.401 49.8782 189.989 50.0215 189.581 50.1666ZM260.055 49.0216C259.644 48.8783 259.231 48.7383 258.814 48.6018L261.143 41.5905C261.587 41.7389 262.031 41.8891 262.474 42.0409L260.055 49.0216ZM193.299 48.9158L191.068 41.872C191.51 41.7321 191.956 41.5939 192.401 41.4591L194.547 48.5285C194.129 48.6547 193.713 48.7844 193.299 48.9158ZM256.318 47.8084C255.902 47.6821 255.485 47.5576 255.067 47.4364L257.126 40.3414C257.573 40.4711 258.02 40.6042 258.466 40.739L256.318 47.8084ZM197.062 47.7981L195.08 40.681C195.527 40.5564 195.974 40.4353 196.425 40.3141L198.325 47.4535C197.902 47.5661 197.48 47.6804 197.062 47.7981ZM200.864 46.8102L199.126 39.6299C199.575 39.5207 200.027 39.4149 200.481 39.3091L202.141 46.5082C201.714 46.6071 201.289 46.7061 200.865 46.8102L200.864 46.8102ZM252.549 46.7419C252.129 46.631 251.707 46.5235 251.286 46.4177L253.073 39.2493C253.526 39.362 253.978 39.478 254.429 39.5957L252.551 46.7402L252.549 46.7419ZM204.701 45.9485L203.201 38.7153C203.653 38.6214 204.109 38.5293 204.565 38.4405L205.989 45.6891C205.558 45.7727 205.13 45.8597 204.703 45.9485L204.701 45.9485ZM248.746 45.8205C248.32 45.7266 247.895 45.6345 247.469 45.5458L248.981 38.3143C249.437 38.4098 249.893 38.5071 250.349 38.6095L248.746 45.8222V45.8205ZM208.568 45.2113L207.3 37.9338C207.755 37.8536 208.213 37.7768 208.672 37.7017L209.864 44.9929C209.43 45.0629 208.998 45.1362 208.568 45.2113ZM244.906 45.0441C244.478 44.9656 244.049 44.8905 243.621 44.8172L244.857 37.5328C245.316 37.6113 245.775 37.6915 246.234 37.7751L244.906 45.0424L244.906 45.0441ZM212.459 44.597L211.419 37.2836C211.875 37.2188 212.334 37.1557 212.793 37.0959L213.763 44.4196C213.328 44.4776 212.892 44.5373 212.459 44.5987V44.597ZM241.04 44.4145C240.609 44.353 240.179 44.2933 239.747 44.237L240.707 36.9117C241.169 36.9731 241.632 37.0362 242.093 37.1028L241.041 44.4145L241.04 44.4145ZM216.371 44.1005L215.552 36.7581C216.009 36.7069 216.47 36.6574 216.931 36.6113L217.681 43.9606C217.244 44.0049 216.807 44.051 216.371 44.1005ZM237.156 43.9299C236.722 43.8838 236.289 43.8411 235.855 43.8019L236.536 36.4458C237 36.4885 237.463 36.5345 237.927 36.584L237.156 43.9316L237.156 43.9299ZM220.303 43.7183L219.695 36.3554C220.154 36.3178 220.615 36.282 221.078 36.2479L221.614 43.6159C221.175 43.6483 220.737 43.6824 220.301 43.7183L220.303 43.7183ZM233.253 43.592C232.82 43.563 232.384 43.5357 231.949 43.5118L232.354 36.1353C232.82 36.1609 233.284 36.1899 233.748 36.2206L233.252 43.592L233.253 43.592ZM224.246 43.4487L223.847 36.0721C224.306 36.0482 224.765 36.0243 225.228 36.0039L225.561 43.3838C225.12 43.4043 224.682 43.4248 224.246 43.4487ZM229.341 43.4009C228.907 43.3872 228.47 43.377 228.035 43.3702L228.163 35.9834C228.629 35.9919 229.095 36.0022 229.561 36.0158L229.339 43.4009L229.341 43.4009Z" fill="url(#paint0_linear_60_1078)"/>
<g style="mix-blend-mode:screen">
<path d="M226.478 264.303C195.075 264.303 165.553 252.08 143.349 229.886C121.144 207.692 108.916 178.182 108.916 146.794C108.916 115.405 121.144 85.8976 143.349 63.7014C165.553 41.507 195.077 29.2844 226.478 29.2844C257.879 29.2844 287.404 41.507 309.609 63.7014C331.813 85.8959 344.042 115.405 344.042 146.794C344.042 178.182 331.813 207.69 309.609 229.886C287.404 252.08 257.881 264.303 226.478 264.303ZM226.478 30.6376C162.399 30.6376 110.268 82.7443 110.268 146.794C110.268 210.843 162.4 262.95 226.478 262.95C290.555 262.95 342.688 210.841 342.688 146.794C342.688 82.746 290.555 30.6376 226.478 30.6376Z" fill="#3CDDF7"/>
</g>
<path d="M105.812 134.493C106.28 129.548 107.039 124.591 108.071 119.762L108.12 119.53L97.6553 117.301L97.6058 117.533C96.491 122.763 95.6682 128.131 95.1612 133.486L95.139 133.721L105.792 134.73L105.814 134.494L105.812 134.493ZM105.232 146.783C105.232 144.347 105.302 141.881 105.438 139.45L105.452 139.212L94.7685 138.612L94.7549 138.849C94.6064 141.482 94.5312 144.152 94.5312 146.782L94.5312 147.147L105.23 147.147L105.23 146.782L105.232 146.783ZM116.608 93.9004C117.641 91.648 118.752 89.411 119.911 87.249L120.024 87.0408L110.594 81.9901L110.481 82.1982C109.214 84.5581 108.006 86.9965 106.882 89.4434L106.783 89.6584L116.511 94.1154L116.61 93.9004L116.608 93.9004ZM144.363 237.512L144.187 237.355L137.054 245.327L137.232 245.485C139.241 247.282 141.336 249.033 143.458 250.692L143.644 250.837L150.233 242.411L150.047 242.266C148.108 240.75 146.196 239.151 144.364 237.513L144.363 237.512ZM126.467 217.119C125.54 215.764 124.626 214.368 123.756 212.971L123.631 212.77L114.551 218.428L114.675 218.629C115.631 220.162 116.627 221.685 117.637 223.16L117.771 223.354L126.6 217.315L126.467 217.119ZM117.893 222.695C116.977 221.353 116.074 219.969 115.203 218.578L123.479 213.421C124.275 214.691 125.101 215.955 125.943 217.191L117.895 222.695H117.893ZM122.339 82.9422C124.862 78.678 127.67 74.5555 130.69 70.6889L130.835 70.5029L122.4 63.9215L122.255 64.1075C118.955 68.3325 115.884 72.8372 113.127 77.4972L113.008 77.7003L122.218 83.1435L122.339 82.9405L122.339 82.9422ZM140.754 234.14C137.237 230.705 133.908 226.994 130.856 223.107L130.709 222.921L122.291 229.521L122.438 229.707C125.775 233.961 129.422 238.025 133.276 241.789L133.445 241.955L140.923 234.305L140.754 234.14ZM133.439 241.284C129.719 237.636 126.194 233.708 122.957 229.599L130.63 223.583C133.604 227.356 136.841 230.964 140.254 234.312L133.439 241.284ZM116.709 199.899C115.681 197.67 114.705 195.367 113.805 193.051L113.72 192.831L103.745 196.703L103.83 196.923C104.807 199.435 105.87 201.943 106.99 204.374L107.089 204.589L116.806 200.114L116.707 199.899L116.709 199.899ZM112.101 188.391C110.505 183.734 109.165 178.909 108.118 174.046L108.069 173.814L97.6092 176.063L97.6587 176.295C98.794 181.571 100.248 186.808 101.981 191.858L102.058 192.082L112.18 188.615L112.103 188.391H112.101ZM106.765 166.717C106.512 165.091 106.288 163.432 106.097 161.789L106.07 161.554L95.4412 162.786L95.4685 163.021C95.675 164.803 95.9191 166.596 96.1906 168.352L96.2264 168.585L106.8 166.949L106.765 166.715L106.765 166.717ZM96.6225 168.048C96.3784 166.449 96.1581 164.823 95.9669 163.204L105.655 162.081C105.831 163.574 106.034 165.077 106.261 166.557L96.6242 168.048H96.6225ZM325.538 76.7908C326.491 78.1405 327.424 79.521 328.312 80.8946L328.44 81.0942L337.425 75.2875L337.297 75.0879C336.325 73.5863 335.311 72.0847 334.279 70.6258L334.142 70.433L325.4 76.5997L325.536 76.7925L325.538 76.7908ZM334.029 71.0899C334.963 72.4192 335.885 73.7808 336.771 75.1442L328.582 80.4373C327.771 79.1899 326.926 77.9392 326.062 76.7106L334.029 71.0899ZM335.605 93.8355C336.68 96.0521 337.701 98.3318 338.639 100.61L338.729 100.828L348.625 96.7619L348.535 96.5435C347.514 94.0625 346.403 91.5814 345.233 89.1704L345.129 88.9571L335.501 93.6239L335.603 93.8372L335.605 93.8355ZM346.082 126.77C346.35 128.387 346.589 130.037 346.792 131.674L346.821 131.909L357.439 130.595L357.41 130.36C357.19 128.582 356.931 126.785 356.637 125.021L356.598 124.787L346.042 126.536L346.082 126.77ZM356.208 125.331C356.471 126.937 356.709 128.567 356.912 130.182L347.234 131.38C347.046 129.894 346.829 128.398 346.589 126.927L356.208 125.333V125.331ZM307.459 56.4477L307.635 56.6064L314.793 48.6583L314.617 48.4996C312.62 46.7028 310.542 44.9453 308.441 43.273L308.255 43.1263L301.594 51.4959L301.778 51.6427C303.704 53.175 305.616 54.7909 307.459 56.4494V56.4477ZM340.429 105.231C342.119 109.872 343.536 114.667 344.643 119.479L344.695 119.709L355.124 117.315L355.071 117.085C353.868 111.846 352.325 106.628 350.484 101.574L350.404 101.352L340.349 105.01L340.429 105.232V105.231ZM238.32 25.87L238.556 25.8939L239.612 15.2514L239.377 15.2275C237.6 15.05 235.792 14.9084 234.001 14.8026L233.766 14.789L233.139 25.4656L233.375 25.4792C235.019 25.5748 236.683 25.7062 238.32 25.87ZM234.209 15.2906C235.838 15.3896 237.479 15.5176 239.095 15.6763L238.131 25.3769C236.642 25.2318 235.133 25.1124 233.638 25.0219L234.208 15.2906L234.209 15.2906ZM159.939 44.4078C164.09 41.8226 168.488 39.4593 173.01 37.3827L173.225 37.2838L168.759 27.5661L168.544 27.6651C163.614 29.9294 158.815 32.5077 154.281 35.3317L154.08 35.4563L159.737 44.534L159.939 44.4095L159.939 44.4078ZM168.527 28.194L172.597 37.0517C168.206 39.0788 163.933 41.3739 159.889 43.8805L154.734 35.6064C159.126 32.8831 163.764 30.3901 168.527 28.1923V28.194ZM179.859 34.4871C181.387 33.8949 182.956 33.3216 184.523 32.7841L184.747 32.7073L181.273 22.5921L181.049 22.6689C179.347 23.2525 177.645 23.8736 175.991 24.5152L175.771 24.6005L179.639 34.5724L179.859 34.4871ZM135.441 65.0034C136.537 63.7748 137.671 62.5599 138.811 61.391L138.977 61.2221L131.313 53.7585L131.148 53.9275C129.901 55.2055 128.66 56.5365 127.457 57.8845L127.3 58.0619L135.284 65.1808L135.441 65.0034ZM127.967 58.0227C129.063 56.7993 130.19 55.5929 131.322 54.4274L138.306 61.2306C137.273 62.2954 136.243 63.3977 135.245 64.5119L127.967 58.0227ZM289.598 43.1126L289.799 43.2355L295.39 34.1168L295.188 33.9939C293.659 33.0571 292.09 32.1391 290.525 31.2655L290.318 31.1494L285.103 40.4883L285.309 40.6043C286.745 41.4063 288.187 42.2492 289.596 43.1109L289.598 43.1126ZM109.837 112.527C110.276 110.935 110.751 109.334 111.249 107.77L111.321 107.544L101.128 104.297L101.056 104.522C100.513 106.224 99.9975 107.962 99.5212 109.687L99.4581 109.916L109.774 112.756L109.837 112.527ZM100.042 109.585C100.477 108.017 100.945 106.44 101.437 104.891L110.727 107.851C110.276 109.275 109.846 110.727 109.445 112.172L100.042 109.585ZM329.767 210.396C327.177 214.601 324.3 218.692 321.212 222.559L321.064 222.743L329.425 229.417L329.572 229.232C332.932 225.026 336.062 220.574 338.878 216.003L339.002 215.802L329.889 210.196L329.765 210.398L329.767 210.396ZM316.393 228.227C315.283 229.454 314.139 230.669 312.994 231.838L312.828 232.007L320.471 239.493L320.637 239.324C321.891 238.042 323.136 236.722 324.333 235.396L324.491 235.22L316.552 228.052L316.393 228.227ZM321.215 71.037L329.565 64.3498L329.417 64.1656C326.057 59.9748 322.402 55.9461 318.554 52.1887L318.385 52.0232L310.909 59.6745L311.078 59.84C314.617 63.2936 317.979 66.9981 321.067 70.8527L321.215 71.037ZM318.392 52.6921C322.108 56.3317 325.642 60.2273 328.899 64.2748L321.289 70.3698C318.277 66.6295 315.012 63.0291 311.579 59.6659L318.392 52.6921ZM291.9 249.03C287.744 251.707 283.384 254.15 278.94 256.295L278.726 256.398L283.38 266.028L283.594 265.926C288.43 263.591 293.174 260.931 297.696 258.02L297.896 257.892L292.102 248.902L291.902 249.03L291.9 249.03ZM283.599 265.397L279.358 256.619C283.675 254.526 287.911 252.15 291.959 249.555L297.24 257.749C292.862 260.558 288.275 263.129 283.6 265.395L283.599 265.397ZM301.957 241.805C300.026 243.346 298.024 244.847 296.008 246.264L295.815 246.4L301.971 255.147L302.166 255.01C304.359 253.468 306.537 251.836 308.636 250.161L308.822 250.012L302.143 241.656L301.957 241.805ZM302.085 254.488L296.474 246.516C298.369 245.178 300.248 243.771 302.066 242.324L308.152 249.941C306.179 251.509 304.141 253.038 302.084 254.49L302.085 254.488ZM335.719 199.516C334.649 201.735 333.492 203.956 332.281 206.117L332.165 206.323L341.5 211.551L341.616 211.345C342.935 208.992 344.194 206.576 345.358 204.161L345.46 203.948L335.823 199.303L335.721 199.516L335.719 199.516ZM358.423 146.263L347.724 146.263L347.724 146.795C347.724 149.266 347.649 151.768 347.502 154.23L347.488 154.465L358.168 155.109L358.182 154.873C358.342 152.199 358.424 149.474 358.424 146.772L358.424 146.265L358.423 146.263ZM347.103 159.172C346.604 164.093 345.798 169.027 344.706 173.836L344.653 174.066L355.087 176.436L355.14 176.206C356.33 170.973 357.207 165.603 357.748 160.247L357.772 160.011L347.126 158.936L347.103 159.172ZM357.251 160.434C356.719 165.613 355.87 170.804 354.728 175.87L345.218 173.71C346.271 169.031 347.055 164.238 347.548 159.455L357.251 160.434ZM342.833 181.03C342.374 182.598 341.872 184.187 341.343 185.755L341.268 185.978L351.403 189.405L351.478 189.181C352.052 187.487 352.598 185.756 353.101 184.036L353.168 183.81L342.9 180.803L342.833 181.03ZM283.546 27.6412L283.332 27.5388C278.481 25.2096 273.434 23.1603 268.333 21.4454L268.11 21.3704L264.699 31.5078L264.924 31.5828C269.605 33.1561 274.242 35.0399 278.703 37.1797L278.916 37.2821L283.547 27.6412L283.546 27.6412ZM278.692 36.6507C274.351 34.5775 269.848 32.7483 265.298 31.2092L268.407 21.9693C273.337 23.6364 278.214 25.6192 282.912 27.863L278.692 36.6507ZM204.456 16.7718C201.81 17.2171 199.153 17.7358 196.564 18.3109L196.331 18.3621L198.657 28.8015L198.889 28.7503C201.292 28.2145 203.764 27.7333 206.234 27.317L206.468 27.2777L204.691 16.7308L204.457 16.77L204.456 16.7718ZM191.917 263.097L191.688 263.034L188.817 273.336L189.045 273.4C191.601 274.111 194.232 274.766 196.861 275.345L197.093 275.396L199.397 264.953L199.165 264.902C196.724 264.364 194.285 263.757 191.917 263.098L191.917 263.097ZM196.733 274.831C194.267 274.283 191.802 273.671 189.402 273.005L192.019 263.615C194.249 264.231 196.54 264.801 198.834 265.311L196.734 274.831H196.733ZM149.756 38.2854C147.533 39.8057 145.332 41.4199 143.214 43.0836L143.028 43.2304L149.639 51.6393L149.826 51.4925C151.756 49.9756 153.767 48.5013 155.8 47.1089L155.997 46.9758L149.952 38.1523L149.757 38.2854L149.756 38.2854ZM149.72 50.9738L143.693 43.3089C145.684 41.751 147.746 40.2391 149.827 38.8092L155.336 46.8512C153.426 48.1651 151.538 49.5507 149.718 50.9738L149.72 50.9738ZM162.294 250.604L162.09 250.483L156.652 259.694L156.857 259.815C158.397 260.725 159.983 261.614 161.567 262.46L161.775 262.571L166.818 253.138L166.61 253.027C165.159 252.253 163.708 251.437 162.296 250.604H162.294ZM213.942 267.364L213.707 267.337L212.469 277.961L212.705 277.988C214.454 278.191 216.243 278.372 218.022 278.52L218.258 278.541L219.158 267.885L218.922 267.864C217.256 267.723 215.579 267.555 213.941 267.364L213.942 267.364ZM173.266 256.319L173.051 256.22L168.607 265.948L168.823 266.047C173.652 268.25 178.724 270.205 183.897 271.857L184.122 271.929L187.377 261.742L187.152 261.67C182.382 260.148 177.71 258.346 173.266 256.319ZM183.815 271.333C178.814 269.728 173.912 267.839 169.236 265.714L173.285 256.846C177.611 258.81 182.15 260.559 186.782 262.047L183.813 271.333H183.815ZM253.271 265.282C250.869 265.83 248.415 266.31 245.975 266.709L245.741 266.747L247.472 277.3L247.706 277.263C250.361 276.828 253.032 276.305 255.649 275.71L255.88 275.657L253.503 265.23L253.273 265.282H253.271ZM272.159 259.314C270.635 259.936 269.078 260.537 267.533 261.095L267.309 261.175L270.952 271.231L271.174 271.151C272.857 270.541 274.553 269.888 276.208 269.21L276.427 269.12L272.374 259.222L272.156 259.31L272.159 259.314ZM271.237 270.625L267.917 261.46C269.32 260.948 270.732 260.406 272.12 259.841L275.812 268.862C274.305 269.477 272.767 270.069 271.237 270.625ZM255.349 17.8058L255.117 17.7546L252.764 28.1872L252.995 28.2384C255.4 28.7793 257.823 29.4056 260.195 30.0949L260.423 30.1615L263.413 19.8927L263.186 19.8261C260.609 19.0753 257.971 18.3962 255.349 17.8058ZM226.382 25.2608L225.945 14.5757L225.708 14.5859C220.298 14.806 214.929 15.2719 209.75 15.9681L209.514 15.9988L210.941 26.5986L211.175 26.5662C216.025 25.9144 221.061 25.4775 226.143 25.2711L226.379 25.2608L226.382 25.2608ZM241.065 267.41C236.174 268.008 231.181 268.313 226.218 268.316L225.981 268.316L225.986 279.012L226.223 279.012C231.615 279.008 237.045 278.677 242.364 278.027L242.6 277.998L241.301 267.383L241.065 267.412V267.41Z" fill="url(#paint1_linear_60_1078)"/>
<path style="mix-blend-mode:screen" d="M230.099 293.536L229.837 283.754C232.265 283.689 234.716 283.559 237.127 283.366L237.904 293.121C235.324 293.326 232.698 293.466 230.1 293.536L230.099 293.536ZM222.128 293.4C219.538 293.248 216.94 293.045 214.401 292.794L215.364 283.056C217.773 283.295 220.241 283.487 222.7 283.631L222.126 293.4L222.128 293.4ZM206.695 291.869C204.128 291.506 201.548 291.084 199.029 290.615L200.824 280.994C203.204 281.438 205.642 281.837 208.068 282.18L206.697 291.869L206.695 291.869ZM261.034 289.41L258.712 279.904C261.066 279.329 263.434 278.684 265.749 277.986L268.576 287.356C266.094 288.103 263.557 288.796 261.034 289.41ZM191.416 289.014C188.886 288.42 186.35 287.762 183.879 287.057L186.568 277.647C188.89 278.309 191.273 278.928 193.653 279.486L191.416 289.013V289.014ZM276 284.899L272.673 275.695C274.945 274.874 277.224 273.981 279.45 273.041L283.264 282.054C280.879 283.063 278.436 284.018 276 284.899ZM176.435 284.735C173.968 283.897 171.504 282.987 169.111 282.035L172.735 272.944C174.973 273.835 177.278 274.684 179.588 275.469L176.435 284.733V284.735ZM161.934 278.954C159.566 277.863 157.209 276.698 154.923 275.49L159.5 266.839C161.629 267.963 163.827 269.05 166.033 270.067L161.934 278.954ZM290.367 278.826L286.079 270.029C288.25 268.972 290.424 267.84 292.541 266.666L297.293 275.222C295.024 276.481 292.696 277.694 290.369 278.827L290.367 278.826ZM148.11 271.644C145.877 270.301 143.659 268.879 141.517 267.419L147.031 259.334C149.021 260.691 151.084 262.011 153.158 263.259L148.11 271.642L148.11 271.644ZM304.016 271.251L298.814 262.962C300.865 261.677 302.908 260.319 304.887 258.928L310.52 266.931C308.402 268.42 306.213 269.874 304.016 271.251ZM135.173 262.827C133.111 261.243 131.067 259.578 129.101 257.877L135.503 250.473C137.329 252.051 139.226 253.597 141.139 255.068L135.173 262.827ZM316.787 262.269L310.737 254.575C312.639 253.08 314.529 251.514 316.35 249.918L322.798 257.281C320.847 258.989 318.824 260.667 316.785 262.267L316.787 262.269ZM123.32 252.585C121.456 250.777 119.618 248.888 117.856 246.97L125.067 240.351C126.702 242.131 128.409 243.885 130.139 245.564L123.32 252.585ZM328.541 251.983L321.712 244.972C323.447 243.284 325.161 241.527 326.805 239.747L333.995 246.388C332.233 248.294 330.398 250.176 328.541 251.985V251.983ZM339.147 240.508L331.615 234.258C333.164 232.393 334.683 230.463 336.129 228.521L343.982 234.363C342.433 236.443 340.807 238.51 339.147 240.508ZM103.499 228.374C102.094 226.195 100.728 223.943 99.4375 221.677L107.948 216.839C109.148 218.948 110.419 221.047 111.727 223.074L103.499 228.376L103.499 228.374ZM348.483 227.971L340.332 222.552C341.674 220.535 342.98 218.453 344.212 216.368L352.642 221.344C351.322 223.579 349.923 225.808 348.483 227.97L348.483 227.971ZM95.7552 214.769C94.6011 212.454 93.4898 210.068 92.4536 207.678L101.438 203.789C102.404 206.019 103.441 208.244 104.518 210.403L95.7569 214.769L95.7552 214.769ZM89.5395 200.426C88.6398 198.005 87.788 195.517 87.0112 193.036L96.3544 190.111C97.0816 192.432 97.8772 194.756 98.7171 197.02L89.5395 200.428L89.5395 200.426ZM362.921 200.259L353.803 196.692C354.687 194.433 355.522 192.121 356.282 189.819L365.577 192.891C364.761 195.358 363.866 197.837 362.919 200.259H362.921ZM84.8705 185.526C84.2252 183.023 83.6362 180.463 83.1189 177.921L92.7114 175.967C93.1962 178.347 93.7476 180.743 94.3519 183.088L84.8705 185.526ZM367.832 185.407L358.385 182.84C359.022 180.501 359.6 178.117 360.109 175.755L369.681 177.813C369.136 180.344 368.515 182.9 367.832 185.407ZM371.12 170.131L361.453 168.589C361.835 166.197 362.156 163.765 362.412 161.359L372.148 162.388C371.875 164.965 371.53 167.57 371.12 170.131ZM80.1895 154.723C80.0597 152.14 79.9915 149.515 79.9897 146.927L89.7802 146.918C89.7819 149.346 89.8451 151.805 89.968 154.228L80.1895 154.723ZM372.762 154.6L362.986 154.088C363.112 151.676 363.177 149.222 363.177 146.795L363.177 146.473L372.966 146.434L372.966 146.795C372.966 149.392 372.897 152.018 372.762 154.6ZM362.967 139.168C362.835 136.752 362.636 134.307 362.376 131.899L372.11 130.848C372.389 133.426 372.602 136.045 372.744 138.634L362.967 139.168ZM91.3951 125.06L81.7122 123.61C82.0964 121.041 82.5522 118.456 83.0626 115.924L92.6584 117.861C92.1804 120.233 91.7536 122.654 91.3934 125.058L91.3951 125.06ZM361.4 124.673C361.012 122.289 360.555 119.879 360.039 117.509L369.604 115.429C370.157 117.968 370.647 120.55 371.062 123.106L361.398 124.673L361.4 124.673ZM94.2887 110.74L84.8039 108.317C85.4475 105.802 86.1628 103.275 86.931 100.806L96.2793 103.713C95.5606 106.022 94.8914 108.387 94.2887 110.74ZM358.3 110.431C357.658 108.095 356.944 105.747 356.179 103.454L365.468 100.361C366.287 102.818 367.052 105.335 367.74 107.838L358.3 110.43L358.3 110.431ZM104.398 83.4216L95.6288 79.0738C96.7846 76.7447 98.0171 74.4223 99.2924 72.1717L107.813 76.9921C106.625 79.0892 105.477 81.2528 104.4 83.4233L104.398 83.4216ZM347.638 83.367C346.519 81.2272 345.324 79.0875 344.089 77.0057L352.509 72.0147C353.832 74.2449 355.111 76.5382 356.312 78.8298L347.638 83.367ZM340.206 70.8407C338.865 68.8323 337.45 66.8291 335.999 64.8873L343.844 59.0328C345.397 61.1128 346.915 63.2577 348.35 65.4094L340.207 70.8407L340.206 70.8407ZM111.57 70.7622L103.33 65.4794C104.735 63.2901 106.217 61.1179 107.734 59.0208L115.666 64.7576C114.255 66.7062 112.878 68.7265 111.572 70.7622L111.57 70.7622ZM331.48 59.1642C329.934 57.3077 328.314 55.4648 326.665 53.6868L333.846 47.0355C335.612 48.9397 337.346 50.914 339.004 52.9019L331.48 59.1642ZM120.096 58.9867L112.502 52.8114C114.144 50.7928 115.867 48.7964 117.62 46.8802L124.848 53.4803C123.221 55.2601 121.623 57.1131 120.097 58.9884L120.096 58.9867ZM321.564 48.4705C319.824 46.7829 318.016 45.1209 316.193 43.5289L322.631 36.1558C324.584 37.8604 326.519 39.6402 328.382 41.4472L321.564 48.4688V48.4705ZM310.566 38.8774C308.661 37.3861 306.688 35.9237 304.702 34.5314L310.322 26.5183C312.451 28.0097 314.564 29.5761 316.604 31.175L310.566 38.8774ZM140.878 38.7204L134.891 30.977C136.945 29.3901 139.076 27.8391 141.223 26.3682L146.758 34.4392C144.762 35.806 142.785 37.2461 140.877 38.7204L140.878 38.7204ZM298.613 30.501C296.557 29.2178 294.439 27.9722 292.317 26.7999L297.054 18.2357C299.328 19.4916 301.597 20.826 303.799 22.2013L298.613 30.501ZM152.876 30.4993L147.806 22.1279C150.02 20.7867 152.311 19.4865 154.611 18.2647L159.21 26.904C157.069 28.0421 154.938 29.2519 152.878 30.4993L152.876 30.4993ZM165.733 23.6585L161.61 14.7821C163.95 13.6968 166.362 12.6543 168.781 11.6834L172.428 20.7645C170.169 21.6706 167.916 22.6432 165.733 23.6568V23.6585ZM179.274 18.2255L176.1 8.96856C178.533 8.13586 181.035 7.34753 183.538 6.62745L186.247 16.0311C183.9 16.7068 181.554 17.4457 179.275 18.2255L179.274 18.2255ZM272.364 17.7818C270.085 16.9662 267.753 16.2001 265.433 15.5073L268.238 6.13091C270.723 6.87317 273.224 7.69392 275.667 8.56928L272.364 17.7818ZM258.393 13.6064C256.04 13.0382 253.64 12.528 251.258 12.0861L253.044 2.46397C255.596 2.93662 258.169 3.48607 260.69 4.09353L258.393 13.6064ZM207.737 11.4547L206.347 1.76778C208.877 1.40432 211.47 1.08865 214.051 0.829285L215.031 10.5657C212.587 10.8114 210.134 11.11 207.737 11.453L207.737 11.4547ZM244.054 10.9479C241.656 10.634 239.215 10.3814 236.797 10.1954L237.55 0.438531C240.14 0.638174 242.755 0.909483 245.324 1.24563L244.056 10.9479L244.054 10.9479ZM222.369 9.97701L221.78 0.209881C223.142 0.127976 224.533 0.0580158 225.914 0.0034127L226.109 1.17728e-09C227.316 1.18701e-09 228.54 0.0153571 229.747 0.044365L229.51 9.82685C228.414 9.79955 227.304 9.7859 226.206 9.7859C224.922 9.83709 223.634 9.90193 222.37 9.97872L222.369 9.97701Z" fill="url(#paint2_linear_60_1078)"/>
<path d="M226.478 248.405C170.424 248.405 124.821 202.823 124.821 146.795C124.821 90.7674 170.424 45.1858 226.478 45.1858C282.532 45.1858 328.135 90.7674 328.135 146.795C328.135 202.823 282.532 248.405 226.478 248.405ZM226.478 57.8332C177.401 57.8332 137.476 97.7413 137.476 146.795C137.476 195.849 177.403 235.757 226.478 235.757C275.553 235.757 315.481 195.849 315.481 146.795C315.481 97.7413 275.555 57.8332 226.478 57.8332Z" fill="url(#paint3_linear_60_1078)"/>
<path d="M226.478 220.752C226.401 220.752 226.324 220.743 226.249 220.723C226.082 220.682 209.374 216.414 192.915 203.758C183.236 196.315 175.521 187.468 169.987 177.462C163.069 164.956 159.561 150.606 159.561 134.812L159.561 98.6763C159.561 98.2122 159.898 97.8164 160.357 97.7413C160.78 97.6713 202.912 90.6258 225.902 72.9788C226.242 72.7177 226.717 72.7177 227.056 72.9788C250.047 90.6258 292.18 97.6713 292.602 97.7413C293.061 97.8164 293.398 98.2122 293.398 98.6763L293.398 134.812C293.398 150.606 289.889 164.956 282.972 177.462C277.438 187.468 269.723 196.315 260.044 203.758C243.585 216.414 226.877 220.68 226.71 220.723C226.635 220.742 226.558 220.752 226.481 220.752H226.478ZM161.455 99.4732L161.455 134.813C161.455 169.797 179.161 190.776 194.015 202.216C209.121 213.85 224.433 218.271 226.478 218.825C228.525 218.271 243.834 213.85 258.941 202.216C273.794 190.776 291.501 169.799 291.501 134.813L291.501 99.4732C285.584 98.4119 248.174 91.194 226.478 74.9206C204.782 91.194 167.371 98.4119 161.455 99.4732Z" fill="url(#paint4_linear_60_1078)"/>
<path d="M226.478 186.251C221.527 186.251 217.502 182.226 217.502 177.278L217.502 145.522C210.67 142.123 206.287 135.102 206.287 127.462C206.287 116.334 215.345 107.281 226.478 107.281C237.61 107.281 246.668 116.335 246.668 127.462C246.668 135.102 242.288 142.123 235.454 145.522L235.454 177.278C235.454 182.226 231.427 186.251 226.478 186.251ZM226.478 109.176C216.39 109.176 208.182 117.38 208.182 127.462C208.182 134.568 212.368 141.084 218.845 144.067C219.181 144.222 219.396 144.557 219.396 144.927L219.396 177.278C219.396 181.182 222.573 184.357 226.478 184.357C230.382 184.357 233.559 181.182 233.559 177.278L233.559 144.927C233.559 144.557 233.774 144.221 234.11 144.067C240.587 141.086 244.773 134.568 244.773 127.462C244.773 117.38 236.565 109.176 226.478 109.176Z" fill="url(#paint5_linear_60_1078)"/>
<path d="M226.466 178.332C225.563 178.332 224.825 179.006 224.709 179.876L191.114 179.876C191.051 179.876 190.991 179.902 190.947 179.946L89.2971 281.547L3.53719 281.547C3.42111 280.677 2.68192 280.003 1.78055 280.003C0.797234 280.003 -8.25584e-10 280.8 -8.33502e-10 281.783C-8.41421e-10 282.766 0.797234 283.562 1.78055 283.562C2.68362 283.562 3.42111 282.888 3.53719 282.018L89.3944 282.018C89.4575 282.018 89.5173 281.993 89.5617 281.948L191.212 180.347L224.709 180.347C224.825 181.217 225.564 181.891 226.466 181.891C227.449 181.891 228.246 181.095 228.246 180.112C228.246 179.129 227.449 178.332 226.466 178.332Z" fill="url(#paint6_linear_60_1078)"/>
<path d="M228.239 82.8364C227.601 82.1982 226.602 82.1538 225.904 82.6862L173.266 30.0727C173.222 30.0283 173.162 30.0027 173.099 30.0027L3.53719 30.0027C3.42111 29.1325 2.68192 28.4585 1.78055 28.4585C0.797234 28.4585 0 29.2554 0 30.2382C0 31.2211 0.797234 32.0196 1.78055 32.0196C2.68362 32.0196 3.42111 31.3456 3.53719 30.4754L173.001 30.4754L225.571 83.0207C225.039 83.7186 225.083 84.7168 225.721 85.3549C226.416 86.0494 227.545 86.0494 228.241 85.3549C228.936 84.6605 228.936 83.5326 228.241 82.8364L228.239 82.8364Z" fill="url(#paint7_linear_60_1078)"/>
<path d="M132.986 141.101C132.348 140.463 131.349 140.419 130.651 140.951L78.0128 88.3376C77.9685 88.2932 77.9087 88.2676 77.8456 88.2676L3.53719 88.2676C3.42111 87.3974 2.68192 86.7234 1.78055 86.7234C0.797234 86.7234 0 87.5203 0 88.5031C0 89.486 0.797234 90.2828 1.78055 90.2828C2.68362 90.2828 3.42111 89.6088 3.53719 88.7386L77.7482 88.7386L130.318 141.284C129.785 141.982 129.83 142.98 130.468 143.618C131.163 144.313 132.291 144.313 132.988 143.618C133.684 142.924 133.683 141.796 132.988 141.1L132.986 141.101Z" fill="url(#paint8_linear_60_1078)"/>
<path d="M741.218 17.9575C740.315 17.9575 739.577 18.6315 739.461 19.5018L354.482 19.5018C354.419 19.5018 354.359 19.5274 354.315 19.5717L270.054 103.794C269.356 103.261 268.357 103.306 267.719 103.944C267.024 104.638 267.024 105.766 267.719 106.462C268.413 107.157 269.542 107.157 270.238 106.462C270.877 105.824 270.921 104.826 270.389 104.128L354.58 19.9761L739.459 19.9761C739.575 20.8464 740.315 21.5204 741.216 21.5204C742.199 21.5204 742.996 20.7235 742.996 19.7407C742.996 18.7578 742.199 17.9609 741.216 17.9609L741.218 17.9575Z" fill="url(#paint9_linear_60_1078)"/>
<path d="M700.554 43.0732C699.651 43.0732 698.913 43.7472 698.797 44.6175L345.079 44.6175C345.016 44.6175 344.957 44.6431 344.912 44.6874L304.714 84.8668C304.016 84.3344 303.017 84.3788 302.379 85.017C301.684 85.7114 301.684 86.8393 302.379 87.5355C303.074 88.23 304.202 88.23 304.899 87.5355C305.537 86.8974 305.581 85.8991 305.049 85.2012L345.178 45.0901L698.799 45.0901C698.917 45.9604 699.654 46.6344 700.555 46.6344C701.539 46.6344 702.336 45.8375 702.336 44.8547C702.336 43.8718 701.539 43.0749 700.555 43.0749L700.554 43.0732Z" fill="url(#paint10_linear_60_1078)"/>
<path d="M700.554 60.5479C699.651 60.5479 698.913 61.2219 698.797 62.0921L406.176 62.0921C406.113 62.0921 406.053 62.1177 406.009 62.1621L324.404 143.729L281.731 143.729C281.615 142.859 280.876 142.185 279.974 142.185C278.991 142.185 278.194 142.981 278.194 143.964C278.194 144.947 278.991 145.744 279.974 145.744C280.877 145.744 281.615 145.07 281.731 144.2L324.501 144.2C324.565 144.2 324.624 144.174 324.669 144.13L406.273 62.563L698.795 62.563C698.913 63.4333 699.65 64.1073 700.552 64.1073C701.535 64.1073 702.332 63.3104 702.332 62.3276C702.332 61.3447 701.535 60.5479 700.552 60.5479L700.554 60.5479Z" fill="url(#paint11_linear_60_1078)"/>
<path d="M452.783 236.705C451.88 236.705 451.142 237.379 451.026 238.249L400.701 238.249L368.324 205.888C368.279 205.844 368.22 205.818 368.157 205.818L229.639 205.818C229.523 204.948 228.784 204.274 227.883 204.274C226.899 204.274 226.102 205.071 226.102 206.053C226.102 207.036 226.899 207.833 227.883 207.833C228.786 207.833 229.523 207.159 229.639 206.289L368.059 206.289L400.437 238.65C400.481 238.694 400.541 238.72 400.604 238.72L451.026 238.72C451.142 239.59 451.882 240.264 452.783 240.264C453.766 240.264 454.563 239.467 454.563 238.484C454.563 237.501 453.766 236.705 452.783 236.705Z" fill="url(#paint12_linear_60_1078)"/>
<defs>
<linearGradient id="paint0_linear_60_1078" x1="115.886" y1="146.802" x2="337.07" y2="146.802" gradientUnits="userSpaceOnUse">
<stop stop-color="#4CC9F0"/>
<stop offset="1" stop-color="#2484C6"/>
</linearGradient>
<linearGradient id="paint1_linear_60_1078" x1="94.5312" y1="146.795" x2="358.423" y2="146.795" gradientUnits="userSpaceOnUse">
<stop stop-color="#00CAF9"/>
<stop offset="1" stop-color="#DD0EE2"/>
</linearGradient>
<linearGradient id="paint2_linear_60_1078" x1="226.478" y1="293.536" x2="226.478" y2="-0.00171463" gradientUnits="userSpaceOnUse">
<stop stop-color="#883D50"/>
<stop offset="0.29" stop-color="#562B67"/>
<stop offset="0.53" stop-color="#3D2255"/>
<stop offset="0.82" stop-color="#271B45"/>
<stop offset="1" stop-color="#201940"/>
</linearGradient>
<linearGradient id="paint3_linear_60_1078" x1="226.478" y1="248.405" x2="226.478" y2="45.1841" gradientUnits="userSpaceOnUse">
<stop stop-color="#4CC9F0"/>
<stop offset="0.09" stop-color="#00CAF9"/>
<stop offset="0.24" stop-color="#4361EE"/>
<stop offset="0.45" stop-color="#6EA3C6"/>
<stop offset="0.69" stop-color="#A35FAE"/>
<stop offset="0.97" stop-color="#E4098F"/>
<stop offset="1" stop-color="#EC008C"/>
</linearGradient>
<linearGradient id="paint4_linear_60_1078" x1="226.479" y1="72.783" x2="226.479" y2="220.752" gradientUnits="userSpaceOnUse">
<stop stop-color="#DD0EE2"/>
<stop offset="1" stop-color="#00CAF9"/>
</linearGradient>
<linearGradient id="paint5_linear_60_1078" x1="226.478" y1="107.281" x2="226.478" y2="186.251" gradientUnits="userSpaceOnUse">
<stop stop-color="#DD0EE2"/>
<stop offset="1" stop-color="#00CAF9"/>
</linearGradient>
<linearGradient id="paint6_linear_60_1078" x1="-0.00170714" y1="230.949" x2="228.246" y2="230.949" gradientUnits="userSpaceOnUse">
<stop stop-color="#EC008C"/>
<stop offset="1" stop-color="#00CAF9" stop-opacity="0.4"/>
</linearGradient>
<linearGradient id="paint7_linear_60_1078" x1="-0.00170714" y1="57.1678" x2="228.762" y2="57.1678" gradientUnits="userSpaceOnUse">
<stop stop-color="#EC008C"/>
<stop offset="1" stop-color="#00CAF9" stop-opacity="0.4"/>
</linearGradient>
<linearGradient id="paint8_linear_60_1078" x1="-0.00170714" y1="115.433" x2="133.509" y2="115.433" gradientUnits="userSpaceOnUse">
<stop stop-color="#EC008C"/>
<stop offset="1" stop-color="#00CAF9" stop-opacity="0.4"/>
</linearGradient>
<linearGradient id="paint9_linear_60_1078" x1="267.198" y1="62.4693" x2="742.998" y2="62.4693" gradientUnits="userSpaceOnUse">
<stop stop-color="#00CAF9" stop-opacity="0.4"/>
<stop offset="1" stop-color="#EC008C"/>
</linearGradient>
<linearGradient id="paint10_linear_60_1078" x1="301.856" y1="65.5646" x2="702.336" y2="65.5646" gradientUnits="userSpaceOnUse">
<stop stop-color="#00CAF9" stop-opacity="0.4"/>
<stop offset="1" stop-color="#EC008C"/>
</linearGradient>
<linearGradient id="paint11_linear_60_1078" x1="278.194" y1="103.145" x2="702.336" y2="103.145" gradientUnits="userSpaceOnUse">
<stop stop-color="#00CAF9" stop-opacity="0.4"/>
<stop offset="1" stop-color="#EC008C"/>
</linearGradient>
<linearGradient id="paint12_linear_60_1078" x1="226.102" y1="222.271" x2="454.563" y2="222.271" gradientUnits="userSpaceOnUse">
<stop stop-color="white"/>
<stop offset="1" stop-color="#EC008C"/>
</linearGradient>
</defs>
</svg>
