<?xml version="1.0" encoding="UTF-8"?>
<svg id="Layer_2" data-name="Layer 2" xmlns="http://www.w3.org/2000/svg" viewBox="0 0 441.76 381.21">
  <defs>
    <style>
      .cls-1 {
        fill: #242b84;
      }

      .cls-1, .cls-2, .cls-3, .cls-4, .cls-5, .cls-6, .cls-7, .cls-8, .cls-9, .cls-10, .cls-11 {
        stroke-width: 0px;
      }

      .cls-2 {
        fill: #1e2584;
      }

      .cls-3 {
        fill: #4653b7;
      }

      .cls-4 {
        fill: #0071ba;
      }

      .cls-12 {
        stroke-miterlimit: 10;
        stroke-width: 2px;
      }

      .cls-12, .cls-5, .cls-13 {
        fill: none;
      }

      .cls-12, .cls-13 {
        stroke: #0071ba;
      }

      .cls-6 {
        fill: #0d5acc;
      }

      .cls-7 {
        fill: #22297f;
      }

      .cls-8 {
        fill: #0046b7;
      }

      .cls-9 {
        fill: #353d9b;
      }

      .cls-10 {
        fill: #2e3192;
      }

      .cls-11 {
        fill: #003cb5;
      }

      .cls-13 {
        stroke-linecap: round;
        stroke-linejoin: round;
        stroke-width: 1.5px;
      }
    </style>
  </defs>
  <g id="OBJECTS">
    <g>
      <g>
        <g>
          <circle class="cls-4" cx="195.11" cy="4.7" r="4.16"/>
          <polyline class="cls-12" points="231.79 97.17 232.29 27.67 195.71 5.58"/>
        </g>
        <g>
          <polyline class="cls-12" points="272.96 243.83 375.96 303.17 431.79 291.83"/>
          <circle class="cls-4" cx="431.35" cy="292.43" r="4.16"/>
        </g>
        <g>
          <g>
            <circle class="cls-4" cx="417.19" cy="316.28" r="4.16"/>
            <polyline class="cls-12" points="253.96 254.83 374.79 324.58 417.63 316.17"/>
          </g>
          <line class="cls-12" x1="319.29" y1="292.58" x2="319.17" y2="356.58"/>
          <line class="cls-12" x1="319.29" y1="312.67" x2="291.46" y2="329.5"/>
          <line class="cls-12" x1="319.12" y1="334.67" x2="300.79" y2="346"/>
          <circle class="cls-4" cx="300.81" cy="346.22" r="4.16"/>
          <circle class="cls-4" cx="318.69" cy="356.72" r="4.16"/>
          <circle class="cls-4" cx="291.48" cy="329.89" r="4.16"/>
        </g>
        <g>
          <polyline class="cls-12" points="231.37 273.08 257.71 288.75 257.04 331.08 219.71 353.42 220.37 374.08"/>
          <circle class="cls-4" cx="219.9" cy="374.14" r="4.16"/>
        </g>
        <g>
          <circle class="cls-4" cx="40.1" cy="312.45" r="4.16"/>
          <polyline class="cls-12" points="197.46 264.29 132.96 301.79 77.29 290.79 39.29 312.46"/>
        </g>
        <g>
          <circle class="cls-4" cx="206.31" cy="323.39" r="4.16"/>
          <circle class="cls-4" cx="150.31" cy="377.05" r="4.16"/>
          <polyline class="cls-12" points="215.96 274.75 168.96 301.75 169.62 366.08 150.29 377.08"/>
          <polyline class="cls-12" points="189.29 290.75 205.96 301.75 206.21 323.33"/>
        </g>
        <g>
          <circle class="cls-4" cx="36.07" cy="271.28" r="4.16"/>
          <circle class="cls-4" cx="111.32" cy="270.53" r="4.16"/>
          <polyline class="cls-12" points="141.83 231.63 92.58 260.5 55.67 260.67 36 271.67"/>
          <polyline class="cls-12" points="111.08 249 129.58 259.75 111.08 270.75"/>
        </g>
        <g>
          <polyline class="cls-12" points="318.46 172.83 372.46 141.33 372.96 98.33 410.96 76.33"/>
          <circle class="cls-4" cx="410.6" cy="75.66" r="4.16"/>
          <circle class="cls-4" cx="428.27" cy="140.14" r="4.16"/>
          <polyline class="cls-12" points="345.42 157.08 372.46 173.33 428.96 139.83"/>
        </g>
        <g>
          <polyline class="cls-12" points="168.62 160.79 88.87 115.13 106.38 105.29 56.71 76.29"/>
          <circle class="cls-4" cx="55.86" cy="75.57" r="4.16"/>
          <circle class="cls-4" cx="75.86" cy="43.07" r="4.16"/>
          <line class="cls-12" x1="74.88" y1="87.38" x2="75.62" y2="43.88"/>
          <polyline class="cls-12" points="123.5 134.88 159.5 114.13 190.71 132.33"/>
        </g>
        <g>
          <circle class="cls-4" cx="4.16" cy="246.99" r="4.16"/>
          <polyline class="cls-12" points="104 210.62 59.25 236.62 39.75 226.04 3.75 247.04"/>
        </g>
        <g>
          <circle class="cls-4" cx="28.84" cy="155.43" r="4.16"/>
          <circle class="cls-4" cx="9.7" cy="122.78" r="4.16"/>
          <polyline class="cls-13" points="132.71 173.83 65.62 133.17 28.96 155.17"/>
          <line class="cls-13" x1="47.12" y1="144.33" x2="9.62" y2="123.17"/>
        </g>
        <g>
          <polyline class="cls-12" points="301.17 229.29 316.13 237.67 372.13 204.67 427.79 237"/>
          <circle class="cls-4" cx="428.02" cy="236.93" r="4.16"/>
          <circle class="cls-4" cx="437.6" cy="214.18" r="4.16"/>
          <polyline class="cls-12" points="397.46 218.83 421.29 203.71 437.79 213.92"/>
        </g>
        <g>
          <circle class="cls-4" cx="348.02" cy="7.82" r="4.16"/>
          <polyline class="cls-12" points="315.79 69 335.13 80.33 299.46 101.67"/>
          <polyline class="cls-12" points="281.13 89 347.63 50.5 307.13 28 348.63 8"/>
        </g>
      </g>
      <g>
        <g>
          <g>
            <g>
              <path class="cls-2" d="m312.37,224.95v-9.61h0c.01,1.35-.64,2.71-1.96,3.5l-83.32,49.54c-2.04,1.21-4.57,1.23-6.62.04l-121.19-70.12c-1.35-.78-2.01-2.15-2-3.51h-.03s.12,10.13.12,10.13c-.08,1.43.57,2.9,1.99,3.72l120.55,69.75c2.44,1.41,5.46,1.4,7.89-.05l82.68-49.16c1.56-.93,2.18-2.65,1.88-4.22Z"/>
              <path class="cls-9" d="m99.28,198.3l121.19,70.12c2.05,1.19,4.58,1.17,6.62-.04l83.32-49.54c1.32-.79,1.98-2.14,1.96-3.49-.01-1.34-.68-2.67-2-3.44l-121.56-70.4c-1.25-.72-2.79-.72-4.04,0l-85.51,49.84c-1.32.77-1.98,2.1-1.99,3.44-.01,1.36.66,2.73,2,3.51Z"/>
            </g>
            <g>
              <g>
                <polygon class="cls-4" points="184.45 150.22 175.81 155.5 184.45 160.78 193.41 155.34 184.45 150.22"/>
                <polygon class="cls-4" points="194.93 156.22 186.29 161.5 194.93 166.79 203.9 161.34 194.93 156.22"/>
                <polygon class="cls-4" points="205.42 162.22 196.77 167.51 205.42 172.79 214.38 167.35 205.42 162.22"/>
                <polygon class="cls-4" points="215.9 168.23 207.26 173.51 215.9 178.79 224.86 173.35 215.9 168.23"/>
                <polygon class="cls-4" points="226.39 174.23 217.74 179.51 226.39 184.79 235.35 179.35 226.39 174.23"/>
                <polygon class="cls-4" points="236.87 180.23 228.23 185.51 236.87 190.79 245.83 185.35 236.87 180.23"/>
                <polygon class="cls-4" points="247.35 186.23 238.71 191.51 247.35 196.8 256.32 191.35 247.35 186.23"/>
                <polygon class="cls-4" points="257.84 192.23 249.19 197.52 257.84 202.8 266.8 197.36 257.84 192.23"/>
                <polygon class="cls-4" points="268.32 198.24 259.68 203.52 268.32 208.8 277.28 203.36 268.32 198.24"/>
                <polygon class="cls-4" points="278.8 204.24 270.16 209.52 285.03 218.2 292 211.79 278.8 204.24"/>
                <polygon class="cls-4" points="289.29 210.24 280.64 215.52 289.29 220.8 298.25 215.36 289.29 210.24"/>
              </g>
              <g>
                <polygon class="cls-4" points="174.21 156.3 165.56 161.58 174.21 166.87 183.17 161.42 174.21 156.3"/>
                <polygon class="cls-4" points="184.69 162.3 176.05 167.59 184.69 172.87 193.65 167.43 184.69 162.3"/>
                <polygon class="cls-4" points="195.17 168.31 186.53 173.59 195.17 178.87 204.14 173.43 195.17 168.31"/>
                <polygon class="cls-4" points="205.66 174.31 197.01 179.59 205.66 184.87 214.62 179.43 205.66 174.31"/>
                <polygon class="cls-4" points="216.14 180.31 207.5 185.59 216.14 190.87 225.1 185.43 216.14 180.31"/>
                <polygon class="cls-4" points="226.63 186.31 217.98 191.59 226.63 196.88 235.59 191.43 226.63 186.31"/>
                <polygon class="cls-4" points="237.11 192.31 228.47 197.6 237.11 202.88 246.07 197.44 237.11 192.31"/>
                <polygon class="cls-4" points="247.59 198.32 238.95 203.6 247.59 208.88 256.56 203.44 247.59 198.32"/>
                <polygon class="cls-4" points="258.08 204.32 249.43 209.6 258.08 214.88 267.04 209.44 258.08 204.32"/>
                <polygon class="cls-4" points="268.56 210.32 259.92 215.6 268.56 220.88 277.52 215.44 268.56 210.32"/>
                <polygon class="cls-4" points="279.04 216.32 270.4 221.6 279.04 226.89 288.01 221.44 279.04 216.32"/>
              </g>
              <g>
                <polygon class="cls-4" points="163.96 162.38 155.32 167.67 170.53 176.59 176.13 169.37 163.96 162.38"/>
                <polygon class="cls-4" points="174.45 168.39 165.8 173.67 174.45 178.95 183.41 173.51 174.45 168.39"/>
                <polygon class="cls-4" points="184.93 174.39 176.29 179.67 184.93 184.95 193.89 179.51 184.93 174.39"/>
                <polygon class="cls-4" points="195.41 180.39 186.77 185.67 195.41 190.95 204.38 185.51 195.41 180.39"/>
                <polygon class="cls-4" points="205.9 186.39 197.25 191.67 205.9 196.96 214.86 191.51 205.9 186.39"/>
                <polygon class="cls-4" points="216.38 192.39 207.74 197.68 216.38 202.96 225.34 197.52 216.38 192.39"/>
                <polygon class="cls-4" points="226.87 198.4 218.22 203.68 226.87 208.96 235.83 203.52 226.87 198.4"/>
                <polygon class="cls-4" points="237.35 204.4 228.71 209.68 237.35 214.96 246.31 209.52 237.35 204.4"/>
                <polygon class="cls-4" points="247.83 210.4 239.19 215.68 247.83 220.96 256.8 215.52 247.83 210.4"/>
                <polygon class="cls-4" points="258.32 216.4 249.67 221.68 258.32 226.97 267.28 221.52 258.32 216.4"/>
                <polygon class="cls-4" points="268.8 222.41 260.16 227.69 268.8 232.97 277.76 227.53 268.8 222.41"/>
              </g>
              <g>
                <polygon class="cls-4" points="153.72 168.47 145.08 173.75 159.45 182.06 167.53 176.39 153.72 168.47"/>
                <polygon class="cls-4" points="164.2 174.47 155.56 179.75 164.2 185.03 173.17 179.59 164.2 174.47"/>
                <polygon class="cls-4" points="174.69 180.47 166.04 185.75 174.69 191.03 183.65 185.59 174.69 180.47"/>
                <polygon class="cls-4" points="185.17 186.47 176.53 191.75 185.17 197.04 194.13 191.59 185.17 186.47"/>
                <polygon class="cls-4" points="195.65 192.47 187.01 197.76 195.65 203.04 204.62 197.6 195.65 192.47"/>
                <polygon class="cls-4" points="206.14 198.48 197.5 203.76 206.14 209.04 215.1 203.6 206.14 198.48"/>
                <polygon class="cls-4" points="216.62 204.48 207.98 209.76 216.62 215.04 225.58 209.6 216.62 204.48"/>
                <polygon class="cls-4" points="227.11 210.48 218.46 215.76 227.11 221.04 236.07 215.6 227.11 210.48"/>
                <polygon class="cls-4" points="237.59 216.48 228.95 221.76 237.59 227.05 246.55 221.6 237.59 216.48"/>
                <polygon class="cls-4" points="248.07 222.49 239.43 227.77 248.07 233.05 257.04 227.61 248.07 222.49"/>
                <polygon class="cls-4" points="258.56 228.49 249.91 233.77 258.56 239.05 267.52 233.61 258.56 228.49"/>
              </g>
              <g>
                <polygon class="cls-4" points="143.48 174.55 134.83 179.83 143.48 185.11 152.44 179.67 143.48 174.55"/>
                <polygon class="cls-4" points="153.96 180.55 145.32 185.83 153.96 191.11 162.92 185.67 153.96 180.55"/>
                <polygon class="cls-4" points="164.44 186.55 155.8 191.83 164.44 197.12 173.41 191.67 164.44 186.55"/>
                <polygon class="cls-4" points="174.93 192.55 166.28 197.84 180.2 205.83 188.07 200.09 174.93 192.55"/>
                <polygon class="cls-4" points="185.41 198.56 176.77 203.84 191.41 212.31 198.97 206.35 185.41 198.56"/>
                <polygon class="cls-4" points="195.89 204.56 187.25 209.84 202.16 218.54 209.48 212.34 195.89 204.56"/>
                <polygon class="cls-4" points="206.38 210.56 197.74 215.84 206.38 221.12 215.34 215.68 206.38 210.56"/>
                <polygon class="cls-4" points="216.86 216.56 208.22 221.84 216.86 227.13 225.82 221.68 216.86 216.56"/>
                <polygon class="cls-4" points="227.35 222.57 218.7 227.85 227.35 233.13 236.31 227.69 227.35 222.57"/>
                <polygon class="cls-4" points="237.83 228.57 229.19 233.85 244.19 242.6 251.55 236.42 237.83 228.57"/>
                <polygon class="cls-4" points="248.31 234.57 239.67 239.85 248.31 245.13 257.28 239.69 248.31 234.57"/>
              </g>
            </g>
            <polygon class="cls-2" points="163.28 199.63 141.84 212.42 190.86 240.63 212.44 227.77 163.28 199.63"/>
          </g>
          <g>
            <g>
              <g>
                <path class="cls-2" d="m188.79,36.75h.03c.11-.08.23-.15.34-.23l-.38.23Z"/>
                <path class="cls-2" d="m320.41,101.78l-119.73-69.54c-1.7-.98-3.63-.72-5,.33l-6.29,3.81c1.3-.71,2.95-.8,4.41.05l119.73,69.54c2.21,1.28,3.56,3.64,3.56,6.2l-.15,95.77c0,1.68-.89,3.05-2.14,3.81l6.6-4v-.03c1.39-.73,2.42-2.17,2.42-3.97l.15-95.77c0-2.55-1.35-4.91-3.56-6.2Z"/>
                <path class="cls-3" d="m316.95,207.94l.15-95.77c0-2.55-1.35-4.91-3.56-6.2l-119.73-69.54c-1.47-.85-3.11-.76-4.41-.05-.08.04-.15.09-.23.14-.12.07-.23.15-.34.23-1.04.79-1.75,2.04-1.76,3.54l-.5,96.04c-.01,2.44,1.29,4.71,3.4,5.93l120.25,69.55c1.54.89,3.27.75,4.59-.07,1.25-.77,2.14-2.13,2.14-3.81Z"/>
              </g>
              <polygon class="cls-1" points="194.45 134.95 194.91 46.86 309.44 112.21 309.1 199.54 194.45 134.95"/>
            </g>
            <g>
              <path class="cls-8" d="m276.96,107.9c-20.49-4.25-27.32-18.83-27.32-18.83-12.31,3.94-27.2-8.74-27.2-8.74l-3.81,1.67s1.41,1.44,3.75,3.22c4.67,3.56,13.05,8.48,21.26,5.85,0,0,6.83,14.59,27.32,18.83,0,0,.31,16.74-11.14,30.77-4.36,5.34-8.48,8.74-11.54,10.81-3.12,2.12-5.13,2.86-5.13,2.86l6-2s7.86-2.88,16.67-13.67c11.45-14.03,11.14-30.77,11.14-30.77Z"/>
              <path class="cls-4" d="m259.82,140.67c11.45-14.03,11.14-30.77,11.14-30.77-20.49-4.25-27.32-18.83-27.32-18.83-8.21,2.63-16.59-2.28-21.26-5.85-2.33-1.78-3.75-3.22-3.75-3.22-1.72,45.79,24.53,72.35,24.53,72.35,0,0,2.01-.74,5.13-2.86,3.06-2.08,7.18-5.47,11.54-10.81Zm-19.94-10.97l.09-11.25s-2.95-2.32-1.79-4.91,4.91-1.52,6.52.98c1.61,2.5,1.61,5.89-1.07,5.8v11.6l-3.75-2.23Z"/>
              <path class="cls-1" d="m243.62,120.33c2.68.09,2.68-3.3,1.07-5.8-1.61-2.5-5.35-3.57-6.52-.98s1.79,4.91,1.79,4.91l-.09,11.25,3.75,2.23v-11.6Z"/>
            </g>
          </g>
        </g>
        <g>
          <g>
            <g>
              <path class="cls-7" d="m294.06,24.81c-1.14-14.34-10.29-25.44-20.43-24.78-1.18.08-2.31.31-3.41.68-1.88.53-4.57,1.68-6.03,2.34,1.27-.5,2.6-.81,3.99-.9,10.14-.65,19.3,10.55,20.45,25.02,1.02,12.86-4.62,23.97-13.01,26.74,5.04-1.06,8.11-2.63,9.89-3.84,6.35-3.99,9.45-13.92,8.55-25.25Z"/>
              <path class="cls-7" d="m270.06,54.88c-.14.02-.13.02,0,0h0Z"/>
              <path class="cls-7" d="m270.93,54.73c-.35.06-.59.1-.75.12.18-.03.44-.07.75-.12Z"/>
              <path class="cls-7" d="m270.93,54.73c.27-.04.6-.1,1-.17h0c-.34.06-.69.12-1,.17Z"/>
              <path class="cls-7" d="m270.18,54.86s-.09.01-.12.02c.03,0,.07-.01.12-.02Z"/>
              <path class="cls-10" d="m288.62,27.17c-1.15-14.47-10.3-25.67-20.45-25.02-1.39.09-2.72.4-3.99.9-7.99,3.16-13.29,13.99-12.3,26.48,1.13,14.27,10.06,25.35,20.03,25.03h0c.14,0,.28,0,.42-.01,1.13-.07,2.22-.3,3.27-.64,8.39-2.77,14.03-13.88,13.01-26.74Zm-33.56,2.33c-.97-12.25,4.86-22.6,13.04-23.13s15.59,8.97,16.56,21.22c.97,12.25-4.86,22.6-13.04,23.13-8.17.53-15.59-8.97-16.56-21.22Z"/>
              <ellipse class="cls-7" cx="269.86" cy="28.54" rx="14.83" ry="22.24" transform="translate(-1.48 24.69) rotate(-5.22)"/>
            </g>
            <g>
              <path class="cls-4" d="m258.59,25.87c-.26,0-.47-.21-.48-.47,0-.19-.13-4.78,3.04-10.78,3.29-6.21,7.13-5.32,7.29-5.28.26.07.42.33.35.59-.07.26-.33.42-.59.35-.14-.03-3.29-.7-6.2,4.79-3.04,5.75-2.93,10.25-2.93,10.29,0,.27-.2.49-.47.5,0,0-.01,0-.02,0Z"/>
              <path class="cls-4" d="m281.68,38.62s-.03,0-.05,0c-.27-.03-.46-.27-.43-.53,0-.08.81-7.88-.79-15-1.58-7.02-7.5-11.42-7.56-11.47-.22-.16-.26-.46-.11-.68.16-.22.46-.26.68-.11.26.19,6.28,4.66,7.94,12.04,1.63,7.28.82,15.23.81,15.31-.03.25-.24.43-.48.43Z"/>
              <path class="cls-4" d="m261.03,32.19c-.25,0-.46-.19-.48-.44-1-11.62,2.94-15.34,3.11-15.49.2-.18.51-.17.68.03.18.2.17.5-.03.68-.04.04-3.75,3.63-2.79,14.69.02.27-.17.5-.44.52-.01,0-.03,0-.04,0Z"/>
              <path class="cls-4" d="m275.38,18.22c-.16,0-.32-.08-.41-.23-3.1-5-7.19-3.31-7.36-3.24-.24.11-.53,0-.64-.25-.11-.25,0-.53.25-.64.05-.02,5.02-2.12,8.57,3.61.14.23.07.53-.16.67-.08.05-.17.07-.25.07Z"/>
              <path class="cls-4" d="m265.03,26.52s-.09,0-.13-.02c-.26-.07-.41-.34-.34-.6.06-.21,1.44-5.04,4.55-4.68,2.97.34,4.16,2.75,4.21,2.86.12.24.01.53-.23.65s-.53.01-.65-.23c-.04-.08-1.02-2.03-3.44-2.31-2.27-.26-3.5,3.93-3.51,3.97-.06.21-.25.35-.47.35Z"/>
              <path class="cls-4" d="m262.96,29c-.27,0-.48-.22-.48-.48,0-.26.02-6.45,3.15-9.46,1.17-1.12,2.61-1.65,4.3-1.58.27.01.48.24.46.5s-.24.47-.5.46c-1.41-.06-2.62.38-3.58,1.31-2.83,2.71-2.85,8.7-2.85,8.76,0,.27-.22.49-.48.49h0Z"/>
              <path class="cls-4" d="m260.01,39.28c-.19,0-.37-.11-.45-.3-1.14-2.8-1.63-8.89-1.66-9.15-.02-.27.18-.5.45-.52.27-.02.5.18.52.44,0,.06.5,6.2,1.59,8.86.1.25-.02.53-.27.63-.06.02-.12.04-.18.04Z"/>
              <path class="cls-4" d="m263.98,45.55s-.03,0-.05,0c-.27-.03-.46-.27-.43-.53,0-.07.72-6.98.33-13.73-.02-.27.19-.5.46-.51.27-.02.5.19.51.46.39,6.83-.33,13.82-.34,13.89-.03.25-.24.43-.48.43Z"/>
              <path class="cls-4" d="m277.39,30.15c-.24,0-.45-.17-.48-.42-.98-6.91-4.08-9.75-4.11-9.77-.2-.18-.22-.48-.04-.68.18-.2.48-.22.68-.04.14.12,3.39,3.07,4.43,10.36.04.26-.15.51-.41.55-.02,0-.05,0-.07,0Z"/>
              <path class="cls-4" d="m277.57,45.66c-.11,0-.22-.04-.31-.11-.21-.17-.24-.47-.07-.68,0,0,1.31-1.82,2.11-9.86.81-8.17-2.6-14.5-2.63-14.57-.13-.23-.04-.53.19-.66.23-.13.53-.04.66.19.15.27,3.59,6.65,2.75,15.13-.83,8.33-2.17,10.19-2.32,10.37-.1.12-.24.18-.38.18Z"/>
              <path class="cls-4" d="m273.75,35.64c-.26,0-.47-.2-.48-.47-.16-4.01-1.35-7.89-2.77-9.02-.29-.23-.55-.32-.8-.27-1.36.25-1.58,3.15-1.55,4.15,0,.27-.2.49-.47.5-.26,0-.49-.2-.5-.47-.02-.48-.08-4.69,2.34-5.13.53-.1,1.08.06,1.58.47,1.64,1.31,2.96,5.41,3.13,9.74.01.27-.2.49-.46.5,0,0-.01,0-.02,0Z"/>
              <path class="cls-4" d="m267.72,48.17s-.1,0-.14-.02c-.26-.08-.4-.35-.32-.61,1.27-4.12-.19-14.12-.21-14.22-.04-.26.14-.51.41-.55.26-.04.51.14.55.41.06.42,1.51,10.32.18,14.65-.06.21-.26.34-.46.34Z"/>
              <path class="cls-4" d="m275.92,37.55s-.01,0-.02,0c-.27-.01-.48-.24-.46-.5.2-4.88-1.28-10.05-1.3-10.1-.08-.26.07-.53.33-.6.25-.08.53.07.6.33.06.22,1.54,5.37,1.34,10.41-.01.26-.23.47-.48.47Z"/>
              <path class="cls-4" d="m273.04,48.17c-.12,0-.24-.04-.33-.13-.2-.18-.2-.49-.02-.69,3.95-4.19,4.36-11.4,4.36-11.47.01-.27.24-.47.51-.46.27.01.47.24.46.51-.02.31-.42,7.64-4.63,12.09-.1.1-.22.15-.35.15Z"/>
              <path class="cls-4" d="m269.8,49.42c-.05,0-.1,0-.16-.03-.25-.09-.39-.36-.3-.62,0-.02.77-2.37,1.06-9.27.29-6.88-.64-9.6-.65-9.63-.09-.25.04-.53.29-.62.25-.09.53.04.62.29.04.11,1.01,2.88.71,10-.3,7.08-1.08,9.45-1.11,9.54-.07.2-.26.33-.46.33Z"/>
              <path class="cls-4" d="m273.32,43.47s-.1,0-.15-.02c-.26-.08-.4-.35-.31-.61.69-2.14.39-6.04.39-6.08-.02-.27.18-.5.45-.52.27-.02.5.18.52.44.01.17.32,4.12-.43,6.45-.07.21-.26.34-.46.34Z"/>
              <path class="cls-4" d="m262.29,43.28c-.24,0-.45-.18-.48-.42-.79-6.13-.97-9.05-.97-9.08-.02-.27.19-.5.45-.51.28-.01.5.19.51.45,0,.03.19,2.92.97,9.02.03.27-.15.51-.42.54-.02,0-.04,0-.06,0Z"/>
            </g>
          </g>
          <g>
            <path class="cls-2" d="m144.7,50.33c-.55.07-1.22.37-1.91.7l-3,1.61h0c.28-.15.57-.25.87-.3,2.59-.45,5.23,2.84,5.9,7.34.52,3.49-.31,6.67-1.91,8.14l3.37-2.33c1.89-1.17,2.8-4.42,2.35-8.01-.54-4.3-3.08-7.5-5.69-7.14Z"/>
            <path class="cls-2" d="m143.73,68.45l.12-.08s-.08.04-.12.05v.03Z"/>
            <path class="cls-2" d="m167.31,29.93c-2.4-7.25-9.06-15.31-18.52-16.99-3.09-.55-6.03.1-8.62,1.26,0,0-6.03,2.91-10.38,9.13,2.8-3.34,8.46-8.75,15.05-7.63,8.84,1.51,15.27,9.81,17.72,17.37.71,2.18.44,4.85-.58,6.2l3.1-2.59,1.05-.88s.9-.85.94-.89c1.29-1.15.97-2.76.23-4.97Z"/>
            <path class="cls-2" d="m147.64,31.65c-1.66-.43-3.35-.27-4.96.22,0,0-9.73,4.68-11.95,11.25.05-.09.09-.2.14-.28.25-.41,6.14-9.94,12.81-8.24,6.37,1.62,10.61,9.15,11.99,15.9.36,1.75.15,3.64-.45,4.96l2.98-2.78,1.36-1.24c1.5-1.41.75-2.44.29-4.75-1.3-6.53-5.41-13.27-12.21-15.03Z"/>
            <path class="cls-4" d="m146.56,59.68c-.67-4.5-3.31-7.79-5.9-7.34-.31.05-.6.16-.87.31-2.06,1.1-3.2,4.68-2.61,8.65.67,4.5,3.31,7.79,5.9,7.34.23-.04.44-.11.65-.21.04-.02.08-.03.12-.05.29-.14.56-.33.81-.56,1.6-1.47,2.42-4.65,1.91-8.14Z"/>
            <path class="cls-4" d="m155.67,50.49c-1.38-6.74-5.63-14.28-11.99-15.9-6.67-1.7-12.56,7.83-12.81,8.24-.05.09-.09.19-.14.28-.93,1.79-1,4.66-.12,6.62.93,2.05,2.55,2.3,3.62.54.04-.07,4.45-7.09,8.81-5.98,4.55,1.16,7.19,6.44,7.86,9.71.36,1.73,1.17,2.87,2.07,3.1.41.1.84.02,1.25-.28.4-.3.73-.78,1-1.36.6-1.32.81-3.21.45-4.96Z"/>
            <path class="cls-4" d="m162.57,33.07c-2.45-7.56-8.88-15.86-17.72-17.37-6.59-1.12-12.25,4.28-15.05,7.63-1.11,1.33-1.78,2.34-1.87,2.47-.36.56-.61,1.3-.73,2.11h0c-.23,1.48-.07,3.2.52,4.54.92,2.09,2.5,2.49,3.53.9.06-.1,6.23-9.44,13.52-8.19,7.42,1.27,12.2,8.13,13.59,12.44.47,1.45,1.26,2.33,2.07,2.47.48.08.96-.09,1.39-.56.06-.07.12-.16.17-.24,1.01-1.34,1.28-4.02.58-6.2Z"/>
          </g>
          <g>
            <g>
              <path class="cls-8" d="m84.01,200.9l-.24-30.35c-.01-1.36-.74-2.61-1.91-3.28l-28.31-16.36c-.89-.51-1.89-.45-2.67,0,0,0,0,0,0,0l-6.34,3.59.02.02c.79-.53,1.86-.66,2.8-.11l28.31,16.36c1.17.68,1.9,1.93,1.91,3.28l.24,30.35c.01,1.41-.72,2.57-1.75,3.24l5.44-3.11h-.01c1.43-.54,2.53-1.9,2.52-3.63Z"/>
              <path class="cls-4" d="m77.81,204.41l-.24-30.35c-.01-1.36-.74-2.61-1.91-3.28l-28.31-16.36c-.95-.55-2.01-.42-2.8.11-.69.46-1.18,1.24-1.18,2.19v32.38c0,1.37.73,2.64,1.93,3.32l14.75,8.45,7.77,10.64.02-6.18,4.25,2.44c1.34.77,2.84.62,3.98-.11,1.04-.67,1.76-1.83,1.75-3.24Z"/>
            </g>
            <g>
              <ellipse class="cls-8" cx="49.98" cy="176.38" rx="2.79" ry="5.78"/>
              <ellipse class="cls-8" cx="59.46" cy="182.17" rx="2.79" ry="5.78"/>
              <ellipse class="cls-8" cx="70.12" cy="187.53" rx="2.79" ry="5.78"/>
            </g>
          </g>
          <g>
            <g>
              <path class="cls-5" d="m370.75,233.27c-1.41-3.09-4.03-7.13-7.58-8.87-.72-.35-1.37-.54-1.98-.62-.7,1.05-1.04,2.33-1.01,3.61l.17,8.59,11.46,6.63.06-3.22c.04-1.89-.34-4.41-1.12-6.13Z"/>
              <path class="cls-11" d="m387.44,283.34l-.02-29.75c0-1.2-.64-2.3-1.67-2.9l-4.53-2.62-.05,2.02h-.02s-4.61,2.28-4.61,2.28l-4.86-3.16.13-6.58-11.46-6.63.03,1.7h0s-4.62,2.28-4.62,2.28l-5.23-2.92.05-5.48c-.14.09-.27.19-.39.31l-7.38,4.5.03.02c.61-.42,1.44-.52,2.17-.1l33.08,19.15c1.04.6,1.67,1.7,1.67,2.9l.02,29.75c0,1.34-.75,2.41-1.78,2.96v.03s7.68-4.82,7.68-4.82c1.01-.56,1.74-1.62,1.74-2.94Z"/>
              <path class="cls-6" d="m379.79,288.11l-.02-29.75c0-1.2-.64-2.3-1.67-2.9l-33.08-19.15c-.73-.42-1.56-.32-2.17.1-.52.36-.88.94-.89,1.65l-.18,30.94c0,1.18.6,2.27,1.61,2.88l31.3,19.09c1.09.67,2.34.62,3.32.09,1.03-.55,1.78-1.62,1.78-2.96Z"/>
              <path class="cls-8" d="m361.19,223.78c-1.71-.22-2.99.48-3.9,1.38-1.19,1.18-1.78,2.83-1.74,4.5l.21,10.29,4.62-2.28h0s-.03-1.7-.03-1.7l-.17-8.59c-.03-1.28.32-2.55,1.01-3.61Z"/>
              <path class="cls-8" d="m361.31,217.87c7.64,1.11,13.48,8.73,15.3,17.08.21.97.29,1.96.27,2.94l-.33,14.47,4.61-2.29h.02s.05-2,.05-2l.29-12.45c.02-.99-.06-1.98-.27-2.94-1.81-8.35-7.66-15.97-15.3-17.08-1.98-.29-3.68.1-5.12.79-3.06,1.16-5.25,2.57-5.64,2.83,1.61-1.03,3.66-1.7,6.13-1.35Z"/>
              <path class="cls-6" d="m350.53,237.05l5.23,2.92-.21-10.29c-.03-1.67.55-3.33,1.74-4.5.91-.9,2.19-1.6,3.9-1.38.61.08,1.26.27,1.98.62,3.55,1.73,6.17,5.78,7.58,8.87.78,1.72,1.16,4.24,1.12,6.13l-.06,3.22-.13,6.58,4.86,3.16.33-14.47c.02-.99-.06-1.98-.27-2.94-1.81-8.35-7.66-15.97-15.3-17.08-2.47-.36-4.51.32-6.13,1.35-.57.36-1.09.77-1.55,1.19-1.92,1.75-2.98,4.24-3.01,6.84l-.04,4.33-.05,5.48Z"/>
            </g>
            <path class="cls-1" d="m357.84,261.03s-3.22-2.54-1.95-5.36c1.27-2.83,5.36-1.66,7.12,1.07,1.76,2.73,1.76,6.44-1.17,6.34v12.68l-4.1-2.44.1-12.29Z"/>
          </g>
        </g>
      </g>
    </g>
  </g>
</svg>