<svg width="743" height="297" viewBox="0 0 743 297" fill="none" xmlns="http://www.w3.org/2000/svg">
<g clip-path="url(#clip0_60_1077)">
<path d="M226.94 257.617L226.892 250.231C227.328 250.227 227.763 250.222 228.197 250.214L228.337 257.6C227.871 257.609 227.406 257.616 226.939 257.617L226.94 257.617ZM224.019 257.522C223.557 257.498 223.096 257.471 222.635 257.442L223.094 250.069C223.531 250.096 223.97 250.121 224.41 250.145L224.019 257.522ZM231.126 257.512L230.804 250.132C231.239 250.113 231.674 250.091 232.106 250.067L232.523 257.443C232.058 257.469 231.592 257.493 231.124 257.513L231.126 257.512ZM235.312 257.249L234.713 249.886C235.147 249.85 235.58 249.813 236.014 249.772L236.705 257.128C236.241 257.172 235.776 257.211 235.312 257.251V257.249ZM219.868 257.244C219.405 257.206 218.944 257.167 218.485 257.124L219.156 249.767C219.591 249.806 220.028 249.843 220.467 249.879L219.868 257.242V257.244ZM215.723 256.846C215.262 256.795 214.801 256.742 214.343 256.686L215.228 249.352C215.661 249.405 216.098 249.454 216.535 249.504L215.723 256.846ZM239.486 256.831L238.609 249.495C239.04 249.444 239.472 249.389 239.904 249.331L240.874 256.655C240.413 256.716 239.95 256.775 239.486 256.829L239.486 256.831ZM211.59 256.327C211.13 256.263 210.671 256.196 210.215 256.126L211.323 248.821C211.755 248.886 212.189 248.949 212.624 249.011L211.591 256.326L211.59 256.327ZM243.641 256.254L242.489 248.956C242.919 248.888 243.349 248.818 243.778 248.744L245.024 256.027C244.565 256.106 244.106 256.181 243.643 256.254L243.641 256.254ZM207.47 255.681C207.011 255.602 206.555 255.52 206.101 255.437L207.438 248.171C207.866 248.25 208.298 248.326 208.73 248.401L207.47 255.681ZM247.774 255.52L246.342 248.273C246.769 248.19 247.195 248.103 247.621 248.012L249.143 255.242C248.688 255.338 248.23 255.432 247.773 255.522L247.774 255.52ZM203.37 254.904C202.914 254.81 202.46 254.715 202.008 254.616L203.578 247.396C204.005 247.489 204.432 247.579 204.862 247.668L203.37 254.903L203.37 254.904ZM251.875 254.631L250.169 247.442C250.593 247.342 251.014 247.239 251.436 247.134L253.234 254.299C252.781 254.411 252.329 254.522 251.873 254.63L251.875 254.631ZM199.293 253.995C198.839 253.886 198.388 253.775 197.938 253.66L199.751 246.499C200.172 246.605 200.596 246.71 201.021 246.813L199.291 253.997L199.293 253.995ZM255.939 253.585L253.961 246.468C254.381 246.352 254.799 246.233 255.217 246.112L257.285 253.205C256.837 253.335 256.388 253.462 255.939 253.587L255.939 253.585ZM195.244 252.949C194.795 252.824 194.349 252.698 193.904 252.57L195.956 245.473C196.376 245.595 196.796 245.714 197.217 245.83L195.244 252.949ZM259.96 252.386L257.711 245.347C258.126 245.214 258.539 245.079 258.953 244.943L261.29 251.951C260.847 252.097 260.404 252.242 259.96 252.384V252.386ZM191.23 251.763C190.786 251.623 190.343 251.481 189.902 251.336L192.205 244.316C192.618 244.451 193.035 244.586 193.451 244.717L191.23 251.765L191.23 251.763ZM263.932 251.034L261.418 244.088C261.827 243.939 262.235 243.789 262.642 243.636L265.247 250.55C264.81 250.714 264.373 250.876 263.932 251.034ZM187.26 250.435C186.821 250.28 186.382 250.121 185.947 249.961L188.502 243.028C188.91 243.178 189.32 243.327 189.731 243.474L187.26 250.435ZM267.854 249.531L265.071 242.687C265.474 242.523 265.875 242.358 266.274 242.19L269.139 249C268.712 249.18 268.284 249.357 267.854 249.531ZM183.337 248.963C182.903 248.791 182.471 248.616 182.041 248.441L184.849 241.607C185.252 241.772 185.655 241.934 186.061 242.097L183.337 248.965L183.337 248.963ZM271.695 247.888L268.659 241.151C269.054 240.974 269.448 240.793 269.841 240.61L272.963 247.306C272.541 247.502 272.12 247.697 271.695 247.888ZM179.466 247.345C179.04 247.158 178.615 246.966 178.191 246.774L181.257 240.052C181.652 240.233 182.049 240.411 182.449 240.586L179.466 247.347L179.466 247.345ZM275.478 246.098L272.186 239.484C272.576 239.291 272.963 239.095 273.349 238.897L276.72 245.472C276.307 245.683 275.893 245.893 275.478 246.1V246.098ZM175.66 245.583C175.24 245.378 174.821 245.171 174.405 244.961L177.727 238.363C178.114 238.558 178.504 238.75 178.896 238.941L175.661 245.584L175.66 245.583ZM279.187 244.166L275.648 237.68C276.031 237.472 276.41 237.262 276.789 237.049L280.406 243.491C280.002 243.718 279.595 243.943 279.187 244.165V244.166ZM171.919 243.671C171.508 243.451 171.096 243.228 170.69 243.003L174.266 236.537C174.647 236.747 175.028 236.955 175.412 237.16L171.919 243.671ZM282.823 242.095L279.042 235.747C279.416 235.525 279.788 235.3 280.159 235.073L284.017 241.375C283.621 241.617 283.223 241.858 282.823 242.095ZM168.256 241.615C167.853 241.378 167.452 241.139 167.054 240.899L170.883 234.58C171.253 234.805 171.627 235.027 172.003 235.247L168.256 241.615ZM286.381 239.885L282.361 233.686C282.726 233.45 283.09 233.212 283.452 232.971L287.547 239.121C287.16 239.378 286.772 239.633 286.381 239.887V239.885ZM164.676 239.414C164.281 239.16 163.891 238.906 163.501 238.648L167.583 232.49C167.943 232.729 168.307 232.966 168.672 233.2L164.676 239.414ZM289.852 237.544L285.603 231.498C285.958 231.249 286.313 230.997 286.666 230.742L290.989 236.735C290.611 237.006 290.232 237.276 289.852 237.544ZM161.186 237.071C160.802 236.802 160.422 236.53 160.043 236.257L164.37 230.268C164.72 230.521 165.074 230.771 165.43 231.021L161.186 237.07V237.071ZM293.234 235.075L288.763 229.191C289.109 228.929 289.452 228.664 289.795 228.396L294.343 234.22C293.976 234.507 293.606 234.792 293.235 235.073L293.234 235.075ZM157.793 234.589C157.422 234.305 157.053 234.02 156.686 233.732L161.25 227.92C161.591 228.188 161.936 228.454 162.281 228.719L157.793 234.589ZM296.523 232.476L291.83 226.768C292.167 226.492 292.501 226.214 292.834 225.934L297.597 231.584C297.242 231.884 296.883 232.181 296.525 232.476L296.523 232.476ZM154.503 231.968C154.143 231.669 153.786 231.369 153.431 231.065L158.231 225.448C158.561 225.729 158.894 226.009 159.227 226.285L154.503 231.968ZM299.712 229.756L294.809 224.228C295.135 223.939 295.458 223.649 295.779 223.357L300.752 228.823C300.407 229.137 300.06 229.447 299.711 229.756H299.712ZM151.324 229.215C150.976 228.901 150.631 228.586 150.288 228.268L155.316 222.854C155.633 223.149 155.952 223.441 156.275 223.731L151.324 229.215ZM302.799 226.917L297.691 221.576C298.005 221.276 298.317 220.974 298.628 220.67L303.804 225.944C303.471 226.27 303.135 226.594 302.799 226.917ZM148.26 226.337C147.925 226.009 147.592 225.68 147.263 225.349L152.507 220.143C152.813 220.45 153.12 220.755 153.429 221.059L148.26 226.338L148.26 226.337ZM305.776 223.963L300.468 218.82C300.772 218.508 301.075 218.192 301.373 217.877L306.741 222.956C306.42 223.294 306.099 223.63 305.774 223.963H305.776ZM145.313 223.332C144.992 222.991 144.675 222.649 144.359 222.305L149.812 217.317C150.104 217.636 150.399 217.955 150.698 218.271L145.313 223.332ZM308.639 220.9L303.147 215.957C303.437 215.633 303.727 215.309 304.014 214.981L309.569 219.854C309.262 220.204 308.951 220.552 308.641 220.899L308.639 220.9ZM142.495 220.211C142.186 219.856 141.88 219.498 141.578 219.139L147.234 214.382C147.514 214.715 147.796 215.044 148.081 215.373L142.495 220.211ZM311.389 217.726L305.708 213C305.986 212.665 306.264 212.328 306.541 211.988L312.275 216.648C311.981 217.008 311.686 217.368 311.387 217.725L311.389 217.726ZM139.796 216.967C139.504 216.6 139.214 216.233 138.927 215.863L144.765 211.333C145.032 211.677 145.301 212.019 145.575 212.36L139.796 216.967ZM314.015 214.455L308.161 209.946C308.427 209.601 308.692 209.253 308.955 208.905L314.861 213.345C314.581 213.717 314.298 214.087 314.015 214.455ZM137.232 213.619C136.955 213.242 136.68 212.863 136.409 212.481L142.427 208.191C142.679 208.546 142.935 208.9 143.193 209.249L137.232 213.618L137.232 213.619ZM316.514 211.089L310.5 206.794C310.752 206.441 311.002 206.086 311.251 205.729L317.323 209.94C317.057 210.324 316.787 210.707 316.516 211.089L316.514 211.089ZM134.809 210.174C134.548 209.787 134.289 209.396 134.033 209.005L140.216 204.958C140.455 205.321 140.696 205.685 140.94 206.047L134.811 210.174L134.809 210.174ZM318.89 207.623L312.716 203.564C312.955 203.2 313.192 202.833 313.427 202.467L319.653 206.449C319.402 206.842 319.148 207.234 318.892 207.623H318.89ZM132.527 206.637C132.281 206.239 132.039 205.84 131.798 205.439L138.137 201.641C138.36 202.014 138.587 202.386 138.816 202.757L132.527 206.639L132.527 206.637ZM321.133 204.069L314.807 200.25C315.032 199.876 315.256 199.501 315.479 199.124L321.85 202.869C321.615 203.27 321.376 203.671 321.135 204.069H321.133ZM130.386 203.016C130.156 202.608 129.929 202.2 129.703 201.789L136.189 198.243C136.397 198.624 136.609 199.004 136.822 199.383L130.386 203.016ZM323.238 200.436L316.773 196.854C316.985 196.474 317.193 196.092 317.4 195.708L323.911 199.202C323.689 199.615 323.465 200.025 323.238 200.434L323.238 200.436ZM128.391 199.315C128.177 198.9 127.967 198.484 127.759 198.066L134.374 194.771C134.569 195.16 134.765 195.549 134.965 195.936L128.391 199.315ZM325.207 196.72L318.609 193.389C318.805 193 318.999 192.607 319.192 192.215L325.83 195.465C325.625 195.885 325.417 196.302 325.207 196.718V196.72ZM126.542 195.542C126.345 195.121 126.152 194.698 125.96 194.274L132.694 191.23C132.873 191.628 133.056 192.025 133.241 192.421L126.542 195.542ZM327.033 192.93L320.312 189.857C320.495 189.459 320.674 189.062 320.852 188.661L327.609 191.653C327.419 192.08 327.228 192.505 327.033 192.93ZM124.84 191.705C124.659 191.275 124.481 190.845 124.305 190.413L131.153 187.632C131.317 188.036 131.484 188.439 131.653 188.84L124.84 191.705ZM328.713 189.077L321.881 186.256C322.048 185.854 322.212 185.449 322.375 185.043L329.241 187.778C329.068 188.213 328.892 188.645 328.713 189.079V189.077ZM123.286 187.809C123.122 187.374 122.96 186.937 122.801 186.499L129.748 183.975C129.896 184.384 130.048 184.794 130.202 185.202L123.286 187.809ZM330.246 185.157L323.312 182.603C323.464 182.193 323.612 181.782 323.759 181.371L330.724 183.84C330.567 184.28 330.408 184.721 330.248 185.159L330.246 185.157ZM121.88 183.861C121.731 183.419 121.586 182.975 121.442 182.531L128.479 180.272C128.612 180.687 128.747 181.1 128.886 181.511L121.878 183.861H121.88ZM331.627 181.182L324.601 178.892C324.735 178.475 324.869 178.059 325 177.643L332.054 179.846C331.914 180.293 331.772 180.738 331.627 181.182ZM120.62 179.859C120.488 179.414 120.36 178.967 120.234 178.518L127.349 176.516C127.467 176.936 127.588 177.356 127.711 177.774L120.62 179.859ZM332.853 177.163L325.743 175.145C325.862 174.727 325.978 174.307 326.093 173.885L333.227 175.817C333.104 176.267 332.981 176.716 332.853 177.163ZM119.508 175.82C119.394 175.37 119.281 174.919 119.17 174.467L126.352 172.723C126.455 173.146 126.56 173.571 126.668 173.993L119.507 175.82L119.508 175.82ZM333.922 173.109L326.741 171.356C326.844 170.935 326.944 170.512 327.042 170.089L334.244 171.747C334.138 172.203 334.033 172.657 333.922 173.109ZM118.545 171.74C118.446 171.286 118.351 170.831 118.259 170.375L125.5 168.896C125.587 169.324 125.678 169.751 125.77 170.177L118.545 171.739L118.545 171.74ZM334.837 169.015L327.595 167.536C327.682 167.111 327.766 166.686 327.846 166.26L335.106 167.638C335.019 168.099 334.929 168.556 334.835 169.015H334.837ZM117.733 167.633C117.651 167.176 117.571 166.719 117.494 166.26L124.783 165.038C124.855 165.468 124.93 165.898 125.007 166.328L117.733 167.632L117.733 167.633ZM335.596 164.888L328.303 163.688C328.373 163.26 328.442 162.83 328.507 162.4L335.815 163.506C335.745 163.966 335.671 164.427 335.596 164.888ZM117.067 163.502C117.001 163.041 116.937 162.579 116.878 162.117L124.206 161.161C124.263 161.593 124.321 162.024 124.384 162.454L117.067 163.5L117.067 163.502ZM336.199 160.74L328.865 159.813C328.92 159.383 328.971 158.953 329.019 158.521L336.365 159.347C336.312 159.813 336.257 160.275 336.199 160.74ZM116.55 159.345C116.5 158.885 116.454 158.424 116.41 157.963L123.768 157.259C123.81 157.694 123.853 158.131 123.899 158.566L116.55 159.347V159.345ZM336.643 156.564L329.28 155.926C329.317 155.493 329.353 155.057 329.386 154.621L336.755 155.173C336.721 155.638 336.682 156.1 336.643 156.562L336.643 156.564ZM116.179 155.179C116.147 154.714 116.116 154.249 116.089 153.784L123.467 153.353C123.493 153.788 123.52 154.221 123.553 154.656L116.179 155.18L116.179 155.179ZM336.928 152.387L329.546 152.015C329.568 151.582 329.587 151.148 329.603 150.715L336.988 150.988C336.971 151.455 336.95 151.921 336.928 152.387ZM115.957 150.996C115.942 150.532 115.927 150.068 115.916 149.604L123.305 149.43C123.315 149.867 123.329 150.304 123.344 150.739L115.957 150.996ZM337.058 148.195L329.667 148.104C329.673 147.669 329.676 147.234 329.676 146.799L329.676 146.642L337.068 146.642L337.068 146.799C337.068 147.265 337.064 147.73 337.059 148.196L337.058 148.195ZM123.274 146.812L115.882 146.812C115.882 146.348 115.886 145.884 115.891 145.418L123.281 145.502C123.276 145.939 123.274 146.376 123.274 146.812ZM329.638 144.036C329.626 143.601 329.613 143.166 329.596 142.731L336.981 142.449C336.998 142.912 337.013 143.374 337.025 143.838L329.637 144.036L329.638 144.036ZM123.343 142.886L115.956 142.628C115.971 142.163 115.992 141.698 116.014 141.233L123.397 141.581C123.377 142.016 123.36 142.451 123.344 142.886L123.343 142.886ZM329.463 140.125C329.435 139.69 329.405 139.257 329.37 138.823L336.74 138.262C336.776 138.726 336.808 139.19 336.837 139.656L329.463 140.125ZM123.549 138.97L116.176 138.446C116.208 137.984 116.244 137.521 116.282 137.061L123.648 137.66C123.612 138.096 123.58 138.533 123.547 138.97L123.549 138.97ZM329.14 136.226C329.096 135.791 329.049 135.358 329 134.926L336.344 134.092C336.397 134.552 336.446 135.015 336.494 135.477L329.142 136.226L329.14 136.226ZM123.896 135.061L116.546 134.279C116.596 133.817 116.647 133.353 116.703 132.89L124.042 133.762C123.991 134.194 123.942 134.627 123.896 135.061ZM328.67 132.339C328.611 131.907 328.548 131.477 328.481 131.049L335.787 129.933C335.857 130.394 335.926 130.855 335.991 131.317L328.67 132.339ZM124.38 131.17L117.064 130.124C117.129 129.664 117.199 129.205 117.269 128.746L124.573 129.875C124.507 130.307 124.442 130.739 124.38 131.17ZM328.056 128.476C327.979 128.046 327.899 127.618 327.817 127.191L335.076 125.802C335.163 126.258 335.248 126.715 335.33 127.174L328.056 128.478V128.476ZM125.005 127.297L117.731 125.993C117.813 125.536 117.898 125.079 117.986 124.623L125.244 126.01C125.162 126.439 125.082 126.869 125.005 127.297ZM327.294 124.637C327.202 124.212 327.107 123.789 327.008 123.365L334.208 121.697C334.314 122.151 334.417 122.606 334.516 123.062L327.294 124.637ZM125.767 123.449L118.542 121.886C118.641 121.43 118.742 120.977 118.846 120.521L126.05 122.174C125.953 122.599 125.859 123.022 125.767 123.449ZM326.386 120.83C326.277 120.408 326.166 119.989 326.052 119.571L333.182 117.627C333.305 118.077 333.425 118.528 333.543 118.98L326.388 120.83H326.386ZM126.666 119.635L119.505 117.808C119.619 117.357 119.737 116.909 119.858 116.458L126.998 118.369C126.885 118.791 126.774 119.212 126.666 119.635ZM325.335 117.06C325.21 116.642 325.082 116.226 324.952 115.811L332.004 113.602C332.144 114.045 332.281 114.491 332.414 114.938L325.335 117.06ZM127.704 115.856L120.613 113.769C120.744 113.324 120.879 112.878 121.016 112.433L128.082 114.602C127.954 115.018 127.827 115.436 127.704 115.854L127.704 115.856ZM324.14 113.334C324 112.921 323.855 112.511 323.709 112.102L330.673 109.628C330.83 110.066 330.982 110.506 331.134 110.947L324.14 113.334ZM128.88 112.119L121.871 109.774C122.018 109.334 122.17 108.894 122.322 108.455L129.302 110.884C129.159 111.295 129.019 111.708 128.88 112.121L128.88 112.119ZM322.803 109.655C322.646 109.249 322.487 108.844 322.327 108.44L329.191 105.701C329.364 106.133 329.534 106.568 329.702 107.003L322.803 109.657V109.655ZM130.193 108.43L123.276 105.826C123.44 105.391 123.607 104.957 123.776 104.524L130.661 107.211C130.502 107.618 130.347 108.024 130.193 108.431V108.43ZM321.331 106.039C321.161 105.642 320.987 105.244 320.811 104.848L327.564 101.847C327.754 102.272 327.938 102.696 328.122 103.125L321.331 106.039ZM131.641 104.795L124.828 101.932C125.009 101.504 125.191 101.075 125.377 100.649L132.155 103.594C131.981 103.993 131.81 104.393 131.641 104.794V104.795ZM319.725 102.485C319.539 102.092 319.349 101.702 319.158 101.313L325.796 98.062C326 98.4784 326.202 98.8964 326.4 99.3145L319.725 102.485ZM133.223 101.222L126.525 98.0996C126.721 97.6781 126.919 97.2583 127.122 96.8386L133.782 100.043C133.594 100.436 133.408 100.828 133.223 101.222ZM317.984 98.992C317.782 98.6063 317.579 98.2241 317.374 97.8419L323.884 94.3422C324.104 94.7517 324.321 95.1612 324.536 95.5725L317.984 98.9937L317.984 98.992ZM134.943 97.7122L128.367 94.3371C128.578 93.9241 128.795 93.5112 129.012 93.1L135.543 96.557C135.34 96.9409 135.139 97.3249 134.941 97.7122H134.943ZM316.113 95.569C315.896 95.1902 315.677 94.8148 315.457 94.4394L321.83 90.6974C322.064 91.0967 322.296 91.4977 322.526 91.9004L316.113 95.5708V95.569ZM136.793 94.2756L130.354 90.6496C130.583 90.2452 130.813 89.8408 131.047 89.4381L137.438 93.146C137.22 93.5214 137.005 93.8985 136.793 94.2756ZM314.11 92.2127C313.881 91.8441 313.649 91.4772 313.415 91.1121L319.64 87.1295C319.891 87.5202 320.138 87.9144 320.386 88.3085L314.112 92.2127H314.11ZM138.775 90.9141L132.483 87.0407C132.727 86.6449 132.974 86.249 133.223 85.8548L139.463 89.8152C139.231 90.1804 139.002 90.5473 138.775 90.9141ZM311.978 88.9314C311.736 88.573 311.491 88.2164 311.244 87.8598L317.313 83.6434C317.579 84.0256 317.844 84.4112 318.105 84.7986L311.978 88.9314ZM140.885 87.6379L134.75 83.5188C135.009 83.1332 135.27 82.7493 135.535 82.3653L141.616 86.5647C141.37 86.9213 141.126 87.2779 140.885 87.6379ZM309.73 85.7371C309.474 85.3873 309.214 85.0392 308.955 84.6928L314.86 80.2495C315.14 80.6214 315.418 80.9968 315.694 81.3722L309.731 85.7371L309.73 85.7371ZM143.121 84.4505L137.157 80.0874C137.433 79.7103 137.71 79.3366 137.991 78.9629L143.898 83.4045C143.637 83.7526 143.378 84.1007 143.121 84.4505ZM307.359 82.6264C307.089 82.2868 306.817 81.9473 306.544 81.6111L312.278 76.9494C312.572 77.3111 312.864 77.6746 313.154 78.0397L307.359 82.6247L307.359 82.6264ZM145.491 81.3449L139.705 76.7463C139.997 76.3795 140.291 76.016 140.588 75.6526L146.307 80.3331C146.032 80.6692 145.761 81.0054 145.491 81.3449ZM304.869 79.6045C304.588 79.2751 304.304 78.9458 304.018 78.6199L309.573 73.7483C309.88 74.0998 310.186 74.4513 310.489 74.8062L304.869 79.6045ZM147.983 78.3384L142.389 73.5111C142.695 73.1579 143.002 72.8064 143.313 72.4566L148.84 77.3606C148.552 77.6848 148.267 78.0107 147.983 78.3384ZM302.271 76.6798C301.976 76.3607 301.681 76.0433 301.382 75.7276L306.751 70.6513C307.072 70.9891 307.389 71.3304 307.705 71.6734L302.271 76.6798ZM150.595 75.4376L145.204 70.3834C145.523 70.0438 145.844 69.7042 146.169 69.3681L151.493 74.4922C151.191 74.8045 150.892 75.1202 150.595 75.4376ZM299.564 73.8541C299.256 73.5452 298.947 73.2381 298.635 72.9326L303.813 67.66C304.144 67.9859 304.475 68.3136 304.803 68.6429L299.564 73.8541ZM153.323 72.6443L148.142 67.3768C148.475 67.0492 148.811 66.7233 149.149 66.4008L154.259 71.7399C153.945 72.0402 153.634 72.3422 153.325 72.646L153.323 72.6443ZM296.75 71.1307C296.431 70.8338 296.11 70.5386 295.789 70.2452L300.76 64.778C301.105 65.092 301.448 65.4077 301.79 65.725L296.75 71.129V71.1307ZM156.164 69.9653L151.203 64.4896C151.55 64.1757 151.898 63.8651 152.25 63.5546L157.135 69.0985C156.809 69.3852 156.485 69.6735 156.164 69.9653ZM293.836 68.5149C293.507 68.23 293.174 67.9467 292.841 67.6651L297.604 62.0171C297.959 62.3175 298.314 62.6195 298.666 62.9232L293.836 68.5149ZM159.112 67.4058L154.378 61.7322C154.737 61.4336 155.099 61.1367 155.462 60.8415L160.116 66.5799C159.778 66.8529 159.443 67.1277 159.111 67.4058L159.112 67.4058ZM290.821 66.0066C290.483 65.7353 290.142 65.4657 289.799 65.1978L294.343 59.3723C294.712 59.659 295.079 59.9491 295.443 60.2408L290.82 66.0049L290.821 66.0066ZM162.161 64.9691L157.665 59.1061C158.035 58.8229 158.407 58.5413 158.783 58.2615L163.199 64.1859C162.851 64.4453 162.504 64.7063 162.161 64.9708L162.161 64.9691ZM287.718 63.6177C287.368 63.3583 287.016 63.1007 286.661 62.8464L290.985 56.8537C291.364 57.1268 291.74 57.4015 292.115 57.6796L287.718 63.6177ZM165.307 62.657L161.052 56.6166C161.434 56.3469 161.818 56.0808 162.206 55.8163L166.374 61.9165C166.016 62.1622 165.661 62.4079 165.306 62.657L165.307 62.657ZM284.524 61.3448C284.164 61.0991 283.802 60.8551 283.438 60.6128L287.533 54.4631C287.921 54.7208 288.309 54.9819 288.694 55.2447L284.524 61.3431V61.3448ZM168.546 60.4746L164.538 54.2669C164.93 54.0144 165.323 53.7635 165.721 53.5144L169.644 59.775C169.275 60.0054 168.909 60.2391 168.544 60.4729L168.546 60.4746ZM281.244 59.1948C280.874 58.9628 280.503 58.7324 280.131 58.5038L283.991 52.2039C284.389 52.4479 284.785 52.6937 285.181 52.9411L281.244 59.1931V59.1948ZM171.871 58.4236L168.114 52.0623C168.515 51.8251 168.92 51.5914 169.326 51.3576L172.998 57.7683C172.621 57.985 172.245 58.2018 171.871 58.4219L171.871 58.4236ZM277.885 57.1694C277.507 56.951 277.128 56.736 276.748 56.5227L280.364 50.0795C280.772 50.3082 281.178 50.5402 281.582 50.7723L277.885 57.1694ZM175.277 56.5039L171.774 49.9993C172.184 49.7792 172.597 49.5608 173.012 49.3441L176.429 55.8948C176.044 56.0961 175.66 56.2992 175.277 56.5056V56.5039ZM274.45 55.272C274.064 55.0689 273.678 54.8675 273.289 54.6679L276.659 48.0933C277.076 48.3066 277.489 48.5216 277.902 48.7401L274.448 55.272L274.45 55.272ZM178.756 54.7191L175.508 48.0831C175.926 47.8783 176.347 47.677 176.769 47.4757L179.931 54.1543C179.536 54.3403 179.145 54.5297 178.756 54.7191ZM270.949 53.5076C270.554 53.3182 270.16 53.1322 269.764 52.9479L272.881 46.2488C273.304 46.445 273.726 46.6447 274.148 46.8477L270.95 53.5076L270.949 53.5076ZM182.304 53.0691L179.315 46.3136C179.74 46.1259 180.166 45.9399 180.595 45.7574L183.502 52.5503C183.101 52.7227 182.701 52.895 182.304 53.0708L182.304 53.0691ZM267.374 51.8746C266.974 51.7006 266.575 51.5299 266.172 51.3627L269.028 44.5493C269.46 44.7301 269.892 44.9144 270.32 45.1004L267.372 51.8746L267.374 51.8746ZM185.914 51.5521L183.181 44.6875C183.613 44.5151 184.047 44.3462 184.482 44.179L187.133 51.0743C186.725 51.2313 186.321 51.39 185.916 51.5504L185.914 51.5521ZM263.744 50.3799C263.338 50.2212 262.93 50.0659 262.52 49.9123L265.115 42.9948C265.554 43.1586 265.991 43.3258 266.426 43.4964L263.743 50.3799L263.744 50.3799ZM189.583 50.1683L187.101 43.2098C187.54 43.0545 187.978 42.8992 188.42 42.7491L190.816 49.7383C190.402 49.8799 189.991 50.0232 189.583 50.1683ZM260.057 49.0233C259.646 48.88 259.233 48.7401 258.816 48.6035L261.145 41.5922C261.588 41.7406 262.032 41.8908 262.476 42.0426L260.057 49.0233ZM193.301 48.9175L191.07 41.8737C191.512 41.7338 191.958 41.5956 192.403 41.4608L194.549 48.5302C194.131 48.6564 193.714 48.7861 193.301 48.9175ZM256.32 47.8101C255.904 47.6838 255.487 47.5593 255.069 47.4381L257.128 40.3431C257.575 40.4728 258.022 40.6059 258.468 40.7407L256.32 47.8101ZM197.064 47.7999L195.082 40.6827C195.529 40.5581 195.976 40.437 196.427 40.3158L198.327 47.4552C197.904 47.5678 197.482 47.6821 197.064 47.7999ZM200.865 46.8119L199.128 39.6316C199.577 39.5224 200.029 39.4166 200.483 39.3108L202.142 46.5099C201.716 46.6088 201.291 46.7078 200.867 46.8119L200.865 46.8119ZM252.551 46.7436C252.131 46.6327 251.709 46.5252 251.288 46.4194L253.075 39.2511C253.527 39.3637 253.98 39.4797 254.43 39.5974L252.552 46.7419L252.551 46.7436ZM204.703 45.9502L203.203 38.717C203.655 38.6231 204.111 38.531 204.567 38.4422L205.99 45.6908C205.56 45.7744 205.132 45.8614 204.705 45.9502L204.703 45.9502ZM248.747 45.8222C248.322 45.7284 247.897 45.6362 247.47 45.5475L248.983 38.316C249.439 38.4115 249.894 38.5088 250.35 38.6112L248.747 45.8239V45.8222ZM208.57 45.213L207.301 37.9355C207.757 37.8553 208.215 37.7785 208.674 37.7034L209.865 44.9946C209.432 45.0646 209 45.138 208.57 45.213ZM244.908 45.0458C244.479 44.9673 244.051 44.8922 243.622 44.8189L244.858 37.5345C245.318 37.613 245.777 37.6932 246.236 37.7768L244.908 45.0441L244.908 45.0458ZM212.46 44.5987L211.421 37.2853C211.876 37.2205 212.336 37.1574 212.795 37.0976L213.765 44.4213C213.329 44.4793 212.894 44.539 212.46 44.6005V44.5987ZM241.041 44.4162C240.611 44.3547 240.181 44.295 239.749 44.2387L240.708 36.9134C241.171 36.9748 241.634 37.0379 242.095 37.1045L241.043 44.4162L241.041 44.4162ZM216.373 44.1022L215.554 36.7598C216.011 36.7086 216.472 36.6591 216.933 36.613L217.682 43.9623C217.245 44.0066 216.808 44.0527 216.373 44.1022ZM237.158 43.9316C236.724 43.8855 236.29 43.8428 235.857 43.8036L236.538 36.4475C237.002 36.4902 237.465 36.5363 237.929 36.5857L237.158 43.9333L237.158 43.9316ZM220.305 43.72L219.697 36.3571C220.156 36.3196 220.617 36.2837 221.08 36.2496L221.616 43.6176C221.177 43.65 220.738 43.6841 220.303 43.72L220.305 43.72ZM233.255 43.5937C232.821 43.5647 232.386 43.5374 231.951 43.5135L232.355 36.137C232.821 36.1626 233.286 36.1916 233.75 36.2223L233.253 43.5937L233.255 43.5937ZM224.248 43.4504L223.849 36.0738C224.308 36.0499 224.767 36.0261 225.23 36.0056L225.563 43.3855C225.122 43.406 224.683 43.4265 224.248 43.4504ZM229.342 43.4026C228.909 43.3889 228.472 43.3787 228.036 43.3719L228.164 35.9851C228.63 35.9936 229.096 36.0039 229.562 36.0175L229.341 43.4026L229.342 43.4026Z" fill="url(#paint0_linear_60_1077)"/>
<g style="mix-blend-mode:screen">
<path d="M226.479 264.305C195.077 264.305 165.555 252.082 143.35 229.888C121.145 207.693 108.917 178.184 108.917 146.795C108.917 115.407 121.145 85.8992 143.35 63.703C165.555 41.5086 195.078 29.286 226.479 29.286C257.88 29.286 287.405 41.5086 309.61 63.703C331.815 85.8975 344.043 115.407 344.043 146.795C344.043 178.184 331.815 207.691 309.61 229.888C287.405 252.082 257.882 264.305 226.479 264.305ZM226.479 30.6391C162.4 30.6391 110.269 82.7459 110.269 146.795C110.269 210.845 162.402 262.952 226.479 262.952C290.557 262.952 342.689 210.843 342.689 146.795C342.689 82.7476 290.557 30.6391 226.479 30.6391Z" fill="#3CDDF7"/>
</g>
<path d="M105.814 134.494C106.281 129.549 107.041 124.592 108.072 119.763L108.122 119.531L97.6569 117.303L97.6074 117.535C96.4926 122.765 95.6698 128.133 95.1628 133.488L95.1406 133.723L105.793 134.731L105.815 134.496L105.814 134.494ZM105.233 146.785C105.233 144.348 105.303 141.883 105.44 139.451L105.453 139.214L94.7701 138.613L94.7565 138.851C94.608 141.483 94.5328 144.154 94.5328 146.783L94.5328 147.149L105.231 147.149L105.231 146.783L105.233 146.785ZM116.61 93.902C117.642 91.6496 118.754 89.4126 119.913 87.2506L120.026 87.0424L110.595 81.9916L110.483 82.1998C109.216 84.5597 108.007 86.9981 106.884 89.445L106.785 89.66L116.512 94.117L116.611 93.902L116.61 93.902ZM144.364 237.513L144.188 237.356L137.056 245.328L137.234 245.487C139.243 247.284 141.337 249.035 143.459 250.693L143.646 250.838L150.235 242.412L150.049 242.267C148.11 240.752 146.198 239.153 144.366 237.515L144.364 237.513ZM126.468 217.121C125.541 215.766 124.628 214.37 123.757 212.973L123.633 212.771L114.552 218.429L114.677 218.631C115.633 220.163 116.628 221.687 117.639 223.161L117.772 223.356L126.601 217.317L126.468 217.121ZM117.895 222.697C116.978 221.354 116.075 219.97 115.205 218.58L123.481 213.423C124.276 214.693 125.103 215.957 125.944 217.192L117.897 222.697H117.895ZM122.34 82.9438C124.864 78.6796 127.672 74.5571 130.692 70.6905L130.837 70.5045L122.402 63.9231L122.257 64.1091C118.957 68.334 115.886 72.8388 113.129 77.4988L113.009 77.7019L122.219 83.1451L122.34 82.9421L122.34 82.9438ZM140.755 234.142C137.239 230.707 133.91 226.995 130.857 223.108L130.711 222.922L122.293 229.522L122.439 229.708C125.777 233.962 129.423 238.027 133.278 241.791L133.447 241.957L140.924 234.307L140.755 234.142ZM133.44 241.286C129.72 237.638 126.195 233.71 122.958 229.601L130.632 223.584C133.606 227.357 136.843 230.966 140.255 234.314L133.44 241.286ZM116.71 199.9C115.683 197.672 114.706 195.368 113.806 193.053L113.721 192.833L103.746 196.704L103.832 196.924C104.808 199.436 105.872 201.944 106.992 204.376L107.091 204.591L116.808 200.115L116.709 199.9L116.71 199.9ZM112.103 188.393C110.507 183.736 109.166 178.91 108.12 174.047L108.07 173.815L97.6108 176.064L97.6603 176.296C98.7956 181.572 100.25 186.809 101.983 191.86L102.06 192.083L112.181 188.616L112.104 188.393H112.103ZM106.766 166.719C106.514 165.092 106.29 163.434 106.099 161.791L106.071 161.555L95.4427 162.787L95.4701 163.023C95.6766 164.804 95.9207 166.597 96.1922 168.353L96.228 168.587L106.802 166.951L106.766 166.717L106.766 166.719ZM96.6241 168.05C96.38 166.451 96.1597 164.825 95.9685 163.205L105.657 162.082C105.832 163.576 106.036 165.079 106.263 166.558L96.6258 168.05H96.6241ZM325.54 76.7924C326.492 78.1421 327.426 79.5226 328.314 80.8962L328.442 81.0958L337.426 75.2891L337.298 75.0895C336.327 73.5879 335.313 72.0863 334.28 70.6274L334.144 70.4346L325.401 76.6013L325.538 76.7941L325.54 76.7924ZM334.031 71.0915C334.965 72.4207 335.887 73.7824 336.773 75.1458L328.583 80.4389C327.772 79.1915 326.927 77.9408 326.064 76.7122L334.031 71.0915ZM335.607 93.8371C336.682 96.0537 337.703 98.3333 338.64 100.611L338.731 100.83L348.627 96.7635L348.536 96.5451C347.516 94.0641 346.404 91.583 345.235 89.172L345.131 88.9587L335.502 93.6255L335.605 93.8388L335.607 93.8371ZM346.083 126.771C346.351 128.389 346.59 130.039 346.793 131.675L346.822 131.911L357.441 130.597L357.412 130.361C357.192 128.583 356.932 126.787 356.639 125.022L356.599 124.789L346.044 126.538L346.083 126.771ZM356.21 125.333C356.473 126.939 356.71 128.568 356.913 130.184L347.236 131.382C347.048 129.896 346.831 128.399 346.59 126.928L356.21 125.335V125.333ZM307.461 56.4493L307.637 56.608L314.795 48.6599L314.619 48.5012C312.622 46.7044 310.544 44.9468 308.443 43.2746L308.256 43.1279L301.595 51.4975L301.78 51.6443C303.705 53.1766 305.617 54.7925 307.461 56.451V56.4493ZM340.431 105.232C342.121 109.873 343.538 114.668 344.644 119.48L344.697 119.71L355.126 117.316L355.073 117.086C353.87 111.848 352.326 106.63 350.486 101.575L350.406 101.354L340.351 105.012L340.431 105.234V105.232ZM238.322 25.8716L238.557 25.8955L239.614 15.253L239.378 15.2291C237.601 15.0516 235.794 14.91 234.003 14.8042L233.767 14.7906L233.141 25.4672L233.376 25.4808C235.02 25.5764 236.685 25.7078 238.322 25.8716ZM234.211 15.2922C235.84 15.3912 237.48 15.5192 239.097 15.6779L238.132 25.3784C236.644 25.2334 235.135 25.114 233.639 25.0235L234.209 15.2922L234.211 15.2922ZM159.94 44.4093C164.092 41.8242 168.49 39.4609 173.012 37.3843L173.227 37.2853L168.761 27.5677L168.546 27.6667C163.616 29.931 158.817 32.5093 154.283 35.3333L154.081 35.4578L159.739 44.5356L159.94 44.411L159.94 44.4093ZM168.529 28.1956L172.599 37.0533C168.208 39.0804 163.935 41.3755 159.891 43.8821L154.735 35.608C159.128 32.8847 163.766 30.3917 168.529 28.1939V28.1956ZM179.861 34.4886C181.389 33.8965 182.958 33.3232 184.525 32.7857L184.748 32.7089L181.274 22.5937L181.051 22.6705C179.349 23.254 177.647 23.8752 175.992 24.5167L175.772 24.6021L179.641 34.574L179.861 34.4886ZM135.443 65.005C136.539 63.7764 137.672 62.5615 138.813 61.3926L138.978 61.2237L131.315 53.7601L131.149 53.9291C129.903 55.2071 128.662 56.5381 127.458 57.8861L127.301 58.0635L135.286 65.1824L135.443 65.005ZM127.969 58.0243C129.065 56.8008 130.192 55.5945 131.323 54.429L138.307 61.2322C137.274 62.297 136.245 63.3993 135.246 64.5135L127.969 58.0243ZM289.599 43.1142L289.801 43.2371L295.391 34.1184L295.19 33.9955C293.66 33.0587 292.092 32.1407 290.526 31.2671L290.32 31.151L285.104 40.4899L285.311 40.6059C286.747 41.4079 288.189 42.2508 289.597 43.1125L289.599 43.1142ZM109.839 112.528C110.278 110.936 110.752 109.336 111.251 107.771L111.323 107.546L101.129 104.299L101.058 104.524C100.515 106.225 99.9991 107.964 99.5228 109.689L99.4596 109.918L109.776 112.757L109.839 112.528ZM100.043 109.587C100.479 108.019 100.947 106.442 101.438 104.893L110.728 107.853C110.278 109.276 109.848 110.728 109.446 112.174L100.043 109.587ZM329.768 210.398C327.178 214.602 324.302 218.694 321.214 222.561L321.065 222.745L329.427 229.418L329.574 229.234C332.933 225.028 336.064 220.576 338.879 216.005L339.004 215.803L329.891 210.198L329.766 210.399L329.768 210.398ZM316.394 228.229C315.285 229.456 314.141 230.671 312.995 231.84L312.83 232.009L320.473 239.494L320.638 239.325C321.893 238.044 323.138 236.723 324.334 235.397L324.493 235.222L316.553 228.053L316.394 228.229ZM321.217 71.0386L329.567 64.3514L329.418 64.1671C326.059 59.9764 322.404 55.9477 318.556 52.1903L318.387 52.0248L310.911 59.676L311.08 59.8416C314.619 63.2952 317.98 66.9997 321.069 70.8543L321.217 71.0386ZM318.393 52.6937C322.11 56.3333 325.644 60.2289 328.901 64.2763L321.29 70.3714C318.279 66.6311 315.013 63.0307 311.58 59.6675L318.393 52.6937ZM291.902 249.031C287.745 251.708 283.385 254.152 278.941 256.297L278.728 256.399L283.382 266.03L283.595 265.927C288.431 263.593 293.176 260.933 297.698 258.022L297.898 257.894L292.103 248.903L291.904 249.031L291.902 249.031ZM283.6 265.398L279.36 256.621C283.677 254.527 287.912 252.152 291.96 249.557L297.242 257.751C292.863 260.559 288.276 263.131 283.602 265.397L283.6 265.398ZM301.959 241.806C300.028 243.347 298.026 244.849 296.009 246.265L295.817 246.402L301.972 255.148L302.167 255.012C304.361 253.469 306.539 251.838 308.637 250.162L308.823 250.014L302.145 241.658L301.959 241.806ZM302.087 254.49L296.475 246.518C298.37 245.18 300.25 243.772 302.068 242.325L308.154 249.942C306.181 251.51 304.142 253.039 302.085 254.491L302.087 254.49ZM335.721 199.518C334.651 201.736 333.493 203.958 332.283 206.118L332.167 206.325L341.501 211.553L341.617 211.346C342.937 208.993 344.195 206.577 345.359 204.163L345.462 203.949L335.825 199.305L335.723 199.518L335.721 199.518ZM358.424 146.265L347.726 146.265L347.726 146.797C347.726 149.268 347.65 151.769 347.504 154.232L347.49 154.467L358.17 155.11L358.183 154.875C358.344 152.201 358.426 149.476 358.426 146.773L358.426 146.266L358.424 146.265ZM347.104 159.173C346.606 164.094 345.8 169.029 344.707 173.838L344.654 174.068L355.088 176.438L355.141 176.208C356.331 170.974 357.209 165.604 357.75 160.248L357.774 160.013L347.128 158.938L347.104 159.173ZM357.253 160.436C356.72 165.615 355.872 170.805 354.73 175.871L345.219 173.711C346.273 169.032 347.056 164.239 347.55 159.456L357.253 160.436ZM342.835 181.031C342.375 182.6 341.873 184.188 341.344 185.756L341.269 185.98L351.404 189.406L351.479 189.183C352.053 187.488 352.599 185.758 353.103 184.038L353.17 183.811L342.901 180.805L342.835 181.031ZM283.547 27.6428L283.334 27.5404C278.482 25.2112 273.436 23.1619 268.335 21.447L268.111 21.3719L264.701 31.5094L264.926 31.5844C269.607 33.1577 274.243 35.0415 278.704 37.1813L278.918 37.2836L283.549 27.6428L283.547 27.6428ZM278.694 36.6523C274.353 34.5791 269.849 32.7499 265.3 31.2107L268.408 21.9709C273.339 23.638 278.216 25.6208 282.914 27.8646L278.694 36.6523ZM204.457 16.7733C201.811 17.2187 199.155 17.7374 196.565 18.3125L196.333 18.3637L198.658 28.8031L198.89 28.7519C201.294 28.2161 203.766 27.7349 206.236 27.3186L206.47 27.2793L204.693 16.7324L204.459 16.7716L204.457 16.7733ZM191.918 263.098L191.69 263.035L188.818 273.338L189.047 273.401C191.602 274.113 194.233 274.768 196.862 275.346L197.094 275.398L199.399 264.955L199.167 264.904C196.726 264.366 194.286 263.759 191.918 263.1L191.918 263.098ZM196.734 274.833C194.269 274.285 191.804 273.672 189.404 273.007L192.021 263.617C194.25 264.233 196.541 264.803 198.836 265.313L196.736 274.833H196.734ZM149.757 38.287C147.534 39.8073 145.334 41.4215 143.215 43.0852L143.029 43.232L149.641 51.6408L149.827 51.4941C151.758 49.9772 153.769 48.5029 155.802 47.1105L155.998 46.9774L149.953 38.1539L149.759 38.287L149.757 38.287ZM149.721 50.9754L143.695 43.3105C145.686 41.7526 147.748 40.2407 149.829 38.8108L155.338 46.8528C153.427 48.1667 151.539 49.5523 149.72 50.9754L149.721 50.9754ZM162.296 250.606L162.091 250.485L156.654 259.696L156.859 259.817C158.399 260.726 159.985 261.615 161.569 262.462L161.777 262.573L166.82 253.14L166.612 253.029C165.161 252.254 163.71 251.439 162.298 250.606H162.296ZM213.944 267.366L213.708 267.339L212.471 277.962L212.706 277.99C214.456 278.193 216.245 278.373 218.024 278.522L218.259 278.542L219.159 267.886L218.924 267.866C217.257 267.724 215.581 267.557 213.942 267.366L213.944 267.366ZM173.268 256.321L173.053 256.222L168.609 265.95L168.824 266.049C173.654 268.251 178.726 270.207 183.898 271.859L184.124 271.93L187.379 261.743L187.154 261.672C182.384 260.15 177.712 258.348 173.268 256.321ZM183.816 271.335C178.816 269.729 173.913 267.84 169.237 265.716L173.287 256.848C177.612 258.812 182.152 260.561 186.783 262.049L183.815 271.335H183.816ZM253.273 265.284C250.871 265.832 248.416 266.311 245.977 266.711L245.743 266.748L247.474 277.302L247.708 277.264C250.362 276.829 253.034 276.307 255.651 275.712L255.881 275.659L253.505 265.231L253.275 265.284H253.273ZM272.161 259.315C270.636 259.938 269.079 260.539 267.534 261.097L267.311 261.177L270.954 271.232L271.176 271.152C272.859 270.543 274.554 269.889 276.21 269.212L276.429 269.122L272.376 259.223L272.157 259.312L272.161 259.315ZM271.239 270.627L267.918 261.462C269.322 260.95 270.734 260.407 272.121 259.843L275.814 268.864C274.307 269.478 272.768 270.07 271.239 270.627ZM255.351 17.8074L255.118 17.7562L252.766 28.1888L252.996 28.24C255.402 28.7809 257.824 29.4071 260.197 30.0965L260.424 30.163L263.415 19.8942L263.188 19.8277C260.61 19.0769 257.973 18.3978 255.351 17.8074ZM226.384 25.2624L225.947 14.5773L225.709 14.5875C220.3 14.8076 214.931 15.2735 209.751 15.9696L209.516 16.0004L210.943 26.6002L211.177 26.5678C216.027 25.9159 221.063 25.4791 226.145 25.2727L226.38 25.2624L226.384 25.2624ZM241.067 267.412C236.176 268.009 231.183 268.315 226.22 268.318L225.983 268.318L225.988 279.013L226.225 279.013C231.616 279.01 237.047 278.679 242.366 278.029L242.602 278L241.302 267.385L241.067 267.414V267.412Z" fill="url(#paint1_linear_60_1077)"/>
<path style="mix-blend-mode:screen" d="M230.1 293.538L229.839 283.755C232.267 283.69 234.718 283.561 237.128 283.368L237.905 293.123C235.326 293.328 232.7 293.468 230.102 293.538L230.1 293.538ZM222.13 293.401C219.54 293.249 216.942 293.046 214.403 292.796L215.366 283.057C217.775 283.296 220.243 283.489 222.701 283.632L222.128 293.401L222.13 293.401ZM206.697 291.871C204.129 291.507 201.55 291.086 199.03 290.617L200.826 280.996C203.206 281.44 205.644 281.839 208.07 282.182L206.699 291.871L206.697 291.871ZM261.035 289.412L258.714 279.906C261.068 279.331 263.435 278.686 265.75 277.988L268.577 287.357C266.095 288.105 263.558 288.798 261.035 289.412ZM191.418 289.016C188.888 288.422 186.351 287.764 183.881 287.059L186.57 277.648C188.892 278.31 191.275 278.93 193.654 279.488L191.418 289.014V289.016ZM276.002 284.9L272.675 275.696C274.947 274.875 277.226 273.983 279.452 273.043L283.266 282.056C280.881 283.064 278.438 284.02 276.002 284.9ZM176.436 284.736C173.969 283.899 171.506 282.989 169.113 282.037L172.737 272.946C174.975 273.836 177.28 274.686 179.589 275.471L176.436 284.735V284.736ZM161.936 278.955C159.568 277.865 157.21 276.7 154.925 275.491L159.501 266.84C161.63 267.965 163.829 269.052 166.035 270.069L161.936 278.955ZM290.369 278.827L286.081 270.031C288.252 268.973 290.425 267.842 292.542 266.668L297.295 275.224C295.026 276.483 292.698 277.696 290.371 278.829L290.369 278.827ZM148.111 271.645C145.878 270.302 143.661 268.881 141.518 267.42L147.032 259.336C149.023 260.692 151.085 262.013 153.159 263.26L148.111 271.644L148.111 271.645ZM304.018 271.253L298.816 262.963C300.866 261.679 302.91 260.32 304.888 258.93L310.522 266.932C308.403 268.422 306.215 269.876 304.018 271.253ZM135.175 262.829C133.112 261.245 131.069 259.58 129.102 257.879L135.504 250.475C137.331 252.053 139.227 253.599 141.141 255.07L135.175 262.829ZM316.789 262.271L310.739 254.577C312.64 253.082 314.53 251.516 316.352 249.92L322.8 257.283C320.848 258.991 318.825 260.668 316.787 262.269L316.789 262.271ZM123.322 252.587C121.458 250.778 119.619 248.89 117.857 246.972L125.068 240.353C126.704 242.132 128.411 243.887 130.14 245.566L123.322 252.587ZM328.542 251.985L321.714 244.973C323.448 243.286 325.162 241.528 326.806 239.749L333.997 246.39C332.235 248.296 330.4 250.178 328.542 251.987V251.985ZM339.149 240.51L331.617 234.259C333.165 232.394 334.685 230.464 336.131 228.523L343.983 234.365C342.435 236.445 340.808 238.512 339.149 240.51ZM103.5 228.376C102.095 226.197 100.73 223.944 99.4392 221.678L107.949 216.841C109.149 218.95 110.421 221.049 111.729 223.076L103.5 228.378L103.5 228.376ZM348.485 227.973L340.334 222.554C341.675 220.537 342.981 218.455 344.214 216.37L352.644 221.346C351.324 223.581 349.924 225.809 348.485 227.971L348.485 227.973ZM95.7569 214.771C94.6028 212.456 93.4915 210.07 92.4553 207.68L101.44 203.791C102.406 206.021 103.442 208.246 104.52 210.405L95.7586 214.771L95.7569 214.771ZM89.5412 200.428C88.6415 198.006 87.7896 195.518 87.0129 193.037L96.3561 190.113C97.0833 192.433 97.8788 194.757 98.7187 197.022L89.5412 200.429L89.5412 200.428ZM362.922 200.26L353.805 196.694C354.689 194.435 355.524 192.123 356.283 189.821L365.579 192.892C364.763 195.36 363.868 197.839 362.921 200.26H362.922ZM84.8721 185.528C84.2268 183.025 83.6379 180.465 83.1206 177.923L92.713 175.969C93.1979 178.349 93.7493 180.745 94.3536 183.089L84.8721 185.528ZM367.834 185.408L358.387 182.842C359.023 180.503 359.602 178.119 360.111 175.757L369.683 177.815C369.138 180.346 368.517 182.902 367.834 185.408ZM371.122 170.133L361.454 168.591C361.837 166.198 362.158 163.767 362.414 161.361L372.15 162.39C371.876 164.966 371.532 167.572 371.122 170.133ZM80.1912 154.725C80.0614 152.141 79.9931 149.517 79.9914 146.928L89.7819 146.92C89.7836 149.348 89.8467 151.807 89.9697 154.23L80.1912 154.725ZM372.764 154.602L362.987 154.09C363.114 151.677 363.178 149.223 363.178 146.797L363.178 146.475L372.967 146.435L372.967 146.797C372.967 149.394 372.899 152.02 372.764 154.602ZM362.969 139.17C362.837 136.753 362.637 134.308 362.378 131.901L372.112 130.85C372.39 133.428 372.604 136.047 372.745 138.636L362.969 139.17ZM91.3968 125.062L81.7139 123.611C82.098 121.043 82.5538 118.458 83.0643 115.926L92.6601 117.863C92.1821 120.234 91.7553 122.656 91.3951 125.06L91.3968 125.062ZM361.401 124.674C361.014 122.291 360.556 119.881 360.041 117.511L369.606 115.431C370.159 117.97 370.649 120.552 371.064 123.108L361.4 124.674L361.401 124.674ZM94.2904 110.742L84.8056 108.319C85.4491 105.804 86.1644 103.277 86.9327 100.808L96.2809 103.715C95.5622 106.024 94.893 108.389 94.2904 110.742ZM358.301 110.433C357.659 108.097 356.946 105.749 356.181 103.456L365.47 100.362C366.289 102.819 367.054 105.336 367.742 107.839L358.301 110.431L358.301 110.433ZM104.4 83.4233L95.6305 79.0756C96.7863 76.7464 98.0188 74.424 99.2941 72.1734L107.814 76.9938C106.626 79.0909 105.479 81.2546 104.402 83.425L104.4 83.4233ZM347.64 83.3687C346.52 81.229 345.325 79.0892 344.091 77.0075L352.511 72.0164C353.834 74.2466 355.112 76.5399 356.314 78.8315L347.64 83.3687ZM340.207 70.8424C338.867 68.8341 337.452 66.8308 336.001 64.889L343.845 59.0345C345.399 61.1145 346.916 63.2594 348.352 65.4111L340.209 70.8424L340.207 70.8424ZM111.572 70.7639L103.331 65.4811C104.736 63.2918 106.218 61.1197 107.736 59.0226L115.667 64.7593C114.257 66.7079 112.879 68.7283 111.574 70.7639L111.572 70.7639ZM331.482 59.1659C329.935 57.3094 328.315 55.4665 326.666 53.6885L333.848 47.0372C335.613 48.9415 337.348 50.9157 339.005 52.9036L331.482 59.1659ZM120.097 58.9884L112.504 52.8132C114.146 50.7945 115.869 48.7981 117.622 46.8819L124.85 53.482C123.223 55.2618 121.625 57.1149 120.099 58.9901L120.097 58.9884ZM321.565 48.4722C319.826 46.7846 318.018 45.1227 316.195 43.5306L322.632 36.1575C324.585 37.8621 326.521 39.6419 328.384 41.4489L321.565 48.4705V48.4722ZM310.568 38.8791C308.663 37.3878 306.689 35.9254 304.704 34.5331L310.324 26.5201C312.453 28.0114 314.566 29.5778 316.606 31.1767L310.568 38.8791ZM140.88 38.7221L134.893 30.9787C136.947 29.3918 139.077 27.8408 141.225 26.3699L146.759 34.4409C144.764 35.8077 142.787 37.2479 140.878 38.7221L140.88 38.7221ZM298.614 30.5027C296.559 29.2195 294.441 27.9739 292.319 26.8016L297.056 18.2374C299.33 19.4933 301.599 20.8277 303.801 22.203L298.614 30.5027ZM152.878 30.501L147.808 22.1296C150.022 20.7884 152.313 19.4882 154.612 18.2665L159.211 26.9057C157.07 28.0438 154.94 29.2536 152.879 30.501L152.878 30.501ZM165.734 23.6602L161.611 14.7838C163.952 13.6986 166.364 12.656 168.783 11.6851L172.43 20.7662C170.171 21.6723 167.918 22.6449 165.734 23.6585V23.6602ZM179.275 18.2272L176.102 8.97027C178.534 8.13757 181.037 7.34924 183.54 6.62916L186.249 16.0328C183.902 16.7086 181.556 17.4474 179.277 18.2272L179.275 18.2272ZM272.366 17.7836C270.086 16.9679 267.755 16.2018 265.435 15.509L268.239 6.13261C270.725 6.87488 273.226 7.69563 275.669 8.57099L272.366 17.7836ZM258.394 13.6081C256.042 13.0399 253.642 12.5297 251.26 12.0878L253.046 2.46567C255.598 2.93833 258.171 3.48778 260.692 4.09524L258.394 13.6081ZM207.738 11.4564L206.349 1.76948C208.879 1.40603 211.472 1.09036 214.053 0.830994L215.033 10.5674C212.588 10.8131 210.135 11.1117 207.738 11.4547L207.738 11.4564ZM244.056 10.9496C241.658 10.6357 239.216 10.3831 236.799 10.1971L237.552 0.44024C240.142 0.639883 242.757 0.911192 245.326 1.24734L244.058 10.9496L244.056 10.9496ZM222.37 9.97872L221.781 0.21159C223.144 0.129685 224.535 0.0597248 225.916 0.00512168L226.111 0.00170899C227.318 0.00170899 228.542 0.0170661 229.749 0.046074L229.511 9.82856C228.415 9.80126 227.306 9.78761 226.208 9.78761C224.924 9.8388 223.635 9.90364 222.372 9.98043L222.37 9.97872Z" fill="url(#paint2_linear_60_1077)"/>
<path d="M226.479 248.407C170.425 248.407 124.823 202.825 124.823 146.797C124.823 90.7692 170.425 45.1875 226.479 45.1875C282.533 45.1875 328.136 90.7692 328.136 146.797C328.136 202.825 282.533 248.407 226.479 248.407ZM226.479 57.8349C177.403 57.8349 137.478 97.743 137.478 146.797C137.478 195.851 177.404 235.759 226.479 235.759C275.555 235.759 315.483 195.851 315.483 146.797C315.483 97.743 275.556 57.8349 226.479 57.8349Z" fill="url(#paint3_linear_60_1077)"/>
<path style="mix-blend-mode:color-dodge" d="M261.419 171.141C305.871 171.141 341.906 135.123 341.906 90.6923C341.906 46.2615 305.871 10.2432 261.419 10.2432C216.968 10.2432 180.933 46.2615 180.933 90.6923C180.933 135.123 216.968 171.141 261.419 171.141Z" fill="url(#paint4_radial_60_1077)"/>
<path style="mix-blend-mode:color-dodge" d="M104.663 273.35C154.002 273.35 193.999 233.371 193.999 184.055C193.999 134.739 154.002 94.7603 104.663 94.7603C55.3239 94.7603 15.3267 134.739 15.3267 184.055C15.3267 233.371 55.3239 273.35 104.663 273.35Z" fill="url(#paint5_radial_60_1077)"/>
<path style="mix-blend-mode:color-dodge" d="M194.119 293.086C243.458 293.086 283.455 253.107 283.455 203.791C283.455 154.475 243.458 114.496 194.119 114.496C144.78 114.496 104.783 154.475 104.783 203.791C104.783 253.107 144.78 293.086 194.119 293.086Z" fill="url(#paint6_radial_60_1077)"/>
<path d="M226.479 220.754C226.403 220.754 226.326 220.745 226.251 220.725C226.083 220.684 209.376 216.416 192.917 203.76C183.238 196.317 175.523 187.47 169.988 177.464C163.071 164.958 159.563 150.607 159.563 134.813L159.563 98.6781C159.563 98.2139 159.899 97.8181 160.358 97.743C160.782 97.673 202.914 90.6275 225.904 72.9805C226.244 72.7194 226.718 72.7194 227.058 72.9805C250.048 90.6275 292.182 97.673 292.604 97.743C293.063 97.8181 293.399 98.2139 293.399 98.6781L293.399 134.813C293.399 150.607 289.891 164.958 282.974 177.464C277.439 187.47 269.725 196.317 260.045 203.76C243.587 216.416 226.879 220.682 226.712 220.725C226.636 220.743 226.56 220.754 226.483 220.754H226.479ZM161.456 99.4749L161.456 134.815C161.456 169.799 179.163 190.778 194.016 202.218C209.123 213.851 224.434 218.273 226.479 218.827C228.526 218.273 243.836 213.851 258.942 202.218C273.796 190.778 291.503 169.8 291.503 134.815L291.503 99.4749C285.586 98.4136 248.175 91.1957 226.479 74.9223C204.783 91.1957 167.373 98.4136 161.456 99.4749Z" fill="white"/>
<path d="M226.479 186.253C221.529 186.253 217.503 182.228 217.503 177.279L217.503 145.524C210.671 142.125 206.289 135.103 206.289 127.464C206.289 116.335 215.347 107.283 226.479 107.283C237.612 107.283 246.67 116.337 246.67 127.464C246.67 135.103 242.289 142.125 235.455 145.524L235.455 177.279C235.455 182.228 231.428 186.253 226.479 186.253ZM226.479 109.177C216.392 109.177 208.184 117.381 208.184 127.464C208.184 134.569 212.37 141.086 218.847 144.069C219.183 144.224 219.398 144.558 219.398 144.929L219.398 177.279C219.398 181.183 222.575 184.359 226.479 184.359C230.384 184.359 233.561 181.183 233.561 177.279L233.561 144.929C233.561 144.558 233.776 144.222 234.112 144.069C240.589 141.088 244.775 134.569 244.775 127.464C244.775 117.381 236.567 109.177 226.479 109.177Z" fill="white"/>
<path d="M226.467 178.334C225.564 178.334 224.827 179.008 224.711 179.878L191.116 179.878C191.053 179.878 190.993 179.904 190.949 179.948L89.2988 281.549L3.5389 281.549C3.42282 280.679 2.68363 280.005 1.78226 280.005C0.798943 280.005 0.00170898 280.802 0.00170898 281.784C0.00170898 282.767 0.798943 283.564 1.78226 283.564C2.68533 283.564 3.42282 282.89 3.5389 282.02L89.3961 282.02C89.4592 282.02 89.519 281.994 89.5634 281.95L191.213 180.349L224.711 180.349C224.827 181.219 225.566 181.893 226.467 181.893C227.451 181.893 228.248 181.096 228.248 180.113C228.248 179.131 227.451 178.334 226.467 178.334Z" fill="url(#paint7_linear_60_1077)"/>
<path d="M228.241 82.8381C227.603 82.1999 226.604 82.1555 225.906 82.6879L173.268 30.0744C173.223 30.03 173.164 30.0044 173.101 30.0044L3.5389 30.0044C3.42282 29.1342 2.68362 28.4602 1.78226 28.4602C0.798943 28.4602 0.00170898 29.2571 0.00170898 30.2399C0.00170898 31.2228 0.798943 32.0214 1.78226 32.0214C2.68533 32.0214 3.42282 31.3473 3.5389 30.4771L173.003 30.4771L225.573 83.0224C225.04 83.7203 225.085 84.7185 225.723 85.3566C226.418 86.0511 227.546 86.0511 228.243 85.3566C228.938 84.6622 228.938 83.5343 228.243 82.8381L228.241 82.8381Z" fill="url(#paint8_linear_60_1077)"/>
<path d="M132.988 141.103C132.349 140.465 131.351 140.42 130.652 140.953L78.0146 88.3393C77.9702 88.2949 77.9104 88.2693 77.8473 88.2693L3.5389 88.2693C3.42282 87.3991 2.68362 86.7251 1.78226 86.7251C0.798943 86.7251 0.00170898 87.522 0.00170898 88.5048C0.00170898 89.4877 0.798943 90.2845 1.78226 90.2845C2.68533 90.2845 3.42282 89.6105 3.5389 88.7403L77.75 88.7403L130.32 141.286C129.787 141.983 129.831 142.982 130.47 143.62C131.165 144.314 132.293 144.314 132.99 143.62C133.686 142.925 133.684 141.797 132.99 141.101L132.988 141.103Z" fill="url(#paint9_linear_60_1077)"/>
<path d="M741.219 17.9594C740.316 17.9594 739.579 18.6334 739.463 19.5036L354.484 19.5036C354.421 19.5036 354.361 19.5292 354.317 19.5736L270.056 103.795C269.358 103.263 268.359 103.307 267.72 103.946C267.026 104.64 267.026 105.768 267.72 106.464C268.415 107.159 269.544 107.159 270.24 106.464C270.879 105.826 270.923 104.828 270.39 104.13L354.581 19.978L739.461 19.978C739.577 20.8482 740.316 21.5222 741.218 21.5222C742.201 21.5222 742.998 20.7253 742.998 19.7425C742.998 18.7596 742.201 17.9628 741.218 17.9628L741.219 17.9594Z" fill="url(#paint10_linear_60_1077)"/>
<path d="M700.555 43.0752C699.652 43.0752 698.915 43.7492 698.799 44.6194L345.081 44.6194C345.018 44.6194 344.958 44.645 344.914 44.6894L304.716 84.8688C304.018 84.3364 303.019 84.3807 302.38 85.0189C301.686 85.7134 301.686 86.8413 302.38 87.5375C303.075 88.232 304.204 88.232 304.9 87.5375C305.539 86.8993 305.583 85.9011 305.05 85.2032L345.18 45.0921L698.8 45.0921C698.918 45.9623 699.656 46.6363 700.557 46.6363C701.54 46.6363 702.338 45.8395 702.338 44.8566C702.338 43.8738 701.54 43.0769 700.557 43.0769L700.555 43.0752Z" fill="url(#paint11_linear_60_1077)"/>
<path d="M700.555 60.5498C699.652 60.5498 698.915 61.2238 698.799 62.094L406.178 62.094C406.115 62.094 406.055 62.1196 406.011 62.164L324.406 143.731L281.733 143.731C281.617 142.861 280.877 142.187 279.976 142.187C278.993 142.187 278.195 142.983 278.195 143.966C278.195 144.949 278.993 145.746 279.976 145.746C280.879 145.746 281.617 145.072 281.733 144.202L324.503 144.202C324.566 144.202 324.626 144.176 324.671 144.132L406.275 62.565L698.797 62.565C698.915 63.4352 699.652 64.1092 700.554 64.1092C701.537 64.1092 702.334 63.3124 702.334 62.3295C702.334 61.3467 701.537 60.5498 700.554 60.5498L700.555 60.5498Z" fill="url(#paint12_linear_60_1077)"/>
<path d="M452.785 236.706C451.882 236.706 451.144 237.38 451.028 238.25L400.703 238.25L368.326 205.89C368.281 205.845 368.221 205.82 368.158 205.82L229.641 205.82C229.525 204.949 228.786 204.275 227.884 204.275C226.901 204.275 226.104 205.072 226.104 206.055C226.104 207.038 226.901 207.835 227.884 207.835C228.787 207.835 229.525 207.161 229.641 206.291L368.061 206.291L400.439 238.651C400.483 238.696 400.543 238.721 400.606 238.721L451.028 238.721C451.144 239.592 451.883 240.266 452.785 240.266C453.768 240.266 454.565 239.469 454.565 238.486C454.565 237.503 453.768 236.706 452.785 236.706Z" fill="url(#paint13_linear_60_1077)"/>
<path style="mix-blend-mode:color-dodge" d="M140.026 241.498C173.368 208.172 198.133 178.894 195.342 176.104C192.551 173.314 163.259 198.068 129.918 231.394C96.5766 264.72 71.811 293.997 74.6024 296.788C77.3938 299.578 106.685 274.823 140.026 241.498Z" fill="url(#paint14_radial_60_1077)"/>
<path style="mix-blend-mode:color-dodge" d="M371.577 106.317C393.314 84.5903 408.822 64.8666 406.217 62.2624C403.612 59.6582 383.879 75.1598 362.142 96.8861C340.406 118.612 324.897 138.336 327.503 140.94C330.108 143.545 349.841 128.043 371.577 106.317Z" fill="url(#paint15_radial_60_1077)"/>
<path style="mix-blend-mode:color-dodge" d="M325.587 212.471C391.897 212.471 445.652 209.486 445.652 205.803C445.652 202.12 391.897 199.134 325.587 199.134C259.277 199.134 205.523 202.12 205.523 205.803C205.523 209.486 259.277 212.471 325.587 212.471Z" fill="url(#paint16_radial_60_1077)"/>
<path style="mix-blend-mode:color-dodge" d="M452.288 50.0865C561.916 50.0865 650.787 47.7427 650.787 44.8514C650.787 41.9602 561.916 39.6163 452.288 39.6163C342.66 39.6163 253.788 41.9602 253.788 44.8514C253.788 47.7427 342.66 50.0865 452.288 50.0865Z" fill="url(#paint17_radial_60_1077)"/>
<path style="mix-blend-mode:color-dodge" d="M87.187 38.8126C131.422 38.8126 167.281 34.9783 167.281 30.2485C167.281 25.5186 131.422 21.6843 87.187 21.6843C42.9524 21.6843 7.09317 25.5186 7.09317 30.2485C7.09317 34.9783 42.9524 38.8126 87.187 38.8126Z" fill="url(#paint18_radial_60_1077)"/>
</g>
<defs>
<linearGradient id="paint0_linear_60_1077" x1="115.887" y1="146.804" x2="337.071" y2="146.804" gradientUnits="userSpaceOnUse">
<stop stop-color="#4CC9F0"/>
<stop offset="1" stop-color="#2484C6"/>
</linearGradient>
<linearGradient id="paint1_linear_60_1077" x1="94.5328" y1="146.797" x2="358.424" y2="146.797" gradientUnits="userSpaceOnUse">
<stop stop-color="#00CAF9"/>
<stop offset="1" stop-color="#DD0EE2"/>
</linearGradient>
<linearGradient id="paint2_linear_60_1077" x1="226.479" y1="293.538" x2="226.479" y2="-5.64374e-06" gradientUnits="userSpaceOnUse">
<stop stop-color="#883D50"/>
<stop offset="0.29" stop-color="#562B67"/>
<stop offset="0.53" stop-color="#3D2255"/>
<stop offset="0.82" stop-color="#271B45"/>
<stop offset="1" stop-color="#201940"/>
</linearGradient>
<linearGradient id="paint3_linear_60_1077" x1="226.479" y1="248.407" x2="226.479" y2="45.1858" gradientUnits="userSpaceOnUse">
<stop stop-color="#4CC9F0"/>
<stop offset="0.09" stop-color="#00CAF9"/>
<stop offset="0.24" stop-color="#4361EE"/>
<stop offset="0.45" stop-color="#6EA3C6"/>
<stop offset="0.69" stop-color="#A35FAE"/>
<stop offset="0.97" stop-color="#E4098F"/>
<stop offset="1" stop-color="#EC008C"/>
</linearGradient>
<radialGradient id="paint4_radial_60_1077" cx="0" cy="0" r="1" gradientUnits="userSpaceOnUse" gradientTransform="translate(261.419 90.6923) scale(80.4865 80.4492)">
<stop stop-color="#EC008C"/>
<stop offset="0.37" stop-color="#890051"/>
<stop offset="0.67" stop-color="#3F0025"/>
<stop offset="0.89" stop-color="#11000A"/>
<stop offset="0.99"/>
</radialGradient>
<radialGradient id="paint5_radial_60_1077" cx="0" cy="0" r="1" gradientUnits="userSpaceOnUse" gradientTransform="translate(104.663 184.055) scale(89.3363 89.2949)">
<stop stop-color="#EC008C"/>
<stop offset="0.37" stop-color="#890051"/>
<stop offset="0.67" stop-color="#3F0025"/>
<stop offset="0.89" stop-color="#11000A"/>
<stop offset="0.99"/>
</radialGradient>
<radialGradient id="paint6_radial_60_1077" cx="0" cy="0" r="1" gradientUnits="userSpaceOnUse" gradientTransform="translate(194.119 203.791) scale(89.3363 89.2949)">
<stop stop-color="#1C75BC"/>
<stop offset="0.24" stop-color="#145488"/>
<stop offset="0.6" stop-color="#09273F"/>
<stop offset="0.86" stop-color="#020A11"/>
<stop offset="0.99"/>
</radialGradient>
<linearGradient id="paint7_linear_60_1077" x1="1.84458e-06" y1="230.951" x2="228.248" y2="230.951" gradientUnits="userSpaceOnUse">
<stop stop-color="#EC008C"/>
<stop offset="1" stop-color="white"/>
</linearGradient>
<linearGradient id="paint8_linear_60_1077" x1="1.84494e-06" y1="57.1695" x2="228.763" y2="57.1695" gradientUnits="userSpaceOnUse">
<stop stop-color="#EC008C"/>
<stop offset="1" stop-color="white"/>
</linearGradient>
<linearGradient id="paint9_linear_60_1077" x1="1.8447e-06" y1="115.434" x2="133.51" y2="115.434" gradientUnits="userSpaceOnUse">
<stop stop-color="#EC008C"/>
<stop offset="1" stop-color="white"/>
</linearGradient>
<linearGradient id="paint10_linear_60_1077" x1="267.2" y1="62.4711" x2="743" y2="62.4711" gradientUnits="userSpaceOnUse">
<stop stop-color="white"/>
<stop offset="1" stop-color="#EC008C"/>
</linearGradient>
<linearGradient id="paint11_linear_60_1077" x1="301.858" y1="65.5666" x2="702.338" y2="65.5666" gradientUnits="userSpaceOnUse">
<stop stop-color="white"/>
<stop offset="1" stop-color="#EC008C"/>
</linearGradient>
<linearGradient id="paint12_linear_60_1077" x1="278.195" y1="103.147" x2="702.338" y2="103.147" gradientUnits="userSpaceOnUse">
<stop stop-color="white"/>
<stop offset="1" stop-color="#EC008C"/>
</linearGradient>
<linearGradient id="paint13_linear_60_1077" x1="226.104" y1="222.272" x2="454.565" y2="222.272" gradientUnits="userSpaceOnUse">
<stop stop-color="white"/>
<stop offset="1" stop-color="#EC008C"/>
</linearGradient>
<radialGradient id="paint14_radial_60_1077" cx="0" cy="0" r="1" gradientUnits="userSpaceOnUse" gradientTransform="translate(133.67 224.892) rotate(-44.9867) scale(84.4674 7.85743)">
<stop stop-color="#29FFE7"/>
<stop offset="0.08" stop-color="#27F5DE"/>
<stop offset="0.22" stop-color="#23DDC8"/>
<stop offset="0.4" stop-color="#1DB5A4"/>
<stop offset="0.6" stop-color="#147D72"/>
<stop offset="0.83" stop-color="#093732"/>
<stop offset="0.99"/>
</radialGradient>
<radialGradient id="paint15_radial_60_1077" cx="0" cy="0" r="1" gradientUnits="userSpaceOnUse" gradientTransform="translate(341.5 66.8551) rotate(-44.9867) scale(54.9844 5.89118)">
<stop stop-color="#29FFE7"/>
<stop offset="0.08" stop-color="#27F5DE"/>
<stop offset="0.22" stop-color="#23DDC8"/>
<stop offset="0.4" stop-color="#1DB5A4"/>
<stop offset="0.6" stop-color="#147D72"/>
<stop offset="0.83" stop-color="#093732"/>
<stop offset="0.99"/>
</radialGradient>
<radialGradient id="paint16_radial_60_1077" cx="0" cy="0" r="1" gradientUnits="userSpaceOnUse" gradientTransform="translate(325.519 87.6689) scale(119.715 5.8849)">
<stop stop-color="#29FFE7"/>
<stop offset="0.08" stop-color="#27F5DE"/>
<stop offset="0.22" stop-color="#23DDC8"/>
<stop offset="0.4" stop-color="#1DB5A4"/>
<stop offset="0.6" stop-color="#147D72"/>
<stop offset="0.83" stop-color="#093732"/>
<stop offset="0.99"/>
</radialGradient>
<radialGradient id="paint17_radial_60_1077" cx="0" cy="0" r="1" gradientUnits="userSpaceOnUse" gradientTransform="translate(451.545 144.389) scale(198.208 5.88465)">
<stop stop-color="#29FFE7"/>
<stop offset="0.08" stop-color="#27F5DE"/>
<stop offset="0.22" stop-color="#23DDC8"/>
<stop offset="0.4" stop-color="#1DB5A4"/>
<stop offset="0.6" stop-color="#147D72"/>
<stop offset="0.83" stop-color="#093732"/>
<stop offset="0.99"/>
</radialGradient>
<radialGradient id="paint18_radial_60_1077" cx="0" cy="0" r="1" gradientUnits="userSpaceOnUse" gradientTransform="translate(85.5181 -41.3092) scale(80.5294 7.85288)">
<stop stop-color="#29FFE7"/>
<stop offset="0.08" stop-color="#27F5DE"/>
<stop offset="0.22" stop-color="#23DDC8"/>
<stop offset="0.4" stop-color="#1DB5A4"/>
<stop offset="0.6" stop-color="#147D72"/>
<stop offset="0.83" stop-color="#093732"/>
<stop offset="0.99"/>
</radialGradient>
<clipPath id="clip0_60_1077">
<rect width="743" height="297" fill="white"/>
</clipPath>
</defs>
</svg>
