<svg width="1920" height="1080" viewBox="0 0 1920 1080" fill="none" xmlns="http://www.w3.org/2000/svg">
<g clip-path="url(#clip0_19_4)">
<rect width="1920" height="1080" fill="#0E002F"/>
<g filter="url(#filter0_f_19_4)">
<path d="M593 802C593 955.259 468.759 1079.5 315.5 1079.5C162.241 1079.5 38 955.259 38 802C38 648.741 162.241 586 315.5 586C315.5 717 593 648.741 593 802Z" fill="#3A0CA3"/>
</g>
<g filter="url(#filter1_f_19_4)">
<path d="M2225.5 -119C2225.5 34.259 1843 -180.5 1948 158.5C1794.74 158.5 1802 54.759 1802 -98.5C1802 -251.759 1794.74 -335 1948 -335C1948 -204 2225.5 -272.259 2225.5 -119Z" fill="#4361EE"/>
</g>
<g filter="url(#filter2_f_19_4)">
<path d="M959.554 -31C959.554 122.259 577.056 -92.5 682.054 246.5C528.798 246.5 536.054 142.759 536.054 -10.5C536.054 -163.759 528.798 -247 682.054 -247C682.054 -116 959.554 -184.259 959.554 -31Z" fill="#560BAD"/>
</g>
<g filter="url(#filter3_f_19_4)">
<path d="M438 959C438 1112.26 313.759 1236.5 160.5 1236.5C7.24098 1236.5 -117 1112.26 -117 959C-117 805.741 7.24098 743 160.5 743C160.5 874 438 805.741 438 959Z" fill="#7209B7"/>
</g>
<g filter="url(#filter4_f_19_4)">
<path d="M2145 940.337C2145 1185.37 1947.11 1384 1703 1384C1540.88 1279.2 1458.5 1158.5 1261 940.337C1261 695.309 1458.89 595 1703 595C1559 854.5 2145 695.309 2145 940.337Z" fill="#AB16AF" fill-opacity="0.08"/>
</g>
<g filter="url(#filter5_f_19_4)">
<path d="M885.322 1034.41C926.497 1119.84 893.325 1221.17 811.23 1260.74C739.097 1250.48 629.206 1263.12 588.031 1177.69C546.856 1092.25 596.551 1025.21 678.646 985.64C713.84 1058.67 844.147 948.975 885.322 1034.41Z" fill="#3A0CA3"/>
</g>
<g filter="url(#filter6_f_19_4)">
<path d="M2197.58 872.492C2294.52 1073.64 2216.42 1312.22 2023.14 1405.37C1853.3 1381.21 1594.57 1410.98 1497.63 1209.83C1400.69 1008.69 1517.69 850.825 1710.97 757.671C1793.84 929.604 2100.64 671.345 2197.58 872.492Z" fill="#290C6A"/>
</g>
<g clip-path="url(#clip1_19_4)">
<path d="M1645.7 421.129L1605.43 397.857L1645.45 374.731L1685.72 398.002L1645.7 421.129Z" fill="#00CAF9"/>
<path d="M1605.43 404.169V397.857L1645.7 421.129V427.441L1605.43 404.169Z" fill="#0099B2"/>
<path d="M1685.97 404.169V397.857L1645.7 421.129V427.441L1685.97 404.169Z" fill="#3CDDF7"/>
<path d="M1076.92 750.117L1009.57 711.193L1076.5 672.513L1143.86 711.437L1076.92 750.117Z" fill="#00CAF9"/>
<path d="M1009.57 721.751V711.193L1076.92 750.117V760.675L1009.57 721.751Z" fill="#0099B2"/>
<path d="M1144.28 721.751V711.193L1076.92 750.117V760.675L1144.28 721.751Z" fill="#3CDDF7"/>
<path d="M1124.18 843.575C1124.21 839.383 1118.34 835.952 1111.09 835.913C1103.84 835.873 1097.94 839.24 1097.91 843.433C1097.89 847.626 1103.75 851.057 1111.01 851.096C1118.26 851.135 1124.16 847.768 1124.18 843.575Z" fill="#00CAF9"/>
<path d="M1802.18 490.682C1800.66 491.559 1798.17 491.552 1796.65 490.672C1795.12 489.792 1795.11 488.352 1796.63 487.475C1798.14 486.598 1800.63 486.604 1802.16 487.484C1803.68 488.367 1803.69 489.805 1802.17 490.682H1802.18Z" fill="#00CAF9"/>
<path d="M1616.17 434.184C1616.19 431.679 1612.68 429.629 1608.35 429.605C1604.01 429.582 1600.48 431.594 1600.47 434.099C1600.45 436.605 1603.96 438.655 1608.3 438.678C1612.63 438.702 1616.16 436.69 1616.17 434.184Z" fill="#00CAF9"/>
<path d="M1613.86 383.141C1613.87 381.372 1611.4 379.924 1608.34 379.907C1605.28 379.891 1602.79 381.312 1602.78 383.081C1602.77 384.851 1605.24 386.298 1608.3 386.315C1611.36 386.331 1613.85 384.911 1613.86 383.141Z" fill="#00CAF9"/>
<path d="M1608.16 433.822L1475.29 510.203L1475.61 510.754L1608.47 434.374L1608.16 433.822Z" fill="#00CAF9"/>
<path d="M1555.13 455.164L1540.61 446.775L1585.18 420.765V395.239L1608.04 382.56L1608.65 383.674L1586.45 395.989V421.496L1543.15 446.769L1555.77 454.06L1555.13 455.164Z" fill="#00CAF9"/>
<path d="M1138.11 278.272C1138.12 275.767 1134.62 273.716 1130.28 273.693C1125.94 273.669 1122.42 275.682 1122.4 278.187C1122.39 280.692 1125.89 282.743 1130.23 282.766C1134.57 282.79 1138.09 280.777 1138.11 278.272Z" fill="#00CAF9"/>
<path d="M1134.19 229.471C1132.05 230.712 1128.52 230.705 1126.36 229.458C1124.19 228.207 1124.18 226.169 1126.33 224.928C1128.48 223.687 1132 223.693 1134.17 224.943C1136.33 226.194 1136.34 228.233 1134.19 229.474V229.471Z" fill="#00CAF9"/>
<path d="M1130.11 277.96L997.174 354.225L997.49 354.777L1130.42 278.512L1130.11 277.96Z" fill="#00CAF9"/>
<path d="M1077.05 299.248L1062.53 290.856L1107.1 264.845V239.323L1129.95 226.643L1130.57 227.758L1108.37 240.073V265.58L1065.07 290.852L1077.69 298.143L1077.05 299.248Z" fill="#00CAF9"/>
<path d="M1564.32 298.086C1564.33 295.581 1560.83 293.531 1556.49 293.507C1552.15 293.484 1548.63 295.496 1548.61 298.001C1548.6 300.507 1552.1 302.557 1556.44 302.58C1560.78 302.604 1564.31 300.592 1564.32 298.086Z" fill="#00CAF9"/>
<path d="M1562.01 247.047C1562.02 245.277 1559.54 243.829 1556.48 243.813C1553.42 243.796 1550.94 245.217 1550.93 246.987C1550.92 248.756 1553.39 250.204 1556.45 250.22C1559.51 250.237 1562 248.816 1562.01 247.047Z" fill="#00CAF9"/>
<path d="M1556.3 297.72L1423.43 374.1L1423.75 374.652L1556.62 298.271L1556.3 297.72Z" fill="#00CAF9"/>
<path d="M1503.28 319.066L1488.76 310.674L1533.32 284.663V259.14L1556.18 246.461L1556.8 247.576L1534.6 259.891V285.398L1491.29 310.67L1503.91 317.961L1503.28 319.066Z" fill="#00CAF9"/>
<path d="M1582.02 592.144C1586.35 592.12 1589.86 590.07 1589.84 587.565C1589.83 585.059 1586.3 583.047 1581.97 583.071C1577.63 583.094 1574.12 585.144 1574.14 587.65C1574.15 590.155 1577.68 592.167 1582.02 592.144Z" fill="#00CAF9"/>
<path d="M1582.01 539.776C1585.07 539.759 1587.54 538.311 1587.53 536.542C1587.53 534.773 1585.04 533.352 1581.98 533.368C1578.92 533.385 1576.44 534.833 1576.45 536.602C1576.46 538.371 1578.95 539.792 1582.01 539.776Z" fill="#00CAF9"/>
<path d="M1582.2 587.361L1581.88 587.913L1714.8 664.2L1715.12 663.648L1582.2 587.361Z" fill="#00CAF9"/>
<path d="M1635.21 608.599L1634.58 607.497L1647.2 600.203L1603.89 574.93V549.423L1581.69 537.108L1582.31 535.994L1605.17 548.673V574.199L1649.74 600.209L1635.21 608.599Z" fill="#00CAF9"/>
<path d="M1780.3 584.311C1777.25 586.071 1772.26 586.061 1769.2 584.291C1766.13 582.522 1766.12 579.631 1769.16 577.874C1772.21 576.114 1777.2 576.124 1780.27 577.893C1783.33 579.663 1783.35 582.553 1780.3 584.311Z" fill="#00CAF9"/>
<path d="M1780.24 530.079C1780.25 528.309 1777.78 526.862 1774.72 526.845C1771.66 526.828 1769.17 528.249 1769.16 530.019C1769.15 531.788 1771.63 533.236 1774.69 533.253C1777.75 533.269 1780.23 531.848 1780.24 530.079Z" fill="#00CAF9"/>
<path d="M1774.54 580.767L1641.68 657.148L1641.99 657.7L1774.86 581.319L1774.54 580.767Z" fill="#00CAF9"/>
<path d="M1721.52 602.109L1707 593.719L1751.57 567.709V542.183L1774.42 529.504L1775.04 530.618L1752.84 542.933V568.44L1752.52 568.624L1709.54 593.713L1722.16 601.004L1721.52 602.109Z" fill="#00CAF9"/>
<path d="M1401.42 710.032C1401.44 706.044 1395.86 702.78 1388.96 702.743C1382.06 702.706 1376.45 705.908 1376.42 709.896C1376.4 713.885 1381.98 717.148 1388.88 717.185C1395.78 717.223 1401.39 714.02 1401.42 710.032Z" fill="#00CAF9"/>
<path d="M1397.74 628.819C1397.75 626.004 1393.82 623.701 1388.95 623.675C1384.08 623.648 1380.12 625.909 1380.1 628.724C1380.09 631.539 1384.02 633.842 1388.89 633.868C1393.76 633.895 1397.72 631.634 1397.74 628.819Z" fill="#00CAF9"/>
<path d="M1389.1 710.253L1380.42 715.233L1319.4 750.25L1318.12 750.981L1136.86 855H1135.58L1317.49 750.62L1318.76 749.886L1379.78 714.869L1388.78 709.705L1389.1 710.253Z" fill="#00CAF9"/>
<path d="M1413.92 806.351L1281.92 730.068L1352.46 688.903V648.295L1352.79 648.111L1388.63 628.23L1389.24 629.344L1353.73 649.045V689.634L1353.42 689.818L1284.46 730.061L1414.56 805.246L1413.92 806.351Z" fill="#00CAF9"/>
<path d="M1034.59 680.852C1034.6 677.894 1030.47 675.473 1025.35 675.446C1020.23 675.418 1016.06 677.794 1016.05 680.752C1016.03 683.71 1020.17 686.131 1025.29 686.159C1030.41 686.186 1034.57 683.811 1034.59 680.852Z" fill="#00CAF9"/>
<path d="M936.534 800.95L912.886 787.286L987.004 744.029V701.344L987.333 701.161L1025.01 680.26L1025.63 681.374L988.279 702.095V744.76L987.962 744.947L915.426 787.28L937.17 799.848L936.534 800.95Z" fill="#00CAF9"/>
<path d="M1118.23 415.214C1118.25 412.255 1114.11 409.835 1108.99 409.807C1103.87 409.779 1099.71 412.155 1099.69 415.113C1099.68 418.071 1103.81 420.492 1108.93 420.52C1114.05 420.548 1118.22 418.172 1118.23 415.214Z" fill="#00CAF9"/>
<path d="M1115.47 590.373L996.537 521.64L1070.65 478.382V435.698L1108.66 414.614L1109.28 415.728L1071.93 436.448V479.117L999.073 521.634L1116.11 589.268L1115.47 590.373Z" fill="#00CAF9"/>
<path d="M1590.13 565.793C1590.15 561.176 1583.69 557.397 1575.7 557.354C1567.71 557.311 1561.21 561.019 1561.19 565.637C1561.16 570.254 1567.62 574.033 1575.61 574.076C1583.6 574.119 1590.1 570.411 1590.13 565.793Z" fill="#00CAF9"/>
<path d="M1387.53 820.179L1338.39 791.782L1495.04 700.353V609.732L1495.37 609.552L1575.37 565.173L1575.99 566.288L1496.32 610.485V701.088L1496 701.271L1340.93 791.776L1388.17 819.074L1387.53 820.179Z" fill="#00CAF9"/>
<path d="M1611.61 692.914L1610.7 693.43L1413.92 806.348L1329.14 855H1327.87L1413.28 805.977L1414.55 805.256L1610.06 693.062L1611.29 692.36L1611.45 692.635L1611.61 692.914Z" fill="#00CAF9"/>
<path d="M1651.76 713.422L1648.51 715.283L1405.04 855H1402.48L1647.24 714.546L1651.13 712.314L1651.76 713.422Z" fill="#00CAF9"/>
<path d="M1711.63 388.059L1689.02 374.993L1667.27 387.511L1666.63 386.406L1689.02 373.521L1711.62 386.583L1777 348.192L1777.65 349.29L1711.63 388.059Z" fill="#00CAF9"/>
<path d="M1755.78 680.342L1733.17 667.277L1711.42 679.794L1710.78 678.69L1733.17 665.805L1755.77 678.867L1821.15 640.475L1821.8 641.574L1755.78 680.342Z" fill="#00CAF9"/>
<path d="M1711.62 704.382L1710.98 705.487L1843.23 781.914L1843.87 780.809L1711.62 704.382Z" fill="#00CAF9"/>
<path d="M1920 611.286V612.758L1856.76 576.206L1855.25 575.339L1855.07 575.231L1853.5 574.326L1850.96 572.853L1841.96 567.658L1841.33 567.288L1835.52 563.935L1835.46 563.897L1835.52 563.787L1836.09 562.792L1841.33 565.822L1843.23 566.918L1852.23 572.119L1854.77 573.585L1856.34 574.496L1856.52 574.601L1858.04 575.472L1920 611.286Z" fill="#00CAF9"/>
<path d="M1667.47 412.096L1666.83 413.201L1799.08 489.629L1799.72 488.524L1667.47 412.096Z" fill="#00CAF9"/>
<path d="M1042.32 740.866L901 821.959V821.227L936.43 800.896L936.633 800.776L1041.84 740.401L1042.01 740.312L1042.16 740.585L1042.32 740.866Z" fill="#00CAF9"/>
<path d="M1061.32 750.671L1060.47 751.161L1006.2 782.3L1004.92 783.035L901 842.663V841.197L1059.19 750.421L1060.69 749.56L1061.32 750.671Z" fill="#00CAF9"/>
<path d="M1899.91 281.054C1899.93 278.096 1895.79 275.675 1890.67 275.647C1885.55 275.619 1881.39 277.995 1881.37 280.953C1881.36 283.912 1885.49 286.332 1890.61 286.36C1895.73 286.388 1899.9 284.012 1899.91 281.054Z" fill="#00CAF9"/>
<path d="M1801.88 401.14L1778.24 387.476L1852.35 344.219V301.534L1890.36 280.45L1890.98 281.564L1853.63 302.284V344.953L1780.78 387.47L1802.52 400.035L1801.88 401.14Z" fill="#00CAF9"/>
<path d="M1907.32 340.434L1724.3 445.646L1724.61 446.198L1907.63 340.986L1907.32 340.434Z" fill="#00CAF9"/>
<path d="M1005.23 781.773L1004.59 782.879L1114.99 846.24L1115.62 845.133L1005.23 781.773Z" fill="#00CAF9"/>
<path d="M1298.26 588.314L1115.15 693.366L1115.46 693.918L1298.57 588.866L1298.26 588.314Z" fill="#00CAF9"/>
<path d="M1044.96 633.501L1044.09 631.991L1043.62 632.263L1043.67 631.44C1039.96 629.113 999.551 605.711 978.009 593.26L978.645 592.155C978.645 592.155 995.145 601.691 1011.64 611.258C1019.89 616.041 1028.14 620.834 1034.33 624.45C1040.79 628.227 1043.33 629.705 1044.32 630.386C1044.49 630.278 1044.71 630.155 1044.97 630.006L1129.94 580.901L1130.57 582.006C1130.57 582.006 1050.65 628.192 1044.96 631.484V633.498L1044.96 633.501Z" fill="#00CAF9"/>
<path d="M1401.21 546.77L1386.74 555.131L1372.16 546.77L1240.55 471.275V453.923L1386.74 538.409L1401.21 546.77Z" fill="#00CAF9"/>
<path d="M1240.55 453.923V471.275L1108.95 546.754L1094.37 555.115L1079.91 546.764L1094.38 538.403L1240.55 453.923Z" fill="#00CAF9"/>
<path d="M1240.57 622.249V639.601L1094.37 555.115L1079.91 546.764L1094.38 538.403L1108.95 546.754L1240.57 622.249Z" fill="#00CAF9"/>
<path d="M1401.21 546.77L1386.74 555.131L1240.57 639.601V622.249L1372.16 546.77L1386.74 538.409L1401.21 546.77Z" fill="#00CAF9"/>
<path d="M1240.57 638.778L1080.09 546.764V553.241L1240.57 645.29L1240.64 645.243V638.731L1240.57 638.778Z" fill="#0099B2"/>
<path d="M1401.21 546.77L1386.14 554.868L1240.64 638.731V645.243L1401.04 553.241L1401.21 546.77Z" fill="#3CDDF7"/>
<path d="M1380.82 459.264V551.56L1240.56 632.621V540.325L1380.82 459.264Z" fill="#0A1B9B"/>
<path d="M1240.56 540.325L1380.82 459.264L1240.56 378.203L1100.28 459.264L1240.56 540.325Z" fill="#001BB7"/>
<path d="M1240.56 540.325V632.621L1100.28 551.56V459.264L1240.56 540.325Z" fill="#001084"/>
<path d="M1260.59 551.905V575.066L1360.79 517.164V494.006L1260.59 551.905Z" fill="#0029D3"/>
<path d="M1260.59 551.905L1310.69 578.115L1414.33 519.674L1360.79 494.006L1260.59 551.905Z" fill="url(#paint0_linear_19_4)"/>
<path d="M1113.92 522.954V498.846L1217.63 557.695V580.853L1113.92 522.954Z" fill="#001BB7"/>
<path d="M1063.82 525.056L1113.92 498.846L1217.56 557.29L1164.02 582.959L1063.82 525.056Z" fill="url(#paint1_linear_19_4)"/>
<path d="M1240.71 419.261L1329.1 470.211L1338.15 465.073L1240.71 409.181V419.261Z" fill="#0099B2"/>
<path d="M1240.71 419.261L1152.31 470.211L1143.26 465.073L1240.71 409.181V419.261Z" fill="#3CDDF7"/>
<path d="M1338.26 455.019L1329.48 460.097L1320.63 455.019L1240.71 409.178V398.642L1329.47 449.941L1338.26 455.019Z" fill="#00CAF9"/>
<path d="M1240.71 398.642V409.178L1160.8 455.009L1151.95 460.084L1143.17 455.012L1151.96 449.938L1240.71 398.642Z" fill="#00CAF9"/>
<path d="M1240.72 500.85V511.386L1151.95 460.084L1143.17 455.012L1151.96 449.938L1160.8 455.009L1240.72 500.85Z" fill="#00CAF9"/>
<path d="M1338.26 455.019L1329.48 460.097L1240.72 511.386V500.85L1320.63 455.019L1329.47 449.941L1338.26 455.019Z" fill="#00CAF9"/>
<path d="M1240.72 510.886L1152.33 459.935L1152.02 460.109L1143.28 455.012V465.077L1240.72 520.966L1240.77 520.94V510.857L1240.72 510.886Z" fill="#0099B2"/>
<path d="M1338.26 455.019L1329.12 459.935L1240.77 510.857V520.94L1338.16 465.076L1338.26 455.019Z" fill="#3CDDF7"/>
<path d="M1240.71 419.261V455.012L1199.69 476.932L1169.45 459.97L1240.71 419.261Z" fill="url(#paint2_linear_19_4)"/>
<path d="M1240.71 419.261V455.012L1282.1 476.932L1311.45 460.28L1240.71 419.261Z" fill="url(#paint3_linear_19_4)"/>
<path d="M1882.12 559.813L1877.92 562.238L1873.69 559.813L1835.51 537.915V532.882L1877.92 557.388L1882.12 559.813Z" fill="#00CAF9"/>
<path d="M1835.51 532.882V537.915L1797.35 559.807L1793.12 562.232L1788.92 559.81L1793.12 557.385L1835.51 532.882Z" fill="#00CAF9"/>
<path d="M1835.52 581.705V586.739L1793.12 562.232L1788.92 559.81L1793.12 557.385L1797.35 559.807L1835.52 581.705Z" fill="#00CAF9"/>
<path d="M1882.12 559.813L1877.92 562.238L1835.52 586.739V581.705L1873.69 559.813L1877.92 557.388L1882.12 559.813Z" fill="#00CAF9"/>
<path d="M1835.52 586.501L1788.97 559.81V561.688L1835.52 588.388L1835.54 588.375V586.485L1835.52 586.501Z" fill="#0099B2"/>
<path d="M1882.12 559.813L1877.75 562.162L1835.54 586.485V588.375L1882.07 561.688L1882.12 559.813Z" fill="#3CDDF7"/>
<path d="M1876.2 534.43V561.2L1835.52 584.713V557.942L1876.2 534.43Z" fill="#0A1B9B"/>
<path d="M1835.52 557.942L1876.2 534.43L1835.52 510.917L1794.83 534.43L1835.52 557.942Z" fill="#001BB7"/>
<path d="M1835.52 557.942V584.713L1794.83 561.2V534.43L1835.52 557.942Z" fill="#001084"/>
<path d="M1841.33 561.301V568.019L1870.39 551.225V544.507L1841.33 561.301Z" fill="#222DB2"/>
<path d="M1841.33 561.301L1855.86 568.902L1885.92 551.953L1870.39 544.507L1841.33 561.301Z" fill="url(#paint4_linear_19_4)"/>
<path d="M1798.78 552.902V545.912L1828.87 562.982V569.7L1798.78 552.902Z" fill="#001BB7"/>
<path d="M1784.25 553.513L1798.78 545.912L1828.85 562.862L1813.32 570.308L1784.25 553.513Z" fill="url(#paint5_linear_19_4)"/>
<path d="M1835.56 522.827L1861.2 537.605L1863.82 536.114L1835.56 519.902V522.827Z" fill="#0099B2"/>
<path d="M1835.56 522.827L1809.92 537.605L1807.3 536.114L1835.56 519.902V522.827Z" fill="#3CDDF7"/>
<path d="M1863.86 533.198L1861.31 534.671L1858.74 533.198L1835.56 519.902V516.847L1861.31 531.726L1863.86 533.198Z" fill="#00CAF9"/>
<path d="M1835.56 516.847V519.902L1812.38 533.195L1809.82 534.667L1807.27 533.198L1809.82 531.726L1835.56 516.847Z" fill="#00CAF9"/>
<path d="M1835.56 546.492V549.55L1809.82 534.667L1807.27 533.198L1809.82 531.726L1812.38 533.195L1835.56 546.492Z" fill="#00CAF9"/>
<path d="M1863.86 533.198L1861.31 534.671L1835.56 549.55V546.492L1858.74 533.198L1861.31 531.726L1863.86 533.198Z" fill="#00CAF9"/>
<path d="M1835.56 549.404L1809.93 534.626L1809.84 534.677L1807.3 533.198V536.117L1835.56 552.329L1835.58 552.32V549.395L1835.56 549.404Z" fill="#0099B2"/>
<path d="M1863.86 533.198L1861.21 534.626L1835.58 549.395V552.32L1863.83 536.117L1863.86 533.198Z" fill="#3CDDF7"/>
<path d="M1835.56 522.827V533.198L1823.67 539.555L1814.89 534.636L1835.56 522.827Z" fill="url(#paint6_linear_19_4)"/>
<path d="M1835.56 522.827V533.198L1847.57 539.555L1856.08 534.724L1835.56 522.827Z" fill="url(#paint7_linear_19_4)"/>
<path d="M1530.57 362.289L1524.98 365.521L1519.34 362.289L1468.44 333.088V326.376L1524.98 359.054L1530.57 362.289Z" fill="#00CAF9"/>
<path d="M1468.44 326.376V333.088L1417.54 362.283L1411.9 365.515L1406.31 362.286L1411.9 359.05L1468.44 326.376Z" fill="#00CAF9"/>
<path d="M1468.44 391.481V398.192L1411.9 365.515L1406.31 362.286L1411.9 359.05L1417.54 362.283L1468.44 391.481Z" fill="#00CAF9"/>
<path d="M1530.57 362.289L1524.98 365.521L1468.44 398.192V391.481L1519.34 362.289L1524.98 359.054L1530.57 362.289Z" fill="#00CAF9"/>
<path d="M1468.44 397.873L1406.37 362.286V364.79L1468.44 400.393L1468.47 400.374V397.857L1468.44 397.873Z" fill="#0099B2"/>
<path d="M1530.57 362.289L1524.75 365.42L1468.47 397.857V400.374L1530.51 364.79L1530.57 362.289Z" fill="#3CDDF7"/>
<path d="M1522.69 328.443V364.141L1468.44 395.492V359.794L1522.69 328.443Z" fill="#0A1B9B"/>
<path d="M1468.44 359.794L1522.69 328.443L1468.44 297.092V297.089V297.092V297.089V297.092L1414.19 328.443L1468.44 359.794Z" fill="#001BB7"/>
<path d="M1468.44 359.794V395.492L1414.19 364.141V328.443L1468.44 359.794Z" fill="#001084"/>
<path d="M1476.19 364.274V373.23L1514.94 350.838V341.879L1476.19 364.274Z" fill="#222DB2"/>
<path d="M1476.19 364.274L1495.57 374.411L1535.65 351.807L1514.94 341.879L1476.19 364.274Z" fill="url(#paint8_linear_19_4)"/>
<path d="M1419.46 353.076V343.753L1459.57 366.512V375.471L1419.46 353.076Z" fill="#001BB7"/>
<path d="M1400.08 353.89L1419.46 343.753L1459.54 366.357L1438.84 376.285L1400.08 353.89Z" fill="url(#paint9_linear_19_4)"/>
<path d="M1468.5 312.972L1502.69 332.676L1506.19 330.688L1468.5 309.072V312.972Z" fill="#0099B2"/>
<path d="M1468.5 312.972L1434.31 332.676L1430.81 330.688L1468.5 309.072V312.972Z" fill="#3CDDF7"/>
<path d="M1506.23 326.8L1502.83 328.763L1499.41 326.8L1468.5 309.072V304.997L1502.83 324.837L1506.23 326.8Z" fill="#00CAF9"/>
<path d="M1468.5 304.997V309.072L1437.59 326.797L1434.17 328.76L1430.77 326.8L1434.17 324.834L1468.5 304.997Z" fill="#00CAF9"/>
<path d="M1468.5 344.526V348.603L1434.17 328.76L1430.77 326.8L1434.17 324.834L1437.59 326.797L1468.5 344.526Z" fill="#00CAF9"/>
<path d="M1506.23 326.8L1502.83 328.763L1468.5 348.603V344.526L1499.41 326.8L1502.83 324.837L1506.23 326.8Z" fill="#00CAF9"/>
<path d="M1468.5 348.407L1434.31 328.703L1434.2 328.769L1430.82 326.8V330.691L1468.5 352.307L1468.52 352.298V348.397L1468.5 348.407Z" fill="#0099B2"/>
<path d="M1506.23 326.8L1502.69 328.703L1468.52 348.397V352.298L1506.19 330.691L1506.23 326.8Z" fill="#3CDDF7"/>
<path d="M1468.5 312.972V326.8L1452.63 335.278L1440.94 328.716L1468.5 312.972Z" fill="url(#paint10_linear_19_4)"/>
<path d="M1468.5 312.972V326.8L1484.51 335.278L1495.86 328.836L1468.5 312.972Z" fill="url(#paint11_linear_19_4)"/>
<path d="M998.042 454.474L997.406 453.372L1130.26 376.595L1196.81 415.05L1196.18 416.155L1130.26 378.067L998.042 454.474Z" fill="#00CAF9"/>
<path d="M1000.64 455.608C999.045 456.526 996.432 456.522 994.832 455.598C993.232 454.674 993.222 453.163 994.813 452.245C996.404 451.327 999.016 451.33 1000.62 452.255C1002.22 453.179 1002.23 454.689 1000.64 455.611V455.608Z" fill="#00CAF9"/>
<path d="M1584.26 830.142L1583.62 829.037L1716.48 752.263L1716.8 752.447L1783.03 790.718L1782.39 791.823L1716.48 753.732L1584.26 830.142Z" fill="#00CAF9"/>
<path d="M1586.85 831.272C1585.26 832.19 1582.65 832.187 1581.04 831.263C1579.44 830.338 1579.44 828.828 1581.03 827.91C1582.62 826.992 1585.23 826.995 1586.83 827.92C1588.43 828.844 1588.44 830.354 1586.85 831.272Z" fill="#00CAF9"/>
<path d="M1107.57 361.529L1106.93 360.424L1239.79 283.647L1306.34 322.105L1305.7 323.21L1239.79 285.119L1107.57 361.529Z" fill="#00CAF9"/>
<path d="M1110.16 362.659C1108.57 363.577 1105.96 363.574 1104.36 362.65C1102.76 361.725 1102.75 360.215 1104.34 359.297C1105.93 358.379 1108.54 358.382 1110.14 359.307C1111.74 360.231 1111.75 361.741 1110.16 362.663V362.659Z" fill="#00CAF9"/>
<path d="M1426 283.95C1426.01 280.991 1421.87 278.571 1416.75 278.543C1411.64 278.515 1407.47 280.891 1407.46 283.849C1407.44 286.808 1411.58 289.228 1416.7 289.256C1421.82 289.284 1425.98 286.908 1426 283.95Z" fill="#00CAF9"/>
<path d="M1423.24 459.106L1304.31 390.373L1378.43 347.115V304.431L1416.44 283.346L1417.05 284.461L1379.7 305.181V347.85L1306.85 390.367L1423.88 458.001L1423.24 459.106Z" fill="#00CAF9"/>
<path d="M1058.02 244.163C1058.04 241.205 1053.9 238.784 1048.78 238.756C1043.66 238.728 1039.5 241.104 1039.48 244.062C1039.47 247.021 1043.61 249.441 1048.73 249.469C1053.84 249.497 1058.01 247.121 1058.02 244.163Z" fill="#00CAF9"/>
<path d="M1055.26 419.315L936.326 350.585L1010.44 307.327V264.643L1048.45 243.558L1049.07 244.673L1011.72 265.393V308.062L938.866 350.579L1055.9 418.213L1055.26 419.315Z" fill="#00CAF9"/>
<path d="M1305.81 323.21L1305.18 322.105L1438.03 245.328L1504.58 283.783L1503.95 284.888L1438.03 246.8L1305.81 323.21Z" fill="#00CAF9"/>
<path d="M1308.41 324.34C1306.82 325.258 1304.2 325.255 1302.6 324.331C1301 323.406 1300.99 321.896 1302.59 320.975C1304.18 320.057 1306.79 320.06 1308.39 320.985C1309.99 321.909 1310 323.419 1308.41 324.337V324.34Z" fill="#00CAF9"/>
<path d="M1743.78 634.2V683.587L1668.73 726.962V677.575L1743.78 634.2Z" fill="#052EC4"/>
<path d="M1668.73 677.575L1743.78 634.2L1668.73 590.826H1668.72L1593.66 634.2L1668.72 677.575H1668.73Z" fill="#0038EA"/>
<path d="M1668.73 677.575V726.962L1593.66 683.587V634.2L1668.73 677.575Z" fill="#001EB2"/>
<path d="M1679.45 683.774V696.165L1733.06 665.184V652.79L1679.45 683.774Z" fill="#222DB2"/>
<path d="M1679.45 683.774L1706.25 697.799L1761.71 666.527L1733.06 652.79L1679.45 683.774Z" fill="url(#paint12_linear_19_4)"/>
<path d="M1600.96 668.28V655.383L1656.45 686.87V699.264L1600.96 668.28Z" fill="#001BB7"/>
<path d="M1574.15 669.407L1600.96 655.383L1656.42 686.655L1627.77 700.388L1574.15 669.407Z" fill="url(#paint13_linear_19_4)"/>
<path d="M1668.8 612.796L1716.1 640.06L1720.95 637.309L1668.8 607.402V612.796Z" fill="#0099B2"/>
<path d="M1668.8 612.796L1621.51 640.06L1616.66 637.309L1668.8 607.402V612.796Z" fill="#3CDDF7"/>
<path d="M1721 631.931L1716.31 634.647L1711.57 631.931L1668.81 607.399V601.764L1716.3 629.214L1721 631.931Z" fill="#00CAF9"/>
<path d="M1668.81 601.764V607.399L1626.05 631.924L1621.31 634.64L1616.61 631.927L1621.31 629.211L1668.81 601.764Z" fill="#00CAF9"/>
<path d="M1668.81 656.453V662.091L1621.31 634.641L1616.61 631.927L1621.31 629.211L1626.05 631.924L1668.81 656.453Z" fill="#00CAF9"/>
<path d="M1721 631.931L1716.31 634.647L1668.81 662.091V656.453L1711.57 631.931L1716.3 629.214L1721 631.931Z" fill="#00CAF9"/>
<path d="M1668.81 661.822L1621.51 634.561L1621.35 634.653L1616.67 631.927V637.309L1668.81 667.217L1668.84 667.204V661.81L1668.81 661.822Z" fill="#0099B2"/>
<path d="M1721 631.931L1716.11 634.561L1668.84 661.81V667.204L1720.95 637.309L1721 631.931Z" fill="#3CDDF7"/>
<path d="M1668.86 612.73V632.117L1646.62 644.005L1630.22 634.805L1668.86 612.73Z" fill="url(#paint14_linear_19_4)"/>
<path d="M1668.86 612.73V632.117L1691.31 644.005L1707.23 634.973L1668.86 612.73Z" fill="url(#paint15_linear_19_4)"/>
<path d="M1479.13 509.8C1479.14 508.491 1477.31 507.419 1475.04 507.407C1472.77 507.395 1470.93 508.446 1470.92 509.756C1470.92 511.065 1472.75 512.137 1475.02 512.149C1477.28 512.161 1479.13 511.11 1479.13 509.8Z" fill="#00CAF9"/>
<path d="M1149.09 800.95L1148.45 799.848L1239.91 746.995L1239.52 695.627L1505.91 542.243L1658.5 454.06L1659.14 455.164L1506.55 543.348L1240.8 696.361L1241.19 747.73L1149.09 800.95Z" fill="#00CAF9"/>
<path d="M1067.92 325.357L1027.65 302.085L1067.67 278.958L1107.94 302.23L1067.92 325.357Z" fill="#00CAF9"/>
<path d="M1027.65 308.397V302.085L1067.92 325.357V331.669L1027.65 308.397Z" fill="#0099B2"/>
<path d="M1108.19 308.397V302.085L1067.92 325.357V331.669L1108.19 308.397Z" fill="#3CDDF7"/>
<path d="M1651.59 283.454C1651.55 283.441 1651.51 283.425 1651.47 283.413C1651.23 283.267 1650.36 282.46 1650.49 278.37C1650.58 278.227 1650.65 278.059 1650.71 277.876C1650.73 279.842 1650.91 282.162 1651.59 283.457L1651.59 283.454ZM1669.98 318.515C1670.05 317.629 1669.83 316.78 1669.39 316.074C1669.48 315.951 1669.58 315.824 1669.67 315.695C1669.41 314.289 1669.11 312.902 1668.78 311.525C1667.56 306.628 1666.07 301.588 1664.02 296.871C1663.74 294.737 1663.28 292.413 1662.27 290.97C1661.52 289.881 1660.68 289.203 1659.85 288.795C1659.64 288.655 1659.41 288.535 1659.17 288.437C1658.81 287.475 1658.31 286.743 1657.67 286.373C1657.96 286.354 1658.13 286.363 1658.13 286.363C1657.2 284.401 1653.77 284.252 1653.77 284.252C1653.71 284.318 1653.66 284.382 1653.6 284.448C1653.19 284.166 1652.68 283.894 1652.05 283.631C1650.88 282.07 1650.97 277.48 1651.07 275.444C1651.38 274.704 1651.55 273.89 1651.55 273.038C1651.55 269.597 1648.76 266.811 1645.33 266.811C1644 266.811 1642.77 267.232 1641.76 267.941C1641.44 267.922 1641.26 267.929 1641.26 267.929C1637.29 269.448 1636.26 274.032 1636.81 275.492C1637.36 276.948 1637.58 278.275 1636.92 279.734C1636.64 280.361 1636.92 281.621 1637.45 282.868C1636.37 282.97 1635.34 283.435 1634.35 283.919C1628.11 286.984 1622.32 290.909 1617 295.376C1615.62 296.526 1614.28 297.713 1612.99 298.982C1613.03 299.109 1613.08 299.232 1613.12 299.359C1613.05 299.403 1612.98 299.454 1612.91 299.501C1612.4 298.539 1611.62 297.725 1610.44 297.244C1606.28 295.538 1595.71 291.172 1592.08 291.432C1592.04 291.511 1592 291.59 1591.97 291.669C1591.75 291.619 1591.53 291.609 1591.31 291.638C1591.6 291.508 1591.81 291.486 1591.81 291.486C1591.81 291.486 1590.25 289.71 1586.72 288.709C1583.19 287.709 1580.36 291.596 1580.7 292.03C1581.04 292.464 1581.37 292.464 1582.26 291.847C1583.15 291.226 1585.08 291.729 1585.43 292.356C1585.78 292.986 1586.61 293.154 1586.61 293.154L1586.7 293.176C1586.66 293.227 1586.62 293.281 1586.58 293.338C1586.51 293.319 1586.44 293.3 1586.36 293.284C1586.36 293.284 1585.93 294.674 1585.09 294.572C1584.25 294.471 1584.12 294.509 1583.98 294.996C1583.84 295.484 1585.54 296.361 1587.79 295.224C1587.79 295.224 1587.79 295.196 1587.79 295.148C1587.91 295.133 1588.03 295.095 1588.14 295.044C1588.15 295.167 1588.14 295.247 1588.14 295.247C1589.17 295.405 1589.74 294.746 1589.74 294.746C1589.74 294.563 1589.75 294.392 1589.77 294.227L1589.79 294.316C1590.03 294.974 1590.63 295.395 1591.28 295.465C1591.29 295.554 1591.29 295.639 1591.3 295.728C1596.58 300.534 1613.41 307.343 1613.41 307.343C1613.41 307.343 1613.46 307.15 1613.52 306.818L1613.54 306.827C1615.34 307.843 1617.59 307.308 1618.76 305.656C1618.92 305.722 1619.09 305.786 1619.26 305.843C1620.53 305.187 1621.77 304.494 1622.99 303.772C1625.32 302.379 1627.68 300.891 1629.97 299.299C1629.01 307.153 1630.26 314.615 1630.26 314.615C1630.26 314.615 1631.12 313.241 1632.59 312.75C1632.61 313.9 1632.67 315.065 1632.82 316.081C1632.82 316.081 1633.04 316.287 1633.47 316.616C1633.5 317.255 1633.55 317.879 1633.63 318.452C1633.63 318.452 1633.76 318.566 1633.99 318.756C1634.03 319.205 1634.07 319.642 1634.13 320.051C1634.13 320.051 1634 320.152 1633.83 320.38C1631.2 323.331 1627.51 329.881 1627.58 338.814C1627.66 348.812 1629.34 359.215 1630.37 361.846C1630.53 362.248 1630.81 362.571 1631.18 362.783C1631.26 363.733 1631.42 364.597 1631.59 365.309C1631.32 365.942 1631.35 367.073 1631.74 369.029C1632.4 372.382 1634.29 383.946 1633.8 389.746C1633.8 389.746 1634.24 390.227 1635.03 390.572C1635.09 390.943 1635.15 391.275 1635.21 391.563C1634.99 391.642 1634.76 391.775 1634.53 391.978C1634.53 391.978 1633.19 393.247 1631.8 394.276C1630.41 395.305 1625.13 398.085 1626.69 399.475C1628.26 400.864 1632.06 401.19 1637.69 397.141C1637.69 397.141 1640.1 397.135 1641.04 395.856C1641.33 395.457 1641.29 394.609 1641.24 393.963C1641.11 392.2 1640.66 391.661 1640.45 391.5C1640.44 391.035 1640.41 390.506 1640.36 389.999C1640.42 389.901 1640.45 389.841 1640.45 389.841C1640.45 389.645 1640.44 389.436 1640.43 389.221C1640.6 389.069 1640.78 388.907 1640.96 388.727C1640.96 388.727 1639.77 379.049 1640.88 375.066C1641.86 371.596 1641.71 369.08 1639.35 366.807C1639.47 366.604 1639.54 366.477 1639.54 366.477C1639.51 366.053 1639.47 365.588 1639.42 365.116C1639.49 364.977 1639.54 364.898 1639.54 364.898C1639.51 364.337 1639.44 363.71 1639.36 363.087C1639.46 362.928 1639.5 362.834 1639.5 362.834C1639.49 362.678 1639.48 362.52 1639.47 362.359C1639.9 361.998 1640.16 361.463 1640.15 360.88C1640.12 357.809 1640.04 349.588 1640.21 345.691C1640.27 344.139 1640.81 341.93 1641.3 339.422C1641.5 339.432 1641.67 339.397 1641.81 339.308L1642.38 338.656C1642.51 338.758 1642.64 338.856 1642.77 338.947C1642.3 340.815 1642.01 342.829 1642.03 344.966C1642.13 357.119 1646.42 366.759 1646.42 366.759C1646.42 366.759 1646.58 366.914 1646.89 367.095C1646.99 368.003 1647.15 368.823 1647.31 369.498C1647.08 370.207 1647.08 371.337 1647.42 373.069C1648.09 376.421 1649.98 387.986 1649.49 393.782C1649.49 393.782 1649.93 394.264 1650.72 394.609C1650.89 395.831 1651.18 396.67 1651.18 396.67L1651.23 396.676C1651.25 396.834 1651.28 396.986 1651.31 397.126C1651.18 397.157 1651.05 397.192 1650.91 397.243C1650.91 397.243 1650.52 398.607 1649.16 399.892C1647.8 401.178 1643.17 404.448 1645.39 405.54C1647.6 406.633 1649.7 407.117 1652.19 405.249C1654.68 403.381 1655.15 401.517 1656.4 400.712C1657.98 399.696 1657.68 398.322 1657.12 396.138C1656.95 395.454 1656.55 395.346 1656.14 395.596C1656.13 395.118 1656.09 394.568 1656.04 394.039C1656.11 393.941 1656.14 393.881 1656.14 393.881C1656.14 393.684 1656.13 393.475 1656.11 393.26C1656.29 393.108 1656.47 392.947 1656.64 392.766C1656.64 392.766 1655.45 383.088 1656.57 379.106C1657.54 375.62 1657.43 373.097 1655.06 370.815C1655.17 370.631 1655.22 370.517 1655.22 370.517C1655.2 370.093 1655.16 369.627 1655.1 369.156C1655.18 369.016 1655.22 368.937 1655.22 368.937C1655.19 368.377 1655.13 367.75 1655.05 367.126C1655.14 366.968 1655.18 366.873 1655.18 366.873C1655.15 366.107 1655.05 365.221 1654.93 364.369C1655.15 364.135 1655.38 363.894 1655.61 363.628C1655.61 363.628 1655.69 354.577 1655.89 349.73C1656.1 344.595 1661.54 332.287 1653.07 325.702C1652.58 325.319 1651.97 325.195 1651.39 325.287C1651.3 325.088 1651.16 324.913 1650.95 324.784C1650.95 324.784 1651.15 324.29 1651.35 323.457L1651.41 323.451C1651.41 323.451 1651.69 322.732 1651.94 321.548C1652.02 321.539 1652.09 321.532 1652.17 321.523C1652.17 321.523 1652.38 320.975 1652.61 320.044C1654.53 320.313 1655.76 319.74 1655.76 319.74C1655.76 319.74 1655.41 313.77 1657.03 309.863C1657.64 311.538 1658.3 313.197 1659 314.837C1659.7 316.483 1660.45 318.113 1661.29 319.712C1661.39 319.712 1661.5 319.706 1661.61 319.702C1661.93 320.706 1662.63 321.551 1663.57 322.045C1662.91 322.9 1662.5 323.935 1662.53 325.189C1662.65 329.681 1662.94 341.119 1664.65 344.333C1664.73 344.339 1664.82 344.336 1664.91 344.339C1664.94 344.513 1665 344.678 1665.08 344.833C1665.03 344.811 1664.98 344.795 1664.94 344.769C1664.94 344.769 1664.09 344.972 1663.76 345.96C1663.76 345.96 1663.83 345.988 1663.94 346.048C1663.84 346.124 1663.75 346.21 1663.68 346.311C1663.64 346.289 1663.61 346.279 1663.61 346.279C1661.57 347.761 1661.56 349.67 1662.06 349.771C1662.56 349.873 1662.65 349.771 1662.95 348.977C1663.25 348.185 1664.68 348.442 1664.68 348.442C1664.7 348.366 1664.72 348.293 1664.73 348.223C1664.8 348.22 1664.86 348.211 1664.93 348.198L1664.91 348.283C1664.91 348.283 1664.67 349.1 1665.07 349.699C1665.47 350.297 1665.02 352.241 1664.07 352.744C1663.11 353.247 1662.96 353.545 1663.19 354.042C1663.42 354.539 1668.16 353.82 1668.9 350.23C1669.63 346.637 1668.78 344.427 1668.78 344.427C1668.78 344.427 1668.7 344.554 1668.52 344.712C1668.57 344.611 1668.62 344.503 1668.65 344.389C1668.74 344.063 1668.73 343.731 1668.64 343.427C1668.72 343.389 1668.8 343.351 1668.88 343.31C1671.13 336.532 1670.54 318.386 1670.54 318.386C1670.54 318.386 1670.32 318.424 1669.96 318.512L1669.98 318.515Z" fill="#CFE5F7"/>
<path d="M1613.6 306.39C1613.58 306.549 1613.55 306.691 1613.53 306.811L1613.55 306.821C1615.35 307.837 1617.6 307.302 1618.77 305.649C1618.58 305.573 1618.4 305.494 1618.22 305.406C1617.07 306.691 1615.2 307.112 1613.6 306.39Z" fill="#294C99"/>
<path d="M1613.6 306.39C1615.2 307.112 1617.07 306.691 1618.22 305.406C1615.93 304.276 1614.05 302.044 1613.12 299.356C1613.05 299.4 1612.98 299.451 1612.91 299.498C1614.13 301.765 1613.85 304.852 1613.6 306.387V306.39Z" fill="#3460A4"/>
<path d="M1589.88 294.034C1589.85 293.971 1589.84 293.907 1589.83 293.844C1589.8 293.968 1589.78 294.091 1589.77 294.224L1589.79 294.313C1590.04 294.971 1590.63 295.392 1591.29 295.462C1591.28 295.364 1591.27 295.266 1591.27 295.167C1590.66 295.069 1590.11 294.658 1589.88 294.031V294.034Z" fill="#294C99"/>
<path d="M1589.83 293.844C1589.84 293.907 1589.85 293.971 1589.88 294.034C1590.11 294.661 1590.66 295.072 1591.27 295.171C1591.25 293.958 1591.45 292.755 1591.97 291.672C1591.75 291.622 1591.53 291.612 1591.31 291.641C1590.8 291.869 1590.07 292.442 1589.83 293.847V293.844Z" fill="#3460A4"/>
<path d="M1586.7 293.176C1586.66 293.227 1586.62 293.281 1586.58 293.338C1587.71 293.664 1587.79 294.841 1587.79 295.152C1587.91 295.136 1588.03 295.098 1588.14 295.047C1588.13 294.591 1587.96 293.49 1586.69 293.179L1586.7 293.176Z" fill="#294C99"/>
<path d="M1637.17 283.609C1635.34 284.036 1632.04 285.296 1626.66 288.88C1617.31 295.114 1613.84 298.932 1613.84 298.932C1613.84 298.932 1613.95 300.739 1615.06 301.904C1615.06 301.904 1617.7 294.883 1635.59 285.246C1636.14 284.597 1636.67 284.059 1637.17 283.609Z" fill="#BAD3EE"/>
<path d="M1613.33 301.857C1613.33 301.857 1612.7 298.568 1610.59 297.729C1608.47 296.887 1599.3 292.647 1592.38 291.84C1592.38 291.84 1591.76 292.986 1591.76 293.55C1591.76 293.55 1605.58 295.3 1613.33 301.857Z" fill="#BAD3EE"/>
<path d="M1632.64 309.752C1630.05 311.231 1630.27 314.612 1630.27 314.612C1630.27 314.612 1631.13 313.238 1632.6 312.747C1632.58 311.696 1632.6 310.658 1632.64 309.749V309.752Z" fill="#1B2866"/>
<path d="M1641.83 339.312L1642.39 338.659C1642.23 338.536 1642.08 338.409 1641.93 338.276C1641.84 338.925 1641.83 339.312 1641.83 339.312Z" fill="#1B2866"/>
<path d="M1651.1 325.366C1651.2 325.334 1651.31 325.309 1651.42 325.293C1651.32 325.094 1651.18 324.92 1650.98 324.79C1650.8 324.879 1650.65 324.97 1650.48 325.062C1650.69 325.154 1650.9 325.255 1651.1 325.366Z" fill="#1B2866"/>
<path d="M1639.37 366.81C1639.49 366.607 1639.55 366.48 1639.55 366.48C1639.53 366.056 1639.49 365.591 1639.43 365.119C1639.3 365.353 1639.05 365.756 1638.69 366.215C1638.93 366.411 1639.16 366.607 1639.37 366.81Z" fill="#294C99"/>
<path d="M1637.51 365.433C1637.75 365.55 1637.98 365.676 1638.18 365.819C1638.36 365.952 1638.52 366.082 1638.69 366.215C1639.05 365.756 1639.29 365.353 1639.43 365.119C1639.51 364.98 1639.55 364.901 1639.55 364.901C1639.52 364.34 1639.46 363.714 1639.38 363.09C1639.12 363.539 1638.5 364.518 1637.51 365.433H1637.51Z" fill="#33559D"/>
<path d="M1638.97 362.672C1636.14 363.809 1633.18 363.356 1631.7 362.998C1631.52 362.954 1631.35 362.881 1631.19 362.789C1631.28 363.739 1631.44 364.603 1631.6 365.316C1631.8 364.866 1632.14 364.663 1632.63 364.606C1633.76 364.47 1636.02 364.724 1637.51 365.433C1638.5 364.518 1639.12 363.54 1639.38 363.09C1639.47 362.932 1639.51 362.837 1639.51 362.837C1639.51 362.682 1639.49 362.523 1639.48 362.362C1639.33 362.488 1639.16 362.596 1638.96 362.672H1638.97Z" fill="#3460A4"/>
<path d="M1638.4 393.627C1638.29 393.691 1638.17 393.751 1638.05 393.808C1638.18 394.121 1638.25 394.34 1638.25 394.34C1638.29 394.08 1638.34 393.846 1638.4 393.627Z" fill="#294C99"/>
<path d="M1637.3 392.491C1637.63 392.937 1637.88 393.441 1638.05 393.808C1638.17 393.751 1638.29 393.691 1638.4 393.627C1638.92 391.873 1640.34 391.437 1640.34 391.437C1640.34 391.437 1640.39 391.446 1640.46 391.5C1640.45 391.035 1640.41 390.506 1640.37 389.999C1640.06 390.487 1639.01 391.968 1637.3 392.488V392.491Z" fill="#33559D"/>
<path d="M1635.05 390.576C1635.1 390.946 1635.16 391.278 1635.22 391.566C1636.08 391.25 1636.79 391.798 1637.3 392.491C1639.01 391.968 1640.06 390.487 1640.36 390.003C1640.43 389.904 1640.46 389.844 1640.46 389.844C1640.46 389.648 1640.45 389.439 1640.44 389.224C1638.1 391.275 1636.2 391.079 1635.04 390.579L1635.05 390.576Z" fill="#3460A4"/>
<path d="M1632.59 324.989C1629.14 333.338 1629.01 352.238 1632.63 361.19C1632.63 361.19 1636.2 363.441 1639.3 360.64C1639.3 360.64 1638.11 345.007 1640.73 339.695C1640.73 339.695 1631.47 336.462 1632.59 324.989Z" fill="#BAD3EE"/>
<path d="M1633.85 365.23C1633.85 365.23 1636.56 378.552 1635.89 389.781C1635.89 389.781 1637.43 390.898 1640.1 388.486C1640.1 388.486 1638.63 379.055 1639.55 375.911C1640.47 372.768 1641.84 367.123 1633.85 365.23Z" fill="#BAD3EE"/>
<path d="M1634.32 331.587C1633.45 329.266 1633.02 327.38 1632.85 325.85C1632.69 327.861 1632.85 330.308 1633.93 332.635C1636.52 338.191 1640.04 339.201 1641.04 339.381C1639.1 338.916 1635.52 334.756 1634.32 331.587Z" fill="#294C99"/>
<path d="M1651.53 294.705C1651.28 298.707 1652.84 300.92 1654.57 301.866C1653.97 299.574 1653.48 297.257 1653.09 294.917C1653.03 294.556 1652.98 294.189 1652.94 293.822C1652.85 293.483 1652.8 293.129 1652.8 292.765C1652.8 292.22 1652.9 291.704 1653.09 291.226C1653.11 291.163 1653.12 291.099 1653.15 291.039C1653.52 289.985 1654.35 289.102 1655.38 288.665C1655.51 288.611 1655.67 288.551 1655.86 288.494C1656.38 288.263 1656.96 288.13 1657.57 288.13C1658.14 288.13 1658.67 288.244 1659.16 288.443C1658.81 287.481 1658.31 286.75 1657.67 286.379C1656.25 286.48 1651.97 287.392 1651.52 294.705H1651.53Z" fill="#1B2866"/>
<path d="M1655.07 370.818C1655.19 370.634 1655.24 370.52 1655.24 370.52C1655.22 370.096 1655.18 369.631 1655.12 369.159C1654.99 369.39 1654.75 369.779 1654.4 370.229C1654.64 370.425 1654.87 370.618 1655.07 370.818Z" fill="#294C99"/>
<path d="M1653.23 369.444C1653.48 369.57 1653.71 369.71 1653.92 369.855C1654.09 369.979 1654.24 370.102 1654.4 370.229C1654.75 369.779 1654.99 369.39 1655.12 369.159C1655.2 369.02 1655.24 368.94 1655.24 368.94C1655.21 368.38 1655.15 367.753 1655.07 367.13C1654.81 367.576 1654.2 368.541 1653.23 369.447V369.444Z" fill="#33559D"/>
<path d="M1646.91 367.098C1647.01 368.006 1647.17 368.826 1647.33 369.501C1647.55 368.836 1647.98 368.538 1648.54 368.472C1649.67 368.336 1651.78 368.709 1653.23 369.444C1654.2 368.538 1654.81 367.573 1655.07 367.126C1655.16 366.968 1655.2 366.873 1655.2 366.873C1655.17 366.107 1655.06 365.221 1654.95 364.369C1650.86 368.63 1647.99 367.718 1646.9 367.095L1646.91 367.098Z" fill="#3460A4"/>
<path d="M1655.19 396.834C1654.82 397.192 1654.36 397.556 1653.8 397.819C1654.31 398.452 1654.43 399.231 1654.43 399.231C1654.46 398.667 1654.78 397.68 1655.19 396.834Z" fill="#294C99"/>
<path d="M1651.24 396.679C1651.27 396.838 1651.3 396.989 1651.33 397.129C1652.58 396.819 1653.34 397.259 1653.8 397.819C1654.36 397.556 1654.82 397.195 1655.19 396.834C1655.22 396.768 1655.25 396.705 1655.28 396.638C1655.53 396.151 1655.85 395.777 1656.15 395.593C1656.15 395.118 1656.11 394.564 1656.06 394.036C1655.66 394.672 1653.99 397.008 1651.24 396.676V396.679Z" fill="#33559D"/>
<path d="M1650.74 394.615C1650.91 395.837 1651.2 396.676 1651.2 396.676L1651.24 396.682C1653.99 397.015 1655.66 394.675 1656.06 394.042C1656.12 393.944 1656.16 393.884 1656.16 393.884C1656.16 393.688 1656.15 393.479 1656.13 393.263C1653.8 395.315 1651.9 395.118 1650.74 394.618V394.615Z" fill="#3460A4"/>
<path d="M1650.15 325.952C1650.42 325.67 1650.75 325.477 1651.1 325.366C1650.9 325.255 1650.69 325.154 1650.48 325.062C1643.86 328.779 1642.29 335.674 1641.93 338.276C1642.08 338.409 1642.23 338.536 1642.39 338.659C1642.52 338.761 1642.65 338.859 1642.79 338.951C1644.37 332.704 1648.13 328.086 1650.15 325.955V325.952Z" fill="#294C99"/>
<path d="M1634 318.756C1634.04 319.205 1634.08 319.642 1634.14 320.051C1634.14 320.051 1640.78 326.154 1650.98 324.787C1650.98 324.787 1651.17 324.293 1651.37 323.46C1642.05 324.685 1635.56 320.01 1634 318.753V318.756Z" fill="#294C99"/>
<path d="M1633.48 316.616C1633.51 317.255 1633.56 317.879 1633.64 318.452C1633.64 318.452 1633.77 318.566 1634 318.759C1635.56 320.016 1642.05 324.689 1651.37 323.467L1651.43 323.46C1651.43 323.46 1651.72 322.742 1651.97 321.558C1642.35 322.761 1635.53 318.211 1633.47 316.619L1633.48 316.616Z" fill="#33559D"/>
<path d="M1647.26 317.338C1642.56 313.146 1641.55 309.201 1635.72 309.078C1634.4 309.05 1633.4 309.322 1632.64 309.752C1632.6 310.658 1632.58 311.699 1632.6 312.75C1632.62 313.9 1632.68 315.065 1632.82 316.081C1632.82 316.081 1633.05 316.287 1633.48 316.616C1635.53 318.211 1642.36 322.757 1651.97 321.554C1652.04 321.545 1652.12 321.539 1652.19 321.529C1652.19 321.529 1652.41 320.981 1652.64 320.051C1651.17 319.845 1649.3 319.152 1647.27 317.338H1647.26Z" fill="#3460A4"/>
<path d="M1654.74 302.544C1653.11 301.746 1650.4 299.657 1650.91 294.651C1651.62 287.579 1654.47 286.477 1657.02 285.955C1657.02 285.955 1655.54 284.907 1654.18 284.803C1654.18 284.803 1648.04 293.005 1641.87 288.538C1641.87 288.538 1638.08 298.951 1639.3 308.85C1639.3 308.85 1642.07 310.161 1643.36 311.94C1644.66 313.722 1649.79 320.741 1655.23 319.326C1655.23 319.326 1654.81 313.615 1655.81 311.256C1656.21 310.3 1656.48 309.452 1656.67 308.777C1655.95 306.723 1655.31 304.643 1654.75 302.541L1654.74 302.544Z" fill="#BAD3EE"/>
<path d="M1647.93 329.681C1647.93 329.681 1642.22 338.517 1642.59 344.409C1643 350.841 1643.5 353.504 1644.09 356.299C1644.92 360.288 1645.68 367.399 1648.81 367.111C1648.81 367.111 1641.46 351.183 1647.93 329.681Z" fill="#BAD3EE"/>
<path d="M1652.68 394.166C1652.68 394.166 1652.03 383.696 1651.59 379.511C1651 374.063 1649.31 368.788 1649.31 368.788C1649.31 368.788 1647.43 368.826 1647.9 371.413C1648.39 374.091 1649.03 378.188 1649.43 380.562C1649.95 383.652 1650.4 388.648 1649.93 393.415C1649.93 393.415 1651.13 394.609 1652.68 394.169L1652.68 394.166Z" fill="#BAD3EE"/>
<path d="M1653.89 335.129C1653.68 333.452 1654.12 332.011 1654.88 331.916H1654.91C1654.73 331.799 1654.54 331.742 1654.36 331.764C1653.55 331.869 1653.07 333.407 1653.3 335.205C1653.53 337.004 1654.37 338.374 1655.18 338.273C1655.37 338.251 1655.53 338.15 1655.68 337.988L1655.64 337.995C1654.88 338.093 1654.1 336.807 1653.89 335.129H1653.89Z" fill="#294C99"/>
<path d="M1654.91 331.913H1654.88C1654.12 332.011 1653.68 333.448 1653.89 335.129C1654.1 336.807 1654.89 338.093 1655.65 337.995L1655.68 337.988C1656.42 337.852 1656.85 336.434 1656.63 334.781C1656.42 333.129 1655.66 331.859 1654.91 331.916V331.913Z" fill="#3460A4"/>
<path d="M1652.94 293.822C1652.84 292.942 1652.84 292.059 1653.09 291.223C1652.91 291.701 1652.8 292.22 1652.8 292.761C1652.8 293.129 1652.85 293.48 1652.94 293.819V293.822Z" fill="#294C99"/>
<path d="M1655.87 288.491C1656.76 288.225 1658.29 288.025 1659.85 288.798C1659.64 288.659 1659.4 288.538 1659.16 288.44C1658.67 288.241 1658.14 288.127 1657.57 288.127C1656.96 288.127 1656.39 288.26 1655.86 288.491H1655.87Z" fill="#3460A4"/>
<path d="M1650.9 276.882C1650.87 277.243 1650.81 277.581 1650.71 277.873C1650.73 279.839 1650.91 282.159 1651.59 283.454C1651.55 283.441 1651.51 283.425 1651.47 283.41C1651.23 283.264 1650.36 282.457 1650.49 278.366C1650.28 278.74 1650 278.962 1649.71 278.949C1649.57 279.038 1649.44 279.079 1649.29 279.066C1648.65 279.009 1648.2 277.926 1648.28 276.647C1648.36 275.368 1648.94 274.378 1649.58 274.431C1649.72 274.444 1649.86 274.514 1649.98 274.621C1650.56 274.7 1650.97 275.698 1650.9 276.879L1650.9 276.882ZM1650.05 274.435C1650.05 274.435 1647.53 273.887 1647.65 278.012C1647.7 279.74 1648.18 281.589 1646.72 282.783C1645.27 283.976 1641.82 286.36 1640.23 286.227C1640.12 286.218 1640 286.18 1639.87 286.123C1639.98 286.791 1640.37 287.43 1641.25 287.943C1644.77 290.014 1648.75 290.188 1653.6 284.451C1653.19 284.169 1652.68 283.897 1652.05 283.634C1650.88 282.074 1650.97 277.483 1651.07 275.448C1651.38 274.707 1651.55 273.893 1651.55 273.042C1651.55 269.6 1648.76 266.814 1645.33 266.814C1644 266.814 1642.77 267.236 1641.76 267.945C1643.39 268.036 1648.49 268.784 1650.04 274.435H1650.05Z" fill="#1B2866"/>
<path d="M1648.74 276.692C1648.81 275.495 1649.35 274.571 1649.95 274.621L1649.98 274.628C1649.85 274.517 1649.72 274.45 1649.57 274.438C1648.93 274.381 1648.35 275.372 1648.27 276.654C1648.19 277.933 1648.64 279.015 1649.28 279.072C1649.43 279.085 1649.57 279.041 1649.7 278.955H1649.68C1649.08 278.901 1648.66 277.892 1648.73 276.695L1648.74 276.692Z" fill="#294C99"/>
<path d="M1649.95 274.621C1649.36 274.567 1648.81 275.495 1648.74 276.692C1648.66 277.888 1649.08 278.898 1649.68 278.952H1649.71C1650 278.965 1650.28 278.74 1650.49 278.37C1650.57 278.227 1650.65 278.059 1650.71 277.876C1650.8 277.581 1650.87 277.246 1650.89 276.885C1650.97 275.707 1650.56 274.71 1649.98 274.628L1649.95 274.621Z" fill="#3460A4"/>
<path d="M1662.3 319.664C1662.08 319.683 1661.86 319.699 1661.63 319.706C1661.95 320.709 1662.65 321.554 1663.59 322.048C1663.71 321.9 1663.83 321.757 1663.95 321.618C1663.2 321.165 1662.62 320.475 1662.3 319.664Z" fill="#294C99"/>
<path d="M1662.3 319.664C1662.62 320.475 1663.2 321.165 1663.95 321.618C1665.73 319.696 1668.72 318.813 1669.98 318.515C1670.05 317.629 1669.83 316.78 1669.39 316.074C1667.79 318.088 1665.15 319.402 1662.3 319.664Z" fill="#3460A4"/>
<path d="M1665.23 344.348C1665.13 344.348 1665.03 344.345 1664.93 344.342C1664.96 344.516 1665.02 344.681 1665.1 344.836C1665.26 344.912 1665.42 344.978 1665.57 345.035C1665.41 344.836 1665.29 344.602 1665.23 344.348Z" fill="#294C99"/>
<path d="M1665.23 344.348C1665.29 344.598 1665.41 344.833 1665.57 345.035C1667.19 345.64 1668.13 345.092 1668.55 344.716C1668.6 344.614 1668.64 344.507 1668.67 344.393C1668.77 344.067 1668.75 343.734 1668.67 343.43C1667.59 343.975 1666.42 344.326 1665.23 344.348Z" fill="#3460A4"/>
<path d="M1663.96 346.052C1663.86 346.127 1663.78 346.213 1663.71 346.314C1663.98 346.457 1664.99 347.071 1664.76 348.223C1664.82 348.22 1664.89 348.211 1664.95 348.198C1665.26 346.928 1664.36 346.273 1663.96 346.052Z" fill="#294C99"/>
<path d="M1664.7 318.582C1664.7 318.582 1658 313.453 1653.99 290.254C1653.99 290.254 1652.36 292.958 1655.61 303.712C1658.86 314.466 1661.5 318.892 1661.5 318.892C1661.5 318.892 1663.27 319.307 1664.7 318.582H1664.7Z" fill="#BAD3EE"/>
<path d="M1666.71 343.737C1666.71 343.737 1662.73 330.39 1665.58 320.646C1665.58 320.646 1662.83 322.555 1662.92 324.828C1663.01 327.101 1662.84 337.203 1664.9 343.858C1664.9 343.858 1666.2 343.965 1666.72 343.737H1666.71Z" fill="#BAD3EE"/>
<path d="M1639.68 285.667C1639.68 285.667 1637.41 281.387 1638.11 281.108C1638.9 280.795 1639.29 279.956 1639.06 279.902C1638.71 279.823 1638.01 279.345 1638.01 279.345C1639.48 277.945 1639.06 275.318 1639.06 275.318C1637.83 274.637 1636.88 275.213 1636.88 275.213C1637.08 275.685 1637.41 276.603 1637.51 277.727C1637.62 278.854 1637.01 279.953 1637.01 279.953C1637.25 282.729 1639.68 285.664 1639.68 285.664L1639.68 285.667Z" fill="#BAD3EE"/>
<path d="M1062.14 592.437C1062.18 592.424 1062.22 592.409 1062.26 592.396C1062.5 592.25 1063.37 591.443 1063.23 587.353C1063.15 587.21 1063.08 587.043 1063.02 586.859C1063 588.825 1062.82 591.145 1062.14 592.44L1062.14 592.437ZM1043.75 627.498C1043.68 626.612 1043.9 625.764 1044.34 625.058C1044.24 624.934 1044.15 624.808 1044.06 624.678C1044.31 623.272 1044.62 621.885 1044.95 620.508C1046.17 615.611 1047.66 610.571 1049.71 605.854C1049.99 603.72 1050.45 601.396 1051.46 599.953C1052.21 598.864 1053.05 598.186 1053.88 597.778C1054.09 597.639 1054.32 597.518 1054.56 597.42C1054.92 596.458 1055.42 595.726 1056.05 595.356C1055.77 595.337 1055.6 595.346 1055.6 595.346C1056.53 593.384 1059.96 593.235 1059.96 593.235C1060.01 593.301 1060.07 593.365 1060.13 593.431C1060.54 593.149 1061.05 592.877 1061.68 592.614C1062.85 591.054 1062.76 586.463 1062.66 584.428C1062.35 583.687 1062.18 582.873 1062.18 582.022C1062.18 578.58 1064.96 575.794 1068.4 575.794C1069.73 575.794 1070.96 576.216 1071.97 576.925C1072.29 576.906 1072.47 576.912 1072.47 576.912C1076.44 578.432 1077.47 583.016 1076.92 584.475C1076.37 585.931 1076.15 587.258 1076.81 588.717C1077.09 589.344 1076.81 590.604 1076.28 591.851C1077.36 591.953 1078.39 592.418 1079.37 592.902C1085.62 595.967 1091.41 599.893 1096.73 604.36C1098.1 605.509 1099.45 606.696 1100.74 607.965C1100.7 608.092 1100.65 608.216 1100.61 608.342C1100.68 608.386 1100.75 608.437 1100.82 608.485C1101.33 607.522 1102.11 606.709 1103.29 606.227C1107.44 604.521 1118.02 600.155 1121.65 600.415C1121.69 600.494 1121.72 600.573 1121.76 600.652C1121.97 600.602 1122.2 600.592 1122.42 600.621C1122.13 600.491 1121.91 600.469 1121.91 600.469C1121.91 600.469 1123.48 598.693 1127.01 597.692C1130.54 596.692 1133.36 600.58 1133.03 601.013C1132.69 601.447 1132.36 601.447 1131.47 600.83C1130.58 600.209 1128.65 600.713 1128.3 601.339C1127.95 601.969 1127.12 602.137 1127.12 602.137L1127.03 602.159C1127.07 602.21 1127.11 602.264 1127.15 602.321C1127.22 602.302 1127.29 602.283 1127.37 602.267C1127.37 602.267 1127.8 603.657 1128.64 603.555C1129.48 603.454 1129.61 603.492 1129.75 603.98C1129.89 604.467 1128.19 605.344 1125.94 604.208C1125.94 604.208 1125.94 604.179 1125.94 604.132C1125.81 604.116 1125.7 604.078 1125.59 604.027C1125.58 604.151 1125.59 604.23 1125.59 604.23C1124.56 604.388 1123.99 603.73 1123.99 603.73C1123.99 603.546 1123.98 603.375 1123.96 603.21L1123.94 603.299C1123.7 603.957 1123.1 604.379 1122.45 604.448C1122.44 604.537 1122.44 604.622 1122.43 604.711C1117.15 609.517 1100.32 616.326 1100.32 616.326C1100.32 616.326 1100.27 616.133 1100.21 615.801L1100.19 615.81C1098.39 616.827 1096.14 616.292 1094.97 614.639C1094.81 614.705 1094.64 614.769 1094.47 614.826C1093.2 614.17 1091.96 613.477 1090.74 612.755C1088.4 611.362 1086.05 609.874 1083.76 608.282C1084.72 616.136 1083.47 623.598 1083.47 623.598C1083.47 623.598 1082.61 622.224 1081.14 621.734C1081.12 622.883 1081.06 624.048 1080.91 625.064C1080.91 625.064 1080.69 625.27 1080.26 625.599C1080.23 626.238 1080.18 626.862 1080.1 627.435C1080.1 627.435 1079.97 627.549 1079.74 627.739C1079.7 628.189 1079.66 628.626 1079.6 629.034C1079.6 629.034 1079.73 629.135 1079.9 629.363C1082.52 632.314 1086.22 638.864 1086.15 647.798C1086.07 657.795 1084.39 668.198 1083.36 670.829C1083.2 671.231 1082.92 671.554 1082.55 671.766C1082.46 672.716 1082.31 673.58 1082.14 674.292C1082.41 674.925 1082.38 676.056 1081.99 678.012C1081.33 681.365 1079.44 692.929 1079.93 698.729C1079.93 698.729 1079.49 699.21 1078.69 699.556C1078.64 699.926 1078.58 700.258 1078.52 700.546C1078.74 700.626 1078.97 700.758 1079.2 700.961C1079.2 700.961 1080.54 702.231 1081.93 703.259C1083.32 704.288 1088.6 707.068 1087.04 708.458C1085.47 709.848 1081.67 710.174 1076.04 706.125C1076.04 706.125 1073.63 706.118 1072.69 704.839C1072.39 704.44 1072.44 703.592 1072.49 702.946C1072.62 701.183 1073.07 700.645 1073.28 700.483C1073.29 700.018 1073.32 699.489 1073.37 698.982C1073.31 698.884 1073.28 698.824 1073.28 698.824C1073.28 698.628 1073.29 698.419 1073.3 698.204C1073.12 698.052 1072.95 697.89 1072.77 697.71C1072.77 697.71 1073.96 688.032 1072.85 684.049C1071.87 680.58 1072.02 678.063 1074.38 675.79C1074.26 675.587 1074.19 675.461 1074.19 675.461C1074.22 675.036 1074.26 674.571 1074.31 674.099C1074.23 673.96 1074.19 673.881 1074.19 673.881C1074.22 673.32 1074.29 672.694 1074.36 672.07C1074.27 671.912 1074.23 671.817 1074.23 671.817C1074.23 671.662 1074.25 671.503 1074.26 671.342C1073.83 670.981 1073.57 670.446 1073.58 669.863C1073.61 666.793 1073.68 658.571 1073.52 654.674C1073.46 653.123 1072.92 650.913 1072.43 648.405C1072.23 648.415 1072.06 648.38 1071.92 648.292L1071.35 647.639C1071.22 647.741 1071.09 647.839 1070.96 647.931C1071.43 649.798 1071.71 651.812 1071.7 653.949C1071.6 666.102 1067.31 675.742 1067.31 675.742C1067.31 675.742 1067.15 675.897 1066.84 676.078C1066.74 676.986 1066.58 677.806 1066.42 678.481C1066.65 679.19 1066.65 680.32 1066.31 682.052C1065.64 685.404 1063.75 696.969 1064.24 702.766C1064.24 702.766 1063.8 703.247 1063.01 703.592C1062.84 704.814 1062.55 705.653 1062.55 705.653L1062.5 705.659C1062.48 705.817 1062.45 705.969 1062.42 706.109C1062.55 706.14 1062.68 706.175 1062.82 706.226C1062.82 706.226 1063.21 707.59 1064.57 708.876C1065.93 710.161 1070.56 713.431 1068.34 714.523C1066.13 715.616 1064.03 716.1 1061.54 714.232C1059.05 712.364 1058.58 710.5 1057.33 709.696C1055.75 708.679 1056.05 707.305 1056.61 705.121C1056.78 704.437 1057.17 704.33 1057.59 704.58C1057.6 704.102 1057.64 703.551 1057.69 703.022C1057.62 702.924 1057.59 702.864 1057.59 702.864C1057.59 702.667 1057.6 702.459 1057.61 702.243C1057.44 702.091 1057.26 701.93 1057.09 701.749C1057.09 701.749 1058.28 692.071 1057.16 688.089C1056.18 684.603 1056.3 682.08 1058.67 679.798C1058.56 679.614 1058.51 679.5 1058.51 679.5C1058.53 679.076 1058.57 678.61 1058.63 678.139C1058.55 677.999 1058.51 677.92 1058.51 677.92C1058.54 677.36 1058.6 676.733 1058.68 676.109C1058.59 675.951 1058.54 675.856 1058.54 675.856C1058.58 675.09 1058.68 674.204 1058.8 673.352C1058.58 673.118 1058.35 672.877 1058.12 672.611C1058.12 672.611 1058.04 663.56 1057.84 658.713C1057.63 653.578 1052.19 641.27 1060.66 634.685C1061.15 634.302 1061.76 634.178 1062.34 634.27C1062.43 634.071 1062.57 633.897 1062.78 633.767C1062.78 633.767 1062.58 633.273 1062.38 632.44L1062.32 632.434C1062.32 632.434 1062.04 631.715 1061.79 630.531C1061.71 630.522 1061.64 630.515 1061.56 630.506C1061.56 630.506 1061.35 629.958 1061.12 629.028C1059.2 629.297 1057.97 628.724 1057.97 628.724C1057.97 628.724 1058.32 622.753 1056.7 618.846C1056.09 620.521 1055.43 622.18 1054.73 623.82C1054.03 625.466 1053.28 627.096 1052.44 628.695C1052.34 628.695 1052.23 628.689 1052.12 628.686C1051.8 629.689 1051.1 630.534 1050.16 631.028C1050.81 631.883 1051.23 632.918 1051.2 634.172C1051.08 638.664 1050.79 650.102 1049.08 653.316C1049 653.322 1048.91 653.319 1048.82 653.322C1048.79 653.496 1048.73 653.661 1048.65 653.816C1048.7 653.794 1048.75 653.778 1048.79 653.753C1048.79 653.753 1049.64 653.955 1049.97 654.943C1049.97 654.943 1049.9 654.971 1049.79 655.032C1049.89 655.108 1049.98 655.193 1050.05 655.294C1050.09 655.272 1050.12 655.263 1050.12 655.263C1052.16 656.744 1052.16 658.653 1051.67 658.755C1051.17 658.856 1051.08 658.755 1050.78 657.96C1050.48 657.168 1049.05 657.425 1049.05 657.425C1049.03 657.349 1049.01 657.276 1049 657.206C1048.93 657.203 1048.87 657.194 1048.8 657.181L1048.82 657.267C1048.82 657.267 1049.06 658.083 1048.66 658.682C1048.26 659.28 1048.7 661.224 1049.66 661.727C1050.61 662.231 1050.77 662.528 1050.54 663.025C1050.31 663.522 1045.57 662.804 1044.83 659.214C1044.1 655.62 1044.95 653.411 1044.95 653.411C1044.95 653.411 1045.03 653.537 1045.21 653.696C1045.16 653.594 1045.11 653.487 1045.08 653.373C1044.99 653.047 1045 652.714 1045.09 652.41C1045.01 652.372 1044.93 652.334 1044.85 652.293C1042.6 645.515 1043.19 627.369 1043.19 627.369C1043.19 627.369 1043.41 627.407 1043.77 627.495L1043.75 627.498Z" fill="#CFE5F7"/>
<path d="M1100.13 615.373C1100.15 615.532 1100.18 615.674 1100.2 615.794L1100.18 615.804C1098.38 616.82 1096.13 616.285 1094.96 614.633C1095.15 614.557 1095.33 614.477 1095.51 614.389C1096.66 615.674 1098.53 616.095 1100.13 615.373Z" fill="#294C99"/>
<path d="M1100.13 615.373C1098.53 616.095 1096.66 615.674 1095.51 614.389C1097.8 613.259 1099.68 611.027 1100.61 608.339C1100.68 608.383 1100.75 608.434 1100.82 608.481C1099.6 610.748 1099.88 613.835 1100.13 615.37V615.373Z" fill="#3460A4"/>
<path d="M1123.85 603.014C1123.88 602.951 1123.89 602.887 1123.9 602.824C1123.93 602.948 1123.95 603.071 1123.96 603.204L1123.94 603.293C1123.69 603.951 1123.1 604.372 1122.44 604.442C1122.45 604.344 1122.46 604.246 1122.46 604.147C1123.07 604.049 1123.62 603.638 1123.85 603.011V603.014Z" fill="#294C99"/>
<path d="M1123.9 602.827C1123.89 602.891 1123.88 602.954 1123.85 603.017C1123.62 603.644 1123.07 604.056 1122.46 604.154C1122.48 602.941 1122.28 601.738 1121.76 600.656C1121.97 600.605 1122.2 600.595 1122.42 600.624C1122.93 600.852 1123.66 601.425 1123.9 602.83V602.827Z" fill="#3460A4"/>
<path d="M1127.03 602.159C1127.07 602.21 1127.11 602.264 1127.15 602.321C1126.02 602.647 1125.94 603.825 1125.94 604.135C1125.81 604.119 1125.7 604.081 1125.59 604.03C1125.6 603.574 1125.77 602.473 1127.04 602.162L1127.03 602.159Z" fill="#294C99"/>
<path d="M1076.56 592.592C1078.39 593.02 1081.69 594.28 1087.07 597.863C1096.42 604.097 1099.89 607.915 1099.89 607.915C1099.89 607.915 1099.78 609.722 1098.67 610.887C1098.67 610.887 1096.03 603.866 1078.14 594.229C1077.58 593.58 1077.06 593.042 1076.56 592.592Z" fill="#BAD3EE"/>
<path d="M1100.39 610.837C1100.39 610.837 1101.03 607.548 1103.14 606.709C1105.26 605.866 1114.43 601.627 1121.35 600.82C1121.35 600.82 1121.97 601.966 1121.97 602.53C1121.97 602.53 1108.15 604.28 1100.39 610.837Z" fill="#BAD3EE"/>
<path d="M1081.09 618.735C1083.68 620.214 1083.46 623.595 1083.46 623.595C1083.46 623.595 1082.6 622.221 1081.13 621.73C1081.15 620.679 1081.13 619.641 1081.09 618.732V618.735Z" fill="#1B2866"/>
<path d="M1071.9 648.291L1071.34 647.639C1071.5 647.516 1071.65 647.389 1071.8 647.256C1071.89 647.905 1071.9 648.291 1071.9 648.291Z" fill="#1B2866"/>
<path d="M1062.63 634.346C1062.53 634.314 1062.42 634.289 1062.31 634.273C1062.41 634.074 1062.55 633.9 1062.75 633.77C1062.93 633.859 1063.08 633.95 1063.25 634.042C1063.04 634.134 1062.83 634.235 1062.63 634.346Z" fill="#1B2866"/>
<path d="M1074.36 675.79C1074.24 675.587 1074.18 675.461 1074.18 675.461C1074.2 675.036 1074.24 674.571 1074.3 674.099C1074.43 674.334 1074.68 674.736 1075.04 675.195C1074.8 675.391 1074.57 675.587 1074.36 675.79Z" fill="#294C99"/>
<path d="M1076.22 674.413C1075.98 674.53 1075.75 674.656 1075.55 674.799C1075.37 674.932 1075.21 675.062 1075.04 675.195C1074.68 674.736 1074.43 674.334 1074.3 674.099C1074.22 673.96 1074.18 673.881 1074.18 673.881C1074.21 673.32 1074.27 672.694 1074.35 672.07C1074.61 672.519 1075.23 673.498 1076.22 674.413H1076.22Z" fill="#33559D"/>
<path d="M1074.76 671.652C1077.59 672.789 1080.55 672.336 1082.03 671.978C1082.21 671.934 1082.38 671.861 1082.54 671.769C1082.45 672.719 1082.29 673.583 1082.13 674.295C1081.93 673.846 1081.59 673.643 1081.1 673.586C1079.97 673.45 1077.71 673.703 1076.22 674.413C1075.23 673.498 1074.61 672.519 1074.35 672.07C1074.26 671.912 1074.22 671.817 1074.22 671.817C1074.22 671.662 1074.23 671.503 1074.25 671.342C1074.4 671.468 1074.57 671.576 1074.77 671.652H1074.76Z" fill="#3460A4"/>
<path d="M1075.33 702.607C1075.44 702.671 1075.56 702.731 1075.68 702.788C1075.55 703.101 1075.47 703.32 1075.47 703.32C1075.44 703.06 1075.39 702.826 1075.33 702.607Z" fill="#294C99"/>
<path d="M1076.43 701.471C1076.09 701.917 1075.84 702.42 1075.68 702.788C1075.56 702.731 1075.44 702.671 1075.33 702.607C1074.81 700.853 1073.39 700.417 1073.39 700.417C1073.39 700.417 1073.34 700.426 1073.27 700.48C1073.28 700.014 1073.31 699.486 1073.36 698.979C1073.67 699.467 1074.72 700.948 1076.43 701.468V701.471Z" fill="#33559D"/>
<path d="M1078.68 699.556C1078.63 699.926 1078.57 700.258 1078.51 700.546C1077.65 700.23 1076.94 700.778 1076.43 701.471C1074.72 700.948 1073.67 699.467 1073.37 698.983C1073.3 698.884 1073.27 698.824 1073.27 698.824C1073.27 698.628 1073.28 698.419 1073.29 698.204C1075.63 700.255 1077.53 700.059 1078.69 699.559L1078.68 699.556Z" fill="#3460A4"/>
<path d="M1081.14 633.969C1084.59 642.318 1084.72 661.217 1081.1 670.17C1081.1 670.17 1077.53 672.421 1074.43 669.62C1074.43 669.62 1075.62 653.987 1073 648.675C1073 648.675 1082.26 645.442 1081.14 633.969Z" fill="#BAD3EE"/>
<path d="M1079.88 674.21C1079.88 674.21 1077.17 687.532 1077.83 698.761C1077.83 698.761 1076.3 699.878 1073.63 697.466C1073.63 697.466 1075.1 688.035 1074.18 684.891C1073.26 681.748 1071.88 676.103 1079.88 674.21Z" fill="#BAD3EE"/>
<path d="M1079.4 640.57C1080.28 638.25 1080.71 636.363 1080.88 634.834C1081.04 636.844 1080.88 639.291 1079.79 641.618C1077.21 647.174 1073.68 648.184 1072.69 648.364C1074.63 647.899 1078.21 643.739 1079.4 640.57Z" fill="#294C99"/>
<path d="M1062.2 603.685C1062.45 607.687 1060.89 609.9 1059.16 610.846C1059.76 608.554 1060.25 606.237 1060.64 603.897C1060.7 603.536 1060.75 603.169 1060.79 602.802C1060.88 602.463 1060.93 602.109 1060.93 601.745C1060.93 601.2 1060.82 600.684 1060.64 600.206C1060.62 600.143 1060.61 600.079 1060.58 600.019C1060.21 598.965 1059.38 598.082 1058.35 597.645C1058.22 597.591 1058.06 597.531 1057.87 597.474C1057.35 597.243 1056.77 597.11 1056.16 597.11C1055.59 597.11 1055.06 597.224 1054.57 597.423C1054.92 596.461 1055.42 595.73 1056.06 595.359C1057.48 595.46 1061.76 596.372 1062.21 603.685H1062.2Z" fill="#1B2866"/>
<path d="M1058.65 679.798C1058.54 679.614 1058.49 679.5 1058.49 679.5C1058.51 679.076 1058.55 678.61 1058.61 678.139C1058.74 678.37 1058.98 678.759 1059.33 679.209C1059.09 679.405 1058.86 679.598 1058.65 679.798Z" fill="#294C99"/>
<path d="M1060.5 678.427C1060.25 678.554 1060.01 678.693 1059.81 678.838C1059.64 678.962 1059.49 679.085 1059.33 679.212C1058.98 678.762 1058.74 678.373 1058.61 678.142C1058.53 678.003 1058.49 677.924 1058.49 677.924C1058.52 677.363 1058.58 676.736 1058.66 676.113C1058.91 676.559 1059.53 677.525 1060.5 678.43V678.427Z" fill="#33559D"/>
<path d="M1066.82 676.078C1066.72 676.986 1066.56 677.806 1066.4 678.481C1066.18 677.816 1065.75 677.518 1065.19 677.452C1064.06 677.316 1061.95 677.689 1060.5 678.424C1059.53 677.518 1058.92 676.553 1058.66 676.106C1058.57 675.948 1058.53 675.853 1058.53 675.853C1058.56 675.087 1058.66 674.2 1058.78 673.349C1062.87 677.61 1065.74 676.698 1066.82 676.075L1066.82 676.078Z" fill="#3460A4"/>
<path d="M1058.54 705.818C1058.91 706.175 1059.37 706.539 1059.93 706.802C1059.42 707.435 1059.3 708.214 1059.3 708.214C1059.27 707.651 1058.95 706.663 1058.54 705.818Z" fill="#294C99"/>
<path d="M1062.49 705.662C1062.46 705.821 1062.43 705.973 1062.4 706.112C1061.15 705.802 1060.39 706.242 1059.93 706.802C1059.37 706.539 1058.91 706.178 1058.54 705.817C1058.51 705.751 1058.48 705.688 1058.45 705.621C1058.2 705.134 1057.88 704.76 1057.58 704.577C1057.58 704.102 1057.62 703.548 1057.67 703.019C1058.07 703.655 1059.74 705.992 1062.49 705.659V705.662Z" fill="#33559D"/>
<path d="M1062.99 703.595C1062.82 704.817 1062.53 705.656 1062.53 705.656L1062.49 705.662C1059.74 705.995 1058.07 703.655 1057.67 703.022C1057.6 702.924 1057.57 702.864 1057.57 702.864C1057.57 702.667 1057.58 702.459 1057.6 702.243C1059.93 704.295 1061.83 704.098 1062.99 703.598V703.595Z" fill="#3460A4"/>
<path d="M1063.58 634.932C1063.31 634.65 1062.98 634.457 1062.63 634.346C1062.83 634.235 1063.04 634.134 1063.25 634.042C1069.87 637.759 1071.44 644.654 1071.8 647.256C1071.65 647.389 1071.5 647.516 1071.34 647.639C1071.21 647.741 1071.08 647.839 1070.94 647.931C1069.35 641.685 1065.6 637.066 1063.58 634.935V634.932Z" fill="#294C99"/>
<path d="M1079.73 627.736C1079.69 628.186 1079.65 628.622 1079.59 629.031C1079.59 629.031 1072.95 635.134 1062.75 633.767C1062.75 633.767 1062.56 633.273 1062.36 632.44C1071.68 633.666 1078.17 628.99 1079.73 627.733V627.736Z" fill="#294C99"/>
<path d="M1080.25 625.596C1080.22 626.235 1080.17 626.859 1080.09 627.432C1080.09 627.432 1079.96 627.546 1079.73 627.739C1078.17 628.996 1071.68 633.669 1062.36 632.447L1062.3 632.44C1062.3 632.44 1062.01 631.722 1061.76 630.538C1071.38 631.741 1078.2 627.191 1080.26 625.599L1080.25 625.596Z" fill="#33559D"/>
<path d="M1066.47 626.318C1071.17 622.126 1072.18 618.181 1078.01 618.058C1079.33 618.029 1080.33 618.302 1081.09 618.732C1081.13 619.638 1081.15 620.679 1081.13 621.73C1081.11 622.879 1081.05 624.044 1080.91 625.061C1080.91 625.061 1080.68 625.267 1080.25 625.596C1078.2 627.191 1071.37 631.737 1061.76 630.534C1061.68 630.525 1061.61 630.519 1061.54 630.509C1061.54 630.509 1061.32 629.961 1061.09 629.031C1062.56 628.825 1064.43 628.132 1066.46 626.318H1066.47Z" fill="#3460A4"/>
<path d="M1058.99 611.524C1060.62 610.726 1063.33 608.637 1062.82 603.631C1062.11 596.559 1059.26 595.457 1056.71 594.935C1056.71 594.935 1058.19 593.887 1059.55 593.783C1059.55 593.783 1065.69 601.985 1071.86 597.518C1071.86 597.518 1075.65 607.931 1074.43 617.83C1074.43 617.83 1071.66 619.141 1070.37 620.92C1069.07 622.702 1063.94 629.721 1058.5 628.306C1058.5 628.306 1058.92 622.595 1057.92 620.236C1057.52 619.28 1057.24 618.432 1057.06 617.757C1057.78 615.703 1058.42 613.623 1058.98 611.521L1058.99 611.524Z" fill="#BAD3EE"/>
<path d="M1065.8 638.661C1065.8 638.661 1071.51 647.497 1071.14 653.388C1070.73 659.821 1070.23 662.484 1069.64 665.279C1068.81 669.268 1068.05 676.379 1064.92 676.091C1064.92 676.091 1072.27 660.163 1065.8 638.661Z" fill="#BAD3EE"/>
<path d="M1061.05 703.145C1061.05 703.145 1061.69 692.676 1062.14 688.491C1062.73 683.043 1064.42 677.768 1064.42 677.768C1064.42 677.768 1066.3 677.806 1065.83 680.393C1065.34 683.071 1064.7 687.168 1064.3 689.542C1063.78 692.632 1063.33 697.627 1063.8 702.395C1063.8 702.395 1062.6 703.589 1061.05 703.149L1061.05 703.145Z" fill="#BAD3EE"/>
<path d="M1059.84 644.109C1060.05 642.432 1059.61 640.991 1058.85 640.896H1058.82C1059 640.779 1059.18 640.722 1059.37 640.744C1060.18 640.849 1060.65 642.387 1060.43 644.185C1060.2 645.984 1059.35 647.354 1058.54 647.253C1058.36 647.231 1058.19 647.13 1058.05 646.968L1058.08 646.975C1058.84 647.073 1059.63 645.787 1059.84 644.109H1059.84Z" fill="#294C99"/>
<path d="M1058.82 640.896H1058.85C1059.61 640.994 1060.05 642.432 1059.84 644.113C1059.63 645.79 1058.84 647.076 1058.08 646.978L1058.05 646.971C1057.31 646.835 1056.88 645.417 1057.1 643.764C1057.3 642.112 1058.07 640.842 1058.82 640.899V640.896Z" fill="#3460A4"/>
<path d="M1060.79 602.802C1060.89 601.922 1060.89 601.039 1060.63 600.203C1060.82 600.681 1060.93 601.2 1060.93 601.741C1060.93 602.109 1060.88 602.46 1060.79 602.799V602.802Z" fill="#294C99"/>
<path d="M1057.86 597.474C1056.97 597.208 1055.44 597.009 1053.88 597.781C1054.09 597.642 1054.32 597.521 1054.57 597.423C1055.06 597.224 1055.59 597.11 1056.16 597.11C1056.77 597.11 1057.34 597.243 1057.87 597.474H1057.86Z" fill="#3460A4"/>
<path d="M1062.83 585.862C1062.86 586.223 1062.92 586.561 1063.02 586.853C1063 588.819 1062.82 591.139 1062.14 592.434C1062.18 592.421 1062.22 592.405 1062.26 592.39C1062.5 592.244 1063.37 591.437 1063.23 587.346C1063.45 587.72 1063.73 587.942 1064.02 587.929C1064.15 588.018 1064.29 588.059 1064.44 588.046C1065.08 587.989 1065.53 586.906 1065.45 585.627C1065.37 584.348 1064.79 583.358 1064.15 583.411C1064.01 583.424 1063.87 583.494 1063.75 583.601C1063.17 583.68 1062.76 584.678 1062.83 585.859L1062.83 585.862ZM1063.68 583.415C1063.68 583.415 1066.2 582.867 1066.08 586.992C1066.03 588.72 1065.55 590.569 1067.01 591.763C1068.46 592.956 1071.91 595.34 1073.49 595.207C1073.61 595.198 1073.73 595.16 1073.86 595.103C1073.75 595.771 1073.36 596.41 1072.48 596.923C1068.96 598.993 1064.98 599.168 1060.13 593.431C1060.54 593.149 1061.05 592.877 1061.68 592.614C1062.85 591.054 1062.76 586.463 1062.66 584.428C1062.35 583.687 1062.18 582.873 1062.18 582.022C1062.18 578.58 1064.96 575.794 1068.4 575.794C1069.73 575.794 1070.96 576.216 1071.97 576.925C1070.34 577.016 1065.24 577.764 1063.69 583.415H1063.68Z" fill="#1B2866"/>
<path d="M1064.99 585.672C1064.92 584.475 1064.38 583.551 1063.78 583.601L1063.75 583.608C1063.88 583.497 1064.01 583.43 1064.16 583.418C1064.8 583.361 1065.38 584.352 1065.46 585.634C1065.54 586.913 1065.08 587.995 1064.45 588.052C1064.3 588.065 1064.16 588.021 1064.03 587.935H1064.05C1064.65 587.882 1065.07 586.872 1065 585.675L1064.99 585.672Z" fill="#294C99"/>
<path d="M1063.78 583.601C1064.37 583.548 1064.92 584.475 1064.99 585.672C1065.07 586.868 1064.65 587.878 1064.05 587.932H1064.02C1063.73 587.945 1063.45 587.72 1063.24 587.35C1063.16 587.207 1063.08 587.039 1063.02 586.856C1062.92 586.561 1062.86 586.226 1062.84 585.865C1062.76 584.687 1063.17 583.69 1063.75 583.608L1063.78 583.601Z" fill="#3460A4"/>
<path d="M1051.43 628.648C1051.65 628.667 1051.87 628.683 1052.09 628.689C1051.78 629.692 1051.07 630.538 1050.13 631.032C1050.02 630.883 1049.9 630.74 1049.77 630.601C1050.53 630.148 1051.11 629.458 1051.43 628.648Z" fill="#294C99"/>
<path d="M1051.43 628.648C1051.11 629.458 1050.53 630.148 1049.77 630.601C1047.99 628.679 1045.01 627.796 1043.75 627.498C1043.68 626.612 1043.9 625.764 1044.34 625.058C1045.94 627.071 1048.57 628.385 1051.43 628.648Z" fill="#3460A4"/>
<path d="M1048.5 653.328C1048.6 653.328 1048.7 653.325 1048.8 653.322C1048.77 653.496 1048.71 653.661 1048.63 653.816C1048.47 653.892 1048.31 653.958 1048.16 654.015C1048.32 653.816 1048.44 653.582 1048.5 653.328Z" fill="#294C99"/>
<path d="M1048.5 653.328C1048.44 653.578 1048.32 653.813 1048.16 654.015C1046.53 654.62 1045.6 654.072 1045.18 653.696C1045.13 653.594 1045.09 653.487 1045.05 653.373C1044.96 653.047 1044.98 652.714 1045.06 652.41C1046.14 652.955 1047.31 653.306 1048.5 653.328Z" fill="#3460A4"/>
<path d="M1049.77 655.035C1049.87 655.111 1049.95 655.196 1050.02 655.297C1049.75 655.44 1048.74 656.054 1048.97 657.206C1048.91 657.203 1048.84 657.194 1048.78 657.181C1048.47 655.912 1049.37 655.256 1049.77 655.035Z" fill="#294C99"/>
<path d="M1049.03 627.562C1049.03 627.562 1055.73 622.433 1059.74 599.234C1059.74 599.234 1061.37 601.938 1058.12 612.692C1054.87 623.446 1052.22 627.872 1052.22 627.872C1052.22 627.872 1050.46 628.287 1049.03 627.562H1049.03Z" fill="#BAD3EE"/>
<path d="M1047.02 652.717C1047.02 652.717 1051 639.37 1048.15 629.626C1048.15 629.626 1050.9 631.535 1050.81 633.808C1050.72 636.081 1050.89 646.183 1048.82 652.838C1048.82 652.838 1047.53 652.945 1047.01 652.717H1047.02Z" fill="#BAD3EE"/>
<path d="M1074.05 594.647C1074.05 594.647 1076.32 590.367 1075.62 590.088C1074.83 589.775 1074.44 588.936 1074.67 588.882C1075.02 588.803 1075.72 588.325 1075.72 588.325C1074.25 586.925 1074.67 584.298 1074.67 584.298C1075.9 583.617 1076.85 584.193 1076.85 584.193C1076.65 584.665 1076.32 585.583 1076.22 586.707C1076.11 587.834 1076.71 588.933 1076.71 588.933C1076.48 591.709 1074.05 594.644 1074.05 594.644L1074.05 594.647Z" fill="#BAD3EE"/>
<path d="M1499.28 320.212C1499.42 320.13 1499.55 320.038 1499.66 319.943C1499.55 320.038 1499.43 320.127 1499.28 320.212ZM1499.27 317.787L1496.48 316.176L1499.25 314.564C1499.82 314.232 1500.11 313.798 1500.11 313.361C1500.12 309.436 1500.12 309.505 1500.12 309.572C1500.12 309.638 1500.13 309.708 1500.14 305.782C1500.14 305.846 1500.12 305.906 1500.11 305.969C1500.2 305.469 1499.93 304.947 1499.26 304.56L1495.48 302.373L1499.24 300.182C1499.82 299.853 1500.11 299.419 1500.11 298.979C1500.12 295.563 1500.12 295.171 1500.12 295.171C1500.12 295.016 1500.13 294.294 1500.14 291.403C1500.14 291.467 1500.12 291.524 1500.11 291.587C1500.1 291.619 1500.1 291.647 1500.1 291.676C1500.1 291.647 1500.11 291.615 1500.11 291.587C1500.2 291.087 1499.93 290.564 1499.27 290.178L1471.45 274.105C1470.3 273.437 1468.43 273.441 1467.27 274.105L1439.64 290.178C1439.07 290.511 1438.78 290.947 1438.78 291.384C1438.78 291.419 1438.79 291.454 1438.8 291.489C1438.79 291.454 1438.78 291.419 1438.78 291.387C1438.77 294.278 1438.77 295 1438.77 295.155C1438.76 295.155 1438.76 295.547 1438.75 298.957C1438.74 299.194 1438.83 299.438 1439 299.657C1439.14 299.847 1439.35 300.021 1439.62 300.176L1443.4 302.363L1439.63 304.557C1439.06 304.89 1438.78 305.327 1438.78 305.763C1438.77 309.686 1438.77 309.616 1438.76 309.547C1438.76 309.477 1438.76 309.41 1438.75 313.336C1438.75 313.776 1439.03 314.216 1439.62 314.555L1442.41 316.169L1439.64 317.784C1439.07 318.116 1438.78 318.553 1438.78 318.99C1438.77 322.913 1438.77 322.843 1438.77 322.773C1438.77 322.704 1438.76 322.637 1438.75 326.563C1438.75 327.003 1439.04 327.446 1439.62 327.782L1467.44 343.854C1468.59 344.522 1470.46 344.526 1471.61 343.854L1499.24 327.782C1499.81 327.449 1500.1 327.012 1500.1 326.579C1500.11 322.653 1500.11 322.723 1500.12 322.789C1500.12 322.856 1500.12 322.925 1500.13 319C1500.13 319.063 1500.11 319.123 1500.1 319.186C1500.2 318.686 1499.92 318.164 1499.26 317.781L1499.27 317.787Z" fill="#4CC9F0"/>
<path d="M1467.44 330.634L1443.76 316.951L1442.16 317.882C1441.63 318.186 1441.37 318.588 1441.37 318.987C1441.37 319.044 1441.39 319.101 1441.4 319.155C1441.41 319.199 1441.41 319.243 1441.42 319.285C1441.44 319.342 1441.48 319.399 1441.51 319.456C1441.53 319.497 1441.54 319.535 1441.57 319.576C1441.61 319.633 1441.67 319.687 1441.73 319.744C1441.76 319.778 1441.79 319.816 1441.82 319.851C1441.92 319.94 1442.04 320.022 1442.17 320.098L1467.63 334.81C1468.69 335.421 1470.4 335.424 1471.45 334.81L1496.75 320.095C1496.88 320.019 1496.99 319.937 1497.09 319.851C1497.12 319.826 1497.14 319.794 1497.17 319.769C1497.23 319.706 1497.29 319.646 1497.34 319.579C1497.36 319.544 1497.38 319.503 1497.39 319.468C1497.43 319.408 1497.46 319.351 1497.48 319.291C1497.5 319.25 1497.5 319.209 1497.5 319.167C1497.59 318.708 1497.34 318.23 1496.74 317.879L1495.14 316.955L1471.62 330.634C1470.47 331.302 1468.6 331.302 1467.44 330.634H1467.44Z" fill="#4361EE"/>
<path d="M1440.52 326.525V326.224L1440.53 322.739L1443.56 324.489L1445.32 323.486L1439.65 320.209C1439.51 320.127 1439.38 320.035 1439.27 319.94C1439.26 319.93 1439.26 319.921 1439.25 319.911C1439.22 319.883 1439.2 319.851 1439.17 319.823C1439.11 319.763 1439.05 319.702 1439 319.639C1438.99 319.617 1438.97 319.595 1438.96 319.573C1438.95 319.551 1438.94 319.532 1438.93 319.509C1438.9 319.446 1438.86 319.386 1438.84 319.323C1438.82 319.275 1438.82 319.228 1438.81 319.18C1438.81 319.158 1438.8 319.136 1438.8 319.11C1438.79 319.072 1438.78 319.035 1438.78 318.997V318.99C1438.78 321.874 1438.77 322.602 1438.77 322.761C1438.77 322.761 1438.76 323.156 1438.75 326.566C1438.75 326.756 1438.8 326.946 1438.91 327.126L1440.52 326.221V326.525H1440.52Z" fill="black"/>
<path d="M1449.19 327.741L1454.88 331.03V331.074L1456.68 330.048L1450.95 326.737L1449.19 327.741Z" fill="#4CC9F0"/>
<path d="M1440.52 326.525L1445.89 329.627L1444.32 330.501L1450.07 333.822L1451.61 332.936L1440.52 326.525Z" fill="#4CC9F0"/>
<path d="M1474.23 336.982L1474.22 335.747L1488.56 327.456L1488.58 328.69L1474.23 336.982H1474.23ZM1474.23 339.251L1474.22 338.017L1488.56 329.725L1488.58 330.96L1474.23 339.251H1474.23ZM1474.23 341.55L1474.22 340.315L1488.56 332.024L1488.58 333.259L1474.23 341.55H1474.23ZM1465.72 341.116C1464.93 340.657 1464.29 339.549 1464.29 338.64C1464.29 337.729 1464.94 337.361 1465.73 337.82C1466.52 338.28 1467.16 339.388 1467.16 340.296C1467.16 341.208 1466.52 341.575 1465.72 341.116ZM1461.73 338.951C1460.94 338.492 1460.3 337.384 1460.3 336.475C1460.3 335.563 1460.95 335.196 1461.74 335.655C1462.53 336.114 1463.17 337.222 1463.17 338.134C1463.17 339.046 1462.52 339.413 1461.73 338.954V338.951ZM1500.1 319.196C1500.1 319.24 1500.1 319.288 1500.08 319.332C1500.08 319.351 1500.07 319.37 1500.06 319.389C1500.04 319.437 1500.01 319.481 1499.98 319.528C1499.98 319.538 1499.98 319.547 1499.97 319.557C1499.96 319.589 1499.94 319.617 1499.92 319.649C1499.92 319.665 1499.9 319.68 1499.89 319.696C1499.84 319.75 1499.79 319.804 1499.74 319.858C1499.71 319.886 1499.69 319.918 1499.66 319.946C1499.63 319.972 1499.6 319.994 1499.57 320.016C1499.48 320.086 1499.39 320.152 1499.28 320.215L1496.02 322.112L1471.64 336.288C1471.24 336.519 1470.76 336.668 1470.25 336.741C1469.28 336.874 1468.22 336.725 1467.47 336.285L1462.31 333.303L1459.09 335.139C1459.15 335.354 1459.18 335.566 1459.18 335.769C1459.18 336.681 1458.54 337.048 1457.74 336.589C1457.56 336.488 1457.4 336.352 1457.24 336.193L1455.7 337.077L1467.44 343.858C1468.6 344.529 1470.47 344.529 1471.62 343.858L1499.25 327.785C1499.82 327.452 1500.11 327.019 1500.11 326.582C1500.12 323.558 1500.13 322.906 1500.13 322.796C1500.13 322.865 1500.13 322.932 1500.14 319.009C1500.14 319.069 1500.12 319.13 1500.11 319.193H1500.1V319.196Z" fill="#4CC9F0"/>
<path d="M1449.19 327.741L1445.89 329.627L1440.52 326.525L1451.61 332.936L1454.88 331.074V331.03L1449.19 327.741Z" fill="#9514EA"/>
<path d="M1440.53 322.739L1440.52 326.224L1443.56 324.489L1440.53 322.739Z" fill="#9514EA"/>
<path d="M1474.22 335.747L1474.23 336.981L1488.58 328.69L1488.56 327.456L1474.22 335.747Z" fill="black"/>
<path d="M1474.22 338.014L1474.23 339.248L1488.58 330.957L1488.56 329.722L1474.22 338.014Z" fill="black"/>
<path d="M1474.22 340.315L1474.23 341.55L1488.58 333.259L1488.56 332.024L1474.22 340.315Z" fill="black"/>
<path d="M1461.74 335.649C1460.95 335.19 1460.3 335.557 1460.3 336.469C1460.3 337.38 1460.94 338.488 1461.73 338.944C1462.52 339.403 1463.17 339.036 1463.17 338.124C1463.17 337.213 1462.53 336.105 1461.74 335.646V335.649Z" fill="white"/>
<path d="M1465.73 337.817C1464.94 337.358 1464.3 337.725 1464.3 338.637C1464.3 339.549 1464.93 340.657 1465.72 341.113C1466.52 341.572 1467.16 341.205 1467.16 340.293C1467.16 339.381 1466.53 338.273 1465.73 337.817Z" fill="white"/>
<path d="M1440.52 326.525V326.221L1438.91 327.126C1439.05 327.367 1439.29 327.595 1439.62 327.785L1444.33 330.501L1445.89 329.624L1440.52 326.525Z" fill="#4361EE"/>
<path d="M1450.95 326.737L1445.32 323.486L1443.56 324.489L1449.19 327.741L1450.95 326.737Z" fill="#4361EE"/>
<path d="M1449.19 327.74L1443.56 324.489L1440.52 326.224V326.525L1445.89 329.627L1449.19 327.74Z" fill="#7209B7"/>
<path d="M1456.31 334.11C1456.31 333.464 1456.63 333.094 1457.1 333.094C1457.3 333.094 1457.51 333.157 1457.75 333.29C1458.36 333.645 1458.89 334.392 1459.09 335.136L1462.31 333.3L1456.68 330.048L1454.88 331.074L1454.87 334.816L1451.61 332.936L1450.07 333.822H1450.06L1455.7 337.08L1457.23 336.193C1456.69 335.646 1456.3 334.819 1456.3 334.11H1456.31Z" fill="#5876FF"/>
<path d="M1454.87 334.816L1454.88 331.074L1451.61 332.936L1454.87 334.816Z" fill="#7209B7"/>
<path d="M1457.75 333.29C1457.52 333.157 1457.3 333.094 1457.1 333.094C1456.63 333.094 1456.31 333.467 1456.31 334.11C1456.31 334.816 1456.69 335.642 1457.24 336.193C1457.39 336.351 1457.56 336.484 1457.74 336.589C1458.53 337.048 1459.17 336.681 1459.18 335.769C1459.18 335.566 1459.15 335.351 1459.09 335.139C1458.88 334.395 1458.36 333.648 1457.74 333.293H1457.75V333.29Z" fill="white"/>
<path d="M1462.46 305.792L1467.47 308.686C1467.82 308.891 1468.25 309.031 1468.7 309.11C1468.25 309.031 1467.82 308.888 1467.47 308.682L1458.98 303.779L1462.46 305.789H1462.46V305.792Z" fill="#737477"/>
<path d="M1458.98 303.782L1451.3 299.34L1456.83 302.537L1458.98 303.782H1458.98Z" fill="#565759"/>
<path d="M1467.43 316.258L1455.85 309.562L1450.21 306.311L1444.75 303.148L1442.16 304.659C1441.63 304.963 1441.37 305.361 1441.37 305.763C1441.37 305.82 1441.39 305.877 1441.4 305.931C1441.41 305.976 1441.41 306.02 1441.42 306.061C1441.44 306.118 1441.48 306.175 1441.51 306.232C1441.53 306.273 1441.54 306.311 1441.57 306.352C1441.61 306.409 1441.67 306.463 1441.73 306.52C1441.76 306.555 1441.79 306.593 1441.82 306.628C1441.92 306.713 1442.04 306.796 1442.17 306.875L1467.63 321.586C1468.69 322.197 1470.4 322.2 1471.45 321.586L1496.75 306.871C1496.88 306.796 1496.99 306.713 1497.09 306.628C1497.12 306.602 1497.14 306.571 1497.17 306.545C1497.23 306.482 1497.29 306.422 1497.34 306.355C1497.36 306.321 1497.38 306.279 1497.39 306.245C1497.43 306.185 1497.46 306.128 1497.48 306.067C1497.5 306.026 1497.5 305.985 1497.5 305.944C1497.59 305.485 1497.34 305.007 1496.74 304.655L1494.14 303.158L1471.62 316.258C1470.47 316.929 1468.6 316.929 1467.44 316.258H1467.43Z" fill="#4361EE"/>
<path d="M1461.74 322.425C1462.53 322.884 1463.17 323.992 1463.17 324.901C1463.17 325.813 1462.52 326.18 1461.73 325.721C1460.94 325.262 1460.3 324.154 1460.3 323.242C1460.3 322.33 1460.95 321.963 1461.74 322.422V322.425ZM1465.73 324.594C1466.52 325.053 1467.16 326.161 1467.16 327.069C1467.16 327.981 1466.52 328.348 1465.72 327.889C1464.93 327.43 1464.29 326.322 1464.29 325.41C1464.29 324.499 1464.94 324.131 1465.73 324.591V324.594ZM1488.56 318.8L1488.57 320.035L1474.23 328.326L1474.22 327.092L1488.56 318.8H1488.56ZM1488.56 316.502L1488.57 317.737L1474.23 326.028L1474.22 324.793L1488.56 316.502H1488.56ZM1488.56 314.232L1488.57 315.467L1474.23 323.758L1474.22 322.523L1488.56 314.232H1488.56ZM1467.43 330.637C1468.59 331.305 1470.46 331.308 1471.61 330.637L1495.13 316.958L1496.47 316.176L1499.24 314.564C1499.81 314.232 1500.1 313.798 1500.1 313.361C1500.11 309.436 1500.11 309.505 1500.11 309.572C1500.11 309.638 1500.12 309.708 1500.13 305.782C1500.13 305.846 1500.11 305.906 1500.1 305.969C1500.09 306.014 1500.09 306.061 1500.08 306.105C1500.05 306.172 1500.01 306.235 1499.98 306.298C1499.96 306.34 1499.94 306.381 1499.91 306.422C1499.86 306.492 1499.79 306.561 1499.73 306.628C1499.7 306.656 1499.68 306.688 1499.65 306.72C1499.54 306.815 1499.42 306.903 1499.27 306.989L1471.64 323.061C1470.49 323.729 1468.62 323.729 1467.46 323.061L1462.45 320.168L1459.11 322.074C1459.15 322.235 1459.17 322.393 1459.16 322.545C1459.16 323.457 1458.52 323.824 1457.73 323.365C1457.59 323.289 1457.46 323.191 1457.34 323.084L1455.85 323.938L1450.21 320.687L1451.76 319.807L1446.04 316.499L1444.5 317.379L1439.62 314.564C1439.35 314.409 1439.15 314.235 1439.01 314.045L1440.51 313.184L1440.52 309.518L1443.71 311.361L1445.47 310.357L1439.65 306.992C1439.5 306.906 1439.38 306.818 1439.27 306.723C1439.23 306.685 1439.2 306.644 1439.16 306.606C1439.1 306.545 1439.04 306.485 1439 306.422C1438.97 306.381 1438.95 306.333 1438.93 306.292C1438.89 306.229 1438.85 306.169 1438.83 306.105C1438.82 306.058 1438.82 306.01 1438.81 305.963C1438.8 305.903 1438.78 305.839 1438.78 305.779C1438.77 309.702 1438.76 309.632 1438.76 309.562C1438.76 309.493 1438.76 309.426 1438.75 313.352C1438.75 313.792 1439.03 314.232 1439.62 314.571L1442.41 316.185L1443.76 316.961L1467.43 330.644V330.637Z" fill="#4CC9F0"/>
<path d="M1454.88 317.803V318.028L1456.83 316.913L1451.11 313.602L1449.34 314.609L1454.88 317.803Z" fill="#4CC9F0"/>
<path d="M1440.53 309.515L1440.52 313.178L1443.72 311.354L1440.53 309.515Z" fill="#9514EA"/>
<path d="M1454.88 317.803L1449.34 314.609L1446.05 316.492L1451.77 319.801L1454.88 318.028V317.803H1454.88Z" fill="#9514EA"/>
<path d="M1488.58 315.463L1488.56 314.229L1474.22 322.52L1474.23 323.755L1488.58 315.463Z" fill="black"/>
<path d="M1488.58 317.733L1488.56 316.499L1474.22 324.79L1474.23 326.025L1488.58 317.733Z" fill="black"/>
<path d="M1488.58 320.032L1488.56 318.797L1474.22 327.088L1474.23 328.323L1488.58 320.032Z" fill="black"/>
<path d="M1461.73 325.724C1462.52 326.183 1463.17 325.816 1463.17 324.904C1463.17 323.992 1462.53 322.884 1461.74 322.428C1460.95 321.969 1460.3 322.336 1460.3 323.248C1460.3 324.16 1460.94 325.268 1461.73 325.727V325.724Z" fill="white"/>
<path d="M1465.72 327.889C1466.52 328.348 1467.16 327.981 1467.16 327.069C1467.16 326.158 1466.53 325.05 1465.73 324.594C1464.94 324.135 1464.3 324.502 1464.3 325.414C1464.3 326.325 1464.93 327.433 1465.72 327.892V327.889Z" fill="white"/>
<path d="M1451.11 313.599L1445.49 310.348H1445.48L1451.11 313.602H1451.11V313.599Z" fill="#898B8E"/>
<path d="M1440.52 313.178L1439.01 314.039C1439.15 314.229 1439.36 314.403 1439.63 314.558L1444.5 317.372L1446.04 316.492L1440.52 313.301V313.181L1440.52 313.178Z" fill="#4361EE"/>
<path d="M1451.11 313.602L1445.48 310.351L1443.72 311.354L1449.34 314.609L1451.11 313.602Z" fill="#4361EE"/>
<path d="M1443.72 311.354L1440.52 313.178V313.301L1446.05 316.492L1449.34 314.609L1443.72 311.354Z" fill="#7209B7"/>
<path d="M1456.84 316.91H1456.83L1462.46 320.165H1462.47L1456.84 316.91Z" fill="#898B8E"/>
<path d="M1454.88 318.028L1454.87 321.589L1451.77 319.801L1450.22 320.681L1455.86 323.932L1457.35 323.077C1456.75 322.536 1456.31 321.64 1456.31 320.883C1456.31 320.238 1456.63 319.867 1457.1 319.867C1457.3 319.867 1457.51 319.93 1457.75 320.063C1458.41 320.443 1458.96 321.276 1459.13 322.067L1462.46 320.162L1456.83 316.91L1454.88 318.025V318.028Z" fill="#5876FF"/>
<path d="M1454.88 318.028L1451.77 319.801L1454.87 321.592L1454.88 318.028Z" fill="#7209B7"/>
<path d="M1457.75 320.067C1457.52 319.934 1457.3 319.87 1457.1 319.87C1456.63 319.87 1456.31 320.244 1456.31 320.887C1456.31 321.646 1456.75 322.539 1457.35 323.08C1457.48 323.188 1457.6 323.286 1457.74 323.362C1458.53 323.821 1459.17 323.454 1459.17 322.542C1459.17 322.39 1459.16 322.229 1459.12 322.071C1458.96 321.276 1458.41 320.446 1457.74 320.067H1457.75Z" fill="white"/>
<path d="M1456.48 291.916L1468.58 298.909C1469.09 299.201 1469.9 299.201 1470.4 298.909L1482.42 291.913C1482.92 291.622 1482.92 291.15 1482.42 290.862L1470.31 283.869C1469.81 283.577 1469 283.577 1468.5 283.869L1456.47 290.862C1455.97 291.153 1455.98 291.625 1456.48 291.913V291.916Z" fill="#4CC9F0"/>
<path d="M1456.47 290.865L1468.5 283.872C1469 283.581 1469.81 283.581 1470.31 283.872L1482.42 290.865C1482.92 291.156 1482.92 291.628 1482.42 291.916L1470.4 298.913C1469.9 299.204 1469.09 299.204 1468.58 298.913L1456.48 291.919C1455.98 291.628 1455.97 291.156 1456.47 290.868V290.865ZM1441.42 291.688C1441.44 291.745 1441.48 291.802 1441.51 291.859C1441.53 291.9 1441.54 291.938 1441.57 291.98C1441.61 292.036 1441.67 292.09 1441.72 292.147C1441.76 292.182 1441.78 292.22 1441.82 292.255C1441.92 292.34 1442.04 292.426 1442.17 292.502L1467.63 307.213C1468.69 307.824 1470.4 307.828 1471.45 307.213L1496.74 292.502C1496.87 292.426 1496.99 292.344 1497.09 292.258C1497.12 292.233 1497.13 292.201 1497.16 292.176C1497.22 292.112 1497.29 292.052 1497.33 291.986C1497.36 291.948 1497.37 291.91 1497.39 291.875C1497.42 291.815 1497.46 291.758 1497.48 291.698C1497.49 291.657 1497.49 291.615 1497.5 291.574C1497.59 291.115 1497.34 290.637 1496.73 290.286L1471.28 275.574C1470.22 274.963 1468.5 274.963 1467.45 275.574L1442.16 290.286C1441.63 290.59 1441.37 290.989 1441.37 291.391C1441.37 291.448 1441.39 291.505 1441.4 291.558C1441.41 291.603 1441.41 291.647 1441.42 291.688H1441.42Z" fill="#4361EE"/>
<path d="M1445.63 296.06L1445.48 295.975L1449.96 298.564L1445.63 296.06Z" fill="#464547"/>
<path d="M1440.53 295.139L1443.71 296.978L1445.48 295.975L1445.46 295.965L1439.65 292.613C1439.5 292.527 1439.38 292.439 1439.27 292.34C1439.23 292.306 1439.2 292.264 1439.16 292.226C1439.13 292.192 1439.09 292.15 1439.06 292.112C1439.03 292.09 1439.01 292.065 1439 292.043V292.036C1438.97 291.998 1438.96 291.954 1438.94 291.916C1438.9 291.853 1438.86 291.79 1438.84 291.726C1438.83 291.714 1438.83 291.701 1438.83 291.685C1438.83 291.669 1438.82 291.653 1438.82 291.638C1438.82 291.622 1438.82 291.603 1438.81 291.587C1438.81 291.558 1438.8 291.53 1438.79 291.505C1438.78 291.47 1438.78 291.435 1438.78 291.403C1438.77 294.294 1438.76 295.016 1438.76 295.171C1438.76 295.171 1438.76 295.563 1438.75 298.973C1438.74 299.21 1438.83 299.454 1439 299.672L1440.51 298.808L1440.52 295.145L1440.53 295.139Z" fill="black"/>
<path d="M1454.88 303.43V303.652L1456.83 302.538L1451.3 299.34L1451.1 299.226L1449.34 300.233L1454.88 303.43Z" fill="#4CC9F0"/>
<path d="M1451.77 305.425L1446.04 302.116L1444.5 303L1444.75 303.149L1450.21 306.311L1451.77 305.425Z" fill="#4CC9F0"/>
<path d="M1474.23 309.379L1474.22 308.144L1488.56 299.853L1488.58 301.088L1474.23 309.379H1474.23ZM1474.23 311.649L1474.22 310.414L1488.56 302.123L1488.58 303.357L1474.23 311.649H1474.23ZM1474.23 313.602L1474.22 312.367L1488.56 304.076L1488.58 305.311L1474.23 313.602H1474.23ZM1465.72 313.513C1464.93 313.054 1464.29 311.946 1464.29 311.038C1464.29 310.126 1464.94 309.759 1465.73 310.218C1466.52 310.677 1467.16 311.785 1467.16 312.697C1467.16 313.608 1466.52 313.976 1465.72 313.517V313.513ZM1461.73 311.348C1460.94 310.889 1460.3 309.781 1460.3 308.869C1460.3 307.957 1460.95 307.59 1461.74 308.049C1462.53 308.508 1463.17 309.616 1463.17 310.528C1463.17 311.44 1462.52 311.807 1461.73 311.348ZM1499.98 291.923C1499.96 291.964 1499.95 292.002 1499.92 292.043C1499.91 292.059 1499.9 292.074 1499.88 292.09C1499.84 292.144 1499.79 292.195 1499.74 292.249C1499.71 292.277 1499.69 292.312 1499.66 292.34C1499.54 292.432 1499.42 292.524 1499.28 292.606L1488.96 298.606L1487.62 299.387L1487.19 299.634L1471.64 308.679C1470.85 309.141 1469.7 309.284 1468.69 309.103C1468.25 309.024 1467.82 308.882 1467.46 308.679L1462.45 305.786L1459.12 307.688C1459.16 307.85 1459.17 308.011 1459.17 308.163C1459.17 309.075 1458.53 309.442 1457.74 308.983C1457.6 308.907 1457.47 308.809 1457.35 308.698L1455.85 309.556L1467.43 316.252C1468.59 316.923 1470.46 316.923 1471.61 316.252L1494.13 303.152L1495.48 302.37L1499.24 300.179C1499.81 299.85 1500.1 299.416 1500.1 298.976C1500.11 295.56 1500.11 295.167 1500.12 295.167C1500.12 295.012 1500.13 294.291 1500.13 291.4C1500.13 291.463 1500.12 291.52 1500.1 291.584C1500.1 291.615 1500.1 291.644 1500.09 291.672C1500.09 291.688 1500.09 291.701 1500.08 291.717C1500.06 291.786 1500.02 291.85 1499.98 291.913V291.923Z" fill="#4CC9F0"/>
<path d="M1440.53 295.139L1440.52 298.802L1443.71 296.978L1440.53 295.139Z" fill="#9514EA"/>
<path d="M1454.88 303.652V303.43L1449.34 300.233L1446.04 302.116L1451.77 305.425L1454.88 303.652Z" fill="#9514EA"/>
<path d="M1474.22 308.144L1474.23 309.379L1488.58 301.088L1488.56 299.853L1474.22 308.144Z" fill="black"/>
<path d="M1474.17 310.389L1474.18 311.623L1488.53 303.332L1488.52 302.097L1474.17 310.389Z" fill="black"/>
<path d="M1474.22 312.367L1474.23 313.602L1488.58 305.311L1488.56 304.076L1474.22 312.367Z" fill="black"/>
<path d="M1461.74 308.049C1460.95 307.59 1460.3 307.957 1460.3 308.869C1460.3 309.781 1460.94 310.889 1461.73 311.348C1462.52 311.807 1463.17 311.44 1463.17 310.528C1463.17 309.616 1462.53 308.508 1461.74 308.049Z" fill="white"/>
<path d="M1465.73 310.218C1464.94 309.759 1464.3 310.126 1464.3 311.038C1464.3 311.949 1464.93 313.057 1465.72 313.513C1466.52 313.972 1467.16 313.605 1467.16 312.693C1467.16 311.782 1466.53 310.674 1465.73 310.215V310.218Z" fill="white"/>
<path d="M1446.04 302.116L1440.52 298.925V298.802L1439.01 299.666C1439.14 299.856 1439.35 300.03 1439.62 300.185L1443.41 302.373L1444.49 303L1446.04 302.116H1446.04Z" fill="#4361EE"/>
<path d="M1451.1 299.226L1449.96 298.564L1445.48 295.975L1443.71 296.978L1449.34 300.233L1451.1 299.226Z" fill="#4361EE"/>
<path d="M1443.71 296.978L1440.52 298.802V298.925L1446.04 302.116L1449.34 300.233L1443.71 296.978Z" fill="#7209B7"/>
<path d="M1456.83 302.537L1454.88 303.652L1454.87 307.217L1451.77 305.425L1450.22 306.311L1455.85 309.562L1457.35 308.704C1456.75 308.16 1456.31 307.267 1456.31 306.511C1456.31 305.865 1456.63 305.494 1457.1 305.494C1457.3 305.494 1457.51 305.558 1457.75 305.691C1458.41 306.071 1458.96 306.9 1459.13 307.691L1462.46 305.789L1458.98 303.778L1456.83 302.534V302.537Z" fill="#5876FF"/>
<path d="M1454.88 303.652L1451.77 305.425L1454.87 307.217L1454.88 303.652Z" fill="#7209B7"/>
<path d="M1457.75 305.691C1457.52 305.558 1457.3 305.494 1457.1 305.494C1456.63 305.494 1456.31 305.868 1456.31 306.511C1456.31 307.267 1456.75 308.16 1457.35 308.705C1457.48 308.815 1457.61 308.91 1457.74 308.989C1458.53 309.448 1459.17 309.081 1459.18 308.169C1459.18 308.014 1459.16 307.856 1459.12 307.695C1458.96 306.903 1458.41 306.074 1457.74 305.691H1457.75Z" fill="white"/>
</g>
</g>
<defs>
<filter id="filter0_f_19_4" x="-162" y="386" width="955" height="893.5" filterUnits="userSpaceOnUse" color-interpolation-filters="sRGB">
<feFlood flood-opacity="0" result="BackgroundImageFix"/>
<feBlend mode="normal" in="SourceGraphic" in2="BackgroundImageFix" result="shape"/>
<feGaussianBlur stdDeviation="100" result="effect1_foregroundBlur_19_4"/>
</filter>
<filter id="filter1_f_19_4" x="1601.95" y="-535" width="823.554" height="893.5" filterUnits="userSpaceOnUse" color-interpolation-filters="sRGB">
<feFlood flood-opacity="0" result="BackgroundImageFix"/>
<feBlend mode="normal" in="SourceGraphic" in2="BackgroundImageFix" result="shape"/>
<feGaussianBlur stdDeviation="100" result="effect1_foregroundBlur_19_4"/>
</filter>
<filter id="filter2_f_19_4" x="336" y="-447" width="823.554" height="893.5" filterUnits="userSpaceOnUse" color-interpolation-filters="sRGB">
<feFlood flood-opacity="0" result="BackgroundImageFix"/>
<feBlend mode="normal" in="SourceGraphic" in2="BackgroundImageFix" result="shape"/>
<feGaussianBlur stdDeviation="100" result="effect1_foregroundBlur_19_4"/>
</filter>
<filter id="filter3_f_19_4" x="-317" y="543" width="955" height="893.5" filterUnits="userSpaceOnUse" color-interpolation-filters="sRGB">
<feFlood flood-opacity="0" result="BackgroundImageFix"/>
<feBlend mode="normal" in="SourceGraphic" in2="BackgroundImageFix" result="shape"/>
<feGaussianBlur stdDeviation="100" result="effect1_foregroundBlur_19_4"/>
</filter>
<filter id="filter4_f_19_4" x="1061" y="395" width="1284" height="1189" filterUnits="userSpaceOnUse" color-interpolation-filters="sRGB">
<feFlood flood-opacity="0" result="BackgroundImageFix"/>
<feBlend mode="normal" in="SourceGraphic" in2="BackgroundImageFix" result="shape"/>
<feGaussianBlur stdDeviation="100" result="effect1_foregroundBlur_19_4"/>
</filter>
<filter id="filter5_f_19_4" x="373.271" y="785.64" width="729.736" height="675.099" filterUnits="userSpaceOnUse" color-interpolation-filters="sRGB">
<feFlood flood-opacity="0" result="BackgroundImageFix"/>
<feBlend mode="normal" in="SourceGraphic" in2="BackgroundImageFix" result="shape"/>
<feGaussianBlur stdDeviation="100" result="effect1_foregroundBlur_19_4"/>
</filter>
<filter id="filter6_f_19_4" x="1262.88" y="557.671" width="1176.34" height="1047.7" filterUnits="userSpaceOnUse" color-interpolation-filters="sRGB">
<feFlood flood-opacity="0" result="BackgroundImageFix"/>
<feBlend mode="normal" in="SourceGraphic" in2="BackgroundImageFix" result="shape"/>
<feGaussianBlur stdDeviation="100" result="effect1_foregroundBlur_19_4"/>
</filter>
<linearGradient id="paint0_linear_19_4" x1="1325.12" y1="512.896" x2="1348.86" y2="556.854" gradientUnits="userSpaceOnUse">
<stop stop-color="#00FFFF"/>
<stop offset="1" stop-color="#0000FF"/>
</linearGradient>
<linearGradient id="paint1_linear_19_4" x1="1128.35" y1="564.065" x2="1152.09" y2="520.107" gradientUnits="userSpaceOnUse">
<stop stop-color="#0000FF"/>
<stop offset="1" stop-color="#00FFFF"/>
</linearGradient>
<linearGradient id="paint2_linear_19_4" x1="1223.8" y1="465.124" x2="1205.41" y2="440.115" gradientUnits="userSpaceOnUse">
<stop stop-color="#0000FF"/>
<stop offset="1" stop-color="#00FFFF"/>
</linearGradient>
<linearGradient id="paint3_linear_19_4" x1="1258.35" y1="466.666" x2="1275.2" y2="441.145" gradientUnits="userSpaceOnUse">
<stop stop-color="#0000FF"/>
<stop offset="1" stop-color="#00FFFF"/>
</linearGradient>
<linearGradient id="paint4_linear_19_4" x1="1860.05" y1="549.987" x2="1866.93" y2="562.736" gradientUnits="userSpaceOnUse">
<stop stop-color="#00FFFF"/>
<stop offset="1" stop-color="#0000FF"/>
</linearGradient>
<linearGradient id="paint5_linear_19_4" x1="1802.97" y1="564.828" x2="1809.86" y2="552.078" gradientUnits="userSpaceOnUse">
<stop stop-color="#0000FF"/>
<stop offset="1" stop-color="#00FFFF"/>
</linearGradient>
<linearGradient id="paint6_linear_19_4" x1="1830.66" y1="536.13" x2="1825.32" y2="528.876" gradientUnits="userSpaceOnUse">
<stop stop-color="#0000FF"/>
<stop offset="1" stop-color="#00FFFF"/>
</linearGradient>
<linearGradient id="paint7_linear_19_4" x1="1840.68" y1="536.576" x2="1845.57" y2="529.176" gradientUnits="userSpaceOnUse">
<stop stop-color="#0000FF"/>
<stop offset="1" stop-color="#00FFFF"/>
</linearGradient>
<linearGradient id="paint8_linear_19_4" x1="1501.15" y1="349.186" x2="1510.33" y2="366.188" gradientUnits="userSpaceOnUse">
<stop stop-color="#00FFFF"/>
<stop offset="1" stop-color="#0000FF"/>
</linearGradient>
<linearGradient id="paint9_linear_19_4" x1="1425.04" y1="368.978" x2="1434.22" y2="351.976" gradientUnits="userSpaceOnUse">
<stop stop-color="#0000FF"/>
<stop offset="1" stop-color="#00FFFF"/>
</linearGradient>
<linearGradient id="paint10_linear_19_4" x1="1461.96" y1="330.71" x2="1454.85" y2="321.035" gradientUnits="userSpaceOnUse">
<stop stop-color="#0000FF"/>
<stop offset="1" stop-color="#00FFFF"/>
</linearGradient>
<linearGradient id="paint11_linear_19_4" x1="1475.32" y1="331.305" x2="1481.84" y2="321.437" gradientUnits="userSpaceOnUse">
<stop stop-color="#0000FF"/>
<stop offset="1" stop-color="#00FFFF"/>
</linearGradient>
<linearGradient id="paint12_linear_19_4" x1="1713.98" y1="662.899" x2="1726.68" y2="686.42" gradientUnits="userSpaceOnUse">
<stop stop-color="#00FFFF"/>
<stop offset="1" stop-color="#0000FF"/>
</linearGradient>
<linearGradient id="paint13_linear_19_4" x1="1608.69" y1="690.28" x2="1621.39" y2="666.758" gradientUnits="userSpaceOnUse">
<stop stop-color="#0000FF"/>
<stop offset="1" stop-color="#00FFFF"/>
</linearGradient>
<linearGradient id="paint14_linear_19_4" x1="1659.7" y1="637.601" x2="1649.72" y2="624.038" gradientUnits="userSpaceOnUse">
<stop stop-color="#0000FF"/>
<stop offset="1" stop-color="#00FFFF"/>
</linearGradient>
<linearGradient id="paint15_linear_19_4" x1="1678.43" y1="638.436" x2="1687.57" y2="624.597" gradientUnits="userSpaceOnUse">
<stop stop-color="#0000FF"/>
<stop offset="1" stop-color="#00FFFF"/>
</linearGradient>
<clipPath id="clip0_19_4">
<rect width="1920" height="1080" fill="white"/>
</clipPath>
<clipPath id="clip1_19_4">
<rect width="1019" height="631" fill="white" transform="translate(901 224)"/>
</clipPath>
</defs>
</svg>
