<?xml version="1.0" encoding="UTF-8"?>
<svg xmlns="http://www.w3.org/2000/svg" xmlns:xlink="http://www.w3.org/1999/xlink" viewBox="0 0 433.88 312.53">
  <defs>
    <style>
      .cls-1 {
        fill: #fdd0a2;
      }

      .cls-1, .cls-2, .cls-3, .cls-4, .cls-5, .cls-6, .cls-7, .cls-8, .cls-9, .cls-10, .cls-11, .cls-12, .cls-13, .cls-14, .cls-15, .cls-16, .cls-17, .cls-18, .cls-19, .cls-20, .cls-21, .cls-22, .cls-23, .cls-24 {
        stroke-width: 0px;
      }

      .cls-2 {
        fill: #666;
      }

      .cls-3 {
        fill: #d4ad86;
      }

      .cls-4 {
        fill: #262626;
      }

      .cls-5 {
        fill: #8c8c8c;
      }

      .cls-6 {
        fill: #e6e6e6;
      }

      .cls-25 {
        isolation: isolate;
      }

      .cls-7 {
        fill: #f7f7f7;
      }

      .cls-8 {
        fill: #e0e0e0;
      }

      .cls-9 {
        fill: none;
      }

      .cls-26 {
        opacity: .15;
      }

      .cls-26, .cls-27, .cls-28 {
        mix-blend-mode: multiply;
      }

      .cls-10 {
        fill: #ffdc00;
      }

      .cls-11 {
        fill: #0d0d0d;
      }

      .cls-12 {
        fill: #fff;
      }

      .cls-13 {
        fill: #515151;
      }

      .cls-27, .cls-29 {
        opacity: .3;
      }

      .cls-30, .cls-29, .cls-31 {
        mix-blend-mode: screen;
      }

      .cls-14 {
        fill: #2c363d;
      }

      .cls-15 {
        fill: #3d3d3d;
      }

      .cls-16 {
        fill: #595959;
      }

      .cls-32 {
        clip-path: url(#clippath);
      }

      .cls-17 {
        fill: #404040;
      }

      .cls-18 {
        fill: #ebebeb;
      }

      .cls-19 {
        fill: #3e4c57;
      }

      .cls-20 {
        fill: #8f8f8f;
      }

      .cls-21 {
        fill: #4895ef;
      }

      .cls-31 {
        opacity: .5;
      }

      .cls-22 {
        fill: #080808;
      }

      .cls-23 {
        fill: #f7ff61;
      }

      .cls-24 {
        fill: #deb68d;
      }
    </style>
    <clipPath id="clippath">
      <polyline class="cls-9" points="209.64 312.53 62.98 193.88 62.98 105.53 362.87 105.53 362.87 221.44"/>
    </clipPath>
  </defs>
  <g class="cls-25">
    <g id="Layer_2" data-name="Layer 2">
      <g id="Layer_1-2" data-name="Layer 1">
        <g>
          <g>
            <g>
              <path class="cls-14" d="m296.89,111.72v130.12c0,5.61,5.52,11.8,12.34,13.84,26.2,7.64,52.4,15.27,78.61,22.91,6.81,2.04,12.34-2.73,12.34-10.65V86.95c0-7.92-5.52-12.76-12.34-10.81-26.2,7.3-52.4,14.6-78.61,21.9-6.81,1.95-12.34,8.07-12.34,13.68Z"/>
              <polygon class="cls-14" points="377.14 78.54 387.83 76.14 397.97 79.41 377.14 78.54"/>
              <polygon class="cls-14" points="383.51 280.85 393.08 278.8 394.26 269.19 384.84 273.27 383.51 280.85"/>
              <g>
                <path class="cls-19" d="m288.37,113.51v130.12c0,5.61,5.52,11.8,12.34,13.84,26.2,7.64,52.4,15.27,78.61,22.91,6.81,2.04,12.34-2.73,12.34-10.65V88.74c0-7.92-5.52-12.76-12.34-10.81-26.2,7.3-52.4,14.6-78.61,21.9-6.81,1.95-12.34,8.07-12.34,13.68Z"/>
                <path class="cls-21" d="m382.96,257.04V92.46c0-2.27-1.63-3.71-3.65-3.21-26.2,6.47-52.4,12.93-78.61,19.4-2.01.5-3.65,2.3-3.65,4.02v125.18c0,1.72,1.63,3.5,3.65,3.98,26.2,6.15,52.4,12.31,78.61,18.46,2.01.48,3.65-.98,3.65-3.25Z"/>
                <g>
                  <g class="cls-30">
                    <path class="cls-15" d="m369.6,187.51h0c3.48.12,6.3-2.91,6.3-6.77v-75.36c0-3.86-2.82-6.35-6.3-5.56h0c-3.48.79-6.3,4.43-6.3,8.12v72.66c0,3.7,2.82,6.79,6.3,6.91Z"/>
                  </g>
                  <g class="cls-30">
                    <path class="cls-15" d="m369.6,187.51h0c3.48.12,6.3-2.91,6.3-6.77v-48.54c0-3.86-2.82-6.56-6.3-6.04h0c-3.48.52-6.3,3.95-6.3,7.64v46.8c0,3.7,2.82,6.79,6.3,6.91Z"/>
                  </g>
                  <g class="cls-30">
                    <path class="cls-15" d="m369.6,187.51h0c3.48.12,6.3-2.91,6.3-6.77v-10.53c0-3.86-2.82-6.87-6.3-6.72h0c-3.48.15-6.3,3.26-6.3,6.96v10.15c0,3.7,2.82,6.79,6.3,6.91Z"/>
                  </g>
                  <g class="cls-30">
                    <path class="cls-20" d="m369.6,228.85h0c3.48.54,6.3-2.16,6.3-6.02v-10.53c0-3.86-2.82-7.21-6.3-7.48h0c-3.48-.27-6.3,2.51-6.3,6.21v10.15c0,3.7,2.82,7.13,6.3,7.66Z"/>
                  </g>
                </g>
              </g>
            </g>
            <g>
              <path class="cls-14" d="m122.4,111.72v130.12c0,5.61-5.52,11.8-12.34,13.84-26.2,7.64-52.4,15.27-78.61,22.91-6.81,2.04-12.34-2.73-12.34-10.65V86.95c0-7.92,5.52-12.76,12.34-10.81,26.2,7.3,52.4,14.6,78.61,21.9,6.81,1.95,12.34,8.07,12.34,13.68Z"/>
              <polygon class="cls-14" points="42.14 78.54 31.46 76.14 21.32 79.41 42.14 78.54"/>
              <polygon class="cls-14" points="35.78 280.85 26.21 278.8 25.03 269.19 34.44 273.27 35.78 280.85"/>
              <g>
                <path class="cls-19" d="m130.92,113.51v130.12c0,5.61-5.52,11.8-12.34,13.84-26.2,7.64-52.4,15.27-78.61,22.91-6.81,2.04-12.34-2.73-12.34-10.65V88.74c0-7.92,5.52-12.76,12.34-10.81,26.2,7.3,52.4,14.6,78.61,21.9,6.81,1.95,12.34,8.07,12.34,13.68Z"/>
                <path class="cls-21" d="m36.33,257.04V92.46c0-2.27,1.63-3.71,3.65-3.21,26.2,6.47,52.4,12.93,78.61,19.4,2.01.5,3.65,2.3,3.65,4.02v125.18c0,1.72-1.63,3.5-3.65,3.98-26.2,6.15-52.4,12.31-78.61,18.46-2.01.48-3.65-.98-3.65-3.25Z"/>
                <g>
                  <g class="cls-30">
                    <path class="cls-15" d="m49.69,187.51h0c-3.48.12-6.3-2.91-6.3-6.77v-75.36c0-3.86,2.82-6.35,6.3-5.56h0c3.48.79,6.3,4.43,6.3,8.12v72.66c0,3.7-2.82,6.79-6.3,6.91Z"/>
                  </g>
                  <g class="cls-30">
                    <path class="cls-15" d="m49.69,187.51h0c-3.48.12-6.3-2.91-6.3-6.77v-48.54c0-3.86,2.82-6.56,6.3-6.04h0c3.48.52,6.3,3.95,6.3,7.64v46.8c0,3.7-2.82,6.79-6.3,6.91Z"/>
                  </g>
                  <g class="cls-30">
                    <path class="cls-15" d="m49.69,187.51h0c-3.48.12-6.3-2.91-6.3-6.77v-10.53c0-3.86,2.82-6.87,6.3-6.72h0c3.48.15,6.3,3.26,6.3,6.96v10.15c0,3.7-2.82,6.79-6.3,6.91Z"/>
                  </g>
                  <g class="cls-30">
                    <path class="cls-20" d="m49.69,228.85h0c-3.48.54-6.3-2.16-6.3-6.02v-10.53c0-3.86,2.82-7.21,6.3-7.48h0c3.48-.27,6.3,2.51,6.3,6.21v10.15c0,3.7-2.82,7.13-6.3,7.66Z"/>
                  </g>
                </g>
              </g>
            </g>
          </g>
          <g class="cls-32">
            <g>
              <g>
                <path class="cls-1" d="m212.64,199.87c5.29-2.06,9.52-2.23,12.48-1.97,5.75.52,7.36,2.11,12.34,1.57,4.6-.5,10.77-2.84,11.92-7.12.06-.22.9-3.53-.87-5.65-.43-.52-.95-.87-1.47-1.12-1.52-.75-19.29.54-21.51-.14-2.22-.68-28.36-15.28-44.72-.43-.6.76-4.8,6.27-3.11,12.68,2,7.6,10.51,9.83,12.18,10.26,12.03,3.15,22.23-7.51,22.76-8.08Z"/>
                <g class="cls-31">
                  <path class="cls-1" d="m248.8,189.2c.2-.81.12-1.53.02-2.03-.1-.16-.18-.32-.31-.47-.43-.52-.95-.87-1.47-1.12-.67-.33-4.48-.26-8.73-.15.14,2.75.27,5.49.4,8.24,1,.24,3.34.64,5.86-.43.97-.41,3.61-1.54,4.22-4.03Z"/>
                </g>
                <g class="cls-31">
                  <path class="cls-1" d="m238.32,185.43l.4,8.24s1.71-3.77.93-8.3l-1.33.07Z"/>
                </g>
                <g class="cls-27">
                  <path class="cls-1" d="m230.68,191.79l.08-4.95c0-.39.33-.7.71-.7h0c.39,0,.7.33.69.72l-.08,4.95c0,.39-.33.7-.71.7h0c-.39,0-.7-.33-.69-.72Z"/>
                </g>
              </g>
              <g>
                <rect class="cls-24" x="243.64" y="172.63" width="60.81" height="42.27" rx="5.36" ry="5.36" transform="translate(-59.49 156.37) rotate(-28.87)"/>
                <rect class="cls-24" x="202.06" y="174.77" width="66.99" height="75.5" rx="29.63" ry="29.63" transform="translate(307.95 -96.36) rotate(61.13)"/>
                <polygon class="cls-8" points="281.71 218.84 256.93 173.89 366.89 113.05 390.96 164.45 281.71 218.84"/>
                <path class="cls-18" d="m283.41,217.91l-24.78-44.95c-.52-.94-1.7-1.28-2.64-.76-.94.52-1.28,1.7-.76,2.64l24.78,44.95c.52.94,1.7,1.28,2.64.76.94-.52,1.28-1.7.76-2.64Z"/>
                <g class="cls-26">
                  <rect class="cls-1" x="245.72" y="196.85" width="42.27" height="1.75" transform="translate(311.19 -131.43) rotate(61.13)"/>
                </g>
                <g>
                  <g class="cls-30">
                    <path class="cls-16" d="m293.94,194.12l59.63-28.76c3.57-1.72,7.85-.22,9.57,3.34h0c1.72,3.57.22,7.85-3.34,9.57l-59.63,28.76c-3.56,1.72-7.85.22-9.57-3.34h0c-1.72-3.56-.22-7.85,3.34-9.57Z"/>
                  </g>
                  <g class="cls-30">
                    <path class="cls-16" d="m320.26,181.42l33.31-16.07c3.57-1.72,7.85-.22,9.57,3.34h0c1.72,3.57.22,7.85-3.34,9.57l-33.31,16.07c-3.56,1.72-7.85.22-9.57-3.34h0c-1.72-3.57-.22-7.85,3.34-9.57Z"/>
                  </g>
                </g>
                <g class="cls-28">
                  <polygon class="cls-7" points="258.63 172.96 283.41 217.91 291.12 214.16 266.37 168.67 258.63 172.96"/>
                </g>
                <g>
                  <polygon class="cls-13" points="410.08 88.66 266.48 164.75 293.51 215.86 433.88 148.29 410.08 88.66"/>
                  <g class="cls-28">
                    <polygon class="cls-6" points="303.77 210.92 293.51 215.86 266.48 164.75 276.05 159.68 303.77 210.92"/>
                  </g>
                  <path class="cls-13" d="m296.4,219.65h0c2.21-1.19,3.03-3.95,1.84-6.15l-27.22-50.38c-1.19-2.21-3.95-3.03-6.15-1.84h0c-2.21,1.19-3.03,3.95-1.84,6.15l27.22,50.38c1.19,2.21,3.95,3.03,6.15,1.84Z"/>
                  <g class="cls-30">
                    <path class="cls-11" d="m288.38,206.37h0c1.43-.75,1.97-2.52,1.21-3.95l-20.36-38.46c-.75-1.42-2.52-1.97-3.95-1.21h0c-1.43.75-1.97,2.52-1.21,3.95l20.36,38.46c.75,1.43,2.52,1.97,3.95,1.21Z"/>
                  </g>
                  <g class="cls-30">
                    <path class="cls-11" d="m294,217.18h0c1.42-.75,1.97-2.52,1.21-3.95l-2.36-4.46c-.75-1.42-2.52-1.97-3.95-1.21h0c-1.42.75-1.97,2.52-1.21,3.95l2.36,4.46c.75,1.42,2.52,1.97,3.95,1.21Z"/>
                  </g>
                  <g class="cls-30">
                    <path class="cls-22" d="m380.11,122.64h0c-3.86-7.14-12.77-9.81-19.92-5.95l-67.69,36.54c-7.14,3.86-9.81,12.77-5.95,19.92h0c3.86,7.14,12.77,9.81,19.92,5.95l67.69-36.54c7.14-3.86,9.81-12.77,5.95-19.92Z"/>
                  </g>
                </g>
              </g>
              <rect class="cls-1" x="138.71" y="167.41" width="42.27" height="60.81" rx="5.36" ry="5.36" transform="translate(-90.57 242.3) rotate(-61.13)"/>
              <path class="cls-1" d="m169.32,200.07l4.1-7.44c7.15-12.97,23.03-17.92,35.47-11.06l30.42,16.82c7.65,4.22,10.29,14.11,5.9,22.08l-14.06,25.51c-4.4,7.98-14.17,11.02-21.82,6.8l-30.42-16.82c-12.44-6.86-16.73-22.93-9.58-35.89Z"/>
              <polygon class="cls-8" points="152.17 222.9 176.95 177.95 66.99 117.1 42.92 168.51 152.17 222.9"/>
              <path class="cls-18" d="m150.47,221.96l24.78-44.95c.52-.94,1.7-1.28,2.64-.76.94.52,1.28,1.7.76,2.64l-24.78,44.95c-.52.94-1.7,1.28-2.64.76-.94-.52-1.28-1.7-.76-2.64Z"/>
              <g class="cls-26">
                <rect class="cls-1" x="145.89" y="200.91" width="42.27" height="1.75" transform="translate(424.37 152.92) rotate(118.87)"/>
              </g>
              <g>
                <g class="cls-30">
                  <path class="cls-16" d="m139.94,198.17l-59.63-28.76c-3.57-1.72-7.85-.22-9.57,3.34h0c-1.72,3.57-.22,7.85,3.34,9.57l59.63,28.76c3.56,1.72,7.85.22,9.57-3.34h0c1.72-3.56.22-7.85-3.34-9.57Z"/>
                </g>
                <g class="cls-30">
                  <path class="cls-16" d="m113.62,185.48l-33.31-16.07c-3.57-1.72-7.85-.22-9.57,3.34h0c-1.72,3.57-.22,7.85,3.34,9.57l33.31,16.07c3.56,1.72,7.85.22,9.57-3.34h0c1.72-3.57.22-7.85-3.34-9.57Z"/>
                </g>
              </g>
              <g class="cls-28">
                <polygon class="cls-7" points="175.25 177.01 150.47 221.96 142.76 218.21 167.51 172.73 175.25 177.01"/>
              </g>
              <g>
                <polygon class="cls-13" points="23.8 92.72 167.4 168.8 140.37 219.91 0 152.35 23.8 92.72"/>
                <g class="cls-28">
                  <polygon class="cls-6" points="130.11 214.98 140.37 219.91 167.4 168.8 157.83 163.73 130.11 214.98"/>
                </g>
                <path class="cls-13" d="m137.48,223.7h0c-2.21-1.19-3.03-3.95-1.84-6.15l27.22-50.38c1.19-2.21,3.95-3.03,6.15-1.84h0c2.21,1.19,3.03,3.95,1.84,6.15l-27.22,50.38c-1.19,2.21-3.95,3.03-6.15,1.84Z"/>
                <g class="cls-30">
                  <path class="cls-11" d="m145.5,210.43h0c-1.42-.75-1.97-2.52-1.21-3.95l20.36-38.46c.75-1.42,2.52-1.97,3.95-1.21h0c1.43.75,1.97,2.52,1.21,3.95l-20.36,38.46c-.75,1.42-2.52,1.97-3.95,1.21Z"/>
                </g>
                <g class="cls-30">
                  <path class="cls-11" d="m139.89,221.24h0c-1.42-.75-1.97-2.52-1.21-3.95l2.36-4.46c.75-1.42,2.52-1.97,3.95-1.21h0c1.42.75,1.97,2.52,1.21,3.95l-2.36,4.46c-.75,1.43-2.52,1.97-3.95,1.21Z"/>
                </g>
                <g class="cls-30">
                  <path class="cls-22" d="m53.78,126.69h0c3.86-7.14,12.77-9.81,19.92-5.95l67.69,36.54c7.14,3.86,9.81,12.77,5.95,19.92h0c-3.86,7.14-12.77,9.81-19.92,5.95l-67.69-36.54c-7.14-3.86-9.81-12.77-5.95-19.92Z"/>
                </g>
              </g>
              <path class="cls-1" d="m243.52,238.95l-28.87-17.57c-3.84-2.34-5.05-7.34-2.72-11.18h0c2.34-3.84,7.34-5.05,11.18-2.72l28.87,17.57c3.84,2.34,5.05,7.34,2.72,11.18h0c-2.34,3.84-7.34,5.05-11.18,2.72Z"/>
              <path class="cls-1" d="m231.68,249.34l-28.96-17.85c-3.79-2.33-4.96-7.29-2.63-11.08h0c2.33-3.79,7.29-4.96,11.08-2.63l28.96,17.85c3.79,2.33,4.96,7.29,2.63,11.08h0c-2.33,3.79-7.29,4.96-11.08,2.63Z"/>
              <path class="cls-1" d="m222.01,255.87l-23.65-12.43c-3.14-1.65-4.35-5.54-2.7-8.68h0c1.65-3.14,5.54-4.35,8.68-2.7l23.65,12.43c3.14,1.65,4.35,5.54,2.7,8.68h0c-1.65,3.14-5.54,4.35-8.68,2.7Z"/>
              <path class="cls-1" d="m255.04,227.58l-36.53-23.94c-3.91-2.56-5-7.81-2.44-11.71h0c2.56-3.91,7.81-5,11.71-2.44l36.53,23.94c3.91,2.56,5,7.81,2.44,11.71h0c-2.56,3.91-7.81,5-11.71,2.44Z"/>
              <g class="cls-30">
                <path class="cls-4" d="m226.88,250.32l-6.77-4.2c-1.09-.68-1.43-2.11-.75-3.2h0c.68-1.09,2.11-1.43,3.2-.75l6.77,4.2c1.09.68,1.43,2.11.75,3.2h0c-.68,1.09-2.11,1.43-3.2.75Z"/>
              </g>
              <g>
                <path class="cls-24" d="m227.8,197.32c-3.93-3.08-8.83-4.74-13.82-4.45-.25.01-.49.03-.72.05-5.39.48-6.9,1.97-11.56,1.47-4.31-.46-10.08-2.66-11.17-6.67-.05-.2-.84-3.31.81-5.29.41-.49.89-.81,1.38-1.05,1.42-.7,18.06.51,20.15-.13,2.08-.64,26.56-14.31,41.88-.41.56.72,4.5,5.87,2.92,11.88-1.87,7.11-9.84,9.2-11.41,9.61-7.77,2.04-14.73-2.09-18.46-5.02Z"/>
                <g class="cls-31">
                  <path class="cls-1" d="m191.09,184.77c-.18-.75-.12-1.43-.02-1.9.09-.15.17-.3.29-.44.41-.49.89-.81,1.38-1.05.63-.31,4.2-.25,8.18-.14-.13,2.57-.25,5.14-.38,7.71-.93.22-3.12.6-5.49-.41-.9-.39-3.38-1.44-3.95-3.78Z"/>
                </g>
                <g class="cls-31">
                  <path class="cls-1" d="m200.91,181.25l-.38,7.71s-1.6-3.53-.87-7.77l1.25.06Z"/>
                </g>
                <g class="cls-27">
                  <path class="cls-1" d="m208.06,187.2l-.07-4.64c0-.37-.31-.66-.67-.65h0c-.36,0-.65.31-.65.67l.07,4.64c0,.37.31.66.67.65h0c.36,0,.65-.31.65-.67Z"/>
                </g>
              </g>
              <g>
                <rect class="cls-24" x="163.73" y="214.86" width="30.33" height="16.07" rx="7.11" ry="7.11" transform="translate(-90.03 126.12) rotate(-31.46)"/>
                <g>
                  <g>
                    <g class="cls-30">
                      <path class="cls-17" d="m185.26,213.22h1.18c2.5,0,4.53,2.03,4.53,4.53v4.97h-10.24v-4.97c0-2.5,2.03-4.53,4.53-4.53Z" transform="translate(260.54 -58.57) rotate(55.57)"/>
                    </g>
                    <g class="cls-29">
                      <path class="cls-1" d="m179.04,216.44l5.8,8.45s-.03-6.36-5.8-8.45Z"/>
                    </g>
                  </g>
                  <path class="cls-3" d="m184.84,225.4c-.16,0-.32-.08-.41-.22l-5.79-8.45c-.16-.23-.1-.54.13-.69.23-.16.54-.1.7.13l5.79,8.45c.16.23.1.54-.13.69-.09.06-.18.09-.28.09Z"/>
                </g>
              </g>
              <g>
                <rect class="cls-24" x="174.42" y="225.85" width="30.33" height="16.07" rx="7.11" ry="7.11" transform="translate(-94.19 133.31) rotate(-31.46)"/>
                <g>
                  <g>
                    <g class="cls-30">
                      <path class="cls-17" d="m195.97,224.29h1.18c2.5,0,4.53,2.03,4.53,4.53v4.97h-10.24v-4.97c0-2.5,2.03-4.53,4.53-4.53Z" transform="translate(274.32 -62.59) rotate(55.57)"/>
                    </g>
                    <g class="cls-29">
                      <path class="cls-1" d="m189.74,227.52l5.79,8.45s-.03-6.36-5.79-8.45Z"/>
                    </g>
                  </g>
                  <path class="cls-3" d="m195.34,236.19c-.16,0-.32-.08-.41-.22l-5.6-8.17c-.16-.23-.1-.54.13-.7.23-.16.54-.1.7.13l5.6,8.17c.16.23.1.54-.13.7-.09.06-.18.09-.28.09Z"/>
                </g>
              </g>
              <g>
                <path class="cls-24" d="m193.15,235.58h16.97c3.69,0,6.68,2.99,6.68,6.68v1.74c0,3.69-2.99,6.68-6.68,6.68h-16.97c-3.69,0-6.68-2.99-6.68-6.68v-1.74c0-3.69,2.99-6.68,6.68-6.68Z" transform="translate(-97.24 140.96) rotate(-31.46)"/>
                <g>
                  <g>
                    <g class="cls-30">
                      <path class="cls-17" d="m208.31,233.73h1.18c2.5,0,4.53,2.03,4.53,4.53v4.97h-10.24v-4.97c0-2.5,2.03-4.53,4.53-4.53Z" transform="translate(287.47 -68.67) rotate(55.57)"/>
                    </g>
                    <g class="cls-29">
                      <path class="cls-1" d="m202.09,236.96l5.79,8.45s-.03-6.36-5.79-8.45Z"/>
                    </g>
                  </g>
                  <path class="cls-3" d="m207.69,245.63c-.16,0-.32-.08-.41-.22l-5.6-8.17c-.16-.23-.1-.54.13-.7.23-.16.54-.1.7.13l5.6,8.17c.16.23.1.54-.13.7-.09.06-.19.09-.28.09Z"/>
                </g>
              </g>
              <g>
                <path class="cls-24" d="m206.93,244.76h13.58c3.16,0,5.73,2.57,5.73,5.73v1.49c0,3.16-2.57,5.73-5.73,5.73h-13.58c-3.16,0-5.73-2.57-5.73-5.73v-1.49c0-3.16,2.57-5.73,5.73-5.73Z" transform="translate(-99.7 148.45) rotate(-31.46)"/>
                <g>
                  <g>
                    <g class="cls-30">
                      <path class="cls-17" d="m219.14,244.19h.85c1.79,0,3.25,1.46,3.25,3.25v3.56h-7.34v-3.56c0-1.79,1.46-3.25,3.25-3.25Z" transform="translate(299.62 -73.5) rotate(55.57)"/>
                    </g>
                    <g class="cls-29">
                      <path class="cls-1" d="m214.68,246.5l4.15,6.06s-.02-4.56-4.15-6.06Z"/>
                    </g>
                  </g>
                  <path class="cls-3" d="m218.69,252.86c-.16,0-.32-.08-.41-.22l-4.01-5.86c-.16-.23-.1-.54.13-.7.23-.16.54-.1.7.13l4.01,5.86c.16.23.1.54-.13.7-.09.06-.19.09-.28.09Z"/>
                </g>
              </g>
              <g class="cls-30">
                <path class="cls-4" d="m171.3,232.59c-1.16.72-3.18-.42-4.51-2.55-1.33-2.13-1.47-4.45-.31-5.18,1.16-.72,3.18.42,4.51,2.55,1.33,2.13,1.47,4.45.31,5.18Z"/>
              </g>
              <g class="cls-30">
                <path class="cls-4" d="m182.11,243.91c-1.16.72-3.18-.42-4.51-2.55-1.33-2.13-1.47-4.45-.31-5.18,1.16-.72,3.18.42,4.51,2.55,1.33,2.13,1.47,4.45.31,5.18Z"/>
              </g>
              <g class="cls-30">
                <path class="cls-4" d="m193.96,253.29c-1.16.72-3.18-.42-4.51-2.55-1.33-2.13-1.47-4.45-.31-5.18,1.16-.72,3.18.42,4.51,2.55,1.33,2.13,1.47,4.45.31,5.18Z"/>
              </g>
              <g class="cls-30">
                <path class="cls-4" d="m207.38,259.26c-.96.6-2.62-.34-3.72-2.1s-1.21-3.67-.25-4.26c.96-.6,2.62.34,3.72,2.1,1.1,1.76,1.21,3.67.25,4.26Z"/>
              </g>
              <g>
                <path class="cls-23" d="m130.82,202.88c0,2.32-1.88,4.21-4.21,4.21s-4.21-1.88-4.21-4.21,1.88-4.21,4.21-4.21,4.21,1.88,4.21,4.21Z"/>
                <g class="cls-30">
                  <path class="cls-2" d="m128.86,200.85c0,.97-1,1.75-2.24,1.75s-2.24-.78-2.24-1.75,1-1.75,2.24-1.75,2.24.78,2.24,1.75Z"/>
                </g>
              </g>
              <g class="cls-30">
                <path class="cls-4" d="m249.08,178.49c0,1.4-5.31,2.54-11.87,2.54s-11.87-1.14-11.87-2.54,5.31-2.54,11.87-2.54,11.87,1.14,11.87,2.54Z"/>
              </g>
              <g class="cls-30">
                <path class="cls-4" d="m262.7,219.38l-11.26-7.2c-1.08-.69-1.4-2.13-.71-3.21h0c.69-1.08,2.13-1.4,3.21-.71l11.26,7.2c1.08.69,1.4,2.13.71,3.21h0c-.69,1.08-2.13,1.4-3.21.71Z"/>
              </g>
              <g class="cls-30">
                <path class="cls-4" d="m249.28,230.69l-9.09-5.43c-1.1-.66-1.46-2.09-.8-3.19h0c.66-1.1,2.09-1.46,3.19-.8l9.09,5.43c1.1.66,1.46,2.09.8,3.19h0c-.66,1.1-2.09,1.46-3.19.8Z"/>
              </g>
              <g class="cls-30">
                <path class="cls-4" d="m238.53,241.15l-11.21-6.89c-1.09-.67-1.44-2.1-.76-3.2h0c.67-1.09,2.1-1.44,3.2-.76l11.21,6.89c1.09.67,1.44,2.1.76,3.2h0c-.67,1.09-2.1,1.44-3.2.76Z"/>
              </g>
            </g>
          </g>
        </g>
        <path class="cls-12" d="m109.34,76.13s.58-.63,1.68-1.81c.55-.58,1.23-1.3,2.03-2.15.41-.42.82-.89,1.3-1.35.49-.46,1.01-.94,1.56-1.46,1.11-1.02,2.32-2.19,3.67-3.41,1.37-1.19,2.9-2.44,4.51-3.79,1.63-1.33,3.46-2.63,5.35-4.07,1.9-1.42,4.02-2.73,6.17-4.21,2.2-1.4,4.55-2.76,6.98-4.19,1.24-.66,2.51-1.33,3.8-2.01,1.29-.68,2.59-1.38,3.96-1.99,1.36-.63,2.74-1.27,4.14-1.92,1.4-.65,2.86-1.19,4.32-1.79,2.9-1.26,5.98-2.23,9.08-3.31,1.55-.55,3.15-.96,4.76-1.44,1.61-.44,3.22-.95,4.87-1.31,1.65-.39,3.31-.78,4.97-1.17,1.67-.37,3.38-.62,5.07-.94l2.56-.45c.85-.15,1.72-.24,2.58-.36,1.73-.22,3.46-.44,5.2-.65,1.74-.13,3.49-.26,5.24-.4l2.63-.19,2.63-.07,2.63-.05,1.32-.02h.66s.43-.01.43-.01h.32c1.7.05,3.4.1,5.1.14l1.27.03,1.33.09,2.65.2c1.77.13,3.52.26,5.23.49,1.72.21,3.43.4,5.12.63,1.69.29,3.37.58,5.04.87,1.67.25,3.31.68,4.94,1.01,1.63.35,3.25.7,4.83,1.16,1.58.43,3.16.85,4.71,1.28,1.54.49,3.06.98,4.56,1.46,1.51.46,2.97,1.02,4.41,1.56,1.44.55,2.88,1.04,4.26,1.63,2.75,1.2,5.46,2.28,7.97,3.57,1.26.63,2.51,1.22,3.72,1.84,1.19.65,2.36,1.29,3.5,1.91,2.3,1.22,4.4,2.59,6.42,3.82,1.02.61,1.96,1.27,2.89,1.9.92.63,1.82,1.25,2.69,1.84,3.43,2.46,6.31,4.72,8.59,6.69,2.34,1.89,4.01,3.58,5.2,4.66,1.16,1.11,1.78,1.71,1.78,1.71,0,0-.74-.43-2.13-1.25-1.37-.83-3.38-2.04-5.98-3.49-2.56-1.5-5.78-3.14-9.44-5-3.7-1.81-7.88-3.78-12.54-5.65-1.16-.47-2.35-.95-3.56-1.44-1.22-.47-2.48-.9-3.74-1.36-2.52-.96-5.19-1.77-7.91-2.66-1.36-.43-2.77-.79-4.17-1.21-1.41-.41-2.83-.82-4.29-1.15-1.45-.36-2.92-.72-4.4-1.08-1.49-.31-3-.62-4.52-.93-6.09-1.17-12.43-2.16-18.91-2.66-1.62-.18-3.23-.26-4.83-.33l-2.41-.13-1.21-.07-1.27-.02c-1.7-.03-3.4-.06-5.1-.09h-.32s-.08,0-.08,0c.19,0,0,0,.03,0h-.15s-.62.02-.62.02l-1.24.04-2.47.07-2.47.05-2.47.15c-1.64.11-3.29.22-4.93.33-3.26.42-6.54.6-9.74,1.16-1.6.25-3.21.46-4.8.75-1.58.3-3.16.6-4.72.9-1.57.26-3.1.68-4.64,1.03-1.52.39-3.07.66-4.56,1.1-2.99.83-5.94,1.62-8.78,2.57-1.42.47-2.85.87-4.22,1.38-1.38.5-2.74,1-4.08,1.49-1.36.46-2.66,1-3.94,1.54-1.29.53-2.56,1.04-3.81,1.55-2.46,1.1-4.85,2.17-7.12,3.25-2.24,1.14-4.42,2.17-6.44,3.26-2.01,1.11-3.94,2.13-5.73,3.15-1.77,1.05-3.42,2.05-4.97,2.94-1.52.93-2.88,1.83-4.14,2.63-2.52,1.57-4.44,2.96-5.77,3.85-1.34.89-2.05,1.37-2.05,1.37Z"/>
        <g>
          <path class="cls-10" d="m62.74,52.89h3.34c.74,0,1.35.6,1.35,1.35v23.4c0,.74-.6,1.35-1.35,1.35h-3.34c-.74,0-1.35-.6-1.35-1.35v-23.4c0-.74.6-1.35,1.35-1.35Z" transform="translate(130.83 2.03) rotate(90.43)"/>
          <path class="cls-10" d="m77.74,12.75h3.34c.74,0,1.35.6,1.35,1.35v23.4c0,.74-.6,1.35-1.35,1.35h-3.34c-.74,0-1.35-.6-1.35-1.35V14.1c0-.74.6-1.35,1.35-1.35Z" transform="translate(151.46 -16.41) rotate(131.64)"/>
          <path class="cls-10" d="m171.81,18.04l-.32-.37c-1-1.15-2.75-1.28-3.91-.28l-15.56,13.44c-1.15,1-1.28,2.75-.29,3.91l.32.37c1,1.15,2.75,1.28,3.91.29l15.56-13.44c1.15-1,1.28-2.75.29-3.91Z"/>
          <path class="cls-10" d="m165.52,66.9v-.49c.01-1.52,1.27-2.76,2.79-2.75l20.56.15c1.52.01,2.76,1.27,2.75,2.79v.49c-.01,1.52-1.27,2.76-2.79,2.75l-20.56-.15c-1.52-.01-2.76-1.27-2.75-2.79Z"/>
          <path class="cls-10" d="m122.31,26.1h-.49c-1.52-.01-2.76-1.27-2.75-2.79l.15-20.56c.01-1.52,1.27-2.76,2.79-2.75h.49c1.52.01,2.76,1.27,2.75,2.79l-.15,20.56c-.01,1.52-1.27,2.76-2.79,2.75Z"/>
          <g>
            <path class="cls-10" d="m158.38,75.08s.84-3.41.87-7.55c.14-20.03-16.52-36.39-37.22-36.54-20.7-.15-37.59,15.97-37.73,36.01-.03,4.03.76,7.57.76,7.57,1.74,7.34,5.53,10.32,10.35,18.71,1.4,2.44,3.36,6.15,5.25,11.01,13.65.1,27.3.19,40.94.29,1.51-4.2,3.13-7.33,4.21-9.25,5.4-9.57,10.38-12.11,12.56-20.24Z"/>
            <path class="cls-12" d="m127.51,105.62c-1.3,0-2.35-1.08-2.34-2.38l.16-23.15-7.67-.07-.16,23.16c0,1.3-1.08,2.35-2.38,2.34-1.3,0-2.35-1.08-2.34-2.38l.16-23.15h-.79c-1.11,0-2.05,0-2.75,0h-.24c-2.36-.02-4.28-.75-5.71-2.17-2.06-2.05-2.36-4.86-2.34-6.35.02-2.73.86-4.97,2.42-6.48,1.47-1.42,3.42-2.13,5.81-2.12h.33c6.3.16,8.05,3.86,8.09,5.8l-.05,6.62,7.67.06.04-5.97c.02-2.53,1.16-4.01,2.12-4.81,1.65-1.37,3.8-1.65,5.31-1.64.78,0,1.39.09,1.68.14,2.82.36,7.54,2.57,7.5,8.59-.04,6.12-5.11,8.23-7.78,8.49l-.18.02-4-.05-.16,23.13c0,1.3-1.08,2.35-2.38,2.34Zm-18.1-38c-1.18,0-2.06.25-2.61.78-.63.61-.97,1.69-.98,3.13,0,.47.06,2.08.95,2.97.51.51,1.35.78,2.41.79h.16c.72,0,1.7-.01,2.85-.01h.78s.05-6.5.05-6.5l-.21-.23c-.24-.26-1.04-.88-3.27-.94h-.14Zm23.43.08c-.61,0-1.73.06-2.3.54-.18.15-.41.43-.41,1.21l-.04,5.98,3.74.04h.11c2.08-.34,3.34-1.76,3.35-3.81.02-2.12-1.25-3.57-3.39-3.88-.32-.05-.69-.08-1.06-.08Z"/>
            <g>
              <path class="cls-5" d="m138.2,124.08l-33.48-.24c-2.51-.02-4.54-2.08-4.52-4.59v-.19c.02-2.51,2.08-4.54,4.59-4.52l33.48.24c2.51.02,4.54,2.08,4.52,4.59v.19c-.02,2.51-2.08,4.54-4.59,4.52Z"/>
              <path class="cls-5" d="m121.03,131.39c8.81.06,15.98-2.85,16-6.51l-31.92-.23c-.03,3.66,7.1,6.67,15.91,6.74Z"/>
              <path class="cls-5" d="m141.47,114.01l-40.06-.28c-2.76-.02-5-2.29-4.98-5.05h0c.02-2.76,2.29-5,5.05-4.98l40.07.28c2.76.02,5,2.29,4.98,5.05h0c-.02,2.76-2.29,5-5.05,4.98Z"/>
            </g>
            <path class="cls-12" d="m150.53,63.33c-1.1,0-2.07-.78-2.3-1.9-.61-3.09-2.42-9.02-7.6-14.03-6.56-6.35-14.49-7.34-17.6-7.48-1.3-.06-2.31-1.16-2.26-2.46.05-1.3,1.14-2.3,2.46-2.26,3.64.16,12.95,1.32,20.68,8.8,6.11,5.91,8.23,12.88,8.95,16.51.26,1.28-.58,2.52-1.86,2.78-.16.03-.32.05-.48.05Z"/>
            <path class="cls-12" d="m151.7,74.78c-.06,0-.12,0-.19,0-1.3-.11-2.26-1.25-2.15-2.55.15-1.75-.05-3.25-.05-3.27-.17-1.29.73-2.48,2.02-2.66,1.26-.18,2.48.72,2.66,2.01.01.08.27,2.01.08,4.31-.11,1.24-1.14,2.17-2.37,2.16Z"/>
          </g>
          <g class="cls-30">
            <path class="cls-4" d="m120.13,111.58l-17.67-.22c-1.47-.02-2.65-1.22-2.63-2.7h0c.02-1.47,1.23-2.65,2.7-2.63l17.67.22c1.47.02,2.65,1.23,2.63,2.7h0c-.02,1.47-1.23,2.65-2.7,2.63Z"/>
          </g>
          <g class="cls-30">
            <path class="cls-4" d="m118.65,121.94l-12.39-.15c-1.47-.02-2.65-1.23-2.63-2.7h0c.02-1.47,1.23-2.65,2.7-2.63l12.39.15c1.47.02,2.65,1.23,2.63,2.7h0c-.02,1.47-1.23,2.65-2.7,2.63Z"/>
          </g>
        </g>
      </g>
    </g>
  </g>
</svg>