<svg xmlns="http://www.w3.org/2000/svg" version="1.1" xmlns:xlink="http://www.w3.org/1999/xlink" xmlns:svgjs="http://svgjs.dev/svgjs" width="165.12" height="165.12"><svg id="SvgjsSvg1009" data-name="Layer 2" xmlns="http://www.w3.org/2000/svg" xmlns:xlink="http://www.w3.org/1999/xlink" viewBox="0 0 165.12 165.12">
  <defs>
    <style>
      .cls-1 {
        fill: #180b40;
        filter: url(#outer-glow-1);
        stroke: url(#linear-gradient);
        stroke-miterlimit: 10;
        stroke-width: 7px;
      }

      .cls-2 {
        fill: #00aeef;
        filter: url(#outer-glow-2);
        stroke-width: 0px;
      }
    </style>
    <linearGradient id="SvgjsLinearGradient1008" x1="31.4" y1="82.33" x2="136.42" y2="82.33" gradientTransform="translate(-1.06 -.09) rotate(.18)" gradientUnits="userSpaceOnUse">
      <stop offset="0" stop-color="#50c8ef"></stop>
      <stop offset="1" stop-color="#354ea2"></stop>
    </linearGradient>
    <filter id="SvgjsFilter1007" filterUnits="userSpaceOnUse">
      <feOffset dx="0" dy="0"></feOffset>
      <feGaussianBlur result="blur" stdDeviation="10"></feGaussianBlur>
      <feFlood flood-color="#5b8fcb" flood-opacity=".75"></feFlood>
      <feComposite in2="blur" operator="in"></feComposite>
      <feComposite in="SourceGraphic"></feComposite>
    </filter>
    <filter id="SvgjsFilter1006" filterUnits="userSpaceOnUse">
      <feOffset dx="0" dy="0"></feOffset>
      <feGaussianBlur result="blur-2" stdDeviation="8"></feGaussianBlur>
      <feFlood flood-color="#5b8fcb" flood-opacity=".75"></feFlood>
      <feComposite in2="blur-2" operator="in"></feComposite>
      <feComposite in="SourceGraphic"></feComposite>
    </filter>
  </defs>
  <g id="SvgjsG1005" data-name="Layer 1">
    <g>
      <path class="cls-1" d="m102.02,131.47l-38.9-.02c-.53,0-1.04-.21-1.41-.59l-27.49-27.52c-.37-.38-.59-.88-.58-1.41l.02-38.9c0-.53.21-1.04.59-1.41l27.52-27.49c.38-.37.88-.59,1.41-.58l38.9.02c.53,0,1.04.21,1.41.59l27.49,27.52c.37.38.59.88.58,1.41l-.02,38.9c0,.53-.21,1.04-.59,1.41l-27.52,27.49c-.38.37-.88.59-1.41.58Z"></path>
      <path class="cls-2" d="m93.51,110.67l-21.7.05c-.53,0-1.04-.21-1.42-.58l-15.38-15.3c-.38-.37-.59-.88-.59-1.41l-.05-21.7c0-.53.21-1.04.58-1.42l15.3-15.38c.37-.38.88-.59,1.41-.59l21.7-.05c.53,0,1.04.21,1.42.58l15.38,15.3c.38.37.59.88.59,1.41l.05,21.7c0,.53-.21,1.04-.58,1.42l-15.3,15.38c-.37.38-.88.59-1.41.59Z"></path>
    </g>
  </g>
</svg><style>@media (prefers-color-scheme: light) { :root { filter: none; } }
@media (prefers-color-scheme: dark) { :root { filter: none; } }
</style></svg>