<svg width="130" height="130" viewBox="0 0 130 130" fill="none" xmlns="http://www.w3.org/2000/svg">
<path d="M23.5625 99.9375L24.2531 98.9747L56.8344 37.1678L56.9034 36.5137L42.5425 9.53872C42.2796 9.04544 41.8682 8.64732 41.3666 8.40067C40.865 8.15402 40.2985 8.07135 39.7474 8.16433C39.1962 8.25732 38.6882 8.52126 38.2952 8.91882C37.9023 9.31638 37.6443 9.82743 37.5578 10.3797L23.5625 99.9375Z" fill="#FFC24A"/>
<path d="M23.9688 99.2063L24.4887 98.1906L56.7328 37.0256L42.4084 9.94501C42.1722 9.47406 41.7898 9.09232 41.3184 8.85699C40.847 8.62166 40.312 8.54541 39.7936 8.63966C39.2752 8.73391 38.8014 8.99359 38.443 9.37979C38.0846 9.76599 37.861 10.2579 37.8056 10.7819L23.9688 99.2063Z" fill="#FFA712"/>
<path d="M67.3725 56.9156L78.065 45.9469L67.3684 25.549C67.133 25.1101 66.7829 24.7431 66.3555 24.4873C65.9281 24.2315 65.4392 24.0964 64.9411 24.0964C64.443 24.0964 63.9541 24.2315 63.5267 24.4873C63.0993 24.7431 62.7492 25.1101 62.5137 25.549L56.7978 36.4447V37.375L67.3725 56.9156Z" fill="#F4BD62"/>
<path d="M67.1816 56.4688L77.5775 45.8251L67.1816 26.0001C67.0114 25.571 66.7208 25.2002 66.3446 24.9326C65.9685 24.6649 65.523 24.5117 65.0618 24.4915C64.6006 24.4714 64.1435 24.585 63.7454 24.8188C63.3474 25.0526 63.0254 25.3965 62.8184 25.8092L57.0741 36.8957L56.9034 37.4604L67.1816 56.4688Z" fill="#FFA50E"/>
<path d="M23.5706 99.9416L23.8834 99.6247L25.0169 99.1657L66.6981 57.6388L67.2263 56.2007L56.8303 36.3838L23.5706 99.9416Z" fill="#F6820C"/>
<path d="M68.705 120.884L106.438 99.8441L95.6556 33.4994C95.5783 33.0317 95.3737 32.5944 95.0641 32.2354C94.7546 31.8764 94.3521 31.6096 93.9008 31.4644C93.4496 31.3192 92.967 31.3011 92.5062 31.4121C92.0454 31.5231 91.624 31.759 91.2884 32.0938L23.5625 99.9376L61.0716 120.88C62.2377 121.53 63.5509 121.872 64.8862 121.872C66.2216 121.872 67.5348 121.53 68.7009 120.88" fill="#FDE068"/>
<path d="M106.092 99.6694L95.3997 33.8244C95.3808 33.377 95.2296 32.9454 94.9653 32.584C94.701 32.2226 94.3354 31.9477 93.9148 31.7942C93.4943 31.6406 93.0376 31.6153 92.6026 31.7215C92.1676 31.8276 91.7739 32.0603 91.4713 32.3903L23.9688 99.8116L61.0634 120.53C62.2203 121.176 63.523 121.514 64.8477 121.514C66.1723 121.514 67.475 121.176 68.6319 120.53L106.092 99.6694Z" fill="#FCCA3F"/>
<path d="M68.705 120.25C67.5389 120.901 66.2257 121.242 64.8903 121.242C63.5549 121.242 62.2417 120.901 61.0756 120.25L23.8712 99.6207L23.5625 99.9376L61.0716 120.88C62.2377 121.53 63.5509 121.872 64.8862 121.872C66.2216 121.872 67.5348 121.53 68.7009 120.88L106.438 99.8441L106.344 99.2754L68.705 120.25Z" fill="#EEAB37"/>
</svg>
