<?xml version="1.0" encoding="UTF-8"?>
<svg id="Layer_2" data-name="Layer 2" xmlns="http://www.w3.org/2000/svg" xmlns:xlink="http://www.w3.org/1999/xlink" viewBox="0 0 446.61 258.75">
  <defs>
    <style>
      .cls-1 {
        fill: url(#_Áåçûìÿííûé_ãðàäèåíò_254);
      }

      .cls-1, .cls-2, .cls-3, .cls-4, .cls-5, .cls-6, .cls-7, .cls-8, .cls-9, .cls-10, .cls-11, .cls-12, .cls-13, .cls-14, .cls-15, .cls-16, .cls-17, .cls-18, .cls-19, .cls-20, .cls-21, .cls-22, .cls-23, .cls-24, .cls-25, .cls-26, .cls-27, .cls-28, .cls-29, .cls-30, .cls-31, .cls-32, .cls-33, .cls-34, .cls-35, .cls-36, .cls-37, .cls-38, .cls-39, .cls-40, .cls-41, .cls-42, .cls-43, .cls-44, .cls-45 {
        stroke-width: 0px;
      }

      .cls-2 {
        fill: url(#_Áåçûìÿííûé_ãðàäèåíò_254-2);
      }

      .cls-3 {
        fill: url(#_Áåçûìÿííûé_ãðàäèåíò_254-11);
      }

      .cls-3, .cls-46, .cls-14, .cls-19, .cls-21, .cls-23, .cls-29, .cls-32, .cls-33, .cls-37, .cls-38 {
        opacity: .48;
      }

      .cls-4 {
        fill: #fcd1c5;
      }

      .cls-5 {
        fill: url(#_Áåçûìÿííûé_ãðàäèåíò_12-2);
      }

      .cls-6 {
        fill: #453c9e;
      }

      .cls-7 {
        fill: url(#_Áåçûìÿííûé_ãðàäèåíò_4-4);
      }

      .cls-8 {
        fill: url(#_Áåçûìÿííûé_ãðàäèåíò_254-4);
      }

      .cls-9 {
        fill: url(#_Áåçûìÿííûé_ãðàäèåíò_4-3);
      }

      .cls-10 {
        fill: #aa8383;
      }

      .cls-11 {
        fill: url(#_Áåçûìÿííûé_ãðàäèåíò_254-3);
      }

      .cls-12 {
        fill: #c4ccd6;
      }

      .cls-13 {
        fill: url(#_Áåçûìÿííûé_ãðàäèåíò_44);
      }

      .cls-14 {
        fill: url(#_Áåçûìÿííûé_ãðàäèåíò_254-9);
      }

      .cls-15 {
        fill: url(#_Áåçûìÿííûé_ãðàäèåíò_254-15);
      }

      .cls-16 {
        fill: url(#_Áåçûìÿííûé_ãðàäèåíò_12-4);
      }

      .cls-17 {
        fill: #160a5b;
      }

      .cls-18 {
        fill: #24126a;
      }

      .cls-19 {
        fill: url(#_Áåçûìÿííûé_ãðàäèåíò_254-14);
      }

      .cls-20 {
        fill: url(#_Áåçûìÿííûé_ãðàäèåíò_254-18);
      }

      .cls-21 {
        fill: url(#_Áåçûìÿííûé_ãðàäèåíò_254-10);
      }

      .cls-22 {
        fill: url(#_Áåçûìÿííûé_ãðàäèåíò_254-17);
      }

      .cls-23 {
        fill: url(#_Áåçûìÿííûé_ãðàäèåíò_254-12);
      }

      .cls-24 {
        fill: url(#_Áåçûìÿííûé_ãðàäèåíò_12-5);
      }

      .cls-25 {
        fill: #722318;
      }

      .cls-26 {
        fill: url(#_Áåçûìÿííûé_ãðàäèåíò_12-3);
      }

      .cls-27 {
        fill: url(#_Áåçûìÿííûé_ãðàäèåíò_12);
      }

      .cls-28 {
        fill: url(#_Áåçûìÿííûé_ãðàäèåíò_4);
      }

      .cls-29 {
        fill: url(#_Áåçûìÿííûé_ãðàäèåíò_254-8);
      }

      .cls-30 {
        fill: url(#_Áåçûìÿííûé_ãðàäèåíò_254-16);
      }

      .cls-31 {
        fill: url(#_Áåçûìÿííûé_ãðàäèåíò_17);
      }

      .cls-32 {
        fill: url(#_Áåçûìÿííûé_ãðàäèåíò_254-7);
      }

      .cls-33 {
        fill: url(#_Áåçûìÿííûé_ãðàäèåíò_254-6);
      }

      .cls-34 {
        fill: url(#_Áåçûìÿííûé_ãðàäèåíò_12-6);
      }

      .cls-35 {
        fill: #f0f6ff;
      }

      .cls-36 {
        fill: #5351af;
      }

      .cls-37 {
        fill: url(#_Áåçûìÿííûé_ãðàäèåíò_254-13);
      }

      .cls-38 {
        fill: url(#_Áåçûìÿííûé_ãðàäèåíò_254-5);
      }

      .cls-39 {
        fill: #e2b1a6;
      }

      .cls-40 {
        fill: #936d6d;
      }

      .cls-41 {
        fill: url(#_Áåçûìÿííûé_ãðàäèåíò_27);
      }

      .cls-42 {
        fill: #4846a5;
      }

      .cls-43 {
        fill: #42e8e0;
      }

      .cls-44 {
        fill: url(#_Áåçûìÿííûé_ãðàäèåíò_4-2);
      }

      .cls-45 {
        fill: #fff;
        opacity: .3;
      }
    </style>
    <linearGradient id="_Áåçûìÿííûé_ãðàäèåíò_254" data-name="Áåçûìÿííûé ãðàäèåíò 254" x1="426.74" y1="107.53" x2="446.61" y2="107.53" gradientUnits="userSpaceOnUse">
      <stop offset="0" stop-color="#42e8e0"/>
      <stop offset=".15" stop-color="#42e3df"/>
      <stop offset=".33" stop-color="#44d4de"/>
      <stop offset=".52" stop-color="#48bddd"/>
      <stop offset=".72" stop-color="#4d9bda"/>
      <stop offset=".93" stop-color="#5471d8"/>
      <stop offset="1" stop-color="#5761d7"/>
    </linearGradient>
    <linearGradient id="_Áåçûìÿííûé_ãðàäèåíò_254-2" data-name="Áåçûìÿííûé ãðàäèåíò 254" x1="256.21" y1="40" x2="379.98" y2="40" xlink:href="#_Áåçûìÿííûé_ãðàäèåíò_254"/>
    <linearGradient id="_Áåçûìÿííûé_ãðàäèåíò_254-3" data-name="Áåçûìÿííûé ãðàäèåíò 254" x1="53.5" y1="44.21" x2="170.43" y2="44.21" xlink:href="#_Áåçûìÿííûé_ãðàäèåíò_254"/>
    <linearGradient id="_Áåçûìÿííûé_ãðàäèåíò_254-4" data-name="Áåçûìÿííûé ãðàäèåíò 254" x1="0" y1="111.86" x2="12.53" y2="111.86" xlink:href="#_Áåçûìÿííûé_ãðàäèåíò_254"/>
    <linearGradient id="_Áåçûìÿííûé_ãðàäèåíò_12" data-name="Áåçûìÿííûé ãðàäèåíò 12" x1="316.62" y1="114.63" x2="369.49" y2="127.89" gradientUnits="userSpaceOnUse">
      <stop offset="0" stop-color="#42e8e0"/>
      <stop offset="0" stop-color="#41e6df"/>
      <stop offset=".14" stop-color="#3fb6ca"/>
      <stop offset=".27" stop-color="#3d8cb8"/>
      <stop offset=".41" stop-color="#3b6baa"/>
      <stop offset=".55" stop-color="#3a519f"/>
      <stop offset=".69" stop-color="#393e97"/>
      <stop offset=".84" stop-color="#393392"/>
      <stop offset="1" stop-color="#393091"/>
    </linearGradient>
    <linearGradient id="_Áåçûìÿííûé_ãðàäèåíò_12-2" data-name="Áåçûìÿííûé ãðàäèåíò 12" x1="-849" y1="75.4" x2="-896.38" y2="67.68" gradientTransform="translate(-533.86) rotate(-180) scale(1 -1)" xlink:href="#_Áåçûìÿííûé_ãðàäèåíò_12"/>
    <linearGradient id="_Áåçûìÿííûé_ãðàäèåíò_4" data-name="Áåçûìÿííûé ãðàäèåíò 4" x1="1191.44" y1="76.27" x2="1203.6" y2="76.27" gradientTransform="translate(-858.26 -49.36) rotate(3.32)" gradientUnits="userSpaceOnUse">
      <stop offset="0" stop-color="#5761d7"/>
      <stop offset=".07" stop-color="#5471d8"/>
      <stop offset=".28" stop-color="#4d9bda"/>
      <stop offset=".48" stop-color="#48bddd"/>
      <stop offset=".67" stop-color="#44d4de"/>
      <stop offset=".85" stop-color="#42e3df"/>
      <stop offset="1" stop-color="#42e8e0"/>
    </linearGradient>
    <linearGradient id="_Áåçûìÿííûé_ãðàäèåíò_12-3" data-name="Áåçûìÿííûé ãðàäèåíò 12" x1="-846.3" y1="71.01" x2="-869.15" y2="59.91" gradientTransform="translate(-533.86) rotate(-180) scale(1 -1)" xlink:href="#_Áåçûìÿííûé_ãðàäèåíò_12"/>
    <linearGradient id="_Áåçûìÿííûé_ãðàäèåíò_12-4" data-name="Áåçûìÿííûé ãðàäèåíò 12" x1="-859.39" y1="81.09" x2="-899.62" y2="65.15" gradientTransform="translate(-533.86) rotate(-180) scale(1 -1)" xlink:href="#_Áåçûìÿííûé_ãðàäèåíò_12"/>
    <linearGradient id="_Áåçûìÿííûé_ãðàäèåíò_17" data-name="Áåçûìÿííûé ãðàäèåíò 17" x1="155.47" y1="38.24" x2="269.39" y2="191.02" gradientUnits="userSpaceOnUse">
      <stop offset="0" stop-color="#bcbeff"/>
      <stop offset=".48" stop-color="#5761d7"/>
      <stop offset=".58" stop-color="#5b65d8"/>
      <stop offset=".68" stop-color="#6a72de"/>
      <stop offset=".8" stop-color="#8188e8"/>
      <stop offset=".92" stop-color="#a2a6f5"/>
      <stop offset="1" stop-color="#bcbeff"/>
    </linearGradient>
    <linearGradient id="_Áåçûìÿííûé_ãðàäèåíò_27" data-name="Áåçûìÿííûé ãðàäèåíò 27" x1="-311.11" y1="1455.08" x2="-203.61" y2="1523.16" gradientTransform="translate(384.74 -1451.92) rotate(30) skewX(30)" gradientUnits="userSpaceOnUse">
      <stop offset="0" stop-color="#5761d7"/>
      <stop offset="1" stop-color="#5761d7"/>
    </linearGradient>
    <linearGradient id="_Áåçûìÿííûé_ãðàäèåíò_254-5" data-name="Áåçûìÿííûé ãðàäèåíò 254" x1="149.1" y1="86.75" x2="251.15" y2="86.75" xlink:href="#_Áåçûìÿííûé_ãðàäèåíò_254"/>
    <linearGradient id="_Áåçûìÿííûé_ãðàäèåíò_254-6" data-name="Áåçûìÿííûé ãðàäèåíò 254" x1="154.87" y1="90.97" x2="260.38" y2="90.97" xlink:href="#_Áåçûìÿííûé_ãðàäèåíò_254"/>
    <linearGradient id="_Áåçûìÿííûé_ãðàäèåíò_254-7" data-name="Áåçûìÿííûé ãðàäèåíò 254" x1="155.76" y1="96.86" x2="274.21" y2="96.86" xlink:href="#_Áåçûìÿííûé_ãðàäèåíò_254"/>
    <linearGradient id="_Áåçûìÿííûé_ãðàäèåíò_254-8" data-name="Áåçûìÿííûé ãðàäèåíò 254" x1="156.65" y1="104.19" x2="287.15" y2="104.19" xlink:href="#_Áåçûìÿííûé_ãðàäèåíò_254"/>
    <linearGradient id="_Áåçûìÿííûé_ãðàäèåíò_254-9" data-name="Áåçûìÿííûé ãðàäèåíò 254" x1="157.51" y1="112.65" x2="298.68" y2="112.65" xlink:href="#_Áåçûìÿííûé_ãðàäèåíò_254"/>
    <linearGradient id="_Áåçûìÿííûé_ãðàäèåíò_254-10" data-name="Áåçûìÿííûé ãðàäèåíò 254" x1="158.29" y1="121.89" x2="308.3" y2="121.89" xlink:href="#_Áåçûìÿííûé_ãðàäèåíò_254"/>
    <linearGradient id="_Áåçûìÿííûé_ãðàäèåíò_254-11" data-name="Áåçûìÿííûé ãðàäèåíò 254" x1="158.97" y1="131.53" x2="315.62" y2="131.53" xlink:href="#_Áåçûìÿííûé_ãðàäèåíò_254"/>
    <linearGradient id="_Áåçûìÿííûé_ãðàäèåíò_254-12" data-name="Áåçûìÿííûé ãðàäèåíò 254" x1="159.52" y1="141.15" x2="320.33" y2="141.15" xlink:href="#_Áåçûìÿííûé_ãðàäèåíò_254"/>
    <linearGradient id="_Áåçûìÿííûé_ãðàäèåíò_254-13" data-name="Áåçûìÿííûé ãðàäèåíò 254" x1="159.91" y1="150.37" x2="322.25" y2="150.37" xlink:href="#_Áåçûìÿííûé_ãðàäèåíò_254"/>
    <linearGradient id="_Áåçûìÿííûé_ãðàäèåíò_254-14" data-name="Áåçûìÿííûé ãðàäèåíò 254" x1="135.23" y1="84.38" x2="250.37" y2="84.38" xlink:href="#_Áåçûìÿííûé_ãðàäèåíò_254"/>
    <linearGradient id="_Áåçûìÿííûé_ãðàäèåíò_12-5" data-name="Áåçûìÿííûé ãðàäèåíò 12" x1="129.33" y1="192.12" x2="83.31" y2="210.85" xlink:href="#_Áåçûìÿííûé_ãðàäèåíò_12"/>
    <linearGradient id="_Áåçûìÿííûé_ãðàäèåíò_12-6" data-name="Áåçûìÿííûé ãðàäèåíò 12" x1="125.84" y1="129.58" x2="76.61" y2="139.93" xlink:href="#_Áåçûìÿííûé_ãðàäèåíò_12"/>
    <linearGradient id="_Áåçûìÿííûé_ãðàäèåíò_4-2" data-name="Áåçûìÿííûé ãðàäèåíò 4" x1="-1167.22" y1="14.51" x2="-1165.15" y2="14.51" gradientTransform="translate(-1071.1 -23.22) rotate(-174.99) scale(1 -1)" xlink:href="#_Áåçûìÿííûé_ãðàäèåíò_4"/>
    <linearGradient id="_Áåçûìÿííûé_ãðàäèåíò_44" data-name="Áåçûìÿííûé ãðàäèåíò 44" x1="160.83" y1="186.87" x2="113.82" y2="207.79" gradientUnits="userSpaceOnUse">
      <stop offset="0" stop-color="#42e8e0"/>
      <stop offset=".11" stop-color="#40c1cf"/>
      <stop offset=".25" stop-color="#3d91ba"/>
      <stop offset=".4" stop-color="#3c6baa"/>
      <stop offset=".53" stop-color="#3b519f"/>
      <stop offset=".64" stop-color="#3a4098"/>
      <stop offset=".73" stop-color="#3a3b96"/>
      <stop offset=".84" stop-color="#393392"/>
      <stop offset="1" stop-color="#393091"/>
    </linearGradient>
    <linearGradient id="_Áåçûìÿííûé_ãðàäèåíò_4-3" data-name="Áåçûìÿííûé ãðàäèåíò 4" x1="-1201" y1="110.99" x2="-1197.36" y2="110.99" gradientTransform="translate(-1071.1 -23.22) rotate(-174.99) scale(1 -1)" xlink:href="#_Áåçûìÿííûé_ãðàäèåíò_4"/>
    <linearGradient id="_Áåçûìÿííûé_ãðàäèåíò_4-4" data-name="Áåçûìÿííûé ãðàäèåíò 4" x1="-1207.88" y1="104.09" x2="-1204.25" y2="104.09" gradientTransform="translate(-1071.1 -23.22) rotate(-174.99) scale(1 -1)" xlink:href="#_Áåçûìÿííûé_ãðàäèåíò_4"/>
    <linearGradient id="_Áåçûìÿííûé_ãðàäèåíò_254-15" data-name="Áåçûìÿííûé ãðàäèåíò 254" x1="0" y1="145.29" x2="10.7" y2="145.29" xlink:href="#_Áåçûìÿííûé_ãðàäèåíò_254"/>
    <linearGradient id="_Áåçûìÿííûé_ãðàäèåíò_254-16" data-name="Áåçûìÿííûé ãðàäèåíò 254" x1="49.8" y1="212.8" x2="164.9" y2="212.8" xlink:href="#_Áåçûìÿííûé_ãðàäèåíò_254"/>
    <linearGradient id="_Áåçûìÿííûé_ãðàäèåíò_254-17" data-name="Áåçûìÿííûé ãðàäèåíò 254" x1="250.59" y1="219.51" x2="375.81" y2="219.51" xlink:href="#_Áåçûìÿííûé_ãðàäèåíò_254"/>
    <linearGradient id="_Áåçûìÿííûé_ãðàäèåíò_254-18" data-name="Áåçûìÿííûé ãðàäèåíò 254" x1="424.29" y1="152.98" x2="446.57" y2="152.98" xlink:href="#_Áåçûìÿííûé_ãðàäèåíò_254"/>
  </defs>
  <g id="_Ñëîé_1" data-name="Ñëîé 1">
    <g>
      <g>
        <g class="cls-46">
          <path class="cls-1" d="m426.74,111.4c12.77,13.2,19.87,27.85,19.87,43.25v-50.99c0-15.4-7.1-30.05-19.87-43.25v50.99h0Z"/>
          <path class="cls-2" d="m256.21,0c47.98,3.33,90.89,13.8,123.77,29v50.99c-32.88-15.21-75.79-25.68-123.77-29V0s0,0,0,0Z"/>
          <path class="cls-11" d="m53.5,35.62C83.51,19.13,124.2,7.09,170.43,1.82v50.99c-46.23,5.27-86.92,17.31-116.94,33.79v-50.99s0,0,0,0Z"/>
          <path class="cls-8" d="m0,154.73c0-.62.01-1.24.03-1.87.43-11.52,4.8-22.57,12.49-32.88v-50.99C4.83,79.3.46,90.35.03,101.87c-.02.62-.03,1.25-.03,1.87v50.99h0Z"/>
        </g>
        <g>
          <path class="cls-17" d="m341.35,146.32s-.7.73-1.44,1.6-2.79,2.07-3.65,2.61c-.86.54-4.82,3.54-5.65,6.49s2,3.34,4.89,2.83c2.89-.51,5.59-3.18,6.38-4.14.79-.96,3.52-3.15,7.07-4.99,3.55-1.84,1.4-4.31,1.4-4.31l-9.02-.09Z"/>
          <path class="cls-17" d="m367.7,155.09s.59,1.33.75,3.04.41,5.41.49,6.49c.09,1.08.12,3.73-1.78,6.27-1.91,2.54-2.89,3.54-5.43,2.54-2.53-1-2.48-5.25-2.03-7.44.45-2.19.86-7.08.82-7.6s.15-.84.15-.84l7.03-2.47Z"/>
          <path class="cls-18" d="m332.6,96.14s.53,19.5,5.08,29.86c0,0,3.25,9.12,3.69,19.96,0,0-.75,1.87.31,3.39s7.74,2.91,8.84-2.08c1.1-4.99.68-14.32-.53-18.21-1.21-3.89.43-14.62.43-14.62,0,0,1.82,1.17,4.21,8.87,2.39,7.71,4.15,10.65,4.97,12.77.82,2.13,1.58,15.19,1.06,21.56,0,0,5.4.77,6.97-1.82,1.56-2.58,2.08-15.95,1.69-20.21-.4-4.26-2.18-17.91-1.93-22.13.24-4.22,1.12-7.65.16-11.87-.97-4.22-29.48-13.59-29.48-13.59l-5.46,8.11Z"/>
          <path class="cls-27" d="m332.6,96.14s.53,19.5,5.08,29.86c0,0,3.25,9.12,3.69,19.96,0,0-.75,1.87.31,3.39s7.74,2.91,8.84-2.08c1.1-4.99.68-14.32-.53-18.21-1.21-3.89.43-14.62.43-14.62,0,0,1.82,1.17,4.21,8.87,2.39,7.71,4.15,10.65,4.97,12.77.82,2.13,1.58,15.19,1.06,21.56,0,0,5.4.77,6.97-1.82,1.56-2.58,2.08-15.95,1.69-20.21-.4-4.26-2.18-17.91-1.93-22.13.24-4.22,1.12-7.65.16-11.87-.97-4.22-29.48-13.59-29.48-13.59l-5.46,8.11Z"/>
          <path class="cls-17" d="m367.39,113.49c.24-4.22,1.12-7.65.16-11.87-.36-1.59-4.62-3.9-9.79-6.17-8.73-.8-19.79-1.72-20.56-1.61-.69.11-2.49.79-3.99,1.39l-.61.9s.03,1.19.15,3.12c2.04.61,5.95-.02,5.95-.02.55,1.37,3.95,6.23,8.18,8.33,4.23,2.1,16.61,1.38,17.32,2.18s.85,11.48.77,12.83,1.17,9.9,2.32,17.46c1.13,7.44-.59,16.47-.65,16.76.4-.26.75-.57.99-.98,1.56-2.58,2.08-15.95,1.69-20.21-.4-4.26-2.18-17.91-1.93-22.13Z"/>
          <path class="cls-5" d="m342.15,32.35s-6.33,1.44-8.45,1.94c-.35.08-.64.33-.77.67-.61,1.56-2.16,6.39-.99,13.44,1.43,8.67.97,14.51.97,14.51l-2.93,15.23s-3.68,14.5-3.36,14.9c.32.4,8.47,6.6,11.02,5.73,2.55-.87,1.71-2.32,1.71-2.32,0,0,2.06,10.51,11.2,10.41,9.14-.1,16.6-.07,18.15-3.77,1.55-3.69-.42-19.22-2.04-25.37-1.61-6.15-5.44-18.4-5.44-18.4l13.38-14.81-11.44-8.73s-2.73-5.08-3.86-5.72c-1.12-.65-1.71-.1-1.71-.1l-15.45,2.38Z"/>
          <path class="cls-28" d="m337.79,95.43c0,.53-.3,1.31-1.94,1.88-1.77.61-6.12-2.03-8.97-4.02,1.42,1.18,8.43,6.29,10.76,5.49.51-.17.87-.37,1.15-.57-.52-1.17-.83-2.18-.99-2.78Z"/>
          <path class="cls-35" d="m359.06,29.94s2.34,2.83-1.03,6.64c-2.07,2.35-5.63,7.41-8.66,12.67-1.89,3.28-3.65,5.04-4.64,7.86,0,0-.14-3.35-.27-8.53-.13-4.89-.19-9.96.03-11.24.45-2.63,11.99-8.68,14.57-7.4Z"/>
          <path class="cls-4" d="m350.32,38.44s-1.2.74-1.61.68c-.41-.06-1.74-1.35-1.74-1.35,0,0-3.32-.06-3.68-1.48s-.6-2.85-.94-3.59c-.34-.74-1.77-4.28-1.78-5.72s.04-4.01-.58-5.37-1.46-14.97,11.69-14.59c13.14.38,9.06,14.03,9.06,14.03,0,0,.96.41.38,2.17-.58,1.76-.71,1.94-1.01,2.81s-.44,1.43-1.28,2.14l-.22,1.62s.62,2.47-1.01,4.87c-1.63,2.4-7.29,3.78-7.29,3.78Z"/>
          <path class="cls-18" d="m333.33,34.45s-1.4.21-5.95,11.65c-2.54,6.38-6.45,12.99-7.28,17.74-.83,4.74-.37,9.82.57,10.17.9.34,17.24,6.46,22.36,8.39.28.11.59-.07.64-.37l1.41-7.89-10.14-3.92s-1.93-2.36-3.75-3.25c0,0,2.03-3.75,1.9-4.77-.13-1.02.18-11.6-1.01-15.91-1.19-4.31,1.24-11.85,1.24-11.85Z"/>
          <path class="cls-26" d="m333.33,34.45s-1.4.21-5.95,11.65c-2.54,6.38-6.45,12.99-7.28,17.74-.83,4.74-.37,9.82.57,10.17.9.34,17.24,6.46,22.36,8.39.28.11.59-.07.64-.37l1.41-7.89-10.14-3.92s-1.93-2.36-3.75-3.25c0,0,2.03-3.75,1.9-4.77-.13-1.02.18-11.6-1.01-15.91-1.19-4.31,1.24-11.85,1.24-11.85Z"/>
          <path class="cls-4" d="m339.27,64.68s-1.4-.94-1.74-1.07c-.35-.13-2.21-.77-2.57-.93-.26-.12-1.35-.03-1.9.03-.2.02-.37.13-.46.31-.43.8-1.63,3.13-1.5,4.02,0,0,3.38,2.13,3.75,3.08l.54.12s2.26-4.85,3.88-5.55Z"/>
          <path class="cls-18" d="m366.66,77.74c-.39-1.48-.9-3.31-1.46-5.24l-20.53,8.8s6.15,7.56,16.92,7.07c2.95-.13,5.09-1.2,6.67-2.11-.47-3.36-1.05-6.47-1.59-8.52Z"/>
          <path class="cls-18" d="m374.6,44.52s-5.42.75-9.79,7.68c-4.37,6.93-7.56,14.96-7.56,14.96l-.15.9c-.39,2.36-2.91,3.71-5.09,2.74-4.62-2.06-11.46-5.18-12.74-6.12,0,0-4.09,2.26-5.21,7.61-.89,4.26-.66,4.27-.66,4.27,0,0,18.23,8.51,25.28,8.43,7.04-.08,15.98-23.24,16.96-28.02.98-4.79,2.07-11.09-1.03-12.44Z"/>
          <path class="cls-16" d="m374.6,44.52s-5.42.75-9.79,7.68c-4.37,6.93-7.56,14.96-7.56,14.96l-.15.9c-.39,2.36-2.91,3.71-5.09,2.74-4.62-2.06-11.46-5.18-12.74-6.12,0,0-4.09,2.26-5.21,7.61-.89,4.26-.66,4.27-.66,4.27,0,0,18.23,8.51,25.28,8.43,7.04-.08,15.98-23.24,16.96-28.02.98-4.79,2.07-11.09-1.03-12.44Z"/>
          <path class="cls-6" d="m354.62,71.88s2.3,2.15,3.3.97c1-1.18.71-1.31.71-1.31,0,0,2.07-.02,2.32-1.32.25-1.3,1.27-.61,1.33-2.06s-1.67-1.15-1.67-1.15l-5.98,4.86Z"/>
          <path class="cls-4" d="m351.85,70.73s.63-.59,1.45-1.28c.82-.69,2.14-3.55,2.36-3.8.22-.25,2.97-2.36,4.3-2.4,1.33-.04.34,1.45.04,1.66s-1.6.85-1.6.85c0,0-1.33,1.12-1.48,1.28-.15.16,3.7-.27,4.32.11.61.38.47,1.36.04,1.63-.43.27-.76.26-.76.26,0,0,.43,1.16-.72,1.7-1.16.54-1.42.24-1.42.24,0,0-.1,2-2.01,1.61l-4.5-1.86Z"/>
          <path class="cls-10" d="m339.71,14.66s-1.72,5.46,2.8,3.91c4.52-1.55,8.6-4.15,10.02-3.16,1.08.75,1.03,3.07.94,4.13-.03.36.07.72.27,1.02l1.34,1.95c.15.22.24.48.26.74l.1,1.35c.02.34.3.61.64.63l.31.02c.34.02.65-.22.71-.56l.35-1.99s1.06-2.68,3.31-1.62c0,0,1.5-2.02,1-6.34-.5-4.32-2.43-8.81-10.9-9.52-8.47-.72-11.14,9.46-11.14,9.46Z"/>
          <path class="cls-12" d="m352.66,43.25l-1.27-.98s-1.17.97-1.63,2.01c-.46,1.03,0,4.32,0,4.32l-.39.66-.48-.87-.4-3.88s.43-2.87.47-2.94,2.44.26,2.44.26c0,0,.83.63,1.24,1.43Z"/>
          <path class="cls-12" d="m346.56,39.39s-1.35.09-1.96.6c0,0,1.42.07,1.65.1.23.03.32-.69.32-.69Z"/>
          <path class="cls-18" d="m349.14,39.69l2.27,2.12s-2,.92-2.55,2.7c0,0-2.47.46-2.7-.43-.23-.9,0-3.15-.29-4.15-.29-1,3.27-.24,3.27-.24Z"/>
          <path class="cls-18" d="m346.25,44.03s-.42,1.86-.88,2.63c-.46.77-.93,1.63-.93,1.63l.06,10.91s4.01-8.27,4.88-9.94c0,0-.13-3.98-.51-4.74-.38-.75-2.61-.49-2.61-.49Z"/>
          <path class="cls-39" d="m357.03,27.92c-2.64,7.6-10.05,9.86-10.05,9.86,0,0,1.33,1.29,1.74,1.35.41.06,1.61-.68,1.61-.68,0,0,5.66-1.37,7.29-3.78,1.63-2.4,1.01-4.87,1.01-4.87l.22-1.62c-1.18.39-1.82-.26-1.82-.26Z"/>
          <path class="cls-18" d="m363.06,36.82s-1.04,3.59-1.17,3.72c-.13.14-2.61-.15-2.61-.15l1.2,2.28s-12.48,13.38-15.07,20.58c0,0,5.91-9.12,16.3-20.02l-1.47-2.23,2.55.5.27-4.69Z"/>
          <path class="cls-18" d="m342.56,33.65l-.66.76.78.73-2.31,2.09s-.71,14.64,2.11,24.34c0,0-3.83-8.9-2.96-24.74l2.5-1.69-.82-.8,1.36-.67Z"/>
          <path class="cls-17" d="m350.42,114.44s.03.02.09.07l-3.23-3.44c1.49,2.1-.23,11.74-.41,13.95-.18,2.21,1.73,6.76,2.44,12.1.71,5.33-.75,12.94-.75,12.96.92-.54,1.66-1.43,1.97-2.81,1.1-4.99.68-14.32-.53-18.21-1.21-3.89.43-14.62.43-14.62Z"/>
          <path class="cls-40" d="m356.39,25.23c.34.02.65-.22.71-.56l.35-1.99s1.06-2.68,3.31-1.62c0,0,1.42-1.92,1.03-6-2.5,3.75-8.04,5.48-8.04,5.48l1.34,1.95c.15.22.24.48.26.74l.1,1.35c.02.34.3.61.64.63l.31.02Z"/>
        </g>
        <g>
          <path class="cls-45" d="m224.59,200.95l98.92-57.11c-.02-.25-.16-.53-.35-.72l-99.28,57.32.71.51Z"/>
          <path class="cls-45" d="m220.4,11.56l-98.41,56.82.71.51L221.01,12.13c-.13-.3-.38-.53-.6-.57Z"/>
          <g>
            <path class="cls-31" d="m323,142.99l-66.09-38.16s-.06-.02-.08-.03v-.02s-6.8-7.22-6.8-7.22l-28.97-85.32c-.13-.37-.44-.68-.7-.68l-1.38-.02c-.06,0-.11.02-.15.04h0s-97.12,56.1-97.12,56.1l30.85,86.66,5.75,7.03,13.89,8.4,42.8,24.36,11.26,7.99,97.13-56.11h0s0,0,0,0c.09-.06.15-.17.15-.34v-1.78c0-.33-.23-.74-.52-.91Z"/>
            <path class="cls-41" d="m225.86,199.1l-66.09-38.16s-.06-.02-.08-.03v-.02s-6.8-7.22-6.8-7.22l-28.97-85.32c-.13-.37-.44-.68-.7-.68l-1.38-.02c-.26,0-.37.3-.24.67l28.97,85.32c.13.37.44.68.7.68l.33.36c-.01.27.12.63.36.88l6.26,6.82c.24.26.51.34.68.24l.36.39c0,.33.23.74.52.91l66.09,38.16c.29.17.52.03.52-.3v-1.78c0-.33-.23-.74-.52-.91Z"/>
            <polygon class="cls-36" points="159.77 160.94 256.82 104.8 250.02 97.56 152.88 153.67 159.77 160.94"/>
          </g>
          <polygon class="cls-38" points="154.01 153.76 149.1 75.85 246.23 19.73 251.15 97.65 154.01 153.76"/>
          <polygon class="cls-33" points="154.87 153.94 163.24 84.1 260.38 27.99 252 97.83 154.87 153.94"/>
          <polygon class="cls-32" points="155.76 154.35 177.07 95.49 274.21 39.38 252.9 98.23 155.76 154.35"/>
          <polygon class="cls-29" points="156.65 154.96 190.02 109.54 287.15 53.42 253.79 98.85 156.65 154.96"/>
          <polygon class="cls-14" points="157.51 155.77 201.54 125.66 298.68 69.54 254.64 99.65 157.51 155.77"/>
          <polygon class="cls-21" points="255.43 100.61 308.3 87.06 211.16 143.18 158.29 156.72 255.43 100.61"/>
          <polygon class="cls-3" points="256.11 101.68 315.62 105.26 218.48 161.38 158.97 157.79 256.11 101.68"/>
          <polygon class="cls-23" points="256.65 102.81 320.33 123.38 223.2 179.49 159.52 158.93 256.65 102.81"/>
          <polygon class="cls-37" points="257.05 103.97 322.25 140.66 225.11 196.78 159.91 160.08 257.05 103.97"/>
          <polygon class="cls-19" points="250.37 97.71 153.23 153.82 135.23 71.06 232.37 14.95 250.37 97.71 250.37 97.71"/>
        </g>
        <g>
          <g>
            <path class="cls-17" d="m100.49,231.75s3,.74,5.9.85c2.9.11,10.79,1.7,10.6,4.64-.2,2.96-4.32,7.21-9.49,7.84-5.17.63-11.82-.86-15.2-.77-3.38.09-5.69-3.35-4.36-6.65,1.31-3.28,12.55-5.91,12.55-5.91Z"/>
            <path class="cls-17" d="m83.07,223.84s-1.11,1.78-.56,2.87c.54,1.09,1.99,3.81,6.71,1.18,4.7-2.62,13.78-6.36,13.78-6.36,0,0,5.2-2.77,4.92-6.04-.28-3.25-5.07-2.76-5.07-2.76l-19.78,11.11Z"/>
            <path class="cls-18" d="m113.73,177.5s-2.01,21.22-6.27,29.26c-4.33,8.17-5.53,23.15-6.43,26-.91,2.87-3.72,7-8.14,7.88-4.43.88-5.15-2.13-4.94-3.94.22-1.8,1.45-4.72,1.46-6.67.02-1.95-.44-2.86-.51-3.76,0,0-5.07,1.49-5.84-2.43,0,0,.41-1.14.48-1.73.07-.58-.43-14.79-.56-16.51-.12-1.72.8-11,2.21-15.58,1.39-4.54.93-14.19.93-14.19l14.43-2.01,13.17,3.68Z"/>
            <path class="cls-24" d="m113.73,177.5s-2.01,21.22-6.27,29.26c-4.33,8.17-5.53,23.15-6.43,26-.91,2.87-3.72,7-8.14,7.88-4.43.88-5.15-2.13-4.94-3.94.22-1.8,1.45-4.72,1.46-6.67.02-1.95-.44-2.86-.51-3.76,0,0-5.07,1.49-5.84-2.43,0,0,.41-1.14.48-1.73.07-.58-.43-14.79-.56-16.51-.12-1.72.8-11,2.21-15.58,1.39-4.54.93-14.19.93-14.19l14.43-2.01,13.17,3.68Z"/>
            <path class="cls-17" d="m90.41,177.37s.06,3.31,1.44,6.1c0,0-.03,11.28,1.13,16.99,0,0-1.87,11.47-3.04,15.08-1.18,3.64-1.03,10.73-1.03,10.73,0,0-.58.21-1.4.24-.83.03-.89-14.02.38-16.5,1.26-2.47,2.22-13.42,1.74-16.75-.47-3.32-.31-12.8-.94-14.48-.62-1.67.79-2.56.79-2.56l.93,1.14Z"/>
            <path class="cls-17" d="m102.55,100.82s4.19,3.03,3.98,8.27l-3.11-.67s.93-5.8-.86-7.6Z"/>
            <path class="cls-17" d="m100.92,181.99c-9.56.29-14.73-3.94-14.73-3.94-.02-1.34-.06-2.22-.06-2.22l14.43-2.01,13.17,3.68s-.4,4.18-1.21,9.54c-2.35.25-4.65-5.51-4.65-5.51l-6.56.42s9.17-.24-.39.05Z"/>
            <path class="cls-6" d="m111.89,177.81s-20.79,8.49-30.85-7.61c-.29-.46-.42-1.02-.4-1.58l.13-3.75c.02-.48-.05-.95-.2-1.39h0c-.32-.95-.39-1.99-.21-3,.78-4.19,2.89-15.6,3.38-18.76.6-3.86-1.44-19.3-4.89-25.99-3.4-6.59,5.33-21.42,5.33-21.42,0,0,2.14-3.46,6.34-2.28,0,0-4,2.8-1.81,5.75,2.2,2.97,8.78,5.35,8.78,5.35,0,0,12.15,6.31,16.32,13.98,0,0,1.43,3.99,1.56,9.04.13,5.1-.44,17.35-.22,19.06.21,1.71.86,13.38.79,13.93-.07.55-4.03,18.68-4.03,18.68Z"/>
            <path class="cls-34" d="m111.89,177.81s-20.79,8.49-30.85-7.61c-.29-.46-.42-1.02-.4-1.58l.13-3.75c.02-.48-.05-.95-.2-1.39h0c-.32-.95-.39-1.99-.21-3,.78-4.19,2.89-15.6,3.38-18.76.6-3.86-1.44-19.3-4.89-25.99-3.4-6.59,5.33-21.42,5.33-21.42,0,0,2.14-3.46,6.34-2.28,0,0-4,2.8-1.81,5.75,2.2,2.97,8.78,5.35,8.78,5.35,0,0,12.15,6.31,16.32,13.98,0,0,1.43,3.99,1.56,9.04.13,5.1-.44,17.35-.22,19.06.21,1.71.86,13.38.79,13.93-.07.55-4.03,18.68-4.03,18.68Z"/>
            <g>
              <path class="cls-44" d="m88.56,94.17c-.33-.84-.23-1.65.07-2.35.58-.02,1.19.02,1.88.21,0,0-1.23.87-1.96,2.14Z"/>
              <path class="cls-18" d="m105.59,179.55s-12.25-33.07-11.66-45.07c.57-11.7,17.88,23.71,17.88,23.71l.09,19.62s-3.93,1.45-6.3,1.73Z"/>
            </g>
            <path class="cls-42" d="m112.19,140.48c-.44-2.7-.7-5.41-.73-8.11-.05-4.7-1.38-12.5-9.89-11.15-12.03,1.92-6.88,18.77-5.56,21.71,1.33,2.96,6.59,16.31,6.87,17.07.26.71,8.58,17.37,11.55,21.37.27.37.75.42,1.08.14,1.2-1.03,3.91-3.47,4.26-5.02.45-1.99-1.28-9.2-1.28-9.2,0,0-4.69-18.01-5.08-18.85-.3-.63-.5-3.59-1.22-7.96Z"/>
            <path class="cls-4" d="m102.35,101.2s.96-2.17,3.16-2.4c2.21-.22,3.46-.84,3.68-1.65.22-.82.23-1.8.77-3.02.53-1.21.98-4.19.98-4.27,0-.07,1.67-.58,1.75-1.31.08-.74-.79-3.37-.69-3.57.09-.2.99-1.82.87-3.07-.12-1.25-.28-3.07-.95-4.6-.67-1.53-5.34-10.86-17.51-6.06-12.3,4.86-2.94,15.18-4.16,21.87,0,0-1.09,1.41.91,3.8,2.02,2.41,7.84,2.93,11.19,4.29Z"/>
            <path class="cls-39" d="m91.15,96.91c-2-2.39-.91-3.8-.91-3.8.17-.93.13-1.93-.02-2.98l4.81.92s7.11-6.32,6.6-2.94c-.51,3.41,1.22,4,1.22,4l-1.46,1.86c-.37.48-.15,1.04.15,1.56,2.03,3.49,6.96,2.44,6.97,2.44-.61.4-1.62.69-3.01.84-2.21.22-3.16,2.4-3.16,2.4-3.36-1.36-9.18-1.88-11.19-4.29Z"/>
            <g>
              <path class="cls-10" d="m112.44,73.75s.85,2.5-.52,3.55c-1.38,1.05-2.63,2.05-2.63,2.05v3.17c0,.46-.12.9-.37,1.28l-1.73,2.67c-.33.52-.52,1.12-.52,1.74v1.29c-.01.38-.29.7-.66.74l-.46.05c-.4.05-.76-.25-.81-.66l-.19-1.8s-.91-1.45-2.91.28l-1.79.74c-.5.21-.9.62-1.08,1.13-.5,1.38-1.58,4.12-2.38,4.57-1.09.61-5.3-1.56-5.86-2.52-.56-.96-1.98-7.38-2.86-10.43-.87-3.04-.36-10.55,8.7-12.47,9.02-1.91,14.83,1.91,16.08,4.63Z"/>
              <path class="cls-40" d="m90.52,92.03c-.56-.96-1.98-7.38-2.86-10.43,0,0,3.51,2.34,8.05,3.03,4.56.69,13.58-4.43,13.58-4.43v2.32c0,.46-.13.9-.37,1.28l-1.73,2.67c-.33.52-.52,1.12-.52,1.74v1.29c-.01.38-.29.7-.66.74l-.46.05c-.4.05-.76-.25-.81-.66l-.19-1.8s-.91-1.45-2.91.28l-2.6,1.07s-1.58,4.76-2.67,5.38c-1.09.61-5.3-1.56-5.86-2.52Z"/>
            </g>
            <path class="cls-35" d="m90.34,92.33s-3.52,2.17-1.77,5.25c1.77,3.1,14.54,8.6,15.17,9.42,0,0,.5-4.62-1.19-6.18,0,0-9.78-1.91-11.3-4.4-1.51-2.48-.92-4.09-.92-4.09Z"/>
            <path class="cls-12" d="m90.34,92.33s-.59,1.6.92,4.09c1.15,1.89,7.03,3.44,9.82,4.08h0s-1.04.59-2.78,3.55c-3.93-2.04-8.7-4.66-9.73-6.47-1.76-3.08,1.77-5.25,1.77-5.25Z"/>
            <path class="cls-18" d="m87.96,102.18s5.69,3.26,8.46,4.73c2.78,1.48,5.81,3.44,5.81,3.44l1.06-1.06,1.28,2.81s4.37,2.62,6.41,4.81c2.05,2.2,3.6,5.07,3.82,5.72,0,0-5.46-7.16-9.75-9.28l-1.16-.58-.65-2.22-1.06,1.12s-12.5-7.54-14.24-9.48Z"/>
          </g>
          <g>
            <path class="cls-6" d="m102.63,198.73h0s0,0,0,0c.18-.51.44-.96.76-1.22l23.41-19.65c.62-.52,1.21-.12,1.33.88l2.74,22.88c.13,1.06-.28,2.35-.91,2.9l-19.66,17,.68,6.62-5.88-2.71h0c-.26-.18-.46-.56-.51-1.13l-2.19-23.91c-.05-.53.04-1.12.23-1.65Z"/>
            <path class="cls-6" d="m133.17,180.11l-5.53-2.39-.18-.08c-.2-.05-.43.02-.66.21l-23.41,19.65c-.32.27-.58.71-.76,1.22l.84.4h0l4.77,2.3,20.52-17.54h0l4.43-3.78Z"/>
            <path class="cls-18" d="m135.71,207.08l-23.94,20.85c-.66.57-1.28.14-1.38-.97l-2.33-24.03c-.1-1.06.33-2.35.97-2.89l23.35-19.75c.61-.52,1.21-.12,1.34.89l2.88,22.99c.13,1.06-.27,2.37-.9,2.91Z"/>
            <path class="cls-13" d="m135.71,207.08l-23.94,20.85c-.66.57-1.28.14-1.38-.97l-2.33-24.03c-.1-1.06.33-2.35.97-2.89l23.35-19.75c.61-.52,1.21-.12,1.34.89l2.88,22.99c.13,1.06-.27,2.37-.9,2.91Z"/>
            <path class="cls-17" d="m107.42,225.55l-2.25-23.97c-.1-1.05.34-2.34.98-2.88l23.38-19.7c.19-.16.38-.23.55-.23-.22-.09-.48-.04-.75.18l-23.38,19.7c-.64.54-1.08,1.83-.98,2.88l2.25,23.97c.07.76.37,1.24.77,1.25-.3-.13-.51-.58-.57-1.2Z"/>
            <g>
              <g>
                <path class="cls-17" d="m115.99,190.26l-1.22-.61c-.28-.14-.54-.19-.76-.14l-.1.02c-.12.03-.19.16-.17.35l.02.22,3.45,1.72-.02-.22c-.02-.19-.12-.4-.26-.56l-.11-.13c-.26-.29-.54-.52-.82-.65Z"/>
                <polygon class="cls-17" points="115.56 193.22 117.21 191.82 113.79 189.61 112.16 190.97 115.56 193.22"/>
                <path class="cls-9" d="m114.34,191.65l-1.22-.61c-.28-.14-.54-.19-.76-.14l-.1.02c-.12.03-.19.16-.17.35l.02.22,3.45,1.73-.02-.22c-.02-.19-.12-.4-.26-.56l-.11-.13c-.26-.29-.54-.52-.82-.66Z"/>
                <polygon class="cls-25" points="113.61 192.24 113.5 191.23 113.61 191.28 113.71 192.29 113.61 192.24"/>
                <polygon class="cls-25" points="113.5 191.23 115.2 189.86 115.29 189.91 113.61 191.28 113.5 191.23"/>
              </g>
              <g>
                <path class="cls-17" d="m123.43,184.01l-1.22-.6c-.28-.14-.54-.18-.76-.13l-.1.02c-.12.03-.18.16-.16.34l.02.22,3.44,1.7-.03-.22c-.02-.18-.12-.4-.26-.55l-.11-.13c-.26-.29-.54-.51-.82-.65Z"/>
                <polygon class="cls-17" points="123.02 186.93 124.65 185.55 121.24 183.36 119.63 184.71 123.02 186.93"/>
                <path class="cls-7" d="m121.8,185.38l-1.22-.6c-.28-.14-.54-.18-.76-.13l-.1.02c-.12.03-.18.16-.16.34l.02.22,3.44,1.71-.02-.22c-.02-.19-.12-.4-.26-.55l-.11-.13c-.26-.29-.54-.51-.82-.65Z"/>
                <polygon class="cls-25" points="121.07 185.96 120.96 184.97 121.06 185.02 121.18 186.02 121.07 185.96"/>
                <polygon class="cls-25" points="120.96 184.97 122.64 183.62 122.73 183.66 121.06 185.02 120.96 184.97"/>
              </g>
              <g>
                <path class="cls-6" d="m112.84,186.44l.44,4.27,1.11-.93-.43-4.15c-.06-.6.23-1.38.66-1.74l4.77-3.98c.42-.36.82-.16.89.44l.46,4.1,1.09-.92-.47-4.21c-.15-1.32-1.03-1.75-1.96-.97l-5.08,4.24c-.95.79-1.6,2.51-1.47,3.85Z"/>
                <path class="cls-6" d="m121.06,179.62l-1.96-.2-5.68,5.29-.24,3.27.11,2.73,1.27.64.04-3.4.07-2.33,1.18-1.68s2.13-1.72,2.15-1.77c.02-.05,3.07-2.55,3.07-2.55Z"/>
                <polygon class="cls-6" points="122 185.07 120.73 184.44 120.4 181.42 121.61 181.52 121.96 181.58 122 185.07"/>
                <path class="cls-6" d="m121.96,178.69l-1.36-.67s.36.74.36.74c0,0,.45.16.46.16,0,0,.54-.23.54-.23Z"/>
                <path class="cls-17" d="m114.11,187.07l.45,4.27,1.11-.93-.44-4.15c-.06-.6.23-1.39.66-1.74l4.76-3.99c.42-.36.82-.16.89.44l.46,4.11,1.09-.92-.48-4.21c-.15-1.32-1.03-1.75-1.97-.97l-5.08,4.25c-.95.79-1.6,2.51-1.46,3.85Z"/>
              </g>
            </g>
          </g>
          <path class="cls-4" d="m119.43,176.31s.81,4.17.58,5.22c-.23,1.05-2.22,3.07-3.43,3.44-1.2.37-.71-1.06-.98-1.96-.27-.9-.22-2.86-.22-2.86l4.05-3.83Z"/>
          <path class="cls-39" d="m115.38,180.15l4.05-3.83s.17.86.33,1.89c0,0-1.51,3.11-4.26,4.33-.15-.98-.12-2.38-.12-2.38Z"/>
          <path class="cls-42" d="m119.74,176.63s-1.44,4.49-5.04,4.92l1.22-4.92s3.04-.86,3.14-.87c.09-.01.68.87.68.87Z"/>
        </g>
        <g class="cls-46">
          <g>
            <path class="cls-15" d="m10.7,186.84c-6.95-10.13-10.7-20.92-10.7-32.11v-50.99c0,11.19,3.75,21.99,10.7,32.11v50.99h0Z"/>
            <path class="cls-30" d="m164.9,204.91c-45.98-5.83-86-18.37-115.09-35.21v50.99c29.09,16.84,69.11,29.38,115.09,35.21v-50.99h0Z"/>
            <path class="cls-22" d="m375.81,180.28c-33.71,14.8-77.16,24.74-125.23,27.49v50.99c48.06-2.75,91.52-12.69,125.23-27.49v-50.99h0Z"/>
            <path class="cls-20" d="m446.57,156.52c-.59,15.74-8.53,30.62-22.28,43.91v-50.99c13.74-13.29,21.69-28.16,22.28-43.91v50.99h0Z"/>
          </g>
        </g>
      </g>
      <path class="cls-43" d="m221.01,43.44c0,1.9-1.54,3.43-3.43,3.43s-3.43-1.54-3.43-3.43,1.54-3.43,3.43-3.43,3.43,1.54,3.43,3.43Z"/>
      <path class="cls-43" d="m206.49,88.04c.86-.33,1.82.1,2.15.96.33.86-.1,1.82-.96,2.15-.86.33-1.82-.1-2.15-.96-.33-.86.1-1.82.96-2.15Z"/>
      <path class="cls-43" d="m252.22,132.22c.86-.33,1.82.1,2.15.96.33.86-.1,1.82-.96,2.15-.86.33-1.82-.1-2.15-.96-.33-.86.1-1.82.96-2.15Z"/>
      <path class="cls-43" d="m218.95,123.17c1.15-.44,2.44.13,2.88,1.28.44,1.15-.13,2.44-1.28,2.88s-2.44-.13-2.88-1.28c-.44-1.15.13-2.44,1.28-2.88Z"/>
      <path class="cls-43" d="m168.56,29.86c2.69-1.03,5.71.31,6.74,3,1.03,2.69-.31,5.71-3,6.74-2.69,1.03-5.71-.31-6.74-3-1.03-2.69.31-5.71,3-6.74Z"/>
    </g>
  </g>
</svg>