<svg width="130" height="130" viewBox="0 0 130 130" fill="none" xmlns="http://www.w3.org/2000/svg">
<path d="M127.959 29.3581C128.006 29.5311 128.03 29.7095 128.03 29.8887V57.7442C128.03 58.472 127.641 59.1441 127.01 59.5061L103.63 72.9668V99.6468C103.63 100.373 103.244 101.043 102.615 101.409L53.8116 129.503C53.6999 129.566 53.578 129.607 53.4562 129.65C53.4105 129.665 53.3673 129.693 53.3191 129.706C52.9779 129.796 52.6193 129.796 52.2782 129.706C52.2223 129.691 52.1715 129.66 52.1182 129.64C52.0065 129.599 51.8897 129.564 51.7831 129.503L2.99029 101.409C2.35939 101.046 1.9697 100.374 1.9697 99.6468V16.0803C1.9697 15.8975 1.99508 15.7198 2.04078 15.5472C2.05601 15.4888 2.09156 15.4355 2.11187 15.3771C2.14995 15.2704 2.18549 15.1613 2.24135 15.0623C2.27943 14.9962 2.33528 14.9429 2.38098 14.882C2.43937 14.8008 2.49268 14.717 2.56123 14.6459C2.61962 14.5875 2.69579 14.5443 2.7618 14.4936C2.83542 14.4326 2.90143 14.3666 2.98521 14.3184H2.98775L27.3854 0.271323C28.0141 -0.0904409 28.7878 -0.0904409 29.4165 0.271323L53.8141 14.3184H53.8192C53.9005 14.3692 53.969 14.4326 54.0426 14.491C54.1086 14.5418 54.1823 14.5875 54.2406 14.6434C54.3117 14.717 54.3625 14.8008 54.4234 14.882C54.4666 14.9429 54.525 14.9962 54.5605 15.0623C54.6189 15.1638 54.6519 15.2704 54.6925 15.3771C54.7129 15.4355 54.7484 15.4888 54.7636 15.5497C54.8104 15.7227 54.8343 15.9011 54.8347 16.0803V68.2751L75.1653 56.5688V29.8862C75.1653 29.7085 75.1907 29.5282 75.2364 29.3581C75.2541 29.2972 75.2871 29.2439 75.3075 29.1855C75.3481 29.0789 75.3836 28.9697 75.4395 28.8707C75.4775 28.8047 75.5334 28.7514 75.5766 28.6904C75.6375 28.6092 75.6883 28.5254 75.7594 28.4543C75.8177 28.3959 75.8914 28.3528 75.9574 28.302C76.0335 28.2411 76.0995 28.1751 76.1808 28.1268H76.1833L100.584 14.0797C101.212 13.7175 101.986 13.7175 102.615 14.0797L127.012 28.1268C127.099 28.1776 127.165 28.2411 127.241 28.2995C127.304 28.3502 127.378 28.3959 127.436 28.4518C127.507 28.5254 127.558 28.6092 127.619 28.6904C127.665 28.7514 127.721 28.8047 127.756 28.8707C127.815 28.9697 127.848 29.0789 127.888 29.1855C127.911 29.2439 127.944 29.2972 127.959 29.3581ZM123.963 56.5688V33.4049L115.425 38.32L103.63 45.1113V68.2751L123.966 56.5688H123.963ZM99.5655 98.4713V75.2923L87.9633 81.9185L54.8322 100.827V124.225L99.5655 98.4713ZM6.03682 19.5965V98.4713L50.7651 124.222V100.83L27.3981 87.6054L27.3905 87.6003L27.3803 87.5952C27.3016 87.5495 27.2356 87.4835 27.162 87.4277C27.0985 87.3769 27.0249 87.3363 26.9691 87.2804L26.964 87.2728C26.898 87.2093 26.8523 87.1306 26.7964 87.0595C26.7457 86.991 26.6847 86.9326 26.6441 86.8615L26.6416 86.8539C26.5959 86.7777 26.5679 86.6863 26.5349 86.6C26.5019 86.5239 26.4588 86.4528 26.4385 86.3715V86.369C26.4131 86.2725 26.408 86.171 26.3978 86.0719C26.3877 85.9958 26.3674 85.9196 26.3674 85.8435V85.8384V31.3028L14.5747 24.5091L6.03682 19.5991V19.5965ZM28.4035 4.37907L8.07546 16.0803L28.3984 27.7815L48.7239 16.0778L28.3984 4.37907H28.4035ZM38.975 77.4045L50.7676 70.6159V19.5965L42.2297 24.5116L30.4345 31.3028V82.3222L38.975 77.4045ZM101.599 18.1875L81.2736 29.8887L101.599 41.59L121.922 29.8862L101.599 18.1875ZM99.5655 45.1113L87.7703 38.32L79.2324 33.4049V56.5688L91.025 63.3575L99.5655 68.2751V45.1113ZM52.7961 97.3111L82.609 80.2911L97.5116 71.7862L77.2014 60.0926L53.8167 73.5558L32.5036 85.8257L52.7961 97.3111Z" fill="#FF2D20"/>
</svg>
