<?xml version="1.0" encoding="UTF-8"?>
<svg id="Layer_2" data-name="Layer 2" xmlns="http://www.w3.org/2000/svg" xmlns:xlink="http://www.w3.org/1999/xlink" viewBox="0 0 400.91 165.12">
  <defs>
    <style>
      .cls-1 {
        fill: #180b40;
        filter: url(#outer-glow-1);
        stroke: url(#linear-gradient);
      }

      .cls-1, .cls-2, .cls-3, .cls-4, .cls-5, .cls-6 {
        stroke-miterlimit: 10;
        stroke-width: 7px;
      }

      .cls-2 {
        stroke: url(#linear-gradient-4);
      }

      .cls-2, .cls-3, .cls-4, .cls-5, .cls-6 {
        fill: none;
      }

      .cls-3 {
        stroke: url(#linear-gradient-2);
      }

      .cls-4 {
        stroke: url(#linear-gradient-6);
      }

      .cls-5 {
        stroke: url(#linear-gradient-3);
      }

      .cls-6 {
        stroke: url(#linear-gradient-5);
      }

      .cls-7 {
        fill: #00aeef;
        filter: url(#outer-glow-2);
        stroke-width: 0px;
      }
    </style>
    <linearGradient id="linear-gradient" x1="30.06" y1="82.59" x2="135.07" y2="82.59" gradientTransform="translate(.29 -.22) rotate(.18)" gradientUnits="userSpaceOnUse">
      <stop offset="0" stop-color="#50c8ef"/>
      <stop offset="1" stop-color="#354ea2"/>
    </linearGradient>
    <filter id="outer-glow-1" filterUnits="userSpaceOnUse">
      <feOffset dx="0" dy="0"/>
      <feGaussianBlur result="blur" stdDeviation="10"/>
      <feFlood flood-color="#5b8fcb" flood-opacity=".75"/>
      <feComposite in2="blur" operator="in"/>
      <feComposite in="SourceGraphic"/>
    </filter>
    <filter id="outer-glow-2" filterUnits="userSpaceOnUse">
      <feOffset dx="0" dy="0"/>
      <feGaussianBlur result="blur-2" stdDeviation="8"/>
      <feFlood flood-color="#5b8fcb" flood-opacity=".75"/>
      <feComposite in2="blur-2" operator="in"/>
      <feComposite in="SourceGraphic"/>
    </filter>
    <linearGradient id="linear-gradient-2" x1="153.24" y1="82.12" x2="208.37" y2="82.29" gradientTransform="matrix(1,0,0,1,0,0)" xlink:href="#linear-gradient"/>
    <linearGradient id="linear-gradient-3" x1="269.16" y1="83.98" x2="276.49" y2="84" gradientTransform="matrix(1,0,0,1,0,0)" xlink:href="#linear-gradient"/>
    <linearGradient id="linear-gradient-4" x1="227.88" y1="29.35" x2="313.35" y2="29.61" gradientTransform="matrix(1,0,0,1,0,0)" xlink:href="#linear-gradient"/>
    <linearGradient id="linear-gradient-5" x1="316.02" y1="84.27" x2="362.33" y2="84.42" gradientTransform="matrix(1,0,0,1,0,0)" xlink:href="#linear-gradient"/>
    <linearGradient id="linear-gradient-6" x1="355.73" y1="84.49" x2="399.46" y2="83.29" gradientTransform="matrix(1,0,0,1,0,0)" xlink:href="#linear-gradient"/>
  </defs>
  <g id="Layer_1-2" data-name="Layer 1">
    <g>
      <path class="cls-1" d="m102.02,131.6l-38.9-.02c-.53,0-1.04-.21-1.41-.59l-27.49-27.52c-.37-.38-.59-.88-.58-1.41l.02-38.9c0-.53.21-1.04.59-1.41l27.52-27.49c.38-.37.88-.59,1.41-.58l38.9.02c.53,0,1.04.21,1.41.59l27.49,27.52c.37.38.59.88.58,1.41l-.02,38.9c0,.53-.21,1.04-.59,1.41l-27.52,27.49c-.38.37-.88.59-1.41.58Z"/>
      <path class="cls-7" d="m93.52,110.8l-21.7.05c-.53,0-1.04-.21-1.42-.58l-15.38-15.3c-.38-.37-.59-.88-.59-1.41l-.05-21.7c0-.53.21-1.04.58-1.42l15.3-15.38c.37-.38.88-.59,1.41-.59l21.7-.05c.53,0,1.04.21,1.42.58l15.38,15.3c.38.37.59.88.59,1.41l.05,21.7c0,.53-.21,1.04-.58,1.42l-15.3,15.38c-.37.38-.88.59-1.41.59Z"/>
      <path class="cls-3" d="m208.15,29.82c-28.4.59-51.43,24.13-51.4,52.51.02,28.35,23.04,51.83,51.4,52.43"/>
      <line class="cls-5" x1="272.83" y1="29.48" x2="272.83" y2="138.5"/>
      <line class="cls-2" x1="227.89" y1="29.48" x2="313.34" y2="29.48"/>
      <line class="cls-6" x1="359.22" y1="31.96" x2="319.13" y2="136.73"/>
      <line class="cls-4" x1="357.56" y1="30.62" x2="397.63" y2="137.16"/>
    </g>
  </g>
</svg>