<svg width="897" height="331" viewBox="0 0 897 331" fill="none" xmlns="http://www.w3.org/2000/svg">
<g filter="url(#filter0_d_68_2018)">
<g clip-path="url(#clip0_68_2018)">
<g filter="url(#filter1_d_68_2018)">
<path d="M575.165 240.453C573.162 238.451 570.445 237.325 567.612 237.325C564.78 237.325 562.063 238.451 560.059 240.453L499.945 300.578L471.229 272.236C469.245 270.203 466.536 269.041 463.696 269.006C460.856 268.971 458.118 270.065 456.085 272.049C454.052 274.032 452.891 276.742 452.856 279.582C452.821 282.422 453.915 285.159 455.898 287.192L485.213 316.037C487.052 318.019 489.273 319.609 491.742 320.711C494.212 321.812 496.878 322.403 499.582 322.447H499.935C502.585 322.455 505.21 321.938 507.658 320.924C510.106 319.909 512.329 318.419 514.197 316.539L575.165 255.559C577.168 253.556 578.293 250.839 578.293 248.006C578.293 245.174 577.168 242.457 575.165 240.453ZM440.376 300.642C419.747 298.757 400.111 290.916 383.859 278.072C367.607 265.228 355.439 247.937 348.837 228.302C342.235 208.668 341.483 187.537 346.674 167.483C351.865 147.43 362.774 129.317 378.073 115.352C393.372 101.386 412.402 92.1698 432.844 88.8244C453.287 85.4791 474.262 88.1491 493.214 96.5095C512.167 104.87 528.28 118.56 539.593 135.913C550.905 153.266 556.928 173.534 556.929 194.249C556.929 197.528 556.769 200.776 556.491 203.981C556.361 205.382 556.508 206.794 556.924 208.138C557.341 209.482 558.019 210.73 558.919 211.811C559.82 212.892 560.925 213.784 562.171 214.437C563.417 215.09 564.78 215.49 566.181 215.615C567.581 215.756 568.995 215.616 570.341 215.202C571.686 214.789 572.935 214.111 574.015 213.209C575.095 212.306 575.983 211.197 576.629 209.946C577.274 208.695 577.663 207.328 577.772 205.925C578.114 202.047 578.296 198.169 578.296 194.249C578.294 169.39 571.066 145.068 557.49 124.244C543.914 103.42 524.577 86.9915 501.833 76.9596C479.088 66.9278 453.918 63.725 429.386 67.7411C404.854 71.7573 382.019 82.8192 363.66 99.58C345.302 116.341 332.213 138.077 325.986 162.144C319.76 186.21 320.664 211.567 328.59 235.128C336.515 258.689 351.12 279.438 370.626 294.848C390.132 310.259 413.697 319.665 438.453 321.923C438.784 321.923 439.105 321.923 439.425 321.923C442.258 322.049 445.026 321.045 447.118 319.13C449.211 317.216 450.457 314.549 450.584 311.715C450.71 308.882 449.705 306.115 447.791 304.022C445.876 301.929 443.209 300.683 440.376 300.557V300.642ZM439.414 140.833V189.826L410.495 218.745C409.475 219.731 408.661 220.909 408.101 222.213C407.541 223.516 407.246 224.918 407.234 226.337C407.222 227.755 407.492 229.162 408.029 230.475C408.566 231.788 409.359 232.98 410.363 233.984C411.366 234.987 412.558 235.78 413.871 236.317C415.184 236.854 416.591 237.125 418.01 237.112C419.428 237.1 420.83 236.805 422.133 236.245C423.437 235.685 424.615 234.871 425.601 233.851L457.651 201.802C459.654 199.799 460.78 197.082 460.781 194.249V140.833C460.781 137.999 459.655 135.282 457.652 133.279C455.648 131.275 452.931 130.15 450.098 130.15C447.264 130.15 444.547 131.275 442.543 133.279C440.54 135.282 439.414 137.999 439.414 140.833Z" fill="url(#paint0_linear_68_2018)"/>
</g>
</g>
<g clip-path="url(#clip1_68_2018)">
<g filter="url(#filter2_d_68_2018)">
<path d="M720.75 17.156C705.85 17.156 693.771 29.2349 693.771 44.1349V189.404C693.771 204.304 705.85 216.383 720.75 216.383H800.173L782.27 198.479C774.976 191.185 774.976 179.358 782.27 172.065C789.564 164.771 801.39 164.771 808.684 172.065L820.364 183.745L856.964 147.145C857.847 146.262 858.796 145.486 859.795 144.818V44.1349C859.795 29.2349 847.716 17.156 832.816 17.156H720.75ZM747.729 73.1892C747.729 78.92 743.083 83.5657 737.352 83.5657C731.621 83.5657 726.976 78.92 726.976 73.1892C726.976 67.4584 731.621 62.8127 737.352 62.8127C743.083 62.8127 747.729 67.4584 747.729 73.1892ZM737.352 127.145C731.621 127.145 726.976 122.5 726.976 116.769C726.976 111.039 731.621 106.392 737.352 106.392C743.083 106.392 747.729 111.039 747.729 116.769C747.729 122.5 743.083 127.145 737.352 127.145ZM737.352 170.728C731.621 170.728 726.976 166.083 726.976 160.352C726.976 154.621 731.621 149.975 737.352 149.975C743.083 149.975 747.729 154.621 747.729 160.352C747.729 166.083 743.083 170.728 737.352 170.728ZM766.407 66.9633H820.364C823.803 66.9633 826.59 69.7507 826.59 73.1892C826.59 76.6276 823.803 79.4151 820.364 79.4151H766.407C762.968 79.4151 760.181 76.6276 760.181 73.1892C760.181 69.7507 762.968 66.9633 766.407 66.9633ZM760.181 116.769C760.181 113.331 762.968 110.543 766.407 110.543H820.364C823.803 110.543 826.59 113.331 826.59 116.769C826.59 120.207 823.803 122.995 820.364 122.995H766.407C762.968 122.995 760.181 120.207 760.181 116.769ZM766.407 154.126H820.364C823.803 154.126 826.59 156.914 826.59 160.352C826.59 163.79 823.803 166.578 820.364 166.578H766.407C762.968 166.578 760.181 163.79 760.181 160.352C760.181 156.914 762.968 154.126 766.407 154.126Z" fill="url(#paint1_linear_68_2018)"/>
</g>
<path d="M824.767 214.561L874.574 164.754C877.005 162.323 877.005 158.381 874.574 155.95C872.142 153.518 868.201 153.518 865.77 155.95L820.364 201.354L799.88 180.869C797.448 178.438 793.506 178.438 791.074 180.869C788.643 183.301 788.643 187.243 791.074 189.674L815.962 214.561C817.129 215.729 818.713 216.385 820.364 216.385C822.016 216.385 823.599 215.729 824.767 214.561Z" fill="url(#paint2_linear_68_2018)"/>
</g>
<g clip-path="url(#clip2_68_2018)">
<g filter="url(#filter3_d_68_2018)">
<path d="M160.584 195.59C159.379 194.857 158.33 193.875 157.496 192.684C157.111 192.135 156.785 191.555 156.516 190.955H19.6542V56.0567H205.424V144.14C209.39 144.498 212.717 147.103 214.114 150.67C215.352 149.992 216.73 149.573 218.179 149.445C219.16 149.36 220.133 149.421 221.078 149.607V22.4506C221.078 15.2572 215.226 9.40503 208.034 9.40503H17.045C9.85221 9.40503 4 15.2572 4 22.4506V193.564C4 200.758 9.85221 206.609 17.045 206.609H159.395C158.284 204.36 158.021 201.821 158.674 199.377C159.051 197.972 159.703 196.69 160.584 195.59ZM191.099 31.3111C191.099 28.651 193.255 26.4939 195.915 26.4939H200.732C203.392 26.4939 205.548 28.6504 205.548 31.3111V36.7703C205.548 39.4305 203.392 41.5869 200.732 41.5869H195.915C193.254 41.5869 191.099 39.4305 191.099 36.7703V31.3111ZM168.701 31.3111C168.701 28.651 170.857 26.4939 173.518 26.4939H178.335C180.995 26.4939 183.151 28.6504 183.151 31.3111V36.7703C183.151 39.4305 180.995 41.5869 178.335 41.5869H173.518C170.857 41.5869 168.701 39.4305 168.701 36.7703V31.3111ZM146.303 31.3111C146.303 28.651 148.46 26.4939 151.119 26.4939H155.936C158.597 26.4939 160.753 28.6504 160.753 31.3111V36.7703C160.753 39.4305 158.597 41.5869 155.936 41.5869H151.119C148.46 41.5869 146.303 39.4305 146.303 36.7703V31.3111Z" fill="url(#paint3_linear_68_2018)"/>
</g>
<path d="M236.403 186.404L234.956 178.195C234.76 177.09 233.707 176.352 232.6 176.546L225.301 177.833C224.425 175.777 223.305 173.85 221.977 172.087L226.745 166.404C227.091 165.992 227.26 165.458 227.214 164.921C227.166 164.383 226.907 163.887 226.494 163.54L220.11 158.182C219.697 157.836 219.162 157.668 218.625 157.715C218.087 157.762 217.592 158.02 217.245 158.433L212.482 164.112C210.526 163.116 208.434 162.347 206.243 161.84V154.428C206.243 153.305 205.333 152.394 204.21 152.394H195.874C194.752 152.394 193.841 153.305 193.841 154.428V161.84C191.649 162.347 189.559 163.116 187.603 164.112L182.838 158.434C182.116 157.573 180.834 157.462 179.974 158.183L173.589 163.54C173.176 163.887 172.918 164.383 172.87 164.921C172.823 165.458 172.992 165.993 173.338 166.406L178.107 172.088C176.78 173.85 175.659 175.778 174.783 177.833L167.483 176.546C166.38 176.352 165.324 177.09 165.128 178.195L163.681 186.404C163.588 186.935 163.709 187.48 164.017 187.923C164.328 188.365 164.798 188.665 165.329 188.759L172.634 190.046C172.753 192.31 173.147 194.499 173.782 196.584L167.361 200.29C166.894 200.559 166.553 201.004 166.413 201.524C166.274 202.045 166.347 202.599 166.616 203.067L170.784 210.285C171.052 210.752 171.497 211.092 172.018 211.232C172.191 211.278 172.367 211.301 172.544 211.301C172.898 211.301 173.248 211.209 173.56 211.029L179.986 207.319C181.497 208.938 183.203 210.372 185.067 211.586L182.53 218.556C182.346 219.063 182.37 219.622 182.598 220.111C182.826 220.599 183.238 220.977 183.745 221.161L191.576 224.011C191.8 224.093 192.036 224.135 192.271 224.135C192.565 224.135 192.86 224.072 193.132 223.944C193.62 223.717 193.997 223.304 194.182 222.797L196.718 215.827C197.806 215.958 198.913 216.026 200.036 216.026C201.159 216.026 202.266 215.957 203.354 215.827L205.891 222.797C206.075 223.304 206.453 223.717 206.941 223.944C207.212 224.071 207.506 224.135 207.801 224.135C208.036 224.135 208.272 224.094 208.496 224.011L216.328 221.161C216.834 220.977 217.247 220.598 217.474 220.111C217.702 219.622 217.727 219.063 217.542 218.556L215.005 211.587C216.868 210.373 218.573 208.938 220.086 207.32L226.512 211.03C226.823 211.209 227.174 211.302 227.528 211.302C227.704 211.302 227.882 211.278 228.054 211.233C228.575 211.094 229.019 210.752 229.288 210.286L233.456 203.067C233.725 202.601 233.798 202.045 233.659 201.524C233.519 201.005 233.178 200.56 232.711 200.29L226.292 196.586C226.926 194.5 227.319 192.31 227.438 190.048L234.743 188.76C235.274 188.666 235.746 188.365 236.055 187.923C236.375 187.48 236.497 186.935 236.403 186.404ZM200.043 199.448C193.868 199.448 188.862 194.441 188.862 188.266C188.862 182.092 193.869 177.086 200.043 177.086C206.218 177.086 211.224 182.092 211.224 188.266C211.224 194.441 206.218 199.448 200.043 199.448Z" fill="url(#paint4_linear_68_2018)"/>
<path d="M95.1595 130.834C95.1595 128.203 93.618 125.787 91.2319 124.679L69.3933 114.532L91.2324 104.384C93.618 103.275 95.1595 100.86 95.1595 98.2304V98.0539C95.1595 95.7236 93.9867 93.5843 92.0239 92.334C90.9379 91.6404 89.6732 91.2734 88.3675 91.2734C87.3833 91.2734 86.3953 91.4899 85.5114 91.9006L50.5974 108.137C48.2123 109.246 46.6719 111.661 46.6719 114.29V114.775C46.6719 117.401 48.2118 119.814 50.5979 120.929L85.5153 137.167C86.418 137.585 87.3795 137.797 88.3725 137.797C89.6665 137.797 90.9274 137.429 92.0239 136.732C93.9878 135.476 95.1601 133.339 95.1601 131.011L95.1595 130.834Z" fill="url(#paint5_linear_68_2018)"/>
<path d="M129.608 74.7297C128.334 72.9861 126.286 71.9456 124.128 71.9456H123.954C120.991 71.9456 118.392 73.8413 117.49 76.6592L94.4859 147.935C93.8311 149.993 94.1998 152.26 95.4717 154.003C96.7453 155.745 98.7939 156.786 100.952 156.786H101.126C104.089 156.786 106.685 154.89 107.587 152.073L130.588 80.8022C131.249 78.7459 130.882 76.476 129.608 74.7297Z" fill="url(#paint6_linear_68_2018)"/>
<path d="M174.48 108.136L139.566 91.8999C138.684 91.4904 137.698 91.2739 136.714 91.2739C135.409 91.2739 134.143 91.6398 133.058 92.3322C131.092 93.5848 129.919 95.7236 129.919 98.0538V98.2304C129.919 100.857 131.46 103.273 133.847 104.387L155.685 114.533L133.847 124.679C131.461 125.787 129.919 128.203 129.919 130.833V131.011C129.919 133.339 131.092 135.476 133.057 136.732C134.15 137.429 135.412 137.797 136.707 137.797C137.699 137.797 138.659 137.585 139.568 137.165L174.485 120.927C176.869 119.815 178.408 117.401 178.408 114.776V114.29C178.406 111.661 176.866 109.246 174.48 108.136Z" fill="url(#paint7_linear_68_2018)"/>
</g>
</g>
<defs>
<filter id="filter0_d_68_2018" x="0" y="0.553467" width="897" height="329.893" filterUnits="userSpaceOnUse" color-interpolation-filters="sRGB">
<feFlood flood-opacity="0" result="BackgroundImageFix"/>
<feColorMatrix in="SourceAlpha" type="matrix" values="0 0 0 0 0 0 0 0 0 0 0 0 0 0 0 0 0 0 127 0" result="hardAlpha"/>
<feOffset dy="4"/>
<feGaussianBlur stdDeviation="2"/>
<feComposite in2="hardAlpha" operator="out"/>
<feColorMatrix type="matrix" values="0 0 0 0 0 0 0 0 0 0 0 0 0 0 0 0 0 0 0.25 0"/>
<feBlend mode="normal" in2="BackgroundImageFix" result="effect1_dropShadow_68_2018"/>
<feBlend mode="normal" in="SourceGraphic" in2="effect1_dropShadow_68_2018" result="shape"/>
</filter>
<filter id="filter1_d_68_2018" x="317.899" y="66.0569" width="264.396" height="264.39" filterUnits="userSpaceOnUse" color-interpolation-filters="sRGB">
<feFlood flood-opacity="0" result="BackgroundImageFix"/>
<feColorMatrix in="SourceAlpha" type="matrix" values="0 0 0 0 0 0 0 0 0 0 0 0 0 0 0 0 0 0 127 0" result="hardAlpha"/>
<feOffset dy="4"/>
<feGaussianBlur stdDeviation="2"/>
<feComposite in2="hardAlpha" operator="out"/>
<feColorMatrix type="matrix" values="0 0 0 0 0.866667 0 0 0 0 0.054902 0 0 0 0 0.886275 0 0 0 1 0"/>
<feBlend mode="normal" in2="BackgroundImageFix" result="effect1_dropShadow_68_2018"/>
<feBlend mode="normal" in="SourceGraphic" in2="effect1_dropShadow_68_2018" result="shape"/>
</filter>
<filter id="filter2_d_68_2018" x="680.771" y="8.15601" width="192.024" height="225.227" filterUnits="userSpaceOnUse" color-interpolation-filters="sRGB">
<feFlood flood-opacity="0" result="BackgroundImageFix"/>
<feColorMatrix in="SourceAlpha" type="matrix" values="0 0 0 0 0 0 0 0 0 0 0 0 0 0 0 0 0 0 127 0" result="hardAlpha"/>
<feOffset dy="4"/>
<feGaussianBlur stdDeviation="6.5"/>
<feComposite in2="hardAlpha" operator="out"/>
<feColorMatrix type="matrix" values="0 0 0 0 0 0 0 0 0 0.792157 0 0 0 0 0.976471 0 0 0 1 0"/>
<feBlend mode="normal" in2="BackgroundImageFix" result="effect1_dropShadow_68_2018"/>
<feBlend mode="normal" in="SourceGraphic" in2="effect1_dropShadow_68_2018" result="shape"/>
</filter>
<filter id="filter3_d_68_2018" x="-7" y="0.405029" width="243.078" height="223.204" filterUnits="userSpaceOnUse" color-interpolation-filters="sRGB">
<feFlood flood-opacity="0" result="BackgroundImageFix"/>
<feColorMatrix in="SourceAlpha" type="matrix" values="0 0 0 0 0 0 0 0 0 0 0 0 0 0 0 0 0 0 127 0" result="hardAlpha"/>
<feOffset dx="2" dy="4"/>
<feGaussianBlur stdDeviation="6.5"/>
<feComposite in2="hardAlpha" operator="out"/>
<feColorMatrix type="matrix" values="0 0 0 0 0 0 0 0 0 0.792157 0 0 0 0 0.976471 0 0 0 1 0"/>
<feBlend mode="normal" in2="BackgroundImageFix" result="effect1_dropShadow_68_2018"/>
<feBlend mode="normal" in="SourceGraphic" in2="effect1_dropShadow_68_2018" result="shape"/>
</filter>
<linearGradient id="paint0_linear_68_2018" x1="450.097" y1="66.0569" x2="450.097" y2="322.447" gradientUnits="userSpaceOnUse">
<stop stop-color="#4895EF"/>
<stop offset="1" stop-color="#DD0EE2"/>
</linearGradient>
<linearGradient id="paint1_linear_68_2018" x1="776.783" y1="17.156" x2="776.783" y2="216.383" gradientUnits="userSpaceOnUse">
<stop stop-color="#4895EF"/>
<stop offset="1" stop-color="#DD0EE2"/>
</linearGradient>
<linearGradient id="paint2_linear_68_2018" x1="832.824" y1="154.126" x2="832.824" y2="216.385" gradientUnits="userSpaceOnUse">
<stop stop-color="#4895EF"/>
<stop offset="1" stop-color="#DD0EE2"/>
</linearGradient>
<linearGradient id="paint3_linear_68_2018" x1="112.539" y1="9.40503" x2="112.539" y2="206.609" gradientUnits="userSpaceOnUse">
<stop stop-color="#4895EF"/>
<stop offset="1" stop-color="#DD0EE2"/>
</linearGradient>
<linearGradient id="paint4_linear_68_2018" x1="200.042" y1="152.394" x2="200.042" y2="224.135" gradientUnits="userSpaceOnUse">
<stop stop-color="#4895EF"/>
<stop offset="1" stop-color="#DD0EE2"/>
</linearGradient>
<linearGradient id="paint5_linear_68_2018" x1="70.916" y1="91.2734" x2="70.916" y2="137.797" gradientUnits="userSpaceOnUse">
<stop stop-color="#4895EF"/>
<stop offset="1" stop-color="#DD0EE2"/>
</linearGradient>
<linearGradient id="paint6_linear_68_2018" x1="112.539" y1="71.9456" x2="112.539" y2="156.786" gradientUnits="userSpaceOnUse">
<stop stop-color="#4895EF"/>
<stop offset="1" stop-color="#DD0EE2"/>
</linearGradient>
<linearGradient id="paint7_linear_68_2018" x1="154.163" y1="91.2739" x2="154.163" y2="137.797" gradientUnits="userSpaceOnUse">
<stop stop-color="#4895EF"/>
<stop offset="1" stop-color="#DD0EE2"/>
</linearGradient>
<clipPath id="clip0_68_2018">
<rect width="256.396" height="256.396" fill="white" transform="translate(321.899 66.0503)"/>
</clipPath>
<clipPath id="clip1_68_2018">
<rect width="232.434" height="232.434" fill="white" transform="translate(660.566 0.553467)"/>
</clipPath>
<clipPath id="clip2_68_2018">
<rect width="232.434" height="232.434" fill="white" transform="translate(4 0.553467)"/>
</clipPath>
</defs>
</svg>
