<?xml version="1.0" encoding="UTF-8"?>
<svg id="Layer_2" data-name="Layer 2" xmlns="http://www.w3.org/2000/svg" xmlns:xlink="http://www.w3.org/1999/xlink" viewBox="0 0 165.36 165.12">
  <defs>
    <style>
      .cls-1 {
        fill: #180b40;
        filter: url(#outer-glow-1);
        stroke: url(#linear-gradient);
        stroke-miterlimit: 10;
        stroke-width: 7px;
      }

      .cls-2 {
        fill: #00aeef;
        filter: url(#outer-glow-2);
        stroke-width: 0px;
      }
    </style>
    <linearGradient id="linear-gradient" x1="30.86" y1="82.41" x2="135.88" y2="82.41" gradientTransform="translate(-.42 -.16) rotate(.18)" gradientUnits="userSpaceOnUse">
      <stop offset="0" stop-color="#50c8ef"/>
      <stop offset="1" stop-color="#354ea2"/>
    </linearGradient>
    <filter id="outer-glow-1" filterUnits="userSpaceOnUse">
      <feOffset dx="0" dy="0"/>
      <feGaussianBlur result="blur" stdDeviation="10"/>
      <feFlood flood-color="#5b8fcb" flood-opacity=".75"/>
      <feComposite in2="blur" operator="in"/>
      <feComposite in="SourceGraphic"/>
    </filter>
    <filter id="outer-glow-2" filterUnits="userSpaceOnUse">
      <feOffset dx="0" dy="0"/>
      <feGaussianBlur result="blur-2" stdDeviation="8"/>
      <feFlood flood-color="#5b8fcb" flood-opacity=".75"/>
      <feComposite in2="blur-2" operator="in"/>
      <feComposite in="SourceGraphic"/>
    </filter>
  </defs>
  <g id="Layer_1-2" data-name="Layer 1">
    <path class="cls-1" d="m102.12,131.47l-38.9-.02c-.53,0-1.04-.21-1.41-.59l-27.49-27.52c-.37-.38-.59-.88-.58-1.41l.02-38.9c0-.53.21-1.04.59-1.41l27.52-27.49c.38-.37.88-.59,1.41-.58l38.9.02c.53,0,1.04.21,1.41.59l27.49,27.52c.37.38.59.88.58,1.41l-.02,38.9c0,.53-.21,1.04-.59,1.41l-27.52,27.49c-.38.37-.88.59-1.41.58Z"/>
    <path class="cls-2" d="m93.62,110.67l-21.7.05c-.53,0-1.04-.21-1.42-.58l-15.38-15.3c-.38-.37-.59-.88-.59-1.41l-.05-21.7c0-.53.21-1.04.58-1.42l15.3-15.38c.37-.38.88-.59,1.41-.59l21.7-.05c.53,0,1.04.21,1.42.58l15.38,15.3c.38.37.59.88.59,1.41l.05,21.7c0,.53-.21,1.04-.58,1.42l-15.3,15.38c-.37.38-.88.59-1.41.59Z"/>
  </g>
</svg>