<svg width="130" height="130" viewBox="0 0 130 130" fill="none" xmlns="http://www.w3.org/2000/svg">
<path fill-rule="evenodd" clip-rule="evenodd" d="M121.04 61.8167C120.923 61.8401 120.806 62.0979 120.806 62.2385C120.783 63.1756 120.759 65.6595 120.759 67.3464C120.759 67.3933 120.83 67.4869 120.9 67.4869C121.251 67.5104 122.095 67.5338 122.821 67.5338C123.829 67.5338 124.415 67.3933 124.743 67.2528C125.586 66.831 125.984 65.917 125.984 64.9095C125.984 62.6368 124.391 61.7698 122.025 61.7698C121.861 61.7465 121.392 61.7465 121.04 61.8167ZM127.086 72.2903C127.086 69.9707 125.375 68.6819 122.282 68.6819C122.142 68.6819 121.158 68.6584 120.923 68.7054C120.853 68.7288 120.759 68.7757 120.759 68.8461C120.759 70.5096 120.736 73.1574 120.806 74.1882C120.853 74.6334 121.181 75.2661 121.58 75.4535C122.001 75.6879 122.962 75.7346 123.618 75.7346C125.469 75.7346 127.086 74.7038 127.086 72.2903ZM116.261 60.5281C116.495 60.5281 117.198 60.5982 119.002 60.5982C120.713 60.5982 122.072 60.5515 123.735 60.5515C125.774 60.5515 128.585 61.2778 128.585 64.3237C128.585 65.8234 127.531 67.0184 126.148 67.6042C126.078 67.6277 126.078 67.6744 126.148 67.6978C128.117 68.19 129.851 69.4084 129.851 71.7046C129.851 73.954 128.445 75.3832 126.406 76.2736C125.164 76.8125 123.618 76.9999 122.048 76.9999C120.853 76.9999 117.643 76.8594 115.862 76.9063C115.675 76.836 116.026 75.9924 116.19 75.8519C116.612 75.8284 116.94 75.8049 117.385 75.6644C118.018 75.5004 118.088 75.313 118.182 74.3524C118.229 73.5322 118.229 70.6266 118.229 68.5648C118.229 65.7296 118.252 63.8083 118.229 62.8711C118.205 62.1449 117.948 61.9105 117.432 61.7698C117.034 61.6996 116.378 61.6058 115.839 61.5356C115.722 61.4183 116.12 60.6217 116.261 60.5281ZM102.741 75.1021C103.304 75.5471 104.405 75.7346 105.389 75.7346C106.654 75.7346 107.919 75.5004 109.138 74.3991C110.38 73.2744 111.246 71.5406 111.246 68.7757C111.246 66.1279 110.239 63.9723 108.177 62.7072C107.006 61.9807 105.506 61.6762 103.772 61.6762C103.257 61.6762 102.764 61.6996 102.46 61.8401C102.39 61.887 102.226 62.0979 102.226 62.215C102.179 62.6837 102.179 66.2919 102.179 68.4009C102.179 70.5799 102.179 73.6259 102.226 73.9773C102.226 74.3289 102.39 74.8678 102.741 75.1021ZM97.4222 60.5281C97.8674 60.5281 99.5778 60.5982 100.398 60.5982C101.874 60.5982 102.928 60.5281 105.717 60.5281C108.06 60.5281 110.028 61.1608 111.434 62.3555C113.144 63.8318 114.035 65.8704 114.035 68.3539C114.035 71.892 112.418 73.9306 110.801 75.1021C109.185 76.2971 107.076 76.9999 104.077 76.9999C102.483 76.9999 99.742 76.953 97.4691 76.9296H97.4456C97.3285 76.7189 97.633 75.8988 97.8205 75.8753C98.4297 75.8049 98.5937 75.7815 98.8984 75.6644C99.3903 75.477 99.4842 75.2192 99.5546 74.3524C99.6247 72.7356 99.6012 70.7908 99.6012 68.5883C99.6012 67.0184 99.6247 63.9489 99.5778 62.9648C99.5076 62.1449 99.1562 61.934 98.4532 61.7932C98.1017 61.7231 97.633 61.6292 96.9771 61.5591C96.8833 61.3949 97.3051 60.6686 97.4222 60.5281Z" fill="#58AA50"/>
<path fill-rule="evenodd" clip-rule="evenodd" d="M69.071 76.0157C68.4852 75.9454 68.0634 75.8518 67.5478 75.6174C67.4777 75.5705 67.3604 75.3364 67.3604 75.2425C67.3135 74.4224 67.3135 72.0793 67.3135 70.5095C67.3135 69.2441 67.1028 68.143 66.5637 67.3698C65.931 66.4793 65.0173 65.9639 63.8458 65.9639C62.8148 65.9639 61.4323 66.6669 60.2843 67.651C60.2608 67.6743 60.0734 67.8385 60.0968 67.5806C60.0968 67.3228 60.1437 66.8074 60.1672 66.456C60.1906 66.1278 60.0032 65.9639 60.0032 65.9639C59.2532 66.3387 57.1445 66.8309 56.3713 66.9011C55.809 67.0183 55.6685 67.5572 56.2543 67.7446H56.2777C56.9102 67.9321 57.332 68.143 57.6599 68.3539C57.8943 68.5413 57.8708 68.7991 57.8708 69.01C57.8943 70.7673 57.8943 73.4618 57.8241 74.938C57.8007 75.5238 57.6367 75.7345 57.2149 75.8283L57.2616 75.8048C56.9336 75.8752 56.6758 75.9454 56.2775 75.9923C56.137 76.1328 56.137 76.8828 56.2775 77.0468C56.5353 77.0468 57.8943 76.9764 59.0191 76.9764C60.5655 76.9764 61.3622 77.0468 61.7605 77.0468C61.9245 76.8593 61.9714 76.1563 61.8776 75.9923C61.4323 75.9688 61.1044 75.9221 60.7999 75.8283C60.3781 75.7345 60.2608 75.5238 60.2373 75.0316C60.1906 73.7897 60.1906 71.1656 60.1906 69.3849C60.1906 68.8927 60.3312 68.6584 60.4717 68.5178C61.0105 68.0493 61.8776 67.7212 62.6508 67.7212C63.4005 67.7212 63.8927 67.9555 64.2676 68.2602C64.783 68.6818 64.9469 69.291 65.0173 69.7363C65.1344 70.7438 65.0877 72.7355 65.0877 74.4693C65.0877 75.4065 65.0173 75.6409 64.6659 75.7579C64.5019 75.8283 64.0801 75.9221 63.588 75.9688C63.424 76.1328 63.4709 76.8593 63.588 77.0233C64.2676 77.0233 65.0642 76.9529 66.2358 76.9529C67.6883 76.9529 68.6257 77.0233 69.0006 77.0233C69.1177 76.8828 69.1648 76.2032 69.071 76.0157ZM75.5613 67.0652C74.3194 67.0652 73.5462 68.0259 73.5462 69.5254C73.5462 71.0483 74.2256 72.8056 76.1471 72.8056C76.4751 72.8056 77.0843 72.6651 77.3653 72.3372C77.8106 71.9154 78.1153 71.0718 78.1153 70.1815C78.1153 68.2368 77.1544 67.0652 75.5613 67.0652ZM75.3971 77.4216C74.9286 77.4216 74.6005 77.5621 74.3898 77.6794C73.4055 78.3119 72.9605 78.9211 72.9605 79.6476C72.9605 80.327 73.218 80.8659 73.7806 81.3346C74.46 81.9203 75.3971 82.2016 76.5921 82.2016C78.9821 82.2016 80.0366 80.9128 80.0366 79.6476C80.0366 78.7571 79.5913 78.1714 78.6776 77.8434C78.0215 77.5621 76.8265 77.4216 75.3971 77.4216ZM75.5613 83.5136C74.132 83.5136 73.101 83.2089 72.2107 82.5296C71.3437 81.8734 70.9688 80.8893 70.9688 80.2099C70.9688 80.0225 71.0157 79.5069 71.4375 79.0384C71.6951 78.7571 72.2574 78.2183 73.5931 77.3046C73.6398 77.2811 73.6633 77.2576 73.6633 77.2107C73.6633 77.1638 73.6164 77.1169 73.5697 77.0937C72.4683 76.6719 72.1403 75.9923 72.0465 75.6174V75.5705C72.0233 75.43 71.9764 75.2894 72.1873 75.1487C72.3512 75.0316 72.5856 74.8911 72.8432 74.7271C73.2415 74.4928 73.6633 74.235 73.9211 74.0241C73.968 73.9772 73.968 73.9305 73.968 73.8836C73.968 73.8367 73.9211 73.7897 73.8742 73.7665C72.2342 73.2274 71.414 72.009 71.414 70.1815C71.414 68.9865 71.9529 67.9086 72.9135 67.2292C73.5697 66.7136 75.2097 66.0812 76.2876 66.0812H76.358C77.4592 66.1044 78.0684 66.3387 78.9352 66.6435C79.4039 66.8074 79.8491 66.8776 80.4584 66.8776C81.3721 66.8776 81.7704 66.5965 82.0984 66.2686C82.1218 66.3153 82.1688 66.4326 82.1922 66.7371C82.2157 67.0418 82.1218 67.4868 81.8875 67.815C81.7 68.0726 81.2785 68.2602 80.8567 68.2602H80.7394C80.3176 68.2133 80.1302 68.1664 80.1302 68.1664L80.0366 68.2133C80.0131 68.2602 80.0366 68.3069 80.06 68.3773L80.0835 68.4242C80.1302 68.6351 80.224 69.2676 80.224 69.4318C80.224 71.3531 79.4508 72.1964 78.6307 72.8291C77.834 73.4149 76.9203 73.7897 75.8893 73.8836C75.8658 73.8836 75.7722 73.8836 75.5613 73.907C75.444 73.907 75.2801 73.9305 75.2566 73.9305H75.2332C75.0457 73.9772 74.5772 74.2115 74.5772 74.6099C74.5772 74.9613 74.7881 75.3831 75.7955 75.4534C76.0064 75.4769 76.2172 75.4769 76.4516 75.5003C77.7871 75.594 79.4508 75.7112 80.224 75.9688C81.3017 76.3672 81.9813 77.3278 81.9813 78.4761C81.9813 80.2099 80.7394 81.8267 78.6776 82.8341C77.67 83.2793 76.6625 83.5136 75.5613 83.5136ZM88.9169 67.1823C88.4248 67.1823 87.9795 67.2994 87.6516 67.5337C86.7378 68.096 86.2691 69.2209 86.2691 70.8609C86.2691 73.9305 87.8155 76.0861 90.0181 76.0861C90.6742 76.0861 91.1896 75.8987 91.6349 75.5238C92.3142 74.9613 92.6659 73.8367 92.6659 72.2668C92.6659 69.2209 91.1427 67.1823 88.9169 67.1823ZM89.3387 77.2107C85.3554 77.2107 83.9261 74.2819 83.9261 71.5405C83.9261 69.6192 84.6993 68.143 86.2457 67.0885C87.3471 66.4091 88.6591 66.0342 89.8306 66.0342C92.8765 66.0342 95.0089 68.2133 95.0089 71.3531C95.0089 73.4852 94.1654 75.1722 92.5486 76.2032C91.7754 76.7186 90.4401 77.2107 89.3387 77.2107ZM47.5848 67.1823C47.0926 67.1823 46.6476 67.2994 46.3194 67.5337C45.4057 68.096 44.937 69.2209 44.937 70.8609C44.937 73.9305 46.4834 76.0861 48.686 76.0861C49.3421 76.0861 49.8575 75.8987 50.3028 75.5238C50.9821 74.9613 51.3338 73.8367 51.3338 72.2668C51.3338 69.2209 49.834 67.1823 47.5848 67.1823ZM48.0066 77.2107C44.0233 77.2107 42.5939 74.2819 42.5939 71.5405C42.5939 69.6192 43.3671 68.143 44.9136 67.0885C46.0149 66.4091 47.327 66.0342 48.4985 66.0342C51.5447 66.0342 53.6768 68.2133 53.6768 71.3531C53.6768 73.4852 52.8333 75.1722 51.2165 76.2032C50.4667 76.7186 49.1312 77.2107 48.0066 77.2107ZM21.2251 76.9764C21.1781 76.9062 21.1312 76.6953 21.1547 76.4375C21.1547 76.2501 21.2016 76.1328 21.2251 76.0861C21.717 76.0157 21.9748 75.9454 22.2559 75.8752C22.7246 75.7579 22.912 75.5003 22.9354 74.9146C23.0058 73.5087 23.0058 70.8374 22.9824 68.9865V68.9396C22.9824 68.7287 22.9824 68.4709 22.7246 68.2835C22.3497 68.0493 21.9044 67.8385 21.3187 67.6743C21.1078 67.6041 20.9673 67.4868 20.9907 67.3463C20.9907 67.2058 21.1312 67.0418 21.436 66.9949C22.2092 66.9245 24.224 66.4326 25.0207 66.0812C25.0676 66.1278 25.138 66.2686 25.138 66.456L25.1145 66.7136C25.0911 66.9714 25.0676 67.2761 25.0676 67.5806C25.0676 67.6743 25.1615 67.7446 25.2551 67.7446C25.302 67.7446 25.3489 67.7212 25.3958 67.6977C26.8953 66.5262 28.2543 66.1044 28.9571 66.1044C30.1054 66.1044 30.9957 66.6435 31.6753 67.7681C31.722 67.8385 31.7689 67.8617 31.8392 67.8617C31.8862 67.8617 31.9563 67.8385 31.9798 67.7915C33.3622 66.7371 34.7446 66.1044 35.6584 66.1044C37.8374 66.1044 39.1263 67.7212 39.1263 70.4626C39.1263 71.2358 39.1263 72.2433 39.1028 73.1573C39.1028 73.9772 39.0793 74.7271 39.0793 75.266C39.0793 75.3831 39.2433 75.7579 39.5011 75.8283C39.8291 75.9923 40.2743 76.0627 40.8601 76.1563H40.8836C40.9305 76.3202 40.8366 76.9295 40.743 77.0468C40.6023 77.0468 40.3914 77.0468 40.1573 77.0233C39.712 76.9998 39.0793 76.9764 38.3765 76.9764C36.9237 76.9764 36.174 76.9998 35.4475 77.0468C35.4008 76.8593 35.3773 76.297 35.4475 76.1563C35.8692 76.0861 36.0801 76.0157 36.3379 75.9454C36.8066 75.8048 36.9237 75.594 36.9472 74.9847C36.9472 74.5397 37.0408 70.7438 36.9003 69.8299C36.7597 68.8927 36.0567 67.7915 34.5103 67.7915C33.9245 67.7915 33.0108 68.0259 32.1203 68.7053C32.0736 68.7522 32.0267 68.8692 32.0267 68.9396V68.9631C32.1203 69.455 32.1203 70.0175 32.1203 70.8844V72.4073C32.1203 73.4618 32.0968 74.4459 32.1203 75.1956C32.1203 75.7112 32.425 75.8283 32.6828 75.9221C32.8233 75.9454 32.917 75.9688 33.0342 75.9923C33.2451 76.0392 33.456 76.0861 33.784 76.1563C33.8309 76.2501 33.8309 76.5546 33.7605 76.8124C33.7371 76.9529 33.6902 77.0233 33.6669 77.0468C32.8703 77.0233 32.0501 76.9998 30.8551 76.9998C30.5037 76.9998 29.8945 77.0233 29.3789 77.0233C28.9571 77.0233 28.5588 77.0468 28.3246 77.0468C28.3012 76.9998 28.2543 76.8359 28.2543 76.578C28.2543 76.3672 28.3012 76.2032 28.3481 76.1563C28.4652 76.1328 28.5588 76.1096 28.6761 76.1096C28.9571 76.0627 29.1915 76.0157 29.4258 75.9688C29.8241 75.8518 29.9647 75.6409 29.9881 75.1255C30.0585 73.9539 30.1286 70.6033 29.9647 69.7597C29.6836 68.4008 28.9104 67.7212 27.6685 67.7212C26.9422 67.7212 26.0283 68.0726 25.2785 68.6351C25.1615 68.7287 25.0676 68.9631 25.0676 69.174V70.5564C25.0676 72.2433 25.0676 74.3523 25.0911 75.266C25.1145 75.547 25.2081 75.8752 25.7472 75.9923C25.8643 76.0157 26.0517 76.0627 26.2861 76.0861L26.7079 76.1563C26.7548 76.297 26.7313 76.8593 26.6375 77.0468C26.4031 77.0468 26.1221 77.0233 25.7939 77.0233C25.302 76.9998 24.6693 76.9764 23.9665 76.9764C23.1463 76.9764 22.5606 76.9998 22.0919 77.0233C21.7639 76.9764 21.5061 76.9764 21.2251 76.9764Z" fill="white"/>
<path fill-rule="evenodd" clip-rule="evenodd" d="M8.90028 82.6001L7.93964 82.2719C7.93964 82.2719 8.05693 77.3749 6.29963 77.0235C5.12809 75.6645 6.48706 19.3835 10.7045 76.836C10.7045 76.836 9.25192 77.5623 8.99411 78.8042C8.71285 80.0227 8.90028 82.6001 8.90028 82.6001Z" fill="white"/>
<path fill-rule="evenodd" clip-rule="evenodd" d="M8.90028 82.6001L7.93964 82.2719C7.93964 82.2719 8.05693 77.3749 6.29963 77.0235C5.12809 75.6645 6.48706 19.3835 10.7045 76.836C10.7045 76.836 9.25192 77.5623 8.99411 78.8042C8.71285 80.0227 8.90028 82.6001 8.90028 82.6001Z" fill="#A6A385"/>
<path fill-rule="evenodd" clip-rule="evenodd" d="M9.41589 77.8669C9.41589 77.8669 17.8275 72.3372 15.8593 60.8325C13.9615 52.4678 9.48604 49.7264 8.9941 48.6719C8.45525 47.9222 7.93964 46.6101 7.93964 46.6101L8.29127 69.8768C8.29127 69.9003 7.56476 76.9999 9.41589 77.8669Z" fill="white"/>
<path fill-rule="evenodd" clip-rule="evenodd" d="M9.41589 77.8669C9.41589 77.8669 17.8275 72.3372 15.8593 60.8325C13.9615 52.4678 9.48604 49.7264 8.9941 48.6719C8.45525 47.9222 7.93964 46.6101 7.93964 46.6101L8.29127 69.8768C8.29127 69.9003 7.56476 76.9999 9.41589 77.8669Z" fill="#499D4A"/>
<path fill-rule="evenodd" clip-rule="evenodd" d="M7.4477 78.1715C7.4477 78.1715 -0.44854 72.7823 0.0201612 63.2929C0.465186 53.8034 6.04181 49.1407 7.11952 48.2971C7.82257 47.5474 7.84603 47.2661 7.89294 46.5164C8.38488 47.5708 8.29127 62.2854 8.36143 64.0192C8.57232 70.697 7.98655 76.9063 7.4477 78.1715Z" fill="white"/>
<path fill-rule="evenodd" clip-rule="evenodd" d="M7.4477 78.1715C7.4477 78.1715 -0.44854 72.7823 0.0201612 63.2929C0.465186 53.8034 6.04181 49.1407 7.11952 48.2971C7.82257 47.5474 7.84603 47.2661 7.89294 46.5164C8.38488 47.5708 8.29127 62.2854 8.36143 64.0192C8.57232 70.697 7.98655 76.9063 7.4477 78.1715Z" fill="#58AA50"/>
</svg>
