<svg width="130" height="130" viewBox="0 0 130 130" fill="none" xmlns="http://www.w3.org/2000/svg">
<g clip-path="url(#clip0_81_273)">
<path d="M39.7935 92.7189H36.274C36.1495 86.7783 35.8068 81.1934 35.2464 75.9601H35.2151L29.8567 92.7189H27.1771L21.8506 75.9601H21.82C21.4249 80.9846 21.176 86.5709 21.0726 92.7189H17.8646C18.0714 85.2426 18.591 78.2336 19.4214 71.6912H23.7835L28.8603 87.1421H28.8916L33.9998 71.6912H38.1735C39.0875 79.3544 39.6275 86.3641 39.7935 92.7189ZM55.0567 77.2047C53.6238 84.9808 51.7331 90.631 49.3868 94.158C47.5587 96.8729 45.5559 98.2317 43.3748 98.2317C42.7933 98.2317 42.0758 98.0562 41.2257 97.708V95.833C41.6413 95.8929 42.1289 95.9269 42.6893 95.9269C43.7081 95.9269 44.5269 95.6467 45.1512 95.0849C45.898 94.4007 46.2713 93.6316 46.2713 92.7808C46.2713 92.1973 45.9802 91.0044 45.3995 89.1981L41.5372 77.204H44.9948L47.7668 86.1744C48.3898 88.2112 48.6496 89.6333 48.5456 90.4433C50.0615 86.3947 51.1204 81.9803 51.7236 77.2033H55.0567V77.2047Z" fill="#5D87A1"/>
<path d="M101.905 92.7187H91.9075V71.691H95.2705V90.1303H101.905V92.7187ZM89.2905 93.2268L85.4248 91.3191C85.7676 91.0376 86.0954 90.7329 86.3906 90.3799C88.0337 88.4498 88.8532 85.5955 88.8532 81.8148C88.8532 74.8582 86.1233 71.3782 80.6615 71.3782C77.9833 71.3782 75.894 72.2609 74.3999 74.0271C72.7581 75.9586 71.9386 78.8027 71.9386 82.5629C71.9386 86.2592 72.665 88.9708 74.1183 90.6907C75.4479 92.2488 77.4521 93.0289 80.1324 93.0289C81.1321 93.0289 82.0495 92.9064 82.8854 92.6596L87.918 95.5894L89.2905 93.2268ZM76.768 88.511C75.9165 87.1413 75.4907 84.9419 75.4907 81.9094C75.4907 76.6149 77.0992 73.9646 80.3194 73.9646C82.0026 73.9646 83.2363 74.5984 84.0252 75.8634C84.8753 77.2351 85.3031 79.4148 85.3031 82.4052C85.3031 87.7432 83.6933 90.4125 80.4751 90.4125C78.7912 90.4132 77.5575 89.7814 76.768 88.511ZM70.473 86.8904C70.473 88.6736 69.8188 90.1364 68.5117 91.2824C67.2032 92.4236 65.4485 92.9955 63.2498 92.9955C61.1932 92.9955 59.1992 92.3386 57.2691 91.0314L58.1729 89.2258C59.8337 90.0575 61.3374 90.471 62.6874 90.471C63.9544 90.471 64.9446 90.1902 65.6628 89.6332C66.3803 89.0741 66.808 88.29 66.808 87.2984C66.808 86.0491 65.9368 84.9813 64.3386 84.087C62.8649 83.2777 59.9173 81.5857 59.9173 81.5857C58.3198 80.4213 57.52 79.1713 57.52 77.112C57.52 75.4077 58.1165 74.0319 59.31 72.9852C60.5049 71.9345 62.0467 71.4108 63.9367 71.4108C65.8885 71.4108 67.6629 71.9338 69.2611 72.9689L68.4504 74.7752C67.0835 74.1944 65.7342 73.904 64.4032 73.904C63.3253 73.904 62.4929 74.1631 61.9141 74.6834C61.3306 75.2016 60.9708 75.8647 60.9708 76.6781C60.9708 77.9213 61.8604 79.0027 63.5021 79.9147C64.9956 80.7253 68.0165 82.4466 68.0165 82.4466C69.6549 83.6089 70.473 84.8474 70.473 86.8904Z" fill="#F8981D"/>
<path d="M106.127 64.648C104.093 64.5963 102.519 64.801 101.197 65.3601C100.816 65.5124 100.209 65.5124 100.156 65.9946C100.362 66.1986 100.386 66.5278 100.565 66.8093C100.87 67.3174 101.401 68.0009 101.886 68.3572C102.418 68.7653 102.953 69.1693 103.513 69.5249C104.501 70.1363 105.621 70.492 106.584 71.1014C107.146 71.4557 107.703 71.9141 108.265 72.2956C108.541 72.499 108.718 72.8288 109.076 72.956V72.8785C108.897 72.65 108.846 72.3194 108.67 72.0651L107.907 71.3292C107.169 70.339 106.253 69.4746 105.265 68.7646C104.452 68.2042 102.673 67.4425 102.343 66.5053L102.291 66.4537C102.85 66.4013 103.513 66.1986 104.044 66.0429C104.909 65.8151 105.697 65.8667 106.584 65.6389C106.992 65.5369 107.397 65.409 107.806 65.2832V65.054C107.346 64.5963 107.018 63.9883 106.535 63.5558C105.241 62.4384 103.816 61.3455 102.343 60.4308C101.554 59.9214 100.539 59.5936 99.6992 59.1604C99.3966 59.0073 98.8865 58.9319 98.7083 58.6775C98.2527 58.1185 97.9963 57.3826 97.6658 56.7209C96.9313 55.3247 96.2178 53.7754 95.584 52.2989C95.1256 51.3087 94.8468 50.3199 94.2878 49.4038C91.6694 45.0852 88.8259 42.4696 84.4557 39.9022C83.5165 39.3677 82.3991 39.1399 81.2055 38.8597L79.2992 38.759C78.8925 38.5808 78.4852 38.0973 78.1302 37.8688C76.6802 36.9547 72.9472 34.9736 71.8808 37.5893C71.1939 39.2426 72.8969 40.868 73.4817 41.7065C73.9136 42.2887 74.4733 42.9511 74.7753 43.6121C74.9541 44.044 75.0045 44.5024 75.1833 44.9587C75.59 46.0768 75.9702 47.3207 76.5047 48.3639C76.7836 48.8958 77.0876 49.4548 77.444 49.9363C77.648 50.2179 78.003 50.3423 78.0805 50.8014C77.7262 51.3074 77.6983 52.0711 77.495 52.7063C76.5809 55.577 76.938 59.1332 78.2335 61.2428C78.6389 61.878 79.606 63.2763 80.8995 62.7404C82.0448 62.2833 81.7911 60.8354 82.1203 59.5657C82.1957 59.259 82.1461 59.0577 82.2984 58.8564V58.906C82.6528 59.6167 83.0105 60.3016 83.339 61.0143C84.1272 62.2582 85.4996 63.5544 86.6429 64.4161C87.2515 64.8759 87.7337 65.662 88.4961 65.9429V65.8667H88.4458C88.2914 65.6389 88.0656 65.5369 87.8629 65.3601C87.4046 64.9024 86.8972 64.3433 86.5415 63.836C85.4765 62.4126 84.5339 60.8368 83.6974 59.2107C83.288 58.4218 82.935 57.5594 82.6052 56.7719C82.4515 56.4679 82.4515 56.0095 82.1964 55.8565C81.8142 56.4148 81.2572 56.8984 80.9784 57.5826C80.4948 58.6768 80.4445 60.0227 80.265 61.4224L80.165 61.4713C79.3557 61.268 79.0741 60.4308 78.7667 59.7201C78.0057 57.9151 77.8779 55.0179 78.5382 52.9355C78.715 52.403 79.4801 50.7259 79.1748 50.2185C79.0218 49.7323 78.5131 49.4555 78.2342 49.0726C77.9064 48.5911 77.5473 47.9817 77.3188 47.4472C76.7095 46.0251 76.4027 44.4493 75.7464 43.0279C75.4397 42.3655 74.9072 41.68 74.476 41.07C73.9918 40.3844 73.4593 39.9016 73.0764 39.0889C72.9499 38.8093 72.7724 38.3523 72.9758 38.0483C73.0254 37.8443 73.1288 37.7681 73.3314 37.7171C73.6606 37.439 74.6012 37.7926 74.931 37.9456C75.8729 38.3265 76.6605 38.6822 77.4467 39.2154C77.8024 39.4704 78.1839 39.9532 78.6402 40.0804H79.1748C79.9861 40.2573 80.9009 40.1294 81.6646 40.3593C83.0105 40.7918 84.2299 41.4263 85.3235 42.1112C88.6512 44.2215 91.3953 47.22 93.2479 50.8014C93.5519 51.3849 93.6811 51.9194 93.9586 52.5281C94.4938 53.7741 95.1555 55.0445 95.6867 56.2639C96.2206 57.4574 96.7293 58.6761 97.4917 59.6677C97.8718 60.2009 99.3993 60.4804 100.084 60.7599C100.591 60.9878 101.38 61.1904 101.837 61.47C102.701 62.0025 103.562 62.6139 104.375 63.1994C104.78 63.5041 106.051 64.1393 106.127 64.648ZM80.2112 42.5696C79.8605 42.5659 79.5108 42.6089 79.1714 42.6974V42.7484H79.2203C79.4251 43.1544 79.7807 43.436 80.0344 43.7903C80.2391 44.1977 80.4166 44.6017 80.6173 45.0084L80.6662 44.958C81.0246 44.7044 81.2028 44.2977 81.2028 43.6876C81.0484 43.5081 81.0246 43.3326 80.8961 43.1544C80.7465 42.9001 80.4166 42.7736 80.2112 42.5696Z" fill="#5D87A1"/>
<path d="M108.547 92.7153H109.073V90.1391H108.283L107.639 91.8971L106.939 90.1391H106.179V92.7153H106.676V90.7553H106.704L107.437 92.7153H107.816L108.547 90.7553V92.7153ZM104.306 92.7153H104.863V90.5757H105.592V90.1384H103.547V90.5757H104.305L104.306 92.7153Z" fill="#F8981D"/>
</g>
<defs>
<clipPath id="clip0_81_273">
<rect width="130" height="130" fill="white"/>
</clipPath>
</defs>
</svg>
