<svg width="130" height="130" viewBox="0 0 130 130" fill="none" xmlns="http://www.w3.org/2000/svg">
<g clip-path="url(#clip0_81_2)">
<path d="M30.6745 46.2265H55.1937V48.1753H32.9221V62.8427H53.8656V64.7916H32.9221V80.895H55.4491V82.8438H30.6745V46.2265ZM57.3902 46.2265H59.9954L71.5398 62.3299L83.3397 46.2265L99.3894 25.7715L73.0212 64.0223L86.6089 82.8438H83.9016L71.5398 65.7147L59.127 82.8438H56.4708L70.1606 64.0223L57.3902 46.2265ZM87.5795 48.1753V46.2265H115.521V48.1753H102.649V82.8438H100.401V48.1753H87.5795ZM0 46.2265H2.80949L41.5507 104.199L25.5408 82.8438L2.34976 48.9959L2.24759 82.8438H0V46.2265ZM115.295 80.3069C114.835 80.3069 114.491 79.9511 114.491 79.4913C114.491 79.0315 114.835 78.6757 115.295 78.6757C115.759 78.6757 116.098 79.0315 116.098 79.4913C116.098 79.9511 115.759 80.3069 115.295 80.3069ZM117.503 78.1611H118.706C118.722 78.8125 119.198 79.2504 119.898 79.2504C120.679 79.2504 121.122 78.7797 121.122 77.8984V72.3151H122.347V77.9039C122.347 79.4913 121.428 80.4054 119.909 80.4054C118.482 80.4054 117.503 79.5186 117.503 78.1611ZM123.948 78.09H125.162C125.266 78.8399 125.998 79.3161 127.053 79.3161C128.037 79.3161 128.759 78.807 128.759 78.1064C128.759 77.5043 128.3 77.143 127.256 76.8967L126.239 76.6504C124.812 76.3165 124.162 75.6268 124.162 74.4663C124.162 73.0596 125.31 72.1235 127.032 72.1235C128.633 72.1235 129.803 73.0596 129.874 74.3897H128.683C128.568 73.6617 127.934 73.2074 127.015 73.2074C126.048 73.2074 125.403 73.6726 125.403 74.3842C125.403 74.948 125.818 75.271 126.846 75.5118L127.715 75.7253C129.333 76.103 130 76.7598 130 77.9477C130 79.4584 128.83 80.4054 126.961 80.4054C125.211 80.4054 124.036 79.5022 123.948 78.09Z" fill="white" stroke="white" stroke-width="1.5625"/>
</g>
<defs>
<clipPath id="clip0_81_2">
<rect width="130" height="130" fill="white"/>
</clipPath>
</defs>
</svg>
