<svg width="130" height="130" viewBox="0 0 130 130" fill="none" xmlns="http://www.w3.org/2000/svg">
<path d="M64.2662 104.633C63.8262 104.633 63.4154 104.516 63.0337 104.31L59.131 101.992C58.5439 101.669 58.8374 101.552 59.0136 101.493C59.8058 101.229 59.9526 101.17 60.7742 100.701C60.8623 100.642 60.9799 100.672 61.0678 100.73L64.0611 102.52C64.1784 102.579 64.3251 102.579 64.413 102.52L76.1219 95.7417C76.2392 95.683 76.2981 95.5655 76.2981 95.419V81.8908C76.2981 81.7438 76.2392 81.6268 76.1219 81.5679L64.413 74.8185C64.2957 74.7596 64.1489 74.7596 64.0611 74.8185L52.3522 81.5679C52.2349 81.6265 52.176 81.7733 52.176 81.8906V95.4187C52.176 95.5363 52.2349 95.6828 52.3522 95.7417L55.5509 97.5904C57.2823 98.4707 58.368 97.4436 58.368 96.4166V83.0644C58.368 82.8884 58.5147 82.7122 58.7201 82.7122H60.2167C60.3929 82.7122 60.5688 82.859 60.5688 83.0644V96.4166C60.5688 98.7347 59.3069 100.085 57.1061 100.085C56.4312 100.085 55.903 100.085 54.4063 99.351L51.3251 97.5904C50.5621 97.1503 50.0927 96.3284 50.0927 95.4482V81.92C50.0927 81.0397 50.5621 80.2178 51.3251 79.7778L63.0337 72.999C63.7675 72.5882 64.7654 72.5882 65.4989 72.999L77.2076 79.7778C77.9705 80.2178 78.4403 81.0397 78.4403 81.92V95.4482C78.4403 96.3284 77.9705 97.1503 77.2076 97.5904L65.4989 104.369C65.1173 104.545 64.677 104.633 64.2662 104.633ZM67.8757 95.3309C62.7405 95.3309 61.684 92.9832 61.684 90.9878C61.684 90.8116 61.8307 90.6356 62.0361 90.6356H63.5621C63.7381 90.6356 63.8848 90.7529 63.8848 90.9291C64.1197 92.4843 64.7946 93.2473 67.9052 93.2473C70.3701 93.2473 71.4269 92.6897 71.4269 91.3692C71.4269 90.6062 71.1331 90.0488 67.289 89.6672C64.0903 89.3442 62.0948 88.6402 62.0948 86.0871C62.0948 83.7101 64.0905 82.3014 67.4357 82.3014C71.1918 82.3014 73.0407 83.5928 73.2756 86.4096C73.2756 86.498 73.2461 86.5858 73.1875 86.6739C73.1286 86.7326 73.0407 86.7912 72.9526 86.7912H71.4266C71.2799 86.7912 71.1331 86.6739 71.1039 86.5272C70.7517 84.9133 69.842 84.385 67.4357 84.385C64.7359 84.385 64.413 85.3242 64.413 86.0282C64.413 86.8793 64.7946 87.1434 68.4333 87.6129C72.0428 88.0826 73.745 88.7575 73.745 91.281C73.7156 93.8635 71.6028 95.3309 67.8757 95.3309Z" fill="#539E43"/>
<path d="M27.9368 51.7238C27.9368 51.1957 27.6433 50.6965 27.1738 50.4325L14.7314 43.2723C14.5257 43.1547 14.2911 43.0961 14.0565 43.0666H13.9389C13.7043 43.0666 13.4695 43.1547 13.2641 43.2723L0.821639 50.4325C0.351913 50.6965 0.058651 51.1954 0.058651 51.7238L0.0881041 70.9742C0.0881041 71.2383 0.234862 71.5024 0.469471 71.6199C0.704334 71.7667 0.997596 71.7667 1.20326 71.6199L8.59828 67.3942C9.06775 67.1301 9.36127 66.6312 9.36127 66.103V57.0939C9.36127 56.5658 9.65453 56.0669 10.1243 55.8028L13.2641 53.9833C13.4989 53.8366 13.763 53.7777 14.027 53.7777C14.2911 53.7777 14.5552 53.8366 14.7608 53.9833L17.9006 55.8028C18.3704 56.0669 18.6636 56.5656 18.6636 57.0939V66.103C18.6636 66.6312 18.9571 67.1301 19.4266 67.3942L26.8216 71.6199C27.0565 71.7667 27.3498 71.7667 27.5846 71.6199C27.8195 71.5024 27.9662 71.2383 27.9662 70.9742L27.9368 51.7238ZM87.7426 25.2249C87.508 25.1073 87.2145 25.1073 87.0088 25.2249C86.7742 25.3716 86.6275 25.6063 86.6275 25.8703V44.945C86.6275 45.121 86.5396 45.2969 86.3634 45.4145C86.1875 45.5024 86.0112 45.5024 85.8353 45.4145L82.7247 43.6245C82.4966 43.4946 82.2387 43.4263 81.9763 43.4263C81.7139 43.4263 81.456 43.4946 81.2279 43.6245L68.7855 50.8141C68.316 51.0781 68.0225 51.5771 68.0225 52.1052V66.4549C68.0225 66.9831 68.316 67.4823 68.7855 67.7463L81.2279 74.9359C81.456 75.0658 81.7139 75.1341 81.9763 75.1341C82.2387 75.1341 82.4966 75.0658 82.7247 74.9359L95.1671 67.7463C95.6366 67.4823 95.9301 66.9833 95.9301 66.4549V30.6831C95.9301 30.1255 95.6366 29.6269 95.1671 29.3625L87.7426 25.2249ZM86.5983 61.7305C86.5983 61.8773 86.5396 61.9946 86.4221 62.0532L82.1671 64.5182C82.1077 64.5471 82.0424 64.5622 81.9763 64.5622C81.9102 64.5622 81.8449 64.5471 81.7855 64.5182L77.5305 62.0532C77.413 61.9946 77.3543 61.8478 77.3543 61.7305V56.8004C77.3543 56.6537 77.413 56.5364 77.5305 56.4777L81.7855 54.0125C81.8449 53.9835 81.9102 53.9685 81.9763 53.9685C82.0424 53.9685 82.1077 53.9835 82.1671 54.0125L86.4221 56.4777C86.5396 56.5361 86.5983 56.6831 86.5983 56.8004V61.7305ZM129.149 56.6831C129.619 56.4191 129.883 55.9201 129.883 55.3917V51.8998C129.883 51.3716 129.589 50.8727 129.149 50.6087L116.795 43.4485C116.567 43.3187 116.309 43.2505 116.046 43.2505C115.784 43.2505 115.526 43.3187 115.298 43.4485L102.856 50.6379C102.386 50.9019 102.093 51.4009 102.093 51.9292V66.279C102.093 66.8071 102.386 67.306 102.856 67.5701L115.21 74.613C115.68 74.877 116.237 74.877 116.677 74.613L124.16 70.4464C124.395 70.3288 124.542 70.0647 124.542 69.8007C124.542 69.5366 124.395 69.2725 124.16 69.155L111.659 61.9654C111.424 61.8189 111.278 61.584 111.278 61.3199V56.8301C111.278 56.5661 111.424 56.302 111.659 56.1844L115.562 53.9541C115.676 53.8822 115.809 53.8441 115.944 53.8441C116.079 53.8441 116.211 53.8822 116.325 53.9541L120.228 56.1844C120.463 56.3312 120.61 56.5658 120.61 56.8301V60.3516C120.61 60.6156 120.756 60.8797 120.991 60.997C121.226 61.1437 121.519 61.1437 121.754 60.997L129.149 56.6831Z" fill="url(#paint0_linear_81_238)"/>
<path d="M115.856 56.0083C115.899 55.9796 115.95 55.9644 116.002 55.9644C116.054 55.9644 116.105 55.9796 116.149 56.0083L118.526 57.3875C118.614 57.4459 118.673 57.534 118.673 57.6516V60.41C118.673 60.5273 118.614 60.6154 118.526 60.6741L116.149 62.0533C116.105 62.082 116.054 62.0972 116.002 62.0972C115.95 62.0972 115.899 62.082 115.856 62.0533L113.479 60.6741C113.39 60.6154 113.332 60.5273 113.332 60.41V57.6516C113.332 57.534 113.39 57.4459 113.479 57.3875L115.856 56.0083Z" fill="#539E43"/>
<path d="M48.7426 43.5071C48.5146 43.3773 48.2568 43.3091 47.9944 43.3091C47.732 43.3091 47.4741 43.3773 47.2461 43.5071L34.8918 50.6376C34.4221 50.9016 34.158 51.4006 34.158 51.9287V66.2201C34.158 66.7482 34.4515 67.2471 34.8918 67.5112L47.2461 74.6421C47.4741 74.7719 47.732 74.8402 47.9944 74.8402C48.2568 74.8402 48.5146 74.7719 48.7426 74.6421L61.0972 67.5112C61.5667 67.2471 61.831 66.7482 61.831 66.2201V51.929C61.831 51.4008 61.5372 50.9019 61.0972 50.6378L48.7426 43.5071Z" fill="url(#paint1_linear_81_238)"/>
<mask id="mask0_81_238" style="mask-type:luminance" maskUnits="userSpaceOnUse" x="34" y="43" width="28" height="32">
<path d="M48.7426 43.5071C48.5146 43.3773 48.2568 43.3091 47.9944 43.3091C47.732 43.3091 47.4741 43.3773 47.2461 43.5071L34.8918 50.6376C34.4221 50.9016 34.158 51.4006 34.158 51.9287V66.2201C34.158 66.7482 34.4515 67.2471 34.8918 67.5112L47.2461 74.6421C47.4741 74.7719 47.732 74.8402 47.9944 74.8402C48.2568 74.8402 48.5146 74.7719 48.7426 74.6421L61.0972 67.5112C61.5667 67.2471 61.831 66.7482 61.831 66.2201V51.929C61.831 51.4008 61.5372 50.9019 61.0972 50.6378L48.7426 43.5071Z" fill="white"/>
</mask>
<g mask="url(#mask0_81_238)">
<path d="M61.1264 50.6378L48.7134 43.5071C48.5915 43.4455 48.4636 43.3964 48.3318 43.3604L34.4221 67.1889C34.5373 67.3296 34.6765 67.4488 34.8331 67.5411L47.2461 74.6721C47.5983 74.8775 48.0091 74.9361 48.3905 74.8186L61.4494 50.9316C61.3613 50.8143 61.2437 50.7257 61.1264 50.6378Z" fill="url(#paint2_linear_81_238)"/>
</g>
<mask id="mask1_81_238" style="mask-type:luminance" maskUnits="userSpaceOnUse" x="34" y="43" width="28" height="32">
<path d="M48.7426 43.5071C48.5146 43.3773 48.2568 43.3091 47.9944 43.3091C47.732 43.3091 47.4741 43.3773 47.2461 43.5071L34.8918 50.6376C34.4221 50.9016 34.158 51.4006 34.158 51.9287V66.2201C34.158 66.7482 34.4515 67.2471 34.8918 67.5112L47.2461 74.6421C47.4741 74.7719 47.732 74.8402 47.9944 74.8402C48.2568 74.8402 48.5146 74.7719 48.7426 74.6421L61.0972 67.5112C61.5667 67.2471 61.831 66.7482 61.831 66.2201V51.929C61.831 51.4008 61.5372 50.9019 61.0972 50.6378L48.7426 43.5071Z" fill="white"/>
</mask>
<g mask="url(#mask1_81_238)">
<path fill-rule="evenodd" clip-rule="evenodd" d="M61.1559 67.5114C61.508 67.306 61.7721 66.9538 61.8896 66.5725L48.2729 43.3309C47.9207 43.2723 47.5391 43.3015 47.2167 43.5069L34.8915 50.6086L48.1848 74.8478C48.3781 74.8161 48.5659 74.7569 48.7424 74.6718L61.1556 67.5117L61.1559 67.5114Z" fill="url(#paint3_linear_81_238)"/>
<path fill-rule="evenodd" clip-rule="evenodd" d="M61.1559 67.5116L48.7721 74.6426C48.5973 74.7317 48.4088 74.7912 48.2145 74.8185L48.4494 75.2588L62.1829 67.3065V67.1302L61.8307 66.5432C61.7721 66.954 61.508 67.3062 61.1559 67.5116Z" fill="url(#paint4_linear_81_238)"/>
<path fill-rule="evenodd" clip-rule="evenodd" d="M61.1559 67.5116L48.7721 74.6426C48.5973 74.7317 48.4088 74.7912 48.2145 74.8185L48.4494 75.2588L62.1829 67.3065V67.1302L61.8307 66.5432C61.7721 66.954 61.508 67.3062 61.1559 67.5116Z" fill="url(#paint5_linear_81_238)"/>
</g>
<defs>
<linearGradient id="paint0_linear_81_238" x1="64.9707" y1="25.1367" x2="64.9707" y2="75.134" gradientUnits="userSpaceOnUse">
<stop offset="0.73" stop-color="white"/>
<stop offset="1" stop-color="#999999"/>
</linearGradient>
<linearGradient id="paint1_linear_81_238" x1="1921.12" y1="594.694" x2="566.97" y2="2722.47" gradientUnits="userSpaceOnUse">
<stop stop-color="#41873F"/>
<stop offset="0.3288" stop-color="#418B3D"/>
<stop offset="0.6352" stop-color="#419637"/>
<stop offset="0.9319" stop-color="#3FA92D"/>
<stop offset="1" stop-color="#3FAE2A"/>
</linearGradient>
<linearGradient id="paint2_linear_81_238" x1="1204.08" y1="1782.19" x2="4595.49" y2="-60.3803" gradientUnits="userSpaceOnUse">
<stop offset="0.1376" stop-color="#41873F"/>
<stop offset="0.4032" stop-color="#54A044"/>
<stop offset="0.7136" stop-color="#66B848"/>
<stop offset="0.9081" stop-color="#6CC04A"/>
</linearGradient>
<linearGradient id="paint3_linear_81_238" x1="-83.6032" y1="1620.39" x2="2775.17" y2="1620.39" gradientUnits="userSpaceOnUse">
<stop offset="0.09192" stop-color="#6CC04A"/>
<stop offset="0.2864" stop-color="#66B848"/>
<stop offset="0.5968" stop-color="#54A044"/>
<stop offset="0.8624" stop-color="#41873F"/>
</linearGradient>
<linearGradient id="paint4_linear_81_238" x1="-1402.56" y1="504.719" x2="1456.19" y2="504.719" gradientUnits="userSpaceOnUse">
<stop offset="0.09192" stop-color="#6CC04A"/>
<stop offset="0.2864" stop-color="#66B848"/>
<stop offset="0.5968" stop-color="#54A044"/>
<stop offset="0.8624" stop-color="#41873F"/>
</linearGradient>
<linearGradient id="paint5_linear_81_238" x1="1872.67" y1="-1773.05" x2="1148.44" y2="2021.91" gradientUnits="userSpaceOnUse">
<stop stop-color="#41873F"/>
<stop offset="0.3288" stop-color="#418B3D"/>
<stop offset="0.6352" stop-color="#419637"/>
<stop offset="0.9319" stop-color="#3FA92D"/>
<stop offset="1" stop-color="#3FAE2A"/>
</linearGradient>
</defs>
</svg>
