<?xml version="1.0" encoding="UTF-8"?>
<svg xmlns="http://www.w3.org/2000/svg" xmlns:xlink="http://www.w3.org/1999/xlink" viewBox="0 0 2600 1600">
  <defs>
    <style>
      .cls-1 {
        isolation: isolate;
      }

      .cls-2 {
        fill: none;
      }

      .cls-2, .cls-3, .cls-4 {
        stroke-width: 0px;
      }

      .cls-5 {
        clip-path: url(#clippath);
      }

      .cls-3 {
        fill: url(#radial-gradient);
      }

      .cls-4 {
        fill: #00e1ff;
      }

      .cls-6 {
        mix-blend-mode: overlay;
      }
    </style>
    <clipPath id="clippath">
      <rect class="cls-2" width="2600" height="1600"/>
    </clipPath>
    <radialGradient id="radial-gradient" cx="1704" cy="1128" fx="1587.7" fy="1212.18" r="1376.37" gradientUnits="userSpaceOnUse">
      <stop offset="0" stop-color="#00a9d4"/>
      <stop offset=".04" stop-color="#0295c3"/>
      <stop offset=".14" stop-color="#066da0"/>
      <stop offset=".25" stop-color="#0b4b83"/>
      <stop offset=".36" stop-color="#0e306b"/>
      <stop offset=".48" stop-color="#101a59"/>
      <stop offset=".61" stop-color="#120b4c"/>
      <stop offset=".77" stop-color="#130244"/>
      <stop offset="1" stop-color="#140042"/>
    </radialGradient>
  </defs>
  <g class="cls-1">
    <g id="Layer_2" data-name="Layer 2">
      <g id="Layer_1-2" data-name="Layer 1">
        <g class="cls-5">
          <rect class="cls-3" width="2600" height="1600"/>
          <g class="cls-6">
            <path class="cls-4" d="m1847.76,1397.34l-208.28-121.45-1.67,2.87,206.67,120.51,1.68,79.8-117.03,67.68c-7.87-3.62-19.33-3.33-26.57.88-7.79,4.53-7.75,11.86.09,16.39s20.5,4.53,28.29,0c7.22-4.19,7.7-10.8,1.49-15.35l113.8-65.81,2.51,119.1,3.32-.07-4.28-203.62-.02-.93Z"/>
            <rect class="cls-4" x="2225.29" y="1005.99" width="3.32" height="874.56" transform="translate(-141.53 2640.2) rotate(-59.76)"/>
            <path class="cls-4" d="m1840.42,1282.34h66.56c.61,2.39,2.48,4.69,5.67,6.53,7.84,4.53,20.51,4.53,28.29,0,7.79-4.53,7.75-11.86-.09-16.39-7.84-4.53-20.5-4.53-28.29,0-3.16,1.84-5.01,4.14-5.59,6.53h-65.68l-71.86-39.91-1.61,2.9,72.24,40.12.38.21Z"/>
            <path class="cls-4" d="m2109.41,1259.82h70.97c.83,2.03,2.6,3.95,5.34,5.53,7.84,4.53,20.5,4.53,28.29,0,7.79-4.53,7.75-11.86-.09-16.39-7.84-4.53-20.5-4.53-28.29,0-3.61,2.1-5.51,4.79-5.76,7.54h-69.61l-123.62-67.17-1.59,2.92,124,67.37.37.2Z"/>
            <path class="cls-4" d="m2402.44,1166.55l49.33-29.13c7.87,3.54,19.22,3.23,26.41-.95,7.79-4.53,7.75-11.86-.09-16.39-7.84-4.53-20.5-4.53-28.29,0-7.27,4.22-7.71,10.9-1.36,15.45l-92.89,54.85h-206.02l-110.93-63.54-1.65,2.88,107.82,61.76v2.22h3.88l318.81,182.61.38.22h206.4v-3.32h-205.52l-195.78-112.14h139.19l107.61,62.23c-6.19,4.55-5.65,11.17,1.63,15.37,7.84,4.53,20.51,4.53,28.29,0,7.79-4.53,7.75-11.86-.09-16.39-7.27-4.2-18.69-4.49-26.52-.91l-109.65-63.41-.39-.22h-145.88l-111.82-64.05h201.13l42.69-25.2,143.31,81.19.38.22h143.99v-3.32h-143.11l-141.26-80.03Z"/>
            <path class="cls-4" d="m2292.45,1025.19v113.06l-21.74,12.7h-102.39l-109.48-57.93-1.55,2.94,110.21,58.32h104.12l343.47-200.7-1.68-2.87-317.63,185.61v-109.18l219.33-123.32c7.79,3,18.38,2.52,25.22-1.45,7.79-4.53,7.75-11.86-.09-16.39-7.84-4.53-20.5-4.53-28.29,0-7.6,4.42-7.72,11.51-.43,16.05l-218.2,122.69-.85.48Z"/>
            <path class="cls-4" d="m2235.08,969.77l-75.9,44.47v-85.68l296.99-172.01c7.73,2.77,17.98,2.23,24.65-1.65,7.79-4.53,7.75-11.86-.09-16.39s-20.5-4.53-28.29,0c-7.76,4.51-7.74,11.82.03,16.35l-295.78,171.31-.83.48v89.1h.75l-120.1,70.36,1.68,2.87,197.8-115.88h108.21l283.21-169.78-1.71-2.85-282.42,169.31h-108.19Z"/>
            <path class="cls-4" d="m2190.64,872.1l-209.86,121.05,1.66,2.88,604.29-348.56v-77.18l72.36-46.36-1.79-2.8-73.89,47.34v77.08l-389.44,224.64v-126.02l39.44-22.69h126.63l81.26-44.51c7.88,3.81,19.6,3.58,26.96-.69,7.79-4.53,7.75-11.86-.09-16.39-7.84-4.53-20.51-4.53-28.29,0-7.08,4.11-7.67,10.54-1.83,15.08l-78.86,43.19h-120l222.91-128.21c7.86,3.43,19.05,3.09,26.18-1.05,7.79-4.53,7.75-11.86-.09-16.39s-20.5-4.53-28.29,0c-7.33,4.26-7.72,11.01-1.2,15.56l-268.04,154.17v129.86Z"/>
            <path class="cls-4" d="m2035.93,865.83h103.1c.61,2.39,2.48,4.69,5.67,6.53,7.84,4.53,20.51,4.53,28.29,0,7.79-4.53,7.75-11.86-.09-16.39-7.84-4.53-20.5-4.53-28.29,0-3.16,1.84-5.01,4.14-5.59,6.53h-103.95l-151.88,85.68,1.63,2.89,151.12-85.25Z"/>
            <path class="cls-4" d="m2108.78,799.99l.81-.48v-181.76l82.01-47.34h160.53l187.69-107.32c7.86,3.46,19.09,3.12,26.23-1.03,7.79-4.53,7.75-11.86-.09-16.39s-20.5-4.53-28.29,0c-7.32,4.25-7.72,10.98-1.24,15.53l-185.17,105.88h-153.89l400.78-231.37c7.83,3.21,18.71,2.8,25.69-1.26,7.79-4.53,7.75-11.86-.09-16.39-7.84-4.53-20.5-4.53-28.29,0-7.47,4.34-7.72,11.27-.79,15.82l-487.55,281.46-.83.48v181.79l-268.07,160.31,1.71,2.85,268.88-160.8Z"/>
            <path class="cls-4" d="m1557.17,1032.51l-3.28,1.92-146.85-87.18c-7.83,3.49-19.11,3.17-26.32-1-7.84-4.52-7.88-11.86-.1-16.38,7.79-4.53,20.46-4.53,28.29,0,7.35,4.23,7.84,10.95,1.47,15.5l146.78,87.14Z"/>
            <path class="cls-4" d="m1689.8,932.3l-3.32,1.95-106.45-59.85h-82.6c-.58,2.4-2.43,4.7-5.59,6.53-7.79,4.53-20.46,4.53-28.29,0-7.84-4.52-7.88-11.86-.1-16.38,7.79-4.53,20.46-4.53,28.29,0,3.19,1.83,5.07,4.14,5.67,6.53h83.49l.39.2,108.52,61.01Z"/>
            <path class="cls-4" d="m1759.92,1267.19l-140.72,85.95v-.14h-3.32v2.17l-230.26,140.65-.79.49v123.05h3.32v-121.19l227.74-139.1v115.8l-127.91,75.37c-7.87-3.55-19.23-3.24-26.42.94-7.79,4.53-7.75,11.86.09,16.39,7.84,4.53,20.5,4.53,28.29,0,7.26-4.22,7.71-10.89,1.37-15.44l127.89-75.36v-119.72l142.45-87.01-1.73-2.84Z"/>
            <path class="cls-4" d="m1645.74,1278.27l-1.65-2.88-368.07,210.89h-134.04c-.61-2.39-2.48-4.7-5.67-6.53-7.84-4.53-20.5-4.53-28.29,0-7.79,4.53-7.75,11.86.09,16.39,7.84,4.53,20.51,4.53,28.29,0,3.16-1.84,5.01-4.14,5.59-6.53h134.9l368.84-211.33Z"/>
            <path class="cls-4" d="m1588.49,1234.06l-280.53,164.12c-7.87-3.57-19.27-3.27-26.48.92-7.79,4.53-7.75,11.86.09,16.39,7.84,4.53,20.5,4.53,28.29,0,7.25-4.21,7.7-10.85,1.42-15.4l278.88-163.15-1.68-2.87Z"/>
            <path class="cls-4" d="m1518.04,1192.99l-196.76,114.88h-118.94l-97.86,61.58c-7.84-3.32-18.88-2.94-25.93,1.15-7.79,4.53-7.75,11.86.09,16.39,7.84,4.53,20.5,4.53,28.29,0,7.43-4.32,7.72-11.19.92-15.74l95.45-60.06h112.29l-211.87,123.7h-222.09l-193.7,116.78c-7.87-4.2-20.11-4.11-27.71.31-7.79,4.53-7.75,11.86.09,16.39s20.51,4.53,28.29,0c6.86-3.99,7.64-10.15,2.37-14.65l191.58-115.5h215.48l-103.27,60.29-.82.48v148.79h3.32v-146.88l522.44-305.03-1.67-2.87Z"/>
            <path class="cls-4" d="m720.68,1317.57h429.84l324.83-183.57-1.63-2.89-324.06,183.14h-429.87l-513.25,301.25,1.68,2.86,442.59-259.78v122.83l-116.58,66.44c-7.85-4.44-20.4-4.42-28.14.08-7.79,4.53-7.75,11.86.09,16.39,7.84,4.53,20.5,4.53,28.29,0,6.7-3.89,7.59-9.86,2.72-14.33l116.09-66.16.84-.48v-126.7l66.55-39.06Z"/>
            <path class="cls-4" d="m1171.89,1244.47l203.16-126.8-1.76-2.82-202.36,126.29h-427.86l-65.5,37.81h-218.32l-234.2,134.43c-7.85-4.41-20.36-4.38-28.09.11-7.79,4.53-7.75,11.86.09,16.39,7.84,4.53,20.5,4.53,28.29,0,6.72-3.9,7.6-9.9,2.68-14.38l232.1-133.23h211.68l-198.27,114.46c-7.85-4.39-20.33-4.35-28.04.13-7.79,4.53-7.75,11.86.09,16.39,7.84,4.53,20.5,4.53,28.29,0,6.73-3.91,7.6-9.93,2.65-14.41l267.42-154.38h427.92Z"/>
            <path class="cls-4" d="m263.81,941.91l277.58,157.98.38.22h256.65l103.47,60.34.39.23h327.18l105.36-59.55-1.63-2.89-104.6,59.12h-152.87v-95.02l-235.26-126.29c.51-.24,1-.5,1.48-.77,7.79-4.53,7.75-11.86-.09-16.39-7.84-4.53-20.5-4.53-28.29,0-7.79,4.53-7.75,11.86.09,16.39,6.14,3.54,15.23,4.3,22.63,2.29l236.13,126.75v93.04h-169.22L43.04,655.72l-1.67,2.87,751.35,438.19h-250.07l-277.58-157.98-.38-.22h-104.71c-.05-2.94-2.01-5.88-5.9-8.12-7.84-4.53-20.5-4.53-28.29,0-7.79,4.53-7.75,11.86.09,16.39,7.84,4.53,20.5,4.53,28.29,0,2.46-1.43,4.13-3.14,5.03-4.95h104.61Z"/>
            <path class="cls-4" d="m1492,935.88l-3.28,1.92-174.02-102.28v-109.49l-545.89-316.8c-7.83,3.58-19.23,3.28-26.49-.92-7.83-4.52-7.87-11.86-.09-16.39,7.79-4.52,20.45-4.52,28.29,0,7.28,4.21,7.82,10.84,1.61,15.39l357.01,207.19v-148.82l-98.4-56.49c-7.83,3.61-19.29,3.32-26.58-.89-7.84-4.52-7.87-11.86-.09-16.39,7.79-4.52,20.45-4.52,28.29,0,7.25,4.2,7.81,10.8,1.67,15.34l98.42,56.51v152.67l185.56,107.69v109.49l173.97,102.27Z"/>
            <path class="cls-4" d="m1322.93,971.6l-3.29,1.93-165.43-96.1v-134.26l-78.08-45.13h-238.96l-.38-.2-140.11-78.32c-7.83,3.72-19.42,3.45-26.77-.79-7.84-4.52-7.88-11.86-.1-16.39,7.79-4.52,20.45-4.52,28.29,0,7.19,4.16,7.8,10.67,1.84,15.21l138.09,77.17h232.35l-292.72-169.16c-7.83,3.59-19.25,3.29-26.52-.91-7.83-4.52-7.87-11.86-.09-16.39,7.79-4.52,20.45-4.52,28.29,0,7.27,4.21,7.82,10.83,1.63,15.37l376.56,217.63v134.27l165.4,96.08Z"/>
            <path class="cls-4" d="m1395.54,1036.27l-3.3,1.94-134.48-77.12h-235.32l-.39-.22-225.13-132.42v-82.59c-4.53-.24-8.96-1.34-12.44-3.35-7.84-4.52-7.87-11.86-.09-16.39,7.78-4.52,20.45-4.52,28.29,0,7.83,4.53,7.87,11.87.09,16.39-3.49,2.02-7.96,3.14-12.53,3.35v80.7l223.1,131.22h235.3l.39.23,136.5,78.28Z"/>
            <path class="cls-4" d="m1601.83,824.03l-3.29,1.93-352.02-204.61v-185.71c-4.53-.22-8.97-1.34-12.44-3.35-7.84-4.52-7.88-11.86-.1-16.38,7.79-4.53,20.45-4.53,28.29,0,7.84,4.52,7.88,11.86.1,16.38-3.49,2.04-7.96,3.14-12.53,3.35v183.81l351.98,204.59Z"/>
            <path class="cls-4" d="m2372.91,1563.39c-7.3-4.22-18.79-4.5-26.62-.86l-435.23-248.21-.38-.22h-140.45l-97.71-56.3-1.66,2.88,215.21,123.99v131.57l178.4,102.25,1.65-2.88-176.73-101.29v-131.57l-113.4-65.33h133.8l131.58,75.04v104.02l115.59,67.85c-6.3,4.55-5.78,11.22,1.54,15.45,7.84,4.53,20.51,4.53,28.29,0,7.79-4.53,7.75-11.86-.09-16.39-7.24-4.18-18.58-4.49-26.4-.95l-115.6-67.86v-100.22l298.3,170.12c-6.09,4.55-5.52,11.12,1.72,15.3,7.84,4.53,20.5,4.53,28.29,0,7.79-4.53,7.75-11.86-.09-16.39Z"/>
            <path class="cls-4" d="m2644.19,1491.25c-6.57-3.79-16.52-4.39-24.15-1.83l-286.92-167.35-.39-.23h-161.01l-264.1-153.65-1.67,2.87,198.88,115.7v37.7l246.45,140.78c-7.54,4.54-7.43,11.76.32,16.24,7.84,4.53,20.51,4.53,28.29,0,7.79-4.53,7.75-11.86-.09-16.39-6.77-3.91-17.15-4.43-24.87-1.59l-246.78-140.97v-33.84l62.29,36.24.39.22h161.01l284.43,165.9c-.12.07-.25.12-.36.19-7.79,4.53-7.75,11.86.09,16.39s20.5,4.53,28.29,0c7.79-4.53,7.75-11.86-.09-16.39Z"/>
            <path class="cls-4" d="m2084.24,766.8c7.79-4.53,7.75-11.86-.09-16.39-7.84-4.53-20.51-4.53-28.29,0-7.26,4.22-7.71,10.87-1.4,15.42l-266.02,156.14,1.68,2.86,267.67-157.11c7.87,3.56,19.25,3.26,26.45-.93Z"/>
            <path class="cls-4" d="m2006.31,349.24c-7.07,4.1-18.14,4.47-25.99,1.12l-264.71,155.74v318.09l88.13,50-3.32,1.94-88.13-50v-321.94l.82-.48,263.79-155.19c-6.7-4.55-6.37-11.38,1.02-15.67,7.79-4.52,20.46-4.52,28.29,0,7.84,4.52,7.88,11.86.1,16.39Z"/>
            <path class="cls-4" d="m2709.32,230.42l-458.52,269.8h-178.29l97.25-54.61v-150.8c3.96-.39,7.76-1.45,10.8-3.22,7.79-4.53,7.75-11.86-.09-16.39-7.84-4.53-20.5-4.53-28.29,0-7.79,4.53-7.75,11.86.09,16.39,3.92,2.26,9.05,3.39,14.17,3.39v148.68l-269.47,151.32v164.52h2.46l-233.01,130.91,1.63,2.9,340.12-191.08c3.39,1.54,7.65,2.46,12.29,2.46,11.04,0,20-5.19,20-11.59s-8.95-11.59-20-11.59-20,5.19-20,11.59c0,2.73,1.63,5.23,4.35,7.21l-104.52,58.72v-162.1l166.3-93.39h185.11l459.3-270.26-1.68-2.86Z"/>
          </g>
        </g>
      </g>
    </g>
  </g>
</svg>