<svg width="130" height="130" viewBox="0 0 130 130" fill="none" xmlns="http://www.w3.org/2000/svg">
<path d="M127.542 77.8452C126.786 75.5563 124.806 73.9618 122.245 73.5789C121.038 73.3987 119.655 73.4756 118.019 73.813C115.167 74.4014 113.051 74.6253 111.507 74.6689C117.335 64.8278 122.075 53.6052 124.803 43.0411C129.215 25.9598 126.858 18.1781 124.103 14.658C116.811 5.34172 106.174 0.336565 93.3397 0.183138C86.494 0.0995824 80.4836 1.45131 77.3487 2.42311C74.4295 1.90839 71.2905 1.62075 67.9969 1.56748C61.824 1.46907 56.3694 2.81469 51.7086 5.58045C49.1277 4.70822 44.9869 3.47818 40.2045 2.693C28.9563 0.846338 19.891 2.28541 13.2601 6.96974C5.23067 12.6416 1.50825 22.4959 2.19678 36.2592C2.41513 40.6291 4.85977 53.9243 8.70855 66.5335C10.9206 73.7807 13.2793 79.7993 15.7193 84.4231C19.1794 90.9797 22.8818 94.841 27.0383 96.2273C29.3682 97.0038 33.601 97.547 38.0533 93.8398C38.6175 94.5228 39.3701 95.202 40.3696 95.8326C41.6383 96.6329 43.1901 97.2868 44.7395 97.6743C50.3243 99.0705 55.5553 98.7212 60.0181 96.7645C60.0455 97.5581 60.0667 98.3165 60.0848 98.9713C60.1145 100.034 60.1436 101.075 60.1826 102.049C60.447 108.635 60.895 113.756 62.2226 117.338C62.2954 117.536 62.3935 117.836 62.4971 118.154C63.1592 120.182 64.2669 123.577 67.0842 126.236C70.0022 128.989 73.5314 129.834 76.7635 129.834C78.3845 129.834 79.9313 129.621 81.2877 129.331C86.1237 128.294 91.6157 126.715 95.5885 121.059C99.3444 115.711 101.17 107.656 101.501 94.9647C101.544 94.606 101.583 94.2634 101.621 93.9367C101.647 93.7163 101.673 93.491 101.7 93.2662L102.585 93.344L102.813 93.3594C107.738 93.5839 113.76 92.5393 117.459 90.8213C120.382 89.4649 129.747 84.5209 127.542 77.8452Z" fill="black"/>
<path d="M119.12 79.1437C104.476 82.1645 103.469 77.2063 103.469 77.2063C118.931 54.2627 125.395 25.1392 119.817 18.0113C104.599 -1.43198 78.257 7.76346 77.8174 8.00219L77.6759 8.02752C74.7827 7.42691 71.5447 7.06911 67.9055 7.00972C61.279 6.90113 56.2526 8.74691 52.4385 11.6393C52.4385 11.6393 5.44642 -7.71957 7.63195 35.9868C8.09689 45.285 20.9589 106.341 36.3001 87.8993C41.9073 81.1558 47.325 75.4539 47.325 75.4539C50.016 77.2415 53.2374 78.1533 56.6145 77.8258L56.8768 77.6031C56.7953 78.4404 56.8326 79.2593 56.9819 80.2288C53.0298 84.6444 54.1911 85.4197 46.2906 87.046C38.2964 88.6935 42.9927 91.6267 46.0589 92.3932C49.7761 93.3228 58.3759 94.6396 64.1866 86.5053L63.9548 87.4335C65.5034 88.6737 66.5908 95.5011 66.4085 101.69C66.2263 107.879 66.1046 112.128 67.3247 115.447C68.5448 118.766 69.7609 126.234 80.1468 124.008C88.8252 122.148 93.3223 117.329 93.9479 109.29C94.3919 103.575 95.3966 104.42 95.4601 99.31L96.2659 96.8909C97.1952 89.1436 96.4135 86.6442 101.76 87.8067L103.06 87.9208C106.995 88.0999 112.145 87.2879 115.168 85.8829C121.677 82.8621 125.538 77.8185 119.12 79.1437H119.12Z" fill="#336791"/>
<path d="M55.1891 40.145C53.8697 39.9613 52.6743 40.1313 52.0696 40.589C51.7293 40.8467 51.6242 41.1451 51.5959 41.3506C51.52 41.8947 51.9013 42.4962 52.1354 42.8066C52.798 43.6849 53.7663 44.2887 54.7247 44.4218C54.8636 44.441 55.0016 44.4503 55.139 44.4503C56.7373 44.4503 58.1901 43.206 58.3182 42.2875C58.4783 41.1372 56.8084 40.3704 55.1891 40.145Z" fill="white"/>
<path d="M98.9085 40.1814C98.7828 39.2797 97.1778 39.0227 95.6551 39.2343C94.1348 39.4463 92.6602 40.1325 92.7834 41.0361C92.8824 41.7389 94.1508 42.9387 95.6531 42.9384C95.7797 42.9384 95.9078 42.93 96.0368 42.9119C97.0395 42.773 97.7752 42.1363 98.1245 41.7692C98.657 41.2102 98.9647 40.5866 98.9085 40.1814Z" fill="white"/>
<path d="M123.993 78.8003C123.435 77.1117 121.638 76.5682 118.652 77.1851C109.786 79.0149 106.61 77.7473 105.568 76.9796C112.459 66.4807 118.129 53.7905 121.187 41.9498C122.636 36.3412 123.436 31.1325 123.501 26.8872C123.574 22.2267 122.78 18.8027 121.143 16.7109C114.544 8.27798 104.858 3.75465 93.1331 3.63033C85.0728 3.53979 78.2626 5.60276 76.9423 6.18269C74.162 5.49125 71.131 5.06678 67.8316 5.01263C61.7804 4.91481 56.5502 6.36349 52.2196 9.31616C50.3385 8.61628 45.4772 6.9475 39.5326 5.98996C29.2544 4.33487 21.0872 5.58878 15.2588 9.71792C8.30418 14.6451 5.09356 23.4524 5.71571 35.8949C5.92504 40.0814 8.31 52.959 12.0744 65.292C17.0291 81.5241 22.4148 90.7135 28.082 92.6035C28.7452 92.8248 29.5103 92.9796 30.3534 92.9796C32.4208 92.9796 34.9551 92.0477 37.5922 88.8776C41.9723 83.6081 46.0618 79.1925 47.5693 77.588C49.797 78.784 52.244 79.4516 54.7475 79.5185C54.7518 79.584 54.7585 79.6495 54.7644 79.7147C54.2621 80.3104 53.8502 80.8324 53.4991 81.2781C51.7648 83.4797 51.4038 83.9379 45.821 85.0876C44.2332 85.4151 40.015 86.2845 39.9535 89.2409C39.8863 92.471 44.9389 93.8277 45.5148 93.9715C47.521 94.4737 49.4535 94.7215 51.2967 94.7215C55.7795 94.7212 59.7241 93.2481 62.8768 90.3976C62.7795 101.913 63.2599 113.261 64.6425 116.718C65.7747 119.548 68.5413 126.466 77.2803 126.465C78.5621 126.465 79.9739 126.316 81.5265 125.983C90.6465 124.028 94.6068 119.997 96.139 111.111C96.9588 106.361 98.3659 95.0199 99.0273 88.9367C100.424 89.3722 102.222 89.5716 104.166 89.5713C108.219 89.5713 112.897 88.7102 115.83 87.3485C119.125 85.8184 125.072 82.0627 123.993 78.8003ZM102.275 37.6923C102.244 39.4883 101.997 41.1187 101.735 42.8206C101.453 44.651 101.162 46.5433 101.088 48.8407C101.016 51.0763 101.295 53.4007 101.565 55.6482C102.111 60.1882 102.671 64.8623 100.503 69.4744C100.166 68.8762 99.8411 68.2234 99.5429 67.5005C99.2736 66.8475 98.6888 65.7986 97.8791 64.3467C94.7279 58.6958 87.3488 45.4627 91.1263 40.0627C92.2512 38.4551 95.1067 36.8029 102.275 37.6923ZM93.5864 7.26716C104.092 7.4992 112.401 11.4292 118.285 18.9474C122.798 24.7142 117.829 50.954 103.444 73.5911C103.301 73.4106 103.157 73.2283 103.007 73.0414C102.947 72.9666 102.887 72.8906 102.825 72.8137C106.542 66.6746 105.815 60.6007 105.169 55.2153C104.903 53.0053 104.652 50.9179 104.716 48.9574C104.782 46.8787 105.056 45.0967 105.322 43.3732C105.649 41.2491 105.981 39.0516 105.889 36.4608C105.958 36.1892 105.985 35.8681 105.95 35.487C105.716 33.0025 102.879 25.5678 97.098 18.8377C93.936 15.1572 89.3242 11.0379 83.0275 8.25964C85.736 7.69833 89.4398 7.17488 93.5864 7.26716ZM34.8017 86.5572C31.8964 90.0503 29.8899 89.3809 29.2302 89.1611C24.9311 87.727 19.9431 78.641 15.5452 64.2326C11.7398 51.7654 9.51587 39.2289 9.34003 35.7135C8.78426 24.5957 11.4793 16.8472 17.3506 12.6834C26.9055 5.90728 42.6151 9.96306 48.9274 12.0202C48.8366 12.1096 48.7423 12.1934 48.6523 12.2843C38.2941 22.7455 38.5398 40.6188 38.5651 41.7111C38.5643 42.1327 38.5995 42.7295 38.6481 43.5505C38.8263 46.5564 39.1579 52.1514 38.272 58.4877C37.4483 64.3755 39.2633 70.1385 43.2506 74.2988C43.6634 74.7294 44.0943 75.1338 44.5395 75.5143C42.7644 77.4151 38.9072 81.6182 34.8017 86.5572ZM45.8708 71.7878C42.657 68.4348 41.1976 63.7706 41.866 58.9902C42.8017 52.2967 42.4561 46.4674 42.2707 43.3356C42.2448 42.8975 42.2218 42.5135 42.2081 42.2104C43.7214 40.8689 50.7339 37.1112 55.7347 38.2571C58.0172 38.78 59.4073 40.3338 59.9855 43.0069C62.9778 56.8454 60.3818 62.6133 58.2958 67.2481C57.8658 68.2031 57.4597 69.1056 57.1126 70.0395L56.8439 70.7612C56.1632 72.5863 55.53 74.2831 55.1376 75.8945C51.7214 75.884 48.3979 74.4249 45.8708 71.7878ZM46.3951 90.4509C45.3977 90.2016 44.5005 89.7687 43.9741 89.4098C44.4137 89.2028 45.1963 88.9215 46.5532 88.642C53.1209 87.2897 54.1349 86.3357 56.3499 83.5233C56.8579 82.8788 57.4335 82.1477 58.2306 81.2575L58.2315 81.2563C59.419 79.927 59.962 80.1523 60.9469 80.5608C61.7451 80.8912 62.5225 81.8915 62.8378 82.9926C62.9868 83.5126 63.1545 84.4998 62.6063 85.2675C57.9793 91.7458 51.2373 91.6626 46.3951 90.4509ZM80.7657 122.435C72.7313 124.156 69.8867 120.057 68.0121 115.371C66.8021 112.345 66.2076 98.7016 66.6295 83.6351C66.635 83.4346 66.6065 83.2409 66.5512 83.059C66.5031 82.7076 66.4292 82.3521 66.3267 81.9943C65.699 79.8021 64.1703 77.9682 62.3361 77.2081C61.6074 76.9062 60.2697 76.3522 58.6623 76.7632C59.0053 75.3509 59.5998 73.7564 60.2441 72.0294L60.5145 71.3027C60.819 70.4838 61.2007 69.6354 61.6048 68.7376C63.7877 63.8879 66.7774 57.2457 63.5327 42.2398C62.3172 36.6195 58.2588 33.875 52.1063 34.5123C48.4177 34.8939 45.0434 36.3822 43.3604 37.2355C42.9985 37.4189 42.6675 37.596 42.3583 37.7686C42.8279 32.1055 44.6029 21.5225 51.2419 14.8267C55.4217 10.6111 60.9888 8.52923 67.7716 8.64131C81.1361 8.86025 89.7061 15.7188 94.5427 21.434C98.7103 26.3591 100.967 31.32 101.868 33.9955C95.0947 33.307 90.4881 34.6442 88.1527 37.9826C83.0724 45.2446 90.9321 59.3401 94.7095 66.1142C95.4022 67.3559 96.0001 68.4287 96.1882 68.8846C97.4183 71.8658 99.0108 73.856 100.174 75.309C100.53 75.7542 100.876 76.1859 101.139 76.5629C99.0873 77.1545 95.4025 78.5208 95.7381 85.3511C95.4674 88.7786 93.5412 104.825 92.563 110.494C91.2716 117.984 88.5154 120.774 80.7657 122.435ZM114.302 84.057C112.204 85.0308 108.694 85.7613 105.359 85.9179C101.675 86.0906 99.8006 85.5054 99.3595 85.1455C99.1522 80.8892 100.737 80.4443 102.414 79.9736C102.677 79.8993 102.934 79.8274 103.182 79.7407C103.336 79.8661 103.505 79.9907 103.69 80.1127C106.651 82.0668 111.931 82.2776 119.386 80.739C119.413 80.7331 119.44 80.7279 119.468 80.7224C118.462 81.6624 116.742 82.9242 114.302 84.057Z" fill="white"/>
</svg>
