<svg width="130" height="130" viewBox="0 0 130 130" fill="none" xmlns="http://www.w3.org/2000/svg">
<g clip-path="url(#clip0_81_314)">
<path d="M5.4166 7.0415H124.584V122.959H5.4166V7.0415Z" fill="url(#paint0_radial_81_314)"/>
<path d="M5.41661 7.04136H124.584V122.958H5.41661V7.04136ZM2.86102e-06 128.375H130V1.62476H2.86102e-06V128.375ZM87.6418 53.6248C83.3626 53.6248 81.9003 55.7914 81.9003 57.5789C81.9003 59.5289 82.8751 60.8831 88.6169 63.8623C97.121 67.9791 99.7753 71.9331 99.7753 77.7291C99.7753 86.3957 93.167 91.0541 84.2293 91.0541C79.5168 91.0541 75.4542 90.079 73.1251 88.725C72.746 88.5625 72.6918 88.2917 72.6918 87.8582V79.8957C72.6918 79.3541 72.9626 79.1914 73.342 79.4624C76.7545 81.6834 80.6544 82.6582 84.2293 82.6582C88.5086 82.6582 90.2961 80.8708 90.2961 78.4332C90.2961 76.4832 89.0502 74.7499 83.5792 71.9331C75.8875 68.2499 72.6918 64.5124 72.6918 58.2832C72.6918 51.2955 78.1628 45.4998 87.6418 45.4998C92.3002 45.4998 95.5502 46.2041 97.3377 47.0165C97.771 47.2873 97.8793 47.7206 97.8793 48.0997V55.5204C97.8793 55.9537 97.6085 56.2247 97.0667 56.062C94.6834 54.5458 91.1626 53.6248 87.6418 53.6248ZM41.0583 60.0707C42.3042 60.179 43.2793 60.179 45.4459 60.179C51.7837 60.179 57.7419 57.9583 57.7419 49.3458C57.7419 42.4667 53.4626 38.9998 46.2585 38.9998C44.0919 38.9998 42.0334 39.1081 41.0583 39.1623V60.0707ZM31.4169 31.3081C31.4169 30.929 32.1753 30.6579 32.6084 30.6579C36.0752 30.4955 41.221 30.3871 46.5835 30.3871C61.5876 30.3871 67.4375 38.6205 67.4375 49.1289C67.4375 62.8872 57.4709 68.7915 45.2293 68.7915C43.171 68.7915 42.4669 68.6831 41.0042 68.6831V89.4832C41.0042 89.9165 40.8417 90.1331 40.3543 90.1331H32.0668C31.6335 90.1331 31.4166 89.9707 31.4166 89.4832V31.3081H31.4169Z" fill="#31C5F0"/>
</g>
<defs>
<radialGradient id="paint0_radial_81_314" cx="0" cy="0" r="1" gradientUnits="userSpaceOnUse" gradientTransform="translate(44.6644 33.0186) scale(90.5669 87.6852)">
<stop stop-color="#34364E" stop-opacity="0.98"/>
<stop offset="1" stop-color="#0C0824"/>
</radialGradient>
<clipPath id="clip0_81_314">
<rect width="130" height="130" fill="white"/>
</clipPath>
</defs>
</svg>
