<svg width="130" height="130" viewBox="0 0 130 130" fill="none" xmlns="http://www.w3.org/2000/svg">
<g clip-path="url(#clip0_81_181)">
<path d="M65.002 74.0046C70.0256 74.0046 74.098 69.9322 74.098 64.9087C74.098 59.8851 70.0256 55.8127 65.002 55.8127C59.9785 55.8127 55.9061 59.8851 55.9061 64.9087C55.9061 69.9322 59.9785 74.0046 65.002 74.0046Z" fill="#00D8FF"/>
<path fill-rule="evenodd" clip-rule="evenodd" d="M65.6703 45.7356C81.1789 45.8412 98.0992 46.9726 109.714 57.33C110.055 57.6346 110.384 57.9515 110.705 58.2786C113.445 61.0715 114.877 65.5809 112.665 69.292C108.127 76.9112 97.9794 80.2343 88.1542 82.2798C73.4602 85.3389 58.0958 85.3632 43.4078 82.6698C34.9558 81.1179 26.3128 78.3981 20.3064 72.7085C17.9684 70.4945 15.9697 67.5817 16.2825 64.3398C16.7903 59.0951 21.8217 55.7293 26.0569 53.4503C37.8198 47.1209 52.1523 45.7051 65.6703 45.7356ZM64.545 48.1182C49.8712 48.2178 33.9889 49.1542 22.6586 58.5365C22.2625 58.8636 21.8806 59.2068 21.513 59.5664C21.2753 59.7979 21.0458 60.0396 20.8244 60.2875C18.8358 62.5218 18.1512 66.1111 20.0281 68.7943C21.9172 71.4939 24.7853 73.4418 27.7387 75.0303C38.7847 80.9696 51.8375 82.0239 64.5633 82.0686C77.4475 82.1153 90.7339 80.9412 102.115 75.0567C106.649 72.7106 111.751 69.2656 111.57 64.8293C111.404 60.7587 107.435 58.244 104.463 56.4484C103.659 55.9629 102.832 55.514 101.993 55.0915C90.6953 49.4304 77.4556 48.0898 64.545 48.1182Z" fill="#00D8FF"/>
<path fill-rule="evenodd" clip-rule="evenodd" d="M85.5461 21.7405C91.2194 21.8847 94.1586 28.7056 94.5466 33.7431C94.6237 34.7445 94.6522 35.75 94.64 36.7555C94.6278 37.8442 94.5689 38.933 94.4734 40.0177C93.277 53.4483 87.1447 66.2391 79.9236 78.0508C72.8609 89.6045 64.2484 101.126 52.5322 106.48C48.6586 108.251 44.0517 109.344 40.623 107.368C35.9226 104.66 35.4087 98.3267 35.4961 93.5228C35.5184 92.3427 35.5956 91.1625 35.7175 89.9864C37.5233 72.5989 46.3369 56.1275 57.3666 41.9372C63.8016 33.6578 71.4573 25.4455 80.9941 22.4717C82.4951 22.0025 83.6875 21.7181 85.5461 21.7405ZM85.2739 24.1211C78.6134 24.2267 72.6334 29.1627 67.338 34.2916C53.4158 47.773 43.1559 65.7028 39.0284 84.5061C38.7095 85.9625 38.4414 87.4291 38.2444 88.9058C38.092 90.0494 37.9803 91.1991 37.9214 92.3528C37.8747 93.2709 37.8584 94.1911 37.8869 95.1113C37.9072 95.8303 37.9539 96.5494 38.0331 97.2644C38.092 97.8108 38.1712 98.3552 38.2708 98.8955C38.3459 99.2956 38.4333 99.6938 38.5348 100.09C38.6181 100.411 38.7116 100.73 38.8172 101.047C39.648 103.551 41.7889 105.944 44.6631 106.023C51.3683 106.206 57.6814 101.317 63.1394 96.003C72.7208 86.6775 79.8606 74.9592 85.4384 62.6417C89.9397 52.6967 94.057 41.8864 91.7576 30.94C91.6703 30.5256 91.5687 30.1153 91.453 29.7091C91.3575 29.378 91.2498 29.051 91.132 28.728C90.2383 26.2925 88.1359 24.115 85.2739 24.1211Z" fill="#00D8FF"/>
<path fill-rule="evenodd" clip-rule="evenodd" d="M44.9089 21.8298C52.1483 21.9699 58.6503 26.8835 64.4231 32.3862C74.9572 42.4266 82.7267 55.1991 88.6214 68.642C93.1877 79.0562 97.3883 90.746 93.6548 101.735C92.4787 105.198 89.503 108.367 85.5359 108.448C78.262 108.595 71.5203 103.305 65.6703 97.6116C50.9945 83.3238 40.0989 64.4616 36.3655 44.4579C36.0973 43.0279 35.8841 41.5857 35.7378 40.1374C35.618 38.9552 35.5428 37.767 35.5225 36.5787C35.5062 35.6199 35.5266 34.6612 35.5936 33.7065C35.6383 33.0687 35.7033 32.4349 35.7906 31.8032C35.8739 31.2101 35.9795 30.619 36.1116 30.034C36.1989 29.646 36.2964 29.2621 36.4081 28.8802C37.503 25.1366 40.3508 21.8013 44.9089 21.8298ZM44.6347 24.2124C40.3955 24.3059 38.4556 29.3048 38.0656 32.8127C37.9864 33.5318 37.9376 34.257 37.9153 34.9821C37.8869 35.9084 37.8991 36.8366 37.9458 37.7629C38.612 51.1671 44.6042 64.1265 51.8355 75.9931C58.6442 87.1649 66.8667 98.2921 78.1767 104.012C81.443 105.664 85.412 106.961 88.2334 105.401C91.7719 103.443 92.2066 98.7776 92.3955 95.3001C92.4462 94.3535 92.4523 93.4029 92.4219 92.4543C92.3853 91.264 92.2919 90.0757 92.1517 88.8935C90.8476 77.8496 85.9564 67.3988 80.338 57.5229C73.3464 45.2379 64.7806 32.9935 52.6581 26.5971C50.1475 25.2727 47.4297 24.1901 44.6347 24.2124Z" fill="#00D8FF"/>
</g>
<defs>
<clipPath id="clip0_81_181">
<rect width="130" height="130" fill="white"/>
</clipPath>
</defs>
</svg>
