<svg width="150" height="150" viewBox="0 0 150 150" fill="none" xmlns="http://www.w3.org/2000/svg">
<path d="M118.75 68.75H81.25V43.75C81.25 42.0924 80.5915 40.5027 79.4194 39.3306C78.2473 38.1585 76.6576 37.5 75 37.5C73.3424 37.5 71.7527 38.1585 70.5806 39.3306C69.4085 40.5027 68.75 42.0924 68.75 43.75V68.75H31.25C29.5924 68.75 28.0027 69.4085 26.8306 70.5806C25.6585 71.7527 25 73.3424 25 75V106.25C25 107.908 25.6585 109.497 26.8306 110.669C28.0027 111.842 29.5924 112.5 31.25 112.5C32.9076 112.5 34.4973 111.842 35.6694 110.669C36.8415 109.497 37.5 107.908 37.5 106.25V81.25H68.75V106.25C68.75 107.908 69.4085 109.497 70.5806 110.669C71.7527 111.842 73.3424 112.5 75 112.5C76.6576 112.5 78.2473 111.842 79.4194 110.669C80.5915 109.497 81.25 107.908 81.25 106.25V81.25H112.5V106.25C112.5 107.908 113.158 109.497 114.331 110.669C115.503 111.842 117.092 112.5 118.75 112.5C120.408 112.5 121.997 111.842 123.169 110.669C124.342 109.497 125 107.908 125 106.25V75C125 73.3424 124.342 71.7527 123.169 70.5806C121.997 69.4085 120.408 68.75 118.75 68.75Z" fill="#4CC9F0"/>
<path d="M50 106.25V131.25C50 132.908 49.3415 134.497 48.1694 135.669C46.9973 136.842 45.4076 137.5 43.75 137.5H18.75C17.0924 137.5 15.5027 136.842 14.3306 135.669C13.1585 134.497 12.5 132.908 12.5 131.25V106.25C12.5 104.592 13.1585 103.003 14.3306 101.831C15.5027 100.658 17.0924 100 18.75 100H43.75C45.4076 100 46.9973 100.658 48.1694 101.831C49.3415 103.003 50 104.592 50 106.25ZM87.5 100H62.5C60.8424 100 59.2527 100.658 58.0806 101.831C56.9085 103.003 56.25 104.592 56.25 106.25V131.25C56.25 132.908 56.9085 134.497 58.0806 135.669C59.2527 136.842 60.8424 137.5 62.5 137.5H87.5C89.1576 137.5 90.7473 136.842 91.9194 135.669C93.0915 134.497 93.75 132.908 93.75 131.25V106.25C93.75 104.592 93.0915 103.003 91.9194 101.831C90.7473 100.658 89.1576 100 87.5 100ZM100 18.75C100 17.0924 99.3415 15.5027 98.1694 14.3306C96.9973 13.1585 95.4076 12.5 93.75 12.5H56.25C54.5924 12.5 53.0027 13.1585 51.8306 14.3306C50.6585 15.5027 50 17.0924 50 18.75V43.75C50 45.4076 50.6585 46.9973 51.8306 48.1694C53.0027 49.3415 54.5924 50 56.25 50H93.75C95.4076 50 96.9973 49.3415 98.1694 48.1694C99.3415 46.9973 100 45.4076 100 43.75V18.75ZM131.25 100H106.25C104.592 100 103.003 100.658 101.831 101.831C100.658 103.003 100 104.592 100 106.25V131.25C100 132.908 100.658 134.497 101.831 135.669C103.003 136.842 104.592 137.5 106.25 137.5H131.25C132.908 137.5 134.497 136.842 135.669 135.669C136.842 134.497 137.5 132.908 137.5 131.25V106.25C137.5 104.592 136.842 103.003 135.669 101.831C134.497 100.658 132.908 100 131.25 100Z" fill="white"/>
</svg>
