<svg width="130" height="130" viewBox="0 0 130 130" fill="none" xmlns="http://www.w3.org/2000/svg">
<path d="M111.862 72.3701C107.339 72.3938 103.408 73.4831 100.117 75.0933C98.9089 72.7017 97.7013 70.5705 97.4882 69.0077C97.2514 67.1843 96.9672 66.0714 97.2514 63.8929C97.5355 61.7144 98.8142 58.6124 98.7905 58.3756C98.7669 58.1388 98.5064 57.0259 95.9016 57.0022C93.2969 56.9785 91.0474 57.4995 90.7869 58.1862C90.5264 58.8729 90.0291 60.4357 89.6976 62.0459C89.2477 64.4139 84.4882 72.8674 81.765 77.2955C80.8889 75.5669 80.1312 74.0514 79.9654 72.8437C79.7286 71.0204 79.4445 69.9075 79.7286 67.729C80.0128 65.5505 81.2914 62.4485 81.2678 62.2117C81.2441 61.9749 80.9836 60.8619 78.3789 60.8383C75.7741 60.8146 73.5246 61.3355 73.2641 62.0222C73.0037 62.7089 72.7195 64.3191 72.1749 65.882C71.6302 67.4448 65.3078 81.5577 63.6503 85.2044C62.7978 87.0751 62.0638 88.5669 61.5428 89.5851C61.5428 89.5851 61.5191 89.6561 61.4481 89.7745C60.9982 90.6506 60.7377 91.1242 60.7377 91.1242C60.7377 91.1242 60.7377 91.1242 60.7377 91.1479C60.3825 91.7873 60.0036 92.3792 59.8142 92.3792C59.6721 92.3792 59.4117 90.6743 59.8616 88.3537C60.8087 83.4521 63.0583 75.8273 63.0346 75.5669C63.0346 75.4248 63.4608 74.0987 61.5665 73.412C59.7195 72.7253 59.0565 73.8619 58.8907 73.8619C58.725 73.8619 58.6066 74.2645 58.6066 74.2645C58.6066 74.2645 60.6667 65.6925 54.6758 65.6925C50.9344 65.6925 45.7723 69.7891 43.2149 73.4831C41.6047 74.3592 38.1712 76.2299 34.5009 78.2426C33.1038 79.0241 31.6594 79.8055 30.3097 80.5395C30.2149 80.4448 30.1202 80.3264 30.0255 80.2317C22.7796 72.4885 9.37705 67.0186 9.94536 56.6233C10.1585 52.8346 11.4608 42.8893 35.6849 30.8128C55.623 20.9858 71.4882 23.7089 74.235 29.7472C78.1658 38.3665 65.7341 54.3738 45.133 56.6944C37.2714 57.5705 33.1512 54.5395 32.1093 53.4029C31.02 52.219 30.8543 52.1479 30.4517 52.3847C29.7887 52.7399 30.2149 53.8055 30.4517 54.4211C31.0674 56.0313 33.6011 58.8729 37.8871 60.27C41.6758 61.5013 50.8871 62.188 62.0401 57.8783C74.5191 53.0477 84.2751 39.6215 81.4098 28.3738C78.5446 16.9603 59.6011 13.1953 41.6758 19.565C31.02 23.3537 19.4645 29.321 11.153 37.0878C1.27869 46.3228 -0.284148 54.3501 0.355196 57.7126C2.6521 69.647 19.1093 77.4139 25.6922 83.168C25.3607 83.3574 25.0528 83.5231 24.7924 83.6652C21.5009 85.2991 8.95083 91.8583 5.82514 98.7964C2.27323 106.658 6.39345 112.294 9.11658 113.051C17.5701 115.396 26.2605 111.181 30.9253 104.219C35.5902 97.2572 35.0219 88.2117 32.867 84.0678C32.8434 84.0204 32.8197 83.973 32.7723 83.9257C33.6248 83.4284 34.5009 82.9075 35.3534 82.4102C37.0346 81.4157 38.6922 80.4922 40.1129 79.7344C39.3078 81.9366 38.7159 84.565 38.4317 88.3537C38.0765 92.8055 39.8998 98.5832 42.2914 100.856C43.357 101.851 44.612 101.875 45.4171 101.875C48.2113 101.875 49.4663 99.5541 50.8634 96.8073C52.5683 93.4448 54.1075 89.5377 54.1075 89.5377C54.1075 89.5377 52.1894 100.099 57.3989 100.099C59.2933 100.099 61.2113 97.6361 62.0638 96.3811V96.4047C62.0638 96.4047 62.1111 96.3337 62.2058 96.1679C62.3953 95.8601 62.5137 95.6707 62.5137 95.6707V95.6233C63.2714 94.2973 64.9763 91.29 67.51 86.2936C70.7778 79.8528 73.9272 71.8018 73.9272 71.8018C73.9272 71.8018 74.2113 73.7672 75.1822 77.035C75.7505 78.953 76.9344 81.0605 77.8816 83.0969C77.1239 84.1625 76.6503 84.7545 76.6503 84.7545C76.6503 84.7545 76.6503 84.7545 76.674 84.7782C76.0583 85.5833 75.3953 86.4594 74.6612 87.3119C72.0802 90.3902 69.0018 93.9184 68.5756 94.9366C68.0783 96.1443 68.1967 97.0204 69.1439 97.7308C69.8306 98.2517 71.0619 98.3228 72.3169 98.2517C74.6375 98.086 76.2714 97.5177 77.0765 97.1625C78.3315 96.7126 79.7996 96.0259 81.173 95.0077C83.7067 93.137 85.2459 90.4612 85.1038 86.933C85.0328 84.9913 84.3935 83.0496 83.612 81.2262C83.8488 80.8947 84.0619 80.5632 84.2987 80.2317C88.3006 74.3829 91.4026 67.9658 91.4026 67.9658C91.4026 67.9658 91.6867 69.9312 92.6576 73.1989C93.1312 74.8565 94.102 76.6561 94.9545 78.4084C91.1894 81.463 88.8689 85.0149 88.0401 87.3355C86.5483 91.6452 87.7086 93.5869 89.9108 94.0368C90.9053 94.2499 92.3261 93.7763 93.3679 93.3264C94.694 92.9002 96.2568 92.1661 97.7486 91.0769C100.282 89.2062 102.721 86.6015 102.579 83.0732C102.508 81.463 102.082 79.8765 101.49 78.3374C104.687 77.0113 108.807 76.2772 114.064 76.8929C125.335 78.219 127.561 85.2517 127.135 88.2117C126.709 91.1716 124.341 92.7818 123.559 93.2791C122.778 93.7763 122.517 93.9421 122.588 94.2973C122.683 94.8182 123.062 94.7945 123.725 94.6998C124.648 94.5341 129.645 92.3082 129.858 86.8619C130.213 79.9002 123.583 72.2991 111.862 72.3701ZM24.9108 101.685C21.1694 105.758 15.9599 107.297 13.7104 105.995C11.2951 104.598 12.2423 98.5833 16.8361 94.2736C19.6302 91.6452 23.2295 89.2062 25.6211 87.7144C26.1658 87.3829 26.9709 86.9093 27.9417 86.3173C28.1075 86.2226 28.2022 86.1752 28.2022 86.1752C28.3916 86.0568 28.5811 85.9384 28.7705 85.82C30.4517 91.9767 28.8415 97.3993 24.9108 101.685ZM52.1421 83.168C50.8397 86.341 48.1166 94.463 46.459 94.0131C45.0383 93.6343 44.1621 87.4776 46.1749 81.392C47.1931 78.3374 49.3479 74.6907 50.6029 73.27C52.6393 70.9967 54.8889 70.239 55.4335 71.1625C56.1202 72.3701 52.9472 81.1789 52.1421 83.168ZM74.6138 93.9184C74.0692 94.2026 73.5483 94.392 73.3115 94.2499C73.1457 94.1552 73.5483 93.7763 73.5483 93.7763C73.5483 93.7763 76.3661 90.7454 77.4791 89.372C78.1184 88.5669 78.8761 87.6197 79.6812 86.5541V86.8619C79.6812 90.4849 76.1767 92.9239 74.6138 93.9184ZM91.9472 89.9639C91.5446 89.6798 91.6157 88.7326 92.9654 85.7727C93.4863 84.6124 94.7177 82.6707 96.8251 80.8C97.0619 81.5578 97.2277 82.2918 97.204 82.9785C97.1803 87.5486 93.9126 89.2536 91.9472 89.9639Z" fill="#DD0EE2"/>
</svg>
