<?xml version="1.0" encoding="UTF-8"?>
<svg xmlns="http://www.w3.org/2000/svg" xmlns:xlink="http://www.w3.org/1999/xlink" viewBox="0 0 1646.61 1906.27">
  <defs>
    <style>
      .cls-1 {
        filter: url(#luminosity-noclip-11);
      }

      .cls-2 {
        fill: url(#linear-gradient-19);
      }

      .cls-2, .cls-3, .cls-4, .cls-5, .cls-6, .cls-7, .cls-8, .cls-9, .cls-10, .cls-11, .cls-12, .cls-13, .cls-14, .cls-15, .cls-16, .cls-17, .cls-18, .cls-19, .cls-20, .cls-21, .cls-22, .cls-23, .cls-24, .cls-25, .cls-26, .cls-27, .cls-28, .cls-29, .cls-30, .cls-31, .cls-32, .cls-33, .cls-34, .cls-35, .cls-36, .cls-37, .cls-38, .cls-39, .cls-40, .cls-41, .cls-42, .cls-43, .cls-44, .cls-45, .cls-46, .cls-47, .cls-48, .cls-49, .cls-50, .cls-51, .cls-52, .cls-53, .cls-54, .cls-55, .cls-56, .cls-57, .cls-58, .cls-59, .cls-60, .cls-61, .cls-62, .cls-63, .cls-64, .cls-65, .cls-66, .cls-67, .cls-68 {
        stroke-width: 0px;
      }

      .cls-2, .cls-4, .cls-12, .cls-14, .cls-44, .cls-60, .cls-63 {
        mix-blend-mode: multiply;
      }

      .cls-3 {
        fill: url(#linear-gradient-12);
      }

      .cls-4 {
        fill: url(#linear-gradient-23);
      }

      .cls-69, .cls-9, .cls-19 {
        opacity: .18;
      }

      .cls-5 {
        fill: #1487e3;
      }

      .cls-6 {
        fill: url(#linear-gradient);
      }

      .cls-70 {
        mask: url(#mask-10);
      }

      .cls-7 {
        fill: #3788cc;
      }

      .cls-71 {
        filter: url(#luminosity-noclip-7);
      }

      .cls-72 {
        filter: url(#luminosity-noclip-13);
      }

      .cls-8 {
        fill: url(#linear-gradient-6);
      }

      .cls-9 {
        fill: url(#linear-gradient-7);
      }

      .cls-10 {
        fill: #eea987;
      }

      .cls-73 {
        filter: url(#luminosity-noclip-5);
      }

      .cls-11 {
        fill: #3b3b40;
      }

      .cls-12 {
        fill: url(#linear-gradient-25);
      }

      .cls-13 {
        fill: #e8734d;
      }

      .cls-74 {
        mask: url(#mask-2);
      }

      .cls-14 {
        fill: url(#linear-gradient-11);
      }

      .cls-75 {
        isolation: isolate;
      }

      .cls-15 {
        fill: #f5f5f5;
        mix-blend-mode: hard-light;
      }

      .cls-16 {
        fill: #dfe1e8;
      }

      .cls-76 {
        mask: url(#mask-13);
      }

      .cls-17 {
        fill: #bfb2ac;
      }

      .cls-18 {
        fill: url(#linear-gradient-15);
      }

      .cls-19 {
        fill: url(#linear-gradient-9);
      }

      .cls-20 {
        fill: #998e89;
      }

      .cls-21 {
        fill: #292c47;
      }

      .cls-77 {
        mask: url(#mask-3);
      }

      .cls-22 {
        fill: #ccbdb7;
      }

      .cls-23 {
        fill: url(#linear-gradient-5);
      }

      .cls-24 {
        fill: #db9c7c;
      }

      .cls-78 {
        mask: url(#mask-9);
      }

      .cls-79 {
        mask: url(#mask-12);
      }

      .cls-25 {
        fill: #e0cec7;
      }

      .cls-26 {
        fill: #1173c2;
      }

      .cls-27 {
        fill: #1d3b54;
      }

      .cls-80 {
        mask: url(#mask-5);
      }

      .cls-28 {
        fill: #e2d2ca;
      }

      .cls-29 {
        fill: #eea886;
      }

      .cls-30 {
        fill: #40d5e6;
      }

      .cls-31 {
        fill: url(#linear-gradient-16);
      }

      .cls-32 {
        fill: url(#linear-gradient-22);
      }

      .cls-33 {
        fill: #f5f7ff;
      }

      .cls-34 {
        fill: #fff;
      }

      .cls-35 {
        fill: url(#linear-gradient-20);
      }

      .cls-36 {
        fill: url(#linear-gradient-14);
      }

      .cls-37 {
        fill: url(#linear-gradient-2);
      }

      .cls-81 {
        filter: url(#luminosity-noclip-9);
      }

      .cls-38 {
        fill: #2273b5;
      }

      .cls-39 {
        fill: #a77860;
      }

      .cls-40 {
        fill: #5e5854;
      }

      .cls-82 {
        mask: url(#mask-8);
      }

      .cls-41 {
        fill: #918681;
      }

      .cls-42 {
        fill: #3a3f47;
      }

      .cls-43 {
        fill: #b8aba5;
      }

      .cls-83 {
        mask: url(#mask-4);
      }

      .cls-44 {
        fill: url(#linear-gradient-17);
      }

      .cls-45 {
        fill: #78c3ff;
      }

      .cls-46 {
        fill: url(#linear-gradient-3);
      }

      .cls-47 {
        fill: #fccca2;
      }

      .cls-84 {
        mask: url(#mask-6);
      }

      .cls-48 {
        fill: #616161;
      }

      .cls-49 {
        fill: url(#linear-gradient-8);
      }

      .cls-50 {
        fill: url(#linear-gradient-24);
      }

      .cls-51 {
        fill: url(#linear-gradient-26);
      }

      .cls-52 {
        fill: url(#linear-gradient-18);
      }

      .cls-53 {
        fill: #918783;
      }

      .cls-85 {
        filter: url(#luminosity-noclip);
      }

      .cls-86 {
        mask: url(#mask-1);
      }

      .cls-87 {
        mask: url(#mask);
      }

      .cls-54 {
        fill: #e8e8e8;
      }

      .cls-55 {
        fill: #d6c5be;
      }

      .cls-88 {
        mask: url(#mask-7);
      }

      .cls-56 {
        fill: #4aafff;
      }

      .cls-57 {
        fill: url(#linear-gradient-10);
      }

      .cls-58 {
        fill: #fae6de;
      }

      .cls-59 {
        fill: #b3b7c4;
      }

      .cls-60 {
        fill: url(#linear-gradient-21);
      }

      .cls-61 {
        fill: url(#linear-gradient-4);
      }

      .cls-62 {
        fill: #424773;
      }

      .cls-63 {
        fill: url(#linear-gradient-13);
      }

      .cls-89 {
        mask: url(#mask-11);
      }

      .cls-64 {
        fill: #1a598c;
      }

      .cls-90 {
        filter: url(#luminosity-noclip-3);
      }

      .cls-65 {
        fill: #706865;
      }

      .cls-66 {
        fill: #b59074;
      }

      .cls-67 {
        fill: #323657;
      }

      .cls-68 {
        fill: #dbdff0;
      }
    </style>
    <linearGradient id="linear-gradient" x1="1722.14" y1="132.12" x2="750" y2="719.88" gradientUnits="userSpaceOnUse">
      <stop offset="0" stop-color="#40d5e6"/>
      <stop offset="1" stop-color="#57f"/>
    </linearGradient>
    <linearGradient id="linear-gradient-2" x1="1041.23" y1="634.62" x2="972.57" y2="689.38" gradientUnits="userSpaceOnUse">
      <stop offset="0" stop-color="#4f90f8"/>
      <stop offset="1" stop-color="#57f"/>
    </linearGradient>
    <linearGradient id="linear-gradient-3" x1="1282.85" y1="369.71" x2="1207.68" y2="415.15" gradientUnits="userSpaceOnUse">
      <stop offset="0" stop-color="#49acf1"/>
      <stop offset="1" stop-color="#57f"/>
    </linearGradient>
    <linearGradient id="linear-gradient-4" x1="1488.87" y1="377.95" x2="1413.7" y2="423.4" gradientUnits="userSpaceOnUse">
      <stop offset="0" stop-color="#48b3ef"/>
      <stop offset="1" stop-color="#57f"/>
    </linearGradient>
    <linearGradient id="linear-gradient-5" x1="794.73" y1="588.62" x2="719.56" y2="634.07" xlink:href="#linear-gradient"/>
    <linearGradient id="linear-gradient-6" x1="711.5" y1="734.24" x2="862.9" y2="734.24" gradientUnits="userSpaceOnUse">
      <stop offset="0" stop-color="#d5e4ff"/>
      <stop offset="1" stop-color="#edfffe"/>
    </linearGradient>
    <linearGradient id="linear-gradient-7" x1="850.34" y1="507.23" x2="1001.74" y2="507.23" xlink:href="#linear-gradient-6"/>
    <linearGradient id="linear-gradient-8" x1="1139.51" y1="672.7" x2="1290.91" y2="672.7" xlink:href="#linear-gradient"/>
    <linearGradient id="linear-gradient-9" x1="1412.9" y1="225.83" x2="1289.12" y2="300.67" xlink:href="#linear-gradient"/>
    <linearGradient id="linear-gradient-10" x1="1495.21" y1="507.23" x2="1646.61" y2="507.23" xlink:href="#linear-gradient"/>
    <filter id="luminosity-noclip" x="83.61" y="0" width="623.14" height="875.55" color-interpolation-filters="sRGB" filterUnits="userSpaceOnUse">
      <feFlood flood-color="#fff" result="bg"/>
      <feBlend in="SourceGraphic" in2="bg"/>
    </filter>
    <filter id="luminosity-noclip-2" x="83.61" y="-9154.81" width="623.14" height="32766" color-interpolation-filters="sRGB" filterUnits="userSpaceOnUse">
      <feFlood flood-color="#fff" result="bg"/>
      <feBlend in="SourceGraphic" in2="bg"/>
    </filter>
    <mask id="mask-1" x="83.61" y="-9154.81" width="623.14" height="32766" maskUnits="userSpaceOnUse"/>
    <linearGradient id="linear-gradient-11" x1="570.36" y1="50.74" x2="22.83" y2="1286.58" gradientUnits="userSpaceOnUse">
      <stop offset="0" stop-color="#fff"/>
      <stop offset="1" stop-color="#000"/>
    </linearGradient>
    <mask id="mask" x="83.61" y="0" width="623.14" height="875.55" maskUnits="userSpaceOnUse">
      <g class="cls-85">
        <g class="cls-86">
          <polygon class="cls-14" points="676.35 101.54 706.76 54.32 622.4 0 592 47.21 575 36.27 553.82 69.16 536.19 57.81 102.37 731.48 119.99 742.83 83.61 799.33 201.96 875.55 238.35 819.05 255.97 830.4 689.8 156.72 672.17 145.37 693.35 112.48 676.35 101.54"/>
        </g>
      </g>
    </mask>
    <linearGradient id="linear-gradient-12" x1="570.36" y1="50.74" x2="22.83" y2="1286.58" xlink:href="#linear-gradient"/>
    <filter id="luminosity-noclip-3" x="26.92" y="551.26" width="658.06" height="888.06" color-interpolation-filters="sRGB" filterUnits="userSpaceOnUse">
      <feFlood flood-color="#fff" result="bg"/>
      <feBlend in="SourceGraphic" in2="bg"/>
    </filter>
    <filter id="luminosity-noclip-4" x="26.92" y="-9154.81" width="658.06" height="32766" color-interpolation-filters="sRGB" filterUnits="userSpaceOnUse">
      <feFlood flood-color="#fff" result="bg"/>
      <feBlend in="SourceGraphic" in2="bg"/>
    </filter>
    <mask id="mask-3" x="26.92" y="-9154.81" width="658.06" height="32766" maskUnits="userSpaceOnUse"/>
    <linearGradient id="linear-gradient-13" x1="825.99" y1="163.99" x2="278.46" y2="1399.84" xlink:href="#linear-gradient-11"/>
    <mask id="mask-2" x="26.92" y="551.26" width="658.06" height="888.06" maskUnits="userSpaceOnUse">
      <g class="cls-90">
        <g class="cls-77">
          <path class="cls-63" d="m468.58,1093.04l-2.67.43c57.63-53.27,93.1-113.48,105.84-180.21,35.71-186.95-129.25-355.19-136.02-362l-43.57,67.66c1.36,1.37,130.3,132.93,102.29,279.59-17.49,91.58-95.88,170.1-233.03,233.58l-48.67-25.49,9.36-17.87-185.31-97.05-9.89,18.88,95.93,50.24-45.11,86.13,183.13,95.91-28.36,86.1H89.87v110.4h595.11v-110.4h-216.4v-235.89Z"/>
        </g>
      </g>
    </mask>
    <linearGradient id="linear-gradient-14" x1="825.99" y1="163.99" x2="278.46" y2="1399.84" xlink:href="#linear-gradient"/>
    <linearGradient id="linear-gradient-15" x1="565.12" y1="297.17" x2="717.33" y2="297.17" gradientTransform="translate(542.36 -402.62) rotate(57.09)" gradientUnits="userSpaceOnUse">
      <stop offset="0" stop-color="#253380"/>
      <stop offset="1" stop-color="#2d899e"/>
    </linearGradient>
    <linearGradient id="linear-gradient-16" x1="505.29" y1="36.6" x2="519.14" y2="76.05" gradientTransform="matrix(1,0,0,1,0,0)" xlink:href="#linear-gradient-15"/>
    <filter id="luminosity-noclip-5" x="722.65" y="280.01" width="103.81" height="7.28" color-interpolation-filters="sRGB" filterUnits="userSpaceOnUse">
      <feFlood flood-color="#fff" result="bg"/>
      <feBlend in="SourceGraphic" in2="bg"/>
    </filter>
    <filter id="luminosity-noclip-6" x="722.65" y="-9154.81" width="103.81" height="32766" color-interpolation-filters="sRGB" filterUnits="userSpaceOnUse">
      <feFlood flood-color="#fff" result="bg"/>
      <feBlend in="SourceGraphic" in2="bg"/>
    </filter>
    <mask id="mask-5" x="722.65" y="-9154.81" width="103.81" height="32766" maskUnits="userSpaceOnUse"/>
    <linearGradient id="linear-gradient-17" x1="820.49" y1="170.04" x2="726.07" y2="403.57" gradientTransform="translate(1549.11 567.29) rotate(-180)" xlink:href="#linear-gradient-11"/>
    <mask id="mask-4" x="722.65" y="280.01" width="103.81" height="7.28" maskUnits="userSpaceOnUse">
      <g class="cls-73">
        <g class="cls-80">
          <rect class="cls-44" x="722.65" y="280.01" width="103.81" height="7.28" transform="translate(1549.11 567.29) rotate(180)"/>
        </g>
      </g>
    </mask>
    <linearGradient id="linear-gradient-18" x1="820.49" y1="170.04" x2="726.07" y2="403.57" gradientTransform="translate(1549.11 567.29) rotate(-180)" xlink:href="#linear-gradient"/>
    <filter id="luminosity-noclip-7" x="722.65" y="293.72" width="103.81" height="30.59" color-interpolation-filters="sRGB" filterUnits="userSpaceOnUse">
      <feFlood flood-color="#fff" result="bg"/>
      <feBlend in="SourceGraphic" in2="bg"/>
    </filter>
    <filter id="luminosity-noclip-8" x="722.65" y="-9154.81" width="103.81" height="32766" color-interpolation-filters="sRGB" filterUnits="userSpaceOnUse">
      <feFlood flood-color="#fff" result="bg"/>
      <feBlend in="SourceGraphic" in2="bg"/>
    </filter>
    <mask id="mask-7" x="722.65" y="-9154.81" width="103.81" height="32766" maskUnits="userSpaceOnUse"/>
    <linearGradient id="linear-gradient-19" x1="829.31" y1="173.6" x2="734.88" y2="407.14" gradientTransform="translate(1549.11 618.04) rotate(-180)" xlink:href="#linear-gradient-11"/>
    <mask id="mask-6" x="722.65" y="293.72" width="103.81" height="30.59" maskUnits="userSpaceOnUse">
      <g class="cls-71">
        <g class="cls-88">
          <rect class="cls-2" x="722.65" y="293.72" width="103.81" height="30.59" transform="translate(1549.11 618.04) rotate(180)"/>
        </g>
      </g>
    </mask>
    <linearGradient id="linear-gradient-20" x1="829.31" y1="173.6" x2="734.88" y2="407.14" gradientTransform="translate(1549.11 618.04) rotate(-180)" xlink:href="#linear-gradient"/>
    <filter id="luminosity-noclip-9" x="673.88" y="334.6" width="61.24" height="4.57" color-interpolation-filters="sRGB" filterUnits="userSpaceOnUse">
      <feFlood flood-color="#fff" result="bg"/>
      <feBlend in="SourceGraphic" in2="bg"/>
    </filter>
    <filter id="luminosity-noclip-10" x="673.88" y="-9154.81" width="61.24" height="32766" color-interpolation-filters="sRGB" filterUnits="userSpaceOnUse">
      <feFlood flood-color="#fff" result="bg"/>
      <feBlend in="SourceGraphic" in2="bg"/>
    </filter>
    <mask id="mask-9" x="673.88" y="-9154.81" width="61.24" height="32766" maskUnits="userSpaceOnUse"/>
    <linearGradient id="linear-gradient-21" x1="778.78" y1="153.17" x2="684.36" y2="386.71" gradientTransform="translate(1409.01 673.78) rotate(-180)" xlink:href="#linear-gradient-11"/>
    <mask id="mask-8" x="673.88" y="334.6" width="61.24" height="4.57" maskUnits="userSpaceOnUse">
      <g class="cls-81">
        <g class="cls-78">
          <rect class="cls-60" x="673.88" y="334.6" width="61.24" height="4.57" transform="translate(1409.01 673.78) rotate(180)"/>
        </g>
      </g>
    </mask>
    <linearGradient id="linear-gradient-22" x1="778.78" y1="153.17" x2="684.36" y2="386.71" gradientTransform="translate(1409.01 673.78) rotate(-180)" xlink:href="#linear-gradient"/>
    <filter id="luminosity-noclip-11" x="673.88" y="341.17" width="61.24" height="12.38" color-interpolation-filters="sRGB" filterUnits="userSpaceOnUse">
      <feFlood flood-color="#fff" result="bg"/>
      <feBlend in="SourceGraphic" in2="bg"/>
    </filter>
    <filter id="luminosity-noclip-12" x="673.88" y="-9154.81" width="61.24" height="32766" color-interpolation-filters="sRGB" filterUnits="userSpaceOnUse">
      <feFlood flood-color="#fff" result="bg"/>
      <feBlend in="SourceGraphic" in2="bg"/>
    </filter>
    <mask id="mask-11" x="673.88" y="-9154.81" width="61.24" height="32766" maskUnits="userSpaceOnUse"/>
    <linearGradient id="linear-gradient-23" x1="782.42" y1="154.65" x2="688" y2="388.18" gradientTransform="translate(1409.01 694.73) rotate(-180)" xlink:href="#linear-gradient-11"/>
    <mask id="mask-10" x="673.88" y="341.17" width="61.24" height="12.38" maskUnits="userSpaceOnUse">
      <g class="cls-1">
        <g class="cls-89">
          <rect class="cls-4" x="673.88" y="341.17" width="61.24" height="12.38" transform="translate(1409.01 694.73) rotate(180)"/>
        </g>
      </g>
    </mask>
    <linearGradient id="linear-gradient-24" x1="782.42" y1="154.65" x2="688" y2="388.18" gradientTransform="translate(1409.01 694.73) rotate(-180)" xlink:href="#linear-gradient"/>
    <filter id="luminosity-noclip-13" x="843.51" y="240.78" width="4.57" height="85.72" color-interpolation-filters="sRGB" filterUnits="userSpaceOnUse">
      <feFlood flood-color="#fff" result="bg"/>
      <feBlend in="SourceGraphic" in2="bg"/>
    </filter>
    <filter id="luminosity-noclip-14" x="843.51" y="-9154.81" width="4.57" height="32766" color-interpolation-filters="sRGB" filterUnits="userSpaceOnUse">
      <feFlood flood-color="#fff" result="bg"/>
      <feBlend in="SourceGraphic" in2="bg"/>
    </filter>
    <mask id="mask-13" x="843.51" y="-9154.81" width="4.57" height="32766" maskUnits="userSpaceOnUse"/>
    <linearGradient id="linear-gradient-25" x1="881.72" y1="194.79" x2="787.3" y2="428.33" gradientTransform="translate(1691.59 567.29) rotate(-180)" xlink:href="#linear-gradient-11"/>
    <mask id="mask-12" x="843.51" y="240.78" width="4.57" height="85.72" maskUnits="userSpaceOnUse">
      <g class="cls-72">
        <g class="cls-76">
          <rect class="cls-12" x="843.51" y="240.78" width="4.57" height="85.72" transform="translate(1691.59 567.29) rotate(180)"/>
        </g>
      </g>
    </mask>
    <linearGradient id="linear-gradient-26" x1="881.72" y1="194.79" x2="787.3" y2="428.33" gradientTransform="translate(1691.59 567.29) rotate(-180)" xlink:href="#linear-gradient"/>
  </defs>
  <g class="cls-75">
    <g id="Layer_2" data-name="Layer 2">
      <g id="_Слой_1" data-name="Слой 1">
        <g>
          <g>
            <g>
              <polygon class="cls-6" points="518.6 842.73 509.08 832.64 755.24 600.37 1004.38 654.36 1242.35 382.98 1449.9 394.69 1611.54 171.73 1622.77 179.87 1456.68 408.96 1248.32 397.21 1009.42 669.64 759.45 615.47 518.6 842.73"/>
              <path class="cls-34" d="m1043.05,654.17c4.32,19.96-8.36,39.65-28.32,43.97-19.96,4.32-39.65-8.36-43.97-28.32-4.32-19.96,8.36-39.65,28.32-43.97,19.96-4.32,39.65,8.36,43.97,28.32Z"/>
              <path class="cls-37" d="m1016.19,704.92c-23.67,5.12-47.09-9.96-52.21-33.63-5.12-23.67,9.96-47.09,33.63-52.22,23.67-5.12,47.09,9.96,52.22,33.63,5.12,23.67-9.96,47.09-33.63,52.21Zm-15.65-72.29c-16.19,3.51-26.52,19.53-23.01,35.73,3.51,16.19,19.53,26.52,35.73,23.01,16.19-3.51,26.52-19.53,23.01-35.73-3.51-16.19-19.53-26.52-35.73-23.01Z"/>
              <path class="cls-34" d="m1281.41,384.6c4.32,19.96-8.36,39.65-28.32,43.97-19.96,4.32-39.65-8.36-43.97-28.32-4.32-19.96,8.36-39.65,28.32-43.97,19.96-4.32,39.65,8.36,43.97,28.32Z"/>
              <path class="cls-46" d="m1254.56,435.35c-23.67,5.12-47.09-9.96-52.22-33.63-5.12-23.67,9.96-47.09,33.63-52.22,23.67-5.12,47.09,9.96,52.21,33.63,5.12,23.67-9.96,47.09-33.63,52.21Zm-15.65-72.29c-16.19,3.51-26.51,19.53-23.01,35.73,3.51,16.19,19.53,26.51,35.73,23.01,16.19-3.51,26.51-19.53,23.01-35.73-3.51-16.19-19.53-26.52-35.73-23.01Z"/>
              <path class="cls-34" d="m1487.43,392.85c4.32,19.96-8.36,39.65-28.32,43.97-19.96,4.32-39.65-8.36-43.97-28.32-4.32-19.96,8.36-39.65,28.32-43.97,19.96-4.32,39.65,8.36,43.97,28.32Z"/>
              <path class="cls-61" d="m1460.58,443.6c-23.67,5.12-47.09-9.96-52.22-33.63-5.12-23.67,9.96-47.09,33.63-52.22,23.67-5.13,47.09,9.96,52.22,33.63,5.12,23.67-9.96,47.09-33.63,52.21Zm-15.65-72.29c-16.19,3.51-26.52,19.53-23.01,35.73,3.51,16.19,19.53,26.51,35.73,23.01,16.19-3.51,26.51-19.53,23.01-35.73-3.51-16.19-19.53-26.52-35.73-23.01Z"/>
              <path class="cls-34" d="m793.29,603.52c4.32,19.96-8.36,39.65-28.32,43.97-19.96,4.32-39.65-8.36-43.97-28.32-4.32-19.96,8.36-39.65,28.32-43.97,19.96-4.32,39.65,8.36,43.97,28.32Z"/>
              <path class="cls-23" d="m766.44,654.27c-23.67,5.13-47.09-9.96-52.22-33.63-5.12-23.67,9.96-47.09,33.63-52.21,23.67-5.13,47.09,9.96,52.22,33.63,5.12,23.67-9.96,47.09-33.63,52.22Zm-15.65-72.29c-16.19,3.51-26.52,19.53-23.01,35.73,3.51,16.19,19.53,26.52,35.73,23.01,16.19-3.51,26.52-19.53,23.01-35.73-3.51-16.19-19.53-26.51-35.73-23.01Z"/>
            </g>
            <g class="cls-69">
              <rect class="cls-8" x="711.5" y="719.66" width="151.4" height="29.15"/>
            </g>
            <rect class="cls-9" x="850.34" y="492.65" width="151.4" height="29.15"/>
            <g class="cls-69">
              <rect class="cls-49" x="1139.51" y="658.12" width="151.4" height="29.15"/>
            </g>
            <rect class="cls-19" x="1275.31" y="248.67" width="151.4" height="29.15"/>
            <g class="cls-69">
              <rect class="cls-57" x="1495.21" y="492.65" width="151.4" height="29.15"/>
            </g>
          </g>
          <g>
            <g class="cls-87">
              <polygon class="cls-3" points="676.35 101.54 706.76 54.32 622.4 0 592 47.21 575 36.27 553.82 69.16 536.19 57.81 102.37 731.48 119.99 742.83 83.61 799.33 201.96 875.55 238.35 819.05 255.97 830.4 689.8 156.72 672.17 145.37 693.35 112.48 676.35 101.54"/>
            </g>
            <g class="cls-74">
              <path class="cls-36" d="m468.58,1093.04l-2.67.43c57.63-53.27,93.1-113.48,105.84-180.21,35.71-186.95-129.25-355.19-136.02-362l-43.57,67.66c1.36,1.37,130.3,132.93,102.29,279.59-17.49,91.58-95.88,170.1-233.03,233.58l-48.67-25.49,9.36-17.87-185.31-97.05-9.89,18.88,95.93,50.24-45.11,86.13,183.13,95.91-28.36,86.1H89.87v110.4h595.11v-110.4h-216.4v-235.89Z"/>
            </g>
          </g>
          <g>
            <path class="cls-30" d="m139.3,86.03c-53.08-8.21-103.43,19.47-126.37,64.98-5.55,11.02-9.5,23.08-11.49,35.94-6.02,38.94,7.27,76.43,32.76,102.68,17.66,18.2,41.17,31,68.17,35.18,2.68.42,5.37.74,8.04.98,12.1,1.06,23.98.28,35.36-2.13,47.74-10.07,86.56-48.7,94.46-99.77,10.2-65.94-34.99-127.66-100.93-137.86Zm71.04,133.23c-5.92,38.29-35.02,67.25-70.82,74.8-8.53,1.8-17.44,2.39-26.51,1.59-2-.18-4.02-.42-6.03-.73-20.24-3.13-37.86-12.73-51.1-26.37-19.11-19.69-29.08-47.79-24.56-76.98,1.49-9.64,4.45-18.68,8.61-26.95,17.19-34.12,54.95-54.88,94.75-48.72,49.44,7.65,83.31,53.92,75.67,103.36Z"/>
            <path class="cls-64" d="m55.88,268.56l-21.68,21.08C8.71,263.38-4.59,225.89,1.44,186.95c1.99-12.86,5.94-24.92,11.49-35.94l27,13.62c-4.16,8.26-7.12,17.31-8.61,26.95-4.52,29.2,5.45,57.3,24.56,76.98Z"/>
            <path class="cls-38" d="m113.01,295.66l-2.61,30.13c-2.67-.23-5.36-.56-8.04-.98-26.99-4.17-50.51-16.98-68.17-35.18l21.68-21.08c13.24,13.64,30.87,23.24,51.1,26.37,2.01.31,4.03.55,6.03.73Z"/>
            <path class="cls-7" d="m145.76,323.66c-11.38,2.41-23.27,3.18-35.36,2.13l2.61-30.13c9.07.8,17.98.21,26.51-1.59l6.24,29.59Z"/>
          </g>
          <rect class="cls-7" x="21.92" y="383.66" width="148.12" height="18.64"/>
          <rect class="cls-7" x="21.92" y="423.27" width="171.56" height="18.64"/>
          <g>
            <rect class="cls-15" x="356.16" y="795.9" width="865.65" height="792.67" rx="48.13" ry="48.13"/>
            <g>
              <path class="cls-45" d="m676.98,1036.01c17.54-49.05,1.71-101.92-35.75-133.79-8.93-7.6-19.08-14-30.31-18.88-2.48-1.07-5.01-2.08-7.59-3-25.92-9.27-52.91-9.22-77.3-1.59-35.19,11.02-64.98,37.84-78.36,75.24-4.42,12.35-6.71,24.93-7.09,37.36-1.54,51.35,29.77,100.06,80.74,118.29,63.32,22.65,133.01-10.33,155.66-73.65Zm-145.41,44.96c-38.22-13.67-61.7-50.2-60.53-88.69.28-9.32,2.01-18.76,5.32-28.01,10.02-28.04,32.36-48.15,58.75-56.41,18.28-5.72,38.52-5.76,57.95,1.19,1.93.69,3.83,1.44,5.69,2.25,8.42,3.65,16.04,8.45,22.73,14.15,28.08,23.89,39.95,63.53,26.8,100.3-16.98,47.48-69.23,72.2-116.71,55.22Z"/>
              <path class="cls-26" d="m535.11,907.85l-9.09-29.09c-35.19,11.02-64.98,37.84-78.36,75.24-4.42,12.35-6.71,24.93-7.09,37.36l30.47.91c.28-9.32,2.01-18.76,5.32-28.01,10.02-28.04,32.36-48.15,58.75-56.41Z"/>
              <path class="cls-5" d="m598.75,911.29l12.16-27.95c-2.48-1.07-5.01-2.08-7.59-3-25.92-9.27-52.91-9.22-77.3-1.59l9.09,29.09c18.28-5.72,38.52-5.76,57.95,1.19,1.93.69,3.83,1.44,5.69,2.25Z"/>
              <path class="cls-56" d="m641.22,902.22c-8.93-7.6-19.08-14-30.31-18.88l-12.16,27.95c8.42,3.65,16.04,8.45,22.73,14.15l19.75-23.22Z"/>
            </g>
            <rect class="cls-56" x="1022.28" y="1283.2" width="42.26" height="144.75"/>
            <rect class="cls-56" x="959.46" y="1323.8" width="42.26" height="104.15"/>
            <rect class="cls-56" x="1083.23" y="1216.12" width="42.26" height="211.83"/>
            <polygon class="cls-56" points="1118.67 1110.3 1117.92 1105.73 1006.41 1123.99 970.25 1201.05 850.01 1209.21 811.06 1266.66 719.14 1264.38 719.03 1269.01 813.48 1271.35 852.58 1213.68 973.28 1205.48 1009.56 1128.17 1118.67 1110.3"/>
            <path class="cls-5" d="m981.19,889.94h122.57c6.92,0,12.54,5.62,12.54,12.54v2.4c0,6.92-5.62,12.54-12.54,12.54h-122.57c-6.92,0-12.54-5.62-12.54-12.54v-2.4c0-6.92,5.62-12.54,12.54-12.54Z" transform="translate(2084.95 1807.36) rotate(180)"/>
            <path class="cls-56" d="m981.19,937.87h122.57c6.92,0,12.54,5.62,12.54,12.54v2.4c0,6.92-5.62,12.54-12.54,12.54h-122.57c-6.92,0-12.54-5.62-12.54-12.54v-2.4c0-6.92,5.62-12.54,12.54-12.54Z" transform="translate(2084.95 1903.22) rotate(180)"/>
            <path class="cls-56" d="m981.19,985.8h122.57c6.92,0,12.54,5.62,12.54,12.54v2.4c0,6.92-5.62,12.54-12.54,12.54h-122.57c-6.92,0-12.54-5.62-12.54-12.54v-2.4c0-6.92,5.62-12.54,12.54-12.54Z" transform="translate(2084.95 1999.08) rotate(-180)"/>
            <polygon class="cls-56" points="764.85 941.18 696.11 941.18 696.11 938.54 763.76 938.54 799.95 902.35 844.27 902.35 844.27 904.99 801.04 904.99 764.85 941.18"/>
            <polygon class="cls-56" points="829.99 1061.24 741.54 1061.24 712.87 1032.58 714.74 1030.71 742.63 1058.6 829.99 1058.6 829.99 1061.24"/>
            <rect class="cls-5" x="806.49" y="919.81" width="91.69" height="11.25"/>
            <rect class="cls-5" x="778.52" y="1034.53" width="73.81" height="11.25"/>
          </g>
          <rect class="cls-54" x="666.91" y="1536.21" width="373.24" height="15.77"/>
          <rect class="cls-54" x="666.91" y="1573" width="403.3" height="15.77"/>
          <rect class="cls-54" x="666.91" y="1609.8" width="261.68" height="15.77"/>
          <rect class="cls-56" x="666.91" y="1536.21" width="194.34" height="15.77"/>
          <rect class="cls-56" x="666.91" y="1573" width="209.99" height="15.77"/>
          <rect class="cls-56" x="666.91" y="1609.8" width="136.26" height="15.77"/>
          <g>
            <rect class="cls-28" x="580.51" y="1469.59" width="145.37" height="8.63"/>
            <rect class="cls-65" x="599.99" y="1500.68" width="12.74" height="392.44" transform="translate(1212.72 3393.81) rotate(180)"/>
            <rect class="cls-22" x="703.12" y="1467.15" width="101.05" height="12.32"/>
            <rect class="cls-20" x="734.52" y="1362" width="38.26" height="116.22"/>
            <rect class="cls-66" x="528.36" y="1478.37" width="559.85" height="22.31"/>
            <path class="cls-15" d="m420.91,1343.31s-6.12,85.87,10.66,96.15c10.51,6.44,52.42,28.15,51.17,32.22-1.24,4.07-23.66,36.23-23.66,36.23,0,0-80.5-53.01-83.09-69.71-2.54-16.32,3.96-125.73,15.02-130.77,8.29-3.78,12.66-.65,23.11,7.1,14.66,10.88,6.79,28.78,6.79,28.78Z"/>
            <path class="cls-62" d="m519.95,1839.54s-2.5,17.37-2.82,19.98c-.31,2.61-27.85-1.54-27.85-1.54l-2.23-20.68s29.45-.21,32.89,2.24Z"/>
            <path class="cls-21" d="m517.43,1857.32s8.72,10.47,17.16,15.03c8.44,4.56,21.7,6.37,26.68,11.09,3.6,3.41,13.12,18.09-21.92,17.79-35.04-.3-51.94,2.07-55.69-3.56-3.75-5.63,5.43-41.54,5.43-41.54,0,0,8.3,2.99,28.34,1.18Z"/>
            <path class="cls-62" d="m696.35,1839.71s-2.5,17.37-2.82,19.98c-.31,2.61-27.85-1.54-27.85-1.54l-2.23-20.68s29.45-.21,32.89,2.24Z"/>
            <path class="cls-21" d="m693.83,1857.48s8.72,10.47,17.16,15.03c8.44,4.56,39.49,8.31,44.47,13.04,3.6,3.41,9.59,17.14-39.71,15.85-35.03-.91-51.94,2.07-55.69-3.56-3.75-5.63,5.43-41.54,5.43-41.54,0,0,7.82,3.19,28.34,1.18Z"/>
            <path class="cls-21" d="m431.15,1539.42s100.1,16.94,122.71,20.49c22.61,3.55,145.19,34.06,160.52,43.35,12.2,7.4-6.4,185.09-10.75,252.89h-48.28l-3.5-203.37c-57.94,1.45-99.29-13.55-141.48-7.14-42.19,6.41-77.37,15.52-104.18-20.45,0,0-.99-77.91,24.96-85.77Z"/>
            <path class="cls-21" d="m529.81,1856.3l-47.05-2.91-4.59-200.62c-24.94.62-33.49-.96-53.68-3.41l-37.99-88.31c33.29,6.66,139.97,33.56,154.2,42.19,12.2,7.4-6.54,185.26-10.89,253.05Z"/>
            <path class="cls-29" d="m477.22,1164.21s36.69-10.14,50.69,18.34c14,28.49,7.65,82.49-10.84,87.57-18.49,5.08-45.09-.77-52.76-18.5-7.68-17.73-13.8-42.92-11.96-59.24,1.84-16.31,15.13-24.28,24.88-28.18Z"/>
            <path class="cls-29" d="m507.49,1264.44s-.4,21.66,1.99,26.28c2.39,4.62-51.1,3.46-51.1,3.46,0,0,8.43-26.02,3.65-48.18-4.73-21.94,45.46,18.44,45.46,18.44Z"/>
            <path class="cls-42" d="m459.14,1237.8s2.86,5.81,16.7,4.87c13.84-.94,32.1-17.64,37.98-19.13,5.88-1.49,6.23-4.84,6.23-4.84l3.11,5.53,6.02.92s-4.09-16.74,4.82-22.63c8.92-5.89-4.02-53.36-49.16-41.91,0,0-34.45,6.31-34.91,25.55-.46,19.24,2.52,41.46,9.21,51.65Z"/>
            <path class="cls-28" d="m512.29,1290.16s-.15-8.83-4.15-9.67c-4-.85-42.04-6.08-46.95-4.15l-2.11,11.65s9.46,5.82,53.21,2.17Z"/>
            <path class="cls-29" d="m523.29,1214.76c-1.03-7.23-9.25-15.54-13.96-4.27-4.71,11.26,3.18,27.67,8.46,26.79,5.28-.88,6.89-12.7,5.5-22.52Z"/>
            <path class="cls-67" d="m671.63,1394.42s-.04-.01-.07,0c.28.12.31.13.07,0Z"/>
            <path class="cls-42" d="m466.52,1169.37s-44.74-2.11-7.81,67.74l7.81-67.74Z"/>
            <polygon class="cls-53" points="366.84 1880.1 370.16 1889.46 510.79 1845.89 504.05 1826.93 366.84 1880.1"/>
            <rect class="cls-53" x="499.63" y="1686.33" width="15.98" height="152.89"/>
            <rect class="cls-40" x="460.49" y="1678.21" width="94.27" height="9.01"/>
            <polygon class="cls-53" points="649.64 1880.1 646.32 1889.46 505.69 1845.89 511.87 1825.74 649.64 1880.1"/>
            <polygon class="cls-53" points="550.56 1888.46 550.56 1899.35 505.69 1845.89 511.87 1825.74 550.56 1888.46"/>
            <path class="cls-17" d="m662.78,1893.12c0,7.26-5.88,13.14-13.14,13.14s-13.14-5.88-13.14-13.14,5.88-13.14,13.14-13.14,13.14,5.88,13.14,13.14Z"/>
            <path class="cls-17" d="m551.68,1893.12c0,7.26-5.88,13.14-13.14,13.14s-13.14-5.88-13.14-13.14,5.88-13.14,13.14-13.14,13.14,5.88,13.14,13.14Z"/>
            <path class="cls-17" d="m379.98,1893.12c0,7.26-5.88,13.14-13.14,13.14s-13.14-5.88-13.14-13.14,5.88-13.14,13.14-13.14,13.14,5.88,13.14,13.14Z"/>
            <path class="cls-28" d="m411.95,1644.08h192.58c8.49,0,15.38,6.89,15.38,15.38v3.37c0,8.49-6.89,15.38-15.38,15.38h-192.58c-8.49,0-15.38-6.89-15.38-15.38v-3.37c0-8.49,6.89-15.38,15.38-15.38Z"/>
            <rect class="cls-65" x="1003.85" y="1500.68" width="12.74" height="392.44"/>
            <path class="cls-43" d="m603.78,1184.9h299.73c8.47,0,15.34,6.87,15.34,15.34v202.41c0,8.47-6.87,15.34-15.34,15.34h-299.73c-8.47,0-15.34-6.87-15.34-15.34v-202.41c0-8.47,6.87-15.34,15.34-15.34Z"/>
            <rect class="cls-33" x="601.38" y="1197.5" width="304.53" height="183.96"/>
            <path class="cls-41" d="m892.38,1398.82c0,5.23-5.5,9.47-12.27,9.47s-12.27-4.24-12.27-9.47,5.49-9.47,12.27-9.47,12.27,4.24,12.27,9.47Z"/>
            <path class="cls-20" d="m822.05,1478.67v-4.15s-5.83-25.8-47.08-25.8-40.41,29.95-40.41,29.95h87.49Z"/>
            <path class="cls-29" d="m734.06,1452.55s8.96-.7,12.24-2.68c3.28-1.98,22.92-15.19,27.54-13.07,4.61,2.12,35.32,11.52,34.25,16.01-1.07,4.49-3.91,4.06-6.07,3.26-2.17-.79-24.46-5.47-26.43-4.69,0,0,21.9,7.99,21.99,13.82.09,5.83-4.58,7.25-6.66,9.45-2.08,2.2-4.57,7.68-10.21,8.1-5.64.42-33.18-9.16-38.85-9.6-5.67-.44-16.16.35-16.87-.57-.71-.92,9.08-20.03,9.08-20.03Z"/>
            <path class="cls-68" d="m570.93,1302.39c-28.57-5.02-58.64-12.23-58.64-12.23l-53.21-2.17s-48.83,10.75-68.06,19.44c-1.82.82-1.83,43.56-6.84,54.77l15.94,33.64s9.21,66.63,11.12,96.27c.88,13.61-2.48,131.48-2.48,131.48,0,0,4.78,2.36,41.09,6.36,36.31,4,127.05-1.45,127.62-5.74.57-4.29-17.57-159.71-18.37-167.76-1.23-12.35,3.57-69.43,3.57-69.43,6.84,9.19,24.28,50.7,42.47,70.44,10.7,11.62,63.65,18.74,73.63,19.07,21.73.72,61.37,5.05,62.52,2.94.93-1.27,3.45-35.18.97-36.01-2.18-.73-75.78-4.96-94.64-14.97-6.9-3.66-27.52-48.63-27.52-48.63,0,0-33.41-70.39-49.17-77.47Z"/>
            <path class="cls-28" d="m373.92,1406.87h94.97c16.29,0,29.52,13.23,29.52,29.52v154.27c0,16.29-13.23,29.52-29.52,29.52h-94.97c-16.29,0-29.52-13.23-29.52-29.52v-154.27c0-16.29,13.23-29.52,29.52-29.52Z"/>
            <path class="cls-28" d="m471.12,1669.72c-22.7,0-41.12-7.63-54.74-22.67-30.79-33.99-25.26-93.75-25.01-96.27.47-4.71,4.67-8.15,9.37-7.68,4.71.47,8.15,4.66,7.68,9.37-.07.68-4.97,54.84,20.69,83.12,10.38,11.44,24.12,17,42.01,17,4.73,0,8.57,3.84,8.57,8.57s-3.84,8.57-8.57,8.57Z"/>
            <rect class="cls-16" x="622.97" y="1212.16" width="89.2" height="9.72" rx="2.2" ry="2.2"/>
            <rect class="cls-16" x="622.97" y="1233" width="89.2" height="9.72" rx="2.2" ry="2.2"/>
            <rect class="cls-16" x="622.97" y="1256.91" width="89.2" height="109.9" rx="7.39" ry="7.39"/>
            <rect class="cls-16" x="730.19" y="1212.16" width="158.85" height="154.66" rx="11.71" ry="11.71"/>
          </g>
          <g>
            <path class="cls-59" d="m1143.06,1568.6s48.15-13.62,106.97,0l-28.22-144.57s-70.46,74.7-78.75,144.57Z"/>
            <path class="cls-10" d="m990.46,1319.37s-10.81,7.74-14,6.77c-3.2-.97-8.57.59-11.6.27-3.04-.32-10.98-4.12-14.16-3.31-1.3.33-8.53,5.48-11.25,5.87-2.72.39-8.32.52-7.94,2.83.38,2.31,5.4,3.56,5.4,3.56,0,0-2.46.5-2.76,2.65-.59,4.17,1.59,5.63,1.59,5.63,0,0-2.19,2.13-2,3.92.42,3.95,2.58,5.3,2.58,5.3,0,0-.94,2.08-.06,4.63,1.13,3.26,4.57,3.75,4.57,3.75,0,0,.46,4.42,2.9,5.02,2.43.59,4.55-.27,6.56-.32,2.01-.05,19.32-6.04,29.61-15.03,10.3-8.99,22.2-14.26,22.2-14.26l-11.63-17.29Z"/>
            <path class="cls-47" d="m1212.16,1023.59s16.14-10.36,30.7,8.05c14.56,18.41,9.32,36.1,6.28,52.63-3.02,16.39-17.69,53.89-11.46,70.41,6.24,16.52-1.73,25.12-1.73,25.12,0,0-50.05,12.82-44.22-62.47,5.84-75.29,20.43-93.76,20.43-93.76Z"/>
            <path class="cls-68" d="m1190.71,1165.75s-19.06-2.61-31.85,6.98c-12.79,9.59-21.54,27.55-25.45,33.18-3.91,5.63-49.58,56.05-51.86,56.96-2.27.91-30.71,16.6-49.86,29.28-19.15,12.67-49.32,27.94-49.32,27.94l16.37,20.07s80.63-28.86,97.4-44.47c17.92-16.67,100.75-99.38,100.75-99.38,0,0,20.82-16.82-6.18-30.56Z"/>
            <path class="cls-27" d="m1052.05,1866.96s-20.62,27.75-17.79,32.15c2.83,4.4,24.51,5.03,37.7,0,13.2-5.03,13.51-37.55,19.48-51.53,2.5-5.85-2.85-23.12-10.37-24.37-7.52-1.25-15.7,2.43-15.7,2.43,0,0,7.8,19.68-13.33,41.32Z"/>
            <path class="cls-29" d="m1065.24,1825.41s-4.34,11.82-5.92,23.1c-1.31,9.36-14.69,29.23-14.06,31.75.63,2.51,17.59,4.79,24.51-1.69s11.36-25.33,12.88-36.6c1.42-10.5,3.21-15.68,3.21-15.68,0,0-14.02-7.79-20.62-.88Z"/>
            <polygon class="cls-27" points="1091.99 1845.14 1091.99 1874.2 1088.22 1874.2 1088.22 1851.74 1091.99 1845.14"/>
            <path class="cls-27" d="m1231.48,1867.42s-19.87,27.29-17.04,31.69c2.83,4.4,24.51,5.03,37.7,0,13.2-5.03,13.51-37.55,19.48-51.53,2.5-5.85-2.85-23.12-10.37-24.37-7.52-1.25-16.34,2.69-16.34,2.69,0,0,7.7,19.88-13.43,41.52Z"/>
            <path class="cls-29" d="m1244.92,1825.9s-1.57,12.88-4.08,21.99c-2.51,9.11-16.02,29.85-15.4,32.36.63,2.51,17.59,4.79,24.51-1.69,6.91-6.48,12.25-25.24,12.88-36.6.63-11.36-1.57-18.76-1.57-18.76,0,0-9.74-4.22-16.34,2.69Z"/>
            <polygon class="cls-27" points="1272.18 1845.14 1272.18 1874.2 1268.41 1874.2 1268.41 1851.74 1272.18 1845.14"/>
            <path class="cls-11" d="m1145.61,1374.08s-17.69,82.3-21.75,103.01c-4.06,20.72-15.44,121.07-16.66,138.13-1.22,17.06-18.46,81.36-17.65,87.45.81,6.1-26.53,127.02-26.53,127.02,0,0,28.14,7.66,32.88,2.5,4.02-4.38,44.46-114.96,44.46-145.43,0-42.12,31.77-95.75,35.79-105.17,37.33-87.54,29.36-115.66,34.23-121.35,4.88-5.69,5.3,3.51,8.14,16.11,2.84,12.59,8.93,121.48,12.59,135.29,3.66,13.81.82,60.54,2.85,84.1,2.03,23.56,4.37,129.14,4.37,129.14,0,0,20.38,4.69,30.07.17,2.79-1.3,9.84-117.61,10.25-145.65.41-28.03.84-66.69,1.62-78.82,7.53-116.17,18.63-132.66-3.11-214.97-41.71-157.9-131.55-11.55-131.55-11.55Z"/>
            <path class="cls-13" d="m1191.41,1154.81s-18.46,8.72-24.88,10c-6.41,1.28-31.29,33.59-35.65,45.39-4.36,11.8,0,29.49,8.98,50.27,8.98,20.77.51,27.7,4.62,48.47,4.1,20.77.21,69.46-.56,81-.77,11.54,94.36,26.2,130.93-10.64,0,0-19.84-37.27-22.92-42.4-3.08-5.13-.51-33.08,2.31-40.26,2.82-7.18,21.6-68.24,21.6-68.24,0,0,15.36-46.9,1.48-57.67-12.05-9.36-44.9-12.7-50.8-14.75-5.9-2.05-23.06-2.95-35.11-1.15Z"/>
            <path class="cls-55" d="m1185.51,1195.97l-11.22-13.14,9.74-34.59s3.27,19.26,1.48,47.73Z"/>
            <path class="cls-29" d="m1182.59,1133.5s3.68,33.87,2.91,44.9c0,0,19.19,19.23,41.01-22.44,0,0-9.18-17.17-2.27-40.58,6.91-23.4-41.65,18.12-41.65,18.12Z"/>
            <polygon class="cls-29" points="1185.51 1178.4 1185.51 1195.97 1207.59 1179.47 1185.51 1178.4"/>
            <polygon class="cls-55" points="1185.51 1195.97 1194.67 1184.62 1225.56 1153.84 1235.55 1163.46 1185.51 1195.97"/>
            <polygon class="cls-58" points="1174.29 1182.83 1160.15 1186.74 1184.03 1148.24 1174.29 1182.83"/>
            <polygon class="cls-58" points="1194.67 1184.62 1207.59 1201.55 1233.97 1156.5 1224.78 1151.8 1194.67 1184.62"/>
            <path class="cls-39" d="m1183.35,1140.96l.63,6.7s15.26,2.94,35.21-21.39c0,0-14.14,17.25-35.84,14.69Z"/>
            <path class="cls-10" d="m1187.22,1141.45c-6.01-.22-22.78-2.18-31.05-40.82-10.11-47.2,12.23-71.68,31.35-76.21,19.12-4.54,36.76,2.11,46.55,26.78,0,0,7.16,19.23-4.46,53.5-11.62,34.26-35.96,36.99-42.39,36.75Z"/>
            <path class="cls-47" d="m1202.57,1055.04s-25.68,1.6-49.55,37.46c0,0-11.18-43.15,18.03-62.84,29.21-19.69,49.66-2.76,56.79,5.83,0,0,10.22,2.35,10.54,21.74.32,19.39,13.36,48.65-15.25,62.53,0,0,2.73-22.13.21-27.2-2.52-5.06-11.26-1.64-20.76-37.51Z"/>
            <path class="cls-10" d="m1221.92,1083.95c1.3-3.36,4.82-4.71,6.77-1.11,1.94,3.6-.37,17.55-5.55,19.08-5.18,1.53-3.84-11.17-1.21-17.97Z"/>
            <path class="cls-68" d="m1233.97,1156.5s-29.01,34.7-32.05,107.64c-3.04,72.95,22.85,305.92,21.24,334.34l75.22-36.4s-.44-117.55-25.62-191.5c-29.55-86.78,4.06-113.24,7.13-166.62,0,0-1.39-39.08-23.18-42.63-20.45-3.33-22.74-4.83-22.74-4.83Z"/>
            <path class="cls-68" d="m1175.68,1161.71s-11.8,1.37-15.53,5.78c-3.73,4.41-27.04,31.28-28.74,39.19-1.7,7.91-7.13,13.81,4.05,50.67,10.01,33,7.5,69.97,5.42,84.77-2.07,14.8-38.09,214.83-36.12,219.96,1.97,5.13,16.97,17.37,16.97,17.37,0,0,32.26-197.36,31.92-230.32-.34-32.96-13.25-131.1,22.02-187.42Z"/>
            <g>
              <polygon class="cls-48" points="928.93 1265.86 954.08 1395.36 1037.2 1379.22 1015.29 1249.08 928.93 1265.86"/>
              <polygon class="cls-25" points="935.16 1272.16 957.5 1387.18 1031.32 1372.84 1011.87 1257.27 935.16 1272.16"/>
              <polygon class="cls-48" points="958.57 1270.59 957 1262.51 986.84 1256.71 989.58 1264.56 958.57 1270.59"/>
            </g>
            <path class="cls-24" d="m938.28,1334.32s14.89-4.86,19.3-2.06c4.41,2.79-.87,4.84-.87,4.84,0,0,5.19-2.11,7.24,1.77,2.05,3.88-4.25,5.95-4.25,5.95,0,0,4.35-.56,4.89,3.99.55,4.56-5.05,5.11-5.05,5.11,0,0,6.5,2.57,2.4,6.72-6.92,7.01-17.99,5.92-17.99,5.92,0,0-3.47-.42-3.69-4.84,0,0-6.57-1.37-4.37-8.74,0,0-5.8-5.27-.71-9.3,0,0-5.37-6.72,3.11-9.35Z"/>
            <path class="cls-29" d="m1298.61,1408.67s3,14.01-3.13,23.48c-2.34,3.62-.09,31.01.12,34.43.18,2.87,2.76,5.31,3.82,4.72,1.07-.59,1.3-15.75,2.91-20.64,1.35-4.1,2.56-5.65,3.3-4.34.74,1.31-1.78,23.32-3.21,30.6-1.44,7.28.36,22.64,4.15,20.16,3.78-2.48,16.42-36.57,15.49-47.95-.94-11.38-5.24-25.6-5.24-25.6l-18.2-14.87Z"/>
            <path class="cls-68" d="m1238.41,1158.56s30.04-1.85,45.1,15.68c15.07,17.53,14.25,38.35,18.08,47.39,3.84,9.04,12.6,47.94,14.52,54.24,1.92,6.3,3.79,41.71,6.53,70.2,2.74,28.49,2.19,81.69,2.19,81.69l-28.74-5.21s-1.16-50.71-1.89-80.11c-.73-29.41-24.65-81.36-33.69-104.1-9.04-22.74-45.03-65.52-22.09-79.78Z"/>
          </g>
          <rect class="cls-18" x="504.47" y="295.01" width="273.5" height="4.33" transform="translate(43.38 674.07) rotate(-57.09)"/>
          <polygon class="cls-31" points="491.46 85.77 487.82 83.42 521.97 30.75 541.67 43.67 539.29 47.29 523.24 36.76 491.46 85.77"/>
          <g>
            <g class="cls-83">
              <rect class="cls-52" x="722.65" y="280.01" width="103.81" height="7.28" transform="translate(1549.11 567.29) rotate(180)"/>
            </g>
            <g class="cls-84">
              <rect class="cls-35" x="722.65" y="293.72" width="103.81" height="30.59" transform="translate(1549.11 618.04) rotate(180)"/>
            </g>
            <g class="cls-82">
              <rect class="cls-32" x="673.88" y="334.6" width="61.24" height="4.57" transform="translate(1409.01 673.78) rotate(180)"/>
            </g>
            <g class="cls-70">
              <rect class="cls-50" x="673.88" y="341.17" width="61.24" height="12.38" transform="translate(1409.01 694.73) rotate(180)"/>
            </g>
            <g class="cls-79">
              <rect class="cls-51" x="843.51" y="240.78" width="4.57" height="85.72" transform="translate(1691.59 567.29) rotate(180)"/>
            </g>
          </g>
        </g>
      </g>
    </g>
  </g>
</svg>