<?xml version="1.0" encoding="UTF-8"?>
<svg id="Layer_2" data-name="Layer 2" xmlns="http://www.w3.org/2000/svg" xmlns:xlink="http://www.w3.org/1999/xlink" viewBox="0 0 3087.24 1779.92">
  <defs>
    <style>
      .cls-1 {
        fill: #e38540;
      }

      .cls-1, .cls-2, .cls-3, .cls-4, .cls-5, .cls-6, .cls-7, .cls-8, .cls-9, .cls-10, .cls-11, .cls-12, .cls-13, .cls-14, .cls-15, .cls-16, .cls-17, .cls-18, .cls-19, .cls-20, .cls-21, .cls-22 {
        stroke-width: 0px;
      }

      .cls-2 {
        fill: #d54a41;
      }

      .cls-3 {
        fill: #e7f3fe;
      }

      .cls-23, .cls-7 {
        opacity: .5;
      }

      .cls-4 {
        fill: #303c60;
      }

      .cls-5 {
        fill: #f39892;
      }

      .cls-6 {
        fill: #a2dff2;
      }

      .cls-7, .cls-11 {
        fill: #d3e3f4;
      }

      .cls-8 {
        fill: #9cd499;
      }

      .cls-9 {
        fill: none;
      }

      .cls-10 {
        fill: #96cfe0;
      }

      .cls-12 {
        fill: #fff;
      }

      .cls-13 {
        fill: #2e5b9a;
      }

      .cls-14 {
        fill: #a8ceff;
      }

      .cls-15 {
        fill: #f37168;
      }

      .cls-16 {
        fill: #75a1de;
      }

      .cls-24 {
        clip-path: url(#clippath);
      }

      .cls-17 {
        fill: #6695d6;
      }

      .cls-18 {
        fill: #f0ceb4;
      }

      .cls-19 {
        fill: #3e6bab;
      }

      .cls-20 {
        fill: #f09959;
      }

      .cls-21 {
        fill: #f7a96f;
      }

      .cls-22 {
        fill: #a86b48;
      }
    </style>
    <clipPath id="clippath">
      <path class="cls-9" d="m160.05,488.98c-69.76,0-126.32,56.56-126.32,126.32s56.56,126.32,126.32,126.32,126.32-56.56,126.32-126.32-56.56-126.32-126.32-126.32Zm0,193.24c-36.96,0-66.92-29.96-66.92-66.92s29.96-66.92,66.92-66.92,66.92,29.96,66.92,66.92-29.96,66.92-66.92,66.92Z"/>
    </clipPath>
  </defs>
  <g id="_Слой_1" data-name="Слой 1">
    <g>
      <g>
        <path class="cls-6" d="m2109.16,914.97c-44.09,89.51-99.38,334.1-114.46,347.51-15.08,13.4-102.19,65.34-117.27,90.47-15.08,25.13-8.38,16.75-1.68,18.43,6.7,1.68,385.32,3.35,385.32,3.35,0,0-43.56-259.67-48.58-261.35-5.03-1.68-103.33-198.41-103.33-198.41Z"/>
        <path class="cls-10" d="m2046.47,1373.51c69.54.49,142.91.87,183.31,1.07l-55.31-330.75c-29.5-57.19-65.31-128.85-65.31-128.85-5.56,11.29-11.3,25.04-17.11,40.48-5.73,248.42,30.04,318.05,3.17,362.32-20.97,34.54-40.11,49.99-48.75,55.75Z"/>
      </g>
      <g>
        <path class="cls-6" d="m2341.36,806.94c62.89,58.05,202.86,113.1,202.86,113.1,0,0,21.27,196.5,6.76,307.75-14.51,111.26-6.45,133.83-6.45,133.83l-302.27,2.57s-25.09-56.33-96.01-223.48c-45.15-106.42-37.09-225.74-37.09-225.74l175.76-79.01,56.44-29.02Z"/>
        <path class="cls-10" d="m2255.9,1361.62h288.63s-8.06-22.57,6.45-133.83c11.95-91.61-.36-241.02-5.08-290.92l-26.25-11.25c-65.9,18.99-103.87,117.28-115.04,213.33-7.47,64.27-113.95,127.54-183.6,162.37,22.88,43.62,34.9,60.3,34.9,60.3Z"/>
        <path class="cls-10" d="m2292.76,876.76s2.71,82.98,16.86,82.09c14.15-.89,96.41-105.21,96.41-105.21l-13.99-6.69-99.29,29.81Z"/>
        <path class="cls-10" d="m2271.48,872s-17.88,76.33-26.75,74.56c-8.87-1.78-20.86-79.38-20.86-79.38l47.61,4.82Z"/>
        <path class="cls-15" d="m2268.16,862.49l24.6,2.67,9.47,29.31s-21.64,25.33-22.08,35.53c-.44,10.21,4.76,48.39,5.05,83.03.28,34.64-12.44,172.51-6.66,256.97l5.77,84.46-49.45,1.93s-2.67-92.91,0-192.38c2.66-99.47,30.97-234.01,30.97-234.01l-11.17-34.2,13.5-33.3Z"/>
        <path class="cls-13" d="m2185.14,605.25c-34.79,77.49,6.97,149.27,5.7,146.25-1.27-3.03,52.66-130.83,52.66-130.83l-58.36-15.41Z"/>
        <path class="cls-20" d="m2316.98,662.55l44.12,161.28c1.25,4.55.18,9.4-2.79,13.06-10.35,12.75-25.09,38.97-54.81,47.39-5.78,1.64-12.9,2.07-18.67,2.09-6.06.02-11.28-4.25-12.43-10.19l-29.56-152.97,74.14-60.66Z"/>
        <path class="cls-1" d="m2308.56,676.03l-16.13,6.61-49.59,40.57,19.03,96.96,7.59,38.66c45.14-28.14,61.69-74.05,39.1-182.8Z"/>
        <path class="cls-20" d="m2305.8,735.7c.04,53.95-32.49,96.45-72.64,94.92-40.15-1.52-64.79-31.89-72.77-100.44-6.26-53.77,9.27-116.35,49.42-114.83,40.15,1.52,95.95,66.39,95.99,120.34Z"/>
        <path class="cls-6" d="m2544.22,920.03c58.4,13.19,69.25,131.8,88.24,256.89,2.19,14.4,13.4,136.26,13.4,136.26,0,0,1.12,22.34-21.22,33.51-19.09,9.54-26.81,16.75-137.38,17.87-106.2,1.07-243.12-3.35-243.12-3.35,0,0-1.21-39.51,9.68-58.82,16.38-29.04,184.29-70.74,199.93-72.97,2.23-31.27-15.42-144.43,8.94-221.15,16.75-52.77,34.76-80.42,57.33-87.64,7.52-2.41,15.55-2.55,24.21-.59Z"/>
        <path class="cls-10" d="m2304.19,1363.63c52.36.79,124.2,1.54,183.07.94,110.58-1.12,118.3-8.33,137.38-17.87,22.34-11.17,23.46-30.16,23.46-30.16,0,0-11.29-129.67-13.4-144.08-12.29-83.77-25.56-179.63-56.46-225.9,29.04,85.12,33.72,156.95,34.24,187.63.26,15.54-1.17,36.81-5.7,51.67-5.03,16.48-17.87,26.81-37.98,21.22-40.21-11.17-90.47,12.29-90.47,12.29,0,0,37.98-13.4,73.72-1.12,35.74,12.29,109.46,93.82,29.04,123.98-24.61,9.23-172.01,16.75-276.89,21.39Z"/>
        <path class="cls-10" d="m2262.76,1306.12s14.89-25.32,45.42-25.32,28.29,49.89,23.83,66.27c-4.47,16.38-22.34,17.13-22.34,17.13l-61.49-1.56,14.58-56.52Z"/>
        <path class="cls-16" d="m1658.23,1364.97h513.03c0-14.2-11.51-25.71-25.71-25.71h-487.32v25.71Z"/>
        <path class="cls-20" d="m2251.63,1302.09c-61.84-28.45-79.32-21.22-93.38-26.65-34.73-13.43-44.39-5.28-72.77,55.82-5.65,12.17,7.76,14.11,21.12,15.25,13.35,1.14,31.89-23.43,37.34-25.96s19.67-2.81,19.67-2.81c0,0-4.45-.38-12.27,12.41-7.82,12.78-16.42,17.28-6.04,18.17s13.33-16.05,32.3-10.7c18.97,5.36,15.09,23.41,63.47,21.85,45.88-1.48,80.17,3.11,81.86-25.89,1.6-27.51,5.81-40.98-19.82-48.03-19.71-5.42-51.48,16.53-51.48,16.53Z"/>
        <path class="cls-22" d="m2252.47,1302.16c43.07-1.18,26.02,50.89,21.19,54.96-4.83,4.07,23.62,3.59,23.62,3.59,0,0,15.07-20.19,6.03-45.62-9.04-25.43-31.2-28.45-31.2-28.45l-19.8,8.77.17,6.74Z"/>
        <path class="cls-13" d="m2295.33,1291.67c.34,6.62-10.18,12.55-23.52,13.25-13.33.69-24.42-4.12-24.76-10.74-.34-6.62,10.19-12.55,23.52-13.25,13.33-.69,24.42,4.12,24.76,10.74Z"/>
        <path class="cls-19" d="m2291.52,1288.87c.31,5.92-9.1,11.22-21.01,11.83-11.91.62-21.82-3.68-22.12-9.6-.31-5.92,9.1-11.22,21.01-11.83,11.91-.62,21.82,3.68,22.12,9.6Z"/>
        <path class="cls-18" d="m2283.79,1287.16c.22,4.26-6.55,8.07-15.12,8.52-8.57.44-15.7-2.65-15.93-6.91-.22-4.26,6.55-8.08,15.12-8.52,8.57-.45,15.7,2.65,15.93,6.91Z"/>
        <path class="cls-20" d="m1916.61,1306.07c31.8-17.67,70.66-11.78,84.79,5.89,14.13,17.67,16.49,29.44-15.31,29.44s-95.39,2.36-105.99,1.18c-10.6-1.18,36.51-36.51,36.51-36.51Z"/>
        <path class="cls-20" d="m1957.93,1299.93c34.15-8.24,57.49,11.63,85.97,30.62,24.73,16.49,29.7,32.52,2.36,18.84-40.04-20.02-63.59-22.38-63.59-22.38l-24.73-27.09Z"/>
        <path class="cls-20" d="m1919.82,1315.4c-17.25,0-32.3-5.5-44.48-4.49-12.17,1.01-50.73,40.58-44.64,43.63.43.22.91.42,1.42.61,9.15,3.37,19.49-.37,24.64-8.64,5.46-8.76,14.33-18.94,24.66-15.3,17.25,6.09,35.35,5.5,35.35,5.5l3.04-21.31Z"/>
        <path class="cls-21" d="m1922.49,1348.47c-17.66-7.07,10.6-65.95,20.02-65.95s44.75,28.26,44.75,28.26c0,0-8.31,4.69-36.51-4.71-7.07-2.36-12.95,37.69-21.2,42.4-8.24,4.71-7.07,0-7.07,0Z"/>
        <polygon class="cls-6" points="2263.2 827.27 2271.48 871.4 2247.29 923.77 2221 868.27 2263.2 827.27"/>
        <path class="cls-13" d="m2166,760.68c10.17,64.06,33.88,70.83,50.68,76.68,16.8,5.85,79.61-20.55,86.31-38.09,17.13-44.88-10.51-78.68-4.91-79.13,5.61-.45,13.53,14.33,31.64,32.06,1.69,1.65,13.33,12.53,13.04,8.25-3.89-58.33,22.56-81.55,4.81-137.99-13.08-41.61-39.49-33.24-39.49-33.24,0,0-24.01-32.4-77.54-18.33-35.86,9.43-65.66,29.58-101.36,46.15-35.7,16.57,61.82,86.41,104.71,46.39,42.88-40.02,31.51,32.78,40.16,36.67,8.65,3.89,3.82.02,13.8,34.36,9.98,34.33-30.23,65.38-42.41,70.73-38.95,17.1-47,11.64-58.75-2.05-10.19-11.87-20.7-42.47-20.7-42.47Z"/>
        <path class="cls-20" d="m2330.89,709.8c-1.7,16.93-11.2,29.42-21.21,27.9-10.01-1.52-12.71-14.53-15.05-33.42-2.11-17.03,11.2-29.42,21.21-27.9,10.01,1.52,16.75,16.49,15.05,33.42Z"/>
        <path class="cls-6" d="m2357.46,810.52l43.87,40.87s-84.41,79.48-91.72,78.6c-7.31-.89-19.7-67.5-19.7-67.5l67.55-51.97Z"/>
        <path class="cls-6" d="m2291.21,861.5c-8.1,3.8-5.49,15.35-8.93,19.37-3.44,4.02-5.48,5.1-8.25-.5-2.76-5.6-2.32-18.23-4.46-18.87-2.15-.64-18.43,50.28-18.43,50.28,0,0,11.97-32.56,14.69-29.01,2.72,3.55.56,6.86,10.46,7.45,9.91.59,22.51-3.58,22.51-3.58l-7.59-25.14Z"/>
      </g>
      <g>
        <path class="cls-14" d="m1657.62,1364.97h274.03l-116.37-256.01c-3.4-7.47-10.84-12.27-19.05-12.27h-247.86c-5.94,0-9.9,6.14-7.44,11.55l116.69,256.72Z"/>
        <path class="cls-16" d="m1521.72,1096.69h252.9c8.21,0,15.65,4.8,19.05,12.27l116.37,256.01h-279.06l-116.69-256.72c-2.46-5.41,1.5-11.55,7.44-11.55Z"/>
        <path class="cls-17" d="m1653.56,1245.74c9.59,19.88,25.16,32.23,34.76,27.6,9.61-4.64,9.62-24.51.03-44.39-9.59-19.88-25.16-32.23-34.76-27.6-9.61,4.64-9.62,24.51-.03,44.39Z"/>
      </g>
      <g>
        <path class="cls-4" d="m674.52,907.66c-4.26,0-8.46-.21-12.56-.42-3.4-.17-6.92-.35-10.31-.4-1.2-.02-2.15-1-2.13-2.19.02-1.18.98-2.13,2.16-2.13,3.5.05,7.06.23,10.5.4,25.73,1.3,52.34,2.65,78.26-47.2,11.25-21.64,23.5-63.71,20.99-111.07-2.06-38.79-15.21-93.96-66.14-136.54-.92-.77-1.04-2.13-.27-3.05.77-.92,2.13-1.04,3.05-.27,52.13,43.58,65.58,99.99,67.68,139.63,2.56,48.23-9.96,91.17-21.47,113.3-22.88,43.99-47.23,49.94-69.76,49.94Z"/>
        <path class="cls-4" d="m666.43,897.44c-1.01,0-2.01-.02-3.02-.07-1.19-.06-2.11-1.07-2.06-2.27.06-1.19,1.06-2.11,2.27-2.06.93.05,1.87.07,2.79.07,26.85,0,51.65-19.01,68.4-52.61,27.54-55.24,30.21-145.86-19.08-205.01-.77-.92-.64-2.28.28-3.05.92-.76,2.28-.64,3.05.28,50.47,60.56,47.78,153.25,19.63,209.71-17.51,35.13-43.71,55-72.25,55.01Z"/>
        <path class="cls-4" d="m570.13,621.46c77.7-60.31,150.66-28.34,176.8,53.28,24.42,76.24-6.88,240.06-122.78,211.51-119.9-29.53-129.89-66.24-128.98-119.59.73-42.62,18.91-101.7,74.96-145.2Z"/>
        <path class="cls-6" d="m529.76,863.24l-111.06,41.44s31.08,225.58,33.75,311.72c2.66,86.15-40.85,160.88-40.85,160.88h290.41s39.96-234.59,31.97-317.18c-7.99-82.59-63.05-168.17-65.72-170.23-2.66-2.06-69.27-17.16-69.27-17.16l-69.23-9.47Z"/>
        <path class="cls-2" d="m725.09,1140.91s11.18,104.79,15.8,110.12c4.62,5.33,175.14,88.79,175.14,88.79l-247.78,16.89,56.84-215.81Z"/>
        <path class="cls-2" d="m668.25,889.87c27.53.6,35,45.61,41.48,79.06,6.48,33.44-41.48-79.06-41.48-79.06Z"/>
        <path class="cls-15" d="m621.18,1068.09c-15.1-54.17-96.22-205.03-96.22-205.03l-106.27,41.62s24.36,176.79,31.8,277.12l40.37,195.48h130.32s15.1-255.02,0-309.19Z"/>
        <polygon class="cls-2" points="471.21 1282.09 590.99 1254.59 581.21 1356.72 471.21 1282.09"/>
        <path class="cls-2" d="m531.1,1310.54c-19.54-26.45-38.65-55.56-20.04-116.34,18.61-60.78,20.43-82.59,13.91-137.65-6.52-55.06-36.11-142.98-93.84-145.65,0,0-1.9,19.25-4.98,49.99,9.37,72.6,24.47,196.63,26.29,255.51,2.66,86.15-40.85,160.88-40.85,160.88l236.23,5.19s-97.19-45.48-116.73-71.94Z"/>
        <path class="cls-15" d="m733.97,1060.09c-7.99-82.59-63.05-168.17-65.72-170.23-1.65-1.27-27.71-7.53-47.39-12.12,5.79,13.65,66.8,159.05,64.26,218.94-2.66,62.87.08,280.59.08,280.59h16.8s39.96-234.59,31.97-317.18Z"/>
      </g>
      <path class="cls-7" d="m1321.78,1563.91c-2.98-1.45-5.57-2.57-8.01-3.95-2.35-1.33-4.39-3.14-5.98-5.33-1.62-2.24-3.06-4.6-4.8-7.24-3.74,8.6-9.95,13.93-19.44,16.22,1.92.79,3.14,1.27,4.35,1.78,10.65,4.55,15.89,15.83,12.61,26.95-2.5,8.44-11.16,17.09-24.43,15.29-11.33-1.54-18.37-11.43-18.75-20.63-.42-9.8,5.22-18.25,13.73-21.69,1.1-.45,2.22-.86,3.69-1.43-2.87-1.26-5.43-2.25-7.85-3.5-2.4-1.24-4.53-2.96-6.2-5.08-1.72-2.19-3.19-4.59-4.87-7.03-1.19.54-1.34,1.85-1.98,2.76-.78,1.1-1.47,2.25-2.31,3.3-.75.94-1.6,1.82-2.49,2.63-.89.81-1.85,1.56-2.84,2.24-1,.68-2.04,1.31-3.12,1.83-1.21.57-2.49,1-3.76,1.45-1.13.4-2.28.75-3.88,1.27,1.56.5,2.69.83,3.81,1.22,10.62,3.69,15.36,13.3,15.08,21.59-.34,10.17-7.91,19-18.08,20.86-10,1.83-20.08-3.6-24-12.92-5.09-12.1,1.03-25.54,13.5-29.61,1.02-.33,2.05-.59,3.7-1.07-5.02-1.6-9.51-3-13.13-6.23-3.57-3.18-6.11-7.03-7.61-11.5-1.59.26-1.49,1.42-1.86,2.19-3.47,7.38-9.01,12.19-17,14.19-7.65,1.91-14.35-.13-20.45-4.69-3.28-2.46-5.65-5.7-7.34-9.46-.36-.8-.29-1.94-1.63-2.26-4.86,11.46-13.27,17.63-26.04,16.35-10.33-1.03-17.53-8.12-20.76-19.89-1.16.55-1.12,1.67-1.39,2.61-1.92,6.53-5.92,11.37-11.92,14.54-11.74,6.2-26.57,1.13-32.06-10.96-.83-1.82-1.45-3.74-2.17-5.65-1.33.4-1.22,1.67-1.52,2.59-1.12,3.37-2.78,6.4-5.28,8.94-6.77,6.9-14.96,9.08-24,6.06-9.36-3.13-14.89-10-15.74-19.96-.82-9.59,3.29-16.91,11.43-21.98.91-.57,1.85-1.07,2.76-1.62.09-.06.12-.22.32-.57-.89-1.15-2.47-1.3-3.63-2.08-1.22-.82-2.57-1.47-3.76-2.33-1.09-.78-2.11-1.67-3.04-2.63-1.03-1.06-1.97-2.21-2.84-3.39-.87-1.18-1.61-2.45-2.58-3.94-.47.41-.94.64-1.16,1.02-3.61,6.24-8.93,10.28-15.79,12.36-.25.07-.45.27-.91.54.8,1.19,2.17,1.36,3.28,1.84,4.73,2.06,8.34,5.34,10.87,9.81,4.57,8.08,3.53,18.62-2.48,25.66-6.05,7.09-16.05,9.93-24.48,6.95-9.31-3.29-15.34-11.44-15.51-20.98-.17-9.57,4.9-17.53,13.63-21.42,1.09-.49,2.16-.99,3.71-1.71-4.3-1.86-8.31-3.28-11.54-6.16-3.17-2.82-5.26-6.37-7.16-9.96-1.13-.18-1.17.7-1.52,1.17-.32.42-.5.95-.77,1.41-3.79,6.74-9.53,10.93-17.06,12.33-9.54,1.77-17.47-1.42-23.71-8.75-1.29-1.51-2.16-3.38-3.19-5.11-.47-.78-.86-1.62-1.24-2.35-1.18-.04-1.07.85-1.38,1.35-.29.45-.47.96-.72,1.44-2.19,4.31-5.34,7.71-9.58,10.06-13.57,7.53-30.84.57-34.84-14.55-.31-1.16-.56-2.33-.85-3.53-1.32.31-1.05,1.43-1.24,2.25-1.76,7.4-5.97,12.89-12.91,16.02-8.44,3.8-16.61,2.98-23.95-2.64-7.21-5.53-10.11-13.1-8.7-22.08,1.2-7.65,5.37-13.34,12.26-16.97.83-.44,1.66-.88,2.48-1.33.11-.06.17-.2.26-.3-12.96-7.11-11.39-8.04-16.32-14.55-1.33.98-1.77,2.63-2.83,3.76-1.1,1.18-2.07,2.48-3.26,3.56-1.18,1.08-2.48,2.06-3.85,2.9-1.37.84-2.84,1.52-4.33,2.13-1.42.58-2.92.99-5.15,1.72,1.93.73,3.12,1.2,4.33,1.64,5.56,2.04,9.61,5.77,12.33,10.99,4.27,8.21,2.99,18.1-3.27,25.17-6.02,6.8-15.76,9.29-24.28,6.29-8.07-2.84-14.63-10.03-15.17-20.43-.46-8.83,4.72-17.59,13.18-21.35,1.68-.75,3.43-1.33,5.4-2.09-.72-1.11-1.77-.92-2.54-1.24-.86-.36-1.78-.6-2.65-.95s-1.74-.72-2.57-1.17c-.83-.44-1.63-.95-2.39-1.5-.87-.63-1.71-1.3-2.51-2.01-.7-.62-1.36-1.3-1.99-2s-1.23-1.43-1.76-2.2c-.54-.77-1.01-1.59-1.45-2.42-.45-.82-.84-1.68-1.25-2.53-.38-.79-.75-1.59-1.33-2.8-1.37,1.9-1.67,3.82-2.71,5.32-1.08,1.54-2.1,3.14-3.37,4.5-1.27,1.36-2.73,2.61-4.29,3.63-1.56,1.03-3.27,1.89-5.03,2.5-1.76.61-3.64.98-5.49,1.16-1.86.18-3.77.15-5.62-.04-5.27-.54-9.74-2.85-13.56-6.48-3.73-3.54-5.69-8.06-7.21-13.37-.57,1.58-.99,2.68-1.36,3.79-2.9,8.74-12.09,16.74-24.66,15.35-10.41-1.15-18.73-9.91-19.94-19.75-1.22-9.88,3.56-19.24,12.46-23.72.95-.48,1.9-.98,2.84-1.49.08-.04.09-.23.24-.64-1.31-.96-3-1.37-4.43-2.24-1.37-.84-2.77-1.67-4-2.69-1.34-1.11-2.59-2.35-3.69-3.69-1.02-1.23-1.89-2.62-2.66-4.02-.83-1.51-1.48-3.13-2.29-4.89-1.2,1.03-1.48,2.37-2.05,3.51-2.95,5.95-7.59,9.9-13.78,12.28-10.24,3.95-21.41-.96-26.66-8.11-5.76-7.84-6.56-16.25-2.45-25.09.22-.49.5-.95.8-1.4.22-.33.5-.62.91-1.12,4.25-.53,8.67-.16,13.08-.23,4.3-.07,8.6-.01,12.9-.01h13.44c1.22,2.2,2.37,4.28,3.69,6.65,1.15-2.33,2.15-4.34,3.16-6.4.95-.09,1.74-.24,2.53-.24,12.37-.01,24.73-.02,37.09,0,2.2,0,2.2.04,4.29,1.54q2.07-1.5,4.28-1.54c1.08-.02,2.15,0,3.23,0h1364.83c1.07,0,2.15-.01,3.22,0q2.22.03,4.28,1.52c2.19-1.46,2.19-1.51,3.93-1.51,13.04,0,26.07,0,39.11.02.4,0,.79.11,1.42.2.83,1.33,1.72,2.77,2.76,4.45,1.07-1.66,2-3.09,2.95-4.56h39.69c2.69,2.85,3.24,6.63,4.19,10.11,1.06.24,1-.49,1.08-.93.61-3.21,1.82-6.17,3.76-8.96,3.13-.68,6.35-.25,9.55-.32,3.09-.07,6.18-.02,9.27-.02h18.7c5.19,5.73,6.3,16.73,1.61,24.87-4.48,7.79-13.44,12.48-22.38,11.51-10.52-1.15-17.32-7.62-20.93-19.92-1.1.18-.96,1.13-1.11,1.85-1.1,5.32-3.72,9.74-7.83,13.29-2.15,1.86-4.54,3.34-7.24,4.29-1.62.57-3.24,1.11-5.44,1.85,1.87.67,3.21,1.17,4.57,1.64,4.47,1.54,8.11,4.22,10.74,8.13,5.19,7.73,5.73,15.87,1.14,23.97-4.5,7.94-11.68,11.89-20.76,11.34-9.24-.56-15.89-5.42-19.49-14.03-5.1-12.19,1.89-25.58,13-29.34,1.36-.46,2.69-1,4.29-1.6-7.63-3.46-9.96-1.52-19.44-15.41-5.18,7.7-3.57,8.29-16.33,15.71.9.53,1.64,1.02,2.42,1.42,7.66,3.92,11.97,10.17,12.96,18.69,1.31,11.23-6.87,22.53-17.94,24.84-11.88,2.48-22.86-3.56-27.1-14.91-.51-1.37-.94-2.78-1.58-4.67-.45,1.11-.81,1.77-1,2.47-1.09,4.1-2.95,7.78-5.86,10.89-11.2,11.96-30.88,9.48-38.71-4.97-.68-1.25-1.32-2.52-2.21-4.24-2.13,4.4-4.15,8.3-7.47,11.34-3.34,3.06-7.35,4.83-11.47,6.13-.13.95.41,1.1.9,1.28,2.54.9,4.97,2.02,7.15,3.64,7.84,5.83,11.05,16.15,7.94,25.58-2.96,8.95-11.55,15.06-21.11,15.36-8.95.29-20.15-5.37-22.78-18.38-2.12-10.47,3.59-21.25,13.49-25.3,1.11-.45,2.23-.89,3.27-1.31.2-.81-.26-1.02-.79-1.18-2.85-.84-5.55-1.99-8.01-3.7-2.69-1.86-4.88-4.18-6.69-6.9-.5-.75-1.09-1.44-1.79-2.34-2.27,3.13-4.05,6.39-7.02,8.54-2.79,2.02-5.8,3.74-8.7,5.58,13.15,6.38,16.68,19.18,14.45,27.61-2.5,9.41-10.4,16.77-20.12,17.89-3.94.45-7.79,0-11.48-1.47-3.82-1.53-7.04-3.9-9.63-7.1-2.46-3.04-4-6.56-4.8-10.38-1.67.49-1.38,1.64-1.65,2.45-2.04,6.27-5.74,11.18-11.61,14.35-12.03,6.52-26.84,1.75-32.9-9.98-.54-1.05-1.05-2.11-1.56-3.14-1.81,2.81-3.41,5.59-5.31,8.16-1.86,2.51-4.34,4.47-7.19,5.73-2.92,1.3-6.01,2.21-9.21,3.36.4.71,1.24.56,1.88.72,5.96,1.5,10.87,4.53,14.32,9.72,7.68,11.53,2.76,27.4-10,32.77-10.65,4.48-23.22-.02-28.48-10.57-5.26-10.55-1.56-23.21,8.62-29.11,2.63-1.53,5.67-2.35,8.72-3.59-.5-.23-.99-.56-1.51-.66-8.32-1.64-14.46-6.18-18.34-13.74-.23-.44-.63-.78-1.16-1.41-2.21,3.65-4.13,7.17-7.19,9.86-3.08,2.71-6.72,4.38-10.63,5.84.44,1.31,1.56,1.49,2.46,1.87,3.02,1.29,5.69,3.09,7.82,5.56,6.14,7.14,7.87,15.22,4.24,24-3.69,8.91-10.64,13.77-20.23,14.16-9.65.39-16.81-4.19-21.23-12.68-6.43-12.34.25-25.86,10.68-30.69,1.08-.5,2.14-1.04,3.56-1.72-1.3-1.22-2.81-1.33-4-2-1.16-.66-2.44-1.15-3.56-1.87-1.24-.79-2.43-1.69-3.53-2.67-1-.88-1.91-1.89-2.77-2.92-.93-1.12-1.76-2.33-2.81-3.72-1.58,1.16-2.08,2.92-3.22,4.14-1.19,1.27-2.35,2.59-3.66,3.73-1.21,1.05-2.56,1.96-3.93,2.79-1.45.89-3,1.62-4.39,2.36-.02,1.14.7,1.35,1.26,1.63,7.86,3.99,12.11,10.54,12.96,19.14.6,6.11-1.27,11.75-5.26,16.46-6.34,7.47-14.53,10.18-23.92,7.67-9.21-2.46-14.93-8.74-16.83-18.18-1.94-9.6,2.65-19.41,11.17-24.36.99-.58,2.33-.72,2.95-2.22-1.85-1-3.78-1.88-5.53-3.03-1.67-1.1-3.27-2.37-4.7-3.77-1.52-1.49-2.8-3.22-4.28-4.97-2.2,2.42-4.15,4.98-6.52,7.06-2.3,2-5.04,3.5-7.81,5.38.73.57,1.38,1.16,2.11,1.63,5.04,3.27,8.58,7.68,10.23,13.5,2.68,9.49.13,17.64-7.01,24.13-12.25,11.13-31.43,6.3-37.47-8.7-.58-1.45-1.11-2.93-1.75-4.63-1.22,1.19-1.29,2.6-1.77,3.81-3.61,9.22-10.28,14.58-20.11,15.78-9.47,1.16-19.04-3.96-23.53-12.39-.69-1.3-1.31-2.63-2.13-4.29-.53.91-.97,1.52-1.27,2.19-3.75,8.4-10.25,13.35-19.21,14.9-6.88,1.18-13.03-.97-18.48-5.16-3.14-2.41-5.5-5.5-7.1-9.14-.37-.84-.77-1.67-1.35-2.91-.53.81-.94,1.27-1.16,1.8-3.26,7.84-8.99,12.88-17.15,15.2-.77.22-1.51.51-2.68.92,1.46.48,2.54.83,3.62,1.2,11.22,3.84,17.32,15.29,14.28,26.76-2.23,8.39-9.84,14.99-18.39,15.94-9.23,1.02-17.77-3.29-22.03-11.11-6.75-12.42-.78-27.35,12.67-31.7,1.02-.33,2.05-.6,3.29-.97-2.95-1.13-5.72-2.02-8.33-3.24-2.56-1.21-4.84-2.97-6.63-5.18-1.83-2.27-3.43-4.72-5.15-7.12-7.33,11.41-9.05,11.34-18.54,15.58,1.51.66,2.85,1.21,4.17,1.82,9.15,4.24,14.24,13.96,12.52,23.89-1.7,9.82-9.63,17.25-19.43,18.21-10.25,1-19.43-4.53-23.09-13.92-4.28-10.95.62-23.17,11.29-28.16,1.31-.61,2.63-1.18,4.15-1.86-8.92-4.09-10.98-3.7-18.66-15.93-5.48,8.96-5.88,10.27-18.05,15.98,1.24.6,2.28,1.13,3.34,1.63,6.07,2.82,10.08,7.44,12.09,13.82,3.9,12.36-4.14,25.8-16.84,28.31-12.46,2.46-24.9-5.56-26.69-19.33-1.13-8.72,3.48-17.72,11.29-21.96,1.51-.82,3.1-1.51,5.06-2.45-1.84-1.15-3.67-1.5-5.2-2.4-1.73-1.01-3.51-2.02-5.06-3.28-1.45-1.17-2.72-2.6-3.9-4.05-1.16-1.44-2.11-3.06-3.07-4.46-.92-.28-1.17.3-1.41.73-3.3,6.05-8.24,10.17-14.68,12.54-.49.18-.94.43-1.81.84,1.36.69,2.38,1.25,3.43,1.75,4.81,2.26,8.35,5.8,10.64,10.58,6.38,13.26-1.67,28.49-15.36,31.5-12.56,2.76-25.81-5.74-27.15-20.15-.81-8.7,4.13-17.51,12.05-21.61,1.27-.66,2.81-.88,3.96-2.22-3.87-1.63-7.53-3.23-10.59-5.96-2.93-2.62-4.81-6-7.13-9.48-2.14,3.69-4.12,7-7.07,9.61-2.98,2.63-6.51,4.22-10.19,5.67.41,1.62,1.91,1.51,2.87,1.97,5.21,2.5,8.99,6.36,11.17,11.66,5.59,13.57-2.95,27.85-16.11,30.59-11.76,2.45-26.3-5.4-26.85-21.33-.32-9.06,3.92-16,11.96-20.42,1.27-.7,2.62-1.25,4.29-2.04-2.71-1.34-5.19-2.29-7.35-3.71-2.1-1.39-4.08-3.09-5.75-4.98-1.76-1.99-3.08-4.36-4.73-6.78-1.32.93-1.55,2.63-2.47,3.82-.99,1.27-1.89,2.62-2.99,3.79s-2.33,2.23-3.63,3.17c-1.3.94-2.71,1.74-4.14,2.47-1.39.72-2.86,1.29-4.73,2.11,1.46.72,2.51,1.24,3.56,1.76,7.44,3.69,11.7,9.65,12.68,17.91,1.3,10.99-6.28,21.57-17.06,24.08-12.68,2.95-26.52-5.37-27.46-20.51-.56-9.04,3.4-16.12,11.33-20.77,1.37-.8,2.84-1.43,4.3-2.16-.15-1.15-1.15-1.01-1.74-1.35-.81-.46-1.72-.75-2.57-1.15-.73-.34-1.45-.7-2.14-1.12-.69-.41-1.35-.88-1.99-1.37-.74-.58-1.46-1.19-2.15-1.82-.59-.54-1.16-1.12-1.7-1.72-.54-.6-1.07-1.21-1.53-1.87-.54-.77-1.01-1.59-1.51-2.38-.43-.67-.88-1.32-1.45-2.19-1.44,1.04-1.91,2.61-2.84,3.82-.9,1.17-1.79,2.36-2.84,3.39-1.14,1.13-2.4,2.16-3.71,3.08-1.2.84-2.5,1.57-3.83,2.2-1.44.7-2.96,1.24-4.47,1.85.25,1.27,1.36,1.16,2.14,1.48,4.87,2.04,8.79,5.19,11.3,9.88,4.06,7.61,4.02,15.25-.52,22.61-4.56,7.38-11.42,10.88-20.04,10.43-13.74-.72-23.36-13.19-20.6-26.65,1.43-6.99,5.51-12.15,11.9-15.4,1.3-.66,2.66-1.2,4.41-1.98Zm776.63-142.94c5.34,4.95,7.8,3.39,13.56,18.49.64-1.79,1.14-3.43,1.82-5,.64-1.47,1.35-2.93,2.24-4.26.97-1.44,2.09-2.81,3.32-4.02,1.14-1.12,2.51-2.01,3.8-2.97,1.34-.99,3.19-1.22,4.32-2.59-3.01-1.94-6.03-3.46-8.52-5.6-2.48-2.14-4.43-4.9-6.78-7.56-1.23,1.8-2.3,3.64-3.64,5.25-1.37,1.64-2.91,3.18-4.56,4.52-1.65,1.34-3.53,2.4-5.55,3.74Zm-1382.16-.32c4.56,1.81,8.06,3.9,10.9,7,2.95,3.23,4.36,7.22,5.76,11.34.22-.26.34-.36.38-.47.18-.5.37-1.01.51-1.52,1.87-6.64,5.73-11.7,11.84-15,.4-.22.67-.67.98-1-2.75-2-5.56-3.64-7.85-5.82-2.36-2.24-4.23-5-6.33-7.56q-6.87,8.45-16.19,13.02Zm159.11,67.82c3.49-10.09,2.6-10.71,13.42-19.52-2.6-1.85-5.38-3.47-7.72-5.59-2.31-2.1-4.16-4.71-6.13-6.99-2.32,2.43-4.32,5.01-6.81,6.98-2.57,2.04-5.61,3.48-8.54,5.24,1.94,1.12,3.9,2.04,5.61,3.31,1.71,1.27,3.36,2.72,4.67,4.38,1.4,1.77,2.54,3.79,3.48,5.85.86,1.89,1.28,3.97,2.01,6.33Zm190.03,16.34c-1.21,1.45-2.17,2.73-3.26,3.89-1,1.07-2.07,2.1-3.24,2.99-1.27.97-2.7,1.72-4.03,2.63-1.26.87-2.96,1.04-4.24,2.47,1.06.6,1.9.99,2.64,1.51,1.85,1.31,3.79,2.54,5.46,4.05,2.72,2.47,4.52,5.59,5.72,9.08.36,1.04.25,2.45,1.66,3.03.18-.4.4-.74.5-1.12,1.85-6.8,5.75-12,11.95-15.44.38-.21.61-.7.93-1.09-2.66-1.77-5.27-3.17-7.48-5.06-2.31-1.97-4.23-4.4-6.61-6.95Zm903.5-18.23c5.81-14.19,8.45-13.3,15.24-18.04-2.62-1.59-5.44-2.94-7.82-4.83-2.48-1.97-4.53-4.47-6.92-6.89-1.25,1.61-2.36,3.27-3.71,4.7-1.47,1.55-3.08,2.99-4.77,4.3-1.55,1.2-3.28,2.16-5,3.27,5.82,4.88,8.33,4.98,12.98,17.49Zm-842.65,30.66c-2.73-1.9-5.18-3.31-7.28-5.14-2.17-1.88-4-4.17-5.94-6.23-2.14,2.16-3.96,4.33-6.11,6.08-2.25,1.83-4.83,3.25-7.43,4.95.47.42.8.84,1.23,1.08,6.12,3.5,10.17,8.56,11.83,15.48.13.55.59,1.02.99,1.66.69-2.06,1.18-3.88,1.92-5.59.68-1.59,1.51-3.15,2.51-4.55,1.09-1.51,2.37-2.9,3.73-4.17,1.34-1.25,2.89-2.28,4.56-3.58Zm605.1-10.94c-.4.34-.86.61-1.16,1.01-2.85,3.84-6.39,6.86-10.62,9.08-.38.2-.59.72-.88,1.09,7.54,5.87,8.39,7.04,11.79,16.03.14.36.35.69.81,1.56,1.21-4.28,2.55-7.62,4.74-10.57,2.26-3.06,5.41-5.1,8.59-7.41-2.57-1.67-5.04-3.02-7.19-4.76-2.16-1.76-4-3.92-6.09-6.02Zm-950.96-69.97c3.24-6.36,2.34-6.95,10.98-14.79-1.51-1.12-3.06-2.16-4.48-3.35-1.33-1.12-2.5-2.42-3.77-3.61-1.32-1.24-1.95-3.11-3.58-4.26-.54.6-.91.97-1.23,1.39-2.67,3.45-5.9,6.22-9.8,8.19-.53.27-1.3.44-1.17,1.33,6.26,4.52,7.42,4.19,13.05,15.11Zm380.03,95.48c.61-.65.99-.88,1.11-1.21,1.88-5.05,5.12-9.03,9.5-12.12.37-.26.56-.77.84-1.16-2.17-1.52-4.24-2.77-6.07-4.31-1.9-1.6-3.58-3.47-5.13-5.01-1.38,1.21-2.55,2.29-3.79,3.31-1.34,1.1-2.7,2.18-4.12,3.19-1.26.9-2.6,1.68-3.97,2.55,2.46,2.22,4.82,4.16,6.93,6.33,2.17,2.23,3.42,5.08,4.69,8.43Zm-238.02-72.36c-1.33,1.33-2.49,2.6-3.76,3.75-1.19,1.07-2.5,2-3.76,2.98-1.32,1.03-3.05,1.5-4.47,2.91,1.52,1.09,2.84,1.95,4.05,2.94,1.13.93,2.23,1.93,3.18,3.04,1.04,1.21,1.95,2.54,2.79,3.9.81,1.3,1.46,2.7,2.33,4.33,1.72-2.81,3.01-5.46,4.81-7.7,1.81-2.26,4.12-4.13,6.3-6.25-1.98-1.43-4.12-2.77-6-4.39-1.9-1.63-3.55-3.55-5.46-5.49Zm1154.45-38.56c-4.78-2.43-8.63-5.49-11.78-9.84-1.31,1.58-2.35,2.95-3.51,4.21-1.09,1.18-2.26,2.3-3.48,3.34-1.3,1.11-2.7,2.09-4.07,3.14,2.06,2.2,4.17,4.1,5.83,6.33,1.64,2.22,2.83,4.78,4.25,7.24,6.57-11.51,7.42-9.95,12.77-14.42Zm-392.83,87.27c-1.9,1.82-3.54,3.59-5.38,5.12-1.81,1.51-3.83,2.79-5.77,4.19,2.25,2.27,4.53,4.17,6.32,6.46,1.75,2.24,3,4.86,4.43,7.26,1.72-2.72,3.12-5.51,5.06-7.85,1.92-2.3,4.39-4.13,6.67-6.23-2.18-1.45-4.28-2.65-6.15-4.13-1.86-1.48-3.5-3.24-5.18-4.83Zm226.96-38.65c1.58,1.42,3.05,2.57,4.29,3.92,1.34,1.47,2.57,3.07,3.67,4.74.98,1.49,1.72,3.15,2.71,5.01.84-1.67,1.41-3.03,2.17-4.27.83-1.36,1.76-2.69,2.79-3.9.95-1.11,2.15-2,3.16-3.06,1.04-1.09,2.83-1.38,3.5-2.87-.37-.4-.51-.66-.72-.77-3.61-1.84-6.78-4.25-9.43-7.33-.3-.35-.84-.5-1.37-.81-2.94,3.89-6.55,6.77-10.76,9.33Zm-702.67,62.34c1.04-2.13,1.72-3.87,2.69-5.43,1.06-1.7,2.29-3.31,3.61-4.81,1.21-1.37,2.66-2.54,4.15-3.95-2.03-1.5-3.93-2.73-5.64-4.2-1.8-1.54-3.41-3.28-5.16-5-1.81,1.71-3.38,3.36-5.13,4.79-1.82,1.49-3.82,2.76-5.79,4.16,8.61,7.66,6.95,6.74,11.26,14.42Zm438.84-14.31c-2.05-1.45-3.96-2.65-5.69-4.07-1.81-1.49-3.45-3.19-5.27-4.9-1.8,1.81-3.32,3.51-5.02,4.99-1.67,1.46-3.54,2.7-5.37,4.07,2.13,2.21,4.28,4.07,5.95,6.28,1.72,2.29,2.98,4.94,4.58,7.67.99-1.97,1.76-3.82,2.81-5.5.99-1.58,2.18-3.06,3.45-4.41,1.35-1.43,2.91-2.65,4.56-4.13Zm-687.55-48.22c2.06,1.94,4.17,3.61,5.87,5.62,1.77,2.09,3.14,4.53,4.86,7.07,1.35-2.23,2.44-4.37,3.85-6.25,1.51-2.01,3.33-3.78,5.17-5.83-1.7-1.35-3.41-2.6-4.99-4-1.58-1.4-3.01-2.95-4.67-4.59-1.71,1.54-3.22,3.03-4.87,4.33-1.65,1.3-3.46,2.42-5.23,3.64Zm914.86-7.41c-3.11,2.74-6.08,5.36-9.18,8.1,1.25,1.26,2.45,2.33,3.49,3.53,1.05,1.21,1.93,2.57,2.92,3.84.95,1.22,1.11,2.98,2.91,4.24,2.06-5.01,5.55-8.64,9.55-11.88-3.29-2.66-6.38-5.16-9.68-7.83Zm-581.11,55.99c4.5,3.21,7.47,7.28,9.72,12.3,1.49-2.4,2.61-4.53,4.05-6.42,1.51-1.99,3.34-3.75,5.19-5.79-1.68-1.31-3.19-2.58-4.81-3.71-1.71-1.2-2.76-3.21-4.75-4.16-1.56,1.42-2.9,2.73-4.33,3.92-1.51,1.25-3.12,2.39-5.08,3.87Zm-37.61-8.11c-1.83,1.62-3.28,3.01-4.84,4.28-1.52,1.24-3.14,2.35-4.58,3.42,1.81,1.95,3.56,3.62,5.05,5.5,1.55,1.97,2.85,4.15,4.42,6.47,1.38-2.13,2.54-4.23,4.01-6.08,1.57-1.97,3.45-3.69,5.39-5.72-1.68-1.26-3.31-2.39-4.83-3.65-1.53-1.28-2.95-2.69-4.61-4.22Zm333.15.42c-3.14,2.62-6.1,5.1-9.2,7.7,1.66,1.75,3.43,3.38,4.9,5.24,1.48,1.87,2.66,3.98,4.16,6.27,1.29-1.39,1.73-3.16,2.82-4.46,1.03-1.23,2.06-2.47,3.08-3.71,1.07-1.3,2.82-1.97,3.57-3.59-3.15-2.52-6.16-4.92-9.32-7.44Zm-47.9,19.8c1.56-2.46,2.9-4.59,4.26-6.72,1.35-2.11,3.73-3.34,5.07-5.64-1.66-1.24-3.19-2.3-4.63-3.48-1.53-1.25-2.97-2.61-4.49-3.95-1.54,1.46-2.94,2.7-4.26,4.03-1.38,1.39-3.39,2.06-4.7,3.92,3.75,3.33,6.78,7.01,8.74,11.83Zm-142.69-.82c1.3-2.05,2.38-4.05,3.75-5.82,1.46-1.88,3.2-3.54,5-5.5-1.62-1.27-3.11-2.36-4.51-3.55-1.42-1.21-2.76-2.51-4.24-3.86-1.48,1.34-2.82,2.63-4.25,3.83-1.41,1.19-2.9,2.29-4.54,3.58,1.68,1.83,3.33,3.4,4.7,5.17,1.46,1.89,2.66,3.98,4.09,6.15Zm56.63-11.27c-3.21-2.63-6.05-4.97-8.94-7.33-1.56,1.42-3,2.61-4.3,3.95-1.26,1.3-3.26,1.78-4.2,3.49,1.7,1.85,3.34,3.43,4.72,5.21,1.37,1.77,2.48,3.75,3.89,5.93,1.33-2.05,2.43-4.01,3.8-5.75,1.47-1.87,3.2-3.53,5.01-5.49Zm-95.66.08c-3.07-2.51-5.74-4.7-8.43-6.91-2.85,2.33-5.61,4.58-8.58,7.01,1.19,1.19,2.26,2.17,3.22,3.25.98,1.1,1.88,2.27,2.78,3.44.86,1.12,1.27,2.59,2.72,3.59,2.12-3.98,4.86-7.23,8.3-10.37Zm-541.03-96.27c1.27,1.1,2.51,2.08,3.63,3.18,1.05,1.02,1.94,2.2,2.96,3.26,1.07,1.11,1.46,2.79,2.78,3.68,2.58-3.3,5.02-6.42,7.62-9.75-1.28-1.12-2.6-2.41-4.07-3.51-1.57-1.16-2.33-3.27-4.29-3.87-2.93,2.38-5.71,4.63-8.64,7.01Zm675.28,106.89c1.57-2.29,2.75-4.02,3.95-5.75,1.27-1.83,3.33-2.98,4.51-5.09-1.53-1.15-2.88-2.24-4.29-3.22-1.5-1.04-2.41-2.84-4.18-3.42-2.79,2.3-5.44,4.49-8.28,6.83,3.13,3.1,6.14,6.11,8.29,10.65Zm523.61-96.97c1.98-4.06,5.01-6.88,8.28-9.78-1.55-1.19-2.88-2.28-4.28-3.27-1.38-.98-2.28-2.6-4.07-3.32-2.26,2.78-5.19,4.66-7.35,7.08,2.44,3.05,4.69,5.87,7.41,9.29Zm-999.09,47.79c2.41-3.16,4.67-6.12,7.01-9.2-2.5-2.17-4.98-4.32-7.46-6.49-2.65,2.16-5.11,4.16-7.49,6.1,2.69,3.25,5.24,6.32,7.94,9.58Zm809.19-15.26c-2.42,2.1-4.62,4-6.94,6.01,2.16,2.75,4.25,5.42,6.55,8.34,1.23-1.61,2.33-3.08,3.46-4.51,1.2-1.51,3-2.52,3.93-4.32-2.38-1.88-4.57-3.6-7-5.52Zm-952.24-34.28c1.61-2.19,3.17-4.31,4.82-6.55-2.15-1.87-3.79-4.13-6.36-5.52-1.63,1.73-3.86,2.58-4.96,4.54,2.2,2.55,4.28,4.96,6.5,7.53Zm910.18,40.46c-1.67-1.85-3.48-3.26-5.5-4.46-1.06.93-2,1.67-2.84,2.52-.8.81-2.15,1.18-2.25,2.67,1.19,1.56,2.37,3.16,3.61,4.72.37.47.9.82,1.41,1.27,1.93-2.32,3.7-4.45,5.58-6.71Zm185.23-52.37c-1.98,1.82-4.02,3.25-5.42,5.41.84,1.09,1.59,2.03,2.32,2.99.7.92,1.36,1.87,2.22,3.04,1.13-1.37,2.09-2.45,2.97-3.6.94-1.23,2.38-2.06,3.19-3.68-1.83-1.45-3.48-2.75-5.27-4.17Zm-910.55,52.35c1.97,2.3,3.75,4.36,5.71,6.64,1.85-2.1,3.39-4,4.85-6.18-1.98-1.59-3.44-3.5-5.77-4.41-1.62,1.34-3.12,2.58-4.78,3.95Zm53.76-3.52c-1.88,1.46-3.56,2.49-4.8,4.41,1.54,1.46,2.51,3.33,4.32,4.84,1.5-2.03,3.28-3.58,4.34-5.93-1.26-1.09-2.45-2.11-3.86-3.32Zm617.54,8.74c1.86-1.44,3.08-3.06,4.2-4.87-1.39-1.53-2.74-2.72-4.45-3.62-1.61.82-2.87,1.86-3.92,3.42,1.42,1.73,2.74,3.34,4.16,5.07Zm-570.81-1.39c1.61-1.53,2.76-2.71,3.8-4.76-.57-.35-1.13-.7-1.7-1.04-.54-.33-1.08-.65-1.75-1.05-1.17,1.05-2.22,1.98-3.45,3.08,1.06,1.29,1.95,2.38,3.09,3.78Zm44.74-4.18c.83,1.29,1.58,2.49,3.1,3.15,1.3-1.11,2.28-2.32,3.16-3.88-.97-.78-1.88-1.52-2.87-2.31-1.39.87-2.54,1.7-3.4,3.04Zm-281.96-49.76c-1.25,1.08-2.34,2.01-3.65,3.15,1.01,1.14,1.86,2.09,2.76,3.11,1.69-1.14,2.75-2.39,3.49-4.2-.87-.69-1.67-1.31-2.6-2.05Zm760.39,46.97c-1,.85-1.72,1.42-2.37,2.05-.16.15-.14.49-.29,1.04,1.01.91,1.64,2.4,3.11,3.24,1.37-.84,2.29-1.89,2.84-3.51-1-.86-1.99-1.71-3.29-2.82Zm-44.4,2.79c-.57-1.35-1.65-2.23-3-2.91-1.26.49-2.31,1.18-2.87,2.71.95,1.08,1.89,2.14,2.78,3.16,1.64-.49,2.17-1.76,3.09-2.96Zm285.62-46.79c-1.34-1.15-2.3-1.98-3.13-2.7-1.49.19-2.12.91-2.4,2.14.92.98,1.48,2.38,3.05,3.11.76-.78,1.47-1.51,2.48-2.55Zm-956.84-.43c.53.56,1.12,1.18,1.89,2.01,1.01-1.21,1.82-2.17,3.01-3.57-.65-.56-1.12-.98-1.57-1.37-1.6.73-2.68,1.42-3.32,2.94Zm335.98,43.92c-1.67,1.09-2.9,1.48-2.99,3.12.62.55,1.29,1.14,1.94,1.71,1.3-.67,2.22-1.37,2.53-3.28-.31-.32-.84-.88-1.48-1.55Zm-48.4,5.2c1.39-.75,2.28-1.45,2.51-2.91-.66-.52-1.34-1.06-2.16-1.71-.87.8-1.59,1.47-2.42,2.24.76.87,1.35,1.55,2.07,2.39Zm288.12-2.83c-1.03-.91-1.69-1.51-2.39-2.12-1.03.56-2.03.96-1.98,2.57.59.54,1.31,1.2,2.19,2.01.75-.85,1.33-1.5,2.17-2.45Zm47.27.59c-2.17-2.7-2.34-2.71-4.16-.27.66.7,1.35,1.43,2.23,2.36.77-.83,1.36-1.47,1.93-2.09Zm283.63-45.25c1.89-2.11,1.89-2.55.38-3.77-1.03-.83-1.36-.72-2.79,1.11.71.79,1.45,1.61,2.4,2.66Zm-476,42.61c-1.2.46-2.11.96-2.08,2.48.57.5,1.24,1.08,2.01,1.76.75-.82,1.36-1.48,2.11-2.3-.8-.76-1.44-1.37-2.04-1.93Zm45.45,1.98c.78.81,1.38,1.44,1.97,2.06,2.22-1.57,2.48-2.03,1.75-2.94-1.02-1.26-1.68-1.15-3.72.88Zm-93.05-1.87c-.65.85-1.32,1.36-1.4,1.95-.05.4.65,1.05,1.16,1.32.54.29,1.76-.62,1.62-1.25-.14-.62-.75-1.13-1.38-2.01Zm143.16,3.29c.27-.41.83-.95.98-1.59.15-.63-1.07-1.52-1.64-1.22-.5.26-.99.84-1.13,1.38-.19.72.72,1.51,1.79,1.43Zm-475.4-50.25c-.3.05-.44.05-.55.11-.58.32-1.07.72-.83,1.49.03.09.18.21.28.21.79.02,1.13-.47,1.25-1.17.02-.11-.06-.24-.16-.65Zm-334.4,22.9c0-10.94-7.49-21.73-22.15-22.52-11.9-.64-22.27,10.18-22.32,22.33-.04,12.35,9.8,22.3,22.12,22.36,12.3.06,22.35-9.84,22.34-22.16Zm284.64,96.02c.23-12.28-9.62-22.47-21.96-22.53-12.79-.07-22.32,10.35-22.27,22.23.05,12.13,9.88,22.03,21.97,22.1,12.14.06,22.03-9.68,22.26-21.8Zm1118.54-70.24c-12.01,0-22.08,10.06-21.9,22.16.18,12.11,9.69,21.71,21.82,21.79,12.33.07,22.06-9.59,22.06-21.91.25-11.59-9.36-22.05-21.98-22.04Zm-1330.45.2c-12.47-.1-21.99,10.11-21.87,22.04.12,11.99,9.91,21.62,21.95,21.56,12.04-.06,21.65-9.76,21.63-21.84.22-9.96-7.61-21.64-21.71-21.76Zm903.04,94.99c-12.01-.05-21.8,9.66-21.84,21.66-.04,12.01,9.67,21.8,21.66,21.85,11.99.05,21.78-9.67,21.83-21.67.05-12.02-9.64-21.79-21.66-21.84Zm284.9-47.04c-12.54-.16-21.84,9.73-21.99,21.51-.15,11.35,8.54,21.81,21.51,22,12.61.18,21.85-9.86,21.96-21.52.16-11.32-8.44-21.82-21.48-21.99Zm-782.13,68.98c.07,12.36,9.96,21.66,21.97,21.49,12.42-.18,21.42-9.96,21.37-21.65-.06-13.46-10.78-21.72-21.73-21.71-10.88.08-21.68,8.41-21.61,21.87Zm-262.83-68.83c-11.51-.17-21.89,8.63-21.86,21.65.02,12.72,10.05,21.55,21.56,21.56,11.99.02,21.34-9.2,21.69-21.46-.16-12.08-9.17-21.57-21.38-21.75Zm1308.78-74.15c-.03,11.96,9.25,21.55,21.54,21.54,12.78-.01,21.54-10,21.52-21.53-.01-11.81-8.82-21.22-21.5-21.58-12.11.31-21.53,9.25-21.55,21.56Zm-480.37,143c.1-11.38-8.61-21.48-21.41-21.61-11.74-.12-21.28,9.46-21.37,21.22-.09,12,9.4,21.57,21.38,21.57,12.16.05,21.3-9.72,21.4-21.18Zm-569.59.09c.18-11.9-9.44-21.66-21.35-21.64-11.81.02-21.23,9.44-21.28,21.27-.04,11.87,9.25,21.28,21.11,21.38,11.55.28,21.34-9.1,21.52-21.01Zm-544.81-164.27c-11.91.08-21.17,9.45-21.1,21.33.07,11.82,9.53,21.15,21.38,21.08,11.87-.07,21.14-9.46,21.07-21.36-.06-11.91-9.42-21.13-21.35-21.05Zm1521.5,47.9c-11.85-.04-21.3,9.34-21.3,21.16,0,11.67,9.22,20.93,20.91,21.13,12.78.23,21.54-10.38,21.54-20.95.08-11.76-9.37-21.3-21.15-21.34Zm-1536.55-56.61c8.92,7.82,22.09,7.67,30.79-.31,8.63-7.91,9.67-21.67,3-29.87-3.05-.42-31.61-.55-37.13-.15-6.9,9.64-5.4,22.67,3.33,30.33Zm1177.06,172.95c.14-11.77-9.37-21.31-21.17-21.29-11.71.01-20.96,9.28-20.97,21-.02,11.71,9.24,21.06,20.88,21.11,11.48.22,21.12-9.3,21.26-20.82Zm216.86-68.33c-11.74-.19-21.15,9.22-21.4,20.66-.26,11.7,9.32,21.39,21.05,21.43,11.61.04,21.07-9.29,21.16-20.88.09-11.63-9.16-21.03-20.81-21.22Zm-903.18,89.11c11.54-.04,21.11-9.58,20.98-21.1-.14-12.14-9.96-20.98-21.13-20.93-11.67.05-20.93,9.37-20.89,21.08.04,11.67,9.4,20.98,21.05,20.95Zm-358.74-115.98c0-11.59-9.42-20.99-21.04-20.99-11.65,0-20.99,9.35-20.99,21.01,0,11.71,9.26,20.95,21.01,20.94,11.69,0,21.02-9.31,21.02-20.96Zm120.86,68.83c11.64.02,21.04-9.35,21.02-20.96-.02-11.47-9.18-20.72-20.69-20.87-11.7-.15-21.11,9.06-21.18,20.73-.07,11.7,9.2,21.08,20.84,21.1Zm950.72,5.47c-12.22.17-20.35,9.65-20.49,20.57-.15,11.38,9.35,20.89,20.72,20.79,11.25-.1,20.46-8.72,20.71-20.83-.41-12.08-9.47-20.69-20.95-20.53Zm-759.76.08c-12.21-.2-20.82,9.56-20.84,20.55-.02,11.3,9.07,20.49,20.38,20.64,11.4.15,20.83-9.15,20.86-20.59-.04-9.71-7.09-20.38-20.4-20.6Zm1255.22-121.42c.33-11.47-8.47-21.07-20.01-21.38-11.37-.31-20.91,8.19-21.17,20.18-.26,12.04,9.38,20.86,19.96,20.98,12.55.43,20.94-10.06,21.22-19.77Zm-35.83-31.71c8.46,7.96,21.37,8.06,30.08.31,8.49-7.56,9.72-20.34,2.85-29.52-3.34-.45-32.01-.45-35.39,0-5.85,6.38-7.14,20.17,2.46,29.21Zm-222.47,106.26c-11.18-.04-20.24,8.85-20.41,20.04-.17,11.38,8.79,20.63,20.12,20.74,11.35.11,20.54-8.91,20.6-20.25.07-11.38-8.96-20.5-20.31-20.54Zm-1487.68-106.41c8.69,8.15,22.01,7.95,30.58-.36,8.46-8.2,8.34-22.06,1.66-28.9h-34.35c-7.09,8.48-6.11,21.56,2.1,29.26Zm1650.85,78.69c-.09-10.57-9.12-20.35-20.73-20.19-10.83.15-20.07,9.25-20.06,20.42,0,11.21,9.2,20.57,20.5,20.32,11.24.15,20.39-9.44,20.3-20.55Zm-1635.69-67.94c-11.2-.03-20.43,9.19-20.36,20.46.08,11.23,9.58,20.19,20.26,20.22,10.85.03,20.67-9.31,20.36-20.52.17-10.67-8.97-20.12-20.26-20.16Zm237.64,95.79c-10.48-.03-20.24,8.31-20.23,20.27,0,12.06,9.91,20.3,20.25,20.26,11.19-.04,20.22-9.07,20.22-20.29,0-11.24-9.02-20.22-20.24-20.25Zm1045.01,47.17c-11.09-.02-20.1,8.77-20.27,19.79-.17,11.11,8.9,20.46,19.98,20.58,11.2.12,20.32-8.86,20.39-20.08.07-11.34-8.77-20.27-20.1-20.29Zm-855.21,40.28c11.34.04,20.06-8.96,20.19-19.89.13-11.75-9.24-20.19-19.68-20.35-11.34-.17-20.46,8.6-20.57,19.84-.2,10.58,8.15,20.36,20.06,20.4Zm-312.42-115c.1-11.62-9.39-20.35-20.18-20.3-11.03.05-19.99,8.87-20.15,19.92-.16,11.28,8.73,20.38,19.97,20.45,9.76.34,20.25-7.37,20.36-20.07Zm1624.12-85.42c4.07,7.66,10.62,11.78,19.24,11.59,16.64-.35,25.92-17.79,18.06-31.87-1.12-2-2.53-2.75-4.83-2.72-9.24.11-18.49.05-27.74.05-.67,0-1.33.06-2.17.11-5.19,5.63-6.48,15.46-2.56,22.84Zm-408.79,160.6c-11.09.11-19.6,8.81-19.54,19.82.06,10.74,8.66,19.64,19.84,19.52,10.92-.12,19.62-8.9,19.54-19.82-.07-10.91-8.93-19.63-19.85-19.52Zm190.08-47.01c-10.09-.07-19.76,8.07-19.71,19.74.05,11.83,10.09,19.73,19.91,19.55,9.94-.18,19.41-8.22,19.26-19.75.05-11.27-9.2-19.47-19.46-19.54Zm218.08-76.22c-.05,11,9.25,19.59,19.34,19.72,9.83.13,19.88-8.12,19.73-19.7-.14-10.88-8.61-19.42-19.5-19.42-11.13-.09-19.51,9.16-19.56,19.4Zm-1801.19-32.08c8.11,7.92,20.48,8.32,29.08.38,8.08-7.46,8.77-19.99,1.61-28.47h-31.89c-7.18,8.08-6.67,20.41,1.2,28.09Zm422.78,174.73c-.11,10.84,8.39,19.51,19.16,19.79,10.79.28,19.88-8.64,19.89-19.48,0-11.36-9.39-19.76-19.38-19.54-10.46-.32-19.56,8.28-19.67,19.23Zm-170.21-66.27c-10.55-.1-19.55,8.49-19.6,19.36-.06,11.12,9.09,19.58,19.36,19.62,11.04.04,19.75-9.04,19.53-19.37.34-10.19-8.01-19.5-19.28-19.61Zm1492.68-28.34c.02-10.84-8.6-19.54-19.37-19.55-10.75-.02-19.54,8.7-19.57,19.41-.03,10.78,8.64,19.49,19.43,19.52,10.88.03,19.49-8.52,19.51-19.38Zm-760.16,142.81c.03-10.77-8.64-19.52-19.37-19.56-10.82-.04-19.43,8.52-19.49,19.38-.06,10.93,8.38,19.46,19.3,19.5,10.88.04,19.53-8.5,19.56-19.31Zm-47.92.08c.2-10.92-9.11-19.72-19.27-19.67-10.81.05-19.54,8.55-19.62,19.32-.08,10.89,8.39,19.49,19.28,19.57,10.96.08,19.41-8.33,19.62-19.23Zm94.92-.4c-.09-10.52-8.81-19.16-19.35-19.2-10.77-.04-19.42,8.65-19.48,19.45-.06,10.58,8.69,19.59,19.53,19.31,10.85-.05,19.4-8.71,19.31-19.56Zm-142.81.19c-.02-10.72-8.8-19.44-19.54-19.39-10.61.05-19.13,8.59-19.2,19.25-.07,10.99,8.31,19.48,19.26,19.51,10.89.02,19.5-8.54,19.48-19.37Zm-874.2-209.95c-10.47-.19-19.6,8-19.73,19.16-.13,10.61,8.51,19.52,19.4,19.56,10.52.04,19.21-8.67,19.28-19.23.08-10.68-8.34-19.3-18.95-19.5Zm807.85,190.6c-10.68-.05-19.48,8.74-19.45,19.45.02,10.79,8.71,19.3,19.6,19.2,10.7-.1,19.01-8.58,18.97-19.35-.04-10.66-8.55-19.25-19.12-19.3Zm-713.03-142.7c-11.78-.17-19.6,9.51-19.58,19.33.03,10.57,8.68,19.23,19.25,19.25,10.63.03,19.25-8.5,19.32-19.13.14-9.8-7.42-19.29-19-19.45Zm950.64,142.75c-9.89.01-19.25,7.86-19.32,19.21-.07,11.59,9.4,19.5,19.47,19.37,10.65-.14,19.13-8.67,19.09-19.32-.04-10.56-8.73-19.27-19.25-19.25Zm-266.41,19.48c.08-10.55-8.55-19.33-19.07-19.42-10.44-.09-19.31,8.66-19.41,19.13-.09,10.56,8.51,19.26,19.11,19.33,10.67.07,19.29-8.4,19.36-19.04Zm645.89-67.17c-10.37.11-18.94,8.69-19.02,19.04-.08,10.46,8.69,19.28,19.18,19.3,10.54.02,19.22-8.71,19.17-19.26-.05-10.58-8.78-19.19-19.34-19.08Zm-332.22,47.94c-10.51-.16-19.31,8.59-19.28,19.17.03,10.45,8.57,18.98,19.02,18.99,10.48.01,18.99-8.44,19.05-18.94.06-10.47-8.34-19.07-18.79-19.22Zm-693.63-28.61c.07-11.5-8.78-18.97-18.76-19.17-10.38-.2-19.05,8.39-19.16,18.83-.11,10.46,8.34,19.04,18.82,19.13,9.99.15,19.03-7.59,19.09-18.8Zm313.77,28.7c-9.15-.07-18.95,7.03-18.97,18.96-.02,11.35,8.77,18.92,18.89,19.01,10.45.09,19.01-8.47,19.03-18.93.03-10.42-8.53-18.96-18.95-19.04Zm1120.58-212.89c2.54,7.83,7.97,12.71,16.09,13.96,8.45,1.3,15.43-1.71,20.05-8.96,4.51-7.08,4.28-14.42.06-21.68-1.05-1.81-2.39-2.58-4.55-2.55-8.44.11-16.89.04-25.33.05-.66,0-1.33.08-2.27.14-4.57,5.87-6.3,12.09-4.04,19.05Zm-692.71,213.02c-9.74-.16-19.12,7.79-19.17,18.71-.05,10.55,8.3,18.96,18.86,18.95,10.72-.01,18.9-8.83,18.73-18.64.27-10.98-9.21-18.87-18.42-19.02Zm-1207.63-214.99c1.63,8.01,7.53,13.99,15.48,15.62,7.88,1.61,16.14-1.57,20.44-8.18,4.68-7.19,4.68-14.59.4-22.03-1.13-1.96-2.61-2.71-4.91-2.67-8.05.12-16.1.04-24.15.05-.8,0-1.6.08-2.68.13-4.14,5.17-5.87,10.72-4.57,17.08Zm1682.77,120.16c-10.47-.04-18.94,8.48-18.84,18.95.1,10.33,8.44,18.62,18.76,18.64,10.45.02,18.96-8.52,18.88-18.95-.08-10.27-8.47-18.6-18.79-18.64Zm-969.66,113.52c-.11,10.38,8.06,18.65,18.44,18.88,9.98.22,18.98-7.68,18.95-18.73-.03-11.71-9.91-18.97-18.6-18.72-9.05-.29-18.67,7.31-18.79,18.57Zm-455.85-113.32c-10.33.03-18.43,8.01-18.68,18.26-.23,9.72,7.48,18.81,18.43,18.93,10.43.11,18.83-8.1,18.87-18.48.35-9.49-7.67-18.75-18.62-18.72Zm978.49,113.26c-.13,10.18,8.06,18.48,18.22,18.74,9.49.24,18.79-7.28,18.83-18.48.03-10.44-8.41-18.46-18.36-18.63-10.06-.05-18.56,8.29-18.69,18.36Zm-532.49.07c-.19-10.79-8.92-18.47-18.64-18.33-10.73.15-18.41,8.98-18.33,18.66.09,10.16,8.42,18.34,18.66,18.27,10.19-.07,18.49-8.42,18.31-18.59Zm1216.17-208.92c-10.17.12-18.44,8.44-18.35,18.57.09,10.08,8.57,18.4,18.66,18.32,10.15-.09,18.36-8.45,18.29-18.63-.2-10.73-8.82-18.38-18.6-18.26Zm-94.89,47.8c-10.13.07-18.36,8.44-18.3,18.62.06,10.22,8.32,18.36,18.56,18.29,10.21-.06,18.39-8.36,18.3-18.56-.09-10.16-8.44-18.42-18.57-18.35Zm-284.68,94.96c-10.04.07-18.4,7.89-18.37,18.51.03,10.83,8.83,18.47,18.47,18.46,10.13-.02,18.37-8.35,18.35-18.55-.02-10.23-8.25-18.49-18.44-18.42Zm-1140.52.17c-10.49-.07-18.41,8.05-18.45,18.34-.05,10.12,8.49,18.5,18.55,18.33,9.92-.16,18.12-8.51,18.09-18.42-.19-10.32-8.09-18.18-18.18-18.25Zm-361.63-124.27c.14-10.77-8.11-18.25-17.87-18.43-10-.19-18.29,7.4-18.58,17.75-.3,10.32,8.02,18.44,17.7,18.65,9.43.34,18.62-6.83,18.76-17.96Zm76.93,29.39c-10.11-.15-18.5,8.19-18.45,18.33.05,10.01,8.21,18.15,18.21,18.16,10,.01,18.18-8.12,18.23-18.12.05-10.02-7.97-18.22-17.99-18.37Zm1169.38,160.97c-.05,10,8.17,18.26,18.17,18.26,9.84,0,17.97-8.02,18.15-17.88.18-9.96-7.98-18.35-17.97-18.47-9.97-.12-18.29,8.09-18.34,18.09Zm-629.07.39c.19-9.99-7.94-18.31-17.96-18.38-9.85-.06-18.08,7.89-18.15,17.77-.08,9.98,7.41,18.09,17.95,18.38,9.84.08,17.98-7.89,18.17-17.78Zm1325.6-251.26c-8.31-.05-16.63-.07-24.94-.15-1.37-.01-2.27.63-3.03,1.64-4.26,5.72-5.28,11.98-2.75,18.63,3.28,8.62,11.2,12.19,17.44,12.06,8.08-.17,13.99-3.94,17.57-11.31,2.9-5.97,2.03-15.51-3.9-20.74-.13-.04-.25-.13-.38-.13Zm-250.67,138.09c-10.18-.07-17.99,8.05-18.1,17.7-.12,10.23,8.13,18.23,18.02,18.19,10.18-.04,18.11-8.46,17.88-17.91.27-9.35-7.47-17.91-17.8-17.98Zm-1763.65-106.93c7.54,2.33,15.9-.49,20.66-7.1,4.71-6.54,4.62-15.36-.09-21.83-1.22-1.67-2.53-2.47-4.67-2.43-7.11.12-14.22.04-21.33.06-.79,0-1.59.11-2.35.17-9.3,8.98-6.79,26.63,7.78,31.13Zm1638.45,172.01c.05-9.83-7.73-17.71-17.55-17.78-10.07-.07-17.95,7.78-17.89,17.81.05,9.76,7.99,17.67,17.73,17.66,9.7,0,17.67-7.97,17.72-17.7Zm-254.47,30.11c-9.72-.08-17.79,7.84-17.87,17.52-.07,9.73,7.82,17.74,17.56,17.8,9.83.07,17.74-7.71,17.81-17.5.07-9.8-7.73-17.75-17.51-17.83Zm-1123.18-77.06c.08-10-7.8-17.9-17.81-17.85-9.87.05-17.53,7.78-17.52,17.68,0,9.89,7.7,17.63,17.55,17.66,9.83.03,17.69-7.7,17.77-17.49Zm124.91,29.28c-9.6.09-17.35,7.86-17.37,17.48-.02,9.31,7.18,17.71,17.55,17.74,10.36.03,17.73-8.58,17.52-17.72-.04-9.85-7.87-17.59-17.7-17.49Zm255.5,65.42c0-9.56-7.74-17.42-17.31-17.58-9.72-.16-17.73,7.69-17.82,17.44-.09,9.79,7.74,17.73,17.48,17.77,9.75.03,17.65-7.87,17.64-17.63Zm1247.69-143.23c-.26,10.13,7.43,17.52,16.87,17.9,8.13.33,17.71-5.43,17.99-17.19.24-10.27-7.88-17.38-17.08-17.76-8.99-.06-17.52,6.69-17.78,17.06Zm129.58-47.26c.09-9.61-7.72-17.56-17.28-17.44-8.71.11-17.05,6.4-17.16,17.12-.12,11.42,9.33,17.62,17.24,17.43,9.42-.02,17.11-7.67,17.2-17.12Zm-604.81,190.48c-.05,7.83,5.97,17.13,17.17,17.16,10.27.03,17.12-8.01,17.21-17.09.1-9.45-7.67-17.18-17.14-17.19-9.47-.01-17.18,7.67-17.24,17.12Zm-820.86,0c-.02-9.39-7.44-16.83-16.79-17.07-9.13-.23-17.3,7.54-17.38,16.93-.08,8.96,7.17,17.28,17.03,17.21,9.61.05,17.16-7.46,17.14-17.06Zm-475.43-142.97c-.18-10.39-8.96-17.11-17.38-16.95-8.77.16-16.79,7.56-16.8,17.15-.01,8.99,7.28,17.2,17.21,17.07,9.54-.05,17.14-7.76,16.98-17.27Zm1931.92-108.09c-3.36,0-6.71.02-10.07-.01-1.29-.01-2.32.39-3.19,1.38-4.18,4.79-5.76,10.28-4.08,16.46,2.37,8.69,9.72,13.82,18.78,13.09,7.07-.57,12.14-4.33,14.77-10.82,2.68-6.62,1.59-12.9-3.06-18.46-1.04-1.25-2.28-1.7-3.88-1.66-3.09.08-6.18.02-9.27.02h0Zm-237.97,139.2c-9.3-.01-16.92,7.6-16.97,16.85-.06,9.42,7.69,17.24,17.11,17.12,10.13-.13,17.01-8.26,16.9-16.86.23-8.91-6.93-17.1-17.03-17.11Zm-159.66,63.73c-.12,9.52,7.45,17.22,16.95,17.21,9.38,0,16.75-7.46,16.89-16.85.13-9.42-7.78-17.11-16.73-16.97-8.5-.36-16.99,6.73-17.11,16.61Zm-1646.15-125.53c9.26-.06,16.85-7.79,16.79-17.11-.06-9.37-7.63-16.83-17.05-16.78-9.45.05-16.76,7.5-16.71,17.03.05,9.41,7.6,16.92,16.96,16.85Zm-31.36-56.66c3.1-6.71,2.02-13.05-2.57-18.81-1.07-1.34-2.34-1.99-4.14-1.96-5.9.09-11.8.16-17.69-.03-2.32-.07-3.83.84-5.1,2.53-4.22,5.64-5.08,11.82-2.17,18.19,3,6.56,8.44,9.81,15.61,10.22,7.35-.27,12.96-3.4,16.07-10.15Zm347.07,182.35c-.08,9.28,7.59,16.97,16.87,16.93,9.15-.04,16.65-7.53,16.7-16.67.06-9.37-7.49-16.94-16.85-16.91-9.14.03-16.65,7.5-16.73,16.65Zm-125.67-63.64c-9.16-.27-16.87,7.08-17.15,16.18-.27,8.57,6.22,16.99,16.48,17.25,8.98.23,16.74-6.59,17.11-16.17.27-9.11-6.62-16.98-16.44-17.26Zm1299.83,111.61c.13-8.9-7.44-16.42-16.38-16.59-8.06-.16-16.73,6.01-16.84,16.47-.11,9.58,7.29,16.58,16.52,16.78,9.26-.1,16.56-7.18,16.7-16.66Zm-967.69,16.57c9.14.11,16.68-7.39,16.65-16.57-.03-9.2-7.57-16.62-16.73-16.49-8.97.13-16.31,7.61-16.28,16.57.03,9.01,7.34,16.38,16.37,16.49Zm1441.87-159.44c-.05-8.95-7.17-16.08-16.11-16.14-9.07-.06-16.39,7.26-16.34,16.35.05,8.95,7.17,16.05,16.15,16.09,9.19.04,16.36-7.12,16.31-16.3Zm-982.38,189.88c.04,8.9,7.24,16.14,16.16,16.11,8.8-.03,15.87-7.05,16.04-15.78.18-9.01-7.29-16.41-15.92-16.25-9.12-.31-16.32,7.54-16.28,15.92Zm-31.65,16.1c8.72,0,15.92-7.17,16.03-15.84.11-8.39-6.84-16.26-16.04-16.2-9.07.05-16.13,6.97-16.13,16.01-.26,8.02,6.38,16.04,16.14,16.03Zm744.94-110.83c.05,8.82,7.06,15.9,15.82,15.98,8.92.08,16.18-7.09,16.22-16.03.03-8.98-7.11-16.16-16.06-16.15-8.98.01-16.02,7.15-15.97,16.2Zm-158.66,48.01c.18-8.59-6.83-16.18-15.97-16.3-8.75-.12-16.19,7.43-16.12,16.2.07,8.68,7.28,15.8,16.01,15.82,8.8.02,15.9-6.98,16.08-15.71Zm569.52-231.77c2.53-6.38.96-13.58-3.88-18.13-1.04-.98-2.13-1.49-3.58-1.48-5.09.04-10.18.06-15.28-.01-1.61-.02-2.79.58-3.91,1.66-4.77,4.6-6.24,11.85-3.62,18.18,2.48,5.99,8.69,10.07,15.21,10,6.6-.07,12.65-4.18,15.05-10.23Zm-1029.08,278.26c-.13,8.97,6.94,16.2,15.89,16.25,8.91.05,16.15-7.2,16.09-16.09-.07-8.76-7.13-15.77-15.93-15.8-8.85-.03-15.93,6.86-16.05,15.64Zm-47.06.51c.09,8.81,7.1,15.79,15.92,15.82,8.95.04,16.11-7.12,16.12-16.07,0-9.02-7.46-16.25-16.16-15.96-9.04.05-15.96,7.12-15.87,16.21Zm-965.97-189.96c.17-8.79-7.35-16.15-16.17-16.03-8.68.12-15.83,7.38-15.77,16.03.06,8.68,7.27,15.82,15.97,15.81,8.69-.04,15.79-6.83,15.96-15.81Zm1995.84-47.75c.12-8.93-6.92-15.94-15.61-16.12-8.89-.19-16.28,7-16.31,15.85-.03,8.68,7.1,15.85,15.83,15.93,8.68.1,15.96-6.77,16.09-15.65Zm-1172.63,237.41c-.04,8.93,7.15,16.1,16.08,16.04,8.78-.06,15.77-7.09,15.8-15.89.03-9.02-7.02-16.05-16.05-15.99-8.8.05-15.8,7.05-15.83,15.84Zm253.83-15.79c-8.85-.07-15.91,6.88-16.02,15.72-.11,8.65,6.73,15.95,15.74,16,9.12.05,15.96-7.1,16.02-15.73.06-8.84-6.91-15.93-15.74-16Zm-854.81-94.89c-7.56-.32-15.65,4.95-16.27,15.06-.56,9.08,6.54,16.16,15.13,16.63,8.56.47,16.16-6.59,16.55-15.29.24-7.53-5.21-15.97-15.4-16.4Zm568.79,94.94c-7.13.09-15.51,5.48-15.57,15.78-.06,9.28,7.22,15.88,15.92,15.8,9.84-.09,15.82-7.92,15.81-15.94-.11-8.71-7.4-15.75-16.15-15.63Zm1014.05-125.85c.13-8.89-6.72-16-15.56-16.13-8.89-.13-16.04,6.73-16.19,15.53-.15,8.84,6.77,15.99,15.59,16.12,8.92.13,16.03-6.7,16.16-15.52Zm-1377.65,94.66c-.03-8.79-6.82-15.9-15.88-15.86-9.33.04-15.66,7.59-15.72,15.61-.07,8.78,6.94,16.01,15.67,16.07,8.73.06,15.96-7.07,15.93-15.82Zm-575.31-249.6c-1.02-.96-2.12-1.55-3.58-1.54-4.83.04-9.67.04-14.5,0-1.45-.01-2.57.54-3.61,1.48-2.79,2.54-4.51,5.7-5.12,9.37-1.5,9.07,5.25,17.69,14.28,18.51,10.37.95,17.99-7.43,17.78-14.9-.06-5.81-1.86-9.7-5.25-12.91Zm1272.02,280.97c-7.45-.06-15.57,5.15-15.78,15.43-.17,8.59,6.02,15.48,15.38,15.81,8.56.3,15.73-6.81,15.84-15.41.11-8.58-6.84-15.77-15.44-15.83Zm-1045.36-141.95c-8.65.13-15.58,7.21-15.46,15.81.12,8.64,7.2,15.55,15.82,15.44,8.66-.11,15.53-7.14,15.43-15.8-.1-8.64-7.18-15.57-15.8-15.44Zm-173.98-80.07c.04-8.59-6.96-15.73-15.59-15.7-8.84.03-15.63,6.66-15.67,15.55-.05,9.72,7.83,15.79,15.52,15.69,8.62.03,15.69-6.95,15.73-15.54Zm839.53,253.12c10.21-.07,15.43-8.35,15.45-15.26.03-8.62-6.83-15.69-15.43-15.76-8.61-.07-15.61,6.89-15.63,15.54.01,8.29,6.25,15.55,15.61,15.48Zm427.47-30.77c-8.58,0-15.32,6.74-15.32,15.31,0,8.6,6.7,15.26,15.35,15.24,8.61-.02,15.37-6.74,15.35-15.27-.02-8.49-6.86-15.28-15.39-15.28Zm347.87-31.91c-.08-8.4-6.78-15.04-15.2-15.04-8.45,0-15.09,6.57-15.17,15.03-.08,8.68,6.55,15.44,15.15,15.44s15.3-6.82,15.22-15.42Zm-838.49,47.09c-.06,8.65,6.61,15.31,15.29,15.26,8.54-.05,14.95-6.55,15.12-15.03.17-8.15-6.65-15.49-15.3-15.31-8.43.03-15.05,6.64-15.11,15.08Zm1013.22-79.68c8.95-.07,15.08-7.45,15.04-15.23-.04-8.27-6.97-15.05-15.26-14.99-8.33.06-15.07,6.89-15.02,15.21.04,7.88,6.38,15.08,15.23,15.01Zm-1345.8,32.85c.05,8.29,6.89,15.06,15.2,15.03,8.26-.03,15.11-6.92,15.08-15.18-.03-8.27-6.89-15.02-15.23-14.98-8.38.04-15.1,6.79-15.05,15.12Zm885.24,47.25c.12-8.51-6.38-15.2-14.87-15.27-8.38-.07-15.13,6.33-15.08,15.05.05,8.9,7.05,14.82,14.85,14.86,8.26.05,14.97-6.42,15.09-14.64Zm-569.59-.35c-.13-8.7-6.85-14.81-14.86-14.83-8.25-.02-14.99,6.26-15,15.12-.01,8.13,6.94,14.71,15.09,14.63,8.21-.08,14.9-6.76,14.78-14.92Zm1267.83-204.72c-6.96-.05-14.82,5.19-14.94,14.77-.11,8.79,6.68,15.07,14.99,15.11,8.13.04,14.75-6.78,14.74-14.96-.01-8.2-6.64-14.86-14.79-14.91Zm-1758.41,95.04c-8.21.07-14.77,6.93-14.57,15.12.19,8.04,6.81,14.6,14.81,14.5,7.98-.1,14.58-6.09,14.8-14.94-.41-8.8-6.95-14.75-15.04-14.68Zm1663.46-46.94c-8.4.06-14.81,6.81-14.74,14.87.07,7.76,6.31,14.43,14.66,14.54,8.17.11,14.84-6.69,14.74-14.87-.09-8.04-6.64-14.6-14.66-14.54Zm233.49-141.49c-2.01-.16-3.67.53-5.16,1.82-4.8,4.18-6.61,9.35-5,15.55,1.59,6.13,7.08,10.5,13.49,10.91,6.44.41,12.37-3.46,14.82-9.67,2.28-5.78.36-12.77-4.56-16.75-1.51-1.22-3.12-2.01-5.14-1.86-1.47.11-2.95.02-4.43.02-1.34,0-2.69.08-4.03-.02Zm-2119.87,108.48c.1-8.04-6.41-14.72-14.43-14.79-8.09-.07-14.62,6.36-14.7,14.48-.08,8.17,6.25,14.66,14.39,14.75,8.11.08,14.64-6.3,14.74-14.43Zm1301.44,189.65c-.03,8.14,6.36,14.56,14.52,14.6,8.09.03,14.6-6.45,14.61-14.54,0-8.12-6.44-14.58-14.55-14.58-8.19,0-14.55,6.34-14.57,14.53Zm774.73-252.18c-8.09,0-14.54,6.51-14.47,14.61.06,7.86,6.49,14.33,14.33,14.41,8.05.09,14.6-6.4,14.62-14.47.02-8.16-6.34-14.55-14.49-14.55Zm-1439.89,252.4c.08,8.05,6.32,14.22,14.41,14.23,8.19.02,14.59-6.45,14.47-14.62-.11-8.04-6.41-14.23-14.46-14.23-8.28,0-14.51,6.31-14.43,14.61Zm978.88-47.1c.07-7.93-6.27-14.42-14.19-14.53-8.14-.11-14.63,6.33-14.58,14.49.04,8.06,6.27,14.26,14.34,14.27,8,.02,14.37-6.26,14.44-14.23Zm-1534.68-109.41c-8.17-.06-14.59,6.36-14.51,14.53.08,7.98,6.44,14.22,14.45,14.18,8.01-.04,14.28-6.32,14.29-14.32,0-8.01-6.23-14.32-14.23-14.38Zm-240.54-141.85c-3.1-.4-5.43,1.04-7.52,3.07-4.23,4.12-5.59,11.05-3.01,16.33,2.71,5.55,7.21,8.51,13.47,8.41,6.08-.1,10.58-3,12.94-8.54,2.39-5.62,1.58-11.04-2.56-15.72-2.12-2.4-4.69-3.96-8.11-3.54-.79.1-1.6.01-2.41.01-.94,0-1.89.1-2.81-.02Zm526.37,236.92c-7.96-.19-14.47,6.11-14.54,14.05-.06,8,6.27,14.4,14.21,14.38,7.78-.02,14.07-6.27,14.15-14.06.08-7.81-6.06-14.18-13.82-14.37Zm1011.76,61.34c.07-7.83-6.51-14.33-14.38-14.22-7.74.11-14.02,6.49-13.96,14.21.05,7.71,6.41,14.02,14.15,14.02,7.7,0,14.13-6.34,14.2-14Zm-1501.73-237.93c-.05,8.11,6.44,14.24,14.37,14.23,7.69-.01,14.08-6.62,13.93-14.26-.16-8.08-6.5-13.85-14.17-14.07-8.32.32-14.09,6.6-14.14,14.1Zm727.13,251.85c7.75.1,14.18-6.18,14.24-13.93.06-7.6-5.98-13.85-13.63-14.12-7.7-.27-14.26,5.96-14.43,13.72-.17,7.72,6.1,14.23,13.82,14.34Zm1201.98-109.19c-.22-9.08-7.4-14.01-14.32-13.81-7.84.22-13.66,6.24-13.67,14.06-.01,8.33,6.73,14.12,14.12,13.99,7.05,0,14.09-5.55,13.88-14.23Zm-1643.92.32c.04,7.43,6.09,13.52,13.53,13.62,7.66.11,13.85-5.96,13.9-13.61.04-7.7-6-13.8-13.68-13.8-7.64,0-13.78,6.16-13.75,13.79Zm1487.43,34.3c-7.44-.26-13.73,5.86-13.83,13.3-.1,7.36,5.72,13.49,13,13.7,7.56.22,13.84-5.63,14.04-13.07.31-6.79-5.03-13.64-13.21-13.93Zm-224.6,60.5c-.02-7.61-5.94-13.46-13.57-13.42-7.42.04-13.2,5.82-13.28,13.28-.08,7.64,5.77,13.61,13.34,13.63,7.6.01,13.53-5.9,13.51-13.49Zm591.33-189.99c-.12,7.38,6.06,13.66,13.46,13.62,8.03-.04,13.58-6.62,13.47-13.6-.11-7.34-6.11-13.24-13.45-13.18-7.33,0-13.37,5.89-13.48,13.16Zm-1446.44,190.07c.02-7.42-6.15-13.45-13.62-13.45-5.95,0-13.23,4.66-13.29,13.35-.05,8.32,6.83,13.54,13.59,13.44,7.27-.07,13.3-6.11,13.32-13.34Zm1377.59-141.72c.15-7.52-5.88-13.63-13.45-13.63-7.43,0-13.31,5.84-13.35,13.27-.04,7.45,5.76,13.36,13.19,13.43,7.43.07,13.46-5.72,13.61-13.06Zm224.39-156.38c-5.98-.08-13.28,4.27-13.43,13.2-.13,7.38,5.52,13.23,13.22,13.41,7.25.17,13.4-5.96,13.47-13.2.07-7.25-5.96-13.31-13.26-13.41Zm-1853,237.76c-8.27-.1-13.44,6.61-13.47,13.13-.04,7.32,5.89,13.46,13.16,13.49,6.41.03,13.03-4.59,13.54-13.18-.19-7.63-5.77-13.34-13.23-13.44Zm-284.89-68.59c7.22.04,13.08-5.92,13.05-13.12-.03-7.21-5.94-13.07-13.14-13.04-7.21.03-13.07,5.93-13.05,13.13-.17,6,4.77,12.97,13.14,13.02Zm-94.98-74.01c-6.5-.02-13.03,4.96-13.02,13.11,0,7.47,5.84,13.07,13.08,13.03,7.24-.04,13.09-5.89,13.08-13.1,0-7.18-5.92-13.03-13.14-13.05Zm2172.89-34.88c-.03,7.3,5.78,13.04,13.05,12.9,7.09-.14,12.7-5.92,12.6-13-.1-7.15-5.75-12.7-12.89-12.66-7.18.03-12.73,5.58-12.76,12.76Zm-639.64,237.86c.04-7.12-5.56-12.77-12.66-12.9-7.12-.14-13.17,5.8-13.01,12.95.16,7.16,5.64,12.66,12.85,12.66,7.16,0,12.78-5.57,12.82-12.71ZM234.36,1383.12c-7.11.06-12.75,5.68-12.76,12.8-.01,7.31,5.78,12.9,13.13,12.81,7.19-.08,12.85-6.2,12.52-12.98.18-6.51-5.44-12.7-12.88-12.64Zm2043.03,189.92c-7.19-.04-12.72,5.53-12.76,12.76-.05,7.9,6.56,12.65,12.41,12.77,7.05.15,12.91-5.54,12.98-12.62.08-7.18-5.49-12.87-12.63-12.91Zm-1343.24,107.62c-.02,7.03,5.35,12.5,12.36,12.6,7.05.1,12.65-5.2,12.84-12.14.19-7.14-5.32-12.95-12.38-13.05-7.13-.1-12.8,5.46-12.82,12.59Zm-379.59-94.78c.06,6.64,5.73,12.39,12.4,12.32,7.84-.08,12.42-6.31,12.52-12.16.12-6.91-5.48-12.71-12.35-12.75-6.82-.04-12.63,5.78-12.57,12.58Zm1568.37,47.52c-.2,5.95,4.03,12.59,12.34,12.69,7.7.1,12.5-6.04,12.49-12.54-.01-6.79-5.52-12.24-12.33-12.28-5.96-.09-12.24,4.3-12.5,12.12Zm-1829.05-190.15c.04-7.2-5.35-12.61-12.33-12.75-6.84-.14-12.57,5.69-12.53,12.57.04,6.74,5.59,12.27,12.34,12.32,6.74.05,12.47-5.39,12.51-12.14Zm416.35,178.25c-6.81-.25-12.45,5.18-12.52,12-.08,6.74,5.05,12.1,11.77,12.33,6.82.23,12.44-5.13,12.57-11.98-.12-7.37-5.55-12.12-11.83-12.35Zm1222.4,58.94c-.14,6.69,5,12.09,11.7,12.28,6.87.19,12.38-5.12,12.41-11.96.02-6.73-5.15-11.98-11.89-12.07-6.72-.09-12.08,5.07-12.21,11.75Zm594.26-189.63c-.01-6.47-5.32-11.78-11.79-11.81-6.63-.03-11.99,5.46-11.85,12.14.14,6.48,5.51,11.7,11.98,11.61,6.43-.08,11.68-5.46,11.66-11.94Zm-1615.3,190.04c.07-6.69-5.25-11.99-11.99-11.94-6.55.05-11.69,5.24-11.68,11.82,0,6.55,5.2,11.73,11.76,11.74,6.57,0,11.85-5.14,11.91-11.62Zm1508.67-153.94c-6.74-.05-12.01,5.23-11.95,11.97.07,6.55,5.27,11.67,11.85,11.66,6.55,0,11.71-5.19,11.73-11.76.02-6.59-5.1-11.81-11.63-11.87Zm-1045.89,189.92c-6.47-.02-11.83,5.31-11.81,11.77.02,6.3,5.15,11.54,11.47,11.7,6.48.16,11.88-5.06,11.96-11.57.08-6.55-5.13-11.88-11.62-11.91Zm107.41,11.54c-.09-6.33-5.28-11.49-11.6-11.54-6.5-.05-11.8,5.22-11.8,11.74,0,6.53,5.29,11.79,11.8,11.74,6.49-.05,11.7-5.41,11.6-11.94Zm-59.59-11.54c-6.35,0-11.51,5.09-11.63,11.47-.12,6.59,4.99,11.93,11.5,12,6.43.08,11.89-5.27,11.93-11.68.03-6.42-5.35-11.81-11.8-11.8Zm95.13.16c-6.81-.12-11.95,5.24-11.85,11.66.12,7.71,6.51,11.56,11.6,11.54,6.31-.02,11.58-5.18,11.66-11.5-.08-5.8-4.34-11.58-11.41-11.71Zm-201.66,11.16c-.23,6.3,4.79,11.75,11.09,12.03,6.5.29,12.01-4.87,12.14-11.38.13-6.34-4.92-11.62-11.29-11.82-6.32-.19-11.71,4.85-11.94,11.17Zm-891.22-177.92c6.27.03,11.43-5.41,11.33-11.67-.1-6.29-5.47-11.6-11.67-11.33-6.72.29-11.26,5.26-11.33,11.67.28,6.83,5.43,11.29,11.67,11.32Zm1129.13,178.03c-.19,7.46,5.74,11.56,10.83,11.8,6.33.3,11.89-4.58,12.12-10.96.24-6.5-4.76-11.79-11.08-11.97-6.39-.26-11.7,4.51-11.87,11.13Zm1092.91-332.42c-.05,6.31,5.17,11.54,11.47,11.48,6.35-.07,11.41-5.33,11.24-11.67-.17-6.24-5.21-11.11-11.43-11.05-6.19.05-11.22,5.08-11.28,11.25Zm-1367.16,321.41c-6.19.04-11.22,5.04-11.28,11.22-.06,6.15,4.92,11.32,11.06,11.48,6.33.16,11.59-4.92,11.64-11.25.06-6.39-5.03-11.48-11.42-11.44Zm-949.4-237.71c-6.1-.37-11.59,4.54-11.91,10.66-.34,6.38,4.58,11.79,10.96,12.03,6.18.23,11.44-4.65,11.71-10.87.26-6.24-4.46-11.43-10.76-11.82Zm1983.92,106.35c.05,6.17,5.08,11.18,11.28,11.23,6.2.05,11.28-4.87,11.42-11.07.14-6.38-4.91-11.59-11.26-11.63-6.32-.04-11.49,5.14-11.44,11.47Zm-120.27,47.74c.02-6.09-4.87-11.06-10.94-11.19-6.21-.14-11.37,4.87-11.44,11.1-.06,6.31,4.84,11.3,11.14,11.33,5.52.27,11.2-4.28,11.23-11.24Zm-201.1,35.91c-6.32.03-11.18,5.01-11.1,11.35.08,6.12,4.94,10.96,11.07,11.01,6.33.05,11.28-4.85,11.27-11.18,0-6.38-4.86-11.21-11.25-11.18Zm-771.19,58.78c-.12,6.29,4.86,11.4,11.09,11.4,6.07,0,10.95-4.92,10.98-11.07.03-6.2-4.73-11.1-10.85-11.16-6.12-.07-11.1,4.75-11.22,10.84Zm390.83-10.84c-6.23-.04-11.2,4.95-11.15,11.21.05,6.04,4.96,10.94,10.98,11.03,5.19.08,11.35-4.29,11.12-11.26-.05-6.13-4.85-10.94-10.95-10.98Zm1008.86-274.11c.2-6.03-4.57-11.16-10.58-11.37-6.05-.21-11.16,4.5-11.42,10.54-.26,6.05,4.51,11.13,10.59,11.3,6.2.17,11.21-4.42,11.41-10.47Zm-1958.89,179.35c-6.1-.05-11.02,4.79-11.04,10.88-.02,6.1,4.82,11.03,10.87,11.07,6.08.04,10.98-4.81,11.03-10.9.05-6.12-4.74-11-10.86-11.05Zm-153.78-36.96c0,6.2,4.73,10.95,10.91,10.93,6.15-.02,10.95-4.81,10.94-10.94-.01-6.07-4.93-11.02-10.95-11.02-6.04,0-10.89,4.9-10.9,11.03Zm343.62,83.98c-6.11-.04-11.01,4.76-11.07,10.84-.06,6.08,4.77,11.01,10.85,11.07,6.15.06,10.96-4.68,11-10.85.04-6.2-4.66-11.02-10.78-11.06Zm-664.88-284.64c-6.06-.25-11.19,4.49-11.37,10.53-.18,5.99,4.75,11.13,10.74,11.2,5.9.08,10.75-4.63,10.9-10.58.15-6.02-4.35-10.91-10.27-11.16Zm1461.95,343.83c.13,5.76,5.34,10.71,11.08,10.51,6.54-.23,10.9-5.55,10.69-11.24-.21-5.83-5.22-10.64-11.01-10.53-6.59.25-10.88,5.72-10.75,11.26Zm-464.68,10.39c5.84.09,10.82-4.73,10.92-10.58.1-5.82-4.72-10.79-10.58-10.9-5.86-.11-10.79,4.67-10.89,10.56-.11,5.86,4.7,10.83,10.56,10.92Zm-939.32-296.31c.01-6-4.82-10.74-10.81-10.61-5.79.12-10.41,4.91-10.33,10.71.08,5.81,4.84,10.48,10.63,10.43,5.84-.05,10.49-4.71,10.51-10.53Zm1461.82,275.1c-5.73.06-10.46,4.96-10.32,10.69.14,5.63,4.78,10.17,10.41,10.19,5.84.02,10.51-4.65,10.48-10.48-.04-5.82-4.75-10.46-10.57-10.4Zm342.99-37.43c-.02-5.8-4.41-10.25-10.14-10.27-5.87-.02-10.47,4.62-10.39,10.48.08,5.68,4.62,10.06,10.4,10.03,5.82-.03,10.16-4.42,10.13-10.24Zm-902.24,47.66c-.12-5.48-4.61-9.95-10.05-10-5.54-.05-10.28,4.66-10.29,10.22,0,5.64,4.6,10.15,10.31,10.09,5.77-.05,10.17-4.57,10.04-10.31Zm617.26.41c.12-5.66-4.3-10.01-9.71-10.28-5.46-.28-10.38,4.59-10.4,10.09-.01,5.45,4.47,9.92,10,9.98,5.62.06,9.99-4.2,10.11-9.78Zm703.36-200.08c-5.6-.1-10.31,4.57-10.25,10.16.06,5.45,4.61,9.95,10.06,9.94,5.51,0,9.95-4.43,9.99-9.95.04-5.52-4.33-10.05-9.8-10.15Zm-1673.34,152.18c.28,6.22,5.08,9.83,10.2,9.73,5.35-.1,9.71-4.55,9.63-9.87-.08-6-4.63-9.8-9.97-10-5.37.05-10.11,4.79-9.87,10.14Zm1435.59-37.26c5.96-.09,9.85-4.9,9.79-10.17-.05-5.3-4.54-9.59-9.89-9.64-5.51-.04-10.01,4.44-9.97,9.94.01,4.57,3.51,9.98,10.06,9.87Zm-1853-114.67c-5.26-.15-9.76,4.14-9.96,9.5-.2,5.44,4.31,10.12,9.75,10.11,5.27-.01,9.75-4.44,9.81-9.7.07-5.25-4.3-9.75-9.61-9.9Zm1985.06,56.95c-.07,5.31,4.6,9.85,9.87,9.62,5.68-.25,9.65-4.32,9.61-9.85-.04-5.45-4.38-9.65-9.84-9.6-5.23.02-9.56,4.04-9.63,9.84Zm210.19-95.04c0-5.25-4.45-9.72-9.71-9.75-5.46-.03-9.97,4.55-9.84,10,.13,5.32,4.56,9.59,9.89,9.53,5.28-.05,9.66-4.5,9.66-9.78Zm-2291.25-9.6c-5.41.01-9.65,4.39-9.54,9.84.11,5.42,4.53,9.58,9.96,9.38,5.21-.19,9.26-4.53,9.15-9.81-.11-5.27-4.34-9.42-9.58-9.41Zm808.22,237.75c-5.41-.06-9.74,4.26-9.7,9.67.04,5.41,4.44,9.65,9.86,9.5,5.26-.15,9.34-4.39,9.29-9.66-.05-5.26-4.22-9.45-9.45-9.51Zm713.08,0c-5.36-.02-9.72,4.41-9.61,9.77.11,5.24,4.34,9.4,9.56,9.41,5.37,0,9.69-4.38,9.6-9.76-.09-5.21-4.33-9.39-9.55-9.41Zm-1179.21-85.32c.02-5.27-4.11-9.38-9.42-9.38-5.32,0-9.42,4.09-9.41,9.38.01,5.3,4.13,9.43,9.41,9.43s9.41-4.16,9.42-9.43Zm1473.28,47.14c.06-5.23-4.15-9.43-9.4-9.4-5.32.03-9.26,4.16-9.13,9.57.12,5.18,4.11,9.04,9.31,8.99,5.07-.05,9.17-4.12,9.23-9.16Zm-1633.87-95.02c0,5.28,3.88,9.16,9.15,9.18,5.38.02,9.5-4.15,9.35-9.45-.14-5.06-4.38-9.14-9.42-9.08-5.1.06-9.08,4.17-9.08,9.35Zm2242.19-198.88c-4.88-.16-9.05,3.75-9.25,8.68-.21,5.05,3.89,9.37,8.93,9.43,4.79.06,8.98-4.05,9.08-8.91.1-4.87-3.88-9.04-8.76-9.2Zm-1662.95,332.86c-4.77.16-8.62,4.19-8.55,8.94.08,4.73,4.07,8.69,8.79,8.73,4.95.03,8.95-4.01,8.89-8.97-.06-5-4.12-8.86-9.14-8.69Zm1235.11-94.75c-4.85,0-8.58,3.83-8.68,8.66-.09,4.32,3.77,8.75,8.69,8.67,4.9-.08,8.61-3.74,8.62-8.68,0-4.88-3.76-8.66-8.63-8.65Zm380.55-190.7c-4.84,0-8.64,3.79-8.66,8.65-.02,4.87,3.75,8.63,8.64,8.63,4.92,0,8.64-3.71,8.64-8.61,0-4.89-3.75-8.66-8.62-8.67Zm-1892.38,246.49c.05-4.79-3.91-8.69-8.75-8.61-4.72.08-8.29,3.8-8.26,8.6.03,4.77,3.7,8.42,8.45,8.41,4.66,0,8.5-3.79,8.56-8.4Zm1092.71,44.23c-.88-2.06-2.31-3.61-4.3-4.61-3.86-1.93-8.64-.88-11.29,2.44-2.79,3.51-2.68,7.68.31,11.29,5.03-1.13,10.29-.91,15.39-2.6.9-3.35.85-4.3-.1-6.53Zm561.92-147.25c-4.53.02-8.16,3.79-8,8.31.15,4.33,3.87,7.83,8.2,7.71,4.33-.12,7.9-3.82,7.84-8.11-.07-4.36-3.69-7.93-8.04-7.91Zm-1425.34,142.79c-4.47-.08-8.24,3.7-8.14,8.17.1,4.37,3.72,7.88,8.07,7.83,4.34-.05,7.93-3.64,7.94-7.96.01-4.31-3.56-7.96-7.87-8.04Zm1528.25-181.8c.02-4.64-3.61-8.15-8.25-8-4.45.14-7.83,3.71-7.72,8.15.1,4.44,3.64,7.87,8.07,7.83,4.46-.05,7.89-3.5,7.91-7.97Zm-1955.64,87.15c-4.53-.16-8.08,3.18-8.13,7.64-.04,4.25,3.28,7.78,7.48,7.95,4.43.17,8.01-3.23,8.09-7.7.08-4.38-3.09-7.73-7.44-7.88Zm-135.65-40.17c-.02-4.1-3.3-7.36-7.41-7.38-4.22-.02-7.78,3.56-7.61,7.66.16,3.96,3.7,7.28,7.69,7.21,4.07-.07,7.36-3.43,7.33-7.49Zm2178.46-102.33c-4.09-.12-7.47,3.02-7.64,7.11-.17,4.26,3.16,7.78,7.38,7.79,4.01,0,7.43-3.33,7.51-7.34.08-4.01-3.22-7.45-7.25-7.57Zm-2278.5,61.95c.91.64,2.03.45,2.94-.39,2.47-2.29,3.48-5.07,2.59-8.33-.88-3.23-3.05-5.31-6.38-5.94-3.15-.6-5.86.38-7.82,2.92-.86,1.12-1.3,2.57-2.06,4.12,3.49,3.24,7.28,5.2,10.72,7.63Zm385.2,135.32c-.01-3.86-2.92-6.9-6.74-7.03-4-.14-7.22,2.86-7.33,6.85-.12,3.99,2.94,7.17,6.94,7.22,4.02.05,7.14-3.03,7.13-7.03Zm230.04,40.85c-3.97-.13-7.23,3.05-7.23,7.04,0,4.02,3.22,7.15,7.24,7.02,3.88-.12,6.83-3.16,6.83-7.03,0-3.87-2.96-6.91-6.84-7.03Zm1184.2-39.5c3.36-.73,6.56-2.11,10.06-2.33.8-.05,1.56-.85,2.32-1.3-2.22-5.09-6.07-7.24-10.5-5.95-2.14.62-3.84,1.92-4.97,3.83-1.04,1.75-1.59,3.64-.86,5.65,2.42.53,2.4.44,3.96.1Zm-1605.96-48.65c-.13-3.24-2.77-5.73-6.05-5.7-3.44.03-6.03,2.77-5.89,6.23.13,3.25,2.78,5.78,6.02,5.74,3.39-.04,6.06-2.87,5.92-6.27Zm2227.97-243.44c-3.47-.2-6.24,2.34-6.31,5.81-.07,3.34,2.33,6.03,5.55,6.21,3.31.19,6.29-2.54,6.4-5.85.11-3.17-2.46-5.98-5.64-6.17Zm-48.03,47.08c-3.42-.12-6.2,2.52-6.22,5.92-.03,3.4,2.7,6.03,6.16,5.95,3.3-.08,5.78-2.59,5.79-5.89.01-3.27-2.46-5.86-5.73-5.98Zm-1805.01,285.64c-3.49-.2-6.23,2.28-6.33,5.71-.09,3.32,2.28,5.94,5.54,6.12,3.46.19,6.24-2.32,6.36-5.73.11-3.26-2.32-5.92-5.57-6.11Zm-238.01-47.51c-3.03-.06-5.65,2.5-5.66,5.53-.01,2.87,2.35,5.35,5.25,5.53,3.05.18,5.71-2.26,5.81-5.32.1-3.07-2.36-5.67-5.41-5.73Zm670.78,101.84c.13-.37.2-.78.22-1.18.09-3.36-2.83-6.18-6.17-5.97-3.17.2-5.75,3.15-5.48,6.25.16,1.79.99,2.69,2.76,2.74,2.53.07,5.06.02,7.81.02.42-.91.68-1.37.86-1.86Zm-53.29,2.86c.4,0,.8.02,1.21,0,2.09-.11,3.2-1.01,3.66-3,.5-2.18-.2-3.97-1.87-5.38-1.43-1.21-3.99-1.42-5.69-.47-1.8,1-2.67,2.59-2.64,4.63.04,2.63,1.4,4.57,4.12,4.23.4-.05.8,0,1.2,0h0Zm97.96-9.28c-2.18-1.38-5.24-1.26-7.07.49-.83.79-1.5,1.89-1.9,2.97-.46,1.24-.52,2.62.75,3.96,3.37-.01,6.92.41,10.41-.29.76-3.64.1-5.69-2.18-7.14Zm-525.52-46.95c-2.81-.11-5.13,2.13-5.13,4.96,0,2.71,2.03,4.81,4.74,4.91,2.86.1,5.14-2.08,5.14-4.92,0-2.65-2.11-4.84-4.75-4.94Zm1039.34,3.3c.65-.06,1.29-.25,1.94-.38.78-.16,1.55-.36,2.33-.46,2.63-.32,5.28-.59,7.91-.92,1.01-.13,1.38-1.35.69-2.17-4.55-5.44-12.94-3.19-14.68,2.59-.1.32.09.72.16,1.19.61.06,1.13.18,1.65.14Zm-463.16,48.81c.43-1.92-.54-3.35-1.76-4.63-1.17-1.24-2.72-1.67-4.38-1.66-1.67.02-3.16.58-4.33,1.8-1.26,1.32-1.89,2.84-1.47,4.67,4.03.68,9.2.6,11.95-.18Zm-195.97,3.12c.8,0,1.59.04,2.39,0,1.6-.1,2.43-.86,2.64-2.39.3-2.19-.5-3.91-2.35-5.09-1.58-1.01-3.27-1.07-4.9-.13-1.9,1.09-2.79,2.76-2.58,4.98.17,1.78.95,2.52,2.82,2.65.66.04,1.33,0,1.99,0h0Zm-45.51-6.98c-1.54-1-3.84-.84-5.17.53-.62.64-1.12,1.51-1.35,2.37-.27,1.01-.28,2.14.83,3.04,2.25.39,4.62.41,7.19-.07.81-3.24.41-4.62-1.5-5.86Zm1143.01-142.8c.15-.05.18-.44.37-.94-1.97-1.78-4.3-2.4-6.9-1.64-2.75.8-4.61,2.53-5.22,5.83,4.45-.3,8.05-1.97,11.75-3.25Zm-854.05,144.19c-1.2-2.89-3.22-4.34-5.9-4.14-1.49.11-2.86.64-3.97,1.65-.76.69-1.64,1.38-1.32,2.64,3.57.68,8.48.61,11.2-.15Zm-670.7-48.29c-2.2-.11-3.85,1.43-3.86,3.59,0,2,1.44,3.52,3.44,3.63,2.13.12,3.86-1.5,3.87-3.61,0-1.98-1.45-3.51-3.45-3.61Zm1759.27-192.29c-1.62-.34-3.17-.14-4.61.74-2.34,1.43-3.19,3.66-2.12,6.08,3.35-1.18,6.38-3,9.51-4.68-.46-1.59-1.62-1.9-2.78-2.14Zm-1946.75,146.98c-.91-2.81-3.82-3.51-6.06-1.5-.67.6-.62,1.74.22,1.99,1.85.55,3.49,2.02,5.86,1.35,0-.59.16-1.27-.03-1.84Zm523.57,95.59c.27-1.54-.47-2.35-1.38-2.89-.76-.45-1.73-.85-2.57-.79-.85.06-1.74.61-2.45,1.16-.73.56-1.26,1.38-.81,2.56,2.4.35,4.83.42,7.22-.04Zm371.66-3.96c1.33-.3,2.3-.61,3.3-.71,1.18-.11,2.37-.03,4.51-.03-3.49-2.31-5.33-2.04-7.8.73Zm951.82-190.04c.95-.16,1.9-.26,2.4-1.41q-2.01.17-2.4,1.41Zm-1374.65,191.29c-.11-.06-.23-.18-.32-.16-.19.04-.37.16-.55.25.11.06.21.12.32.18.18-.09.37-.17.55-.26Z"/>
      <path class="cls-13" d="m2851.01,1391.3H53.87c-7.75,0-14.02-6.28-14.02-14.02h0c0-7.75,6.28-14.02,14.02-14.02h2797.14c7.75,0,14.02,6.28,14.02,14.02h0c0,7.75-6.28,14.02-14.02,14.02Z"/>
      <g>
        <path class="cls-11" d="m1519.13,4.22h299.69c8.78,0,15.91,7.13,15.91,15.91v104.78c0,8.78-7.13,15.91-15.91,15.91h-299.69c-8.78,0-15.91-7.13-15.91-15.91V20.13c0-8.78,7.13-15.91,15.91-15.91Z"/>
        <path class="cls-11" d="m1543.26,120.22v75.37l86.85-86.85s-85.08,11.48-86.85,11.48Z"/>
        <rect class="cls-12" x="1520.37" y="17.76" width="297.22" height="109.52" rx="13.49" ry="13.49"/>
        <path class="cls-11" d="m1682.22,44.85h-134.25c-3.24,0-5.89-2.65-5.89-5.89s2.65-5.89,5.89-5.89h134.25c3.24,0,5.89,2.65,5.89,5.89s-2.65,5.89-5.89,5.89Z"/>
        <path class="cls-11" d="m1794.33,67.36h-248.94c-1.82,0-3.31-1.49-3.31-3.31h0c0-1.82,1.49-3.31,3.31-3.31h248.94c1.82,0,3.31,1.49,3.31,3.31h0c0,1.82-1.49,3.31-3.31,3.31Z"/>
        <path class="cls-11" d="m1794.33,80.18h-248.94c-1.82,0-3.31-1.49-3.31-3.31h0c0-1.82,1.49-3.31,3.31-3.31h248.94c1.82,0,3.31,1.49,3.31,3.31h0c0,1.82-1.49,3.31-3.31,3.31Z"/>
        <g>
          <path class="cls-11" d="m1735.13,109.62h7.37c1.94,0,3.51,1.57,3.51,3.51v5.93c0,1.94-1.57,3.51-3.51,3.51h-7.37c-1.94,0-3.51-1.57-3.51-3.51v-5.93c0-1.94,1.57-3.51,3.51-3.51Z"/>
          <path class="cls-11" d="m1761.3,109.62h7.37c1.94,0,3.51,1.57,3.51,3.51v5.93c0,1.94-1.57,3.51-3.51,3.51h-7.37c-1.94,0-3.51-1.57-3.51-3.51v-5.93c0-1.94,1.57-3.51,3.51-3.51Z"/>
          <path class="cls-11" d="m1787.47,109.62h7.37c1.94,0,3.51,1.57,3.51,3.51v5.93c0,1.94-1.57,3.51-3.51,3.51h-7.37c-1.94,0-3.51-1.57-3.51-3.51v-5.93c0-1.94,1.57-3.51,3.51-3.51Z"/>
        </g>
      </g>
      <g>
        <path class="cls-14" d="m1122.14,1364.97h-513.03c0-18.18,14.74-32.92,32.92-32.92h480.11v32.92Z"/>
        <path class="cls-14" d="m1122.75,1364.97h-274.03l116.37-256.01c3.4-7.47,10.84-12.27,19.05-12.27h247.86c5.94,0,9.9,6.14,7.44,11.55l-116.69,256.72Z"/>
        <path class="cls-16" d="m1232.01,1096.69h-226.26c-8.21,0-15.65,4.8-19.05,12.27l-116.37,256.01h252.42l116.69-256.72c2.46-5.41-1.5-11.55-7.44-11.55Z"/>
        <path class="cls-17" d="m1102.24,1239.22c-9.59,19.88-25.16,32.23-34.76,27.6-9.61-4.64-9.62-24.51-.03-44.39,9.59-19.88,25.16-32.23,34.76-27.6,9.61,4.64,9.62,24.51.03,44.39Z"/>
      </g>
      <g>
        <path class="cls-20" d="m578.77,723.56s-23.28,118.85-49.01,139.68c-25.73,20.83,59.22,121.27,88.62,95.54,29.41-25.73,2.05-82.06,2.05-82.06,0,0-15.93-9.8,11.03-72.29,26.96-62.49-45.61-109.05-45.61-109.05l-7.08,28.18Z"/>
        <path class="cls-1" d="m585.84,695.37l-7.08,28.18s-3.24,16.54-8.63,38.35c10.06,46.93,28.86,77.46,45.68,96.86.49-10.82,4.21-27.84,15.64-54.34,26.96-62.49-45.61-109.05-45.61-109.05Z"/>
        <path class="cls-20" d="m725.98,768.8c-15.64,43.15-53.88,77.78-78.15,69.79-39.66-13.06-68.53-44.05-61.71-112.58,8.03-80.7,70.13-89.96,106.6-79.64,36.47,10.31,50.57,74.69,33.26,122.44Z"/>
        <path class="cls-2" d="m524.97,863.06l-37.51,14.69,59.13,75.78-16.87,30.2s60.89,45.72,79.4,134.3c18.51,88.59,16.49,164.06,16.49,164.06,0,0,4.54-179.66-4.42-214-17.39-66.61-96.22-205.03-96.22-205.03Z"/>
        <path class="cls-2" d="m620.87,877.75s46.81,120.18,54.23,153.99c7.43,33.82,8.93,199.09,8.93,199.09,0,0,21.52-144.09,15.31-186.72-6.22-42.63-15.1-81.15-15.1-81.15l-28.42-20.98s-5.37-57.15-8.39-57.89c-3.02-.74-26.56-6.34-26.56-6.34Z"/>
        <path class="cls-20" d="m593.55,1318.37c91.05-27.59,80.01-41.39,113.12-25.75,33.11,15.63,74.6,26.25,55.18,31.27-19.42,5.02-48.74-11.04-48.74-11.04,0,0,4.6,24.83-11.96,32.19-16.55,7.36-90.06,10.03-131.02-1.42-40.96-11.45,23.42-25.25,23.42-25.25Z"/>
        <path class="cls-6" d="m590.99,1314.09h18.12l-9.06,51.48s-35.7-5.3-33.04-8.85c2.66-3.55,23.98-42.63,23.98-42.63Z"/>
        <path class="cls-15" d="m418.7,904.68c-35.52,62.17-46.79,96.07-75.75,212.41-28.95,116.34-40.59,169.28-8.62,184.57,26.46,12.65,219.08,70.42,242.45,63.31,10.66.6,27.01-54.43,27.01-54.43l-175.33-78.15s50.74-121.14,59.5-200.71c8.76-79.57-30.2-127-49.73-127h-19.54Z"/>
        <path class="cls-20" d="m602.78,731.38c-8.58,26.93-4.9,32.42-16.77,34.94-11.87,2.52-22.72-9.27-26.23-25.82-3.51-16.55,3.27-32.01,15.15-34.53,11.87-2.52,32.99,9.29,27.86,25.41Z"/>
        <path class="cls-4" d="m742.35,682.35c-46.47,82.59-138.78,70.46-194.88,42.04-45.73-23.17,130.48-110.93,130.48-110.93l64.41,68.89Z"/>
        <path class="cls-4" d="m590.99,613.46c-17.22-51.95-87.8-39.67-119.78,29.45-31.98,69.12,16.96,115.34,46.61,98.41,29.66-16.93,73.17-127.86,73.17-127.86Z"/>
      </g>
      <g>
        <path class="cls-7" d="m1585.46,522.9c5.71-20.47,9.86-41.58,12.37-63.2l-65.24-29.37c.33-6.18.51-12.41.51-18.67,0-17.38-1.3-34.45-3.77-51.14l62.2-35.39c-4.52-21.23-10.67-41.85-18.31-61.73l-71.42,4.32c-9.79-21.35-21.69-41.52-35.43-60.27l38.61-60.21c-13.77-16.53-28.81-31.95-44.96-46.15l-61.21,37c-18.38-14.24-38.24-26.66-59.3-37l6.2-71.29c-19.68-8.18-40.14-14.87-61.22-19.95l-37.02,61.23c-19.55-3.43-39.66-5.23-60.18-5.23-3.19,0-6.36.05-9.52.14L1150.13,0c-21.7,1.93-42.91,5.53-63.51,10.69l-4.32,71.4c-22.46,7.15-43.92,16.53-64.13,27.88l-55.12-45.58c-18.09,11.71-35.2,24.79-51.2,39.1l29.35,65.23c-16.37,16.58-31.07,34.8-43.85,54.41l-70.03-14.75c-10.53,18.6-19.65,38.1-27.24,58.35l56.32,44.13c-6.7,22.02-11.26,44.97-13.44,68.61l-68.82,19.47c-.13,4.23-.21,8.48-.21,12.74,0,17.48,1.1,34.7,3.2,51.6l70.36,12.9c4.39,23.25,11.1,45.68,19.89,67.04l-51.91,49.24c9.45,19.41,20.39,37.95,32.64,55.51l68.31-21.28c14.53,18.28,30.87,35.05,48.75,50.05l-23.08,67.73c17.24,12.72,35.5,24.13,54.64,34.1l50.58-50.58c21.13,9.37,43.38,16.67,66.49,21.67l11.03,70.68c20.36,3.09,41.21,4.69,62.44,4.69.6,0,1.2-.02,1.81-.02l21.29-68.29c23.71-1.56,46.76-5.51,68.93-11.62l42.63,57.48c20.46-7.04,40.18-15.66,59.04-25.68l-12.89-70.39c19.95-12.26,38.54-26.48,55.54-42.41l64.44,31.07c14.73-15.62,28.25-32.39,40.43-50.16l-44.1-56.3c11.89-19.91,21.83-41.12,29.57-63.36l71.51-2.43Zm-398.18,58.85c-93.94,0-170.09-76.15-170.09-170.09s76.15-170.09,170.09-170.09,170.08,76.15,170.08,170.09-76.15,170.09-170.08,170.09Z"/>
        <path class="cls-12" d="m946.41,597.01c-1.36,0-2.7-.62-3.57-1.79-9.68-13.02-18.38-26.9-25.87-41.24-1.13-2.17-.29-4.86,1.88-5.99,2.17-1.13,4.86-.29,5.99,1.88,7.27,13.93,15.72,27.41,25.12,40.05,1.46,1.97,1.05,4.75-.92,6.21-.79.59-1.72.88-2.65.88Z"/>
        <path class="cls-12" d="m1150.34,717.05c-.19,0-.39-.01-.58-.04-53.27-6.98-104.03-28-146.79-60.78-1.95-1.49-2.32-4.28-.82-6.23,1.49-1.95,4.28-2.32,6.23-.82,41.53,31.83,90.82,52.24,142.54,59.02,2.43.32,4.14,2.55,3.83,4.98-.29,2.24-2.2,3.86-4.4,3.86Z"/>
      </g>
      <g>
        <rect class="cls-11" x="1193.02" y="206.3" width="807.38" height="447.93"/>
        <rect class="cls-12" x="1201.9" y="216.07" width="775.41" height="407.97"/>
        <g class="cls-23">
          <path class="cls-11" d="m1949.54,592.02h-735.38c-.98,0-1.78-.8-1.78-1.78V221.83c0-.98.79-1.78,1.78-1.78h735.38c.98,0,1.78.8,1.78,1.78v368.41c0,.98-.79,1.78-1.78,1.78Zm-733.6-3.55h731.82V223.61h-731.82v364.86Z"/>
          <path class="cls-11" d="m1949.54,530.62h-735.38c-.98,0-1.78-.8-1.78-1.78s.79-1.78,1.78-1.78h735.38c.98,0,1.78.8,1.78,1.78s-.79,1.78-1.78,1.78Z"/>
          <path class="cls-11" d="m1949.54,469.22h-735.38c-.98,0-1.78-.79-1.78-1.78s.79-1.78,1.78-1.78h735.38c.98,0,1.78.8,1.78,1.78s-.79,1.78-1.78,1.78Z"/>
          <path class="cls-11" d="m1949.54,407.81h-735.38c-.98,0-1.78-.8-1.78-1.78s.79-1.78,1.78-1.78h735.38c.98,0,1.78.79,1.78,1.78s-.79,1.78-1.78,1.78Z"/>
          <path class="cls-11" d="m1949.54,346.41h-735.38c-.98,0-1.78-.8-1.78-1.78s.79-1.78,1.78-1.78h735.38c.98,0,1.78.79,1.78,1.78s-.79,1.78-1.78,1.78Z"/>
          <path class="cls-11" d="m1949.54,285.01h-735.38c-.98,0-1.78-.8-1.78-1.78s.79-1.78,1.78-1.78h735.38c.98,0,1.78.8,1.78,1.78s-.79,1.78-1.78,1.78Z"/>
          <path class="cls-11" d="m1826.98,592.02c-.98,0-1.78-.8-1.78-1.78V221.83c0-.98.79-1.78,1.78-1.78s1.78.8,1.78,1.78v368.41c0,.98-.8,1.78-1.78,1.78Z"/>
          <path class="cls-11" d="m1704.41,592.02c-.98,0-1.78-.8-1.78-1.78V221.83c0-.98.79-1.78,1.78-1.78s1.78.8,1.78,1.78v368.41c0,.98-.79,1.78-1.78,1.78Z"/>
          <path class="cls-11" d="m1581.85,592.02c-.98,0-1.78-.8-1.78-1.78V221.83c0-.98.79-1.78,1.78-1.78s1.78.8,1.78,1.78v368.41c0,.98-.79,1.78-1.78,1.78Z"/>
          <path class="cls-11" d="m1459.29,592.02c-.98,0-1.78-.8-1.78-1.78V221.83c0-.98.79-1.78,1.78-1.78s1.78.8,1.78,1.78v368.41c0,.98-.79,1.78-1.78,1.78Z"/>
          <path class="cls-11" d="m1336.73,592.02c-.98,0-1.78-.8-1.78-1.78V221.83c0-.98.79-1.78,1.78-1.78s1.78.8,1.78,1.78v368.41c0,.98-.79,1.78-1.78,1.78Z"/>
        </g>
        <path class="cls-5" d="m1214.17,593.8c-1.3,0-2.56-.72-3.18-1.96-.88-1.75-.17-3.89,1.58-4.77l122.08-61.16,62.96-60.58,58.47-122.22c.2-.43.49-.81.84-1.12l66.47-59.22c.84-.75,1.98-1.05,3.08-.83,1.1.23,2.03.96,2.5,1.98l56.04,120.5,66.58,118.3,50.14-57.6c.65-.74,1.58-1.19,2.56-1.22,1.01-.05,1.94.35,2.64,1.04l57.05,57.32,59.62-178.74c.17-.52.47-1,.86-1.39l122.56-122.8c1.39-1.39,3.64-1.39,5.02,0,1.39,1.39,1.39,3.64,0,5.02l-121.97,122.21-61.18,183.41c-.39,1.17-1.36,2.05-2.56,2.33-1.2.28-2.46-.08-3.33-.95l-58.42-58.7-50.94,58.52c-.76.87-1.89,1.32-3.04,1.2-1.15-.12-2.17-.79-2.73-1.79l-69.12-122.8c-.04-.08-.09-.16-.13-.24l-54.08-116.29-62.36,55.57-58.44,122.16c-.18.38-.43.73-.74,1.03l-63.81,61.4c-.26.25-.55.46-.87.62l-122.56,61.4c-.51.26-1.05.38-1.59.38Z"/>
        <path class="cls-11" d="m1214.16,593.8c-.9,0-1.79-.34-2.48-1.01-1.41-1.37-1.43-3.62-.06-5.02l179.71-184.21c1.35-1.38,3.56-1.43,4.97-.11l62.9,59.04,120.13-120.37c1.37-1.37,3.58-1.39,4.98-.05l61.22,58.93,56.31-58.83c.66-.69,1.57-1.09,2.53-1.1.93,0,1.88.37,2.55,1.04l119.07,119.31,120.36-241.19c.88-1.76,3.01-2.47,4.76-1.59,1.76.88,2.47,3.01,1.59,4.77l-122.56,245.61c-.51,1.02-1.48,1.74-2.61,1.92-1.13.19-2.28-.19-3.08-1l-120-120.23-56.26,58.78c-.65.68-1.55,1.08-2.49,1.1-.93.02-1.86-.34-2.54-.99l-61.28-58.98-120.1,120.33c-1.36,1.36-3.55,1.4-4.95.08l-62.87-59.02-177.28,181.71c-.7.71-1.62,1.07-2.54,1.07Z"/>
      </g>
      <g>
        <path class="cls-11" d="m1010.54,28.63h257.58c5.45,0,9.87,4.42,9.87,9.87v330.05c0,36.04-29.26,65.3-65.3,65.3h-212.01V38.5c0-5.45,4.42-9.87,9.87-9.87Z"/>
        <path class="cls-12" d="m1013.17,35.49h246.11c5.17,0,9.37,4.2,9.37,9.37v315.74c0,34.24-27.8,62.03-62.03,62.03h-202.82V44.86c0-5.17,4.2-9.37,9.37-9.37Z"/>
        <path class="cls-11" d="m1159.66,343.2v-6.98c0-5.51-3.86-9.97-8.62-9.97h-265.61c-4.76,0-8.62,4.46-8.62,9.97v6.98c0,49.49,34.66,89.61,77.42,89.61h271.39c-42.76,0-66.55-35.61-65.96-89.61Z"/>
        <path class="cls-12" d="m1153.13,350.13v-5.65c0-4.46-3.61-8.07-8.07-8.07h-248.72c-4.46,0-8.07,3.61-8.07,8.07v5.65c0,40.04,32.46,72.5,72.5,72.5h264.85c-40.04,0-72.5-19.38-72.5-72.5Z"/>
        <path class="cls-11" d="m1240.85,197.01h-189.18c-5.99,0-10.86-4.87-10.86-10.86v-102.78c0-5.99,4.87-10.86,10.86-10.86h189.18c5.99,0,10.86,4.87,10.86,10.86v102.78c0,5.99-4.87,10.86-10.86,10.86Zm-189.18-120.94c-4.03,0-7.3,3.28-7.3,7.3v102.78c0,4.03,3.28,7.3,7.3,7.3h189.18c4.03,0,7.3-3.28,7.3-7.3v-102.78c0-4.03-3.28-7.3-7.3-7.3h-189.18Z"/>
        <path class="cls-11" d="m1177.96,246.9h-207.95c-2.96,0-5.37-2.42-5.37-5.37s2.42-5.37,5.37-5.37h207.95c2.96,0,5.37,2.42,5.37,5.37s-2.42,5.37-5.37,5.37Z"/>
        <path class="cls-11" d="m1177.96,266.5h-207.95c-2.96,0-5.37-2.42-5.37-5.37s2.42-5.37,5.37-5.37h207.95c2.96,0,5.37,2.42,5.37,5.37s-2.42,5.37-5.37,5.37Z"/>
        <path class="cls-11" d="m1177.96,285.42h-207.95c-2.96,0-5.37-2.42-5.37-5.37s2.42-5.37,5.37-5.37h207.95c2.96,0,5.37,2.42,5.37,5.37s-2.42,5.37-5.37,5.37Z"/>
        <g>
          <rect class="cls-11" x="1179.6" y="88.87" width="12.26" height="11.04" rx="2.99" ry="2.99"/>
          <rect class="cls-11" x="1201.9" y="88.87" width="12.26" height="11.04" rx="2.99" ry="2.99"/>
          <rect class="cls-11" x="1224.2" y="88.87" width="12.26" height="11.04" rx="2.99" ry="2.99"/>
        </g>
        <rect class="cls-11" x="1061.5" y="134.76" width="28" height="46.23"/>
        <rect class="cls-11" x="1138.69" y="138.61" width="28" height="42.38"/>
        <rect class="cls-11" x="1183.34" y="119.69" width="28" height="61.29"/>
        <rect class="cls-11" x="1099.34" y="152.99" width="28" height="28"/>
      </g>
      <g>
        <path class="cls-11" d="m2735.74,487.48h99.68c0,54.68-45,99.68-99.68,99.68s-99.68-45-99.68-99.68,45-99.68,99.68-99.68v99.68Z"/>
        <g>
          <path class="cls-5" d="m2852.11,473.52c0-55.05-44.63-99.68-99.68-99.68v99.68h99.68Z"/>
          <path class="cls-5" d="m2652.76,473.52c0,55.05,44.63,99.68,99.68,99.68-54.68,0-99.68-45-99.68-99.68Z"/>
          <path class="cls-5" d="m2752.44,373.85c-55.05,0-99.68,44.63-99.68,99.68,0-54.68,45-99.68,99.68-99.68Z"/>
          <path class="cls-5" d="m2752.44,573.2c55.05,0,99.68-44.63,99.68-99.68,0,54.68-45,99.68-99.68,99.68Z"/>
        </g>
      </g>
      <path class="cls-5" d="m1534.59,285.42c0-4.88-3.96-8.84-8.84-8.84s-8.84,3.96-8.84,8.84,3.96,8.84,8.84,8.84,8.84-3.96,8.84-8.84Z"/>
      <circle class="cls-11" cx="1394.32" cy="406.04" r="8.84"/>
      <path class="cls-11" d="m1590.69,344.64c0-4.88-3.96-8.84-8.84-8.84s-8.84,3.96-8.84,8.84,3.96,8.84,8.84,8.84,8.84-3.96,8.84-8.84Z"/>
      <path class="cls-11" d="m1713.25,344.64c0-4.88-3.96-8.84-8.84-8.84s-8.84,3.96-8.84,8.84,3.96,8.84,8.84,8.84,8.84-3.96,8.84-8.84Z"/>
      <path class="cls-5" d="m1835.81,344.64c0-4.88-3.96-8.84-8.84-8.84s-8.84,3.96-8.84,8.84,3.96,8.84,8.84,8.84,8.84-3.96,8.84-8.84Z"/>
      <g>
        <circle class="cls-8" cx="935.15" cy="432.81" r="47.69" transform="translate(366.21 1291.96) rotate(-81.32)"/>
        <path class="cls-12" d="m930.42,449.46s-.07,0-.1,0c-.73-.03-1.42-.35-1.9-.9l-12.95-14.72c-.97-1.11-.87-2.79.24-3.76,1.1-.97,2.79-.86,3.76.24l11.1,12.61,25.67-25.12c1.05-1.03,2.74-1.01,3.77.04,1.03,1.05,1.01,2.74-.04,3.77l-27.67,27.09c-.5.49-1.17.76-1.86.76Z"/>
      </g>
      <g>
        <rect class="cls-11" x="261.29" y="145.63" width="31.75" height="173.19"/>
        <rect class="cls-11" x="395.83" y="196.02" width="31.75" height="122.8"/>
        <rect class="cls-11" x="463.1" y="145.63" width="31.75" height="173.19"/>
        <rect class="cls-11" x="530.37" y="257.42" width="31.75" height="61.4"/>
        <rect class="cls-11" x="328.56" y="92.91" width="31.75" height="225.91"/>
        <rect class="cls-11" x="597.87" y="196.02" width="31.75" height="122.8"/>
      </g>
      <g>
        <rect class="cls-11" x="2214.63" y="161.31" width="31.75" height="91.86"/>
        <rect class="cls-11" x="2621.54" y="191.19" width="31.75" height="61.97"/>
        <rect class="cls-11" x="2349.17" y="38.24" width="31.75" height="214.92"/>
        <rect class="cls-11" x="2416.44" y="156.56" width="31.75" height="96.6"/>
        <rect class="cls-11" x="2483.71" y="129.22" width="31.75" height="123.95"/>
        <rect class="cls-11" x="2281.9" y="100.66" width="31.75" height="152.51"/>
        <rect class="cls-11" x="2551.21" y="65.33" width="31.75" height="187.84"/>
      </g>
      <g class="cls-24">
        <path class="cls-6" d="m274.22,685.12l-114.17-69.82-20.65,132.22c53.63,8.45,106.83-16.68,134.82-62.41Z"/>
        <path class="cls-8" d="m274.34,684.96c.31-.5.71-1.2.69-1.17,24.11-40.39,25.09-90.56,2.96-131.74-40.4,21.17-16.34,8.31-117.95,63.25,114.36,69.93,96.6,59.15,114.29,69.66Z"/>
        <path class="cls-11" d="m34.55,569.06l125.5,46.24,117.73-63.66c-55.07-101.84-203.3-89.63-243.23,17.42Z"/>
        <path class="cls-5" d="m139.4,747.52l20.65-132.22-125.5-46.24c-29.84,80.01,23.13,165.58,104.85,178.47Z"/>
        <path class="cls-3" d="m280.26,683.61c22.69-39.88,23.98-89.12,3.46-130.13l.07-.04-2.11-3.91c-.04-.08-.09-.16-.13-.23l-1.73-3.21-.07.03c-13.32-23.15-32.32-41.61-55.16-53.51-22.37-11.66-47.81-16.87-73.56-15.08-53.66,3.73-98.87,36.49-119.03,85.87l-.07-.03-1.55,4.14-1.56,4.18.07.03c-12.62,37.48-8.44,78.34,11.7,112.82,20.47,35.05,54.46,59.13,93.73,66.62v.08s4.36.69,4.36.69c0,0,4.4.69,4.4.69v-.08c5.69.71,11.38,1.07,17.06,1.07,19.97,0,39.75-4.37,58.14-12.93,23.55-10.96,43.33-28.1,57.46-49.7l.09.05.87-1.42s1.42-2.32,1.42-2.32c.22-.36.48-.8.63-1.05l.09-.16s.05-.08.07-.12l1.41-2.3-.06-.04Zm-13.39-120.72c2.63-1.38,5.64-2.95,9.22-4.83,18.82,38.13,17.59,83.75-3.33,120.8,0,0-.85-.5-.85-.5-4.66-2.76-6.69-3.96-15.99-9.63l-86.98-53.19,72.21-39.04c10.6-5.71,14.95-7.98,25.72-13.61Zm-226.54,3.57c18.92-46.06,61.18-76.59,111.31-80.07,49.53-3.44,95.12,20.8,120.05,63.5l-34.77,18.8c-7.18,3.86-17.21,9.29-34.02,18.38-10.76,5.82-24.31,13.15-41.66,22.53l-1.07.58-3.5-2.14-.19,1.22-54.99-20.26-61.18-22.54Zm7.94,113.59c-18.79-32.17-22.74-70.29-11.04-105.27l82.67,30.46,35.2,12.97-19.39,124.16c-36.62-7.07-68.31-29.59-87.43-62.32Zm96.21,63.71l18.93-121.19,49.26,30.13c19.86,12.15,31.22,19.1,38.37,23.46l17.01,10.4c-27.13,41.14-74.79,63.2-123.57,57.21Z"/>
      </g>
      <circle class="cls-11" cx="39.85" cy="902.9" r="39.85" transform="translate(-863.84 916.28) rotate(-88.32)"/>
      <path class="cls-12" d="m69.18,904.68c0,11.04-8.95,19.99-19.99,19.99s-19.99-8.95-19.99-19.99,8.95-19.99,19.99-19.99,19.99,8.95,19.99,19.99Z"/>
      <path class="cls-11" d="m2674.21,750.81h92.3c16.35,0,29.63,13.28,29.63,29.63v92.3c0,16.35-13.27,29.63-29.63,29.63h-92.3c-16.35,0-29.63-13.28-29.63-29.63v-92.3c0-16.35,13.27-29.63,29.63-29.63Z"/>
      <path class="cls-12" d="m2815.92,930.01h-98.93c-16.96,0-30.75-13.79-30.75-30.75v-98.93c0-16.96,13.79-30.75,30.75-30.75h98.93c16.96,0,30.75,13.8,30.75,30.75v98.93c0,16.96-13.79,30.75-30.75,30.75Zm-98.93-151.55c-12.06,0-21.87,9.81-21.87,21.87v98.93c0,12.06,9.81,21.87,21.87,21.87h98.93c12.06,0,21.87-9.81,21.87-21.87v-98.93c0-12.06-9.81-21.87-21.87-21.87h-98.93Z"/>
      <path class="cls-11" d="m1026.72,906.93l-23.49-27.09c-4.32-4.99-3.78-12.6,1.21-16.93l27.09-23.49c4.99-4.32,12.6-3.78,16.93,1.21l23.49,27.09c4.32,4.99,3.78,12.6-1.21,16.93l-27.09,23.49c-4.99,4.32-12.6,3.78-16.93-1.21Z"/>
      <circle class="cls-11" cx="1156.94" cy="932.3" r="22.3" transform="translate(-268.71 513.71) rotate(-22.5)"/>
      <path class="cls-11" d="m3087.24,863.24c0,12.28-9.95,22.23-22.23,22.23s-22.23-9.95-22.23-22.23,9.95-22.23,22.23-22.23,22.23,9.95,22.23,22.23Z"/>
      <path class="cls-11" d="m2512.61,410.25c0,12.28-9.95,22.23-22.23,22.23s-22.23-9.95-22.23-22.23,9.95-22.23,22.23-22.23,22.23,9.95,22.23,22.23Z"/>
      <path class="cls-11" d="m2936.09,685.45c0,9.57-7.75,17.32-17.32,17.32s-17.32-7.75-17.32-17.32,7.75-17.32,17.32-17.32,17.32,7.75,17.32,17.32Z"/>
      <g>
        <path class="cls-11" d="m1950.08,298.64h366.34c4.51,0,8.17,3.66,8.17,8.17v156.6c0,4.51-3.66,8.17-8.17,8.17h-366.34c-4.51,0-8.17-3.66-8.17-8.17v-156.6c0-4.51,3.66-8.17,8.17-8.17Z"/>
        <rect class="cls-12" x="1952.38" y="344.08" width="361.76" height="119.39" rx="6.6" ry="6.6"/>
        <g>
          <path class="cls-12" d="m1961.35,311.37h7.68c2.02,0,3.66,1.64,3.66,3.66v6.18c0,2.02-1.64,3.66-3.66,3.66h-7.68c-2.02,0-3.66-1.64-3.66-3.66v-6.18c0-2.02,1.64-3.66,3.66-3.66Z"/>
          <path class="cls-12" d="m1988.61,311.37h7.68c2.02,0,3.66,1.64,3.66,3.66v6.18c0,2.02-1.64,3.66-3.66,3.66h-7.68c-2.02,0-3.66-1.64-3.66-3.66v-6.18c0-2.02,1.64-3.66,3.66-3.66Z"/>
          <path class="cls-12" d="m2015.86,311.37h7.68c2.02,0,3.66,1.64,3.66,3.66v6.18c0,2.02-1.64,3.66-3.66,3.66h-7.68c-2.02,0-3.66-1.64-3.66-3.66v-6.18c0-2.02,1.64-3.66,3.66-3.66Z"/>
        </g>
        <path class="cls-11" d="m2299.41,370.25h-191.35c-3.15,0-5.72-2.58-5.72-5.72s2.58-5.72,5.72-5.72h191.35c3.15,0,5.72,2.58,5.72,5.72s-2.58,5.72-5.72,5.72Z"/>
        <path class="cls-11" d="m2155.49,458.56h-191.35c-3.15,0-5.72-2.58-5.72-5.72s2.58-5.72,5.72-5.72h191.35c3.15,0,5.72,2.58,5.72,5.72s-2.58,5.72-5.72,5.72Z"/>
        <rect class="cls-11" x="2168.98" y="447.11" width="23.71" height="11.45" rx="2.2" ry="2.2"/>
        <rect class="cls-11" x="2198.83" y="447.11" width="23.71" height="11.45" rx="2.2" ry="2.2"/>
        <path class="cls-11" d="m2301.25,395.19h-316.87c-2.14,0-3.88-1.75-3.88-3.88s1.75-3.88,3.88-3.88h316.87c2.14,0,3.88,1.75,3.88,3.88s-1.75,3.88-3.88,3.88Z"/>
        <path class="cls-11" d="m2301.25,411.95h-316.87c-2.14,0-3.88-1.75-3.88-3.88s1.75-3.88,3.88-3.88h316.87c2.14,0,3.88,1.75,3.88,3.88s-1.75,3.88-3.88,3.88Z"/>
      </g>
      <circle class="cls-11" cx="49.18" cy="294.25" r="43.95" transform="translate(-248.5 313.95) rotate(-84.3)"/>
      <path class="cls-11" d="m662.39,423.68h-315.84c-3.23,0-5.87-2.64-5.87-5.87s2.64-5.87,5.87-5.87h315.84c3.23,0,5.87,2.64,5.87,5.87s-2.64,5.87-5.87,5.87Z"/>
      <path class="cls-11" d="m662.39,452.98h-315.84c-3.23,0-5.87-2.64-5.87-5.87s2.64-5.87,5.87-5.87h315.84c3.23,0,5.87,2.64,5.87,5.87s-2.64,5.87-5.87,5.87Z"/>
      <g>
        <path class="cls-7" d="m1848.48,871.62c.91-8.1,1.39-16.33,1.39-24.67,0-4.4-.14-8.77-.4-13.11l-40.77-13.19c-2.51-17.19-7.44-33.59-14.43-48.85l27.03-33.26c-6.25-11-13.42-21.42-21.41-31.13l-40.77,13.3c-11.88-12.14-25.46-22.61-40.36-31.03l2.32-42.84c-11.38-5.18-23.28-9.42-35.59-12.61l-25.18,34.74c-9.81-1.65-19.89-2.52-30.18-2.52-7.01,0-13.92.41-20.72,1.19l-23.31-36.03c-12.49,2.54-24.59,6.14-36.21,10.7l.05,42.9c-15.35,7.63-29.46,17.37-41.95,28.86l-40-15.43c-8.5,9.29-16.22,19.3-23.04,29.95l25.24,34.65c-7.81,14.9-13.61,31.02-17.02,48.01l-41.4,11.02c-.91,8.1-1.39,16.33-1.39,24.67,0,4.4.15,8.77.4,13.11l40.77,13.19c2.51,17.19,7.44,33.59,14.43,48.85l-27.03,33.26c6.25,11,13.42,21.42,21.41,31.13l40.77-13.3c11.88,12.14,25.46,22.61,40.36,31.03l-2.32,42.84c11.38,5.18,23.28,9.42,35.59,12.61l25.18-34.74c9.81,1.65,19.89,2.53,30.17,2.53,7.01,0,13.92-.41,20.72-1.19l23.31,36.03c12.49-2.54,24.59-6.14,36.21-10.7l-.05-42.9c15.35-7.63,29.46-17.37,41.95-28.86l40,15.43c8.5-9.29,16.22-19.3,23.04-29.95l-25.24-34.65c7.81-14.9,13.61-31.02,17.02-48.01l41.4-11.02Zm-218.36,61.52c-47.6,0-86.19-38.59-86.19-86.19s38.59-86.19,86.19-86.19,86.19,38.59,86.19,86.19-38.59,86.19-86.19,86.19Z"/>
        <path class="cls-12" d="m1747.67,946.47c-1,0-2.01-.34-2.84-1.03-1.89-1.57-2.14-4.37-.58-6.25,21.48-25.83,33.31-58.59,33.31-92.24,0-16.12-2.64-31.94-7.83-47.03-.8-2.32.43-4.85,2.75-5.64,2.32-.8,4.84.43,5.64,2.75,5.52,16.03,8.32,32.82,8.32,49.92,0,35.72-12.56,70.5-35.36,97.92-.88,1.06-2.14,1.6-3.42,1.6Z"/>
        <path class="cls-12" d="m1735.19,743.04c-1.09,0-2.19-.4-3.04-1.21-14.44-13.59-31.16-23.89-49.69-30.62-2.3-.84-3.5-3.38-2.66-5.69.84-2.31,3.39-3.5,5.69-2.66,19.68,7.14,37.43,18.08,52.75,32.5,1.78,1.68,1.87,4.49.19,6.28-.87.93-2.05,1.4-3.23,1.4Z"/>
        <path class="cls-12" d="m1596.68,707.12c-1.99,0-3.79-1.34-4.3-3.35-.6-2.38.84-4.79,3.22-5.39,12.23-3.09,24.89-4.65,37.62-4.65,2.45,0,4.44,1.99,4.44,4.44s-1.99,4.44-4.44,4.44c-12,0-23.92,1.47-35.44,4.38-.36.09-.73.14-1.09.14Z"/>
      </g>
    </g>
  </g>
</svg>