<svg width="1920" height="1080" viewBox="0 0 1920 1080" fill="none" xmlns="http://www.w3.org/2000/svg">
<g clip-path="url(#clip0_272_432)">
<rect width="1920" height="1080" fill="#0E002F"/>
<g filter="url(#filter0_f_272_432)">
<path d="M2145 940.337C2145 1185.37 1947.11 1384 1703 1384C1540.88 1279.2 1458.5 1158.5 1261 940.337C1261 695.309 1458.89 595 1703 595C1559 854.5 2145 695.309 2145 940.337Z" fill="#AB16AF" fill-opacity="0.08"/>
</g>
<g filter="url(#filter1_f_272_432)">
<path d="M2175.55 1049C2175.55 1202.26 1793.06 987.5 1898.05 1326.5C1744.8 1326.5 1752.05 1222.76 1752.05 1069.5C1752.05 916.241 1744.8 833 1898.05 833C1898.05 964 2175.55 895.741 2175.55 1049Z" fill="#4361EE"/>
</g>
<g filter="url(#filter2_f_272_432)">
<path d="M399.554 1106C399.554 1259.26 17.0557 1044.5 122.054 1383.5C-31.2023 1383.5 -23.9457 1279.76 -23.9457 1126.5C-23.9457 973.241 -31.2023 890 122.054 890C122.054 1021 399.554 952.741 399.554 1106Z" fill="#4361EE"/>
</g>
<g filter="url(#filter3_f_272_432)">
<path d="M2187 78.3374C2187 323.366 1989.11 522 1745 522C1582.88 417.202 1500.5 296.5 1303 78.3374C1303 -166.691 1500.89 -267 1745 -267C1601 -7.5 2187 -166.691 2187 78.3374Z" fill="#AB16AF" fill-opacity="0.08"/>
<path d="M2187 410.5C2187 655.528 1989.11 854.163 1745 854.163C1582.88 749.365 1500.5 628.663 1303 410.5C1303 165.472 1500.89 65.1626 1745 65.1626C1601 324.663 2187 165.472 2187 410.5Z" fill="#AB16AF" fill-opacity="0.08"/>
</g>
<g filter="url(#filter4_f_272_432)">
<path d="M2270 -344.663C2270 -99.6345 2072.11 99.0001 1828 99.0001C1665.88 -5.79758 1583.5 -126.5 1386 -344.663C1386 -589.691 1583.89 -690 1828 -690C1684 -430.5 2270 -589.691 2270 -344.663Z" fill="#4361EE" fill-opacity="0.4"/>
<path d="M2270 -12.5C2270 232.528 2072.11 431.163 1828 431.163C1665.88 326.365 1583.5 205.663 1386 -12.5C1386 -257.528 1583.89 -357.837 1828 -357.837C1684 -98.3374 2270 -257.528 2270 -12.5Z" fill="#4361EE" fill-opacity="0.4"/>
</g>
<g filter="url(#filter5_f_272_432)">
<path d="M2315.58 -210.508C2412.52 -9.36072 2334.42 229.218 2141.14 322.372C1971.3 298.21 1712.57 327.981 1615.63 126.834C1518.69 -74.3129 1635.69 -232.175 1828.97 -325.329C1911.84 -153.396 2218.64 -411.655 2315.58 -210.508Z" fill="#7209B7" fill-opacity="0.47"/>
</g>
<g filter="url(#filter6_f_272_432)">
<path d="M277 43C277 196.259 152.759 320.5 -0.5 320.5C-153.759 320.5 -278 196.259 -278 43C-278 -110.259 -153.759 -173 -0.5 -173C-0.5 -42 277 -110.259 277 43Z" fill="#560BAD" fill-opacity="0.47"/>
</g>
<g filter="url(#filter7_f_272_432)">
<path d="M416 -23C416 130.259 291.759 254.5 138.5 254.5C-14.759 254.5 -139 130.259 -139 -23C-139 -176.259 -14.759 -239 138.5 -239C138.5 -108 416 -176.259 416 -23Z" fill="#4361EE" fill-opacity="0.74"/>
</g>
</g>
<defs>
<filter id="filter0_f_272_432" x="1061" y="395" width="1284" height="1189" filterUnits="userSpaceOnUse" color-interpolation-filters="sRGB">
<feFlood flood-opacity="0" result="BackgroundImageFix"/>
<feBlend mode="normal" in="SourceGraphic" in2="BackgroundImageFix" result="shape"/>
<feGaussianBlur stdDeviation="100" result="effect1_foregroundBlur_272_432"/>
</filter>
<filter id="filter1_f_272_432" x="1552" y="633" width="823.554" height="893.5" filterUnits="userSpaceOnUse" color-interpolation-filters="sRGB">
<feFlood flood-opacity="0" result="BackgroundImageFix"/>
<feBlend mode="normal" in="SourceGraphic" in2="BackgroundImageFix" result="shape"/>
<feGaussianBlur stdDeviation="100" result="effect1_foregroundBlur_272_432"/>
</filter>
<filter id="filter2_f_272_432" x="-224" y="690" width="823.554" height="893.5" filterUnits="userSpaceOnUse" color-interpolation-filters="sRGB">
<feFlood flood-opacity="0" result="BackgroundImageFix"/>
<feBlend mode="normal" in="SourceGraphic" in2="BackgroundImageFix" result="shape"/>
<feGaussianBlur stdDeviation="100" result="effect1_foregroundBlur_272_432"/>
</filter>
<filter id="filter3_f_272_432" x="1103" y="-467" width="1284" height="1521.16" filterUnits="userSpaceOnUse" color-interpolation-filters="sRGB">
<feFlood flood-opacity="0" result="BackgroundImageFix"/>
<feBlend mode="normal" in="SourceGraphic" in2="BackgroundImageFix" result="shape"/>
<feGaussianBlur stdDeviation="100" result="effect1_foregroundBlur_272_432"/>
</filter>
<filter id="filter4_f_272_432" x="1186" y="-890" width="1284" height="1521.16" filterUnits="userSpaceOnUse" color-interpolation-filters="sRGB">
<feFlood flood-opacity="0" result="BackgroundImageFix"/>
<feBlend mode="normal" in="SourceGraphic" in2="BackgroundImageFix" result="shape"/>
<feGaussianBlur stdDeviation="100" result="effect1_foregroundBlur_272_432"/>
</filter>
<filter id="filter5_f_272_432" x="1380.88" y="-525.329" width="1176.34" height="1047.7" filterUnits="userSpaceOnUse" color-interpolation-filters="sRGB">
<feFlood flood-opacity="0" result="BackgroundImageFix"/>
<feBlend mode="normal" in="SourceGraphic" in2="BackgroundImageFix" result="shape"/>
<feGaussianBlur stdDeviation="100" result="effect1_foregroundBlur_272_432"/>
</filter>
<filter id="filter6_f_272_432" x="-478" y="-373" width="955" height="893.5" filterUnits="userSpaceOnUse" color-interpolation-filters="sRGB">
<feFlood flood-opacity="0" result="BackgroundImageFix"/>
<feBlend mode="normal" in="SourceGraphic" in2="BackgroundImageFix" result="shape"/>
<feGaussianBlur stdDeviation="100" result="effect1_foregroundBlur_272_432"/>
</filter>
<filter id="filter7_f_272_432" x="-339" y="-439" width="955" height="893.5" filterUnits="userSpaceOnUse" color-interpolation-filters="sRGB">
<feFlood flood-opacity="0" result="BackgroundImageFix"/>
<feBlend mode="normal" in="SourceGraphic" in2="BackgroundImageFix" result="shape"/>
<feGaussianBlur stdDeviation="100" result="effect1_foregroundBlur_272_432"/>
</filter>
<clipPath id="clip0_272_432">
<rect width="1920" height="1080" fill="white"/>
</clipPath>
</defs>
</svg>
