<?xml version="1.0" encoding="UTF-8"?>
<svg id="Layer_2" data-name="Layer 2" xmlns="http://www.w3.org/2000/svg" xmlns:xlink="http://www.w3.org/1999/xlink" viewBox="0 0 2746.14 2666.85">
  <defs>
    <style>
      .cls-1 {
        fill: url(#linear-gradient-12);
      }

      .cls-1, .cls-2, .cls-3, .cls-4, .cls-5, .cls-6, .cls-7, .cls-8, .cls-9, .cls-10, .cls-11, .cls-12, .cls-13, .cls-14, .cls-15, .cls-16, .cls-17, .cls-18, .cls-19, .cls-20, .cls-21, .cls-22, .cls-23, .cls-24, .cls-25, .cls-26, .cls-27, .cls-28, .cls-29, .cls-30, .cls-31, .cls-32, .cls-33, .cls-34, .cls-35, .cls-36, .cls-37 {
        stroke-width: 0px;
      }

      .cls-2 {
        fill: url(#linear-gradient-17);
      }

      .cls-3 {
        fill: url(#linear-gradient-19);
      }

      .cls-4 {
        fill: url(#linear-gradient-33);
      }

      .cls-5 {
        fill: url(#linear-gradient);
      }

      .cls-6 {
        fill: url(#linear-gradient-21);
      }

      .cls-7 {
        fill: url(#linear-gradient-6);
      }

      .cls-8 {
        fill: #dd0ee2;
      }

      .cls-9 {
        fill: url(#linear-gradient-15);
      }

      .cls-10 {
        fill: url(#linear-gradient-11);
      }

      .cls-11 {
        opacity: .37;
      }

      .cls-11, .cls-19 {
        fill: #fff;
      }

      .cls-12 {
        fill: url(#linear-gradient-5);
      }

      .cls-13 {
        fill: url(#linear-gradient-31);
      }

      .cls-14 {
        fill: url(#linear-gradient-13);
      }

      .cls-15 {
        fill: url(#linear-gradient-23);
      }

      .cls-16 {
        fill: url(#linear-gradient-25);
      }

      .cls-17 {
        fill: url(#linear-gradient-16);
      }

      .cls-18 {
        fill: url(#linear-gradient-22);
      }

      .cls-20 {
        fill: url(#linear-gradient-32);
      }

      .cls-21 {
        fill: url(#linear-gradient-20);
      }

      .cls-22 {
        fill: url(#linear-gradient-14);
      }

      .cls-23 {
        fill: url(#linear-gradient-2);
      }

      .cls-24 {
        fill: url(#linear-gradient-7);
      }

      .cls-25 {
        fill: url(#linear-gradient-3);
      }

      .cls-26 {
        fill: url(#linear-gradient-9);
      }

      .cls-27 {
        fill: url(#linear-gradient-27);
      }

      .cls-28 {
        fill: url(#linear-gradient-8);
      }

      .cls-29 {
        fill: url(#linear-gradient-24);
      }

      .cls-30 {
        fill: url(#linear-gradient-26);
      }

      .cls-31 {
        fill: url(#linear-gradient-18);
      }

      .cls-32 {
        fill: url(#linear-gradient-30);
      }

      .cls-33 {
        fill: url(#linear-gradient-29);
      }

      .cls-34 {
        fill: #91b3fa;
      }

      .cls-35 {
        fill: url(#linear-gradient-28);
      }

      .cls-36 {
        fill: url(#linear-gradient-10);
      }

      .cls-37 {
        fill: url(#linear-gradient-4);
      }
    </style>
    <linearGradient id="linear-gradient" x1="2967.86" y1="3614.01" x2="-204.42" y2="-1192.49" gradientUnits="userSpaceOnUse">
      <stop offset="0" stop-color="#09005d"/>
      <stop offset="1" stop-color="#1a0f91"/>
    </linearGradient>
    <linearGradient id="linear-gradient-2" x1="1314.44" y1="73.69" x2="1593.31" y2="73.69" gradientUnits="userSpaceOnUse">
      <stop offset="0" stop-color="#4f52ff"/>
      <stop offset="1" stop-color="#4042e2"/>
    </linearGradient>
    <linearGradient id="linear-gradient-3" x1="1325.58" y1="1222.51" x2="1318.48" y2="740.01" gradientTransform="translate(520.88 -25.54) rotate(21.11)" gradientUnits="userSpaceOnUse">
      <stop offset="0" stop-color="#febbba"/>
      <stop offset="1" stop-color="#ff928e"/>
    </linearGradient>
    <linearGradient id="linear-gradient-4" x1="12285.67" y1="587.27" x2="11863.97" y2="909.93" gradientTransform="translate(-10098.51 -2784.65) rotate(14.72)" xlink:href="#linear-gradient-3"/>
    <linearGradient id="linear-gradient-5" x1="1605.98" y1="391.86" x2="1399.99" y2="1009.84" xlink:href="#linear-gradient"/>
    <linearGradient id="linear-gradient-6" x1="12233.36" y1="518.9" x2="11811.67" y2="841.56" gradientTransform="translate(-10098.51 -2784.65) rotate(14.72)" xlink:href="#linear-gradient-3"/>
    <linearGradient id="linear-gradient-7" x1="869.66" y1="907.7" x2="1261.05" y2="2617.44" gradientUnits="userSpaceOnUse">
      <stop offset="0" stop-color="#ff928e"/>
      <stop offset="1" stop-color="#fe7062"/>
    </linearGradient>
    <linearGradient id="linear-gradient-8" x1="976.88" y1="1904.77" x2="1229.72" y2="2570.13" gradientTransform="matrix(1,0,0,1,0,0)" xlink:href="#linear-gradient-3"/>
    <linearGradient id="linear-gradient-9" x1="1304.07" y1="1750.87" x2="1573.71" y2="2460.44" gradientTransform="matrix(1,0,0,1,0,0)" xlink:href="#linear-gradient-3"/>
    <linearGradient id="linear-gradient-10" x1="1582.85" y1="2421.04" x2="1933.02" y2="1895.78" xlink:href="#linear-gradient-2"/>
    <linearGradient id="linear-gradient-11" x1="1702.37" y1="2500.72" x2="2052.54" y2="1975.46" xlink:href="#linear-gradient-2"/>
    <linearGradient id="linear-gradient-12" x1="1949.16" y1="1846.85" x2="3179.9" y2="1177.41" xlink:href="#linear-gradient-2"/>
    <linearGradient id="linear-gradient-13" x1="2084.93" y1="1620.47" x2="2064.34" y2="2186.92" xlink:href="#linear-gradient-2"/>
    <linearGradient id="linear-gradient-14" x1="1911.19" y1="2501.43" x2="2441.99" y2="1604" xlink:href="#linear-gradient-2"/>
    <linearGradient id="linear-gradient-15" x1="1409.55" y1="1285.34" x2="1575.27" y2="1172.98" gradientTransform="translate(-225.2 76.04) rotate(-9.74)" xlink:href="#linear-gradient-2"/>
    <linearGradient id="linear-gradient-16" x1="1550.24" y1="1065.55" x2="1605.43" y2="1065.55" xlink:href="#linear-gradient-2"/>
    <linearGradient id="linear-gradient-17" x1="1973.4" y1="850.07" x2="714.64" y2="1058.04" gradientTransform="translate(-225.2 76.04) rotate(-9.74)" xlink:href="#linear-gradient-2"/>
    <linearGradient id="linear-gradient-18" x1="1561.23" y1="564.48" x2="1365.54" y2="945.57" xlink:href="#linear-gradient-2"/>
    <linearGradient id="linear-gradient-19" x1="1481.26" y1="819.03" x2="1670.09" y2="637.07" xlink:href="#linear-gradient-2"/>
    <linearGradient id="linear-gradient-20" x1="-2320.05" y1="2160.98" x2="-2577.33" y2="2534.83" gradientTransform="translate(-1498.09) rotate(-180) scale(1 -1)" xlink:href="#linear-gradient"/>
    <linearGradient id="linear-gradient-21" x1="-2310.8" y1="2167.34" x2="-2568.08" y2="2541.2" gradientTransform="translate(-1498.09) rotate(-180) scale(1 -1)" xlink:href="#linear-gradient"/>
    <linearGradient id="linear-gradient-22" x1="-2299.64" y1="2175.02" x2="-2556.92" y2="2548.88" gradientTransform="translate(-1498.09) rotate(-180) scale(1 -1)" xlink:href="#linear-gradient"/>
    <linearGradient id="linear-gradient-23" x1="-2280.33" y1="2188.31" x2="-2537.61" y2="2562.17" gradientTransform="translate(-1498.09) rotate(-180) scale(1 -1)" xlink:href="#linear-gradient"/>
    <linearGradient id="linear-gradient-24" x1="-2267.6" y1="2197.07" x2="-2524.88" y2="2570.93" gradientTransform="translate(-1498.09) rotate(-180) scale(1 -1)" xlink:href="#linear-gradient"/>
    <linearGradient id="linear-gradient-25" x1="-2259.7" y1="2202.51" x2="-2516.98" y2="2576.37" gradientTransform="translate(-1498.09) rotate(-180) scale(1 -1)" xlink:href="#linear-gradient"/>
    <linearGradient id="linear-gradient-26" x1="-2333.29" y1="2151.87" x2="-2590.57" y2="2525.72" gradientTransform="translate(-1498.09) rotate(-180) scale(1 -1)" xlink:href="#linear-gradient"/>
    <linearGradient id="linear-gradient-27" x1="-2164.03" y1="1682.55" x2="-2344.71" y2="1945.1" gradientTransform="translate(-1498.09) rotate(-180) scale(1 -1)" xlink:href="#linear-gradient"/>
    <linearGradient id="linear-gradient-28" x1="-2157.53" y1="1687.02" x2="-2338.21" y2="1949.57" gradientTransform="translate(-1498.09) rotate(-180) scale(1 -1)" xlink:href="#linear-gradient"/>
    <linearGradient id="linear-gradient-29" x1="-2149.69" y1="1692.41" x2="-2330.37" y2="1954.96" gradientTransform="translate(-1498.09) rotate(-180) scale(1 -1)" xlink:href="#linear-gradient"/>
    <linearGradient id="linear-gradient-30" x1="-2136.13" y1="1701.74" x2="-2316.81" y2="1964.29" gradientTransform="translate(-1498.09) rotate(-180) scale(1 -1)" xlink:href="#linear-gradient"/>
    <linearGradient id="linear-gradient-31" x1="-2127.19" y1="1707.89" x2="-2307.87" y2="1970.44" gradientTransform="translate(-1498.09) rotate(-180) scale(1 -1)" xlink:href="#linear-gradient"/>
    <linearGradient id="linear-gradient-32" x1="-2121.64" y1="1711.71" x2="-2302.32" y2="1974.26" gradientTransform="translate(-1498.09) rotate(-180) scale(1 -1)" xlink:href="#linear-gradient"/>
    <linearGradient id="linear-gradient-33" x1="-2173.33" y1="1676.15" x2="-2354.01" y2="1938.7" gradientTransform="translate(-1498.09) rotate(-180) scale(1 -1)" xlink:href="#linear-gradient"/>
  </defs>
  <g id="Illustration">
    <g>
      <g>
        <g>
          <path class="cls-5" d="m727.82,10.07c-66.67,5.8-117.79,61.64-117.98,128.56-1.16,409.28-3.08,1820.99,23.6,2320.66,2.83,52.94,46.22,94.52,99.23,95.09,262.18,2.82,1016.32,8.01,1444.45-19.38,89.17-5.7,158.56-79.56,158.46-168.91-.52-429.55-7.38-1637.6-66.22-2189.79-7.05-66.16-60.23-117.8-126.57-122.97C1856.84,31.06,1097.51-22.08,727.82,10.07Z"/>
          <path class="cls-34" d="m715.07,245.9c-5.15,350.1-19.81,1514.75,5.78,1944.6,3.74,62.83,52.54,112.43,112.81,114.53,248.11,8.65,884.36,25.38,1246.91-14.51,65.28-7.18,115.18-63.77,116.92-132.29,9.07-357.28,33.56-1442.01,8.69-1867.05-3.97-67.81-55.77-121.91-120.71-126.29-268.65-18.1-958.5-59.85-1266.8-34.17-57.87,4.82-102.7,54.57-103.59,115.19Z"/>
          <path class="cls-23" d="m1314.55,70.95c.21,9.67,7.93,17.48,17.6,17.78,47.74,1.45,182.23,5.57,242.34,7.73,11.85.43,20.91-10.42,18.41-22.01-.21-.37-1.75-15.23-16.93-16.28-40.66-2.83-163.34-10.45-244.41-5.77-16.65.96-17.55,19.89-17.01,18.56Z"/>
        </g>
        <g>
          <g>
            <path class="cls-8" d="m1006.29,1303.18s341.98-85.79,703.3-34.05c101.66,14.56,191.71,73.71,246.57,160.52,98.85,156.43,238.61,435.19,209.04,725.92l-155.15,38.36s-107.22-345.02-227.91-485.43c0,0-142.92,325.78-135.7,504.68.2,5.06.53,10,.98,14.81,16.4,175.03-686.08,32.66-686.08,32.66l44.94-957.47Z"/>
            <path class="cls-25" d="m1376,1011.13l-72.81,231.91c-6.77,21.57-.04,44.68,16.88,57.71,38.97,30.01,116,77.8,210.11,76.42,17.22-.25,31.7-14.95,32.9-32.98l25.87-387.62-212.95,54.56Z"/>
            <g>
              <path class="cls-37" d="m1657.91,756.96s28.28,182.64,10.47,269.92c-17.81,87.28-13.94,147.97-117.95,139.16-104.01-8.81-174.78-80.37-197.66-177.99,0,0-36.43-150.72-6.27-200.6,30.16-49.88,311.41-30.48,311.41-30.48Z"/>
              <path class="cls-12" d="m1402.94,935.37l12.57,3.3s-23.89-119.88,26.54-126.59c50.43-6.71,240.41,3.9,296.12-49.86,53.71-51.83,41.2-140.29-2.99-175.74-2.8-2.24-6.92-1.73-9.34.91l-6.21,6.75c-4.25,4.63-11.97,1.73-12.13-4.55h0c-.15-5.96-7.29-9.13-11.62-5.03-16.94,16-57.36,38.64-148.04,31.88-128.68-9.59-222.86,18.76-247.14,103.05-1.54,5.34-8.06,6.79-11.91,2.79-7.61-7.9-21.43-14.3-45.09-3.1-41.14,19.48-46.67,96.61,11.32,176.48,2.75,3.79,1.29,9.27-3.17,10.74-15.68,5.2-41.09,20.7,3.37,61.94,45.48,42.19,77.61,47.33,90.22,47.41,3.39.02,6.29-2.31,6.95-5.64l15.11-76.38c.78-3.95,4.73-6.42,8.63-5.4l26.8,7.04Z"/>
              <path class="cls-7" d="m1401.9,951.9s.29-111.84-54.36-94.82-6.46,123.7,30.24,137.53l24.12-42.71Z"/>
            </g>
            <g>
              <path class="cls-8" d="m1020.56,2037.8c-15.15-106.97,83.48-301.39,129.3-361.06,13.11-17.07,20.44-37.93,20.62-59.45,1.34-151.49-62.27-248.79-164.19-314.12,0,0-369.91,430.96-275.72,762.44,10.16,35.77,25.91,66.51,45.88,92.92,14.84-124.9,171.36-114.97,244.11-120.73Z"/>
              <path class="cls-24" d="m1015.31,1959.25l-14.09-1.61c11.95-104.9,104-234.4,143.02-285.21l11.25,8.64c-38.3,49.87-128.62,176.81-140.18,278.18Z"/>
              <path class="cls-28" d="m1022.44,2032.79c-41.61.07-233,6.62-250.67,120.81,165.08,218.33,620.08,139.56,620.08,139.56v-84.96s-285.22-51.8-357.73-168.9c-2.51-4.05-6.91-6.52-11.68-6.51Z"/>
            </g>
            <path class="cls-26" d="m1352.8,2274.64s67.18-158.53,185.56-102.3c118.38,56.23,109.07,93.03,109.07,93.03l-294.64,9.27Z"/>
            <path class="cls-36" d="m1337.71,2307.53h0c.94,11.99,11.16,21.12,23.19,20.7l613.43-21.4c9.53-.33,17.82-6.65,20.66-15.75l17.81-56.98c4.37-14-5.61-28.36-20.26-29.14l-223.7-11.88c-2.03-.11-4.07.06-6.05.5l-407.54,90.26c-10.94,2.42-18.42,12.53-17.54,23.7Z"/>
            <polygon class="cls-10" points="1748.9 2285.15 1765.78 2206.49 1995.56 2217.46 1980.44 2282.72 1748.9 2285.15"/>
            <path class="cls-1" d="m1631.1,1438.57c-13,106.26-71.51,538-88.25,661.35-2.36,17.35,11.42,32.61,28.92,32.1l992.42-28.4c12.99-.37,24.06-9.52,26.88-22.2l154.38-695.25c4.08-18.38-10.55-35.56-29.35-34.46l-1058.51,62c-13.69.8-24.83,11.25-26.49,24.85Z"/>
            <path class="cls-14" d="m2030.02,1874.56l-146.67,416.31,341.05,7.23,28.4-421.04c1.33-19.76-15.05-36.16-34.81-34.85l-159.27,10.58c-13.06.87-24.34,9.43-28.69,21.77Z"/>
            <path class="cls-22" d="m1745.08,2296.8h0c-3.76,11.45,4.77,23.24,16.83,23.24h534.11c9.78,0,17.71-7.93,17.71-17.71v-22.91c0-10.08-8.4-18.13-18.47-17.7l-534.11,22.91c-7.37.32-13.77,5.17-16.07,12.17Z"/>
          </g>
          <path class="cls-34" d="m1616.11,1877.78l-7.04-.89,48.76-384.54c3.02-23.86,22.63-42.21,46.63-43.66l914.72-55.24.43,7.08-914.72,55.24c-20.59,1.24-37.43,17-40.02,37.47l-48.76,384.54Z"/>
          <rect class="cls-34" x="1551.47" y="2024.94" width="83.92" height="7.1" transform="translate(-618.32 3355.89) rotate(-82.82)"/>
          <g>
            <g>
              <path class="cls-9" d="m1560.5,1069.81c-110.21,8.33-174.27-105.63-174.9-106.78l7.38-4.06c.61,1.1,62.13,110.36,166.89,102.45l.64,8.4Z"/>
              <path class="cls-17" d="m1605.43,1065.55c0,6.53-5.29,11.83-11.83,11.83h-31.54c-6.53,0-11.83-5.29-11.83-11.83h0c0-6.53,5.29-11.83,11.83-11.83h31.54c6.53,0,11.83,5.29,11.83,11.83h0Z"/>
            </g>
            <g>
              <path class="cls-2" d="m1393.19,836.61s39.56-202.89,156.09-222.03c0,0-33.01-16.62-67.41,1.41-34.4,18.02-121.37,116.78-117.82,225.62,23.66,8.52,29.14-5,29.14-5Z"/>
              <path class="cls-31" d="m1372.95,827c-60.59,12.3-53.14,88.91-53.14,88.91-4.37,55.6,11.86,83.16,32.66,96.3,14.21,8.97,32.09,9.8,47.09,2.24,15-7.57,24.93-22.45,26.17-39.21,1.12-15.13,2.4-29.51,3.52-34.62,2.72-12.38,4.28-125.91-56.31-113.61Z"/>
            </g>
            <path class="cls-3" d="m1378.51,846.38c-12.58-2.19-24.98,4.5-30.04,16.22-36.21,83.88,8.25,138.44,30.07,139.58,23,1.2,22.54-109.47,17.65-137.84-2.05-11.89-9.6-16.55-17.69-17.96Z"/>
          </g>
        </g>
      </g>
      <g>
        <circle class="cls-19" cx="2252.87" cy="826.07" r="373.44"/>
        <path class="cls-8" d="m2238.95,1060.8c-17.59,1.15-33.95-7.03-43.06-21.65l-152.91-245.53c-14.33-23.01-6.61-54.52,17.24-70.39,23.83-15.85,54.75-10.06,69.06,12.94l106.04,170.44,139.92-284.97c12.56-25.57,42.73-37.31,67.37-26.21,24.64,11.09,34.44,40.79,21.9,66.35l-180.82,368.56c-8.28,16.87-24.74,28.49-42.98,30.32-.59.06-1.18.11-1.77.15Z"/>
      </g>
      <g>
        <g>
          <path class="cls-8" d="m1035.08,2567.3v-442.93c0-58.19-46.77-105.55-104.96-106.18-174.64-1.9-534.84-2-829.56,22.84-40.22,3.39-71.5,36.35-72.96,76.68L.07,2545.94c-2.05,56.64,42.73,103.96,99.4,105.04l834.18,15.85c55.71,1.06,101.44-43.81,101.44-99.53Z"/>
          <path class="cls-19" d="m933.93,2172.29c.74,37.69-.38,97.49-1.29,136.12-.48,20.1-18.12,35.42-38.09,33.08l-143.73-16.85c-19.15-2.24-32.64-19.89-29.78-38.96l17.64-117.69c2.51-16.71,16.86-29.07,33.75-29.07h127.37c18.56,0,33.76,14.8,34.12,33.36Z"/>
          <path class="cls-11" d="m558.33,2395.33l-119.89,12.93c-16.78,1.81-31.09-12.02-29.86-28.85l26.21-356.65c50.26-1.59,99.83-2.76,147.67-3.57v349.27c0,13.81-10.4,25.39-24.13,26.88Z"/>
          <path class="cls-19" d="m509.19,2333.52c-.37,6.42-5.68,11.36-12.03,11.36-.24,0-.47,0-.71-.02-6.65-.38-11.73-6.09-11.34-12.74l18.08-311.27c8.11-.2,16.15-.38,24.19-.56l-18.19,313.23Z"/>
          <g>
            <path class="cls-21" d="m867.46,2284.64c2.1,0,3.88-1.63,4.01-3.77l6.22-98.04c.14-2.21-1.54-4.12-3.76-4.26-2.33-.18-4.12,1.55-4.26,3.76l-6.22,98.04c-.14,2.21,1.54,4.12,3.76,4.26.09,0,.17,0,.25,0Z"/>
            <path class="cls-6" d="m854.67,2284.64c2.16,0,3.95-1.71,4.02-3.89l3.26-99.92c.07-2.22-1.67-4.08-3.89-4.15-2.56-.13-4.08,1.67-4.15,3.89l-3.26,99.92c-.07,2.22,1.67,4.08,3.89,4.15h.13Z"/>
            <path class="cls-18" d="m837.31,2284.63c-2.22-.1-3.93-1.99-3.82-4.2,1.59-33.57,4.63-97.59,4.68-99.77.02-2.2,1.81-3.98,4.02-3.98s4.02,1.8,4.02,4.02c0,1.66-3.91,83.68-4.7,100.11-.1,2.16-1.88,3.83-4.01,3.83-.06,0-.13,0-.19,0Zm.78-103.93h.08-.08Z"/>
            <path class="cls-15" d="m810.7,2288.66c4.31,0,7.88-3.42,8.02-7.76,3.4-96.81,2.8-98.99,2.41-100.44-1.16-4.29-5.62-6.81-9.87-5.64-3.93,1.08-6.39,4.89-5.86,8.82.26,5.82-1.54,62.14-2.75,96.69-.16,4.44,3.31,8.17,7.75,8.31.09,0,.2,0,.29,0Z"/>
            <path class="cls-29" d="m793.28,2284.64c2.22,0,4.02-1.8,4.02-4.02v-98.04c0-2.22-1.8-4.02-4.02-4.02s-4.02,1.8-4.02,4.02v98.04c0,2.22,1.8,4.02,4.02,4.02Z"/>
            <path class="cls-16" d="m779.21,2284.64c2.18,0,3.97-1.74,4.02-3.93.77-34.07,2.57-89.71,4.18-96.4.71-1.26.7-2.87-.15-4.17-1.22-1.87-3.71-2.37-5.57-1.15-2.19,1.44-4.27,2.8-6.5,101.54-.05,2.22,1.71,4.06,3.93,4.11h.09Z"/>
            <path class="cls-30" d="m889.09,2293.57c4.25,0,7.8-3.33,8.02-7.62l5.36-102.95c.23-4.44-3.18-8.21-7.62-8.45-4.21-.3-8.21,3.18-8.45,7.62l-5.36,102.95c-.23,4.44,3.18,8.21,7.61,8.45.14,0,.28,0,.42,0Z"/>
          </g>
        </g>
        <g>
          <path class="cls-8" d="m815.61,1967.89v-311.06c0-40.87-32.84-74.12-73.71-74.57-122.65-1.34-375.6-1.4-582.58,16.04-28.24,2.38-50.21,25.53-51.24,53.85l-19.34,300.73c-1.44,39.78,30.01,73.01,69.81,73.77l585.82,11.13c39.12.74,71.24-30.77,71.24-69.9Z"/>
          <path class="cls-19" d="m744.57,1690.49c.52,26.47-.26,68.46-.91,95.6-.34,14.11-12.73,24.87-26.75,23.23l-100.94-11.83c-13.45-1.58-22.92-13.97-20.91-27.36l12.39-82.65c1.76-11.73,11.84-20.41,23.7-20.41h89.45c13.03,0,23.71,10.4,23.96,23.43Z"/>
          <path class="cls-11" d="m480.79,1847.13l-84.2,9.08c-11.78,1.27-21.83-8.44-20.97-20.26l18.41-250.46c35.3-1.12,70.11-1.94,103.7-2.51v245.28c0,9.7-7.31,17.83-16.95,18.87Z"/>
          <path class="cls-19" d="m446.28,1803.72c-.26,4.51-3.99,7.98-8.45,7.98-.17,0-.33,0-.5-.02-4.67-.27-8.24-4.27-7.96-8.94l12.7-218.6c5.69-.14,11.34-.27,16.99-.39l-12.78,219.97Z"/>
          <g>
            <path class="cls-27" d="m697.89,1769.39c1.48,0,2.72-1.15,2.82-2.65l4.37-68.85c.1-1.56-1.08-2.9-2.64-2.99-1.64-.13-2.89,1.09-2.99,2.64l-4.37,68.85c-.1,1.55,1.08,2.89,2.64,2.99.06,0,.12,0,.18,0Z"/>
            <path class="cls-35" d="m688.9,1769.39c1.52,0,2.77-1.2,2.82-2.73l2.29-70.17c.05-1.56-1.17-2.87-2.73-2.92-1.8-.09-2.86,1.17-2.92,2.73l-2.29,70.17c-.05,1.56,1.17,2.87,2.73,2.92h.09Z"/>
            <path class="cls-33" d="m676.72,1769.39c-1.56-.07-2.76-1.4-2.69-2.95,1.12-23.57,3.25-68.53,3.29-70.07.01-1.54,1.27-2.8,2.82-2.8s2.82,1.26,2.82,2.82c0,1.16-2.75,58.77-3.3,70.3-.07,1.52-1.32,2.69-2.82,2.69-.04,0-.09,0-.13,0Zm.55-72.99h.06-.06Z"/>
            <path class="cls-32" d="m658.03,1772.22c3.03,0,5.53-2.4,5.64-5.45,2.39-67.99,1.97-69.52,1.69-70.53-.82-3.02-3.95-4.79-6.93-3.96-2.76.76-4.49,3.44-4.11,6.2.18,4.09-1.08,43.64-1.93,67.9-.11,3.11,2.33,5.73,5.44,5.84.07,0,.14,0,.2,0Z"/>
            <path class="cls-13" d="m645.8,1769.39c1.56,0,2.82-1.26,2.82-2.82v-68.85c0-1.56-1.26-2.82-2.82-2.82s-2.82,1.26-2.82,2.82v68.85c0,1.56,1.26,2.82,2.82,2.82Z"/>
            <path class="cls-20" d="m635.92,1769.39c1.53,0,2.79-1.22,2.82-2.76.54-23.92,1.8-63,2.93-67.7.5-.89.49-2.01-.1-2.93-.85-1.31-2.6-1.67-3.91-.81-1.54,1.01-3,1.96-4.57,71.31-.03,1.56,1.2,2.85,2.76,2.89h.07Z"/>
            <path class="cls-4" d="m713.08,1775.66c2.98,0,5.48-2.34,5.64-5.35l3.77-72.3c.16-3.12-2.23-5.77-5.35-5.93-2.96-.21-5.77,2.23-5.93,5.35l-3.77,72.3c-.16,3.12,2.23,5.77,5.35,5.93.1,0,.2,0,.3,0Z"/>
          </g>
        </g>
      </g>
    </g>
  </g>
</svg>