<?xml version="1.0" encoding="UTF-8"?>
<svg xmlns="http://www.w3.org/2000/svg" xmlns:xlink="http://www.w3.org/1999/xlink" viewBox="0 0 428.57 385.45">
  <defs>
    <style>
      .cls-1 {
        fill: url(#Degradado_sin_nombre_130-11);
      }

      .cls-1, .cls-2, .cls-3, .cls-4, .cls-5, .cls-6, .cls-7, .cls-8, .cls-9, .cls-10, .cls-11, .cls-12, .cls-13, .cls-14, .cls-15, .cls-16, .cls-17, .cls-18, .cls-19, .cls-20, .cls-21, .cls-22, .cls-23, .cls-24, .cls-25, .cls-26, .cls-27, .cls-28, .cls-29, .cls-30, .cls-31, .cls-32, .cls-33, .cls-34, .cls-35, .cls-36, .cls-37, .cls-38, .cls-39, .cls-40, .cls-41, .cls-42, .cls-43, .cls-44, .cls-45, .cls-46, .cls-47, .cls-48, .cls-49, .cls-50, .cls-51, .cls-52, .cls-53, .cls-54, .cls-55, .cls-56, .cls-57, .cls-58, .cls-59, .cls-60, .cls-61, .cls-62, .cls-63, .cls-64, .cls-65, .cls-66, .cls-67, .cls-68, .cls-69, .cls-70, .cls-71, .cls-72, .cls-73, .cls-74, .cls-75, .cls-76, .cls-77, .cls-78, .cls-79, .cls-80, .cls-81, .cls-82, .cls-83, .cls-84, .cls-85, .cls-86, .cls-87, .cls-88, .cls-89, .cls-90, .cls-91, .cls-92, .cls-93, .cls-94, .cls-95, .cls-96 {
        stroke-width: 0px;
      }

      .cls-1, .cls-3, .cls-4, .cls-5, .cls-7, .cls-10, .cls-11, .cls-12, .cls-13, .cls-14, .cls-21, .cls-24, .cls-27, .cls-32, .cls-33, .cls-35, .cls-36, .cls-37, .cls-38, .cls-40, .cls-42, .cls-44, .cls-45, .cls-53, .cls-56, .cls-60, .cls-61, .cls-62, .cls-65, .cls-67, .cls-68, .cls-71, .cls-72, .cls-73, .cls-76, .cls-77, .cls-97, .cls-98, .cls-81, .cls-85, .cls-87, .cls-88, .cls-89, .cls-91, .cls-92, .cls-94 {
        mix-blend-mode: screen;
      }

      .cls-2 {
        fill: #ffd740;
      }

      .cls-3 {
        fill: url(#Degradado_sin_nombre_133-14);
      }

      .cls-4 {
        fill: url(#Degradado_sin_nombre_133-9);
      }

      .cls-5 {
        fill: url(#Degradado_sin_nombre_133-15);
      }

      .cls-5, .cls-99, .cls-15, .cls-43, .cls-46, .cls-73, .cls-85, .cls-89, .cls-100 {
        opacity: .5;
      }

      .cls-6 {
        fill: url(#Degradado_sin_nombre_125-4);
      }

      .cls-7 {
        fill: url(#Degradado_sin_nombre_130-23);
      }

      .cls-8 {
        fill: url(#Degradado_sin_nombre_126-2);
      }

      .cls-9 {
        fill: #ff6d00;
      }

      .cls-101 {
        fill: url(#Degradado_sin_nombre_129);
        stroke: url(#Degradado_sin_nombre_128);
      }

      .cls-101, .cls-102, .cls-103, .cls-104, .cls-98, .cls-105, .cls-100, .cls-106 {
        stroke-miterlimit: 10;
      }

      .cls-101, .cls-100 {
        stroke-width: .5px;
      }

      .cls-10 {
        fill: url(#Degradado_sin_nombre_130-13);
      }

      .cls-11 {
        fill: url(#Degradado_sin_nombre_130-15);
      }

      .cls-12 {
        fill: url(#Degradado_sin_nombre_130-37);
      }

      .cls-13 {
        fill: url(#Degradado_sin_nombre_130-18);
      }

      .cls-14 {
        fill: url(#Degradado_sin_nombre_130-30);
      }

      .cls-15 {
        fill: url(#Degradado_sin_nombre_133-2);
      }

      .cls-15, .cls-17, .cls-18, .cls-22, .cls-23, .cls-28, .cls-39, .cls-41, .cls-43, .cls-49, .cls-52, .cls-54, .cls-104, .cls-66, .cls-74, .cls-75, .cls-78, .cls-82, .cls-83, .cls-86, .cls-90, .cls-100, .cls-93 {
        mix-blend-mode: multiply;
      }

      .cls-16 {
        fill: url(#Degradado_sin_nombre_125);
      }

      .cls-17 {
        fill: url(#Degradado_sin_nombre_131);
      }

      .cls-18 {
        fill: url(#Degradado_sin_nombre_130-40);
      }

      .cls-19 {
        fill: #2e4a77;
      }

      .cls-107, .cls-20 {
        opacity: .6;
      }

      .cls-20 {
        fill: url(#Degradado_sin_nombre_7-2);
      }

      .cls-21 {
        fill: url(#Degradado_sin_nombre_130-4);
      }

      .cls-22 {
        fill: #823b12;
      }

      .cls-23 {
        fill: url(#Degradado_sin_nombre_130);
      }

      .cls-24 {
        fill: url(#Degradado_sin_nombre_130-22);
      }

      .cls-108 {
        stroke-dasharray: 0 0 0 8 4 5;
      }

      .cls-108, .cls-102, .cls-109, .cls-103, .cls-104, .cls-98, .cls-105, .cls-100, .cls-106 {
        fill: none;
      }

      .cls-108, .cls-102, .cls-109, .cls-103, .cls-104, .cls-98, .cls-100, .cls-106 {
        stroke-linecap: round;
      }

      .cls-108, .cls-109 {
        stroke: #38b5c7;
        stroke-linejoin: round;
      }

      .cls-102 {
        stroke: #f57f17;
      }

      .cls-102, .cls-98, .cls-106 {
        stroke-width: 2px;
      }

      .cls-102, .cls-106 {
        stroke-dasharray: 0 0 0 8 4 3;
      }

      .cls-25 {
        fill: url(#Degradado_sin_nombre_126);
      }

      .cls-26 {
        fill: #153466;
      }

      .cls-27 {
        fill: url(#Degradado_sin_nombre_130-34);
      }

      .cls-110 {
        isolation: isolate;
      }

      .cls-28 {
        fill: url(#Degradado_sin_nombre_130-24);
      }

      .cls-30 {
        fill: url(#Degradado_sin_nombre_128-2);
      }

      .cls-31 {
        fill: url(#Degradado_sin_nombre_125-5);
      }

      .cls-32 {
        fill: url(#Degradado_sin_nombre_130-25);
      }

      .cls-33 {
        fill: url(#Degradado_sin_nombre_130-29);
      }

      .cls-109 {
        stroke-dasharray: 0 0 0 8 2 6;
      }

      .cls-34 {
        fill: #f8edeb;
      }

      .cls-35 {
        fill: url(#Degradado_sin_nombre_130-17);
      }

      .cls-36 {
        fill: url(#Degradado_sin_nombre_133-11);
      }

      .cls-37 {
        fill: url(#Degradado_sin_nombre_128-4);
        opacity: .3;
      }

      .cls-38 {
        fill: url(#Degradado_sin_nombre_130-39);
      }

      .cls-39 {
        fill: url(#Degradado_sin_nombre_130-9);
      }

      .cls-40 {
        fill: url(#Degradado_sin_nombre_133-12);
      }

      .cls-41 {
        fill: url(#Degradado_sin_nombre_133-10);
      }

      .cls-42 {
        fill: url(#Degradado_sin_nombre_133-7);
      }

      .cls-43 {
        fill: url(#Degradado_sin_nombre_133);
      }

      .cls-44 {
        fill: url(#Degradado_sin_nombre_130-21);
      }

      .cls-45 {
        fill: url(#Degradado_sin_nombre_130-31);
      }

      .cls-46 {
        fill: #b0bec5;
      }

      .cls-103, .cls-105 {
        stroke: #84ffff;
      }

      .cls-47 {
        fill: #fff;
      }

      .cls-48 {
        fill: url(#Degradado_sin_nombre_125-2);
      }

      .cls-49, .cls-83 {
        opacity: .4;
      }

      .cls-49, .cls-84 {
        fill: #98c1d9;
      }

      .cls-50 {
        fill: url(#Degradado_sin_nombre_7);
      }

      .cls-51 {
        fill: url(#Degradado_sin_nombre_125-6);
      }

      .cls-52 {
        fill: url(#Degradado_sin_nombre_130-16);
      }

      .cls-53 {
        fill: url(#Degradado_sin_nombre_130-26);
      }

      .cls-54 {
        fill: url(#Degradado_sin_nombre_133-3);
      }

      .cls-55 {
        fill: #ffc400;
      }

      .cls-56 {
        fill: url(#Degradado_sin_nombre_130-8);
      }

      .cls-57 {
        fill: url(#Degradado_sin_nombre_125-3);
      }

      .cls-104 {
        stroke: #965b39;
        stroke-width: .25px;
      }

      .cls-58 {
        fill: #84ffff;
      }

      .cls-59 {
        fill: #965b39;
      }

      .cls-60 {
        fill: url(#Degradado_sin_nombre_133-13);
      }

      .cls-61 {
        fill: url(#Degradado_sin_nombre_133-6);
      }

      .cls-62 {
        fill: url(#Degradado_sin_nombre_130-33);
      }

      .cls-63 {
        fill: #ffab00;
      }

      .cls-64 {
        fill: url(#Degradado_sin_nombre_128-3);
      }

      .cls-65 {
        fill: url(#Degradado_sin_nombre_130-19);
      }

      .cls-66 {
        fill: url(#Degradado_sin_nombre_130-28);
      }

      .cls-67 {
        fill: url(#Degradado_sin_nombre_130-35);
      }

      .cls-68 {
        fill: url(#Degradado_sin_nombre_130-10);
      }

      .cls-69 {
        fill: #c4cee4;
      }

      .cls-70 {
        fill: #7cb0cf;
      }

      .cls-71 {
        fill: url(#Degradado_sin_nombre_130-42);
      }

      .cls-72 {
        fill: url(#Degradado_sin_nombre_130-43);
      }

      .cls-73 {
        fill: url(#Degradado_sin_nombre_133-16);
      }

      .cls-74 {
        fill: url(#Degradado_sin_nombre_130-20);
      }

      .cls-75 {
        fill: url(#Degradado_sin_nombre_130-36);
      }

      .cls-76 {
        fill: url(#Degradado_sin_nombre_130-7);
      }

      .cls-77 {
        fill: url(#Degradado_sin_nombre_130-41);
      }

      .cls-78 {
        fill: url(#Degradado_sin_nombre_130-3);
      }

      .cls-97 {
        fill: #9ce3ee;
        font-family: Exo2-Bold, 'Exo2 Bold';
        font-size: 25.65px;
        font-weight: 700;
        letter-spacing: -.08em;
      }

      .cls-98 {
        stroke: #9ce3ee;
      }

      .cls-79 {
        fill: url(#Degradado_sin_nombre_135);
      }

      .cls-80 {
        fill: url(#Degradado_sin_nombre_137);
      }

      .cls-81 {
        fill: url(#Degradado_sin_nombre_130-6);
      }

      .cls-82 {
        fill: url(#Degradado_sin_nombre_130-32);
      }

      .cls-83 {
        fill: #63a1c5;
      }

      .cls-85 {
        fill: url(#Degradado_sin_nombre_133-4);
      }

      .cls-86 {
        fill: url(#Degradado_sin_nombre_130-5);
      }

      .cls-87 {
        fill: url(#Degradado_sin_nombre_133-8);
      }

      .cls-88 {
        fill: url(#Degradado_sin_nombre_130-14);
      }

      .cls-89 {
        fill: url(#Degradado_sin_nombre_133-5);
      }

      .cls-90 {
        fill: url(#Degradado_sin_nombre_130-12);
      }

      .cls-100 {
        stroke: #2e4a77;
      }

      .cls-106 {
        stroke: #ffd740;
      }

      .cls-91 {
        fill: url(#Degradado_sin_nombre_130-38);
      }

      .cls-92 {
        fill: url(#Degradado_sin_nombre_130-2);
      }

      .cls-93 {
        fill: url(#Degradado_sin_nombre_131-2);
      }

      .cls-94 {
        fill: url(#Degradado_sin_nombre_130-27);
      }

      .cls-95 {
        fill: url(#Degradado_sin_nombre_132);
      }

      .cls-96 {
        fill: #7c3308;
      }
    </style>
    <linearGradient id="Degradado_sin_nombre_125" data-name="Degradado sin nombre 125" x1="195.71" y1="90.46" x2="195.71" y2="11.2" gradientUnits="userSpaceOnUse">
      <stop offset="0" stop-color="#18ffff"/>
      <stop offset="1" stop-color="#1fbffd"/>
    </linearGradient>
    <linearGradient id="Degradado_sin_nombre_125-2" data-name="Degradado sin nombre 125" x1="251.98" y1="109.46" x2="251.98" y2="76.3" xlink:href="#Degradado_sin_nombre_125"/>
    <linearGradient id="Degradado_sin_nombre_125-3" data-name="Degradado sin nombre 125" x1="251.98" y1="70.84" x2="251.98" y2="34.38" xlink:href="#Degradado_sin_nombre_125"/>
    <linearGradient id="Degradado_sin_nombre_137" data-name="Degradado sin nombre 137" x1="151.47" y1="100.7" x2="151.47" y2="63.8" gradientUnits="userSpaceOnUse">
      <stop offset="0" stop-color="#1fbffd"/>
      <stop offset="1" stop-color="#18ffff"/>
    </linearGradient>
    <linearGradient id="Degradado_sin_nombre_7" data-name="Degradado sin nombre 7" x1="107.68" y1="301.13" x2="107.68" y2="141.27" gradientUnits="userSpaceOnUse">
      <stop offset="0" stop-color="#83b5d0"/>
      <stop offset="1" stop-color="#98c1d9"/>
    </linearGradient>
    <linearGradient id="Degradado_sin_nombre_7-2" data-name="Degradado sin nombre 7" x1="37.69" y1="361.83" x2="37.69" y2="286.55" xlink:href="#Degradado_sin_nombre_7"/>
    <linearGradient id="Degradado_sin_nombre_135" data-name="Degradado sin nombre 135" x1="129.52" y1="355.62" x2="92.91" y2="262.62" gradientUnits="userSpaceOnUse">
      <stop offset="0" stop-color="#dbeaf2"/>
      <stop offset="1" stop-color="#b0d0e3"/>
    </linearGradient>
    <linearGradient id="Degradado_sin_nombre_133" data-name="Degradado sin nombre 133" x1="109.41" y1="344.32" x2="81.25" y2="272.81" gradientUnits="userSpaceOnUse">
      <stop offset="0" stop-color="#98c1d9" stop-opacity=".4"/>
      <stop offset="1" stop-color="#98c1d9"/>
    </linearGradient>
    <linearGradient id="Degradado_sin_nombre_133-2" data-name="Degradado sin nombre 133" x1="139.93" y1="344.32" x2="111.77" y2="272.81" xlink:href="#Degradado_sin_nombre_133"/>
    <linearGradient id="Degradado_sin_nombre_133-3" data-name="Degradado sin nombre 133" x1="111.13" y1="326.38" x2="90.97" y2="275.19" xlink:href="#Degradado_sin_nombre_133"/>
    <linearGradient id="Degradado_sin_nombre_133-4" data-name="Degradado sin nombre 133" x1="108.03" y1="323.59" x2="90.1" y2="278.05" xlink:href="#Degradado_sin_nombre_133"/>
    <linearGradient id="Degradado_sin_nombre_133-5" data-name="Degradado sin nombre 133" x1="112.03" y1="323.59" x2="94.1" y2="278.05" xlink:href="#Degradado_sin_nombre_133"/>
    <linearGradient id="Degradado_sin_nombre_133-6" data-name="Degradado sin nombre 133" x1="89.32" y1="275.85" x2="87.9" y2="272.25" xlink:href="#Degradado_sin_nombre_133"/>
    <linearGradient id="Degradado_sin_nombre_133-7" data-name="Degradado sin nombre 133" x1="89.32" y1="284.48" x2="87.9" y2="280.88" xlink:href="#Degradado_sin_nombre_133"/>
    <linearGradient id="Degradado_sin_nombre_133-8" data-name="Degradado sin nombre 133" x1="89.32" y1="293.11" x2="87.9" y2="289.51" xlink:href="#Degradado_sin_nombre_133"/>
    <linearGradient id="Degradado_sin_nombre_133-9" data-name="Degradado sin nombre 133" x1="89.32" y1="301.74" x2="87.9" y2="298.14" xlink:href="#Degradado_sin_nombre_133"/>
    <linearGradient id="Degradado_sin_nombre_133-10" data-name="Degradado sin nombre 133" x1="140.93" y1="326.38" x2="120.78" y2="275.19" xlink:href="#Degradado_sin_nombre_133"/>
    <linearGradient id="Degradado_sin_nombre_133-11" data-name="Degradado sin nombre 133" x1="119.13" y1="275.85" x2="117.71" y2="272.25" xlink:href="#Degradado_sin_nombre_133"/>
    <linearGradient id="Degradado_sin_nombre_133-12" data-name="Degradado sin nombre 133" x1="119.13" y1="284.48" x2="117.71" y2="280.88" xlink:href="#Degradado_sin_nombre_133"/>
    <linearGradient id="Degradado_sin_nombre_133-13" data-name="Degradado sin nombre 133" x1="119.13" y1="293.11" x2="117.71" y2="289.51" xlink:href="#Degradado_sin_nombre_133"/>
    <linearGradient id="Degradado_sin_nombre_133-14" data-name="Degradado sin nombre 133" x1="119.13" y1="301.74" x2="117.71" y2="298.14" xlink:href="#Degradado_sin_nombre_133"/>
    <linearGradient id="Degradado_sin_nombre_133-15" data-name="Degradado sin nombre 133" x1="137.84" y1="323.59" x2="119.91" y2="278.05" xlink:href="#Degradado_sin_nombre_133"/>
    <linearGradient id="Degradado_sin_nombre_133-16" data-name="Degradado sin nombre 133" x1="141.83" y1="323.59" x2="123.9" y2="278.05" xlink:href="#Degradado_sin_nombre_133"/>
    <linearGradient id="Degradado_sin_nombre_132" data-name="Degradado sin nombre 132" x1="291.97" y1="369.04" x2="166.61" y2="175.41" gradientUnits="userSpaceOnUse">
      <stop offset="0" stop-color="#98c1d9"/>
      <stop offset="1" stop-color="#a5c9de"/>
    </linearGradient>
    <linearGradient id="Degradado_sin_nombre_131" data-name="Degradado sin nombre 131" x1="277.89" y1="192.34" x2="353.43" y2="422.86" gradientUnits="userSpaceOnUse">
      <stop offset="0" stop-color="#98c1d9"/>
      <stop offset=".76" stop-color="#98c1d9" stop-opacity="0"/>
    </linearGradient>
    <linearGradient id="Degradado_sin_nombre_131-2" data-name="Degradado sin nombre 131" x1="237.67" y1="160.36" x2="332.55" y2="160.36" xlink:href="#Degradado_sin_nombre_131"/>
    <linearGradient id="Degradado_sin_nombre_130" data-name="Degradado sin nombre 130" x1="151.28" y1="210.47" x2="205.63" y2="220.58" gradientUnits="userSpaceOnUse">
      <stop offset="0" stop-color="#98c1d9"/>
      <stop offset="1" stop-color="#98c1d9" stop-opacity=".4"/>
    </linearGradient>
    <linearGradient id="Degradado_sin_nombre_130-2" data-name="Degradado sin nombre 130" x1="189.34" y1="214.63" x2="199.93" y2="216.6" xlink:href="#Degradado_sin_nombre_130"/>
    <linearGradient id="Degradado_sin_nombre_130-3" data-name="Degradado sin nombre 130" x1="151.28" y1="226.04" x2="205.63" y2="236.15" xlink:href="#Degradado_sin_nombre_130"/>
    <linearGradient id="Degradado_sin_nombre_130-4" data-name="Degradado sin nombre 130" x1="189.34" y1="230.2" x2="199.93" y2="232.17" xlink:href="#Degradado_sin_nombre_130"/>
    <linearGradient id="Degradado_sin_nombre_130-5" data-name="Degradado sin nombre 130" x1="151.28" y1="241.62" x2="205.63" y2="251.73" xlink:href="#Degradado_sin_nombre_130"/>
    <linearGradient id="Degradado_sin_nombre_130-6" data-name="Degradado sin nombre 130" x1="189.66" y1="246.55" x2="192.08" y2="247" xlink:href="#Degradado_sin_nombre_130"/>
    <linearGradient id="Degradado_sin_nombre_130-7" data-name="Degradado sin nombre 130" x1="193.51" y1="246.55" x2="195.93" y2="247" xlink:href="#Degradado_sin_nombre_130"/>
    <linearGradient id="Degradado_sin_nombre_130-8" data-name="Degradado sin nombre 130" x1="197.36" y1="246.55" x2="199.77" y2="247" xlink:href="#Degradado_sin_nombre_130"/>
    <linearGradient id="Degradado_sin_nombre_130-9" data-name="Degradado sin nombre 130" x1="151.28" y1="257.19" x2="205.63" y2="267.3" xlink:href="#Degradado_sin_nombre_130"/>
    <linearGradient id="Degradado_sin_nombre_130-10" data-name="Degradado sin nombre 130" x1="189.66" y1="262.13" x2="192.08" y2="262.58" xlink:href="#Degradado_sin_nombre_130"/>
    <linearGradient id="Degradado_sin_nombre_125-4" data-name="Degradado sin nombre 125" x1="193.51" y1="262.13" x2="195.93" y2="262.58" xlink:href="#Degradado_sin_nombre_125"/>
    <linearGradient id="Degradado_sin_nombre_130-11" data-name="Degradado sin nombre 130" x1="197.36" y1="262.13" x2="199.77" y2="262.58" xlink:href="#Degradado_sin_nombre_130"/>
    <linearGradient id="Degradado_sin_nombre_130-12" data-name="Degradado sin nombre 130" x1="151.28" y1="272.77" x2="205.63" y2="282.88" xlink:href="#Degradado_sin_nombre_130"/>
    <linearGradient id="Degradado_sin_nombre_130-13" data-name="Degradado sin nombre 130" x1="189.66" y1="277.7" x2="192.08" y2="278.15" xlink:href="#Degradado_sin_nombre_130"/>
    <linearGradient id="Degradado_sin_nombre_130-14" data-name="Degradado sin nombre 130" x1="193.51" y1="277.7" x2="195.93" y2="278.15" xlink:href="#Degradado_sin_nombre_130"/>
    <linearGradient id="Degradado_sin_nombre_130-15" data-name="Degradado sin nombre 130" x1="197.36" y1="277.7" x2="199.77" y2="278.15" xlink:href="#Degradado_sin_nombre_130"/>
    <linearGradient id="Degradado_sin_nombre_130-16" data-name="Degradado sin nombre 130" x1="151.28" y1="288.34" x2="205.63" y2="298.45" xlink:href="#Degradado_sin_nombre_130"/>
    <linearGradient id="Degradado_sin_nombre_130-17" data-name="Degradado sin nombre 130" x1="189.66" y1="293.28" x2="192.08" y2="293.73" xlink:href="#Degradado_sin_nombre_130"/>
    <linearGradient id="Degradado_sin_nombre_130-18" data-name="Degradado sin nombre 130" x1="193.51" y1="293.28" x2="195.93" y2="293.73" xlink:href="#Degradado_sin_nombre_130"/>
    <linearGradient id="Degradado_sin_nombre_130-19" data-name="Degradado sin nombre 130" x1="197.36" y1="293.28" x2="199.77" y2="293.73" xlink:href="#Degradado_sin_nombre_130"/>
    <linearGradient id="Degradado_sin_nombre_130-20" data-name="Degradado sin nombre 130" x1="212.37" y1="210.47" x2="266.71" y2="220.58" xlink:href="#Degradado_sin_nombre_130"/>
    <linearGradient id="Degradado_sin_nombre_130-21" data-name="Degradado sin nombre 130" x1="250.75" y1="215.4" x2="253.17" y2="215.85" xlink:href="#Degradado_sin_nombre_130"/>
    <linearGradient id="Degradado_sin_nombre_130-22" data-name="Degradado sin nombre 130" x1="254.59" y1="215.4" x2="257.01" y2="215.85" xlink:href="#Degradado_sin_nombre_130"/>
    <linearGradient id="Degradado_sin_nombre_130-23" data-name="Degradado sin nombre 130" x1="258.44" y1="215.4" x2="260.86" y2="215.85" xlink:href="#Degradado_sin_nombre_130"/>
    <linearGradient id="Degradado_sin_nombre_130-24" data-name="Degradado sin nombre 130" x1="212.37" y1="226.04" x2="266.71" y2="236.15" xlink:href="#Degradado_sin_nombre_130"/>
    <linearGradient id="Degradado_sin_nombre_130-25" data-name="Degradado sin nombre 130" x1="250.75" y1="230.98" x2="253.17" y2="231.43" xlink:href="#Degradado_sin_nombre_130"/>
    <linearGradient id="Degradado_sin_nombre_130-26" data-name="Degradado sin nombre 130" x1="254.59" y1="230.98" x2="257.01" y2="231.43" xlink:href="#Degradado_sin_nombre_130"/>
    <linearGradient id="Degradado_sin_nombre_130-27" data-name="Degradado sin nombre 130" x1="258.44" y1="230.98" x2="260.86" y2="231.43" xlink:href="#Degradado_sin_nombre_130"/>
    <linearGradient id="Degradado_sin_nombre_130-28" data-name="Degradado sin nombre 130" x1="212.37" y1="241.62" x2="266.71" y2="251.73" xlink:href="#Degradado_sin_nombre_130"/>
    <linearGradient id="Degradado_sin_nombre_130-29" data-name="Degradado sin nombre 130" x1="250.75" y1="246.55" x2="253.17" y2="247" xlink:href="#Degradado_sin_nombre_130"/>
    <linearGradient id="Degradado_sin_nombre_130-30" data-name="Degradado sin nombre 130" x1="254.59" y1="246.55" x2="257.01" y2="247" xlink:href="#Degradado_sin_nombre_130"/>
    <linearGradient id="Degradado_sin_nombre_130-31" data-name="Degradado sin nombre 130" x1="258.44" y1="246.55" x2="260.86" y2="247" xlink:href="#Degradado_sin_nombre_130"/>
    <linearGradient id="Degradado_sin_nombre_130-32" data-name="Degradado sin nombre 130" x1="212.37" y1="257.19" x2="266.71" y2="267.3" xlink:href="#Degradado_sin_nombre_130"/>
    <linearGradient id="Degradado_sin_nombre_130-33" data-name="Degradado sin nombre 130" x1="250.75" y1="262.13" x2="253.17" y2="262.58" xlink:href="#Degradado_sin_nombre_130"/>
    <linearGradient id="Degradado_sin_nombre_130-34" data-name="Degradado sin nombre 130" x1="254.59" y1="262.13" x2="257.01" y2="262.58" xlink:href="#Degradado_sin_nombre_130"/>
    <linearGradient id="Degradado_sin_nombre_130-35" data-name="Degradado sin nombre 130" x1="258.44" y1="262.13" x2="260.86" y2="262.58" xlink:href="#Degradado_sin_nombre_130"/>
    <linearGradient id="Degradado_sin_nombre_130-36" data-name="Degradado sin nombre 130" x1="212.37" y1="272.77" x2="266.71" y2="282.88" xlink:href="#Degradado_sin_nombre_130"/>
    <linearGradient id="Degradado_sin_nombre_130-37" data-name="Degradado sin nombre 130" x1="250.75" y1="277.7" x2="253.17" y2="278.15" xlink:href="#Degradado_sin_nombre_130"/>
    <linearGradient id="Degradado_sin_nombre_130-38" data-name="Degradado sin nombre 130" x1="254.59" y1="277.7" x2="257.01" y2="278.15" xlink:href="#Degradado_sin_nombre_130"/>
    <linearGradient id="Degradado_sin_nombre_130-39" data-name="Degradado sin nombre 130" x1="258.44" y1="277.7" x2="260.86" y2="278.15" xlink:href="#Degradado_sin_nombre_130"/>
    <linearGradient id="Degradado_sin_nombre_130-40" data-name="Degradado sin nombre 130" x1="212.37" y1="288.34" x2="266.71" y2="298.45" xlink:href="#Degradado_sin_nombre_130"/>
    <linearGradient id="Degradado_sin_nombre_130-41" data-name="Degradado sin nombre 130" x1="250.75" y1="293.28" x2="253.17" y2="293.73" xlink:href="#Degradado_sin_nombre_130"/>
    <linearGradient id="Degradado_sin_nombre_130-42" data-name="Degradado sin nombre 130" x1="254.59" y1="293.28" x2="257.01" y2="293.73" xlink:href="#Degradado_sin_nombre_130"/>
    <linearGradient id="Degradado_sin_nombre_130-43" data-name="Degradado sin nombre 130" x1="258.44" y1="293.28" x2="260.86" y2="293.73" xlink:href="#Degradado_sin_nombre_130"/>
    <linearGradient id="Degradado_sin_nombre_129" data-name="Degradado sin nombre 129" x1="360.52" y1="239.12" x2="426.45" y2="140.23" gradientUnits="userSpaceOnUse">
      <stop offset="0" stop-color="#0a5b74" stop-opacity=".2"/>
      <stop offset="1" stop-color="#063848" stop-opacity=".8"/>
    </linearGradient>
    <linearGradient id="Degradado_sin_nombre_128" data-name="Degradado sin nombre 128" x1="354.29" y1="192.75" x2="428.57" y2="192.75" gradientUnits="userSpaceOnUse">
      <stop offset="0" stop-color="#0ac9bd" stop-opacity=".4"/>
      <stop offset="1" stop-color="#05afe2"/>
    </linearGradient>
    <linearGradient id="Degradado_sin_nombre_128-2" data-name="Degradado sin nombre 128" x1="345.51" y1="149.23" x2="396.69" y2="167.65" xlink:href="#Degradado_sin_nombre_128"/>
    <linearGradient id="Degradado_sin_nombre_128-3" data-name="Degradado sin nombre 128" x1="419.96" y1="181.11" x2="379.13" y2="170.69" xlink:href="#Degradado_sin_nombre_128"/>
    <linearGradient id="Degradado_sin_nombre_128-4" data-name="Degradado sin nombre 128" x1="379.1" y1="233.87" x2="379.1" y2="189.43" xlink:href="#Degradado_sin_nombre_128"/>
    <linearGradient id="Degradado_sin_nombre_126" data-name="Degradado sin nombre 126" x1="360.21" y1="315.88" x2="360.21" y2="191.01" gradientUnits="userSpaceOnUse">
      <stop offset="0" stop-color="#0a5b74" stop-opacity=".4"/>
      <stop offset="1" stop-color="#063848"/>
    </linearGradient>
    <linearGradient id="Degradado_sin_nombre_126-2" data-name="Degradado sin nombre 126" x1="386.14" y1="304.35" x2="386.14" y2="278.59" xlink:href="#Degradado_sin_nombre_126"/>
    <linearGradient id="Degradado_sin_nombre_125-5" data-name="Degradado sin nombre 125" x1="391.51" y1="110.41" x2="391.51" y2="72.7" gradientTransform="translate(418.79 -309.59) rotate(80.73)" xlink:href="#Degradado_sin_nombre_125"/>
    <linearGradient id="Degradado_sin_nombre_125-6" data-name="Degradado sin nombre 125" x1="108.31" y1="247.48" x2="108.31" y2="193.27" xlink:href="#Degradado_sin_nombre_125"/>
  </defs>
  <g class="cls-110">
    <g id="Layer_2" data-name="Layer 2">
      <g id="OBJECTS">
        <g>
          <g>
            <g>
              <g>
                <line class="cls-103" x1="195.87" y1="1.79" x2="195.87" y2="175.48"/>
                <circle class="cls-58" cx="195.87" cy="1.88" r="1.88"/>
              </g>
              <rect class="cls-16" x="173.79" y="11.2" width="43.84" height="79.26" rx="4" ry="4"/>
            </g>
            <line class="cls-98" x1="211.2" y1="19.03" x2="211.2" y2="83.95"/>
            <line class="cls-98" x1="201.22" y1="19.03" x2="201.22" y2="83.95"/>
            <line class="cls-98" x1="191.24" y1="19.03" x2="191.24" y2="83.95"/>
            <line class="cls-98" x1="181.26" y1="19.03" x2="181.26" y2="83.95"/>
            <path class="cls-47" d="m213.36,63.8h-4.32c-.76,0-1.37-.61-1.37-1.37h0c0-.76.61-1.37,1.37-1.37h4.32c.76,0,1.37.61,1.37,1.37h0c0,.76-.61,1.37-1.37,1.37Z"/>
            <path class="cls-47" d="m203.38,51.49h-4.32c-.76,0-1.37-.61-1.37-1.37h0c0-.76.61-1.37,1.37-1.37h4.32c.76,0,1.37.61,1.37,1.37h0c0,.76-.61,1.37-1.37,1.37Z"/>
            <path class="cls-47" d="m193.1,62.93h-4.32c-.76,0-1.37-.61-1.37-1.37h0c0-.76.61-1.37,1.37-1.37h4.32c.76,0,1.37.61,1.37,1.37h0c0,.76-.61,1.37-1.37,1.37Z"/>
            <path class="cls-47" d="m183.42,43.82h-4.32c-.76,0-1.37-.61-1.37-1.37h0c0-.76.61-1.37,1.37-1.37h4.32c.76,0,1.37.61,1.37,1.37h0c0,.76-.61,1.37-1.37,1.37Z"/>
          </g>
          <path class="cls-105" d="m319.79,83.95v18c0,2.54-2.06,4.6-4.6,4.6h-28.05l-14.83,27.05v43.31"/>
          <path class="cls-58" d="m341.64,36.8h-46.95c-2.13,0-3.85,1.72-3.85,3.85v46.95c0,2.13,1.72,3.85,3.85,3.85h16.29l8.81,8.02v.13l.07-.06.07.06v-.13l8.81-8.02h12.91c2.13,0,3.85-1.72,3.85-3.85v-46.95c0-2.13-1.72-3.85-3.85-3.85Z"/>
          <g>
            <line class="cls-105" x1="251.98" y1="68.98" x2="251.98" y2="175.48"/>
            <rect class="cls-48" x="224.66" y="76.3" width="54.65" height="33.16" rx="4" ry="4"/>
            <rect class="cls-57" x="224.66" y="34.38" width="54.65" height="36.46" rx="4" ry="4"/>
            <text class="cls-97" transform="translate(234.35 59.7)"><tspan x="0" y="0">&lt;/&gt;</tspan></text>
          </g>
          <path class="cls-80" d="m136.99,82.25c0-5,0-9.99,0-14.99,0-2.15,1.3-3.46,3.46-3.46,7.3,0,14.6,0,21.91,0,2.33,0,3.59,1.28,3.59,3.6,0,9.89,0,19.77,0,29.66,0,2.42-1.24,3.65-3.67,3.64-7.3,0-14.6,0-21.91,0-1.71,0-2.98-.96-3.32-2.49-.06-.29-.07-.6-.07-.9,0-5.02,0-10.04,0-15.06Zm24.04-7.51c.76,0,.97-.2.97-.95,0-1.59,0-3.19,0-4.78,0-.9-.16-1.07-1.05-1.07-6.33,0-12.66,0-18.99,0-.84,0-1.04.2-1.04,1.02,0,1.57,0,3.14,0,4.72,0,.88.18,1.06,1.06,1.06,3.16,0,15.87,0,19.05,0Zm-9.55,17.01c-.52,0-1.03.01-1.55,0-.59-.02-.89.26-.89.84,0,1.03,0,2.06,0,3.09,0,.57.27.89.86.89,1.05,0,2.11,0,3.16,0,.56,0,.82-.31.82-.85,0-1.05,0-2.11,0-3.16,0-.56-.29-.82-.85-.81-.52,0-1.03,0-1.55,0Zm-8.13,0h0c-.52,0-1.03,0-1.55,0-.58-.01-.89.24-.89.84,0,1.05,0,2.1,0,3.16,0,.56.29.83.84.83,1.05,0,2.1,0,3.16,0,.55,0,.82-.3.82-.85,0-1.05,0-2.1,0-3.16,0-.56-.29-.82-.84-.82-.52,0-1.03,0-1.55,0Zm10.52-11.94c0-.52,0-1.03,0-1.55,0-.55-.25-.83-.83-.83-1.05.01-2.11.01-3.16,0-.57,0-.84.26-.84.81,0,1.05,0,2.11,0,3.16,0,.54.27.84.83.84,1.05,0,2.11,0,3.16,0,.56,0,.83-.28.84-.83,0-.54,0-1.07,0-1.61Zm-10.5-2.37c-.54,0-1.07,0-1.61,0-.56-.01-.85.25-.85.81,0,1.05,0,2.1,0,3.16,0,.54.26.85.82.85,1.05,0,2.1,0,3.16,0,.56,0,.84-.27.85-.82,0-1.07,0-2.15,0-3.22,0-.53-.29-.78-.82-.77-.52,0-1.03,0-1.55,0Zm0,11.96c.52,0,1.03,0,1.55,0,.52,0,.82-.25.82-.77.01-1.1.01-2.19,0-3.29,0-.48-.27-.75-.77-.75-1.07,0-2.15,0-3.22,0-.57,0-.82.29-.82.84,0,1.05,0,2.1,0,3.16,0,.56.29.82.84.82.54,0,1.07,0,1.61,0Zm8.06,0h0c.56,0,1.12,0,1.68,0,.5,0,.76-.27.77-.76.01-1.1.01-2.19,0-3.29,0-.48-.26-.76-.76-.76-1.1,0-2.19,0-3.29,0-.5,0-.76.28-.77.76-.02,1.1-.02,2.19,0,3.29,0,.48.26.76.77.76.54,0,1.07,0,1.61,0Zm8.2,2.36h0c-.56,0-1.12,0-1.68,0-.5,0-.76.28-.77.76-.01,1.1-.02,2.19,0,3.29,0,.48.28.76.77.77,1.1.01,2.19.01,3.29,0,.49,0,.76-.27.76-.77,0-1.1,0-2.19,0-3.29,0-.49-.26-.76-.76-.76-.54,0-1.07,0-1.61,0Zm.01-14.32c-.56,0-1.12,0-1.68,0-.5,0-.77.25-.78.74-.01,1.1-.01,2.19,0,3.29,0,.48.26.77.75.78,1.1,0,2.19,0,3.29,0,.49,0,.77-.25.77-.75,0-1.1,0-2.19,0-3.29,0-.53-.28-.78-.81-.77-.52,0-1.03,0-1.55,0Zm2.36,9.59c0-.56,0-1.12,0-1.67,0-.49-.25-.76-.75-.77-1.1,0-2.19,0-3.29,0-.5,0-.76.28-.77.76-.02,1.1-.01,2.19,0,3.29,0,.48.27.76.76.77,1.1,0,2.19,0,3.29,0,.5,0,.76-.26.76-.75,0-.54,0-1.07,0-1.61Z"/>
          <g class="cls-107">
            <path class="cls-50" d="m66.68,171.79c-1.45-3.83-2.96-7.85-4.49-11.87-1.08-2.85-.49-4.52,2.13-6.02,2.35-1.34,4.69-2.69,7.03-4.03,2.17-1.24,4-.91,5.59,1.01,2.66,3.21,5.32,6.42,7.96,9.66.44.54.81.65,1.51.45,3.2-.92,6.42-1.77,9.65-2.59.58-.15.83-.34.92-.94.65-4.15,1.34-8.3,2.03-12.44.41-2.47,1.88-3.73,4.4-3.74,2.87,0,5.74-.01,8.61,0,2.35.01,3.84,1.25,4.23,3.56.71,4.18,1.41,8.35,2.07,12.54.11.68.38.89,1.04,1.05,3.23.81,6.45,1.67,9.65,2.59.63.18.94.08,1.34-.4,2.61-3.21,5.26-6.39,7.9-9.58,1.76-2.13,3.51-2.44,5.89-1.07,2.31,1.33,4.63,2.66,6.95,3.98,2.53,1.45,3.13,3.11,2.09,5.87-1.42,3.78-2.84,7.56-4.29,11.32-.25.65-.18,1.03.35,1.54,2.4,2.31,4.75,4.68,7.08,7.07.44.45.76.56,1.36.33,3.89-1.5,7.8-2.95,11.7-4.41,2.42-.91,4.21-.27,5.51,1.96,1.4,2.43,2.8,4.86,4.19,7.29,1.25,2.19.9,4.04-1.06,5.67-3.22,2.66-6.43,5.32-9.67,7.94-.53.43-.59.77-.4,1.42.9,3.14,1.77,6.28,2.55,9.45.19.79.49,1.08,1.26,1.2,4.12.64,8.23,1.33,12.34,2.02,2.33.39,3.62,1.91,3.63,4.29.01,2.87.01,5.74,0,8.61,0,2.37-1.3,3.91-3.63,4.3-4.18.7-8.36,1.39-12.54,2.04-.64.1-.86.38-1.01.98-.82,3.23-1.68,6.45-2.59,9.65-.19.66-.09.99.43,1.41,3.27,2.65,6.51,5.33,9.75,8.01,1.85,1.53,2.2,3.42,1.01,5.52-1.42,2.49-2.85,4.98-4.29,7.46-1.23,2.11-3.06,2.75-5.37,1.88-3.81-1.43-7.63-2.83-11.42-4.31-.83-.32-1.28-.26-1.93.44-2.22,2.35-4.54,4.61-6.87,6.85-.49.47-.6.81-.36,1.45,1.47,3.79,2.89,7.61,4.33,11.41,1.03,2.75.43,4.39-2.12,5.85-2.29,1.31-4.57,2.62-6.86,3.93-2.43,1.4-4.21,1.08-5.98-1.06-2.63-3.19-5.28-6.37-7.89-9.59-.41-.5-.74-.54-1.34-.37-3.21.9-6.42,1.77-9.65,2.58-.65.16-.91.4-1.02,1.07-.66,4.18-1.36,8.36-2.07,12.54-.39,2.28-1.92,3.55-4.24,3.57-2.87.02-5.74.01-8.61,0-2.43,0-3.97-1.29-4.37-3.68-.69-4.14-1.39-8.29-2.02-12.44-.11-.71-.42-.9-1.04-1.06-3.23-.83-6.45-1.68-9.65-2.59-.62-.18-.94-.09-1.33.4-2.63,3.23-5.3,6.45-7.96,9.66-1.66,2.01-3.49,2.35-5.75,1.06-2.43-1.39-4.87-2.78-7.29-4.18-2.16-1.25-2.82-3.08-1.93-5.44,1.45-3.87,2.89-7.75,4.39-11.6.28-.72.12-1.08-.41-1.59-2.33-2.24-4.63-4.52-6.87-6.85-.54-.56-.91-.74-1.68-.44-3.82,1.49-7.67,2.91-11.51,4.36-2.43.91-4.22.29-5.51-1.94-1.42-2.45-2.84-4.91-4.24-7.38-1.21-2.12-.88-3.96,1-5.51,3.24-2.68,6.49-5.35,9.75-8.01.46-.37.65-.67.46-1.33-.92-3.2-1.79-6.42-2.6-9.65-.17-.69-.42-.97-1.14-1.09-4.15-.64-8.3-1.33-12.44-2.02-2.34-.39-3.59-1.91-3.6-4.31,0-2.87,0-5.74,0-8.61,0-2.41,1.26-3.89,3.61-4.28,4.08-.68,8.16-1.37,12.25-1.99.87-.13,1.17-.49,1.37-1.33.76-3.11,1.59-6.2,2.49-9.26.22-.75.1-1.11-.47-1.58-3.24-2.63-6.45-5.29-9.67-7.95-1.88-1.56-2.22-3.4-1.01-5.51,1.42-2.49,2.85-4.98,4.29-7.46,1.24-2.12,3.06-2.76,5.37-1.9,3.93,1.47,7.86,2.97,11.81,4.42.32.12.9.09,1.11-.12,2.6-2.63,5.16-5.3,7.88-8.13Zm77.91,79.99c-.11-.09-.16-.14-.22-.17-6.84-3.96-13.7-7.9-20.53-11.89-.59-.34-.89-.09-1.3.23-8.78,6.94-20.95,6.96-29.76.03-.58-.45-.97-.43-1.56-.09-6.58,3.82-13.17,7.61-19.76,11.41-.25.14-.48.32-.72.48,18.7,23.15,55.3,23.05,73.85,0Zm7.96-13.9c10.77-27.91-7.32-59.23-36.89-63.83v.99c0,7.51.01,15.01-.02,22.52,0,.79.23,1.15.97,1.44,10.29,4.1,16.41,14.71,14.77,25.61-.12.78.08,1.11.72,1.47,4.49,2.56,8.96,5.16,13.43,7.75,2.33,1.35,4.67,2.69,7.01,4.05Zm-52.91-63.86c-31.33,5.3-47.29,37.88-36.87,63.75.06-.01.13,0,.19-.04,6.85-3.95,13.7-7.89,20.53-11.87.27-.16.46-.77.41-1.13-1.54-11.15,4.46-21.59,14.89-25.78.69-.28.86-.63.86-1.32-.02-7.54-.01-15.09-.01-22.63v-.98Z"/>
          </g>
          <g class="cls-107">
            <path class="cls-20" d="m18.38,300.92c-.68-1.8-1.4-3.7-2.11-5.59-.51-1.34-.23-2.13,1-2.83,1.1-.63,2.21-1.27,3.31-1.9,1.02-.58,1.88-.43,2.63.47,1.25,1.51,2.51,3.02,3.75,4.55.21.26.38.31.71.21,1.51-.43,3.02-.83,4.55-1.22.27-.07.39-.16.44-.44.31-1.95.63-3.91.95-5.86.19-1.17.89-1.76,2.07-1.76,1.35,0,2.7,0,4.06,0,1.11,0,1.81.59,1.99,1.68.33,1.97.66,3.93.97,5.9.05.32.18.42.49.49,1.52.38,3.04.79,4.54,1.22.3.09.44.04.63-.19,1.23-1.51,2.48-3.01,3.72-4.51.83-1,1.65-1.15,2.78-.51,1.09.63,2.18,1.25,3.27,1.88,1.19.68,1.47,1.47.98,2.76-.67,1.78-1.34,3.56-2.02,5.33-.12.31-.08.48.16.72,1.13,1.09,2.24,2.2,3.33,3.33.21.21.36.26.64.15,1.83-.71,3.67-1.39,5.51-2.08,1.14-.43,1.98-.13,2.59.92.66,1.14,1.32,2.29,1.97,3.43.59,1.03.43,1.9-.5,2.67-1.51,1.25-3.03,2.5-4.56,3.74-.25.2-.28.36-.19.67.43,1.48.83,2.96,1.2,4.45.09.37.23.51.59.56,1.94.3,3.88.63,5.81.95,1.1.18,1.7.9,1.71,2.02,0,1.35,0,2.7,0,4.06,0,1.11-.61,1.84-1.71,2.03-1.97.33-3.94.65-5.91.96-.3.05-.4.18-.48.46-.39,1.52-.79,3.04-1.22,4.54-.09.31-.04.47.2.67,1.54,1.25,3.06,2.51,4.59,3.77.87.72,1.04,1.61.47,2.6-.67,1.17-1.34,2.35-2.02,3.51-.58.99-1.44,1.29-2.53.89-1.79-.67-3.59-1.33-5.38-2.03-.39-.15-.6-.12-.91.21-1.04,1.11-2.14,2.17-3.24,3.23-.23.22-.28.38-.17.68.69,1.79,1.36,3.58,2.04,5.37.49,1.29.2,2.07-1,2.76-1.08.62-2.15,1.23-3.23,1.85-1.15.66-1.98.51-2.82-.5-1.24-1.5-2.49-3-3.72-4.51-.19-.24-.35-.25-.63-.17-1.51.43-3.02.83-4.55,1.22-.31.08-.43.19-.48.51-.31,1.97-.64,3.94-.97,5.9-.18,1.07-.9,1.67-2,1.68-1.35,0-2.7,0-4.06,0-1.15,0-1.87-.61-2.06-1.73-.33-1.95-.65-3.9-.95-5.86-.05-.33-.2-.42-.49-.5-1.52-.39-3.04-.79-4.54-1.22-.29-.08-.44-.04-.63.19-1.24,1.52-2.49,3.04-3.75,4.55-.78.95-1.65,1.11-2.71.5-1.15-.65-2.29-1.31-3.43-1.97-1.02-.59-1.33-1.45-.91-2.56.68-1.82,1.36-3.65,2.07-5.46.13-.34.05-.51-.19-.75-1.1-1.06-2.18-2.13-3.23-3.23-.26-.27-.43-.35-.79-.21-1.8.7-3.61,1.37-5.42,2.05-1.14.43-1.99.14-2.6-.91-.67-1.16-1.34-2.31-2-3.47-.57-1-.41-1.87.47-2.6,1.53-1.26,3.05-2.52,4.59-3.77.22-.18.31-.31.22-.62-.43-1.51-.84-3.02-1.23-4.54-.08-.33-.2-.46-.53-.51-1.96-.3-3.91-.62-5.86-.95-1.1-.18-1.69-.9-1.7-2.03,0-1.35,0-2.7,0-4.06,0-1.14.59-1.83,1.7-2.02,1.92-.32,3.84-.65,5.77-.94.41-.06.55-.23.65-.62.36-1.46.75-2.92,1.17-4.36.1-.35.05-.52-.22-.74-1.53-1.24-3.04-2.49-4.55-3.74-.89-.73-1.04-1.6-.48-2.59.67-1.17,1.34-2.35,2.02-3.51.58-1,1.44-1.3,2.53-.89,1.85.69,3.7,1.4,5.56,2.08.15.06.42.04.52-.05,1.23-1.24,2.43-2.5,3.71-3.83Zm36.69,37.67c-.05-.04-.08-.07-.1-.08-3.22-1.86-6.45-3.72-9.67-5.6-.28-.16-.42-.04-.61.11-4.14,3.27-9.86,3.28-14.01.02-.27-.21-.46-.2-.74-.04-3.1,1.8-6.2,3.58-9.31,5.37-.12.07-.23.15-.34.23,8.81,10.9,26.04,10.85,34.78,0Zm3.75-6.55c5.07-13.14-3.45-27.89-17.37-30.06v.47c0,3.54,0,7.07,0,10.61,0,.37.11.54.46.68,4.84,1.93,7.73,6.92,6.96,12.06-.06.37.04.52.34.69,2.11,1.21,4.22,2.43,6.33,3.65,1.1.63,2.2,1.27,3.3,1.91Zm-24.91-30.07c-14.76,2.5-22.27,17.84-17.36,30.02.03,0,.06,0,.09-.02,3.23-1.86,6.45-3.71,9.67-5.59.13-.08.22-.36.19-.53-.72-5.25,2.1-10.17,7.01-12.14.33-.13.41-.3.41-.62-.01-3.55,0-7.1,0-10.66v-.46Z"/>
          </g>
          <g>
            <g>
              <rect class="cls-79" x="76.22" y="257.43" width="70.48" height="104.65" rx="3" ry="3"/>
              <rect class="cls-43" x="81.4" y="263.48" width="28.23" height="91.15" rx="3" ry="3"/>
              <rect class="cls-15" x="111.93" y="263.48" width="28.23" height="91.15" rx="3" ry="3"/>
              <rect class="cls-54" x="95.52" y="267.13" width="11.33" height="68.01" rx="1" ry="1"/>
              <g>
                <path class="cls-85" d="m99.19,333.01h0c-.53,0-.96-.43-.96-.96v-61.83c0-.53.43-.96.96-.96h0c.53,0,.96.43.96.96v61.83c0,.53-.43.96-.96.96Z"/>
                <path class="cls-89" d="m103.18,333.01h0c-.53,0-.96-.43-.96-.96v-61.83c0-.53.43-.96.96-.96h0c.53,0,.96.43.96.96v61.83c0,.53-.43.96-.96.96Z"/>
              </g>
              <g>
                <path class="cls-61" d="m90.97,274.07c0,1.3-1.05,2.35-2.35,2.35s-2.35-1.05-2.35-2.35,1.05-2.35,2.35-2.35,2.35,1.05,2.35,2.35Z"/>
                <path class="cls-42" d="m90.97,282.7c0,1.3-1.05,2.35-2.35,2.35s-2.35-1.05-2.35-2.35,1.05-2.35,2.35-2.35,2.35,1.05,2.35,2.35Z"/>
                <path class="cls-87" d="m90.97,291.33c0,1.3-1.05,2.35-2.35,2.35s-2.35-1.05-2.35-2.35,1.05-2.35,2.35-2.35,2.35,1.05,2.35,2.35Z"/>
                <path class="cls-4" d="m90.97,299.97c0,1.3-1.05,2.35-2.35,2.35s-2.35-1.05-2.35-2.35,1.05-2.35,2.35-2.35,2.35,1.05,2.35,2.35Z"/>
              </g>
              <rect class="cls-41" x="125.33" y="267.13" width="11.33" height="68.01" rx="1" ry="1"/>
              <g>
                <path class="cls-36" d="m120.78,274.07c0,1.3-1.05,2.35-2.35,2.35s-2.35-1.05-2.35-2.35,1.05-2.35,2.35-2.35,2.35,1.05,2.35,2.35Z"/>
                <path class="cls-40" d="m120.78,282.7c0,1.3-1.05,2.35-2.35,2.35s-2.35-1.05-2.35-2.35,1.05-2.35,2.35-2.35,2.35,1.05,2.35,2.35Z"/>
                <path class="cls-60" d="m120.78,291.33c0,1.3-1.05,2.35-2.35,2.35s-2.35-1.05-2.35-2.35,1.05-2.35,2.35-2.35,2.35,1.05,2.35,2.35Z"/>
                <path class="cls-3" d="m120.78,299.97c0,1.3-1.05,2.35-2.35,2.35s-2.35-1.05-2.35-2.35,1.05-2.35,2.35-2.35,2.35,1.05,2.35,2.35Z"/>
              </g>
              <g>
                <path class="cls-5" d="m129,333.01h0c-.53,0-.96-.43-.96-.96v-61.83c0-.53.43-.96.96-.96h0c.53,0,.96.43.96.96v61.83c0,.53-.43.96-.96.96Z"/>
                <path class="cls-73" d="m132.99,333.01h0c-.53,0-.96-.43-.96-.96v-61.83c0-.53.43-.96.96-.96h0c.53,0,.96.43.96.96v61.83c0,.53-.43.96-.96.96Z"/>
              </g>
            </g>
            <g>
              <rect class="cls-70" x="185.76" y="162.21" width="98.24" height="33.49"/>
              <rect class="cls-95" x="142.45" y="195.7" width="185.51" height="171.31" rx="3" ry="3"/>
              <rect class="cls-17" x="286.16" y="195.7" width="41.8" height="171.31"/>
              <rect class="cls-49" x="149.77" y="205.55" width="57.03" height="144.63"/>
              <rect class="cls-49" x="211.61" y="205.55" width="57.03" height="144.63"/>
              <polygon class="cls-84" points="284.64 162.21 185.76 162.21 137.86 125.01 332.55 125.01 284.64 162.21"/>
              <polygon class="cls-93" points="260.79 125.01 237.67 162.8 237.67 195.7 284 195.7 284 162.21 284.64 162.21 332.55 125.01 260.79 125.01"/>
              <g>
                <rect class="cls-23" x="154.07" y="210.86" width="49.94" height="9.54" rx="1.67" ry="1.67"/>
                <path class="cls-92" d="m192.02,215.63c0,.62-.5,1.12-1.12,1.12s-1.12-.5-1.12-1.12.5-1.12,1.12-1.12,1.12.5,1.12,1.12Zm2.73-1.12c-.62,0-1.12.5-1.12,1.12s.5,1.12,1.12,1.12,1.12-.5,1.12-1.12-.5-1.12-1.12-1.12Zm3.85,0c-.62,0-1.12.5-1.12,1.12s.5,1.12,1.12,1.12,1.12-.5,1.12-1.12-.5-1.12-1.12-1.12Z"/>
              </g>
              <g>
                <rect class="cls-78" x="154.07" y="226.44" width="49.94" height="9.54" rx="1.67" ry="1.67"/>
                <path class="cls-21" d="m192.02,231.21c0,.62-.5,1.12-1.12,1.12s-1.12-.5-1.12-1.12.5-1.12,1.12-1.12,1.12.5,1.12,1.12Zm2.73-1.12c-.62,0-1.12.5-1.12,1.12s.5,1.12,1.12,1.12,1.12-.5,1.12-1.12-.5-1.12-1.12-1.12Zm3.85,0c-.62,0-1.12.5-1.12,1.12s.5,1.12,1.12,1.12,1.12-.5,1.12-1.12-.5-1.12-1.12-1.12Z"/>
              </g>
              <g>
                <rect class="cls-86" x="154.07" y="242.01" width="49.94" height="9.54" rx="1.67" ry="1.67"/>
                <g>
                  <path class="cls-81" d="m192.02,246.78c0,.62-.5,1.12-1.12,1.12s-1.12-.5-1.12-1.12.5-1.12,1.12-1.12,1.12.5,1.12,1.12Z"/>
                  <path class="cls-76" d="m195.87,246.78c0,.62-.5,1.12-1.12,1.12s-1.12-.5-1.12-1.12.5-1.12,1.12-1.12,1.12.5,1.12,1.12Z"/>
                  <path class="cls-56" d="m199.71,246.78c0,.62-.5,1.12-1.12,1.12s-1.12-.5-1.12-1.12.5-1.12,1.12-1.12,1.12.5,1.12,1.12Z"/>
                </g>
              </g>
              <g>
                <rect class="cls-39" x="154.07" y="257.59" width="49.94" height="9.54" rx="1.67" ry="1.67"/>
                <g>
                  <path class="cls-68" d="m192.02,262.36c0,.62-.5,1.12-1.12,1.12s-1.12-.5-1.12-1.12.5-1.12,1.12-1.12,1.12.5,1.12,1.12Z"/>
                  <path class="cls-6" d="m195.87,262.36c0,.62-.5,1.12-1.12,1.12s-1.12-.5-1.12-1.12.5-1.12,1.12-1.12,1.12.5,1.12,1.12Z"/>
                  <path class="cls-1" d="m199.71,262.36c0,.62-.5,1.12-1.12,1.12s-1.12-.5-1.12-1.12.5-1.12,1.12-1.12,1.12.5,1.12,1.12Z"/>
                </g>
              </g>
              <g>
                <rect class="cls-90" x="154.07" y="273.16" width="49.94" height="9.54" rx="1.67" ry="1.67"/>
                <g>
                  <path class="cls-10" d="m192.02,277.93c0,.62-.5,1.12-1.12,1.12s-1.12-.5-1.12-1.12.5-1.12,1.12-1.12,1.12.5,1.12,1.12Z"/>
                  <path class="cls-88" d="m195.87,277.93c0,.62-.5,1.12-1.12,1.12s-1.12-.5-1.12-1.12.5-1.12,1.12-1.12,1.12.5,1.12,1.12Z"/>
                  <path class="cls-11" d="m199.71,277.93c0,.62-.5,1.12-1.12,1.12s-1.12-.5-1.12-1.12.5-1.12,1.12-1.12,1.12.5,1.12,1.12Z"/>
                </g>
              </g>
              <g>
                <rect class="cls-52" x="154.07" y="288.74" width="49.94" height="9.54" rx="1.67" ry="1.67"/>
                <g>
                  <path class="cls-35" d="m192.02,293.51c0,.62-.5,1.12-1.12,1.12s-1.12-.5-1.12-1.12.5-1.12,1.12-1.12,1.12.5,1.12,1.12Z"/>
                  <circle class="cls-13" cx="194.75" cy="293.51" r="1.12"/>
                  <path class="cls-65" d="m199.71,293.51c0,.62-.5,1.12-1.12,1.12s-1.12-.5-1.12-1.12.5-1.12,1.12-1.12,1.12.5,1.12,1.12Z"/>
                </g>
              </g>
              <g>
                <rect class="cls-74" x="215.16" y="210.86" width="49.94" height="9.54" rx="1.67" ry="1.67"/>
                <g>
                  <path class="cls-44" d="m253.1,215.63c0,.62-.5,1.12-1.12,1.12s-1.12-.5-1.12-1.12.5-1.12,1.12-1.12,1.12.5,1.12,1.12Z"/>
                  <path class="cls-24" d="m256.95,215.63c0,.62-.5,1.12-1.12,1.12s-1.12-.5-1.12-1.12.5-1.12,1.12-1.12,1.12.5,1.12,1.12Z"/>
                  <path class="cls-7" d="m260.79,215.63c0,.62-.5,1.12-1.12,1.12s-1.12-.5-1.12-1.12.5-1.12,1.12-1.12,1.12.5,1.12,1.12Z"/>
                </g>
              </g>
              <g>
                <rect class="cls-28" x="215.16" y="226.44" width="49.94" height="9.54" rx="1.67" ry="1.67"/>
                <g>
                  <path class="cls-32" d="m253.1,231.21c0,.62-.5,1.12-1.12,1.12s-1.12-.5-1.12-1.12.5-1.12,1.12-1.12,1.12.5,1.12,1.12Z"/>
                  <path class="cls-53" d="m256.95,231.21c0,.62-.5,1.12-1.12,1.12s-1.12-.5-1.12-1.12.5-1.12,1.12-1.12,1.12.5,1.12,1.12Z"/>
                  <path class="cls-94" d="m260.79,231.21c0,.62-.5,1.12-1.12,1.12s-1.12-.5-1.12-1.12.5-1.12,1.12-1.12,1.12.5,1.12,1.12Z"/>
                </g>
              </g>
              <g>
                <rect class="cls-66" x="215.16" y="242.01" width="49.94" height="9.54" rx="1.67" ry="1.67"/>
                <g>
                  <path class="cls-33" d="m253.1,246.78c0,.62-.5,1.12-1.12,1.12s-1.12-.5-1.12-1.12.5-1.12,1.12-1.12,1.12.5,1.12,1.12Z"/>
                  <path class="cls-14" d="m256.95,246.78c0,.62-.5,1.12-1.12,1.12s-1.12-.5-1.12-1.12.5-1.12,1.12-1.12,1.12.5,1.12,1.12Z"/>
                  <path class="cls-45" d="m260.79,246.78c0,.62-.5,1.12-1.12,1.12s-1.12-.5-1.12-1.12.5-1.12,1.12-1.12,1.12.5,1.12,1.12Z"/>
                </g>
              </g>
              <g>
                <rect class="cls-82" x="215.16" y="257.59" width="49.94" height="9.54" rx="1.67" ry="1.67"/>
                <g>
                  <path class="cls-62" d="m253.1,262.36c0,.62-.5,1.12-1.12,1.12s-1.12-.5-1.12-1.12.5-1.12,1.12-1.12,1.12.5,1.12,1.12Z"/>
                  <path class="cls-27" d="m256.95,262.36c0,.62-.5,1.12-1.12,1.12s-1.12-.5-1.12-1.12.5-1.12,1.12-1.12,1.12.5,1.12,1.12Z"/>
                  <path class="cls-67" d="m260.79,262.36c0,.62-.5,1.12-1.12,1.12s-1.12-.5-1.12-1.12.5-1.12,1.12-1.12,1.12.5,1.12,1.12Z"/>
                </g>
              </g>
              <g>
                <rect class="cls-75" x="215.16" y="273.16" width="49.94" height="9.54" rx="1.67" ry="1.67"/>
                <g>
                  <path class="cls-12" d="m253.1,277.93c0,.62-.5,1.12-1.12,1.12s-1.12-.5-1.12-1.12.5-1.12,1.12-1.12,1.12.5,1.12,1.12Z"/>
                  <path class="cls-91" d="m256.95,277.93c0,.62-.5,1.12-1.12,1.12s-1.12-.5-1.12-1.12.5-1.12,1.12-1.12,1.12.5,1.12,1.12Z"/>
                  <path class="cls-38" d="m260.79,277.93c0,.62-.5,1.12-1.12,1.12s-1.12-.5-1.12-1.12.5-1.12,1.12-1.12,1.12.5,1.12,1.12Z"/>
                </g>
              </g>
              <g>
                <rect class="cls-18" x="215.16" y="288.74" width="49.94" height="9.54" rx="1.67" ry="1.67"/>
                <g>
                  <path class="cls-77" d="m253.1,293.51c0,.62-.5,1.12-1.12,1.12s-1.12-.5-1.12-1.12.5-1.12,1.12-1.12,1.12.5,1.12,1.12Z"/>
                  <path class="cls-71" d="m256.95,293.51c0,.62-.5,1.12-1.12,1.12s-1.12-.5-1.12-1.12.5-1.12,1.12-1.12,1.12.5,1.12,1.12Z"/>
                  <circle class="cls-72" cx="259.68" cy="293.51" r="1.12"/>
                </g>
              </g>
            </g>
          </g>
          <g>
            <g class="cls-99">
              <rect class="cls-101" x="354.54" y="142.57" width="73.79" height="100.37" rx="4.59" ry="4.59"/>
              <rect class="cls-30" x="344.73" y="150.82" width="58.26" height="17.24" rx="3" ry="3"/>
              <path class="cls-64" d="m418.48,179.17h-37.94c-1.81,0-3.28-1.47-3.28-3.28h0c0-1.81,1.47-3.28,3.28-3.28h37.94c1.81,0,3.28,1.47,3.28,3.28h0c0,1.81-1.47,3.28-3.28,3.28Z"/>
              <path class="cls-2" d="m397.28,185.6h-37.04c-.77,0-1.4-.63-1.4-1.4h0c0-.77.63-1.4,1.4-1.4h37.04c.77,0,1.4.63,1.4,1.4h0c0,.77-.63,1.4-1.4,1.4Z"/>
              <path class="cls-37" d="m361.5,189.43h35.19c1.09,0,1.98.89,1.98,1.98v40.48c0,1.09-.89,1.98-1.98,1.98h-35.19c-1.09,0-1.98-.89-1.98-1.98v-40.48c0-1.09.89-1.98,1.98-1.98Z"/>
            </g>
            <g>
              <g>
                <rect class="cls-25" x="306.33" y="191.01" width="107.77" height="124.88" rx="3.41" ry="3.41"/>
                <line class="cls-106" x1="314.77" y1="200.03" x2="391.64" y2="200.03"/>
                <g>
                  <line class="cls-108" x1="320.48" y1="211.71" x2="397.35" y2="211.71"/>
                  <line class="cls-109" x1="320.48" y1="217.06" x2="363.98" y2="217.06"/>
                  <line class="cls-108" x1="320.48" y1="222.41" x2="397.35" y2="222.41"/>
                  <line class="cls-109" x1="320.48" y1="227.76" x2="375.52" y2="227.76"/>
                </g>
                <g>
                  <line class="cls-108" x1="320.48" y1="251.11" x2="397.35" y2="251.11"/>
                  <line class="cls-109" x1="320.48" y1="256.46" x2="378.48" y2="256.46"/>
                  <line class="cls-108" x1="320.48" y1="261.81" x2="397.35" y2="261.81"/>
                  <line class="cls-109" x1="320.48" y1="267.16" x2="361.16" y2="267.16"/>
                </g>
              </g>
              <line class="cls-102" x1="314.77" y1="240.71" x2="362.01" y2="240.71"/>
              <g>
                <path class="cls-8" d="m386.14,288.56h15.79c0,8.66-7.13,15.79-15.79,15.79s-15.79-7.13-15.79-15.79c0-3.63,1.25-7.15,3.54-9.97l12.25,9.97Z"/>
                <path class="cls-58" d="m386.14,288.56l-12.29-9.92c3-3.71,7.52-5.87,12.29-5.87,8.66,0,15.79,7.13,15.79,15.79,0,.06,0,.13,0,.19l-15.79-.19Z"/>
              </g>
            </g>
            <g>
              <polyline class="cls-103" points="390.42 311.34 390.42 327.07 383.27 334.22 383.27 342.01 281.43 342.01"/>
              <polygon class="cls-58" points="387.94 307.6 390.43 311.79 392.93 307.6 387.94 307.6"/>
              <path class="cls-58" d="m281.52,340.13c-1.04,0-1.88.84-1.88,1.88s.84,1.88,1.88,1.88,1.88-.84,1.88-1.88-.84-1.88-1.88-1.88Z"/>
            </g>
          </g>
          <g>
            <g>
              <path class="cls-103" d="m350.85,61h36.19c2.59,0,4.69,2.1,4.69,4.69v72.51"/>
              <path class="cls-58" d="m350.94,62.88c-1.04,0-1.88-.84-1.88-1.88s.84-1.88,1.88-1.88,1.88.84,1.88,1.88-.84,1.88-1.88,1.88Z"/>
              <path class="cls-58" d="m389.85,138.1c0,1.04.84,1.88,1.88,1.88s1.88-.84,1.88-1.88-.84-1.88-1.88-1.88-1.88.84-1.88,1.88Z"/>
            </g>
            <g>
              <circle class="cls-31" cx="391.51" cy="91.56" r="18.86" transform="translate(238.06 463.2) rotate(-80.73)"/>
              <path class="cls-47" d="m390.98,80.23h1.06c.39.07.79.11,1.17.2,1.5.37,2.74,1.17,3.72,2.37.94,1.15,1.48,2.47,1.58,3.95.05.79.03,1.58.04,2.36,0,.08,0,.16,0,.26.15,0,.27,0,.39,0,.42,0,.73.2.97.53.25.36.32.77.32,1.2,0,3.35,0,6.69,0,10.04,0,.16-.01.32-.03.48-.11.8-.64,1.25-1.44,1.25h-10.3c-1.43,0-2.86,0-4.29,0-.46,0-.8-.2-1.05-.58-.23-.35-.29-.73-.29-1.14,0-3.36,0-6.72,0-10.08,0-.22.03-.44.08-.66.16-.69.63-1.04,1.33-1.05.08,0,.16,0,.26,0v-.26c0-.57-.02-1.14,0-1.7.03-.55.04-1.11.18-1.64.75-2.95,2.6-4.79,5.6-5.43.24-.05.48-.07.71-.11Zm4.63,9.14c0-.06.01-.11.01-.16,0-.64,0-1.28,0-1.92-.02-1.22-.47-2.26-1.39-3.07-1.18-1.05-2.56-1.35-4.05-.83-1.55.55-2.5,1.68-2.73,3.32-.12.86-.04,1.75-.06,2.63,0,.01.02.02.03.04h8.18Zm-5.51,8.34c0,.48,0,.96,0,1.44,0,.5.27.76.77.77.41,0,.83,0,1.24,0,.54,0,.8-.26.8-.8,0-.77,0-1.53,0-2.3,0-.38.03-.72.26-1.07.47-.7.36-1.55-.18-2.22-.46-.56-1.38-.8-2.12-.56-1.27.43-1.72,1.97-.88,3.01.07.08.11.21.11.31.01.47,0,.94,0,1.41Z"/>
            </g>
          </g>
          <g>
            <rect class="cls-83" x="222.82" y="304.3" width="2.94" height="32.73"/>
            <rect class="cls-83" x="223.75" y="304.3" width="2" height="32.73"/>
            <g>
              <path class="cls-69" d="m224.45,316.42l-1.88-1.94c-.32-.33-.84-.33-1.17,0l-1.36,1.39-1.35-1.39c-.33-.33-.85-.33-1.17,0l-1.88,1.94h-1.74c-2.35-5.87-8.07-10.02-14.77-10.02-8.77,0-15.89,7.12-15.89,15.89s7.12,15.89,15.89,15.89c6.72,0,12.45-4.18,14.78-10.07h10.68v-11.7h-.15Zm-28.26,10.39c-2.5,0-4.52-2.03-4.52-4.52s2.02-4.51,4.52-4.51,4.51,2.02,4.51,4.51-2.02,4.52-4.51,4.52Z"/>
              <path class="cls-47" d="m225.61,316.42l-1.88-1.94c-.32-.33-.84-.33-1.17,0l-1.36,1.39-1.35-1.39c-.33-.33-.85-.33-1.17,0l-1.88,1.94h-1.74c-2.35-5.87-8.07-10.02-14.77-10.02-8.77,0-15.89,7.12-15.89,15.89s7.12,15.89,15.89,15.89c6.72,0,12.45-4.18,14.78-10.07h10.68v-11.7h-.15Zm-28.26,10.39c-2.5,0-4.52-2.03-4.52-4.52s2.02-4.51,4.52-4.51,4.51,2.02,4.51,4.51-2.02,4.52-4.51,4.52Z"/>
            </g>
          </g>
          <g>
            <ellipse class="cls-46" cx="152.96" cy="383.36" rx="37.94" ry="2.09"/>
            <g>
              <g>
                <g>
                  <g>
                    <path class="cls-59" d="m187.2,273.22l-.48-.42c-1.01-.88-1.11-2.41-.23-3.42l3.73-4.27s0,0,.02,0l2.62,2.29c.83.73.92,1.99.19,2.83l-2.42,2.77c-.88,1.01-2.41,1.11-3.42.23Z"/>
                    <path class="cls-59" d="m189.56,265.92l1.85-2.35.03-.04c.04-.05.09-.09.15-.12l1.81-.78c.2-.09.43,0,.52.21.08.18,0,.39-.15.49l-1.67,1.05.18-.16-1.71,2.46c-.2.29-.6.36-.89.16s-.36-.6-.16-.89c0-.01.02-.02.02-.03Z"/>
                  </g>
                  <path class="cls-59" d="m188.18,265.38l.11,1.88v.04s-.02.09-.02.09l-.61,2.73c-.08.34-.42.56-.76.48-.34-.08-.56-.42-.48-.76,0-.02.01-.04.02-.06l.87-2.66-.02.13.11-1.88c.01-.22.2-.38.42-.37.2.01.36.17.37.37Z"/>
                </g>
                <path class="cls-59" d="m190.26,266.57l1.5-1.36c.22-.2.55-.18.75.04.16.17.18.42.07.61l-1,1.77c-.23.41-.75.56-1.17.32-.41-.23-.56-.75-.32-1.17.05-.08.11-.15.17-.21Z"/>
                <path class="cls-59" d="m191.22,267.35l1.5-1.36c.22-.2.55-.18.75.04.16.17.18.42.07.61l-1,1.77c-.23.41-.75.56-1.17.32s-.56-.75-.32-1.17c.05-.08.11-.15.17-.21Z"/>
                <path class="cls-59" d="m192.03,267.92l1.49-.9c.25-.15.58-.07.73.18.12.19.1.43-.03.6l-1.05,1.39c-.29.38-.83.45-1.2.16-.38-.29-.45-.83-.16-1.2.07-.09.15-.16.24-.21Z"/>
              </g>
              <g>
                <rect class="cls-59" x="146.75" y="259.26" width="6.78" height="8.29"/>
                <path class="cls-59" d="m150.1,247.77h2.36c2.83,0,5.13,2.3,5.13,5.13v8.83c0,1.75-1.42,3.17-3.17,3.17h-.72c-4.82,0-8.73-3.91-8.73-8.73v-3.27c0-2.83,2.3-5.13,5.13-5.13Z"/>
                <rect class="cls-96" x="148.34" y="253.01" width="1.63" height="5.18" rx=".74" ry=".74"/>
                <polygon class="cls-59" points="157.81 255.79 159.15 258.83 157.26 258.83 157.26 255.8 157.81 255.79"/>
                <path class="cls-104" d="m156.23,260.93s-1.6-.46-1.76-1.88"/>
                <path class="cls-22" d="m156.34,255.57c0,.39-.12.7-.26.7s-.26-.32-.26-.7.12-.7.26-.7.26.32.26.7Z"/>
                <path class="cls-104" d="m154.9,253.69s1.28-.54,1.71.39"/>
                <rect class="cls-29" x="150.82" y="251.6" width="1.47" height="5.96"/>
                <path class="cls-29" d="m151.23,253.01h-3.41v-3.53h6.93c0,1.95-1.58,3.53-3.53,3.53Z"/>
                <path class="cls-29" d="m157.18,250.51h-9.78c-1.27,0-2.29-1.03-2.29-2.29h0c0-1.27,1.03-2.29,2.29-2.29h9.78c1.27,0,2.29,1.03,2.29,2.29h0c0,1.27-1.03,2.29-2.29,2.29Z"/>
                <path class="cls-29" d="m145.01,257.86h0c-.93,0-1.68-.75-1.68-1.68v-6.29c0-.93.75-1.68,1.68-1.68h2.99v6.66c0,1.65-1.34,2.99-2.99,2.99Z"/>
              </g>
              <g>
                <g>
                  <path class="cls-59" d="m127.41,316.79l.11.04c1.27.42,1.96,1.8,1.53,3.07l-1.55,4.64s0,0-.01,0l-2.8-.93c-1.05-.35-1.62-1.49-1.27-2.54l.92-2.74c.42-1.27,1.8-1.96,3.07-1.53Z"/>
                  <path class="cls-59" d="m127.76,323.62l-.72,2.6v.05c-.03.06-.06.11-.1.15l-1.24,1.28c-.14.14-.36.15-.5,0-.13-.12-.14-.32-.04-.46l1.02-1.46-.1.2.57-2.64c.07-.31.37-.51.68-.44.31.07.51.37.44.68,0,.01,0,.02,0,.03Z"/>
                  <path class="cls-59" d="m126.51,323.14l-.72,2.6v.05c-.03.06-.06.11-.1.15l-1.24,1.28c-.14.14-.36.15-.5,0-.13-.12-.14-.32-.04-.46l1.02-1.46-.1.2.57-2.64c.07-.31.37-.51.68-.44.31.07.51.37.44.68,0,.01,0,.02,0,.03Z"/>
                  <path class="cls-59" d="m125.47,322.77l-1.44,2.29-.03.04c-.03.05-.08.09-.13.12l-1.55.87c-.17.1-.39.04-.49-.14-.09-.16-.05-.35.09-.45l1.4-1.1-.15.16,1.3-2.37c.15-.28.5-.38.78-.23.28.15.38.5.23.78,0,0-.01.02-.02.03Z"/>
                  <path class="cls-59" d="m124.22,322.66l-1.76,1.26-.03.02s-.08.04-.13.05l-1.41.18c-.16.02-.3-.09-.32-.25-.02-.14.07-.27.2-.31l1.37-.4-.16.07,1.68-1.37c.2-.16.49-.13.65.07.16.2.13.49-.07.65,0,0-.01.01-.02.02Z"/>
                </g>
                <path class="cls-59" d="m129.1,323.59l-.74-1.53-.02-.03v-.08s-.46-2.49-.46-2.49c-.06-.31.15-.61.47-.67.31-.06.61.15.67.47,0,.02,0,.04,0,.06l.2,2.52-.03-.12.56,1.6c.07.19-.03.39-.22.45-.17.06-.36-.02-.44-.18Z"/>
              </g>
              <g>
                <polygon class="cls-59" points="130.01 374.61 128.87 377.17 132.71 378.87 133.93 376.11 130.01 374.61"/>
                <g>
                  <path class="cls-9" d="m129.24,376.29h.03c.04.1.1.21.19.32.65.84,1.7,1.27,2.76,1.23l.96-.03,2.26,1.8.72-.1c2-.28,3.85,1.36,3.63,3.36,0,.01,0,.03,0,.04h0l-5.84-.1-7.77-3.45.77-1.74c.4-.9,1.33-1.43,2.31-1.33Z"/>
                  <polygon class="cls-34" points="139.88 383.74 133.93 383.61 125.61 379.92 125.97 379.1 134.15 382.73 139.88 382.91 139.88 383.74"/>
                </g>
              </g>
              <g>
                <polygon class="cls-59" points="161.79 376.72 161.79 379.52 165.98 379.52 165.98 376.5 161.79 376.72"/>
                <g>
                  <path class="cls-9" d="m161.76,378.57h.03c.07.06.18.13.3.2.94.5,2.07.47,3.03,0l.86-.42,5.73,1.49c1.38.36,2.47,1.41,2.89,2.77h-14.4v-1.9c0-.98.63-1.85,1.57-2.15Z"/>
                  <rect class="cls-34" x="159.92" y="382.46" width="14.87" height=".9"/>
                </g>
              </g>
              <path class="cls-63" d="m146.16,280.84l-12.73,16.08.71-1.77-3.83,20.1-.57,2.99-5.75-.82.29-3.03,1.95-20.37c.05-.53.23-1.02.5-1.45l.21-.32,11.19-17.18,2.52-3.43,8.57,5.32-3.07,3.88Z"/>
              <polygon class="cls-26" points="153.29 323 149.33 344.86 149.15 345.86 149 346.21 137.27 373.16 135.5 377.23 127.64 374.3 128.97 370.06 137.75 342.01 137.42 343.35 139.04 321.2 139.56 314.02 154.57 315.92 153.29 323"/>
              <path class="cls-55" d="m162.75,299.1l1.13,14.04c0,.92-.75,1.67-1.67,1.67h-23.2c-.92,0-1.67-.75-1.67-1.67l1.47-12.71-1.47-20.03c0-4.74,2.5-8.9,6.24-11.24h14.06c3.74,2.34,6.24,6.5,6.24,11.24l-.38,6.29-.29,4.62-.47,7.78Z"/>
              <path class="cls-19" d="m150.61,328.91h0c-7.33,0-13.27-5.94-13.27-13.27v-1.47h26.54v1.47c0,7.33-5.94,13.27-13.27,13.27Z"/>
              <polygon class="cls-19" points="163.98 321.32 168.63 345.31 168.81 346.23 168.8 346.52 168.31 372.65 168.23 377.08 159.86 377.38 159.46 372.97 157.11 346.94 157.28 348.16 150.05 324.82 147.92 317.95 162.61 314.26 163.98 321.32"/>
              <path class="cls-47" d="m157.33,270.14l-13.52-.55v-1.24c0-1.02.83-1.85,1.85-1.85h9.57c.93,0,1.72.69,1.84,1.61l.26,2.03Z"/>
              <polygon class="cls-63" points="163.51 286.71 163.22 291.33 155.35 283.28 163.51 286.71"/>
              <path class="cls-55" d="m185.34,270.88l-1.93,2.36-9.24,11.34-14.38-10.71-3.96-2.95-5.79,8.53,4.21,2.6,18.36,11.32.33.2c1.73,1.07,4.01.57,5.14-1.14l10.26-15.57,1.68-2.55-4.66-3.42Z"/>
              <polygon class="cls-63" points="174.16 284.58 174.16 287.95 172.9 283.63 174.16 284.58"/>
              <polyline class="cls-100" points="157.75 316.72 165.02 345.82 165.35 375.53"/>
              <polyline class="cls-100" points="145.63 330.84 143.43 344.57 132.72 374.1"/>
            </g>
          </g>
          <g>
            <g>
              <path class="cls-103" d="m195.94,108.24h-81.09c-2.59,0-4.69,2.1-4.69,4.69v72.51"/>
              <path class="cls-58" d="m195.84,106.36c1.04,0,1.88.84,1.88,1.88s-.84,1.88-1.88,1.88-1.88-.84-1.88-1.88.84-1.88,1.88-1.88Z"/>
              <circle class="cls-58" cx="110.16" cy="185.34" r="1.88"/>
            </g>
            <g>
              <circle class="cls-51" cx="108.31" cy="220.37" r="27.1"/>
              <g>
                <path class="cls-47" d="m105.82,240.72c-9.07-.92-17.98-8.89-18.03-20.26-.05-11.25,8.67-19.44,18.03-20.44v1.99c0,.49-.02.97,0,1.45.02.37-.12.5-.49.57-4.46.85-8.02,3.13-10.63,6.83-2.14,3.04-3.08,6.44-2.96,10.17.23,7.68,6.01,14.34,13.64,15.69.16.03.41.24.41.37.03,1.19.02,2.38.02,3.61Z"/>
                <path class="cls-47" d="m111.47,215.39c0,2.01.01,4.03,0,6.04-.01,1.19-.63,1.87-1.82,1.88-2.91.04-5.82.03-8.73,0-1.01,0-1.76-.8-1.78-1.73-.02-.95.73-1.79,1.74-1.84,1.23-.05,2.46-.01,3.69-.01.99,0,1.97-.02,2.96-.01.46,0,.36-.33.36-.59,0-3.15,0-6.3,0-9.45,0-.17,0-.34,0-.5.07-1.02.85-1.74,1.85-1.72.96.03,1.71.77,1.72,1.78.02,2.05,0,4.1,0,6.15Z"/>
                <path class="cls-47" d="m110.83,199.97c.73.13,1.4.25,2.12.37-.44,1.21-.84,2.35-1.28,3.48-.04.11-.32.19-.48.17-.13-.02-.34-.2-.34-.32-.02-1.21-.02-2.42-.02-3.71Z"/>
                <path class="cls-47" d="m112.95,240.4c-.72.13-1.37.25-2.13.38,0-.79,0-1.51,0-2.22,0-.49-.03-.97.02-1.45.01-.14.22-.33.36-.35.14-.03.42.08.46.19.44,1.12.84,2.26,1.28,3.46Z"/>
                <path class="cls-47" d="m128.82,219.31v2.12c-1.26-.21-2.46-.39-3.66-.62-.11-.02-.27-.29-.24-.39.06-.19.21-.46.38-.5.63-.15,1.28-.23,1.92-.34.51-.09,1.02-.17,1.61-.27Z"/>
                <path class="cls-47" d="m127.25,228.41c-1.19-.69-2.3-1.33-3.43-1.99.08-.24.15-.45.24-.73,1.28.22,2.55.44,3.92.68-.25.69-.47,1.32-.73,2.03Z"/>
                <path class="cls-47" d="m127.24,212.34c.25.68.48,1.3.74,2.01-.47.09-.87.17-1.28.24-.75.13-1.5.26-2.25.4-.29.06-.43-.03-.53-.31-.11-.3-.01-.43.24-.57,1-.56,2-1.14,3.09-1.77Z"/>
                <path class="cls-47" d="m119.52,237.61c-.64.37-1.23.71-1.87,1.08-.46-1.27-.9-2.48-1.36-3.72.22-.13.42-.25.67-.41.85,1.01,1.68,2,2.56,3.05Z"/>
                <path class="cls-47" d="m119.52,203.13c-.88,1.05-1.71,2.03-2.56,3.05-.22-.12-.42-.24-.67-.39.45-1.24.89-2.45,1.36-3.73.63.36,1.22.7,1.87,1.07Z"/>
                <path class="cls-47" d="m124.74,208c-1.17.68-2.29,1.32-3.44,1.99-.17-.2-.32-.38-.5-.59.85-1.01,1.68-2,2.56-3.05.47.56.91,1.08,1.39,1.65Z"/>
                <path class="cls-47" d="m120.79,231.34c.19-.22.34-.39.51-.58,1.14.66,2.26,1.3,3.43,1.98-.47.56-.9,1.08-1.38,1.65-.88-1.04-1.72-2.05-2.56-3.05Z"/>
              </g>
            </g>
          </g>
        </g>
      </g>
    </g>
  </g>
</svg>