<?xml version="1.0" encoding="UTF-8"?>
<svg xmlns="http://www.w3.org/2000/svg" xmlns:xlink="http://www.w3.org/1999/xlink" viewBox="0 0 547.31 397.73">
  <defs>
    <style>
      .cls-1 {
        fill: url(#linear-gradient-12);
      }

      .cls-1, .cls-2, .cls-3, .cls-4, .cls-5, .cls-6, .cls-7, .cls-8, .cls-9, .cls-10, .cls-11, .cls-12, .cls-13, .cls-14, .cls-15, .cls-16, .cls-17, .cls-18 {
        stroke-width: 0px;
      }

      .cls-19 {
        stroke-dasharray: 0 0 0 8.91;
      }

      .cls-19, .cls-20, .cls-21, .cls-22, .cls-23 {
        fill: none;
        stroke: #fff;
      }

      .cls-19, .cls-20, .cls-22, .cls-23 {
        stroke-linecap: round;
        stroke-linejoin: round;
      }

      .cls-19, .cls-22, .cls-23 {
        stroke-width: 3px;
      }

      .cls-2 {
        fill: url(#linear-gradient-17);
      }

      .cls-3 {
        fill: url(#linear-gradient);
      }

      .cls-4 {
        fill: url(#linear-gradient-8);
        opacity: .48;
      }

      .cls-4, .cls-24 {
        mix-blend-mode: screen;
      }

      .cls-5 {
        fill: url(#linear-gradient-6);
      }

      .cls-25 {
        isolation: isolate;
      }

      .cls-6 {
        fill: url(#linear-gradient-15);
      }

      .cls-7 {
        fill: url(#linear-gradient-11);
      }

      .cls-8 {
        fill: url(#linear-gradient-5);
      }

      .cls-9 {
        fill: url(#linear-gradient-13);
      }

      .cls-10 {
        fill: url(#linear-gradient-16);
      }

      .cls-11 {
        fill: #fff;
      }

      .cls-12 {
        fill: url(#linear-gradient-14);
      }

      .cls-13 {
        fill: url(#linear-gradient-2);
      }

      .cls-14 {
        fill: url(#linear-gradient-7);
      }

      .cls-15 {
        fill: url(#linear-gradient-3);
      }

      .cls-20 {
        stroke-width: 2px;
      }

      .cls-16 {
        fill: url(#linear-gradient-9);
      }

      .cls-24 {
        opacity: .23;
      }

      .cls-17 {
        fill: url(#linear-gradient-10);
      }

      .cls-21 {
        stroke-miterlimit: 10;
        stroke-width: 4px;
      }

      .cls-18 {
        fill: url(#linear-gradient-4);
      }

      .cls-22 {
        stroke-dasharray: 0 0 0 8.88;
      }
    </style>
    <linearGradient id="linear-gradient" x1="227.92" y1="295.27" x2="333.28" y2="295.27" gradientUnits="userSpaceOnUse">
      <stop offset="0" stop-color="#76bbf4"/>
      <stop offset="1" stop-color="#1e88e5"/>
    </linearGradient>
    <linearGradient id="linear-gradient-2" x1="220.91" y1="327.86" x2="340.29" y2="327.86" gradientUnits="userSpaceOnUse">
      <stop offset="0" stop-color="#bbdefb"/>
      <stop offset="1" stop-color="#64b5f6"/>
    </linearGradient>
    <linearGradient id="linear-gradient-3" x1="95.13" y1="273.39" x2="464.46" y2="89.39" gradientUnits="userSpaceOnUse">
      <stop offset="0" stop-color="#1e88e5"/>
      <stop offset="1" stop-color="#76bbf4"/>
    </linearGradient>
    <linearGradient id="linear-gradient-4" x1="68.4" y1="178.54" x2="468.77" y2="178.54" gradientUnits="userSpaceOnUse">
      <stop offset="0" stop-color="#e1f5fe"/>
      <stop offset="1" stop-color="#fff"/>
    </linearGradient>
    <linearGradient id="linear-gradient-5" x1="267.72" y1="162.92" x2="288.29" y2="183.49" gradientTransform="translate(102.54 -103.38) rotate(25.68)" gradientUnits="userSpaceOnUse">
      <stop offset="0" stop-color="#e040fb"/>
      <stop offset="1" stop-color="#ab47bc"/>
    </linearGradient>
    <linearGradient id="linear-gradient-6" x1="318.51" y1="127.8" x2="326.77" y2="136.06" gradientTransform="matrix(1,0,0,1,0,0)" xlink:href="#linear-gradient-5"/>
    <linearGradient id="linear-gradient-7" x1="240.04" y1="210.35" x2="248.3" y2="218.61" gradientTransform="matrix(1,0,0,1,0,0)" xlink:href="#linear-gradient-5"/>
    <linearGradient id="linear-gradient-8" x1="548.81" y1="250" x2="395.22" y2="178.33" xlink:href="#linear-gradient-4"/>
    <linearGradient id="linear-gradient-9" x1="431" y1="144.69" x2="539.82" y2="253.51" gradientUnits="userSpaceOnUse">
      <stop offset="0" stop-color="#ba68c8"/>
      <stop offset="1" stop-color="#ff80ab"/>
    </linearGradient>
    <linearGradient id="linear-gradient-10" x1="126.64" y1="63.02" x2="187.46" y2="123.84" gradientUnits="userSpaceOnUse">
      <stop offset="0" stop-color="#64b5f6"/>
      <stop offset="1" stop-color="#bbdefb"/>
    </linearGradient>
    <linearGradient id="linear-gradient-11" x1="135.91" y1="72.29" x2="178.18" y2="114.57" xlink:href="#linear-gradient-3"/>
    <linearGradient id="linear-gradient-12" x1="183" y1="304.51" x2="145.16" y2="361.28" gradientUnits="userSpaceOnUse">
      <stop offset="0" stop-color="#1e88e5"/>
      <stop offset="1" stop-color="#0d47a1"/>
    </linearGradient>
    <linearGradient id="linear-gradient-13" x1="149.05" y1="354.72" x2="102.31" y2="304.84" gradientUnits="userSpaceOnUse">
      <stop offset="0" stop-color="#1e88e5"/>
      <stop offset="1" stop-color="#64b5f6"/>
    </linearGradient>
    <linearGradient id="linear-gradient-14" x1="123.96" y1="291.6" x2="203.38" y2="319.98" xlink:href="#linear-gradient-2"/>
    <linearGradient id="linear-gradient-15" x1="254.56" y1="352.22" x2="187.06" y2="394.22" gradientUnits="userSpaceOnUse">
      <stop offset="0" stop-color="#ba68c8"/>
      <stop offset="1" stop-color="#89209c"/>
    </linearGradient>
    <linearGradient id="linear-gradient-16" x1="205.99" y1="391.37" x2="174.16" y2="357.39" gradientTransform="matrix(1,0,0,1,0,0)" xlink:href="#linear-gradient-5"/>
    <linearGradient id="linear-gradient-17" x1="188.9" y1="348.37" x2="243" y2="367.71" gradientUnits="userSpaceOnUse">
      <stop offset="0" stop-color="#f5c3fe"/>
      <stop offset="1" stop-color="#ff80ab"/>
    </linearGradient>
  </defs>
  <g class="cls-25">
    <g id="Layer_2" data-name="Layer 2">
      <g id="OBJECTS">
        <g>
          <g>
            <g>
              <line class="cls-23" x1="321.63" y1="35.53" x2="321.63" y2="35.53"/>
              <path class="cls-22" d="m328.4,29.77c15.55-12.4,33.44-21.08,52.68-25.34,55.24-12.23,108.32,14.53,135.24,68.18,16.63,33.15,12.05,60.77,7.5,81.62"/>
              <line class="cls-23" x1="522.85" y1="158.56" x2="522.85" y2="158.56"/>
            </g>
            <g>
              <line class="cls-23" x1="26.22" y1="340.33" x2="26.22" y2="340.33"/>
              <path class="cls-19" d="m23.47,331.85c-6.2-21.27-7.67-43.82-3.74-65.54,7.46-41.28,32.48-73.81,70.45-91.61,18.66-8.75,37.23-13,56.77-13,20.51,0,39.23,4.76,55.76,8.97,14.34,3.65,27.89,7.1,40.72,7.1,12.07,0,22.45-3.04,32.68-9.57,5.94-3.79,10.06-8.1,13.22-13.05"/>
              <line class="cls-23" x1="291.54" y1="151.28" x2="291.54" y2="151.28"/>
            </g>
          </g>
          <g>
            <path class="cls-3" d="m333.28,321.05c-16.39-13.51-25.22-33.17-25.22-51.56h-54.93c0,18.39-8.82,38.05-25.22,51.56h105.36Z"/>
            <path class="cls-13" d="m226.35,321.05h108.51c3,0,5.44,2.44,5.44,5.44v8.19h-119.38v-8.19c0-3,2.44-5.44,5.44-5.44Z"/>
            <g>
              <path class="cls-11" d="m92.43,278.78c0,7.1,5.75,12.85,12.85,12.85h350.65c7.1,0,12.85-5.75,12.85-12.85v-8.02H92.43v8.02Z"/>
              <path class="cls-15" d="m455.92,86.33H105.28c-7.1,0-12.85,5.75-12.85,12.85v171.58h376.34V99.18c0-7.1-5.75-12.85-12.85-12.85Z"/>
            </g>
            <g class="cls-24">
              <path class="cls-18" d="m395.66,270.76h73.11V99.18c0-7.1-5.75-12.85-12.85-12.85h-244.11c50.77,50.57,123.45,123.62,183.84,184.43Z"/>
            </g>
          </g>
          <g>
            <polygon class="cls-11" points="489.26 340.33 475.97 353.62 481.91 359.56 501.14 340.33 481.91 321.1 475.97 327.04 489.26 340.33"/>
            <polygon class="cls-11" points="463.55 340.33 450.26 353.62 456.2 359.56 475.42 340.33 456.2 321.1 450.26 327.04 463.55 340.33"/>
            <polygon class="cls-11" points="437.83 340.33 424.54 353.62 430.48 359.56 449.71 340.33 430.48 321.1 424.54 327.04 437.83 340.33"/>
            <polygon class="cls-11" points="412.12 340.33 398.83 353.62 404.77 359.56 424 340.33 404.77 321.1 398.83 327.04 412.12 340.33"/>
            <polygon class="cls-11" points="386.4 340.33 373.11 353.62 379.05 359.56 398.28 340.33 379.05 321.1 373.11 327.04 386.4 340.33"/>
          </g>
          <g>
            <polygon class="cls-11" points="7.31 152.22 15.48 144.05 11.83 140.39 0 152.22 11.83 164.05 15.48 160.4 7.31 152.22"/>
            <polygon class="cls-11" points="23.13 152.22 31.3 144.05 27.65 140.39 15.82 152.22 27.65 164.05 31.3 160.4 23.13 152.22"/>
            <polygon class="cls-11" points="38.95 152.22 47.13 144.05 43.47 140.39 31.64 152.22 43.47 164.05 47.13 160.4 38.95 152.22"/>
            <polygon class="cls-11" points="54.77 152.22 62.95 144.05 59.29 140.39 47.46 152.22 59.29 164.05 62.95 160.4 54.77 152.22"/>
          </g>
          <path class="cls-11" d="m74.52,355.43c-7.18,0-13,5.82-13,13s5.82,13,13,13,13-5.82,13-13-5.82-13-13-13Zm0,20.32c-4.04,0-7.32-3.28-7.32-7.32s3.28-7.32,7.32-7.32,7.32,3.28,7.32,7.32-3.28,7.32-7.32,7.32Z"/>
          <path class="cls-11" d="m462.84,41.18c-7.18,0-13,5.82-13,13s5.82,13,13,13,13-5.82,13-13-5.82-13-13-13Zm0,20.32c-4.04,0-7.32-3.28-7.32-7.32s3.28-7.32,7.32-7.32,7.32,3.28,7.32,7.32-3.28,7.32-7.32,7.32Z"/>
          <g>
            <rect class="cls-11" x="417.14" y="114.09" width="5.94" height="25.17" transform="translate(212.62 -259.96) rotate(45)"/>
            <rect class="cls-11" x="417.14" y="114.09" width="5.94" height="25.17" transform="translate(806.75 -80.81) rotate(135)"/>
          </g>
          <g>
            <rect class="cls-11" x="247.04" y="32.77" width="5.94" height="25.17" transform="translate(105.3 -163.5) rotate(45)"/>
            <rect class="cls-11" x="247.04" y="32.77" width="5.94" height="25.17" transform="translate(458.87 -99.35) rotate(135)"/>
          </g>
          <g>
            <g>
              <ellipse class="cls-21" cx="280.6" cy="173.21" rx="27.29" ry="67.67"/>
              <ellipse class="cls-21" cx="280.6" cy="173.21" rx="27.29" ry="67.67" transform="translate(-9.7 329.61) rotate(-60)"/>
              <ellipse class="cls-21" cx="280.6" cy="173.21" rx="67.67" ry="27.29" transform="translate(-49.01 163.51) rotate(-30)"/>
            </g>
            <circle class="cls-8" cx="278.01" cy="173.21" r="14.55" transform="translate(-47.6 137.6) rotate(-25.68)"/>
            <path class="cls-5" d="m328.48,131.93c0,3.23-2.62,5.84-5.84,5.84s-5.84-2.62-5.84-5.84,2.62-5.84,5.84-5.84,5.84,2.62,5.84,5.84Z"/>
            <circle class="cls-14" cx="244.17" cy="214.48" r="5.84"/>
            <circle class="cls-11" cx="274.55" cy="169.75" r="6.88"/>
          </g>
          <g>
            <g>
              <g>
                <rect class="cls-4" x="390.25" y="170.19" width="157.06" height="84.93" rx="6.68" ry="6.68"/>
                <path class="cls-16" d="m535.51,176.23h-133.47c-3.44,0-6.24,2.79-6.24,6.24h0c0,3.44,2.79,6.24,6.24,6.24h133.47c3.44,0,6.24-2.79,6.24-6.24h0c0-3.44-2.79-6.24-6.24-6.24Z"/>
              </g>
              <g>
                <path class="cls-11" d="m408.3,182.47c0,1.36-1.1,2.47-2.47,2.47s-2.47-1.1-2.47-2.47,1.1-2.47,2.47-2.47,2.47,1.1,2.47,2.47Z"/>
                <circle class="cls-11" cx="417.06" cy="182.47" r="2.47"/>
                <path class="cls-11" d="m430.74,182.47c0,1.36-1.1,2.47-2.47,2.47s-2.47-1.1-2.47-2.47,1.1-2.47,2.47-2.47,2.47,1.1,2.47,2.47Z"/>
              </g>
            </g>
            <g>
              <g>
                <rect class="cls-11" x="409.63" y="208.08" width="5.4" height="34.96"/>
                <rect class="cls-11" x="417.9" y="217.47" width="5.4" height="25.57"/>
                <rect class="cls-11" x="426.16" y="197.8" width="5.4" height="45.23"/>
                <rect class="cls-11" x="434.43" y="227.89" width="5.4" height="15.15"/>
                <rect class="cls-11" x="442.69" y="213.51" width="5.4" height="29.53"/>
                <rect class="cls-11" x="450.96" y="203.53" width="5.4" height="39.51"/>
              </g>
              <g>
                <rect class="cls-11" x="481.2" y="208.08" width="5.4" height="34.96"/>
                <rect class="cls-11" x="489.47" y="217.47" width="5.4" height="25.57"/>
                <rect class="cls-11" x="497.73" y="197.8" width="5.4" height="45.23"/>
                <rect class="cls-11" x="506" y="227.89" width="5.4" height="15.15"/>
                <rect class="cls-11" x="514.26" y="213.51" width="5.4" height="29.53"/>
                <rect class="cls-11" x="522.53" y="203.53" width="5.4" height="39.51"/>
              </g>
            </g>
          </g>
          <g>
            <rect class="cls-17" x="125.55" y="61.93" width="63" height="63" rx="3.72" ry="3.72"/>
            <rect class="cls-7" x="135.15" y="71.54" width="43.79" height="43.79" rx="2.59" ry="2.59"/>
            <g>
              <rect class="cls-11" x="135.55" y="46.43" width="7" height="15.5"/>
              <rect class="cls-11" x="147.55" y="46.43" width="7" height="15.5"/>
              <rect class="cls-11" x="159.55" y="46.43" width="7" height="15.5"/>
              <rect class="cls-11" x="171.55" y="46.43" width="7" height="15.5"/>
            </g>
            <g>
              <rect class="cls-11" x="171.55" y="124.93" width="7" height="15.5"/>
              <rect class="cls-11" x="159.55" y="124.93" width="7" height="15.5"/>
              <rect class="cls-11" x="147.55" y="124.93" width="7" height="15.5"/>
              <rect class="cls-11" x="135.55" y="124.93" width="7" height="15.5"/>
            </g>
            <g>
              <rect class="cls-11" x="188.55" y="71.93" width="15.5" height="7"/>
              <rect class="cls-11" x="188.55" y="83.93" width="15.5" height="7"/>
              <rect class="cls-11" x="188.55" y="95.93" width="15.5" height="7"/>
              <rect class="cls-11" x="188.55" y="107.93" width="15.5" height="7"/>
            </g>
            <g>
              <rect class="cls-11" x="110.05" y="107.93" width="15.5" height="7"/>
              <rect class="cls-11" x="110.05" y="95.93" width="15.5" height="7"/>
              <rect class="cls-11" x="110.05" y="83.93" width="15.5" height="7"/>
              <rect class="cls-11" x="110.05" y="71.93" width="15.5" height="7"/>
            </g>
          </g>
          <g>
            <polygon class="cls-20" points="333.28 73.3 357.75 59.17 382.23 73.3 382.23 101.56 357.75 115.69 333.28 101.56 333.28 73.3"/>
            <polygon class="cls-20" points="357.75 87.43 382.23 73.3 382.23 101.56 357.75 115.69 357.75 87.43"/>
            <polygon class="cls-20" points="357.75 115.69 357.75 87.43 333.28 73.3 333.28 101.56 357.75 115.69"/>
            <polygon class="cls-20" points="357.75 59.17 382.23 73.3 357.75 87.43 333.28 73.3 357.75 59.17"/>
          </g>
          <g>
            <polygon class="cls-1" points="146.19 321.05 183.44 299.54 183.44 342.55 146.19 364.05 146.19 321.05"/>
            <polygon class="cls-9" points="146.19 364.05 146.19 321.05 108.95 299.54 108.95 342.55 146.19 364.05"/>
            <polygon class="cls-12" points="146.19 278.04 183.44 299.54 146.19 321.05 108.95 299.54 146.19 278.04"/>
          </g>
          <g>
            <polygon class="cls-6" points="204.05 368.43 229.42 353.78 229.42 383.08 204.05 397.73 204.05 368.43"/>
            <polygon class="cls-10" points="204.05 397.73 204.05 368.43 178.68 353.78 178.68 383.08 204.05 397.73"/>
            <polygon class="cls-2" points="204.05 339.14 229.42 353.78 204.05 368.43 178.68 353.78 204.05 339.14"/>
          </g>
        </g>
      </g>
    </g>
  </g>
</svg>