<?xml version="1.0" encoding="UTF-8"?>
<svg id="Layer_2" data-name="Layer 2" xmlns="http://www.w3.org/2000/svg" xmlns:xlink="http://www.w3.org/1999/xlink" viewBox="0 0 2770.45 2676.91">
  <defs>
    <style>
      .cls-1 {
        fill: url(#linear-gradient-6);
      }

      .cls-1, .cls-2, .cls-3, .cls-4, .cls-5, .cls-6, .cls-7, .cls-8, .cls-9, .cls-10, .cls-11, .cls-12, .cls-13, .cls-14, .cls-15, .cls-16, .cls-17, .cls-18, .cls-19, .cls-20, .cls-21, .cls-22, .cls-23, .cls-24, .cls-25, .cls-26, .cls-27, .cls-28, .cls-29, .cls-30, .cls-31, .cls-32, .cls-33, .cls-34, .cls-35, .cls-36, .cls-37, .cls-38, .cls-39, .cls-40, .cls-41, .cls-42, .cls-43, .cls-44, .cls-45, .cls-46, .cls-47, .cls-48, .cls-49, .cls-50, .cls-51, .cls-52, .cls-53, .cls-54, .cls-55, .cls-56, .cls-57, .cls-58, .cls-59, .cls-60, .cls-61, .cls-62, .cls-63, .cls-64, .cls-65, .cls-66, .cls-67, .cls-68, .cls-69, .cls-70, .cls-71, .cls-72, .cls-73, .cls-74, .cls-75, .cls-76, .cls-77, .cls-78, .cls-79, .cls-80, .cls-81 {
        stroke-width: 0px;
      }

      .cls-1, .cls-15, .cls-19, .cls-54 {
        opacity: .7;
      }

      .cls-2 {
        fill: url(#linear-gradient-38);
      }

      .cls-3 {
        fill: url(#linear-gradient-12);
      }

      .cls-4 {
        fill: url(#linear-gradient-17);
      }

      .cls-5 {
        fill: url(#linear-gradient-19);
      }

      .cls-6 {
        fill: url(#linear-gradient-33);
      }

      .cls-7 {
        fill: url(#linear-gradient);
      }

      .cls-8 {
        fill: url(#linear-gradient-62);
      }

      .cls-9 {
        fill: url(#linear-gradient-67);
      }

      .cls-10 {
        fill: url(#linear-gradient-57);
      }

      .cls-11 {
        fill: url(#linear-gradient-21);
      }

      .cls-12 {
        fill: #7d97f4;
      }

      .cls-13 {
        fill: #bdd0fb;
      }

      .cls-14 {
        fill: url(#linear-gradient-42);
      }

      .cls-15 {
        fill: url(#linear-gradient-7);
      }

      .cls-16 {
        fill: url(#linear-gradient-15);
      }

      .cls-17 {
        fill: url(#linear-gradient-11);
      }

      .cls-82 {
        opacity: .64;
      }

      .cls-18 {
        fill: url(#linear-gradient-73);
      }

      .cls-19 {
        fill: url(#linear-gradient-5);
      }

      .cls-20 {
        fill: url(#linear-gradient-31);
      }

      .cls-21 {
        fill: url(#linear-gradient-71);
      }

      .cls-22 {
        fill: url(#linear-gradient-58);
      }

      .cls-23 {
        fill: url(#linear-gradient-63);
      }

      .cls-24 {
        fill: url(#linear-gradient-34);
      }

      .cls-25 {
        fill: #42b5e8;
      }

      .cls-26 {
        fill: #00a2de;
      }

      .cls-27 {
        fill: url(#linear-gradient-41);
      }

      .cls-28 {
        fill: url(#linear-gradient-40);
      }

      .cls-29 {
        fill: url(#linear-gradient-66);
      }

      .cls-30 {
        fill: url(#linear-gradient-13);
      }

      .cls-31 {
        fill: url(#linear-gradient-23);
      }

      .cls-32 {
        fill: url(#linear-gradient-25);
      }

      .cls-33 {
        fill: url(#linear-gradient-43);
      }

      .cls-34 {
        fill: url(#linear-gradient-16);
      }

      .cls-35 {
        fill: url(#linear-gradient-22);
      }

      .cls-36 {
        fill: url(#linear-gradient-54);
      }

      .cls-37 {
        fill: url(#linear-gradient-55);
      }

      .cls-38 {
        fill: #fff;
      }

      .cls-39 {
        fill: url(#linear-gradient-35);
      }

      .cls-83 {
        opacity: .3;
      }

      .cls-40 {
        fill: url(#linear-gradient-50);
      }

      .cls-41 {
        fill: url(#linear-gradient-32);
      }

      .cls-42 {
        fill: url(#linear-gradient-60);
      }

      .cls-43 {
        fill: url(#linear-gradient-59);
      }

      .cls-44 {
        fill: url(#linear-gradient-20);
      }

      .cls-45 {
        fill: url(#linear-gradient-14);
      }

      .cls-46 {
        fill: url(#linear-gradient-2);
      }

      .cls-47 {
        fill: url(#linear-gradient-52);
      }

      .cls-48 {
        fill: url(#linear-gradient-45);
      }

      .cls-49 {
        fill: url(#linear-gradient-39);
      }

      .cls-50 {
        fill: url(#linear-gradient-3);
      }

      .cls-51 {
        fill: url(#linear-gradient-69);
      }

      .cls-52 {
        fill: url(#linear-gradient-9);
      }

      .cls-53 {
        fill: url(#linear-gradient-27);
      }

      .cls-54 {
        fill: url(#linear-gradient-4);
      }

      .cls-55 {
        fill: url(#linear-gradient-53);
      }

      .cls-56 {
        fill: url(#linear-gradient-65);
      }

      .cls-57 {
        fill: url(#linear-gradient-36);
      }

      .cls-58 {
        fill: url(#linear-gradient-48);
      }

      .cls-59 {
        fill: url(#linear-gradient-49);
      }

      .cls-60 {
        fill: url(#linear-gradient-8);
      }

      .cls-61 {
        fill: url(#linear-gradient-47);
      }

      .cls-62 {
        fill: url(#linear-gradient-24);
      }

      .cls-63 {
        fill: url(#linear-gradient-26);
      }

      .cls-64 {
        fill: url(#linear-gradient-61);
      }

      .cls-65 {
        fill: url(#linear-gradient-18);
      }

      .cls-66 {
        fill: url(#linear-gradient-51);
      }

      .cls-67 {
        fill: url(#linear-gradient-30);
      }

      .cls-68 {
        fill: url(#linear-gradient-44);
      }

      .cls-69 {
        fill: url(#linear-gradient-68);
      }

      .cls-70 {
        fill: url(#linear-gradient-72);
      }

      .cls-71 {
        fill: url(#linear-gradient-29);
      }

      .cls-72 {
        fill: url(#linear-gradient-46);
      }

      .cls-73 {
        fill: url(#linear-gradient-64);
      }

      .cls-74 {
        fill: #91b3fa;
      }

      .cls-75 {
        fill: url(#linear-gradient-28);
      }

      .cls-76 {
        fill: url(#linear-gradient-56);
      }

      .cls-77 {
        fill: url(#linear-gradient-10);
      }

      .cls-78 {
        fill: url(#linear-gradient-70);
      }

      .cls-79 {
        fill: url(#linear-gradient-74);
      }

      .cls-80 {
        fill: url(#linear-gradient-37);
      }

      .cls-81 {
        fill: url(#linear-gradient-75);
      }
    </style>
    <linearGradient id="linear-gradient" x1="240.84" y1="1218.74" x2="750.97" y2="1326.77" gradientUnits="userSpaceOnUse">
      <stop offset="0" stop-color="#4f52ff"/>
      <stop offset="1" stop-color="#4042e2"/>
    </linearGradient>
    <linearGradient id="linear-gradient-2" x1="2065.28" y1="464.02" x2="2029.43" y2="1100.25" xlink:href="#linear-gradient"/>
    <linearGradient id="linear-gradient-3" x1="1047.99" y1="721.99" x2="1954.22" y2="2312.38" xlink:href="#linear-gradient"/>
    <linearGradient id="linear-gradient-4" x1="1495.36" y1="285.75" x2="1870.85" y2="285.75" gradientUnits="userSpaceOnUse">
      <stop offset="0" stop-color="#dae3fe"/>
      <stop offset="1" stop-color="#e9effd"/>
    </linearGradient>
    <linearGradient id="linear-gradient-5" y1="340.99" y2="340.99" xlink:href="#linear-gradient-4"/>
    <linearGradient id="linear-gradient-6" y1="396.23" y2="396.23" xlink:href="#linear-gradient-4"/>
    <linearGradient id="linear-gradient-7" y1="451.47" y2="451.47" xlink:href="#linear-gradient-4"/>
    <linearGradient id="linear-gradient-8" x1="1899.6" y1="398.51" x2="2025.6" y2="398.51" xlink:href="#linear-gradient-4"/>
    <linearGradient id="linear-gradient-9" x1="2056.17" y1="398.51" x2="2182.16" y2="398.51" xlink:href="#linear-gradient-4"/>
    <linearGradient id="linear-gradient-10" x1="2212.73" y1="398.51" x2="2338.72" y2="398.51" xlink:href="#linear-gradient-4"/>
    <linearGradient id="linear-gradient-11" x1="1899.6" y1="469.17" x2="2025.6" y2="469.17" xlink:href="#linear-gradient-4"/>
    <linearGradient id="linear-gradient-12" x1="2056.17" y1="469.17" x2="2182.16" y2="469.17" xlink:href="#linear-gradient-4"/>
    <linearGradient id="linear-gradient-13" x1="2212.73" y1="469.17" x2="2338.72" y2="469.17" xlink:href="#linear-gradient-4"/>
    <linearGradient id="linear-gradient-14" x1="6198.96" y1="2496.1" x2="5726.94" y2="3009.53" gradientTransform="translate(-4979.23 -59.01) rotate(.54)" gradientUnits="userSpaceOnUse">
      <stop offset="0" stop-color="#09005d"/>
      <stop offset="1" stop-color="#1a0f91"/>
    </linearGradient>
    <linearGradient id="linear-gradient-15" x1="6045.75" y1="2534.23" x2="6087.67" y2="2534.23" gradientTransform="translate(-4979.23 -59.01) rotate(.54)" gradientUnits="userSpaceOnUse">
      <stop offset="0" stop-color="#febbba"/>
      <stop offset="1" stop-color="#ff928e"/>
    </linearGradient>
    <linearGradient id="linear-gradient-16" x1="6236.15" y1="1915.43" x2="5834.48" y2="2459.85" xlink:href="#linear-gradient-14"/>
    <linearGradient id="linear-gradient-17" x1="6093.07" y1="2398.73" x2="5621.03" y2="2912.18" xlink:href="#linear-gradient-14"/>
    <linearGradient id="linear-gradient-18" x1="5894.64" y1="2532.07" x2="5930.84" y2="2532.07" xlink:href="#linear-gradient-15"/>
    <linearGradient id="linear-gradient-19" x1="6164.56" y1="1862.61" x2="5762.89" y2="2407.02" xlink:href="#linear-gradient-14"/>
    <linearGradient id="linear-gradient-20" x1="6218.33" y1="1440.37" x2="6432.54" y2="1440.37" xlink:href="#linear-gradient-15"/>
    <linearGradient id="linear-gradient-21" x1="1430.79" y1="1398.34" x2="1455.31" y2="1235.62" gradientTransform="matrix(1,0,0,1,0,0)" xlink:href="#linear-gradient-15"/>
    <linearGradient id="linear-gradient-22" x1="6431.51" y1="1295.55" x2="6491.49" y2="1203.34" xlink:href="#linear-gradient-15"/>
    <linearGradient id="linear-gradient-23" x1="5749.59" y1="1743.77" x2="6020.67" y2="1743.77" xlink:href="#linear-gradient-15"/>
    <linearGradient id="linear-gradient-24" x1="5957.75" y1="1453.97" x2="6064.93" y2="1453.97" xlink:href="#linear-gradient-15"/>
    <linearGradient id="linear-gradient-25" x1="-1227.91" y1="2447.3" x2="-1267.96" y2="2315.2" gradientTransform="translate(409.49 -1265.41) rotate(-41.21)" xlink:href="#linear-gradient-15"/>
    <linearGradient id="linear-gradient-26" x1="-1264.04" y1="2217.13" x2="-1230.53" y2="2408.22" gradientTransform="translate(409.49 -1265.41) rotate(-41.21)" xlink:href="#linear-gradient-14"/>
    <linearGradient id="linear-gradient-27" x1="-1268.85" y1="2446.68" x2="-1304.88" y2="2327.83" gradientTransform="translate(409.49 -1265.41) rotate(-41.21)" xlink:href="#linear-gradient-15"/>
    <linearGradient id="linear-gradient-28" x1="5803.22" y1="1567.13" x2="5952.8" y2="2190.39" gradientTransform="translate(-4705.66)" xlink:href="#linear-gradient-14"/>
    <linearGradient id="linear-gradient-29" x1="5700.72" y1="1732.01" x2="5785.47" y2="1732.01" gradientTransform="translate(-4705.66)" xlink:href="#linear-gradient-15"/>
    <linearGradient id="linear-gradient-30" x1="1051.87" y1="1631.9" x2="1233.73" y2="1631.9" xlink:href="#linear-gradient-4"/>
    <linearGradient id="linear-gradient-31" x1="803.85" y1="2282.97" x2="758.71" y2="2594.86" xlink:href="#linear-gradient"/>
    <linearGradient id="linear-gradient-32" x1="684.81" y1="2550.87" x2="729.51" y2="2550.87" gradientTransform="matrix(1,0,0,1,0,0)" xlink:href="#linear-gradient-15"/>
    <linearGradient id="linear-gradient-33" x1="1027.45" y1="2315.33" x2="982.3" y2="2627.22" xlink:href="#linear-gradient"/>
    <linearGradient id="linear-gradient-34" x1="1194.23" y1="1915.82" x2="692.71" y2="2286.94" gradientTransform="matrix(1,0,0,1,0,0)" xlink:href="#linear-gradient-14"/>
    <linearGradient id="linear-gradient-35" x1="896.54" y1="2554.63" x2="949.91" y2="2554.63" gradientTransform="matrix(1,0,0,1,0,0)" xlink:href="#linear-gradient-15"/>
    <linearGradient id="linear-gradient-36" x1="697.02" y1="2299.18" x2="1332.3" y2="1861.16" gradientTransform="matrix(1,0,0,1,0,0)" xlink:href="#linear-gradient-14"/>
    <linearGradient id="linear-gradient-37" x1="600.09" y1="1802.58" x2="626.41" y2="1736.23" gradientTransform="matrix(1,0,0,1,0,0)" xlink:href="#linear-gradient-15"/>
    <linearGradient id="linear-gradient-38" x1="623.43" y1="1310.58" x2="598.35" y2="2128.05" gradientUnits="userSpaceOnUse">
      <stop offset="0" stop-color="#e1473d"/>
      <stop offset="1" stop-color="#e9605a"/>
    </linearGradient>
    <linearGradient id="linear-gradient-39" x1="824.89" y1="2060.62" x2="948.16" y2="2060.62" gradientTransform="matrix(1,0,0,1,0,0)" xlink:href="#linear-gradient-15"/>
    <linearGradient id="linear-gradient-40" x1="2552.39" y1="2146.96" x2="2420.28" y2="2248.05" gradientTransform="translate(-2130.4 -127.52) rotate(-7.5)" xlink:href="#linear-gradient-15"/>
    <linearGradient id="linear-gradient-41" x1="2459.58" y1="2067.17" x2="2579.2" y2="2221.19" gradientTransform="translate(-2130.4 -127.52) rotate(-7.5)" xlink:href="#linear-gradient-14"/>
    <linearGradient id="linear-gradient-42" x1="2536" y1="2125.55" x2="2403.89" y2="2226.63" gradientTransform="translate(-2130.4 -127.52) rotate(-7.5)" xlink:href="#linear-gradient-15"/>
    <linearGradient id="linear-gradient-43" x1="15104.24" y1="-17839.03" x2="14774.55" y2="-17520.28" gradientTransform="translate(-5850.1 -388.44) rotate(-177.17) scale(1.39 -1.39)" xlink:href="#linear-gradient-14"/>
    <linearGradient id="linear-gradient-44" x1="12053.75" y1="-18010.3" x2="11724.07" y2="-17691.57" gradientTransform="translate(7927.73 -6965.51) rotate(-62.23) scale(1.39 -1.39)" xlink:href="#linear-gradient-14"/>
    <linearGradient id="linear-gradient-45" x1="1470.42" y1="2365.63" x2="1655.13" y2="2365.63" gradientTransform="matrix(1,0,0,1,0,0)" xlink:href="#linear-gradient-15"/>
    <linearGradient id="linear-gradient-46" x1="1583.44" y1="2485.99" x2="1556.27" y2="2902.56" xlink:href="#linear-gradient"/>
    <linearGradient id="linear-gradient-47" x1="1253.54" y1="2378.25" x2="1643.32" y2="2378.25" gradientTransform="matrix(1,0,0,1,0,0)" xlink:href="#linear-gradient-15"/>
    <linearGradient id="linear-gradient-48" x1="1494.05" y1="2174.91" x2="1930.71" y2="2174.91" gradientTransform="matrix(1,0,0,1,0,0)" xlink:href="#linear-gradient-14"/>
    <linearGradient id="linear-gradient-49" x1="1321.27" y1="2468.89" x2="1294.1" y2="2885.47" xlink:href="#linear-gradient"/>
    <linearGradient id="linear-gradient-50" x1="1801.63" y1="1445.58" x2="1737.33" y2="1783.37" gradientTransform="matrix(1,0,0,1,0,0)" xlink:href="#linear-gradient-14"/>
    <linearGradient id="linear-gradient-51" x1="1695.23" y1="1868.2" x2="1668.92" y2="1699.37" gradientTransform="matrix(1,0,0,1,0,0)" xlink:href="#linear-gradient-15"/>
    <linearGradient id="linear-gradient-52" x1="-953.69" y1="5457.56" x2="-781.47" y2="5574.54" gradientTransform="translate(-2220.19 -2368.12) rotate(-52.83)" xlink:href="#linear-gradient-15"/>
    <linearGradient id="linear-gradient-53" x1="-838.81" y1="5317.64" x2="-903.11" y2="5655.44" gradientTransform="translate(-2220.19 -2368.12) rotate(-52.83)" xlink:href="#linear-gradient-14"/>
    <linearGradient id="linear-gradient-54" x1="-943.37" y1="5442.36" x2="-771.15" y2="5559.34" gradientTransform="translate(-2220.19 -2368.12) rotate(-52.83)" xlink:href="#linear-gradient-15"/>
    <linearGradient id="linear-gradient-55" x1="1803.27" y1="2059.89" x2="2169.42" y2="2059.89" gradientTransform="matrix(1,0,0,1,0,0)" xlink:href="#linear-gradient-15"/>
    <linearGradient id="linear-gradient-56" x1="1718.73" y1="2188.63" x2="1488.23" y2="2251.8" gradientTransform="translate(-14.56 -78.91) rotate(-2.83)" xlink:href="#linear-gradient-14"/>
    <linearGradient id="linear-gradient-57" x1="1498.26" y1="1873.29" x2="1334.71" y2="2046.14" gradientTransform="matrix(1,0,0,1,0,0)" xlink:href="#linear-gradient-14"/>
    <linearGradient id="linear-gradient-58" x1="-9669.01" y1="2875.31" x2="-9666.59" y2="3131.3" gradientTransform="translate(-7658.83) rotate(-180) scale(1 -1)" xlink:href="#linear-gradient-14"/>
    <linearGradient id="linear-gradient-59" x1="-9730.71" y1="2589.44" x2="-9743.99" y2="2485.6" gradientTransform="translate(-7658.83) rotate(-180) scale(1 -1)" xlink:href="#linear-gradient-15"/>
    <linearGradient id="linear-gradient-60" x1="-10014.86" y1="2878.58" x2="-10012.44" y2="3134.56" gradientTransform="translate(-7658.83) rotate(-180) scale(1 -1)" xlink:href="#linear-gradient-14"/>
    <linearGradient id="linear-gradient-61" x1="-10021.01" y1="2625.03" x2="-10033.96" y2="2523.84" gradientTransform="translate(-7658.83) rotate(-180) scale(1 -1)" xlink:href="#linear-gradient-15"/>
    <linearGradient id="linear-gradient-62" x1="-10111.46" y1="2240.52" x2="-9713.07" y2="2240.52" gradientTransform="translate(-7658.83) rotate(-180) scale(1 -1)" xlink:href="#linear-gradient-14"/>
    <linearGradient id="linear-gradient-63" x1="2617.41" y1="1083.96" x2="2072.41" y2="1742.65" xlink:href="#linear-gradient-38"/>
    <linearGradient id="linear-gradient-64" x1="2384.42" y1="1776.55" x2="2088.53" y2="2092.51" gradientTransform="matrix(1,0,0,1,0,0)" xlink:href="#linear-gradient-15"/>
    <linearGradient id="linear-gradient-65" x1="-9756.02" y1="1733.02" x2="-9417.25" y2="1733.02" gradientTransform="translate(-7658.83) rotate(-180) scale(1 -1)" xlink:href="#linear-gradient-15"/>
    <linearGradient id="linear-gradient-66" x1="-9877.98" y1="1543.01" x2="-9760.08" y2="1422.05" gradientTransform="translate(-7658.83) rotate(-180) scale(1 -1)" xlink:href="#linear-gradient-15"/>
    <linearGradient id="linear-gradient-67" x1="-9707" y1="1345.84" x2="-9853.99" y2="1540.3" gradientTransform="translate(-7658.83) rotate(-180) scale(1 -1)" xlink:href="#linear-gradient-15"/>
    <linearGradient id="linear-gradient-68" x1="-9819.26" y1="1392.75" x2="-9643.67" y2="1392.75" gradientTransform="translate(-7658.83) rotate(-180) scale(1 -1)" xlink:href="#linear-gradient-14"/>
    <linearGradient id="linear-gradient-69" x1="-9922.28" y1="1499.84" x2="-9804.38" y2="1378.88" gradientTransform="translate(-7658.83) rotate(-180) scale(1 -1)" xlink:href="#linear-gradient-15"/>
    <linearGradient id="linear-gradient-70" x1="2725.09" y1="1173.06" x2="2180.08" y2="1831.74" xlink:href="#linear-gradient-38"/>
    <linearGradient id="linear-gradient-71" x1="-3063.86" y1="-14199.88" x2="-3309.68" y2="-13601.94" gradientTransform="translate(-7658.83) rotate(-180) scale(1 -1)" xlink:href="#linear-gradient"/>
    <linearGradient id="linear-gradient-72" x1="905.95" y1="295.85" x2="1041.43" y2="295.85" xlink:href="#linear-gradient-4"/>
    <linearGradient id="linear-gradient-73" x1="806.22" y1="294.77" x2="1139.31" y2="294.77" xlink:href="#linear-gradient-4"/>
    <linearGradient id="linear-gradient-74" x1="1374.25" y1="575.37" x2="1466.55" y2="575.37" xlink:href="#linear-gradient-4"/>
    <linearGradient id="linear-gradient-75" x1="1304.89" y1="574.63" x2="1534.69" y2="574.63" xlink:href="#linear-gradient-4"/>
  </defs>
  <g id="Illustration">
    <g>
      <g>
        <path class="cls-7" d="m191.6,803.41l185.86,203.44c-116.3,87.73-189.25,259.87,5.43,464.58l-261.73,126.86C-62.27,1277.07-36.34,1023.24,191.6,803.41Z"/>
        <path class="cls-12" d="m82.13,1524.5l180.32,2.9,32.38-177.59c99.04,203.42,333.09,288.43,600.9,201.66l135.23,251.39c-386.52,176.21-777.77,85.78-948.83-278.35Z"/>
        <path class="cls-46" d="m1594.36,1255.76c146.17-288.92,531.96-395.49,809.39-237.28l281.2-93.08c-328.44-438.14-925.24-355.01-1295.99,82.82l205.4,247.54Z"/>
        <path class="cls-74" d="m2243.07,1561.59l119.31,278.71c435.34-181.33,567.07-795.33,174.02-1065.85l2.86,180.59-184.98,38.49c272.43,129.23,151.03,495.5-111.22,568.06Z"/>
        <path class="cls-12" d="m1465.98,1640.45c412.44,296.62,773.32,335.3,1061.08,99.59l-202.53-71.97,56.37-180.39c-252.54,175.27-487.24,118.24-712.54-61.22l-202.39,213.98Z"/>
        <path class="cls-12" d="m191.6,803.41v195.39s185.86,8.05,185.86,8.05c120.52-78.18,295.03-71.87,514.72-1.57l127.66-283.03c-333.82-142.96-607.49-108.82-828.24,81.16Z"/>
        <path class="cls-50" d="m892.19,1005.28l-104.41-217.49,232.07-65.54c150.75,78.63,272.16,174.93,369.12,285.96,106.73,235.05,253.2,435.65,436.39,521.27l-240.41,2.53,37.02,209.71c-94.2-56.41-185.1-119.73-265.08-188.76l-180.53-320.98c-62.95-95.6-150.77-173.45-284.15-226.71Z"/>
        <path class="cls-74" d="m1388.96,1008.22c-70.62,75.51-116.85,186.83-183.21,265.93-105.84,126.16-237.83,289.16-476.01,310.37l194.45,100.61-115.76,189.82c388.43-77.2,660.21-330.57,785.93-619.18v-277.76l-205.4,30.23Z"/>
      </g>
      <g>
        <path class="cls-12" d="m1454.91,200.29l945.44-4.13c9.04-.08,16.4,7.25,16.35,16.3l-2.02,330.93c-.05,9.1-7.57,16.38-16.67,16.1-83.37-2.49-937.84-13.45-954.18-12.77-16.15.68-7.37-260.66-4.96-330.79.3-8.67,7.37-15.56,16.05-15.64Z"/>
        <path class="cls-38" d="m2398.5,546.68h-.11c-53.28-1.59-563.88-7.97-809.27-11.03-71.75-.9-122.68-1.53-136.26-1.72l-1.27-.02-.22-1.25c-5.8-32.72-5.7-142.09.29-316.31.06-1.82,1.54-3.25,3.36-3.27l945.44-4.13c.93,0,1.79.36,2.43,1,.65.65.99,1.48.99,2.41l-2.02,330.93c-.01,1.86-1.52,3.38-3.37,3.38Zm-944.32-15.8c15.27.21,65.31.83,134.98,1.7,245.39,3.06,756.02,9.44,809.32,11.03h.09c.09,0,.23-.15.23-.33l2.02-330.93-.35-1.86v1.53s-945.43,4.13-945.43,4.13c-.17,0-.31.13-.32.31-5.91,171.84-6.09,280.43-.55,314.42Z"/>
        <path class="cls-54" d="m1495.36,285.75h0c0,8.95,2.99,16.2,6.67,16.2h362.15c3.68,0,6.67-7.25,6.67-16.2h0c0-8.95-2.99-16.2-6.67-16.2h-362.15c-3.68,0-6.67,7.25-6.67,16.2Z"/>
        <path class="cls-19" d="m1495.36,340.99h0c0,8.95,2.99,16.2,6.67,16.2h362.15c3.68,0,6.67-7.25,6.67-16.2h0c0-8.95-2.99-16.2-6.67-16.2h-362.15c-3.68,0-6.67,7.25-6.67,16.2Z"/>
        <path class="cls-1" d="m1495.36,396.23h0c0,8.95,2.99,16.2,6.67,16.2h362.15c3.68,0,6.67-7.25,6.67-16.2h0c0-8.95-2.99-16.2-6.67-16.2h-362.15c-3.68,0-6.67,7.25-6.67,16.2Z"/>
        <path class="cls-15" d="m1495.36,451.47h0c0,8.95,2.99,16.2,6.67,16.2h362.15c3.68,0,6.67-7.25,6.67-16.2h0c0-8.95-2.99-16.2-6.67-16.2h-362.15c-3.68,0-6.67,7.25-6.67,16.2Z"/>
        <g>
          <circle class="cls-38" cx="1962.6" cy="297.17" r="63"/>
          <circle class="cls-38" cx="2119.16" cy="297.17" r="63"/>
          <circle class="cls-38" cx="2275.73" cy="299.23" r="63"/>
          <g>
            <path class="cls-12" d="m2000.03,283.85c1.95,4.74,3.03,9.93,3.03,15.38,0,22.35-18.12,40.46-40.46,40.46s-40.46-18.12-40.46-40.46,18.12-40.46,40.46-40.46c.68,0,1.36.02,2.04.05v-10.26c-.68-.03-1.36-.04-2.04-.04-28.01,0-50.71,22.71-50.71,50.71s22.71,50.71,50.71,50.71,50.71-22.71,50.71-50.71c0-6.9-1.38-13.47-3.87-19.46l-9.41,4.09Z"/>
            <path class="cls-12" d="m2140.04,333.46c-6.24,3.94-13.63,6.23-21.56,6.23-22.35,0-40.46-18.12-40.46-40.46s18.12-40.46,40.46-40.46c.68,0,1.36.02,2.04.05v-10.26c-.68-.03-1.36-.04-2.04-.04-28.01,0-50.71,22.71-50.71,50.71s22.71,50.71,50.71,50.71c9.78,0,18.9-2.77,26.65-7.56l-5.09-8.92Z"/>
            <path class="cls-12" d="m2309.5,321.98c-7.28,10.69-19.55,17.71-33.46,17.71-22.35,0-40.46-18.12-40.46-40.46s18.12-40.46,40.46-40.46c.68,0,1.36.02,2.04.05v-10.26c-.68-.03-1.36-.04-2.04-.04-28.01,0-50.71,22.71-50.71,50.71s22.71,50.71,50.71,50.71c17.33,0,32.62-8.69,41.77-21.95l-8.31-6.01Z"/>
          </g>
          <g class="cls-82">
            <path class="cls-60" d="m2013.93,386.85h-102.66c-6.44,0-11.67,5.22-11.67,11.67s5.22,11.67,11.67,11.67h102.66c6.44,0,11.67-5.22,11.67-11.67s-5.22-11.67-11.67-11.67Z"/>
            <path class="cls-52" d="m2170.49,386.85h-102.66c-6.44,0-11.67,5.22-11.67,11.67s5.22,11.67,11.67,11.67h102.66c6.44,0,11.67-5.22,11.67-11.67s-5.22-11.67-11.67-11.67Z"/>
            <path class="cls-77" d="m2224.4,410.18h102.66c6.44,0,11.67-5.22,11.67-11.67s-5.22-11.67-11.67-11.67h-102.66c-6.44,0-11.67,5.22-11.67,11.67s5.22,11.67,11.67,11.67Z"/>
            <path class="cls-17" d="m1911.27,423.14h102.66c6.44,0,11.67,5.23,11.67,11.67v68.71c0,6.44-5.23,11.67-11.67,11.67h-102.66c-6.44,0-11.67-5.23-11.67-11.67v-68.71c0-6.44,5.23-11.67,11.67-11.67Z"/>
            <rect class="cls-3" x="2056.17" y="423.14" width="125.99" height="92.04" rx="11.67" ry="11.67"/>
            <rect class="cls-30" x="2212.73" y="423.14" width="125.99" height="92.04" rx="11.67" ry="11.67"/>
          </g>
        </g>
      </g>
      <g>
        <g>
          <path class="cls-45" d="m1046.44,2532.8s-5.15,27.63-7.81,55c-1.04,10.7,7.13,20.07,17.86,20.62,36.47,1.87,114.48,5.57,142.49,4.58,4.21-.15,7-4.43,5.48-8.36h0c-1.27-3.29-3.77-5.97-6.96-7.48l-128.34-60.47-22.73-3.9Z"/>
          <path class="cls-16" d="m1042.59,2516.5l3.61,33.14s22.48,10.73,38.01-.96l-9-36.98-32.63,4.8Z"/>
          <path class="cls-34" d="m1051.48,1894.19c-1.78,8.63-13.22,431.3,30.16,621.18.71,3.1-.89,6.27-3.84,7.44-6.96,2.77-20.58,6.74-36.87,7.13-5.04.12-9.53-3.2-10.91-8.05-12.5-44.08-72.29-264.89-78.36-475.34-6.78-235.16.08-8,.08-8l6.68-145.26,93.07.91Z"/>
          <path class="cls-4" d="m898.02,2545.83s-7.91,13.9-15.8,50.95c-1.42,6.69,3.2,13.15,10,13.89,12.04,1.3,30.57,3,45.42,3.04,6.85.02,12.25-5.89,11.49-12.7-1.52-13.57-6.43-35.85-22.1-53.33l-29.01-1.85Z"/>
          <path class="cls-65" d="m891.59,2503.18l8.7,50.15s9.01,6.84,27.01,2.11l-3.87-53.9-31.84,1.64Z"/>
          <path class="cls-5" d="m872.5,1905.45c-39.09,222.69,2.76,551.34,17.31,615.73.89,3.94,4.04,6.99,8.02,7.68,6.76,1.19,17.9,2.21,28.92-.88,3.8-1.06,6.49-4.45,6.68-8.39,2.53-51.92,1.91-370.8,37.55-496.48,1.81-6.37,5.76-11.9,11.19-15.69l67.29-46.88,5.86-76.76-182.82,21.65Z"/>
          <g>
            <path class="cls-26" d="m1112.03,1485.08c-110.74-2.89-233.24,26.86-233.24,26.86-34.85,192.32-9.73,414.77-9.73,414.77,85.53,23.3,182.6-12.01,182.6-12.01,15.02-80.38,83.67-306.35,83.67-306.35,54.18-6.2,98.91-21.39,135.81-41.68-27.69-32.73-40.5-74.15-46-98.62-39.28,11.8-78.96,17.92-113.12,17.03Z"/>
            <path class="cls-44" d="m1440.73,1325.06c-10.75-13.25-24.58-7.16-24.58-7.16-16.96,68.69-102.95,123.7-191.01,150.15,5.5,24.47,18.31,65.9,46,98.62,146.49-80.54,169.59-241.61,169.59-241.61Z"/>
          </g>
          <g>
            <path class="cls-11" d="m1438.06,1328.38c1.1,3.63-12.13,9.02-19.75-5.86-.2-7.1-4.23-37.53.07-43.27,22.87-30.56,67.01-68.73,67.01-68.73,7.33,7.37,1.17,14.48,1.17,14.48l-21.45,21.92c4.37,8.07,9.72,14.89,12.16,24.63,1.85,7.37.6,15.22-3.18,21.87-3.79,6.68-8.96,15.36-13.83,22.15-9.22,12.84-22.2,12.82-22.2,12.82Z"/>
            <path class="cls-35" d="m1455.68,1261.18l-19.51,16.22-6.23,16.27,17.07,19.3s6.11-32.35,10.49-39.32c4.38-6.97,2.17-10.38-1.82-12.47Z"/>
          </g>
          <path class="cls-25" d="m920.25,1619.59l-41.46-107.65s-104.12,69.3-121.99,158.26c19.53,1.63,55.05,7.05,89.7,24.96,8.05-42.01,73.74-75.58,73.74-75.58Z"/>
          <path class="cls-31" d="m1009.69,1721.36s-116.78,64.53-155.43,8.11c-8.03-11.72-9.86-23.3-7.75-34.31-34.65-17.91-70.17-23.34-89.7-24.96-5.39,26.82-2.95,55.42,12.57,84.45,67.45,126.23,255.42-4.5,255.42-4.5l-15.1-28.78Z"/>
          <path class="cls-62" d="m1000.7,1394.09l-36.21,101.58c-.6,1.68.08,3.56,1.63,4.44,9.56,5.4,44.02,21.08,85.98-4.96,4.37-2.71,7.37-7.18,8.08-12.27l12.25-88.1-71.73-.68Z"/>
          <g>
            <path class="cls-32" d="m1078.28,1300.45s38,73.21,32.76,102.59c-5.24,29.38-53.18,26.81-94.83,2.51l-28.51-78.93,90.59-26.17Z"/>
            <path class="cls-63" d="m1018.43,1366.94c1.71-.74,2.36-2.82,1.35-4.38-3.06-4.77-8.77-14.48-10.55-22.96,0,0-6.91-4.52,17.8-10.19,24.72-5.67,61.59-14.48,69.52-35.4,7.73-20.4-11.58-72.06-43.57-31.35-1.22,1.55-3.57,1.56-4.76-.01-5.11-6.79-18.6-20.91-37.58-12.61-17.77,7.77-19.88,20.71-19.7,27.25.05,1.92-1.68,3.4-3.57,3.02-8.93-1.79-30.38-3.46-40.61,18.46-8.42,18.06-3.16,28.38,1.68,33.44,1.57,1.64.85,4.31-1.33,4.96-5.9,1.74-13.53,6.66-12.91,20.44.87,19.05,22.17,17.58,28.24,16.77.99-.13,1.99.22,2.66.97,5.14,5.8,28.32,30.44,53.64,33.63,2.19.28,3.91-1.87,3.21-3.97l-10.66-31.98c-.5-1.49.23-3.1,1.67-3.72l5.46-2.36Z"/>
            <path class="cls-53" d="m1022.79,1371.51s-27.37-19.17-29.54-3.27c-2.16,15.9,24.59,23.3,37.94,17.49l-8.4-14.22Z"/>
          </g>
          <g>
            <g>
              <path class="cls-75" d="m985.82,1823.35l63.61-222.15c.72-2.52,2.87-4.36,5.48-4.66,11.53-1.34,44.92-5.12,83.48-8.38,46.45-3.93,100.38-7.11,132.62-4.4,4.58.38,7.35,5.23,5.31,9.35-18.33,37.08-93.72,187.92-131.48,237.33-1.25,1.64-3.19,2.59-5.25,2.57l-147.59-1.37c-4.29-.04-7.37-4.16-6.19-8.29Z"/>
              <path class="cls-71" d="m1001.19,1769.68s-8.86-36.44-5.29-49.36c3.57-12.93,10.5-29.55,33.58-25.85,23.08,3.69,50.32,13.42,50.32,13.42,0,0-1.38,16.84-18.92,11.41l10.88,8.42s-1.56,13.48-16.37,6.28l10.12,11.16s-6.36,11.07-17.27,3.97c-10.9-7.1-16.13,24.95-47.05,20.56Z"/>
            </g>
            <path class="cls-74" d="m1134.16,1654.47c0,10.31,8.36,18.67,18.67,18.67s18.67-8.36,18.67-18.67-8.36-18.67-18.67-18.67-18.67,8.36-18.67,18.67Z"/>
            <path class="cls-67" d="m1056.63,1666.78l-4.76-1.41,12.95-43.93c2.11-7.16,7.89-12.53,15.07-14.02,41.05-8.57,149.17-10.32,153.75-10.39l.08,4.96c-1.12.01-112.23,1.81-152.82,10.28-5.39,1.12-9.73,5.17-11.32,10.57l-12.95,43.93Z"/>
          </g>
        </g>
        <g>
          <path class="cls-12" d="m303.79,2288.48c-6.78,10.03-33.73,237.22-37.95,321.12-.29,5.67,4.25,10.4,9.93,10.4h0c4.9,0,9.07-3.57,9.82-8.41l49.29-315.89-31.1-7.23Z"/>
          <path class="cls-12" d="m520.47,2288.48c6.78,10.03,33.73,237.22,37.95,321.12.29,5.67-4.25,10.4-9.93,10.4h0c-4.9,0-9.07-3.57-9.82-8.41l-49.29-315.89,31.1-7.23Z"/>
          <path class="cls-12" d="m263.02,2270.75l-.02,2.48c-.16,17.82,15.19,32.44,34.42,32.77l227.85,3.88c18.95.32,34.74-13.37,35.66-30.92l.12-2.27c.96-18.3-14.58-33.72-34.34-34.07l-227.95-4.09c-19.51-.35-35.57,14.13-35.74,32.22Z"/>
        </g>
        <g>
          <g>
            <path class="cls-12" d="m742.99,2601.35c-40.5,0-58.42-3.47-66.44-6.64,1.56,6.65,7.48,11.9,14.97,11.9h143.29c4.82,0,7.87-4.62,6.72-8.8-16.33,1.31-51.02,3.54-98.54,3.54Z"/>
            <path class="cls-20" d="m841.53,2597.81c-.23-.84-.57-1.67-1.17-2.44-10.92-13.94-32.84-35.82-62.67-35.4-43.69.61-58.93,5.35-92.88.27l-8.01,26.55c-.82,2.71-.83,5.41-.24,7.92,8.01,3.17,25.93,6.64,66.44,6.64,47.51,0,82.2-2.23,98.54-3.54Z"/>
          </g>
          <path class="cls-41" d="m694.64,2531.63l-9.83,33.44s21.78,9.92,40.94,1.96l3.76-28.97-34.87-6.42Z"/>
          <g>
            <path class="cls-12" d="m991.62,2580.29c-31.57,25.37-47.71,33.9-55.93,36.46,5.36,4.19,13.25,4.55,19.09-.14l111.7-89.75c3.76-3.02,3.26-8.51-.25-11.04-11.91,11.25-37.57,34.71-74.61,64.47Z"/>
            <path class="cls-6" d="m1066.23,2515.83c-.71-.51-1.49-.94-2.44-1.16-17.2-3.97-47.93-7.22-70.92,11.79-33.68,27.84-42.6,41.06-72.24,58.38l10.31,25.62c1.05,2.61,2.72,4.72,4.75,6.3,8.22-2.56,24.36-11.09,55.93-36.46,37.04-29.76,62.69-53.22,74.61-64.47Z"/>
          </g>
          <path class="cls-24" d="m484.31,2150.63s242.49,19.8,292.24,43.22c49.75,23.42-40.6,351.63-40.6,351.63,0,0-13.54,6.52-43.68-2.85,0,0,30.9-242.21,7.91-294.73l-262.56-42.95,46.68-54.32Z"/>
          <path class="cls-39" d="m896.54,2538.73c2.25,2.05,24.09,46.1,24.09,46.1,0,0,24.32-5.26,29.27-20.65l-21.88-39.76-31.49,14.31Z"/>
          <path class="cls-57" d="m338.25,2148.6s-7.9,19.01-7.58,44.28c.45,34.95,28.54,63.3,63.45,65.04l286.67,13.07c6.05.28,11.18,4.47,12.69,10.33,6.74,26.06,39.66,106.07,200.62,265.74,4.28,4.25,10.95,4.97,16.05,1.75l22.91-14.47c2.41-1.52,3.17-4.67,1.74-7.13l-166.91-285.03c-8.77-14.47-22.86-24.92-39.25-29.11l-244.33-62.46-146.05-2.03Z"/>
          <path class="cls-80" d="m620.76,1703.36s-30.71,54.3-62.02,80.6l64.72,36.11s14.58-57.48,47.9-74.31l-50.6-42.4Z"/>
          <path class="cls-26" d="m333.05,2150.63s77.39,18.86,151.26,0c0,0,103.36-138.95,143.35-176.77,0,0,63.79,100.65,205.76,114.92l7.92-17.69s-113.03-52.1-147.82-132.16c-34.8-80.06-48.77-114.2-80.43-135.09-19.72-13.01-31.52-21.9-37.62-26.75-3.34-2.66-7.95-2.96-11.59-.74-33.6,20.47-191.68,128.74-230.83,374.28Z"/>
          <path class="cls-2" d="m623.46,1971.9c-1.49,0-2.96-.67-3.94-1.94-24.65-32.13-38.37-67.56-38.94-69.04-.98-2.56.3-5.43,2.86-6.41,2.56-.98,5.43.3,6.41,2.86.14.35,13.81,35.61,37.55,66.56,1.67,2.18,1.26,5.29-.92,6.96-.9.69-1.96,1.02-3.02,1.02Z"/>
          <path class="cls-49" d="m824.89,2061.84l15.98-4.26,48.52-11.24c5.84-1.35,11.98-.32,17.05,2.88l41.72,26.25-115.21-.19-8.06-13.43Z"/>
          <g>
            <path class="cls-28" d="m669.52,1621.95s29.84,49.61,35.02,77.03c5.18,27.42,13.49,44.56-17.72,54.33-31.21,9.77-60.21-2.6-78.41-28.19,0,0-28.43-39.39-25.59-57.43,2.84-18.04,86.69-45.74,86.69-45.74Z"/>
            <path class="cls-27" d="m616.73,1703.9l4.04-.53s-21.13-31.93-7.3-39.85c13.83-7.92,70.18-27.36,79.96-49.55,9.43-21.39-4.68-45.56-21.69-50.61-1.08-.32-2.21.32-2.6,1.37l-1,2.69c-.68,1.85-3.27,1.92-4.06.12h0c-.75-1.71-3.2-1.78-3.97-.08-3.02,6.65-12.05,18-39.15,26.79-38.45,12.47-62.4,31.85-59.46,59.17.19,1.73-1.53,2.92-3.12,2.22-3.14-1.39-7.91-1.61-13.44,4.44-9.62,10.52-2.08,33.54,24.2,49.83,1.25.77,1.47,2.54.35,3.49-3.93,3.37-9.46,10.87,8.32,17.56,18.19,6.84,28.11,4.53,31.78,3.06.99-.4,1.55-1.42,1.35-2.46l-4.67-23.94c-.24-1.24.61-2.42,1.86-2.59l8.61-1.13Z"/>
            <path class="cls-14" d="m618.38,1708.82s-13.17-32.47-27-21.06c-13.83,11.41,12.78,36.64,25.07,36.3l1.93-15.24Z"/>
          </g>
        </g>
        <g>
          <path class="cls-33" d="m780.37,2098.07c.19,0,.38.01.57.01l246.13-.25c6.08,0,11.01-4.93,11-11.01,0-6.08-4.96-11.1-11.03-10.99l-246.13.25c-6.08,0-11.01,4.93-11,11.01,0,5.88,4.64,10.69,10.47,10.97Z"/>
          <path class="cls-68" d="m1122.39,1857.03c-.09.17-.17.34-.25.51l-103.56,223.28c-2.56,5.52-.17,12.06,5.34,14.62,5.51,2.56,12.15.18,14.61-5.37l103.56-223.28c2.56-5.52.17-12.06-5.34-14.62-5.34-2.47-11.65-.29-14.36,4.86Z"/>
        </g>
        <g>
          <g>
            <rect class="cls-12" x="1740.93" y="2322.47" width="25.98" height="280.94"/>
            <path class="cls-12" d="m1867.69,2608.82h-227.53c0-9.34,7.57-16.91,16.91-16.91h193.71c9.34,0,16.91,7.57,16.91,16.91h0Z"/>
            <rect class="cls-12" x="1615.38" y="2259.52" width="286.07" height="81.13" rx="27.94" ry="27.94"/>
          </g>
          <g>
            <path class="cls-48" d="m1562.14,2135.15s-38.6,5.98-82,35c-6.83,4.57-10.58,12.53-9.55,20.68,5.2,41.17,26.56,174.4,97.03,304.54,3.72,6.86,4.78,14.85,3.14,22.48l-12.24,56.97-22.7,21.29h58.47l38.93-105.36-16.65-5.26c-12.91-4.08-21.76-15.95-22-29.49l-1.95-113.02c1.67-50.35-30.88-85.1-30.88-85.1l93.38-4.54-92.99-118.17Z"/>
            <path class="cls-72" d="m1512.98,2606.38c-5.33,6.97,57.32,16.17,88.96.92,0,0,43.87-76.33,43.87-115.63,0,0-3.48-8.01-29.24-6.2,0,0-14.73,90.38-30.28,100.5-15.55,10.12-43.52,1.02-43.52,1.02,0,0-21.93,9.09-29.79,19.38Z"/>
            <path class="cls-61" d="m1643.32,2259.52c-.5-.86-100.54-12.03-100.54-12.03,0,0,3.27,30.42-6.96,72.29-10.23,41.88-157.12,223.3-157.12,223.3l15.4,48.82c-47.62,16.59-94.46,19.24-140.56,8.46l95.45-57.28s89.33-304.42,144.05-358.73l100.28-34.7,50,109.86Z"/>
            <path class="cls-58" d="m1867.69,2082.39s57.64,85.73,62.37,124.84c4.73,39.11-15.79,55-76.27,57.62-60.48,2.62-221.94,2.58-221.94,2.58l-137.8-117.77s100.42-35.83,126.53-45.97c26.11-10.13,247.11-21.3,247.11-21.3Z"/>
            <path class="cls-59" d="m1388.28,2575.47s16.58,16.06,5.38,33.93c0,0-131.36,23.28-167.02,12.72,0,0,7.41-16.9,47.56-36.14l-2.96,2.27c-3.75,2.88-1.55,8.88,3.17,8.61,26.46-1.51,81.23-6.36,113.87-21.39Z"/>
          </g>
          <g>
            <path class="cls-40" d="m1618.01,1538.68c117.83-20.03,173.3,76.07,169.25,96.26-.54,2.68,1.99,4.94,4.62,4.23,13.53-3.64,43.41-8.23,61.94,14.98,16.36,20.49,4.13,39.83-5.83,50.45-2.41,2.56-.38,6.73,3.11,6.29,24.87-3.14,78.91-3.89,87.75,46.73,8.25,47.21-24.61,60.52-44.1,64.27-3.3.63-4.07,4.97-1.23,6.77,9.72,6.17,20.99,18.91,16.43,44.06-7.13,39.42-84.42,36.2-93.46,35.68-.57-.03-1.11-.2-1.61-.48l-123.8-70.61c-.97-.55-1.63-1.5-1.82-2.6l-24.99-144.34c-.2-1.17.16-2.36.98-3.22l-80.71-113.89c-29.3-4.31,32.08-34.36,33.47-34.6Z"/>
            <path class="cls-26" d="m1711.8,2071.04s-67.12-63.92-100.16-106.25c-17.86-22.88-23.47-53.01-15.21-80.84,15.08-50.82,41.89-103.46,44.34-111.65,3.75-12.56,79.01-12.03,79.01-12.03,0,0,148.1,96.12,206.29,258.94l-65.35,20.35s-38.67-64.88-76.88-106.12c0,0,66.11,87.34,68.44,123.09l-140.48,14.52Z"/>
            <path class="cls-66" d="m1631.67,1702.12c.79,2.61,20.43,67.73,21.97,69.08,1.54,1.35,43.08,3.59,62.63-9.78l-48.51-94.88-36.1,35.57Z"/>
            <g>
              <path class="cls-47" d="m1552.92,1618.45s-9.49,37.31,16.77,87.48c26.27,50.18,56,50.12,72.25,34.06,16.25-16.06,36.3-43.31,31.54-91.82-4.76-48.51-106.85-77.18-120.56-29.72Z"/>
              <path class="cls-55" d="m1637.14,1650.8s-43.58-66.62-84.44-14.19l-.74,19.07s-47.86-5.68-39.48-49.57c8.37-43.89,49.74-71.32,103.01-52.31,53.27,19.01,83.79,38.5,87.23,76.68,3.44,38.17-26.93,29.8-26.93,29.8,0,0-9.91-26.88-23.99-29.67-14.08-2.79-10.42,18.17-10.42,18.17l-4.22,2.02Z"/>
              <path class="cls-36" d="m1648.3,1649.91s-22.6-34.11.56-39.2c23.16-5.09,19.57,33.24,17.07,47.42l-17.62-8.22Z"/>
            </g>
            <path class="cls-37" d="m1575.06,2075.79l49.32-47.53,68.22,28.82s67.91,10.52,106.78,0l38.87-10.52,87.83-27.34,13.79,38.99c3.5,9.9-.02,20.89-8.58,26.97-7.6,5.4-16.51,11.33-22.18,13.82-11.57,5.06-285.13-3.5-285.13-3.5l-48.92-19.69Z"/>
          </g>
          <g>
            <path class="cls-76" d="m1761.69,2098.2c-.22.01-.44.02-.66.01l-286.08-.31c-7.07,0-12.8-5.74-12.79-12.82,0-7.07,5.77-12.92,12.82-12.79l286.08.31c7.07,0,12.8,5.75,12.79,12.82,0,6.85-5.4,12.44-12.16,12.78Z"/>
            <path class="cls-10" d="m1217.78,1838.46h238.25c17.58,0,33.57,10.14,41.07,26.04l110.14,233.55h-296.08c-11.33,0-21.5-6.92-25.67-17.45l-85.41-216.12c-4.94-12.49,4.27-26.02,17.69-26.02Z"/>
            <path class="cls-74" d="m1385.63,1958.2c5.16,16.04,1.35,31.62-8.52,34.79-9.87,3.18-22.05-7.25-27.22-23.29-5.16-16.04-1.35-31.62,8.52-34.79,9.87-3.18,22.05,7.25,27.22,23.29Z"/>
          </g>
        </g>
        <g>
          <g>
            <path class="cls-22" d="m2087.84,2573.41s3,16.67,4.19,36.46c.51,8.43-5.74,15.76-14.15,16.58-29.28,2.84-95.93,8.08-138.49,1.94-5.96-.86-8.33-8.18-3.92-12.29,17.55-16.35,59.93-48.15,129.68-55.1l22.7,12.41Z"/>
            <path class="cls-43" d="m2102.4,2535.83l-14.8,36.29c-2.03,4.97-7.07,8.06-12.42,7.5-3.63-.38-7.92-1.07-12.09-2.34-8.35-2.54-13.07-11.39-10.57-19.76l11.17-37.38,38.71,15.68Z"/>
            <path class="cls-42" d="m2355.51,2602.32s-29.65,24.8-41.2,56.62c-3.18,8.75,3.54,17.97,12.85,17.97h61.01c8.93,0,15.78-8.03,14.22-16.83-3.89-21.97-15.09-57.67-46.88-57.77Z"/>
            <path class="cls-64" d="m2392.23,2570.03s-5.99,26.51-10.59,44.02c-.84,3.18-4.23,4.92-7.32,3.82-9.23-3.3-16.74-4.76-22.21-4.03-2.52.34-4.73-1.76-4.76-4.31l-.57-44.02,45.46,4.52Z"/>
            <path class="cls-8" d="m2234.56,1973.62l-180.32,550.12s34.59,22.65,51.06,21.71l214.18-442.11s37.48,272.41,19.32,467.98l61.35,4.68s99.75-499.78,24.2-670.96l-189.79,68.58Z"/>
            <path class="cls-74" d="m2318.33,2098.59c.07,0,.15,0,.22-.01.96-.12,1.64-.99,1.51-1.95l-7-55.54c-.12-.96-.98-1.62-1.95-1.51-.96.12-1.64.99-1.51,1.95l7,55.54c.11.88.86,1.53,1.73,1.53Z"/>
          </g>
          <path class="cls-26" d="m2200.76,1489.55s146.1,12.97,125.43,117.07c0,0,80.76,151.98,118.51,331,1.23,5.83-2.67,11.51-8.54,12.51l-243.3,41.66c-6.71,1.15-13.18-3.04-14.89-9.63l-58.13-224.67-22.65,104.46-71.98-18.75,60.59-306.94s8.45-44.78,114.96-46.71Z"/>
          <path class="cls-23" d="m2118.6,1747.45c.13,0,.26-.01.39-.04.98-.21,1.6-1.18,1.38-2.16l-20.28-93.12c-.21-.98-1.17-1.59-2.16-1.38-.98.21-1.6,1.18-1.39,2.16l20.28,93.12c.19.85.94,1.43,1.77,1.43Z"/>
          <path class="cls-73" d="m2133.29,2024.55c7.66-4.21,16.64-5.38,25.12-3.27l16.93,4.21c3.6.9,7.16-1.58,7.58-5.27l17.52-155.92c21.9,10.4,53.5,9.16,63.92,8.4l-40.32,183.81h-141.09l50.34-31.97Z"/>
          <path class="cls-56" d="m1758.42,1686.35l4.26-14.17c2.45-8.16,8.48-14.75,16.39-17.93l77.13-31.02s1.16-9.89-16.3-16.61c-17.46-6.72-13.38-26.28-13.38-26.28,0,0,23.86,10.88,58.78,28.14,19.97,9.87,31.18,27.3,37.12,40.41l174.77,213.06-20.52,14.1c-26.98,18.54-64.09,9.43-79.42-19.49l-94.68-181.55c-47.53,14.28-95.63,17.01-144.14,11.35Z"/>
          <g>
            <path class="cls-29" d="m2153.43,1390.16l44.93,125.76s-39.79,31.11-68.83,20.59l-22.64-72.09s17.29-88.11,46.53-74.26Z"/>
            <g>
              <path class="cls-9" d="m2019.32,1344.99c0,1.94,43.28,122.53,43.28,122.53l68.33-26.18-24.04-120.39s-87.57-8.4-87.57,24.04Z"/>
              <path class="cls-69" d="m2094.91,1350.28l17.62,62.39c.23.8.34,1.61.34,2.44,0,5.09-1.25,22.6-19.09,20.22-16.18-2.16-30.98-3.89-40.4.54-4.23,1.99-6.25,6.85-4.67,11.25,3.94,10.96,13.26,35.48,24.61,55.55,2.3,4.07,7.36,5.66,11.62,3.72,12.83-5.84,39.56-18.91,58.59-34.46,2.58-2.11,3.82-5.42,3.2-8.69-2.99-15.96-11.92-64.5-12.31-78.41-.37-13.06,14.28-23.02,20.73-26.77,2.11-1.23,3.62-3.25,4.19-5.63,2.02-8.4,3.74-27.42-20.52-31.61-5.08-.88-8.39-5.74-7.36-10.79,2.05-10.05,1.4-24.84-17.69-30.29-19.4-5.54-31.61,6.14-37.82,15.09-2.51,3.62-7.21,4.8-11.23,3-2.29-1.02-5.06-1.07-8.03,1.44-4.01,3.38-10.1,2.35-13.05-1.98-5.66-8.33-15.93-16.64-33.33-11.01-30.87,9.99-29.4,45.58-18.08,64.93,11.32,19.35,44.17,6.62,59.73-6.2,11.83-9.75,29.83-3.92,37.78-.56,2.52,1.06,4.4,3.22,5.14,5.85Z"/>
              <path class="cls-51" d="m2140.62,1407.59s-18.27-34.56-6.19-45.42c12.08-10.85,32.55-9.08,32,17.95-.68,33.62-25.81,27.47-25.81,27.47Z"/>
            </g>
          </g>
          <path class="cls-78" d="m2250.18,1875.05c9.97,0,17.09-.76,17.86-.84l1.3-.14,53.2-248.03c.21-.98-.41-1.94-1.39-2.15-.99-.22-1.94.41-2.15,1.39l-52.65,245.45c-7.92.7-50.19,3.5-72.51-12.31l46.08-215.49-9.62-18.13c-.47-.88-1.57-1.22-2.45-.75-.88.47-1.22,1.57-.75,2.45l9,16.96-46.3,216.48.92.69c16.13,12.12,42.1,14.41,59.45,14.41Z"/>
        </g>
        <g>
          <path class="cls-74" d="m655.37,2631.25c-1.22,0-2.46-.27-3.66-.83-4.7-2.21-6.87-8.16-4.85-13.29l194.39-493.24c2.02-5.13,7.47-7.5,12.18-5.3,4.7,2.21,6.87,8.16,4.85,13.29l-194.39,493.24c-1.51,3.83-4.93,6.12-8.52,6.12Z"/>
          <path class="cls-74" d="m874.36,2631.25c-3.59,0-7.01-2.29-8.52-6.12l-194.39-493.24c-2.02-5.13.15-11.08,4.85-13.29,4.7-2.21,10.15.16,12.18,5.3l194.39,493.24c2.02,5.13-.15,11.08-4.85,13.29-1.19.56-2.44.83-3.66.83Z"/>
          <path class="cls-74" d="m1974.66,2631.25c-1.22,0-2.46-.27-3.66-.83-4.7-2.21-6.87-8.16-4.85-13.29l194.39-493.24c2.02-5.13,7.47-7.5,12.18-5.3,4.7,2.21,6.87,8.16,4.85,13.29l-194.39,493.24c-1.51,3.83-4.93,6.12-8.52,6.12Z"/>
          <path class="cls-74" d="m2193.65,2631.25c-3.59,0-7.01-2.29-8.52-6.12l-194.39-493.24c-2.02-5.13.15-11.08,4.85-13.29,4.7-2.21,10.15.16,12.18,5.3l194.39,493.24c2.02,5.13-.15,11.08-4.85,13.29-1.19.56-2.44.83-3.66.83Z"/>
        </g>
        <g>
          <path class="cls-13" d="m1946.45,2089.06h281.55s0-29.06,0-29.06h-281.55c6.03,0,6.03,29.06,0,29.06Z"/>
          <path class="cls-21" d="m2224.66,2089.06c1.84,0,3.34-1.5,3.34-3.34v-22.37c0-1.84-1.5-3.34-3.34-3.34h-283.45c-1.84,0-3.34-1.48-3.34-3.28s1.5-3.28,3.34-3.28h302.91c6.72,0,12.16,5.44,12.16,12.16v18.57c0,6.33-5.13,11.46-11.46,11.46h-303.61c-1.84,0-3.34-1.48-3.34-3.28s1.5-3.28,3.34-3.28h283.45Z"/>
        </g>
        <path class="cls-74" d="m2268.82,2108.65c.95-3.24-.34-6.6-3.51-9.15-3.17-2.55-7.89-4.02-12.87-4.02H565.41c-6.55,0-12.65,2.21-16.18,5.87-3.53,3.66-4,8.26-1.26,12.2l18.28,26.25c4.19,6.01,13.26,9.86,23.24,9.86h1651.36c9.28,0,17.27-4.37,19.03-10.41l8.93-30.6Z"/>
      </g>
      <g>
        <g>
          <g class="cls-83">
            <path class="cls-13" d="m1348.09,387.42c-5.34-1.11-8.77-6.34-7.66-11.68,2.16-10.37,3.9-21,5.17-31.57.64-5.35,5.46-9.18,10.8-8.64.06,0,.13.01.19.02,5.41.65,9.27,5.57,8.62,10.99-1.34,11.13-3.17,22.31-5.45,33.24-1.04,4.99-5.68,8.32-10.65,7.81-.34-.03-.69-.08-1.03-.16Zm.19-95.16c-.18-10.65-.82-21.38-1.89-31.93-.55-5.42,3.39-10.27,8.82-10.83,5.45-.54,10.27,3.4,10.83,8.82,1.13,11.09,1.8,22.4,1.99,33.6.09,5.45-4.26,9.95-9.71,10.04-.4,0-.79-.01-1.17-.05-4.91-.5-8.78-4.6-8.87-9.66Zm-10.76-83.11c-2.54-10.31-5.55-20.63-8.97-30.69-1.75-5.16,1.01-10.77,6.18-12.53,5.16-1.75,10.77,1.01,12.53,6.18,3.6,10.59,6.77,21.47,9.44,32.32,1.3,5.3-1.93,10.64-7.23,11.95-1.13.28-2.26.35-3.35.24-4.04-.41-7.57-3.3-8.59-7.47Zm-29.07-78.62c-4.78-9.49-10.04-18.89-15.61-27.93-2.86-4.64-1.42-10.73,3.22-13.59,4.65-2.86,10.73-1.41,13.59,3.22,5.87,9.52,11.39,19.41,16.43,29.4,2.45,4.87.5,10.81-4.37,13.26-1.74.88-3.62,1.19-5.43,1.01-3.24-.33-6.26-2.25-7.83-5.38Z"/>
          </g>
          <g class="cls-83">
            <path class="cls-13" d="m601,209.61c4.74.48,9.26-2.54,10.53-7.29,1.31-4.92,2.74-9.9,4.26-14.79,1.62-5.21-1.3-10.74-6.5-12.36-5.23-1.62-10.74,1.3-12.36,6.5-1.6,5.15-3.11,10.39-4.48,15.57-1.4,5.27,1.74,10.68,7.01,12.08.52.14,1.04.23,1.55.28Z"/>
            <path class="cls-13" d="m914.24,688.88c-5.39-.81-9.11-5.85-8.29-11.24.82-5.39,5.84-9.09,11.24-8.29,10.27,1.55,20.76,2.69,31.31,3.4,5.42.35,9.56,5.08,9.19,10.52-.37,5.44-5.08,9.56-10.52,9.19-4.57-.31-9.12-.69-13.64-1.15-6.45-.65-12.94-1.47-19.29-2.43Zm76.22-5.64c-.37-5.44,3.74-10.15,9.18-10.52,10.45-.72,20.97-1.88,31.29-3.47,5.38-.84,10.43,2.87,11.26,8.26.83,5.39-2.87,10.43-8.26,11.26-10.86,1.67-21.95,2.9-32.94,3.65-.57.04-1.13.03-1.68-.03-4.7-.48-8.51-4.28-8.85-9.15Zm-128.76-6.03c-10.54-3.11-21.09-6.71-31.36-10.71-5.08-1.98-7.6-7.71-5.62-12.79,1.98-5.08,7.7-7.59,12.79-5.62,9.75,3.8,19.77,7.22,29.77,10.17,5.23,1.55,8.22,7.04,6.68,12.27-1.37,4.63-5.82,7.5-10.46,7.03-.6-.06-1.21-.18-1.81-.35Zm212.46-6.89c-1.56-5.23,1.41-10.73,6.64-12.29,10.02-2.99,20.03-6.44,29.75-10.26,5.08-2,10.81.5,12.8,5.58,1.99,5.08-.5,10.81-5.58,12.8-10.24,4.02-20.78,7.66-31.33,10.81-1.28.38-2.57.49-3.81.37-3.86-.39-7.29-3.06-8.47-7.01Zm-292.46-26.75c-9.59-5.35-19.08-11.18-28.22-17.34-4.52-3.05-5.72-9.18-2.67-13.7,3.05-4.53,9.19-5.72,13.71-2.67,8.68,5.85,17.7,11.39,26.81,16.47,4.76,2.66,6.47,8.67,3.81,13.44-1.98,3.55-5.82,5.4-9.62,5.02-1.3-.13-2.6-.53-3.81-1.2Zm-70.68-50.37c-8.21-7.33-16.2-15.1-23.76-23.08-3.75-3.96-3.58-10.21.38-13.96,3.97-3.76,10.22-3.58,13.96.38,7.18,7.58,14.78,14.96,22.58,21.93,4.07,3.63,4.42,9.88.78,13.94-2.19,2.45-5.33,3.55-8.37,3.24-2-.2-3.96-1.02-5.58-2.46Zm-58.03-64.58c-6.42-8.95-12.53-18.27-18.17-27.7-2.8-4.68-1.27-10.74,3.41-13.54,4.69-2.8,10.75-1.27,13.54,3.41,5.35,8.96,11.16,17.82,17.27,26.33,3.18,4.43,2.16,10.6-2.27,13.78-2.04,1.46-4.44,2.04-6.75,1.8-2.72-.28-5.32-1.67-7.03-4.07Zm-42.56-75.7c-4.31-10.14-8.23-20.58-11.66-31.03-1.7-5.18,1.12-10.76,6.3-12.46,5.17-1.7,10.76,1.12,12.46,6.31,3.26,9.92,6.98,19.83,11.07,29.46,2.13,5.02-.21,10.82-5.23,12.95-1.59.67-3.25.9-4.85.74-3.47-.35-6.64-2.53-8.1-5.97Zm-24.9-83.24c-1.96-10.81-3.49-21.85-4.53-32.81-.52-5.43,3.46-10.25,8.89-10.77,5.41-.51,10.25,3.46,10.77,8.89.99,10.41,2.44,20.9,4.31,31.17.97,5.36-2.59,10.51-7.95,11.48-.93.17-1.86.2-2.76.11-4.27-.43-7.91-3.64-8.72-8.07Zm-6.01-86.59c.32-8.09.9-16.27,1.71-24.31.29-2.91.62-5.81.98-8.7.67-5.41,5.54-9.37,11.01-8.59,5.41.66,9.26,5.59,8.59,11.01-.34,2.75-.65,5.51-.93,8.27-.77,7.65-1.32,15.42-1.63,23.11-.22,5.45-4.81,9.69-10.26,9.47-.2,0-.41-.02-.61-.04-5.15-.52-9.07-4.97-8.86-10.22Z"/>
            <path class="cls-13" d="m1160.82,644.18c1.95.2,3.98-.18,5.82-1.21,4.66-2.62,9.36-5.38,13.95-8.22,4.64-2.86,6.08-8.95,3.22-13.59-2.87-4.64-8.95-6.09-13.59-3.22-4.37,2.69-8.83,5.32-13.25,7.81-4.75,2.67-6.45,8.69-3.77,13.44,1.64,2.91,4.53,4.68,7.62,4.99Z"/>
          </g>
          <g>
            <path class="cls-13" d="m1206.74,481.22c1.39-1.39,1.75-3.52.88-5.29l-24.61-50.5c13.83-22.29,24.2-46.95,30.36-73.24l53.07-18.31c1.86-.64,3.11-2.39,3.11-4.36v-67.38c0-1.97-1.26-3.72-3.12-4.36l-53.08-18.3c-6.16-26.29-16.54-50.94-30.37-73.24l24.6-50.5c.86-1.77.51-3.89-.89-5.28l-47.65-47.64c-1.39-1.39-3.52-1.75-5.29-.88l-50.5,24.61c-22.29-13.83-46.95-24.2-73.24-30.36l-18.31-53.07C1011.08,1.25,1009.33,0,1007.36,0h-67.38c-1.97,0-3.72,1.26-4.36,3.12l-18.3,53.08c-26.29,6.16-50.94,16.54-73.23,30.37l-50.5-24.6c-1.77-.86-3.89-.51-5.28.89l-47.64,47.65c-1.39,1.39-1.75,3.52-.89,5.28l24.61,50.5c-13.83,22.29-24.2,46.95-30.36,73.24l-53.07,18.31c-1.86.64-3.11,2.39-3.11,4.36v67.38c0,1.97,1.26,3.72,3.12,4.36l53.08,18.3c6.16,26.29,16.54,50.94,30.37,73.24l-24.6,50.5c-.86,1.77-.51,3.89.89,5.29l47.65,47.64c1.39,1.39,3.51,1.75,5.28.89l50.5-24.61c22.29,13.83,46.95,24.2,73.24,30.36l18.31,53.07c.64,1.86,2.39,3.11,4.36,3.11h67.38c1.97,0,3.72-1.26,4.36-3.12l18.3-53.07c26.29-6.16,50.94-16.54,73.23-30.37l50.5,24.6c1.77.86,3.89.51,5.28-.89l47.64-47.65Z"/>
            <path class="cls-70" d="m957.12,361.53c-36.21-9.14-58.24-46.03-49.1-82.25,4.43-17.54,15.42-32.31,30.95-41.58,15.53-9.27,33.75-11.95,51.29-7.51,36.21,9.14,58.24,46.03,49.1,82.25-8.32,32.95-39.6,54.15-72.45,50.82-3.26-.33-6.53-.9-9.8-1.72Zm-10.05-110.26c-11.91,7.11-20.34,18.43-23.73,31.88-7.01,27.76,9.88,56.05,37.65,63.06,27.77,7.02,56.05-9.88,63.06-37.65,7-27.76-9.88-56.05-37.65-63.06-2.52-.63-5.05-1.08-7.59-1.33-11.02-1.11-22.06,1.32-31.74,7.1Z"/>
            <path class="cls-18" d="m955.69,460.45c5.64.57,11.35.86,17.09.86h0c1.81,0,3.62-.03,5.43-.09,8.92-.29,17.8-1.28,26.51-2.97.12-.02.24-.05.36-.07.34-.07.67-.13,1.01-.2.65-.13,1.31-.27,1.96-.41,1.72-.37,2.93-1.8,3.1-3.46.04-.4.02-.82-.07-1.24-.46-2.13-2.56-3.48-4.69-3.03-10.97,2.37-22.28,3.57-33.59,3.56-56.22.01-105.69-29.37-133.88-73.59-15.68-24.59-24.78-53.77-24.78-85.04,0-5.48.27-10.93.82-16.31,3.67-36.21,19.55-69.79,45.63-95.87,29.96-29.97,69.8-46.47,112.17-46.48,87.51,0,158.65,71.16,158.66,158.63,0,5.39-.27,10.77-.81,16.1-2.34,23.1-9.71,45.43-21.66,65.37-.31.52-.49,1.07-.54,1.63-.15,1.47.54,2.97,1.9,3.79,1.88,1.12,4.3.52,5.42-1.36,12.54-20.93,20.29-44.37,22.74-68.63.57-5.6.85-11.23.86-16.9,0-91.84-74.75-166.54-166.56-166.53-44.49,0-86.31,17.33-117.76,48.79-27.38,27.39-44.06,62.63-47.91,100.65-.57,5.65-.86,11.36-.86,17.12,0,44.49,17.33,86.31,48.79,117.76,27.39,27.39,62.65,44.06,100.68,47.91Z"/>
          </g>
        </g>
        <g>
          <g class="cls-83">
            <path class="cls-13" d="m1658.2,680.44c2.63.27,5.22-1.2,6.26-3.77,1.95-4.8,3.79-9.72,5.45-14.63,1.08-3.19-.63-6.65-3.82-7.73-3.19-1.09-6.65.63-7.73,3.82-1.58,4.68-3.33,9.37-5.19,13.95-1.27,3.12.23,6.67,3.35,7.95.55.22,1.12.36,1.69.42Z"/>
            <path class="cls-13" d="m1671.2,635.45c-3.3-.68-5.42-3.9-4.75-7.2,1.71-8.33,3.01-16.84,3.87-25.3.18-1.78.34-3.58.48-5.38.27-3.35,3.21-5.86,6.57-5.59,3.16.38,5.86,3.21,5.59,6.57-.15,1.88-.32,3.76-.51,5.62-.9,8.87-2.26,17.79-4.06,26.52-.63,3.09-3.51,5.15-6.58,4.84-.2-.02-.41-.05-.62-.09Zm.19-68.85c-.43-10.3-1.51-20.66-3.2-30.8-.55-3.32,1.69-6.46,5.01-7.02,3.31-.55,6.47,1.69,7.02,5.01,1.77,10.63,2.9,21.49,3.35,32.29.14,3.37-2.47,6.21-5.84,6.35-.29.01-.59,0-.88-.03-2.97-.3-5.34-2.74-5.47-5.81Zm-10.18-60.98c-2.94-9.86-6.53-19.65-10.67-29.08-1.35-3.08.05-6.68,3.13-8.03,3.09-1.36,6.68.04,8.04,3.13,4.35,9.89,8.11,20.16,11.19,30.5.96,3.23-.87,6.63-4.1,7.59-.79.23-1.58.3-2.35.22-2.39-.24-4.51-1.89-5.23-4.33Zm-24.85-56.62c-5.28-8.86-11.15-17.47-17.46-25.58-2.07-2.66-1.59-6.49,1.07-8.56,2.65-2.06,6.49-1.59,8.56,1.07,6.62,8.51,12.77,17.54,18.31,26.82,1.72,2.89.77,6.64-2.12,8.36-1.17.69-2.47.95-3.73.83-1.86-.19-3.6-1.22-4.63-2.95Zm-37.92-48.84c-7.27-7.3-15.05-14.22-23.15-20.57-2.65-2.08-3.11-5.91-1.03-8.56s5.91-3.12,8.56-1.03c8.48,6.65,16.64,13.91,24.26,21.56,2.37,2.39,2.37,6.25-.02,8.62-1.35,1.34-3.17,1.92-4.92,1.75-1.35-.14-2.67-.73-3.71-1.76Zm-48.63-38.15c-8.82-5.31-18.05-10.12-27.44-14.29-3.08-1.37-4.47-4.97-3.1-8.05,1.37-3.08,4.96-4.46,8.05-3.1,9.85,4.37,19.53,9.42,28.78,14.99,2.88,1.74,3.82,5.49,2.08,8.37-1.26,2.09-3.57,3.15-5.84,2.92-.87-.09-1.73-.36-2.53-.84Zm-56.46-25.09c-9.82-2.98-19.96-5.37-30.14-7.12-3.32-.57-5.55-3.73-4.97-7.05.57-3.32,3.71-5.5,7.05-4.98,10.67,1.84,21.3,4.35,31.6,7.47,3.22.98,5.05,4.38,4.07,7.61-.86,2.84-3.6,4.59-6.45,4.3-.39-.04-.77-.11-1.16-.23Zm-98.44-15.69c-.25-3.36,2.26-6.28,5.62-6.54,9.3-.7,18.8-.9,28.2-.6,1.43.04,2.85.1,4.28.16,3.35.06,5.96,3.02,5.79,6.39-.16,3.37-3.02,5.96-6.39,5.79-1.33-.07-2.67-.12-4.04-.16-9-.29-18.06-.1-26.93.57-.37.03-.73.02-1.08-.01-2.89-.29-5.24-2.62-5.46-5.61Z"/>
          </g>
          <g class="cls-83">
            <path class="cls-13" d="m1390.2,839.11c-10.56-1.21-21.14-3.07-31.45-5.54-3.27-.79-5.3-4.07-4.51-7.35.78-3.28,4.09-5.26,7.35-4.51,9.83,2.35,19.92,4.13,29.99,5.28,3.35.38,5.75,3.41,5.37,6.75-.38,3.32-3.36,5.71-6.67,5.38-.03,0-.06,0-.08,0Zm25.77-4.35c-.02-3.37,2.69-6.12,6.06-6.13,10.13-.06,20.36-.74,30.41-2.02,3.32-.41,6.4,1.94,6.82,5.29.42,3.34-1.94,6.39-5.28,6.82-10.53,1.34-21.25,2.05-31.87,2.11-.22,0-.44,0-.66-.03-3.06-.31-5.46-2.88-5.48-6.03Zm-87.78-10.51c-9.96-3.73-19.78-8.09-29.18-12.98-2.99-1.55-4.15-5.24-2.6-8.23,1.55-2.99,5.22-4.15,8.22-2.6,8.97,4.66,18.33,8.82,27.84,12.38,3.16,1.18,4.75,4.7,3.58,7.85-.99,2.65-3.63,4.21-6.33,3.93-.51-.05-1.02-.17-1.53-.36Zm149.77,4.09c-.83-3.26,1.15-6.58,4.41-7.41,9.82-2.5,19.58-5.62,29.02-9.29,3.14-1.22,6.67.34,7.9,3.47,1.22,3.14-.33,6.68-3.47,7.9-9.89,3.85-20.14,7.13-30.43,9.75-.71.18-1.43.23-2.12.16-2.48-.25-4.65-2.01-5.3-4.57Zm-206.33-33.49c-8.75-6-17.23-12.6-25.2-19.61-2.53-2.23-2.77-6.08-.55-8.61,2.23-2.53,6.08-2.78,8.61-.55,7.6,6.7,15.69,12.99,24.04,18.71,2.78,1.9,3.49,5.7,1.58,8.48-1.3,1.9-3.5,2.84-5.65,2.62-.98-.1-1.96-.44-2.83-1.03Zm-47.86-42.11c-7.08-7.94-13.73-16.38-19.78-25.08-1.92-2.76-1.24-6.56,1.52-8.49,2.76-1.92,6.56-1.25,8.49,1.52,5.77,8.3,12.12,16.34,18.88,23.92,2.24,2.51,2.02,6.37-.49,8.61-1.33,1.18-3.03,1.68-4.68,1.51-1.46-.15-2.88-.82-3.94-2.01Zm-36.41-52.36c-4.98-9.41-9.41-19.2-13.19-29.1-1.2-3.15.38-6.67,3.52-7.87,3.15-1.2,6.67.38,7.87,3.52,3.6,9.45,7.84,18.78,12.58,27.75,1.58,2.98.44,6.67-2.54,8.24-1.1.59-2.3.8-3.46.68-1.96-.2-3.79-1.34-4.78-3.21Z"/>
            <path class="cls-13" d="m1541.58,810.18c1.17.12,2.39-.1,3.5-.7,4.6-2.47,9.14-5.1,13.51-7.79,2.86-1.77,3.76-5.53,1.99-8.4-1.77-2.86-5.53-3.75-8.4-1.99-4.16,2.57-8.5,5.07-12.89,7.44-2.97,1.6-4.07,5.3-2.48,8.26,1,1.85,2.81,2.98,4.76,3.18Z"/>
          </g>
          <g>
            <path class="cls-13" d="m1576.35,699.39c.93-.93,1.17-2.35.59-3.54l-16.47-33.79c9.25-14.92,16.2-31.42,20.31-49.01l35.51-12.25c1.25-.43,2.08-1.6,2.08-2.92v-45.09c0-1.32-.84-2.49-2.08-2.92l-35.52-12.24c-4.12-17.59-11.07-34.09-20.32-49.01l16.46-33.79c.58-1.18.34-2.6-.59-3.54l-31.89-31.88c-.93-.93-2.35-1.17-3.54-.59l-33.79,16.47c-14.92-9.25-31.42-16.2-49.01-20.32l-12.25-35.51c-.43-1.25-1.6-2.08-2.92-2.08h-45.09c-1.32,0-2.49.84-2.92,2.09l-12.24,35.52c-17.59,4.12-34.09,11.07-49.01,20.32l-33.8-16.46c-1.18-.58-2.6-.34-3.54.59l-31.88,31.89c-.93.93-1.17,2.35-.59,3.54l16.47,33.79c-9.25,14.92-16.2,31.42-20.32,49.01l-35.51,12.25c-1.25.43-2.08,1.6-2.08,2.92v45.09c0,1.32.84,2.49,2.09,2.92l35.52,12.24c4.12,17.59,11.07,34.09,20.32,49.01l-16.46,33.79c-.58,1.18-.34,2.6.59,3.54l31.89,31.88c.93.93,2.35,1.17,3.54.59l33.79-16.47c14.92,9.25,31.42,16.2,49.01,20.32l12.25,35.51c.43,1.25,1.6,2.08,2.92,2.08h45.09c1.32,0,2.49-.84,2.92-2.09l12.24-35.52c17.59-4.12,34.09-11.07,49.01-20.32l33.8,16.46c1.18.58,2.61.34,3.54-.59l31.88-31.89Z"/>
            <path class="cls-79" d="m1409.13,620.09c-11.95-3.01-22.01-10.5-28.33-21.09-6.32-10.58-8.14-22.99-5.12-34.94,6.22-24.66,31.32-39.64,56.03-33.45,24.67,6.23,39.67,31.36,33.44,56.02-3.01,11.95-10.5,22.01-21.08,28.33-8.6,5.13-18.41,7.3-28.2,6.31-2.25-.23-4.5-.62-6.74-1.18Zm-21.62-53.04c-2.22,8.79-.88,17.92,3.77,25.71,4.65,7.78,12.05,13.29,20.84,15.51h0c8.79,2.21,17.92.88,25.7-3.77,7.78-4.64,13.29-12.05,15.51-20.83,4.58-18.14-6.46-36.63-24.6-41.21-1.64-.41-3.28-.7-4.91-.86-16.46-1.67-32.14,8.96-36.3,25.46Z"/>
            <path class="cls-81" d="m1408.13,688.94c3.84.39,7.73.58,11.67.59,7.82,0,15.65-.79,23.29-2.37.34-.07.69-.15,1.03-.22,2.65-.57,4.52-2.78,4.79-5.34.06-.62.03-1.27-.11-1.91-.71-3.29-3.96-5.37-7.25-4.67-7.12,1.54-14.43,2.31-21.74,2.31h0c-.4,0-.8,0-1.2,0-17.3-.16-33.9-4.63-48.63-12.83-7.99-4.45-15.44-10-22.13-16.58-.05-.05-.11-.11-.16-.16-.17-.17-.33-.33-.5-.49-19.4-19.4-30.08-45.19-30.09-72.62,0-3.55.18-7.07.53-10.56,2.38-23.44,12.66-45.18,29.54-62.07,19.4-19.4,45.19-30.08,72.62-30.08,27.41,0,53.22,10.68,72.63,30.07,19.4,19.4,30.08,45.19,30.09,72.62,0,3.49-.18,6.97-.52,10.42-1.52,14.96-6.29,29.41-14.02,42.32-.48.8-.75,1.65-.84,2.52-.23,2.28.84,4.59,2.93,5.85,2.89,1.72,6.63.8,8.37-2.1,8.65-14.44,13.99-30.61,15.69-47.34.39-3.86.59-7.75.59-11.66,0-30.69-11.96-59.55-33.66-81.25-21.7-21.7-50.54-33.67-81.25-33.64-30.69,0-59.54,11.95-81.24,33.66-18.89,18.89-30.4,43.21-33.05,69.44-.39,3.89-.6,7.84-.6,11.81,0,59.42,45.35,108.45,103.24,114.3Z"/>
          </g>
        </g>
      </g>
    </g>
  </g>
</svg>