<?xml version="1.0" encoding="UTF-8"?>
<svg xmlns="http://www.w3.org/2000/svg" xmlns:xlink="http://www.w3.org/1999/xlink" viewBox="0 0 632.49 355.77">
  <defs>
    <style>
      .cls-1 {
        fill: url(#Degradado_sin_nombre_4-13);
      }

      .cls-1, .cls-2, .cls-3, .cls-4, .cls-5, .cls-6, .cls-7, .cls-8, .cls-9, .cls-10, .cls-11, .cls-12, .cls-13, .cls-14, .cls-15, .cls-16, .cls-17, .cls-18, .cls-19, .cls-20, .cls-21, .cls-22, .cls-23, .cls-24, .cls-25, .cls-26, .cls-27, .cls-28, .cls-29, .cls-30, .cls-31, .cls-32, .cls-33, .cls-34, .cls-35, .cls-36, .cls-37, .cls-38, .cls-39, .cls-40, .cls-41, .cls-42, .cls-43, .cls-44, .cls-45, .cls-46, .cls-47, .cls-48, .cls-49, .cls-50, .cls-51, .cls-52, .cls-53, .cls-54, .cls-55, .cls-56, .cls-57, .cls-58, .cls-59, .cls-60, .cls-61, .cls-62, .cls-63, .cls-64, .cls-65, .cls-66, .cls-67, .cls-68, .cls-69, .cls-70, .cls-71, .cls-72, .cls-73, .cls-74, .cls-75, .cls-76, .cls-77, .cls-78, .cls-79, .cls-80, .cls-81, .cls-82, .cls-83, .cls-84, .cls-85, .cls-86, .cls-87, .cls-88, .cls-89, .cls-90, .cls-91, .cls-92, .cls-93, .cls-94, .cls-95, .cls-96, .cls-97, .cls-98, .cls-99, .cls-100, .cls-101, .cls-102, .cls-103, .cls-104, .cls-105, .cls-106 {
        stroke-width: 0px;
      }

      .cls-1, .cls-2, .cls-3, .cls-4, .cls-5, .cls-6, .cls-7, .cls-8, .cls-9, .cls-10, .cls-11, .cls-12, .cls-13, .cls-14, .cls-15, .cls-16, .cls-17, .cls-18, .cls-19, .cls-20, .cls-21, .cls-22, .cls-23, .cls-24, .cls-25, .cls-26, .cls-27, .cls-28, .cls-29, .cls-30, .cls-31, .cls-32, .cls-33, .cls-34, .cls-35, .cls-36, .cls-37, .cls-38, .cls-39, .cls-40, .cls-42, .cls-43, .cls-44, .cls-45, .cls-46, .cls-47, .cls-48, .cls-49, .cls-50, .cls-51, .cls-52, .cls-53, .cls-54, .cls-55, .cls-56, .cls-57, .cls-58, .cls-59, .cls-60, .cls-61, .cls-62, .cls-63, .cls-64, .cls-65, .cls-66, .cls-68, .cls-69, .cls-70, .cls-71, .cls-72, .cls-73, .cls-74, .cls-75, .cls-76, .cls-77, .cls-78, .cls-80, .cls-81, .cls-82, .cls-83, .cls-84, .cls-86, .cls-87, .cls-88, .cls-89, .cls-90, .cls-91, .cls-92, .cls-93, .cls-94, .cls-95, .cls-96, .cls-97, .cls-98, .cls-99, .cls-100, .cls-101, .cls-102, .cls-103, .cls-104, .cls-105, .cls-106 {
        fill-rule: evenodd;
      }

      .cls-1, .cls-3, .cls-9, .cls-44, .cls-55, .cls-107, .cls-78, .cls-94, .cls-100, .cls-102, .cls-106 {
        mix-blend-mode: screen;
      }

      .cls-2 {
        fill: url(#Degradado_sin_nombre_229-40);
      }

      .cls-3 {
        fill: url(#Degradado_sin_nombre_2-4);
      }

      .cls-4 {
        fill: url(#Degradado_sin_nombre_229-12);
      }

      .cls-5 {
        fill: url(#Degradado_sin_nombre_229-56);
      }

      .cls-6 {
        fill: url(#Degradado_sin_nombre_5-9);
      }

      .cls-7 {
        fill: url(#Degradado_sin_nombre_229-32);
      }

      .cls-8 {
        fill: url(#Degradado_sin_nombre_2-8);
      }

      .cls-9 {
        fill: url(#Degradado_sin_nombre_4-7);
      }

      .cls-10 {
        fill: url(#Degradado_sin_nombre_229-54);
      }

      .cls-11 {
        fill: url(#Degradado_sin_nombre_4-9);
      }

      .cls-12 {
        fill: url(#Degradado_sin_nombre_229-33);
      }

      .cls-13 {
        fill: url(#Degradado_sin_nombre_229-29);
      }

      .cls-14 {
        fill: url(#Degradado_sin_nombre_4-2);
      }

      .cls-15 {
        fill: url(#Degradado_sin_nombre_229-35);
      }

      .cls-16 {
        fill: url(#Degradado_sin_nombre_229-30);
      }

      .cls-17 {
        fill: url(#Degradado_sin_nombre_229-15);
      }

      .cls-18 {
        fill: url(#Degradado_sin_nombre_229-7);
      }

      .cls-19 {
        fill: url(#Degradado_sin_nombre_229-45);
      }

      .cls-20 {
        fill: url(#Degradado_sin_nombre_7-7);
      }

      .cls-21 {
        fill: url(#Degradado_sin_nombre_229-50);
      }

      .cls-22 {
        fill: url(#Degradado_sin_nombre_229-4);
      }

      .cls-23 {
        fill: #a6ccff;
      }

      .cls-24 {
        fill: url(#Degradado_sin_nombre_229-53);
      }

      .cls-25 {
        fill: url(#Degradado_sin_nombre_229-38);
      }

      .cls-26 {
        fill: url(#Degradado_sin_nombre_229-2);
      }

      .cls-27 {
        fill: url(#Degradado_sin_nombre_229-43);
      }

      .cls-108 {
        isolation: isolate;
      }

      .cls-28 {
        fill: url(#Degradado_sin_nombre_229-24);
      }

      .cls-29 {
        fill: url(#Degradado_sin_nombre_2-7);
      }

      .cls-30 {
        fill: url(#Degradado_sin_nombre_229-3);
      }

      .cls-31 {
        fill: url(#Degradado_sin_nombre_8);
      }

      .cls-32 {
        fill: url(#Degradado_sin_nombre_5);
      }

      .cls-33 {
        fill: url(#Degradado_sin_nombre_229-19);
      }

      .cls-34 {
        fill: url(#Degradado_sin_nombre_229-14);
      }

      .cls-35 {
        fill: url(#Degradado_sin_nombre_2-3);
      }

      .cls-36 {
        fill: url(#Degradado_sin_nombre_229-37);
      }

      .cls-37 {
        fill: url(#Degradado_sin_nombre_229-49);
      }

      .cls-38 {
        fill: url(#Degradado_sin_nombre_4-12);
      }

      .cls-39 {
        fill: url(#Degradado_sin_nombre_5-3);
      }

      .cls-40 {
        fill: url(#Degradado_sin_nombre_229-18);
      }

      .cls-41 {
        fill: none;
      }

      .cls-42 {
        fill: url(#Degradado_sin_nombre_229-5);
      }

      .cls-43 {
        fill: url(#Degradado_sin_nombre_5-2);
      }

      .cls-44 {
        fill: url(#Degradado_sin_nombre_5-6);
      }

      .cls-45 {
        fill: url(#Degradado_sin_nombre_229-52);
      }

      .cls-46 {
        fill: url(#Degradado_sin_nombre_5-8);
      }

      .cls-47 {
        fill: url(#Degradado_sin_nombre_229-10);
      }

      .cls-48 {
        fill: url(#Degradado_sin_nombre_229-41);
      }

      .cls-49 {
        fill: url(#Degradado_sin_nombre_7-2);
      }

      .cls-50 {
        fill: url(#Degradado_sin_nombre_229-39);
      }

      .cls-51 {
        fill: url(#Degradado_sin_nombre_4-3);
      }

      .cls-52 {
        fill: url(#Degradado_sin_nombre_4-8);
      }

      .cls-53 {
        fill: url(#Degradado_sin_nombre_2-5);
      }

      .cls-54 {
        fill: url(#Degradado_sin_nombre_229-20);
      }

      .cls-55 {
        fill: url(#Degradado_sin_nombre_3-3);
      }

      .cls-55, .cls-94, .cls-102, .cls-106 {
        opacity: .28;
      }

      .cls-56 {
        fill: url(#Degradado_sin_nombre_229-44);
      }

      .cls-57 {
        fill: url(#Degradado_sin_nombre_229-21);
      }

      .cls-58 {
        fill: url(#Degradado_sin_nombre_229-17);
      }

      .cls-59 {
        fill: url(#Degradado_sin_nombre_229-9);
      }

      .cls-60 {
        fill: url(#Degradado_sin_nombre_229-36);
      }

      .cls-61 {
        fill: url(#Degradado_sin_nombre_4-11);
      }

      .cls-62 {
        fill: url(#Degradado_sin_nombre_5-7);
      }

      .cls-63 {
        fill: url(#Degradado_sin_nombre_229-57);
      }

      .cls-64 {
        fill: url(#Degradado_sin_nombre_7-6);
      }

      .cls-65 {
        fill: url(#Degradado_sin_nombre_7-4);
      }

      .cls-66 {
        fill: url(#Degradado_sin_nombre_229-13);
      }

      .cls-67 {
        fill: url(#Degradado_sin_nombre_5-5);
      }

      .cls-109 {
        clip-path: url(#clippath);
      }

      .cls-68 {
        fill: url(#Degradado_sin_nombre_229-55);
      }

      .cls-69 {
        fill: url(#Degradado_sin_nombre_7-3);
      }

      .cls-70 {
        fill: url(#Degradado_sin_nombre_229-25);
      }

      .cls-71 {
        fill: url(#Degradado_sin_nombre_4-10);
      }

      .cls-72 {
        fill: url(#Degradado_sin_nombre_229-34);
      }

      .cls-73 {
        fill: url(#Degradado_sin_nombre_229-8);
      }

      .cls-74 {
        fill: url(#Degradado_sin_nombre_2-6);
      }

      .cls-75 {
        fill: url(#Degradado_sin_nombre_5-11);
      }

      .cls-76 {
        fill: url(#Degradado_sin_nombre_7-5);
      }

      .cls-77 {
        fill: url(#Degradado_sin_nombre_229-22);
      }

      .cls-78 {
        fill: url(#Degradado_sin_nombre_5-12);
      }

      .cls-79 {
        fill: url(#Degradado_sin_nombre_7-8);
      }

      .cls-80 {
        fill: url(#Degradado_sin_nombre_4-5);
      }

      .cls-81 {
        fill: url(#Degradado_sin_nombre_229-42);
      }

      .cls-82 {
        fill: url(#Degradado_sin_nombre_5-10);
      }

      .cls-83 {
        fill: url(#Degradado_sin_nombre_229-27);
      }

      .cls-84 {
        fill: url(#Degradado_sin_nombre_229-23);
      }

      .cls-85 {
        fill: url(#Degradado_sin_nombre_2);
      }

      .cls-86 {
        fill: url(#Degradado_sin_nombre_4-4);
      }

      .cls-87 {
        fill: url(#Degradado_sin_nombre_229-48);
      }

      .cls-88 {
        fill: url(#Degradado_sin_nombre_5-4);
      }

      .cls-89 {
        fill: url(#Degradado_sin_nombre_229-31);
      }

      .cls-90 {
        fill: url(#Degradado_sin_nombre_229-46);
      }

      .cls-91 {
        fill: url(#Degradado_sin_nombre_229-6);
      }

      .cls-92 {
        fill: url(#Degradado_sin_nombre_229-26);
      }

      .cls-93 {
        fill: url(#Degradado_sin_nombre_229-51);
      }

      .cls-94 {
        fill: url(#Degradado_sin_nombre_3);
      }

      .cls-95 {
        fill: url(#Degradado_sin_nombre_229-28);
      }

      .cls-96 {
        fill: url(#Degradado_sin_nombre_229-16);
      }

      .cls-97 {
        fill: url(#Degradado_sin_nombre_4);
      }

      .cls-98 {
        fill: url(#Degradado_sin_nombre_7);
      }

      .cls-99 {
        fill: url(#Degradado_sin_nombre_4-6);
      }

      .cls-100 {
        fill: url(#Degradado_sin_nombre_2-2);
      }

      .cls-101 {
        fill: url(#Degradado_sin_nombre_229-11);
      }

      .cls-102 {
        fill: url(#Degradado_sin_nombre_3-2);
      }

      .cls-103 {
        fill: url(#Degradado_sin_nombre_8-2);
      }

      .cls-104 {
        fill: url(#Degradado_sin_nombre_229-47);
      }

      .cls-105 {
        fill: url(#Degradado_sin_nombre_229);
      }

      .cls-106 {
        fill: url(#Degradado_sin_nombre_3-4);
      }
    </style>
    <clipPath id="clippath">
      <rect class="cls-41" width="632.49" height="355.77" rx="19.53" ry="19.53"/>
    </clipPath>
    <linearGradient id="Degradado_sin_nombre_3" data-name="Degradado sin nombre 3" x1="350.53" y1="198.91" x2="589.61" y2="198.91" gradientUnits="userSpaceOnUse">
      <stop offset="0" stop-color="#3d00ff"/>
      <stop offset="1" stop-color="#0d7dff"/>
    </linearGradient>
    <linearGradient id="Degradado_sin_nombre_3-2" data-name="Degradado sin nombre 3" y1="203.6" y2="203.6" xlink:href="#Degradado_sin_nombre_3"/>
    <linearGradient id="Degradado_sin_nombre_3-3" data-name="Degradado sin nombre 3" y1="208.29" y2="208.29" xlink:href="#Degradado_sin_nombre_3"/>
    <linearGradient id="Degradado_sin_nombre_3-4" data-name="Degradado sin nombre 3" y1="212.98" y2="212.98" xlink:href="#Degradado_sin_nombre_3"/>
    <linearGradient id="Degradado_sin_nombre_229" data-name="Degradado sin nombre 229" x1="371.97" y1="129.1" x2="414.34" y2="129.1" gradientUnits="userSpaceOnUse">
      <stop offset="0" stop-color="#a6ccff"/>
      <stop offset="1" stop-color="#fff"/>
    </linearGradient>
    <linearGradient id="Degradado_sin_nombre_229-2" data-name="Degradado sin nombre 229" x1="390.44" y1="137.71" x2="390.44" y2="146.35" xlink:href="#Degradado_sin_nombre_229"/>
    <linearGradient id="Degradado_sin_nombre_5" data-name="Degradado sin nombre 5" x1="394.92" y1="117.46" x2="380.48" y2="136.42" gradientUnits="userSpaceOnUse">
      <stop offset="0" stop-color="#3d00ff"/>
      <stop offset="1" stop-color="#ff31c7"/>
    </linearGradient>
    <linearGradient id="Degradado_sin_nombre_229-3" data-name="Degradado sin nombre 229" y1="111.52" y2="111.52" xlink:href="#Degradado_sin_nombre_229"/>
    <linearGradient id="Degradado_sin_nombre_229-4" data-name="Degradado sin nombre 229" x1="390.44" y1="120.13" x2="390.44" y2="128.77" xlink:href="#Degradado_sin_nombre_229"/>
    <linearGradient id="Degradado_sin_nombre_5-2" data-name="Degradado sin nombre 5" x1="394.92" y1="99.88" x2="380.48" y2="118.84" xlink:href="#Degradado_sin_nombre_5"/>
    <linearGradient id="Degradado_sin_nombre_229-5" data-name="Degradado sin nombre 229" y1="93.93" y2="93.93" xlink:href="#Degradado_sin_nombre_229"/>
    <linearGradient id="Degradado_sin_nombre_229-6" data-name="Degradado sin nombre 229" x1="390.44" y1="102.55" x2="390.44" y2="111.19" xlink:href="#Degradado_sin_nombre_229"/>
    <linearGradient id="Degradado_sin_nombre_5-3" data-name="Degradado sin nombre 5" x1="394.92" y1="82.3" x2="380.48" y2="101.26" xlink:href="#Degradado_sin_nombre_5"/>
    <linearGradient id="Degradado_sin_nombre_229-7" data-name="Degradado sin nombre 229" y1="76.35" y2="76.35" xlink:href="#Degradado_sin_nombre_229"/>
    <linearGradient id="Degradado_sin_nombre_229-8" data-name="Degradado sin nombre 229" x1="390.44" y1="84.96" x2="390.44" y2="93.61" xlink:href="#Degradado_sin_nombre_229"/>
    <linearGradient id="Degradado_sin_nombre_5-4" data-name="Degradado sin nombre 5" x1="394.92" y1="64.71" x2="380.48" y2="83.67" xlink:href="#Degradado_sin_nombre_5"/>
    <linearGradient id="Degradado_sin_nombre_229-9" data-name="Degradado sin nombre 229" x1="375.75" y1="179.55" x2="370.47" y2="210.16" xlink:href="#Degradado_sin_nombre_229"/>
    <linearGradient id="Degradado_sin_nombre_229-10" data-name="Degradado sin nombre 229" x1="429.15" y1="177.14" x2="457.62" y2="177.14" xlink:href="#Degradado_sin_nombre_229"/>
    <linearGradient id="Degradado_sin_nombre_229-11" data-name="Degradado sin nombre 229" x1="441.57" y1="182.93" x2="441.57" y2="188.74" xlink:href="#Degradado_sin_nombre_229"/>
    <linearGradient id="Degradado_sin_nombre_7" data-name="Degradado sin nombre 7" x1="444.58" y1="169.33" x2="434.88" y2="182.07" gradientUnits="userSpaceOnUse">
      <stop offset="0" stop-color="#43deff"/>
      <stop offset="1" stop-color="#f0f"/>
    </linearGradient>
    <linearGradient id="Degradado_sin_nombre_229-12" data-name="Degradado sin nombre 229" x1="429.15" y1="165.33" x2="457.62" y2="165.33" xlink:href="#Degradado_sin_nombre_229"/>
    <linearGradient id="Degradado_sin_nombre_229-13" data-name="Degradado sin nombre 229" x1="441.57" y1="171.12" x2="441.57" y2="176.93" xlink:href="#Degradado_sin_nombre_229"/>
    <linearGradient id="Degradado_sin_nombre_7-2" data-name="Degradado sin nombre 7" x1="444.58" y1="157.51" x2="434.88" y2="170.25" xlink:href="#Degradado_sin_nombre_7"/>
    <linearGradient id="Degradado_sin_nombre_229-14" data-name="Degradado sin nombre 229" x1="429.15" y1="153.52" x2="457.62" y2="153.52" xlink:href="#Degradado_sin_nombre_229"/>
    <linearGradient id="Degradado_sin_nombre_229-15" data-name="Degradado sin nombre 229" x1="441.57" y1="159.31" x2="441.57" y2="165.11" xlink:href="#Degradado_sin_nombre_229"/>
    <linearGradient id="Degradado_sin_nombre_7-3" data-name="Degradado sin nombre 7" x1="444.58" y1="145.7" x2="434.88" y2="158.44" xlink:href="#Degradado_sin_nombre_7"/>
    <linearGradient id="Degradado_sin_nombre_229-16" data-name="Degradado sin nombre 229" x1="429.15" y1="141.7" x2="457.62" y2="141.7" xlink:href="#Degradado_sin_nombre_229"/>
    <linearGradient id="Degradado_sin_nombre_229-17" data-name="Degradado sin nombre 229" x1="441.57" y1="147.49" x2="441.57" y2="153.3" xlink:href="#Degradado_sin_nombre_229"/>
    <linearGradient id="Degradado_sin_nombre_7-4" data-name="Degradado sin nombre 7" x1="444.58" y1="133.89" x2="434.88" y2="146.62" xlink:href="#Degradado_sin_nombre_7"/>
    <linearGradient id="Degradado_sin_nombre_229-18" data-name="Degradado sin nombre 229" x1="429.15" y1="129.09" x2="457.62" y2="129.09" xlink:href="#Degradado_sin_nombre_229"/>
    <linearGradient id="Degradado_sin_nombre_229-19" data-name="Degradado sin nombre 229" x1="441.57" y1="134.88" x2="441.57" y2="140.68" xlink:href="#Degradado_sin_nombre_229"/>
    <linearGradient id="Degradado_sin_nombre_7-5" data-name="Degradado sin nombre 7" x1="444.58" y1="121.27" x2="434.88" y2="134.01" xlink:href="#Degradado_sin_nombre_7"/>
    <linearGradient id="Degradado_sin_nombre_229-20" data-name="Degradado sin nombre 229" x1="429.15" y1="116.48" x2="457.62" y2="116.48" xlink:href="#Degradado_sin_nombre_229"/>
    <linearGradient id="Degradado_sin_nombre_229-21" data-name="Degradado sin nombre 229" x1="441.57" y1="122.26" x2="441.57" y2="128.07" xlink:href="#Degradado_sin_nombre_229"/>
    <linearGradient id="Degradado_sin_nombre_7-6" data-name="Degradado sin nombre 7" y1="108.66" x2="434.88" y2="121.4" xlink:href="#Degradado_sin_nombre_7"/>
    <linearGradient id="Degradado_sin_nombre_229-22" data-name="Degradado sin nombre 229" x1="429.15" y1="103.86" x2="457.62" y2="103.86" xlink:href="#Degradado_sin_nombre_229"/>
    <linearGradient id="Degradado_sin_nombre_229-23" data-name="Degradado sin nombre 229" x1="441.57" y1="109.65" x2="441.57" y2="115.46" xlink:href="#Degradado_sin_nombre_229"/>
    <linearGradient id="Degradado_sin_nombre_7-7" data-name="Degradado sin nombre 7" x1="444.58" y1="96.04" x2="434.88" y2="108.78" xlink:href="#Degradado_sin_nombre_7"/>
    <linearGradient id="Degradado_sin_nombre_229-24" data-name="Degradado sin nombre 229" x1="289.59" y1="107.76" x2="346.25" y2="107.76" xlink:href="#Degradado_sin_nombre_229"/>
    <linearGradient id="Degradado_sin_nombre_229-25" data-name="Degradado sin nombre 229" x1="314.3" y1="119.28" x2="314.3" y2="130.84" xlink:href="#Degradado_sin_nombre_229"/>
    <linearGradient id="Degradado_sin_nombre_4" data-name="Degradado sin nombre 4" x1="320.28" y1="92.2" x2="300.98" y2="117.55" gradientUnits="userSpaceOnUse">
      <stop offset="0" stop-color="#43deff"/>
      <stop offset="1" stop-color="#23008c"/>
    </linearGradient>
    <linearGradient id="Degradado_sin_nombre_229-26" data-name="Degradado sin nombre 229" x1="289.59" y1="84.25" x2="346.25" y2="84.25" xlink:href="#Degradado_sin_nombre_229"/>
    <linearGradient id="Degradado_sin_nombre_229-27" data-name="Degradado sin nombre 229" x1="314.3" y1="95.77" x2="314.3" y2="107.32" xlink:href="#Degradado_sin_nombre_229"/>
    <linearGradient id="Degradado_sin_nombre_4-2" data-name="Degradado sin nombre 4" x1="320.28" y1="68.69" x2="300.98" y2="94.04" xlink:href="#Degradado_sin_nombre_4"/>
    <linearGradient id="Degradado_sin_nombre_229-28" data-name="Degradado sin nombre 229" x1="289.59" y1="60.74" x2="346.25" y2="60.74" xlink:href="#Degradado_sin_nombre_229"/>
    <linearGradient id="Degradado_sin_nombre_229-29" data-name="Degradado sin nombre 229" x1="314.3" y1="72.26" x2="314.3" y2="83.81" xlink:href="#Degradado_sin_nombre_229"/>
    <linearGradient id="Degradado_sin_nombre_4-3" data-name="Degradado sin nombre 4" x1="320.28" y1="45.18" x2="300.98" y2="70.53" xlink:href="#Degradado_sin_nombre_4"/>
    <linearGradient id="Degradado_sin_nombre_229-30" data-name="Degradado sin nombre 229" x1="289.59" y1="37.23" x2="346.25" y2="37.23" xlink:href="#Degradado_sin_nombre_229"/>
    <linearGradient id="Degradado_sin_nombre_229-31" data-name="Degradado sin nombre 229" x1="314.3" y1="48.75" x2="314.3" y2="60.3" xlink:href="#Degradado_sin_nombre_229"/>
    <linearGradient id="Degradado_sin_nombre_4-4" data-name="Degradado sin nombre 4" x1="289.59" y1="31.63" x2="346.25" y2="31.63" xlink:href="#Degradado_sin_nombre_4"/>
    <linearGradient id="Degradado_sin_nombre_4-5" data-name="Degradado sin nombre 4" x1="289.59" y1="31.63" x2="346.25" y2="31.63" xlink:href="#Degradado_sin_nombre_4"/>
    <linearGradient id="Degradado_sin_nombre_229-32" data-name="Degradado sin nombre 229" x1="289.59" y1="32.31" x2="346.25" y2="32.31" xlink:href="#Degradado_sin_nombre_229"/>
    <linearGradient id="Degradado_sin_nombre_4-6" data-name="Degradado sin nombre 4" y1="21.67" y2="47.02" xlink:href="#Degradado_sin_nombre_4"/>
    <linearGradient id="Degradado_sin_nombre_229-33" data-name="Degradado sin nombre 229" x1="338.9" y1="-2489.98" x2="421.97" y2="-2489.98" gradientTransform="translate(0 2412.77) rotate(30.21) scale(1.16 .86) skewX(23.5)" xlink:href="#Degradado_sin_nombre_229"/>
    <linearGradient id="Degradado_sin_nombre_8" data-name="Degradado sin nombre 8" x1="338.9" y1="-2496.66" x2="421.97" y2="-2496.66" gradientTransform="translate(0 2412.77) rotate(30.21) scale(1.16 .86) skewX(23.5)" gradientUnits="userSpaceOnUse">
      <stop offset="0" stop-color="#17014c"/>
      <stop offset="1" stop-color="#23008c"/>
    </linearGradient>
    <linearGradient id="Degradado_sin_nombre_8-2" data-name="Degradado sin nombre 8" x1="375.13" y1="-2521.1" x2="375.13" y2="-2427.41" xlink:href="#Degradado_sin_nombre_8"/>
    <linearGradient id="Degradado_sin_nombre_5-5" data-name="Degradado sin nombre 5" x1="373.37" y1="-2496.66" x2="373.37" y2="-2479.89" gradientTransform="translate(0 2412.77) rotate(30.21) scale(1.16 .86) skewX(23.5)" xlink:href="#Degradado_sin_nombre_5"/>
    <linearGradient id="Degradado_sin_nombre_7-8" data-name="Degradado sin nombre 7" x1="373.37" y1="-2492.56" x2="373.37" y2="-2476.65" gradientTransform="translate(0 2412.77) rotate(30.21) scale(1.16 .86) skewX(23.5)" xlink:href="#Degradado_sin_nombre_7"/>
    <linearGradient id="Degradado_sin_nombre_2" data-name="Degradado sin nombre 2" x1="374.26" y1="-2485.06" x2="374.26" y2="-2475.42" gradientTransform="translate(0 2412.77) rotate(30.21) scale(1.16 .86) skewX(23.5)" gradientUnits="userSpaceOnUse">
      <stop offset="0" stop-color="#ffb526"/>
      <stop offset="1" stop-color="#ff31c7"/>
    </linearGradient>
    <linearGradient id="Degradado_sin_nombre_4-7" data-name="Degradado sin nombre 4" x1="375.24" y1="-2517.72" x2="375.24" y2="-2485.86" gradientTransform="translate(0 2412.77) rotate(30.21) scale(1.16 .86) skewX(23.5)" xlink:href="#Degradado_sin_nombre_4"/>
    <linearGradient id="Degradado_sin_nombre_5-6" data-name="Degradado sin nombre 5" x1="375.24" y1="-2497.06" x2="375.24" y2="-2509.38" gradientTransform="translate(0 2412.77) rotate(30.21) scale(1.16 .86) skewX(23.5)" xlink:href="#Degradado_sin_nombre_5"/>
    <linearGradient id="Degradado_sin_nombre_2-2" data-name="Degradado sin nombre 2" x1="375.24" y1="-2508.85" x2="375.24" y2="-2492.96" xlink:href="#Degradado_sin_nombre_2"/>
    <linearGradient id="Degradado_sin_nombre_229-34" data-name="Degradado sin nombre 229" x1="269.24" y1="158.53" x2="296.26" y2="158.53" xlink:href="#Degradado_sin_nombre_229"/>
    <linearGradient id="Degradado_sin_nombre_229-35" data-name="Degradado sin nombre 229" x1="281.02" y1="164.03" x2="281.02" y2="169.54" xlink:href="#Degradado_sin_nombre_229"/>
    <linearGradient id="Degradado_sin_nombre_5-7" data-name="Degradado sin nombre 5" x1="283.88" y1="151.11" x2="274.67" y2="163.2" xlink:href="#Degradado_sin_nombre_5"/>
    <linearGradient id="Degradado_sin_nombre_229-36" data-name="Degradado sin nombre 229" x1="269.24" y1="147.32" x2="296.26" y2="147.32" xlink:href="#Degradado_sin_nombre_229"/>
    <linearGradient id="Degradado_sin_nombre_229-37" data-name="Degradado sin nombre 229" x1="281.02" y1="152.81" x2="281.02" y2="158.33" xlink:href="#Degradado_sin_nombre_229"/>
    <linearGradient id="Degradado_sin_nombre_5-8" data-name="Degradado sin nombre 5" x1="283.88" y1="139.9" x2="274.67" y2="151.99" xlink:href="#Degradado_sin_nombre_5"/>
    <linearGradient id="Degradado_sin_nombre_229-38" data-name="Degradado sin nombre 229" x1="269.24" y1="136.11" x2="296.26" y2="136.11" xlink:href="#Degradado_sin_nombre_229"/>
    <linearGradient id="Degradado_sin_nombre_229-39" data-name="Degradado sin nombre 229" x1="281.02" y1="141.6" x2="281.02" y2="147.11" xlink:href="#Degradado_sin_nombre_229"/>
    <linearGradient id="Degradado_sin_nombre_5-9" data-name="Degradado sin nombre 5" x1="283.88" y1="128.69" x2="274.67" y2="140.78" xlink:href="#Degradado_sin_nombre_5"/>
    <linearGradient id="Degradado_sin_nombre_229-40" data-name="Degradado sin nombre 229" x1="269.24" y1="124.9" x2="296.26" y2="124.9" xlink:href="#Degradado_sin_nombre_229"/>
    <linearGradient id="Degradado_sin_nombre_229-41" data-name="Degradado sin nombre 229" x1="281.02" y1="130.39" x2="281.02" y2="135.9" xlink:href="#Degradado_sin_nombre_229"/>
    <linearGradient id="Degradado_sin_nombre_5-10" data-name="Degradado sin nombre 5" x1="283.88" y1="117.48" x2="274.67" y2="129.57" xlink:href="#Degradado_sin_nombre_5"/>
    <linearGradient id="Degradado_sin_nombre_2-3" data-name="Degradado sin nombre 2" x1="305.69" y1="-2491.94" x2="299.96" y2="-2458.74" gradientTransform="translate(0 2428.03) rotate(29.8) scale(1.15 .87) skewX(23.33)" xlink:href="#Degradado_sin_nombre_2"/>
    <linearGradient id="Degradado_sin_nombre_2-4" data-name="Degradado sin nombre 2" x1="302.39" y1="-2491.03" x2="296.65" y2="-2457.82" gradientTransform="translate(0 2428.03) rotate(29.8) scale(1.15 .87) skewX(23.33)" xlink:href="#Degradado_sin_nombre_2"/>
    <linearGradient id="Degradado_sin_nombre_229-42" data-name="Degradado sin nombre 229" x1="445.23" y1="207.23" x2="493.02" y2="207.23" xlink:href="#Degradado_sin_nombre_229"/>
    <linearGradient id="Degradado_sin_nombre_229-43" data-name="Degradado sin nombre 229" x1="466.07" y1="216.95" x2="466.07" y2="226.69" xlink:href="#Degradado_sin_nombre_229"/>
    <linearGradient id="Degradado_sin_nombre_4-8" data-name="Degradado sin nombre 4" x1="471.12" y1="194.11" x2="454.84" y2="215.49" xlink:href="#Degradado_sin_nombre_4"/>
    <linearGradient id="Degradado_sin_nombre_229-44" data-name="Degradado sin nombre 229" x1="445.23" y1="187.4" x2="493.02" y2="187.4" xlink:href="#Degradado_sin_nombre_229"/>
    <linearGradient id="Degradado_sin_nombre_229-45" data-name="Degradado sin nombre 229" x1="466.07" y1="197.12" x2="466.07" y2="206.86" xlink:href="#Degradado_sin_nombre_229"/>
    <linearGradient id="Degradado_sin_nombre_4-9" data-name="Degradado sin nombre 4" x1="471.12" y1="174.28" x2="454.84" y2="195.66" xlink:href="#Degradado_sin_nombre_4"/>
    <linearGradient id="Degradado_sin_nombre_229-46" data-name="Degradado sin nombre 229" x1="445.23" y1="167.58" x2="493.02" y2="167.58" xlink:href="#Degradado_sin_nombre_229"/>
    <linearGradient id="Degradado_sin_nombre_229-47" data-name="Degradado sin nombre 229" x1="466.07" y1="177.29" x2="466.07" y2="187.04" xlink:href="#Degradado_sin_nombre_229"/>
    <linearGradient id="Degradado_sin_nombre_4-10" data-name="Degradado sin nombre 4" x1="471.12" y1="154.45" x2="454.84" y2="175.83" xlink:href="#Degradado_sin_nombre_4"/>
    <linearGradient id="Degradado_sin_nombre_229-48" data-name="Degradado sin nombre 229" x1="445.23" y1="147.75" x2="493.02" y2="147.75" xlink:href="#Degradado_sin_nombre_229"/>
    <linearGradient id="Degradado_sin_nombre_229-49" data-name="Degradado sin nombre 229" x1="466.07" y1="157.46" x2="466.07" y2="167.21" xlink:href="#Degradado_sin_nombre_229"/>
    <linearGradient id="Degradado_sin_nombre_4-11" data-name="Degradado sin nombre 4" x1="471.12" y1="134.63" x2="454.84" y2="156.01" xlink:href="#Degradado_sin_nombre_4"/>
    <linearGradient id="Degradado_sin_nombre_5-11" data-name="Degradado sin nombre 5" x1="317.81" y1="-2438.94" x2="314.03" y2="-2417.03" gradientTransform="translate(0 2428.03) rotate(29.8) scale(1.15 .87) skewX(23.33)" xlink:href="#Degradado_sin_nombre_5"/>
    <linearGradient id="Degradado_sin_nombre_5-12" data-name="Degradado sin nombre 5" x1="315.64" y1="-2438.33" x2="311.86" y2="-2416.43" gradientTransform="translate(0 2428.03) rotate(29.8) scale(1.15 .87) skewX(23.33)" xlink:href="#Degradado_sin_nombre_5"/>
    <linearGradient id="Degradado_sin_nombre_4-12" data-name="Degradado sin nombre 4" x1="408.28" y1="-2452.09" x2="403.78" y2="-2426" gradientTransform="translate(0 2428.03) rotate(29.8) scale(1.15 .87) skewX(23.33)" xlink:href="#Degradado_sin_nombre_4"/>
    <linearGradient id="Degradado_sin_nombre_4-13" data-name="Degradado sin nombre 4" x1="405.42" y1="-2451.3" x2="400.92" y2="-2425.2" gradientTransform="translate(0 2428.03) rotate(29.8) scale(1.15 .87) skewX(23.33)" xlink:href="#Degradado_sin_nombre_4"/>
    <linearGradient id="Degradado_sin_nombre_229-50" data-name="Degradado sin nombre 229" x1="431.61" y1="259.38" x2="468.93" y2="259.38" xlink:href="#Degradado_sin_nombre_229"/>
    <linearGradient id="Degradado_sin_nombre_229-51" data-name="Degradado sin nombre 229" x1="447.89" y1="266.96" x2="447.89" y2="274.57" xlink:href="#Degradado_sin_nombre_229"/>
    <linearGradient id="Degradado_sin_nombre_2-5" data-name="Degradado sin nombre 2" x1="451.83" y1="249.13" x2="439.11" y2="265.83" gradientTransform="matrix(1,0,0,1,0,0)" xlink:href="#Degradado_sin_nombre_2"/>
    <linearGradient id="Degradado_sin_nombre_229-52" data-name="Degradado sin nombre 229" x1="431.61" y1="243.89" x2="468.93" y2="243.89" xlink:href="#Degradado_sin_nombre_229"/>
    <linearGradient id="Degradado_sin_nombre_229-53" data-name="Degradado sin nombre 229" x1="447.89" y1="251.48" x2="447.89" y2="259.09" xlink:href="#Degradado_sin_nombre_229"/>
    <linearGradient id="Degradado_sin_nombre_2-6" data-name="Degradado sin nombre 2" x1="451.83" y1="233.65" x2="439.11" y2="250.34" gradientTransform="matrix(1,0,0,1,0,0)" xlink:href="#Degradado_sin_nombre_2"/>
    <linearGradient id="Degradado_sin_nombre_229-54" data-name="Degradado sin nombre 229" x1="431.61" y1="228.41" x2="468.93" y2="228.41" xlink:href="#Degradado_sin_nombre_229"/>
    <linearGradient id="Degradado_sin_nombre_229-55" data-name="Degradado sin nombre 229" x1="447.89" y1="235.99" x2="447.89" y2="243.6" xlink:href="#Degradado_sin_nombre_229"/>
    <linearGradient id="Degradado_sin_nombre_2-7" data-name="Degradado sin nombre 2" x1="451.83" y1="218.16" x2="439.11" y2="234.86" gradientTransform="matrix(1,0,0,1,0,0)" xlink:href="#Degradado_sin_nombre_2"/>
    <linearGradient id="Degradado_sin_nombre_229-56" data-name="Degradado sin nombre 229" x1="431.61" y1="212.92" x2="468.93" y2="212.92" xlink:href="#Degradado_sin_nombre_229"/>
    <linearGradient id="Degradado_sin_nombre_229-57" data-name="Degradado sin nombre 229" x1="447.89" y1="220.51" x2="447.89" y2="228.12" xlink:href="#Degradado_sin_nombre_229"/>
    <linearGradient id="Degradado_sin_nombre_2-8" data-name="Degradado sin nombre 2" x1="451.83" y1="202.68" x2="439.11" y2="219.37" gradientTransform="matrix(1,0,0,1,0,0)" xlink:href="#Degradado_sin_nombre_2"/>
  </defs>
  <g class="cls-108">
    <g id="Layer_2" data-name="Layer 2">
      <g id="OBJECTS">
        <g class="cls-109">
          <g>
            <polygon class="cls-94" points="330.84 98.62 204.53 170.47 428.87 299.21 554.51 227.75 330.84 98.62"/>
            <polygon class="cls-102" points="330.84 103.31 204.53 175.15 428.87 303.9 554.51 232.44 330.84 103.31"/>
            <polygon class="cls-55" points="330.84 107.99 204.53 179.84 428.87 308.58 554.51 237.13 330.84 107.99"/>
            <polygon class="cls-106" points="330.84 112.68 204.53 184.53 428.87 313.27 554.51 241.82 330.84 112.68"/>
            <g>
              <g>
                <polygon class="cls-105" points="390.35 108.32 361.83 123.26 361.83 133.14 390.35 149.88 419.05 133.31 419.05 123.42 390.35 108.32"/>
                <polygon class="cls-26" points="390.35 108.32 361.83 123.26 361.83 124.77 390.35 141.51 419.05 124.94 419.05 123.42 390.35 108.32"/>
                <polygon class="cls-32" points="390.35 106.81 361.83 123.26 390.35 139.99 419.05 123.42 390.35 106.81"/>
              </g>
              <g>
                <polygon class="cls-30" points="390.35 90.74 361.83 105.68 361.83 115.56 390.35 132.29 419.05 115.72 419.05 105.84 390.35 90.74"/>
                <polygon class="cls-22" points="390.35 90.74 361.83 105.68 361.83 107.19 390.35 123.93 419.05 107.35 419.05 105.84 390.35 90.74"/>
                <polygon class="cls-43" points="390.35 89.22 361.83 105.68 390.35 122.41 419.05 105.84 390.35 89.22"/>
              </g>
              <g>
                <polygon class="cls-42" points="390.35 73.15 361.83 88.09 361.83 97.97 390.35 114.71 419.05 98.14 419.05 88.26 390.35 73.15"/>
                <polygon class="cls-91" points="390.35 73.15 361.83 88.09 361.83 89.61 390.35 106.34 419.05 89.77 419.05 88.26 390.35 73.15"/>
                <polygon class="cls-39" points="390.35 71.64 361.83 88.09 390.35 104.83 419.05 88.26 390.35 71.64"/>
              </g>
              <g>
                <polygon class="cls-18" points="390.35 55.57 361.83 70.51 361.83 80.39 390.35 97.13 419.05 80.56 419.05 70.67 390.35 55.57"/>
                <polygon class="cls-73" points="390.35 55.57 361.83 70.51 361.83 72.02 390.35 88.76 419.05 72.19 419.05 70.67 390.35 55.57"/>
                <polygon class="cls-88" points="390.35 54.06 361.83 70.51 390.35 87.25 419.05 70.67 390.35 54.06"/>
              </g>
            </g>
            <polygon class="cls-59" points="375 160.17 335.34 183.04 375 206.32 414.91 183.28 375 160.17"/>
            <g>
              <g>
                <polygon class="cls-47" points="441.51 163.18 422.35 173.22 422.35 179.86 441.51 191.1 460.79 179.97 460.79 173.33 441.51 163.18"/>
                <polygon class="cls-101" points="441.51 163.18 422.35 173.22 422.35 174.24 441.51 185.48 460.79 174.35 460.79 173.33 441.51 163.18"/>
                <polygon class="cls-98" points="441.51 162.17 422.35 173.22 441.51 184.47 460.79 173.33 441.51 162.17"/>
              </g>
              <g>
                <polygon class="cls-4" points="441.51 151.37 422.35 161.41 422.35 168.05 441.51 179.29 460.79 168.16 460.79 161.52 441.51 151.37"/>
                <polygon class="cls-66" points="441.51 151.37 422.35 161.41 422.35 162.42 441.51 173.67 460.79 162.54 460.79 161.52 441.51 151.37"/>
                <polygon class="cls-49" points="441.51 150.35 422.35 161.41 441.51 172.65 460.79 161.52 441.51 150.35"/>
              </g>
              <g>
                <polygon class="cls-34" points="441.51 139.56 422.35 149.59 422.35 156.23 441.51 167.48 460.79 156.34 460.79 149.71 441.51 139.56"/>
                <polygon class="cls-17" points="441.51 139.56 422.35 149.59 422.35 150.61 441.51 161.86 460.79 150.72 460.79 149.71 441.51 139.56"/>
                <polygon class="cls-69" points="441.51 138.54 422.35 149.59 441.51 160.84 460.79 149.71 441.51 138.54"/>
              </g>
              <g>
                <polygon class="cls-96" points="441.51 127.74 422.35 137.78 422.35 144.42 441.51 155.66 460.79 144.53 460.79 137.89 441.51 127.74"/>
                <polygon class="cls-58" points="441.51 127.74 422.35 137.78 422.35 138.8 441.51 150.04 460.79 138.91 460.79 137.89 441.51 127.74"/>
                <polygon class="cls-65" points="441.51 126.73 422.35 137.78 441.51 149.03 460.79 137.89 441.51 126.73"/>
              </g>
              <g>
                <polygon class="cls-40" points="441.51 115.13 422.35 125.17 422.35 131.81 441.51 143.05 460.79 131.92 460.79 125.28 441.51 115.13"/>
                <polygon class="cls-33" points="441.51 115.13 422.35 125.17 422.35 126.18 441.51 137.43 460.79 126.29 460.79 125.28 441.51 115.13"/>
                <polygon class="cls-76" points="441.51 114.11 422.35 125.17 441.51 136.41 460.79 125.28 441.51 114.11"/>
              </g>
              <g>
                <polygon class="cls-54" points="441.51 102.52 422.35 112.55 422.35 119.19 441.51 130.44 460.79 119.3 460.79 112.66 441.51 102.52"/>
                <polygon class="cls-57" points="441.51 102.52 422.35 112.55 422.35 113.57 441.51 124.81 460.79 113.68 460.79 112.66 441.51 102.52"/>
                <polygon class="cls-64" points="441.51 101.5 422.35 112.55 441.51 123.8 460.79 112.66 441.51 101.5"/>
              </g>
              <g>
                <polygon class="cls-77" points="441.51 89.9 422.35 99.94 422.35 106.58 441.51 117.82 460.79 106.69 460.79 100.05 441.51 89.9"/>
                <polygon class="cls-84" points="441.51 89.9 422.35 99.94 422.35 100.95 441.51 112.2 460.79 101.07 460.79 100.05 441.51 89.9"/>
                <polygon class="cls-20" points="441.51 88.88 422.35 99.94 441.51 111.18 460.79 100.05 441.51 88.88"/>
              </g>
            </g>
            <g>
              <g>
                <polygon class="cls-28" points="314.18 79.98 276.04 99.95 276.04 113.17 314.18 135.54 352.55 113.39 352.55 100.17 314.18 79.98"/>
                <polygon class="cls-70" points="314.18 79.98 276.04 99.95 276.04 101.98 314.18 124.35 352.55 102.2 352.55 100.17 314.18 79.98"/>
                <polygon class="cls-97" points="314.18 77.95 276.04 99.95 314.18 122.33 352.55 100.17 314.18 77.95"/>
              </g>
              <g>
                <polygon class="cls-92" points="314.18 56.47 276.04 76.44 276.04 89.65 314.18 112.03 352.55 89.88 352.55 76.66 314.18 56.47"/>
                <polygon class="cls-83" points="314.18 56.47 276.04 76.44 276.04 78.47 314.18 100.84 352.55 78.69 352.55 76.66 314.18 56.47"/>
                <polygon class="cls-14" points="314.18 54.44 276.04 76.44 314.18 98.82 352.55 76.66 314.18 54.44"/>
              </g>
              <g>
                <polygon class="cls-95" points="314.18 32.96 276.04 52.93 276.04 66.14 314.18 88.52 352.55 66.37 352.55 53.15 314.18 32.96"/>
                <polygon class="cls-13" points="314.18 32.96 276.04 52.93 276.04 54.95 314.18 77.33 352.55 55.18 352.55 53.15 314.18 32.96"/>
                <polygon class="cls-51" points="314.18 30.93 276.04 52.93 314.18 75.31 352.55 53.15 314.18 30.93"/>
              </g>
              <g>
                <polygon class="cls-16" points="314.18 9.45 276.04 29.42 276.04 42.63 314.18 65.01 352.55 42.85 352.55 29.64 314.18 9.45"/>
                <polygon class="cls-89" points="314.18 9.45 276.04 29.42 276.04 31.44 314.18 53.82 352.55 31.67 352.55 29.64 314.18 9.45"/>
              </g>
              <polygon class="cls-86" points="314.18 9.45 276.04 29.42 276.04 31.44 314.18 53.82 352.55 31.67 352.55 29.64 314.18 9.45"/>
              <polygon class="cls-80" points="314.18 9.45 276.04 29.42 276.04 31.44 314.18 53.82 352.55 31.67 352.55 29.64 314.18 9.45"/>
              <polygon class="cls-7" points="314.18 9.45 276.04 30.03 276.04 32.11 314.18 55.18 352.55 32.34 352.55 30.26 314.18 9.45"/>
              <polygon class="cls-99" points="314.18 7.42 276.04 29.42 314.18 51.8 352.55 29.64 314.18 7.42"/>
            </g>
            <g>
              <polygon class="cls-12" points="431.22 215.76 319.03 150.42 319.03 66.71 431.22 132.04 431.22 215.76"/>
              <polygon class="cls-31" points="431.22 202.38 319.03 137.05 319.03 66.71 431.22 132.04 431.22 202.38"/>
              <polygon class="cls-103" points="325.13 134.5 325.13 76.37 425.12 134.59 425.12 192.72 325.13 134.5"/>
              <path class="cls-23" d="m371.6,174.6c0-1.94,1.57-2.59,3.5-1.46s3.51,3.61,3.51,5.55-1.57,2.59-3.51,1.46-3.5-3.61-3.5-5.55Z"/>
              <g class="cls-107">
                <path class="cls-67" d="m333.37,127c-1.33-.77-2.64-1.73-3.83-2.88l.74-.28c2.86,2.79,6.74,4.19,9.2,4.55,1.23.18,2.38.21,3.5.23,1.49.04,3.03.07,4.82.46,5.86,1.28,13,5.88,19.8,10.47,6.57,4.44,13.34,9.01,19.09,10.66,3.12.89,5.67.82,8.15.74.32,0,.64-.02.95-.03,2.95-.07,6.23.1,10.24,1.81,4.02,1.71,9.29,5.61,11.17,9.19l-1.24-.37c-1.58-3.01-6.11-6.33-9.58-7.8-3.88-1.65-7-1.72-9.61-1.66-.32,0-.63.02-.95.03-2.55.08-5.2.15-8.52-.8-6.13-1.76-13.43-6.69-19.87-11.04-6.59-4.45-13.46-8.88-18.92-10.07-1.67-.36-3.09-.4-4.6-.43-1.15-.03-2.33-.06-3.63-.24-1.84-.27-4.4-1.07-6.91-2.54Z"/>
                <path class="cls-79" d="m336.08,131.82l-1.31-1.01c1.7-2.31,3.62-4.94,7.44-5.66,4.27-.81,10.61,1.18,16.15,5.09,3.3,2.32,6.12,5.12,8.85,7.83.62.62,1.24,1.23,1.86,1.84,4.21,4.11,7.69,6.7,10.64,7.92,2.55,1.06,4.47,1.03,6.51.99,1.19-.02,2.42-.04,3.81.17,3.47.53,8,2.64,12.13,5.64,4.12,3,7.79,6.85,9.81,10.31l-1.21-.3c-1.84-3.14-5.17-6.65-8.92-9.37-3.75-2.73-7.87-4.64-11.03-5.13-1.29-.2-2.48-.18-3.64-.16-2.07.04-4.21.07-7.11-1.13-3.34-1.39-7.18-4.22-11.74-8.67-.63-.61-1.26-1.24-1.89-1.86-2.61-2.6-5.32-5.28-8.35-7.41-5.03-3.54-10.85-5.36-14.81-4.61-3.65.69-5.46,3.15-7.2,5.53Z"/>
                <path class="cls-85" d="m338.6,134.52c-2.53-1.48-5.3-3.55-7.17-5.97l1.04.05c2.13,2.74,5.7,5.01,8.33,6.22,2.93,1.35,5.64,1.97,8.26,2.57l.41.09c2.99.69,5.95,1.45,9.27,3.15,3.33,1.71,6.63,4.16,9.81,6.54,3.53,2.63,6.87,5.12,10.2,6.63,2.96,1.34,5.45,1.69,8.1,2.07,2.82.4,5.74.82,9.26,2.56,2.89,1.43,5.75,3.53,8.51,5.57.7.52,1.4,1.03,2.1,1.54,4.23,3.05,7.43,4.7,9.53,4.91l.85,1.15c-2.44-.24-6.03-2.06-10.69-5.42-.71-.51-1.42-1.04-2.13-1.56-2.63-1.94-5.35-3.95-7.97-5.24-3.19-1.57-5.85-1.95-8.66-2.35-2.64-.38-5.37-.77-8.61-2.23-3.66-1.66-7.31-4.38-10.84-7.01-3.06-2.28-6.23-4.65-9.3-6.22-3.06-1.56-5.88-2.29-8.74-2.95l-.41-.09c-2.72-.62-5.52-1.27-8.67-2.72-.77-.35-1.6-.79-2.47-1.29Z"/>
              </g>
              <g>
                <path class="cls-9" d="m418.84,139.99c-1.23-.39-2.4-.67-3.5-.93-2.61-.61-5.81-1.53-9.11-3.78-5.5-3.74-6.57-7.77-11.66-11.76-4.31-3.38-9.44-5.1-12.34-5.18-3.09-.09-4.81.99-7.64,1.14-2.83.14-7.44-.97-12.49-4.17-3.09-1.95-6.02-4.48-9.09-6.05-3.34-1.72-5.5-1.63-7.41-1.56-1.91.07-4.52-.19-7.91-2.22-2.26-1.36-4.13-3.08-6.05-4.73v5.61l87.21,50.79v-17.15Z"/>
                <path class="cls-44" d="m418.76,139.69c-.9-2.37-2.96-5.04-7.36-7.99-4.98-3.34-9.82-4.86-13.87-5.91-4.05-1.05-8.45-2.17-13.54-5.21-4.42-2.64-8.49-6.26-12.89-8.67-4.91-2.69-8.48-2.96-11.3-2.89-2.82.06-5.95.13-10.74-2.19-2.9-1.4-5.93-3.46-8.9-5.26-2.98-1.8-6.35-3.5-8.05-3.46-2.23.06-.13,2.83-.13,4.28,0,1.28-.2,2.47-.2,3.76l87.21,50.79v-9.2c0-1.97,1.06-4.7-.22-8.06Z"/>
                <path class="cls-100" d="m415.7,146.09c-5.56-2.09-12.13-6.43-18.22-10.44-6.08-4.02-12.79-8.3-18.09-10.03-4.39-1.44-7.16-.87-12.02-3-5.75-2.52-12.14-7.81-18.04-10.63-2.38-1.14-4.47-1.77-6.6-2.49-2.12-.72-4.43-1.59-6.88-3.02-1.54-.9-3.14-2.09-4.24-3.17v2.79l87.21,50.79v-9.86c-.96-.21-2-.51-3.14-.94Z"/>
              </g>
            </g>
            <g>
              <g>
                <polygon class="cls-72" points="280.96 145.28 262.78 154.81 262.78 161.11 280.96 171.78 299.27 161.22 299.27 154.92 280.96 145.28"/>
                <polygon class="cls-15" points="280.96 145.28 262.78 154.81 262.78 155.78 280.96 166.45 299.27 155.88 299.27 154.92 280.96 145.28"/>
                <polygon class="cls-62" points="280.96 144.32 262.78 154.81 280.96 165.48 299.27 154.92 280.96 144.32"/>
              </g>
              <g>
                <polygon class="cls-60" points="280.96 134.07 262.78 143.6 262.78 149.9 280.96 160.57 299.27 150 299.27 143.7 280.96 134.07"/>
                <polygon class="cls-36" points="280.96 134.07 262.78 143.6 262.78 144.56 280.96 155.24 299.27 144.67 299.27 143.7 280.96 134.07"/>
                <polygon class="cls-46" points="280.96 133.11 262.78 143.6 280.96 154.27 299.27 143.7 280.96 133.11"/>
              </g>
              <g>
                <polygon class="cls-25" points="280.96 122.86 262.78 132.39 262.78 138.69 280.96 149.36 299.27 138.79 299.27 132.49 280.96 122.86"/>
                <polygon class="cls-50" points="280.96 122.86 262.78 132.39 262.78 133.35 280.96 144.02 299.27 133.46 299.27 132.49 280.96 122.86"/>
                <polygon class="cls-6" points="280.96 121.89 262.78 132.39 280.96 143.06 299.27 132.49 280.96 121.89"/>
              </g>
              <g>
                <polygon class="cls-2" points="280.96 111.65 262.78 121.17 262.78 127.47 280.96 138.15 299.27 127.58 299.27 121.28 280.96 111.65"/>
                <polygon class="cls-48" points="280.96 111.65 262.78 121.17 262.78 122.14 280.96 132.81 299.27 122.24 299.27 121.28 280.96 111.65"/>
                <polygon class="cls-82" points="280.96 110.68 262.78 121.17 280.96 131.85 299.27 121.28 280.96 110.68"/>
              </g>
            </g>
            <g>
              <path class="cls-35" d="m305.03,117.26v-27.52c-13.72-7.86-24.84-3.1-24.84,10.62h0c0,13.72,11.12,31.21,24.84,39.07,13.72,7.86,24.84,3.1,24.84-10.62h0c0-6.18-2.26-13.12-5.99-19.6l-18.85,8.06Z"/>
              <path class="cls-3" d="m301.72,116.29v-27.52c-13.72-7.86-24.84-3.1-24.84,10.62h0c0,13.72,11.12,31.21,24.84,39.07s24.84,3.1,24.84-10.62h0c0-6.18-2.26-13.12-5.99-19.6l-18.85,8.06Z"/>
            </g>
            <g>
              <g>
                <polygon class="cls-81" points="465.97 183.8 433.81 200.65 433.81 211.79 465.97 230.66 498.33 211.98 498.33 200.83 465.97 183.8"/>
                <polygon class="cls-27" points="465.97 183.8 433.81 200.65 433.81 202.35 465.97 221.23 498.33 202.54 498.33 200.83 465.97 183.8"/>
                <polygon class="cls-52" points="465.97 182.09 433.81 200.65 465.97 219.52 498.33 200.83 465.97 182.09"/>
              </g>
              <g>
                <polygon class="cls-56" points="465.97 163.97 433.81 180.82 433.81 191.96 465.97 210.84 498.33 192.15 498.33 181.01 465.97 163.97"/>
                <polygon class="cls-19" points="465.97 163.97 433.81 180.82 433.81 182.53 465.97 201.4 498.33 182.71 498.33 181.01 465.97 163.97"/>
                <polygon class="cls-11" points="465.97 162.27 433.81 180.82 465.97 199.69 498.33 181.01 465.97 162.27"/>
              </g>
              <g>
                <polygon class="cls-90" points="465.97 144.14 433.81 160.99 433.81 172.13 465.97 191.01 498.33 172.32 498.33 161.18 465.97 144.14"/>
                <polygon class="cls-104" points="465.97 144.14 433.81 160.99 433.81 162.7 465.97 181.57 498.33 162.88 498.33 161.18 465.97 144.14"/>
                <polygon class="cls-71" points="465.97 142.44 433.81 160.99 465.97 179.86 498.33 161.18 465.97 142.44"/>
              </g>
              <g>
                <polygon class="cls-87" points="465.97 124.32 433.81 141.16 433.81 152.31 465.97 171.18 498.33 152.49 498.33 141.35 465.97 124.32"/>
                <polygon class="cls-37" points="465.97 124.32 433.81 141.16 433.81 142.87 465.97 161.74 498.33 143.06 498.33 141.35 465.97 124.32"/>
                <polygon class="cls-61" points="465.97 122.61 433.81 141.16 465.97 160.04 498.33 141.35 465.97 122.61"/>
              </g>
            </g>
            <g>
              <path class="cls-75" d="m319.23,174.69v-16.34c-.16-.09-.31-.19-.47-.28-9.03-5.17-16.35-2.04-16.35,6.99h0c0,9.03,7.32,20.54,16.35,25.71,4.64,2.65,8.82,3.12,11.79,1.72l-11.32-17.8Z"/>
              <path class="cls-78" d="m317.05,174.04v-16.34c-.16-.09-.31-.19-.47-.28-9.03-5.17-16.35-2.04-16.35,6.99h0c0,9.03,7.32,20.54,16.35,25.71,4.64,2.65,8.82,3.12,11.79,1.72l-11.32-17.8Z"/>
            </g>
            <g>
              <path class="cls-38" d="m418.03,222.07v-21.51c-11.88-6.8-21.51-2.69-21.51,9.19h0c0,5.94,2.41,12.69,6.3,18.82l15.21-6.5Z"/>
              <path class="cls-1" d="m415.17,221.23v-21.51c-11.88-6.8-21.51-2.69-21.51,9.19h0c0,5.94,2.41,12.69,6.3,18.82l15.21-6.5Z"/>
            </g>
            <g>
              <g>
                <polygon class="cls-21" points="447.81 241.08 422.69 254.23 422.69 262.94 447.81 277.68 473.08 263.08 473.08 254.38 447.81 241.08"/>
                <polygon class="cls-93" points="447.81 241.08 422.69 254.23 422.69 255.57 447.81 270.31 473.08 255.71 473.08 254.38 447.81 241.08"/>
                <polygon class="cls-53" points="447.81 239.75 422.69 254.23 447.81 268.97 473.08 254.38 447.81 239.75"/>
              </g>
              <g>
                <polygon class="cls-45" points="447.81 225.59 422.69 238.75 422.69 247.45 447.81 262.19 473.08 247.6 473.08 238.9 447.81 225.59"/>
                <polygon class="cls-24" points="447.81 225.59 422.69 238.75 422.69 240.08 447.81 254.82 473.08 240.23 473.08 238.9 447.81 225.59"/>
                <polygon class="cls-74" points="447.81 224.26 422.69 238.75 447.81 253.49 473.08 238.9 447.81 224.26"/>
              </g>
              <g>
                <polygon class="cls-10" points="447.81 210.11 422.69 223.26 422.69 231.97 447.81 246.71 473.08 232.11 473.08 223.41 447.81 210.11"/>
                <polygon class="cls-68" points="447.81 210.11 422.69 223.26 422.69 224.6 447.81 239.34 473.08 224.74 473.08 223.41 447.81 210.11"/>
                <polygon class="cls-29" points="447.81 208.78 422.69 223.26 447.81 238 473.08 223.41 447.81 208.78"/>
              </g>
              <g>
                <polygon class="cls-5" points="447.81 194.62 422.69 207.78 422.69 216.48 447.81 231.22 473.08 216.63 473.08 207.93 447.81 194.62"/>
                <polygon class="cls-63" points="447.81 194.62 422.69 207.78 422.69 209.11 447.81 223.85 473.08 209.26 473.08 207.93 447.81 194.62"/>
                <polygon class="cls-8" points="447.81 193.29 422.69 207.78 447.81 222.52 473.08 207.93 447.81 193.29"/>
              </g>
            </g>
          </g>
        </g>
      </g>
    </g>
  </g>
</svg>