<svg width="130" height="130" viewBox="0 0 130 130" fill="none" xmlns="http://www.w3.org/2000/svg">
<g clip-path="url(#clip0_81_234)">
<path d="M0 65V0H130V130H0" fill="#007ACC"/>
<path d="M28.5025 65.2276V70.5251H45.4025V118.625H57.395V70.5251H74.295V65.3251C74.295 62.4001 74.295 60.0276 74.165 59.9626C74.165 59.8651 63.8625 59.8326 51.35 59.8326L28.6 59.9301V65.2601L28.5025 65.2276ZM104.455 59.8001C107.77 60.5801 110.305 62.0751 112.58 64.4476C113.783 65.7476 115.57 68.0226 115.7 68.6076C115.7 68.8026 110.078 72.6051 106.665 74.7176C106.535 74.8151 106.015 74.2626 105.495 73.4176C103.805 71.0126 102.083 69.9726 99.385 69.7776C95.485 69.5176 92.885 71.5651 92.885 74.9776C92.885 76.0176 93.08 76.6026 93.47 77.4476C94.3475 79.2351 95.9725 80.3076 101.01 82.5176C110.305 86.5151 114.335 89.1476 116.772 92.9176C119.535 97.1426 120.153 103.773 118.3 108.745C116.22 114.173 111.15 117.845 103.903 119.048C101.628 119.438 96.4275 119.373 93.99 118.95C88.79 117.975 83.8175 115.375 80.7625 112.028C79.56 110.728 77.2525 107.25 77.3825 107.023L78.6175 106.243L83.4925 103.415L87.165 101.27L88.01 102.408C89.0825 104.098 91.4875 106.373 92.885 107.153C97.11 109.33 102.765 109.038 105.56 106.503C106.763 105.398 107.283 104.228 107.283 102.603C107.283 101.108 107.055 100.425 106.308 99.2876C105.268 97.8576 103.188 96.6876 97.3375 94.0876C90.61 91.2276 87.75 89.4076 85.085 86.6126C83.5575 84.9226 82.16 82.2901 81.51 80.1126C81.0225 78.2276 80.86 73.6126 81.315 71.7601C82.7125 65.2601 87.62 60.7101 94.64 59.4101C96.915 58.9551 102.278 59.1501 104.52 59.7351L104.455 59.8001Z" fill="white"/>
</g>
<defs>
<clipPath id="clip0_81_234">
<rect width="130" height="130" fill="white"/>
</clipPath>
</defs>
</svg>
