<?xml version="1.0" encoding="UTF-8"?>
<svg id="Layer_2" data-name="Layer 2" xmlns="http://www.w3.org/2000/svg" xmlns:xlink="http://www.w3.org/1999/xlink" viewBox="0 0 518.76 394.24">
  <defs>
    <style>
      .cls-1 {
        fill: #999;
      }

      .cls-1, .cls-2, .cls-3, .cls-4, .cls-5, .cls-6, .cls-7, .cls-8, .cls-9, .cls-10, .cls-11, .cls-12, .cls-13, .cls-14, .cls-15, .cls-16, .cls-17, .cls-18, .cls-19, .cls-20, .cls-21, .cls-22, .cls-23, .cls-24 {
        stroke-width: 0px;
      }

      .cls-25 {
        letter-spacing: .08em;
      }

      .cls-26 {
        fill: none;
        stroke: #566cfe;
        stroke-miterlimit: 10;
        stroke-width: .52px;
      }

      .cls-27 {
        letter-spacing: 0em;
      }

      .cls-28 {
        letter-spacing: .05em;
      }

      .cls-29 {
        font-size: 2.79px;
      }

      .cls-29, .cls-30, .cls-31, .cls-32, .cls-33, .cls-34, .cls-35, .cls-36, .cls-37 {
        font-family: Montserrat-Light, 'Montserrat Light';
        font-weight: 300;
      }

      .cls-29, .cls-30, .cls-33, .cls-35, .cls-22, .cls-36 {
        fill: #f262ff;
      }

      .cls-38, .cls-39, .cls-35 {
        letter-spacing: .05em;
      }

      .cls-2 {
        fill: url(#linear-gradient);
      }

      .cls-40 {
        letter-spacing: -.02em;
      }

      .cls-41 {
        letter-spacing: .09em;
      }

      .cls-42 {
        letter-spacing: -.03em;
      }

      .cls-30, .cls-34, .cls-37, .cls-43 {
        font-size: 4px;
      }

      .cls-3 {
        filter: url(#drop-shadow-2);
      }

      .cls-3, .cls-6, .cls-32, .cls-9, .cls-34, .cls-44, .cls-14, .cls-16, .cls-17, .cls-19, .cls-20, .cls-37 {
        fill: #fff;
      }

      .cls-45 {
        letter-spacing: .05em;
      }

      .cls-46 {
        letter-spacing: .04em;
      }

      .cls-47 {
        letter-spacing: .04em;
      }

      .cls-48 {
        letter-spacing: .04em;
      }

      .cls-4 {
        fill: url(#linear-gradient-6);
      }

      .cls-5 {
        fill: #dd0ee2;
      }

      .cls-49 {
        letter-spacing: .08em;
      }

      .cls-50 {
        letter-spacing: .05em;
      }

      .cls-51 {
        letter-spacing: -.02em;
      }

      .cls-52 {
        letter-spacing: .05em;
      }

      .cls-53 {
        letter-spacing: .07em;
      }

      .cls-31, .cls-32 {
        font-size: 3px;
      }

      .cls-31, .cls-39, .cls-54, .cls-43 {
        fill: #566cfe;
      }

      .cls-55 {
        letter-spacing: .06em;
      }

      .cls-56 {
        letter-spacing: .05em;
      }

      .cls-6 {
        filter: url(#drop-shadow-1);
      }

      .cls-57 {
        letter-spacing: .04em;
      }

      .cls-58 {
        letter-spacing: -.08em;
      }

      .cls-59 {
        letter-spacing: .01em;
      }

      .cls-7 {
        fill: url(#linear-gradient-11);
      }

      .cls-60 {
        letter-spacing: -.03em;
      }

      .cls-61 {
        letter-spacing: .05em;
      }

      .cls-8 {
        fill: url(#linear-gradient-5);
      }

      .cls-62 {
        letter-spacing: .04em;
      }

      .cls-63 {
        letter-spacing: .05em;
      }

      .cls-64 {
        letter-spacing: .03em;
      }

      .cls-65 {
        letter-spacing: .04em;
      }

      .cls-66, .cls-43 {
        letter-spacing: .05em;
      }

      .cls-67 {
        letter-spacing: -.03em;
      }

      .cls-68 {
        letter-spacing: 0em;
      }

      .cls-39 {
        font-size: 15px;
      }

      .cls-39, .cls-44, .cls-54, .cls-43 {
        font-family: Montserrat-Bold, 'Montserrat Bold';
        font-weight: 700;
      }

      .cls-33 {
        font-size: 4.7px;
      }

      .cls-35, .cls-36 {
        font-size: 5px;
      }

      .cls-10 {
        fill: url(#linear-gradient-2);
      }

      .cls-69 {
        letter-spacing: .05em;
      }

      .cls-70 {
        letter-spacing: -.01em;
      }

      .cls-11 {
        fill: url(#linear-gradient-7);
      }

      .cls-44 {
        font-size: 4.49px;
      }

      .cls-12 {
        fill: #09264f;
      }

      .cls-13 {
        fill: url(#linear-gradient-3);
      }

      .cls-71 {
        letter-spacing: .04em;
      }

      .cls-14 {
        filter: url(#drop-shadow-4);
      }

      .cls-72 {
        letter-spacing: .05em;
      }

      .cls-15 {
        fill: url(#linear-gradient-9);
      }

      .cls-16 {
        filter: url(#drop-shadow-5);
      }

      .cls-73 {
        letter-spacing: 0em;
      }

      .cls-74 {
        letter-spacing: .04em;
      }

      .cls-75 {
        letter-spacing: .04em;
      }

      .cls-54 {
        font-size: 10.24px;
      }

      .cls-17 {
        filter: url(#drop-shadow-7);
      }

      .cls-76 {
        letter-spacing: .04em;
      }

      .cls-77 {
        letter-spacing: .09em;
      }

      .cls-18 {
        fill: url(#linear-gradient-8);
      }

      .cls-19 {
        filter: url(#drop-shadow-6);
      }

      .cls-78 {
        letter-spacing: 0em;
      }

      .cls-79 {
        letter-spacing: 0em;
      }

      .cls-80, .cls-37 {
        letter-spacing: .05em;
      }

      .cls-20 {
        filter: url(#drop-shadow-3);
      }

      .cls-81 {
        letter-spacing: .03em;
      }

      .cls-82 {
        letter-spacing: .01em;
      }

      .cls-83 {
        letter-spacing: .06em;
      }

      .cls-21 {
        fill: url(#linear-gradient-10);
      }

      .cls-84 {
        letter-spacing: .05em;
      }

      .cls-85 {
        letter-spacing: .07em;
      }

      .cls-23 {
        fill: #22447a;
      }

      .cls-86 {
        letter-spacing: .03em;
      }

      .cls-24 {
        fill: url(#linear-gradient-4);
      }
    </style>
    <filter id="drop-shadow-1" filterUnits="userSpaceOnUse">
      <feOffset dx="2" dy="2"/>
      <feGaussianBlur result="blur" stdDeviation="3"/>
      <feFlood flood-color="#274244" flood-opacity=".3"/>
      <feComposite in2="blur" operator="in"/>
      <feComposite in="SourceGraphic"/>
    </filter>
    <filter id="drop-shadow-2" filterUnits="userSpaceOnUse">
      <feOffset dx="2" dy="2"/>
      <feGaussianBlur result="blur-2" stdDeviation="3"/>
      <feFlood flood-color="#274244" flood-opacity=".3"/>
      <feComposite in2="blur-2" operator="in"/>
      <feComposite in="SourceGraphic"/>
    </filter>
    <filter id="drop-shadow-3" filterUnits="userSpaceOnUse">
      <feOffset dx="2" dy="2"/>
      <feGaussianBlur result="blur-3" stdDeviation="3"/>
      <feFlood flood-color="#274244" flood-opacity=".3"/>
      <feComposite in2="blur-3" operator="in"/>
      <feComposite in="SourceGraphic"/>
    </filter>
    <linearGradient id="linear-gradient" x1="229.88" y1="17.27" x2="229.88" y2="28.62" gradientUnits="userSpaceOnUse">
      <stop offset="0" stop-color="#f262ff"/>
      <stop offset="1" stop-color="#566cfe"/>
    </linearGradient>
    <filter id="drop-shadow-4" filterUnits="userSpaceOnUse">
      <feOffset dx="2" dy="2"/>
      <feGaussianBlur result="blur-4" stdDeviation="3"/>
      <feFlood flood-color="#274244" flood-opacity=".3"/>
      <feComposite in2="blur-4" operator="in"/>
      <feComposite in="SourceGraphic"/>
    </filter>
    <linearGradient id="linear-gradient-2" x1="244.11" y1="295.11" x2="244.11" y2="328.31" gradientUnits="userSpaceOnUse">
      <stop offset="0" stop-color="#f262ff"/>
      <stop offset=".11" stop-color="#e862fe"/>
      <stop offset=".3" stop-color="#cd64fe"/>
      <stop offset=".54" stop-color="#a167fe"/>
      <stop offset=".82" stop-color="#656afe"/>
      <stop offset=".89" stop-color="#566cfe"/>
    </linearGradient>
    <linearGradient id="linear-gradient-3" x1="244.11" y1="308.78" x2="244.11" y2="344.21" xlink:href="#linear-gradient-2"/>
    <linearGradient id="linear-gradient-4" x1="244.1" y1="330.26" x2="244.1" y2="344.78" gradientUnits="userSpaceOnUse">
      <stop offset="0" stop-color="#f262ff"/>
      <stop offset=".12" stop-color="#e862fe"/>
      <stop offset=".33" stop-color="#cd64fe"/>
      <stop offset=".6" stop-color="#a167fe"/>
      <stop offset=".92" stop-color="#656afe"/>
      <stop offset="1" stop-color="#566cfe"/>
    </linearGradient>
    <filter id="drop-shadow-5" filterUnits="userSpaceOnUse">
      <feOffset dx="2" dy="2"/>
      <feGaussianBlur result="blur-5" stdDeviation="3"/>
      <feFlood flood-color="#274244" flood-opacity=".3"/>
      <feComposite in2="blur-5" operator="in"/>
      <feComposite in="SourceGraphic"/>
    </filter>
    <linearGradient id="linear-gradient-5" x1="407.63" y1="305.8" x2="434.97" y2="333.13" gradientUnits="userSpaceOnUse">
      <stop offset="0" stop-color="#f262ff"/>
      <stop offset=".15" stop-color="#d363fe"/>
      <stop offset=".43" stop-color="#9d67fe"/>
      <stop offset=".68" stop-color="#7669fe"/>
      <stop offset=".88" stop-color="#5e6bfe"/>
      <stop offset="1" stop-color="#566cfe"/>
    </linearGradient>
    <filter id="drop-shadow-6" filterUnits="userSpaceOnUse">
      <feOffset dx="2" dy="2"/>
      <feGaussianBlur result="blur-6" stdDeviation="3"/>
      <feFlood flood-color="#274244" flood-opacity=".3"/>
      <feComposite in2="blur-6" operator="in"/>
      <feComposite in="SourceGraphic"/>
    </filter>
    <filter id="drop-shadow-7" filterUnits="userSpaceOnUse">
      <feOffset dx="2" dy="2"/>
      <feGaussianBlur result="blur-7" stdDeviation="3"/>
      <feFlood flood-color="#274244" flood-opacity=".3"/>
      <feComposite in2="blur-7" operator="in"/>
      <feComposite in="SourceGraphic"/>
    </filter>
    <linearGradient id="linear-gradient-6" x1="146.85" y1="208.81" x2="262.85" y2="208.81" gradientUnits="userSpaceOnUse">
      <stop offset="0" stop-color="#566cfe"/>
      <stop offset=".08" stop-color="#656afe"/>
      <stop offset=".4" stop-color="#a167fe"/>
      <stop offset=".67" stop-color="#cd64fe"/>
      <stop offset=".88" stop-color="#e862fe"/>
      <stop offset="1" stop-color="#f262ff"/>
    </linearGradient>
    <linearGradient id="linear-gradient-7" y1="222.81" y2="222.81" xlink:href="#linear-gradient-6"/>
    <linearGradient id="linear-gradient-8" y1="236.81" y2="236.81" xlink:href="#linear-gradient-6"/>
    <linearGradient id="linear-gradient-9" x1="184.56" y1="119.22" x2="184.56" y2="160.16" xlink:href="#linear-gradient-4"/>
    <linearGradient id="linear-gradient-10" x1="304.26" y1="117.72" x2="304.26" y2="160.24" xlink:href="#linear-gradient-4"/>
    <linearGradient id="linear-gradient-11" x1="423.95" y1="118.98" x2="423.95" y2="160.17" xlink:href="#linear-gradient-4"/>
  </defs>
  <g id="OBJECTS">
    <g>
      <rect class="cls-5" width="518.76" height="394.24"/>
      <rect class="cls-6" x="131.43" y="56.95" width="106.27" height="106.26" rx="4" ry="4"/>
      <rect class="cls-1" width="518.76" height="39.12"/>
      <rect class="cls-23" width="98.82" height="394.24"/>
      <rect class="cls-12" width="98.82" height="39.12"/>
      <g>
        <polygon class="cls-22" points="23.75 76.61 20.42 76.61 17.09 76.61 17.09 76.18 20.42 73.77 23.75 76.18 23.75 76.61"/>
        <path class="cls-22" d="m17.41,76.87v3.74h1.73v-1.69c0-.59.58-1.07,1.28-1.07s1.28.48,1.28,1.07v1.69h1.73v-3.74h-6.03Z"/>
      </g>
      <path class="cls-9" d="m23.75,173.15v-.92l-.63-.13c-.07-.33-.2-.63-.38-.9l.36-.54-.65-.65-.54.36c-.27-.18-.58-.3-.9-.38l-.13-.63h-.92l-.13.63c-.33.07-.63.2-.9.38l-.54-.36-.65.65.36.54c-.18.27-.3.58-.38.9l-.63.13v.92l.63.13c.07.33.2.63.38.9l-.36.54.65.65.54-.36c.27.18.58.3.9.38l.13.63h.92l.13-.63c.33-.07.63-.2.9-.38l.54.36.65-.65-.36-.54c.18-.27.3-.58.38-.9l.63-.13Zm-3.33.68c-.63,0-1.14-.51-1.14-1.14s.51-1.14,1.14-1.14,1.14.51,1.14,1.14-.51,1.14-1.14,1.14Z"/>
      <path class="cls-9" d="m20.42,118.39l-2.65-2.38c-1.94-2.12.7-5,2.65-2.88,1.95-2.13,4.6.76,2.65,2.88l-2.65,2.38Z"/>
      <g>
        <polygon class="cls-9" points="21.25 136.09 23.75 137.91 23.75 136.09 21.25 136.09"/>
        <path class="cls-9" d="m17.09,131.07v4.65h6.66v-4.65h-6.66Zm.9.73h2.5v.17h-2.5v-.17Zm4.96,3.03h-4.96v-.17h4.96v.17Zm0-.71h-4.96v-.17h4.96v.17Zm0-.71h-4.96v-.17h4.96v.17Zm0-.71h-4.96v-.17h4.96v.17Z"/>
      </g>
      <g>
        <path class="cls-9" d="m20.54,153.76s-.07.04-.11.04-.08-.01-.11-.04l-3.22-2.18v4.26h6.66v-4.26l-3.22,2.18Z"/>
        <polygon class="cls-9" points="23.39 151.34 17.46 151.34 20.42 153.34 23.39 151.34"/>
      </g>
      <text class="cls-30" transform="translate(32.95 79.12)"><tspan class="cls-57" x="0" y="0">D</tspan><tspan class="cls-66" x="2.81" y="0">ASHB</tspan><tspan class="cls-46" x="12.8" y="0">O</tspan><tspan class="cls-80" x="15.7" y="0">ARD</tspan></text>
      <text class="cls-34" transform="translate(32.95 97.55)"><tspan class="cls-80" x="0" y="0">S</tspan><tspan class="cls-51" x="2.17" y="0">T</tspan><tspan class="cls-60" x="4.06" y="0">A</tspan><tspan class="cls-66" x="6.4" y="0">TISTIC</tspan></text>
      <text class="cls-34" transform="translate(32.95 116.65)"><tspan class="cls-42" x="0" y="0">F</tspan><tspan class="cls-73" x="1.84" y="0">A</tspan><tspan class="cls-66" x="4.27" y="0">VORITES</tspan></text>
      <text class="cls-34" transform="translate(32.95 135.75)"><tspan class="cls-66" x="0" y="0">CH</tspan><tspan class="cls-60" x="5.33" y="0">A</tspan><tspan class="cls-66" x="7.67" y="0">T</tspan></text>
      <text class="cls-34" transform="translate(32.95 154.85)"><tspan class="cls-66" x="0" y="0">MESS</tspan><tspan class="cls-65" x="9.93" y="0">A</tspan><tspan class="cls-80" x="12.52" y="0">GES</tspan></text>
      <text class="cls-34" transform="translate(32.95 173.95)"><tspan class="cls-80" x="0" y="0">S</tspan><tspan class="cls-53" x="2.17" y="0">E</tspan><tspan class="cls-41" x="4.4" y="0">T</tspan><tspan class="cls-66" x="6.74" y="0">TING</tspan></text>
      <text class="cls-34" transform="translate(14.85 227.01)"><tspan class="cls-80" x="0" y="0">DO</tspan><tspan class="cls-82" x="5.82" y="0">L</tspan><tspan class="cls-66" x="7.75" y="0">OR SIT </tspan><tspan class="cls-52" x="20.67" y="0">A</tspan><tspan class="cls-66" x="23.3" y="0">M</tspan><tspan class="cls-53" x="26.72" y="0">E</tspan><tspan class="cls-66" x="28.95" y="0">T</tspan></text>
      <text class="cls-32" transform="translate(14.85 207.91)"><tspan class="cls-59" x="0" y="0">L</tspan><tspan class="cls-84" x="1.45" y="0">OREM IPSUM</tspan></text>
      <text class="cls-32" transform="translate(14.85 59.12)"><tspan class="cls-59" x="0" y="0">L</tspan><tspan class="cls-84" x="1.45" y="0">OREM IPSUM</tspan></text>
      <text class="cls-34" transform="translate(14.85 246.11)"><tspan class="cls-86" x="0" y="0">C</tspan><tspan class="cls-66" x="2.44" y="0">ONSE</tspan><tspan class="cls-49" x="12.56" y="0">C</tspan><tspan class="cls-66" x="15.2" y="0">T</tspan><tspan class="cls-53" x="17.38" y="0">E</tspan><tspan class="cls-66" x="19.62" y="0">TUR ADIPISCING</tspan></text>
      <text class="cls-37" transform="translate(14.85 265.21)"><tspan x="0" y="0">DONEC FERMENTUM</tspan></text>
      <g>
        <rect class="cls-9" x="17.09" y="95.43" width="1" height="4.28"/>
        <rect class="cls-9" x="18.98" y="94.39" width="1" height="5.33"/>
        <rect class="cls-9" x="20.86" y="96.43" width="1" height="3.28"/>
        <rect class="cls-9" x="22.75" y="92.87" width="1" height="6.85"/>
      </g>
      <text class="cls-39" transform="translate(165.75 105.2)"><tspan x="0" y="0">1.700</tspan></text>
      <rect class="cls-3" x="251.13" y="56.95" width="106.26" height="106.26" rx="4" ry="4"/>
      <rect class="cls-20" x="370.82" y="56.95" width="106.26" height="106.26" rx="4" ry="4"/>
      <g>
        <text class="cls-44" transform="translate(24.78 24.16)"><tspan class="cls-40" x="0" y="0">C</tspan><tspan x="2.51" y="0">OM</tspan><tspan class="cls-58" x="9.21" y="0">P</tspan><tspan class="cls-68" x="11.22" y="0">A</tspan><tspan class="cls-27" x="13.97" y="0">N</tspan><tspan class="cls-68" x="16.89" y="0">Y N</tspan><tspan class="cls-78" x="23.23" y="0">A</tspan><tspan class="cls-68" x="25.96" y="0">ME</tspan></text>
        <g>
          <path class="cls-22" d="m18.4,20.69l-1.89,1.89,1.89,1.89,1.89-1.89-1.89-1.89Zm-.75,1.89l.75-.75.75.75-.75.75-.75-.75Z"/>
          <rect class="cls-22" x="15.13" y="22.86" width="1.33" height="1.33" transform="translate(21.26 -4.28) rotate(45)"/>
          <rect class="cls-22" x="15.92" y="20.88" width=".93" height=".93" transform="translate(19.89 -5.34) rotate(45)"/>
        </g>
      </g>
      <text class="cls-35" transform="translate(412.11 79.2)"><tspan x="0" y="0">EARNINGS</tspan></text>
      <text class="cls-39" transform="translate(283.35 105.19)"><tspan x="0" y="0">87.5%</tspan></text>
      <text class="cls-39" transform="translate(398.94 105.2)"><tspan x="0" y="0">$ 2.100</tspan></text>
      <rect class="cls-9" x="132.79" y="15.11" width="104.84" height="15.64" rx="2" ry="2"/>
      <path class="cls-2" d="m229.88,28.13h0c-2.85,0-5.16-2.31-5.16-5.16v-.08c0-2.85,2.31-5.16,5.16-5.16h0c2.85,0,5.16,2.31,5.16,5.16v.08c0,2.85-2.31,5.16-5.16,5.16Z"/>
      <text class="cls-35" transform="translate(175.27 79.2)"><tspan x="0" y="0">ORDERS</tspan></text>
      <text class="cls-35" transform="translate(297.23 79.2)"><tspan x="0" y="0">SALES</tspan></text>
      <path class="cls-9" d="m231.74,23.43c.66-.7.62-1.81-.08-2.47-.7-.66-1.81-.62-2.47.08-.6.64-.62,1.6-.1,2.27l-1.56,1.66c-.1.11-.1.28.01.38.11.1.28.1.38-.01l1.56-1.66c.7.48,1.66.39,2.26-.24Zm-2.1-.31c-.49-.46-.51-1.23-.05-1.71.46-.49,1.23-.51,1.71-.05s.51,1.23.05,1.71c-.46.49-1.23.51-1.71.05Z"/>
      <g>
        <rect class="cls-14" x="131.43" y="266.5" width="225.95" height="95.53" rx="4" ry="4"/>
        <text class="cls-36" transform="translate(219.68 288.74)"><tspan class="cls-38" x="0" y="0">N</tspan><tspan class="cls-85" x="3.54" y="0">E</tspan><tspan class="cls-77" x="6.33" y="0">T</tspan><tspan class="cls-38" x="9.26" y="0">WORK </tspan><tspan class="cls-47" x="24.65" y="0">A</tspan><tspan class="cls-25" x="27.88" y="0">C</tspan><tspan class="cls-63" x="31.17" y="0">TIVITIES</tspan></text>
      </g>
      <g>
        <path class="cls-10" d="m317.05,303.75c-.63-.58-1.45-.95-2.35-.92-.6.02-1.2.2-1.79.09-1.54-.29-2.1-2.33-3.56-2.88-.93-.35-2,0-2.78.59-.79.6-1.36,1.42-2,2.16-2.28,2.67-6.26,5.42-10.01,4.69-.99-.19-1.99-.65-2.99-1.41-1.23-.93-2.42-2.25-4.05-2.46-1.77-.23-3.13,1.06-4.67,1.67-4,1.59-8.34-.51-11.46-2.92-1.41-1.09-2.81-2.42-4.59-2.6-1.45-.14-2.89.54-3.92,1.56s-1.69,2.33-2.23,3.66c-.35.88-.66,1.8-1.22,2.58-.56.78-1.42,1.41-2.38,1.43-.75.01-1.54-.33-2.21-.02-1.06.49-1.03,2.2-2.1,2.67-1,.45-2.06-.54-3.15-.65-1.5-.15-2.58,1.3-3.63,2.37-4.7,4.83-12.86,3.07-17.41-.99-1-.89-1.9-1.91-3.05-2.59-1.15-.68-2.67-.97-3.84-.3-1.08.62-1.99,2.03-3.18,1.65-.86-.27-1.21-1.4-2.08-1.67-.7-.22-1.45.22-1.95.75-.51.53-.91,1.18-1.54,1.55-1.43.85-3.31-.07-4.4-1.31-1.09-1.24-1.82-2.81-3.14-3.82-1.34-1.02-3.18-1.32-4.82-.91-1.64.41-3.08,1.47-4.07,2.83-1.38,1.9-1.89,4.28-3.01,6.35-1.12,2.07-3.31,3.95-5.64,3.46-3.26-.69-5.74-3.45-9.34-2.88-5.92.94-7.33,9.06-7.33,9.06v10.66h145.89v-31.46Z"/>
        <path class="cls-13" d="m317.05,307.61c-1.39-.6-3.14-.92-4.21-.5-2.67,1.04-3.3,4.91-5.99,5.89-1.84.67-3.88-.29-5.84-.17-3.51.22-6.34,3.88-9.82,3.35-2.76-.42-4.32-3.22-6.01-5.41-1.8-2.32-4.27-4.27-7.17-4.88-2.9-.61-6.24.33-7.92,2.74-.81,1.16-1.21,2.57-2.16,3.62-1.29,1.41-3.31,1.87-4.93,2.88-2.35,1.47-3.75,4.02-5.66,6.01-2.43,2.52-5.59,4.66-9.15,4.01-1.9-.35-3.95-.81-5.68.03-1.07.52-2.06,1.53-3.23,1.32-1.22-.23-1.87-1.71-3.08-1.99-1.26-.29-2.39.83-3.66,1.06-1.42.26-2.82-.66-3.69-1.8-.87-1.14-1.39-2.49-2.19-3.68-.71-1.06-1.64-1.97-2.56-2.86-1.48-1.44-3.15-2.98-5.23-3.11-3.02-.2-5.27,2.52-7.18,4.82-1.88,2.26-3.95,4.38-6.19,6.31-1.86,1.61-4.01,3.16-6.48,3.23-2.19.07-4.21-1.04-6.32-1.65-2.96-.86-6.21-.73-9.09.37-2.42.93-4.5,2.48-6.74,3.75-.33.19-5.69,2.47-5.69,1.85v8.63h145.89v-33.81Z"/>
        <path class="cls-24" d="m317.05,333.66c-.07-.08-.15-.17-.2-.25-.76-1.24-1.02-2.37-2.24-3.4-.35-.3-.74-.57-1.2-.67-.89-.18-1.74.38-2.63.54-1.56.29-3.09-.55-4.64-.53-1.51.01-2.78.9-4.1,1.53-2.27,1.08-4.98.69-7.37-.1-2.39-.79-4.66-1.96-7.13-2.44-6.36-1.23-11.95,2.35-17.24,5.21-2.03,1.1-4.49,1.96-6.62,1.05-.76-.32-1.42-.86-2.22-1.07-1.59-.42-3.17.51-4.7,1.11-2.53,1-5.4,1.14-8.01.37-2.35-.69-4.44-2.06-6.73-2.94-2.97-1.14-6.28-1.42-9.41-.79-1.17.24-2.31.6-3.45.95-5.08,1.6-10.5,3.86-15.82,1.77-1.64-.64-3.31-1.67-5.02-1.25-1.42.34-2.53,1.64-3.99,1.67-.91.01-1.73-.47-2.6-.72-2.25-.64-4.64.36-6.64,1.56-2,1.2-3.95,2.65-6.27,3.04-3.68.61-7.16-1.5-10.84-1.13-1.65.17-3.21.84-4.67,1.6-.24.13-2.16,1-2.16,1.31,0,0,0,3.78,0,3.78l145.9.28v-10.49Z"/>
        <g>
          <text class="cls-29" transform="translate(163.68 345.02)"><tspan x="0" y="0">0</tspan></text>
          <line class="cls-26" x1="171.17" y1="289.14" x2="171.17" y2="346.66"/>
          <line class="cls-26" x1="327" y1="344.15" x2="167.91" y2="344.15"/>
          <text class="cls-29" transform="translate(162.24 335.1)"><tspan x="0" y="0">100</tspan></text>
          <text class="cls-29" transform="translate(167.77 350.93)"><tspan class="cls-70" x="0" y="0">A</tspan><tspan class="cls-79" x="1.68" y="0">ug 1</tspan></text>
          <line class="cls-26" x1="171.17" y1="334.23" x2="167.91" y2="334.23"/>
          <text class="cls-29" transform="translate(162.24 325.19)"><tspan x="0" y="0">200</tspan></text>
          <line class="cls-26" x1="171.17" y1="324.32" x2="167.91" y2="324.32"/>
          <text class="cls-29" transform="translate(162.24 315.28)"><tspan x="0" y="0">300</tspan></text>
          <line class="cls-26" x1="171.17" y1="314.41" x2="167.91" y2="314.41"/>
          <text class="cls-29" transform="translate(162.24 305.37)"><tspan x="0" y="0">400</tspan></text>
          <line class="cls-26" x1="171.17" y1="304.5" x2="167.91" y2="304.5"/>
          <text class="cls-29" transform="translate(162.24 295.46)"><tspan x="0" y="0">500</tspan></text>
          <line class="cls-26" x1="171.17" y1="294.59" x2="167.91" y2="294.59"/>
          <line class="cls-26" x1="171.17" y1="344.15" x2="171.17" y2="346.66"/>
          <text class="cls-29" transform="translate(192.1 350.93)"><tspan class="cls-70" x="0" y="0">A</tspan><tspan class="cls-79" x="1.68" y="0">ug 2</tspan></text>
          <line class="cls-26" x1="195.5" y1="344.15" x2="195.5" y2="346.66"/>
          <text class="cls-29" transform="translate(216.43 350.93)"><tspan class="cls-70" x="0" y="0">A</tspan><tspan class="cls-79" x="1.68" y="0">ug 3</tspan></text>
          <line class="cls-26" x1="219.83" y1="344.15" x2="219.83" y2="346.66"/>
          <text class="cls-29" transform="translate(240.76 350.93)"><tspan class="cls-70" x="0" y="0">A</tspan><tspan class="cls-79" x="1.68" y="0">ug 4</tspan></text>
          <line class="cls-26" x1="244.16" y1="344.15" x2="244.16" y2="346.66"/>
          <text class="cls-29" transform="translate(265.09 350.93)"><tspan class="cls-70" x="0" y="0">A</tspan><tspan class="cls-79" x="1.68" y="0">ug 5</tspan></text>
          <line class="cls-26" x1="268.49" y1="344.15" x2="268.49" y2="346.66"/>
          <text class="cls-29" transform="translate(289.42 350.93)"><tspan class="cls-70" x="0" y="0">A</tspan><tspan class="cls-79" x="1.68" y="0">ug 6</tspan></text>
          <line class="cls-26" x1="292.82" y1="344.15" x2="292.82" y2="346.66"/>
          <text class="cls-29" transform="translate(313.75 350.93)"><tspan class="cls-70" x="0" y="0">A</tspan><tspan class="cls-79" x="1.68" y="0">ug 7</tspan></text>
          <line class="cls-26" x1="317.15" y1="344.15" x2="317.15" y2="346.66"/>
        </g>
      </g>
      <g>
        <rect class="cls-16" x="370.81" y="266.49" width="106.27" height="95.53" rx="4" ry="4"/>
        <text class="cls-36" transform="translate(417.23 288.74)"><tspan class="cls-38" x="0" y="0">S</tspan><tspan class="cls-51" x="2.71" y="0">T</tspan><tspan class="cls-67" x="5.08" y="0">A</tspan><tspan class="cls-75" x="8" y="0">T</tspan><tspan class="cls-38" x="10.71" y="0">S</tspan></text>
        <g>
          <text class="cls-54" transform="translate(416.01 325.19)"><tspan x="0" y="0">2.9K</tspan></text>
          <path class="cls-8" d="m425.1,348.76c-14.06,0-25.5-11.44-25.5-25.5s11.44-25.5,25.5-25.5,25.5,11.44,25.5,25.5-11.44,25.5-25.5,25.5Zm0-45.53c-11.05,0-20.04,8.99-20.04,20.04s8.99,20.04,20.04,20.04,20.04-8.99,20.04-20.04-8.99-20.04-20.04-20.04Z"/>
          <path class="cls-22" d="m425.1,348.76c-6.81,0-13.21-2.65-18.03-7.47l3.86-3.86c3.78,3.78,8.82,5.87,14.17,5.87s10.38-2.08,14.17-5.87c3.78-3.78,5.87-8.82,5.87-14.17s-2.08-10.38-5.87-14.17l3.86-3.86c4.82,4.82,7.47,11.22,7.47,18.03s-2.65,13.21-7.47,18.03c-4.82,4.82-11.22,7.47-18.03,7.47Z"/>
          <g>
            <text class="cls-33" transform="translate(422.17 331.65)"><tspan x="0" y="0">10%</tspan></text>
            <g>
              <path class="cls-22" d="m421,329.71s-.1-.02-.13-.05l-1.05-1.05-1.05,1.05c-.07.07-.19.07-.26,0-.07-.07-.07-.19,0-.27l1.18-1.19c.07-.07.19-.07.26,0l1.19,1.19c.07.07.07.19,0,.27-.04.04-.08.05-.13.05Z"/>
              <path class="cls-22" d="m419.82,331.83c-.1,0-.19-.08-.19-.19v-3.31c0-.1.08-.19.19-.19s.19.08.19.19v3.31c0,.1-.08.19-.19.19Z"/>
            </g>
          </g>
        </g>
      </g>
      <g>
        <rect class="cls-19" x="310.9" y="172.37" width="166.17" height="84.96" rx="4" ry="4"/>
        <g>
          <text class="cls-31" transform="translate(328.33 207.92)"><tspan class="cls-76" x="0" y="0">L</tspan><tspan class="cls-84" x="1.52" y="0">o</tspan><tspan class="cls-71" x="3.32" y="0">r</tspan><tspan class="cls-84" x="4.42" y="0">em ipsum dolor sit ame</tspan><tspan class="cls-61" x="37.03" y="0">t</tspan><tspan class="cls-84" x="38.16" y="0">, </tspan><tspan class="cls-74" x="0" y="3.6">c</tspan><tspan class="cls-84" x="1.48" y="3.6">onse</tspan><tspan class="cls-83" x="8.08" y="3.6">c</tspan><tspan class="cls-74" x="9.61" y="3.6">t</tspan><tspan class="cls-45" x="10.74" y="3.6">etur adipiscing eli</tspan><tspan class="cls-56" x="35.73" y="3.6">t</tspan><tspan class="cls-45" x="36.86" y="3.6">, sed </tspan><tspan class="cls-84" x="0" y="7.2">do eiusmod </tspan><tspan class="cls-74" x="17.15" y="7.2">t</tspan><tspan class="cls-45" x="18.27" y="7.2">empor incididu</tspan><tspan class="cls-69" x="39.5" y="7.2">n</tspan><tspan class="cls-45" x="41.3" y="7.2">t ut </tspan><tspan class="cls-84" x="0" y="10.8">labo</tspan><tspan class="cls-62" x="6.11" y="10.8">r</tspan><tspan class="cls-84" x="7.21" y="10.8">e et dolo</tspan><tspan class="cls-48" x="19.52" y="10.8">r</tspan><tspan class="cls-84" x="20.62" y="10.8">e ma</tspan><tspan class="cls-74" x="27.31" y="10.8">g</tspan><tspan class="cls-84" x="29.12" y="10.8">na aliqua. </tspan><tspan class="cls-28" x="43.42" y="10.8">U</tspan><tspan class="cls-45" x="45.52" y="10.8">t </tspan><tspan class="cls-84" x="0" y="14.4">enim ad minim </tspan><tspan class="cls-62" x="21.59" y="14.4">v</tspan><tspan class="cls-84" x="23.15" y="14.4">eniam, quis </tspan><tspan class="cls-84" x="0" y="18">nostrud </tspan><tspan class="cls-56" x="11.65" y="18">e</tspan><tspan class="cls-81" x="13.3" y="18">x</tspan><tspan class="cls-84" x="14.79" y="18">e</tspan><tspan class="cls-62" x="16.45" y="18">r</tspan><tspan class="cls-45" x="17.55" y="18">cit</tspan><tspan class="cls-50" x="21.04" y="18">a</tspan><tspan class="cls-84" x="22.62" y="18">tion ullam</tspan><tspan class="cls-74" x="36.78" y="18">c</tspan><tspan class="cls-45" x="38.25" y="18">o </tspan><tspan class="cls-84" x="0" y="21.6">labo</tspan><tspan class="cls-28" x="6.11" y="21.6">r</tspan><tspan class="cls-84" x="7.25" y="21.6">is nisi ut aliquip </tspan><tspan class="cls-61" x="30.04" y="21.6">e</tspan><tspan class="cls-84" x="31.69" y="21.6">x ea </tspan><tspan class="cls-74" x="0" y="25.2">c</tspan><tspan class="cls-84" x="1.48" y="25.2">ommodo </tspan><tspan class="cls-74" x="14.8" y="25.2">c</tspan><tspan class="cls-84" x="16.27" y="25.2">onsequ</tspan><tspan class="cls-69" x="26.52" y="25.2">at</tspan><tspan class="cls-45" x="29.24" y="25.2">.</tspan></text>
          <text class="cls-31" transform="translate(384.32 207.92)"><tspan class="cls-76" x="0" y="0">L</tspan><tspan class="cls-84" x="1.52" y="0">o</tspan><tspan class="cls-71" x="3.32" y="0">r</tspan><tspan class="cls-84" x="4.42" y="0">em ipsum dolor sit ame</tspan><tspan class="cls-61" x="37.03" y="0">t</tspan><tspan class="cls-84" x="38.16" y="0">, </tspan><tspan class="cls-74" x="39.72" y="0">c</tspan><tspan class="cls-84" x="41.2" y="0">onse</tspan><tspan class="cls-83" x="47.8" y="0">c</tspan><tspan class="cls-74" x="49.33" y="0">t</tspan><tspan class="cls-84" x="50.46" y="0">etur adipiscing </tspan><tspan class="cls-84" x="0" y="3.6">eli</tspan><tspan class="cls-56" x="3.36" y="3.6">t</tspan><tspan class="cls-84" x="4.5" y="3.6">, sed do eiusmod </tspan><tspan class="cls-74" x="28.82" y="3.6">t</tspan><tspan class="cls-45" x="29.94" y="3.6">empor incididu</tspan><tspan class="cls-50" x="51.17" y="3.6">n</tspan><tspan class="cls-45" x="52.98" y="3.6">t ut labo</tspan><tspan class="cls-62" x="64.74" y="3.6">r</tspan><tspan class="cls-45" x="65.85" y="3.6">e et </tspan><tspan class="cls-84" x="0" y="7.2">dolo</tspan><tspan class="cls-62" x="6.29" y="7.2">r</tspan><tspan class="cls-84" x="7.4" y="7.2">e ma</tspan><tspan class="cls-74" x="14.08" y="7.2">g</tspan><tspan class="cls-84" x="15.89" y="7.2">na aliqua. </tspan><tspan class="cls-72" x="30.19" y="7.2">U</tspan><tspan class="cls-45" x="32.29" y="7.2">t enim ad minim </tspan><tspan class="cls-62" x="55.81" y="7.2">v</tspan><tspan class="cls-84" x="57.37" y="7.2">eniam, quis </tspan><tspan class="cls-84" x="0" y="10.8">nostrud </tspan><tspan class="cls-56" x="11.65" y="10.8">e</tspan><tspan class="cls-81" x="13.3" y="10.8">x</tspan><tspan class="cls-84" x="14.79" y="10.8">e</tspan><tspan class="cls-62" x="16.45" y="10.8">r</tspan><tspan class="cls-45" x="17.55" y="10.8">cit</tspan><tspan class="cls-50" x="21.04" y="10.8">a</tspan><tspan class="cls-84" x="22.62" y="10.8">tion ullam</tspan><tspan class="cls-74" x="36.78" y="10.8">c</tspan><tspan class="cls-45" x="38.25" y="10.8">o labo</tspan><tspan class="cls-72" x="46.95" y="10.8">r</tspan><tspan class="cls-84" x="48.09" y="10.8">is nisi ut aliquip </tspan><tspan class="cls-56" x="70.88" y="10.8">e</tspan><tspan class="cls-84" x="72.53" y="10.8">x </tspan><tspan class="cls-84" x="0" y="14.4">ea </tspan><tspan class="cls-74" x="4.03" y="14.4">c</tspan><tspan class="cls-84" x="5.51" y="14.4">ommodo </tspan><tspan class="cls-74" x="18.83" y="14.4">c</tspan><tspan class="cls-45" x="20.31" y="14.4">onsequ</tspan><tspan class="cls-69" x="30.55" y="14.4">at</tspan><tspan class="cls-84" x="33.27" y="14.4">.</tspan></text>
        </g>
        <text class="cls-36" transform="translate(377.18 194.62)"><tspan class="cls-38" x="0" y="0">D</tspan><tspan class="cls-55" x="3.58" y="0">E</tspan><tspan class="cls-38" x="6.33" y="0">VICE US</tspan><tspan class="cls-64" x="24.19" y="0">A</tspan><tspan class="cls-38" x="27.42" y="0">GE</tspan></text>
        <rect class="cls-22" x="384.32" y="233.79" width="75.33" height="3.02"/>
      </g>
      <g>
        <rect class="cls-17" x="131.43" y="172.37" width="166.17" height="84.96" rx="4" ry="4"/>
        <text class="cls-36" transform="translate(197.71 194.62)"><tspan class="cls-38" x="0" y="0">D</tspan><tspan class="cls-55" x="3.58" y="0">E</tspan><tspan class="cls-38" x="6.33" y="0">VICE US</tspan><tspan class="cls-64" x="24.19" y="0">A</tspan><tspan class="cls-38" x="27.42" y="0">GE</tspan></text>
        <text class="cls-43" transform="translate(269.08 209.91)"><tspan x="0" y="0">1580</tspan></text>
        <text class="cls-43" transform="translate(269.08 223.91)"><tspan x="0" y="0">580</tspan></text>
        <text class="cls-43" transform="translate(269.08 237.91)"><tspan x="0" y="0">1260</tspan></text>
        <rect class="cls-4" x="146.85" y="205.79" width="116" height="6.04"/>
        <rect class="cls-22" x="146.85" y="205.79" width="50.06" height="6.04"/>
        <rect class="cls-11" x="146.85" y="219.79" width="116" height="6.04"/>
        <rect class="cls-22" x="146.85" y="219.79" width="30.58" height="6.04"/>
        <rect class="cls-18" x="146.85" y="233.79" width="116" height="6.04"/>
        <rect class="cls-22" x="146.85" y="233.79" width="66.87" height="6.04"/>
      </g>
      <path class="cls-15" d="m226.59,124.67c-3.5,1.92-7.6,3.02-11.52,2.27-3.44-.66-6.81-2.71-10.22-1.87-2.83.7-5.12,3.32-8.03,3.23-2.79-.09-4.84-2.63-7.43-3.67-3.42-1.37-7.39.08-10.28,2.36-2.89,2.28-5.08,5.33-7.77,7.85-2.69,2.52-6.22,4.57-9.87,4.11-2.91-.37-5.38-2.26-8.15-3.26-3.85-1.39-8.33-.91-11.8,1.25-2.21,1.37-3.98,3.41-5.1,5.75v13.54c0,1.1.9,2,2,2h92.27c1.1,0,2-.9,2-2v-35.86c-1.92,1.61-3.91,3.12-6.1,4.32Z"/>
      <path class="cls-21" d="m350.92,140.88c-3.33.94-7.04,2.23-10.08.58-2.86-1.55-4.31-5.37-7.49-6.05-5.14-1.1-8.92,6.98-14.71,3.89-.73-.39-1.38-.94-1.92-1.57-3.21-3.78-2.69-9.16-5.24-13.18-2.48-3.92-7.43-5.68-12.08-5.66-4.64.01-9.13,1.49-13.61,2.71-4.48,1.22-9.2,2.19-13.73,1.18-3.26-.73-6.26-2.45-9.56-2.96-2.18-.34-4.66.1-6.38,1.35v35.04c0,1.1.9,2,2,2h92.27c1.1,0,2-.9,2-2v-15.69c-.5.1-.99.22-1.47.35Z"/>
      <path class="cls-7" d="m469.87,121.17c-3.15,1.79-6.06,4.24-9.62,4.91-7.41,1.4-15.12-5.34-22.08-2.44-6.66,2.77-7.86,12.56-14.35,15.71-4.58,2.22-9.98.3-14.81-1.32-4.83-1.62-10.71-2.73-14.56.62-2.86,2.49-3.89,6.97-7.37,8.46-1.76.75-3.78.53-5.67.24-1.86-.29-3.79-.62-5.6-.14v9.01c0,1.1.9,2,2,2h92.27c1.1,0,2-.9,2-2v-36.09c-.77.3-1.51.66-2.21,1.05Z"/>
    </g>
  </g>
</svg>