<svg width="530" height="195" viewBox="0 0 530 195" fill="none" xmlns="http://www.w3.org/2000/svg">
<g filter="url(#filter0_d_59_28)">
<line x1="345.5" y1="182.007" x2="344.517" y2="112.241" stroke="#DD0EE2"/>
</g>
<g filter="url(#filter1_d_59_28)">
<line x1="487.5" y1="181.999" x2="487.712" y2="110.003" stroke="#DD0EE2"/>
</g>
<g filter="url(#filter2_d_59_28)">
<line x1="345" y1="181.5" x2="488.195" y2="181.5" stroke="#DD0EE2"/>
</g>
<g clip-path="url(#clip0_59_28)">
<g filter="url(#filter3_d_59_28)">
<path d="M322.774 77.966C322.774 80.2058 320.969 82.0218 318.742 82.0218C316.515 82.0218 314.71 80.2058 314.71 77.966C314.71 75.7259 316.515 73.9098 318.742 73.9098C320.969 73.9098 322.774 75.7259 322.774 77.966Z" fill="#4895EF"/>
<path d="M322.774 102.301C322.774 104.542 320.969 106.357 318.742 106.357C316.515 106.357 314.71 104.542 314.71 102.301C314.71 100.061 316.515 98.2456 318.742 98.2456C320.969 98.2456 322.774 100.061 322.774 102.301Z" fill="#4895EF"/>
<path d="M322.774 53.6303C322.774 55.8703 320.969 57.6862 318.742 57.6862C316.515 57.6862 314.71 55.8703 314.71 53.6303C314.71 51.3902 316.515 49.5744 318.742 49.5744C320.969 49.5744 322.774 51.3902 322.774 53.6303Z" fill="#4895EF"/>
<g opacity="0.5">
<path fill-rule="evenodd" clip-rule="evenodd" d="M314.466 92.2354C315.507 92.1641 316.835 92.163 318.742 92.163H375.193C377.099 92.163 378.428 92.1641 379.468 92.2354C380.49 92.3055 381.085 92.4369 381.539 92.6261C383.021 93.2436 384.199 94.428 384.813 95.9185C385.001 96.3755 385.131 96.9742 385.201 98.0023C385.272 99.0485 385.273 100.385 385.273 102.303C385.273 104.22 385.272 105.557 385.201 106.603C385.131 107.631 385.001 108.23 384.813 108.687C384.199 110.177 383.021 111.362 381.539 111.979C381.085 112.169 380.49 112.3 379.468 112.37C378.428 112.441 377.099 112.443 375.193 112.443H318.742C316.835 112.443 315.507 112.441 314.466 112.37C313.444 112.3 312.849 112.169 312.395 111.979C310.913 111.362 309.735 110.177 309.122 108.687C308.933 108.23 308.803 107.631 308.733 106.603C308.662 105.557 308.661 104.22 308.661 102.303C308.661 100.385 308.662 99.0485 308.733 98.0023C308.803 96.9742 308.933 96.3755 309.122 95.9185C309.735 94.428 310.913 93.2436 312.395 92.6261C312.849 92.4369 313.444 92.3055 314.466 92.2354ZM318.742 106.359C320.969 106.359 322.774 104.543 322.774 102.303C322.774 100.063 320.969 98.2467 318.742 98.2467C316.515 98.2467 314.71 100.063 314.71 102.303C314.71 104.543 316.515 106.359 318.742 106.359Z" fill="#4895EF"/>
<path fill-rule="evenodd" clip-rule="evenodd" d="M318.742 63.7714C316.835 63.7714 315.507 63.7703 314.466 63.6989C313.444 63.6288 312.849 63.4976 312.395 63.3083C310.913 62.6908 309.735 61.5065 309.122 60.0157C308.933 59.5587 308.803 58.96 308.733 57.932C308.662 56.8858 308.661 55.5492 308.661 53.6316C308.661 51.714 308.662 50.3774 308.733 49.3312C308.803 48.3032 308.933 47.7046 309.122 47.2475C309.735 45.7567 310.913 44.5724 312.395 43.9549C312.849 43.7656 313.444 43.6344 314.466 43.5643C315.507 43.4929 316.835 43.4918 318.742 43.4918H375.193C377.099 43.4918 378.428 43.4929 379.468 43.5643C380.49 43.6344 381.085 43.7656 381.539 43.9549C383.021 44.5724 384.199 45.7567 384.813 47.2475C385.001 47.7046 385.131 48.3032 385.201 49.3312C385.272 50.3774 385.273 51.714 385.273 53.6316C385.273 55.5492 385.272 56.8858 385.201 57.932C385.131 58.96 385.001 59.5587 384.813 60.0157C384.199 61.5065 383.021 62.6908 381.539 63.3083C381.085 63.4976 380.49 63.6288 379.468 63.6989C378.428 63.7703 377.099 63.7714 375.193 63.7714H318.742ZM318.742 67.8273C316.835 67.8273 315.507 67.8284 314.466 67.8998C313.444 67.9699 312.849 68.1011 312.395 68.2905C310.913 68.9079 309.735 70.0923 309.122 71.5831C308.933 72.0401 308.803 72.6388 308.733 73.6669C308.662 74.7131 308.661 76.0496 308.661 77.9672C308.661 79.8847 308.662 81.2212 308.733 82.2674C308.803 83.2955 308.933 83.8942 309.122 84.3512C309.735 85.8421 310.913 87.0265 312.395 87.644C312.849 87.8332 313.444 87.9642 314.466 88.0343C315.507 88.106 316.835 88.1071 318.742 88.1071H375.193C377.099 88.1071 378.428 88.106 379.468 88.0343C380.49 87.9642 381.085 87.8332 381.539 87.644C383.021 87.0265 384.199 85.8421 384.813 84.3512C385.001 83.8942 385.131 83.2955 385.201 82.2674C385.272 81.2212 385.273 79.8847 385.273 77.9672C385.273 76.0496 385.272 74.7131 385.201 73.6669C385.131 72.6388 385.001 72.0401 384.813 71.5831C384.199 70.0923 383.021 68.9079 381.539 68.2905C381.085 68.1011 380.49 67.9699 379.468 67.8998C378.428 67.8284 377.099 67.8273 375.193 67.8273H318.742ZM322.774 77.9672C322.774 80.2073 320.969 82.023 318.742 82.023C316.515 82.023 314.71 80.2073 314.71 77.9672C314.71 75.727 316.515 73.9113 318.742 73.9113C320.969 73.9113 322.774 75.727 322.774 77.9672ZM318.742 57.6875C320.969 57.6875 322.774 55.8716 322.774 53.6316C322.774 51.3916 320.969 49.5757 318.742 49.5757C316.515 49.5757 314.71 51.3916 314.71 53.6316C314.71 55.8716 316.515 57.6875 318.742 57.6875Z" fill="#4895EF"/>
</g>
</g>
</g>
<g clip-path="url(#clip1_59_28)" filter="url(#filter4_d_59_28)">
<g filter="url(#filter5_d_59_28)">
<path d="M455.973 81.6563V96.2251C456.095 103.873 468.681 110.059 488.212 110.059C507.743 110.059 520.32 103.873 520.451 96.2251V81.6563H455.973Z" fill="#4361EE" stroke="#DD0EE2" stroke-width="0.0015"/>
<path d="M520.451 81.5992C520.451 89.712 507.816 96.2904 488.212 96.2904C468.607 96.2904 455.973 89.712 455.973 81.5992C455.973 73.4863 468.607 66.9079 488.212 66.9079C507.816 66.9079 520.451 73.4782 520.451 81.5992Z" fill="white" fill-opacity="0.75" stroke="#DD0EE2" stroke-width="0.0015"/>
<path d="M455.973 66.9651V79.9015C456.095 87.5491 468.681 94.5519 488.212 94.5519C507.743 94.5519 520.32 87.5491 520.451 79.9015V66.9651H455.973Z" fill="#4361EE" stroke="#DD0EE2" stroke-width="0.0015"/>
<path d="M520.451 66.9079C520.451 75.0208 507.816 81.5991 488.212 81.5991C468.607 81.5991 455.973 75.0208 455.973 66.9079C455.973 58.7951 468.607 52.2167 488.212 52.2167C507.816 52.2167 520.451 58.787 520.451 66.9079Z" fill="white" fill-opacity="0.75" stroke="#DD0EE2" stroke-width="0.0015"/>
<path d="M455.973 52.2739V65.2103C456.095 72.8579 468.681 79.8607 488.212 79.8607C507.743 79.8607 520.32 72.8579 520.451 65.2103V52.2739H455.973Z" fill="#4361EE" stroke="#DD0EE2" stroke-width="0.0015"/>
<path d="M520.451 52.2167C520.451 60.3295 507.816 66.9079 488.212 66.9079C468.607 66.9079 455.973 60.3295 455.973 52.2167C455.973 44.1039 468.607 37.5255 488.212 37.5255C507.816 37.5255 520.451 44.0958 520.451 52.2167Z" fill="#4895EF" stroke="#DD0EE2" stroke-width="0.0015"/>
</g>
</g>
<path d="M75.9615 173.898C75.766 176.633 77.9324 178.959 80.6747 178.959H108.325C111.068 178.959 113.234 176.633 113.039 173.898L108.675 112.809H80.325L75.9615 173.898Z" fill="url(#paint0_linear_59_28)"/>
<path d="M170.1 8.85938H18.9C8.46183 8.85938 0 17.3212 0 27.7594V122.259C0 132.697 8.46183 141.159 18.9 141.159H170.1C180.538 141.159 189 132.697 189 122.259V27.7594C189 17.3212 180.538 8.85938 170.1 8.85938Z" fill="url(#paint1_radial_59_28)"/>
<path d="M0 131.709C0 142.147 8.46183 150.609 18.9 150.609H170.1C180.539 150.609 189 142.147 189 131.709V112.809H0V131.709Z" fill="#4895EF"/>
<path d="M103.95 131.709C103.95 126.49 99.7193 122.259 94.5 122.259C89.2806 122.259 85.05 126.49 85.05 131.709C85.05 136.929 89.2806 141.159 94.5 141.159C99.7193 141.159 103.95 136.929 103.95 131.709Z" fill="#4CC9F0"/>
<rect x="19.7374" y="26.3165" width="151.918" height="75.9589" fill="url(#paint2_linear_59_28)" fill-opacity="0.54"/>
<rect x="19.7374" y="26.3165" width="151.918" height="17.943" fill="url(#paint3_linear_59_28)" fill-opacity="0.34"/>
<path d="M32.6265 33.0869C32.6265 33.4704 32.5573 33.8018 32.4188 34.0812C32.2803 34.3606 32.0903 34.576 31.8488 34.7275C31.6073 34.879 31.3315 34.9548 31.0214 34.9548C30.7113 34.9548 30.4355 34.879 30.194 34.7275C29.9525 34.576 29.7625 34.3606 29.624 34.0812C29.4855 33.8018 29.4163 33.4704 29.4163 33.0869C29.4163 32.7034 29.4855 32.3719 29.624 32.0926C29.7625 31.8132 29.9525 31.5978 30.194 31.4463C30.4355 31.2947 30.7113 31.219 31.0214 31.219C31.3315 31.219 31.6073 31.2947 31.8488 31.4463C32.0903 31.5978 32.2803 31.8132 32.4188 32.0926C32.5573 32.3719 32.6265 32.7034 32.6265 33.0869ZM32.2004 33.0869C32.2004 32.772 32.1477 32.5063 32.0424 32.2896C31.9382 32.073 31.7967 31.9091 31.618 31.7978C31.4404 31.6865 31.2416 31.6309 31.0214 31.6309C30.8012 31.6309 30.6018 31.6865 30.423 31.7978C30.2455 31.9091 30.104 32.073 29.9987 32.2896C29.8945 32.5063 29.8424 32.772 29.8424 33.0869C29.8424 33.4017 29.8945 33.6675 29.9987 33.8841C30.104 34.1007 30.2455 34.2647 30.423 34.3759C30.6018 34.4872 30.8012 34.5428 31.0214 34.5428C31.2416 34.5428 31.4404 34.4872 31.618 34.3759C31.7967 34.2647 31.9382 34.1007 32.0424 33.8841C32.1477 33.6675 32.2004 33.4017 32.2004 33.0869ZM34.4181 34.9619C34.1624 34.9619 33.9422 34.9015 33.7576 34.7808C33.5729 34.66 33.4309 34.4937 33.3314 34.2818C33.232 34.07 33.1823 33.8279 33.1823 33.5556C33.1823 33.2786 33.2332 33.0342 33.335 32.8223C33.438 32.6093 33.5812 32.4429 33.7647 32.3234C33.9493 32.2026 34.1648 32.1423 34.411 32.1423C34.6027 32.1423 34.7756 32.1778 34.9294 32.2488C35.0833 32.3198 35.2094 32.4193 35.3076 32.5471C35.4059 32.6749 35.4668 32.8241 35.4905 32.9945H35.0715C35.0395 32.8703 34.9685 32.7602 34.8584 32.6643C34.7495 32.5672 34.6027 32.5187 34.4181 32.5187C34.2547 32.5187 34.1115 32.5613 33.9884 32.6465C33.8665 32.7306 33.7712 32.8495 33.7025 33.0034C33.635 33.1561 33.6013 33.3355 33.6013 33.5414C33.6013 33.7521 33.6345 33.9356 33.7007 34.0918C33.7682 34.2481 33.8629 34.3694 33.9848 34.4558C34.1079 34.5423 34.2524 34.5855 34.4181 34.5855C34.527 34.5855 34.6258 34.5665 34.7146 34.5286C34.8034 34.4908 34.8785 34.4363 34.9401 34.3653C35.0016 34.2943 35.0454 34.209 35.0715 34.1096H35.4905C35.4668 34.2706 35.4082 34.4156 35.3147 34.5446C35.2224 34.6725 35.0999 34.7743 34.9472 34.85C34.7957 34.9246 34.6193 34.9619 34.4181 34.9619ZM37.2892 32.1778V32.5329H35.8758V32.1778H37.2892ZM36.2877 31.5244H36.7068V34.1238C36.7068 34.2422 36.7239 34.331 36.7583 34.3901C36.7938 34.4481 36.8388 34.4872 36.8932 34.5073C36.9488 34.5263 37.0074 34.5357 37.069 34.5357C37.1152 34.5357 37.153 34.5334 37.1826 34.5286C37.2122 34.5227 37.2359 34.518 37.2537 34.5144L37.3389 34.8909C37.3105 34.9015 37.2708 34.9122 37.2199 34.9228C37.169 34.9347 37.1045 34.9406 37.0264 34.9406C36.908 34.9406 36.792 34.9151 36.6784 34.8642C36.5659 34.8133 36.4724 34.7358 36.3978 34.6316C36.3244 34.5275 36.2877 34.3961 36.2877 34.2374V31.5244ZM38.7221 34.969C38.5492 34.969 38.3924 34.9364 38.2515 34.8713C38.1107 34.805 37.9988 34.7097 37.9159 34.5855C37.8331 34.46 37.7917 34.3085 37.7917 34.1309C37.7917 33.9747 37.8224 33.848 37.884 33.7509C37.9455 33.6527 38.0278 33.5758 38.1308 33.5201C38.2338 33.4645 38.3474 33.4231 38.4717 33.3958C38.5972 33.3674 38.7232 33.3449 38.8499 33.3284C39.0156 33.307 39.15 33.2911 39.2529 33.2804C39.3571 33.2686 39.4329 33.249 39.4802 33.2218C39.5288 33.1946 39.553 33.1472 39.553 33.0798V33.0656C39.553 32.8904 39.5051 32.7543 39.4092 32.6572C39.3145 32.5601 39.1707 32.5116 38.9777 32.5116C38.7777 32.5116 38.6208 32.5554 38.5072 32.643C38.3936 32.7306 38.3137 32.8241 38.2675 32.9235L37.8698 32.7815C37.9408 32.6158 38.0355 32.4867 38.1539 32.3944C38.2734 32.3009 38.4036 32.2358 38.5445 32.1991C38.6865 32.1612 38.8262 32.1423 38.9635 32.1423C39.0511 32.1423 39.1517 32.1529 39.2654 32.1742C39.3802 32.1944 39.4909 32.2364 39.5974 32.3003C39.7051 32.3642 39.7945 32.4607 39.8655 32.5897C39.9365 32.7187 39.9721 32.8916 39.9721 33.1082V34.9051H39.553V34.5357H39.5317C39.5033 34.5949 39.456 34.6583 39.3897 34.7257C39.3234 34.7932 39.2352 34.8506 39.1251 34.898C39.015 34.9453 38.8807 34.969 38.7221 34.969ZM38.786 34.5926C38.9517 34.5926 39.0914 34.56 39.205 34.4949C39.3198 34.4298 39.4062 34.3458 39.4642 34.2428C39.5234 34.1398 39.553 34.0315 39.553 33.9178V33.5343C39.5353 33.5556 39.4962 33.5752 39.4358 33.5929C39.3766 33.6095 39.308 33.6243 39.2299 33.6373C39.1529 33.6491 39.0778 33.6598 39.0044 33.6693C38.9322 33.6776 38.8736 33.6847 38.8286 33.6906C38.7197 33.7048 38.6179 33.7279 38.5232 33.7598C38.4297 33.7906 38.3539 33.8374 38.2959 33.9001C38.2391 33.9616 38.2107 34.0457 38.2107 34.1522C38.2107 34.2978 38.2645 34.4079 38.3723 34.4825C38.4812 34.5559 38.6191 34.5926 38.786 34.5926ZM45.1261 32.4051H44.6857C44.6597 32.2784 44.6141 32.1671 44.549 32.0713C44.4851 31.9754 44.407 31.8949 44.3146 31.8298C44.2235 31.7635 44.1223 31.7138 44.011 31.6806C43.8998 31.6475 43.7838 31.6309 43.663 31.6309C43.4428 31.6309 43.2434 31.6865 43.0646 31.7978C42.8871 31.9091 42.7456 32.073 42.6403 32.2896C42.5361 32.5063 42.484 32.772 42.484 33.0869C42.484 33.4017 42.5361 33.6675 42.6403 33.8841C42.7456 34.1007 42.8871 34.2647 43.0646 34.3759C43.2434 34.4872 43.4428 34.5428 43.663 34.5428C43.7838 34.5428 43.8998 34.5263 44.011 34.4931C44.1223 34.46 44.2235 34.4109 44.3146 34.3458C44.407 34.2795 44.4851 34.1984 44.549 34.1025C44.6141 34.0054 44.6597 33.8942 44.6857 33.7687H45.1261C45.0929 33.9545 45.0326 34.1209 44.945 34.2676C44.8574 34.4144 44.7485 34.5393 44.6183 34.6423C44.4881 34.7441 44.3419 34.8216 44.1797 34.8749C44.0187 34.9281 43.8465 34.9548 43.663 34.9548C43.3529 34.9548 43.0771 34.879 42.8356 34.7275C42.5941 34.576 42.4041 34.3606 42.2656 34.0812C42.1271 33.8018 42.0579 33.4704 42.0579 33.0869C42.0579 32.7034 42.1271 32.3719 42.2656 32.0926C42.4041 31.8132 42.5941 31.5978 42.8356 31.4463C43.0771 31.2947 43.3529 31.219 43.663 31.219C43.8465 31.219 44.0187 31.2456 44.1797 31.2989C44.3419 31.3521 44.4881 31.4303 44.6183 31.5333C44.7485 31.6351 44.8574 31.7593 44.945 31.9061C45.0326 32.0517 45.0929 32.218 45.1261 32.4051ZM46.8888 34.9619C46.6426 34.9619 46.4265 34.9033 46.2407 34.7861C46.056 34.6689 45.9116 34.505 45.8075 34.2943C45.7045 34.0836 45.653 33.8374 45.653 33.5556C45.653 33.2715 45.7045 33.0235 45.8075 32.8117C45.9116 32.5998 46.056 32.4352 46.2407 32.3181C46.4265 32.2009 46.6426 32.1423 46.8888 32.1423C47.135 32.1423 47.3504 32.2009 47.5351 32.3181C47.7209 32.4352 47.8653 32.5998 47.9683 32.8117C48.0725 33.0235 48.1246 33.2715 48.1246 33.5556C48.1246 33.8374 48.0725 34.0836 47.9683 34.2943C47.8653 34.505 47.7209 34.6689 47.5351 34.7861C47.3504 34.9033 47.135 34.9619 46.8888 34.9619ZM46.8888 34.5855C47.0758 34.5855 47.2297 34.5375 47.3504 34.4416C47.4712 34.3458 47.5605 34.2197 47.6185 34.0634C47.6765 33.9072 47.7055 33.7379 47.7055 33.5556C47.7055 33.3733 47.6765 33.2035 47.6185 33.046C47.5605 32.8886 47.4712 32.7614 47.3504 32.6643C47.2297 32.5672 47.0758 32.5187 46.8888 32.5187C46.7017 32.5187 46.5479 32.5672 46.4271 32.6643C46.3064 32.7614 46.217 32.8886 46.159 33.046C46.101 33.2035 46.072 33.3733 46.072 33.5556C46.072 33.7379 46.101 33.9072 46.159 34.0634C46.217 34.2197 46.3064 34.3458 46.4271 34.4416C46.5479 34.5375 46.7017 34.5855 46.8888 34.5855ZM49.794 34.9619C49.5668 34.9619 49.3661 34.9045 49.1921 34.7896C49.0181 34.6736 48.882 34.5103 48.7838 34.2996C48.6855 34.0877 48.6364 33.8374 48.6364 33.5485C48.6364 33.2621 48.6855 33.0135 48.7838 32.8028C48.882 32.5921 49.0187 32.4293 49.1939 32.3145C49.3691 32.1997 49.5715 32.1423 49.8012 32.1423C49.9787 32.1423 50.119 32.1719 50.222 32.2311C50.3261 32.2891 50.4054 32.3553 50.4599 32.4299C50.5155 32.5033 50.5587 32.5637 50.5895 32.611H50.625V31.2687H51.044V34.9051H50.6392V34.486H50.5895C50.5587 34.5357 50.5149 34.5985 50.4581 34.6742C50.4013 34.7488 50.3202 34.8157 50.2149 34.8749C50.1095 34.9329 49.9692 34.9619 49.794 34.9619ZM49.8509 34.5855C50.019 34.5855 50.161 34.5417 50.277 34.4541C50.393 34.3653 50.4812 34.2428 50.5416 34.0865C50.6019 33.9291 50.6321 33.7474 50.6321 33.5414C50.6321 33.3378 50.6025 33.1597 50.5433 33.007C50.4842 32.8531 50.3966 32.7335 50.2806 32.6483C50.1646 32.5619 50.0213 32.5187 49.8509 32.5187C49.6733 32.5187 49.5253 32.5643 49.407 32.6554C49.2898 32.7454 49.2016 32.8679 49.1424 33.023C49.0844 33.1768 49.0554 33.3497 49.0554 33.5414C49.0554 33.7356 49.085 33.9119 49.1442 34.0705C49.2046 34.228 49.2933 34.3534 49.4105 34.447C49.5289 34.5393 49.6757 34.5855 49.8509 34.5855ZM53.0132 34.9619C52.7504 34.9619 52.5237 34.9039 52.3331 34.7879C52.1437 34.6707 51.9975 34.5073 51.8945 34.2978C51.7927 34.0871 51.7418 33.8421 51.7418 33.5627C51.7418 33.2834 51.7927 33.0372 51.8945 32.8241C51.9975 32.6098 52.1408 32.4429 52.3242 32.3234C52.5089 32.2026 52.7243 32.1423 52.9705 32.1423C53.1126 32.1423 53.2529 32.1659 53.3914 32.2133C53.5298 32.2606 53.6559 32.3376 53.7695 32.4441C53.8832 32.5495 53.9737 32.6892 54.0412 32.8632C54.1087 33.0372 54.1424 33.2514 54.1424 33.5059V33.6835H52.0401V33.3213H53.7163C53.7163 33.1674 53.6855 33.0301 53.624 32.9093C53.5636 32.7886 53.4772 32.6933 53.3647 32.6235C53.2534 32.5536 53.1221 32.5187 52.9705 32.5187C52.8036 32.5187 52.6592 32.5601 52.5373 32.643C52.4166 32.7247 52.3236 32.8312 52.2585 32.9626C52.1934 33.094 52.1609 33.2348 52.1609 33.3852V33.6267C52.1609 33.8326 52.1964 34.0072 52.2674 34.1504C52.3396 34.2925 52.4396 34.4008 52.5675 34.4754C52.6953 34.5488 52.8439 34.5855 53.0132 34.5855C53.1232 34.5855 53.2227 34.5701 53.3115 34.5393C53.4014 34.5073 53.4789 34.46 53.544 34.3972C53.6092 34.3333 53.6595 34.254 53.695 34.1593L54.0998 34.273C54.0572 34.4103 53.9856 34.531 53.885 34.6352C53.7843 34.7382 53.6601 34.8186 53.5121 34.8767C53.3641 34.9335 53.1978 34.9619 53.0132 34.9619ZM56.7117 32.7886L56.3352 32.8951C56.3116 32.8324 56.2767 32.7714 56.2305 32.7122C56.1855 32.6519 56.124 32.6021 56.0458 32.5631C55.9677 32.524 55.8677 32.5045 55.7458 32.5045C55.5789 32.5045 55.4398 32.543 55.3285 32.6199C55.2184 32.6957 55.1634 32.7921 55.1634 32.9093C55.1634 33.0135 55.2012 33.0958 55.277 33.1561C55.3528 33.2165 55.4711 33.2668 55.6321 33.307L56.0369 33.4065C56.2808 33.4657 56.4625 33.5562 56.582 33.6781C56.7016 33.7989 56.7614 33.9545 56.7614 34.1451C56.7614 34.3014 56.7164 34.441 56.6264 34.5642C56.5377 34.6873 56.4134 34.7843 56.2536 34.8553C56.0938 34.9264 55.9079 34.9619 55.696 34.9619C55.4179 34.9619 55.1876 34.9015 55.0053 34.7808C54.8231 34.66 54.7076 34.4837 54.6591 34.2517L55.0568 34.1522C55.0947 34.299 55.1663 34.4091 55.2717 34.4825C55.3782 34.5559 55.5173 34.5926 55.6889 34.5926C55.8843 34.5926 56.0393 34.5511 56.1541 34.4683C56.2701 34.3842 56.3281 34.2836 56.3281 34.1664C56.3281 34.0717 56.295 33.9924 56.2287 33.9285C56.1624 33.8634 56.0606 33.8149 55.9233 33.7829L55.4688 33.6764C55.219 33.6172 55.0355 33.5254 54.9183 33.4012C54.8023 33.2757 54.7443 33.1188 54.7443 32.9306C54.7443 32.7767 54.7875 32.6406 54.874 32.5222C54.9615 32.4039 55.0805 32.311 55.2308 32.2435C55.3824 32.176 55.554 32.1423 55.7458 32.1423C56.0156 32.1423 56.2275 32.2015 56.3814 32.3198C56.5365 32.4382 56.6466 32.5945 56.7117 32.7886Z" fill="white"/>
<path d="M101.019 36.5032V32.1395H101.547V34.0827H103.874V32.1395H104.402V36.5032H103.874V34.5515H101.547V36.5032H101.019ZM106.721 36.5713C106.426 36.5713 106.167 36.501 105.944 36.3604C105.722 36.2198 105.549 36.023 105.424 35.7702C105.3 35.5174 105.238 35.2219 105.238 34.8838C105.238 34.5429 105.3 34.2453 105.424 33.9911C105.549 33.7368 105.722 33.5394 105.944 33.3988C106.167 33.2581 106.426 33.1878 106.721 33.1878C107.017 33.1878 107.275 33.2581 107.497 33.3988C107.72 33.5394 107.893 33.7368 108.017 33.9911C108.142 34.2453 108.204 34.5429 108.204 34.8838C108.204 35.2219 108.142 35.5174 108.017 35.7702C107.893 36.023 107.72 36.2198 107.497 36.3604C107.275 36.501 107.017 36.5713 106.721 36.5713ZM106.721 36.1196C106.946 36.1196 107.13 36.0621 107.275 35.9471C107.42 35.832 107.527 35.6807 107.597 35.4932C107.667 35.3057 107.701 35.1026 107.701 34.8838C107.701 34.6651 107.667 34.4613 107.597 34.2723C107.527 34.0834 107.42 33.9307 107.275 33.8142C107.13 33.6978 106.946 33.6395 106.721 33.6395C106.497 33.6395 106.312 33.6978 106.167 33.8142C106.022 33.9307 105.915 34.0834 105.846 34.2723C105.776 34.4613 105.741 34.6651 105.741 34.8838C105.741 35.1026 105.776 35.3057 105.846 35.4932C105.915 35.6807 106.022 35.832 106.167 35.9471C106.312 36.0621 106.497 36.1196 106.721 36.1196ZM108.972 36.5032V33.2304H109.458V33.7418H109.5C109.568 33.5671 109.679 33.4314 109.831 33.3348C109.983 33.2368 110.165 33.1878 110.378 33.1878C110.594 33.1878 110.774 33.2368 110.917 33.3348C111.062 33.4314 111.175 33.5671 111.256 33.7418H111.29C111.374 33.5728 111.5 33.4385 111.667 33.3391C111.835 33.2382 112.036 33.1878 112.27 33.1878C112.563 33.1878 112.802 33.2794 112.988 33.4627C113.174 33.6445 113.267 33.9279 113.267 34.3128V36.5032H112.765V34.3128C112.765 34.0713 112.698 33.8988 112.566 33.7951C112.434 33.6914 112.279 33.6395 112.1 33.6395C111.87 33.6395 111.691 33.7091 111.565 33.8483C111.439 33.9861 111.375 34.1608 111.375 34.3725V36.5032H110.864V34.2617C110.864 34.0756 110.804 33.9257 110.683 33.8121C110.562 33.6971 110.407 33.6395 110.216 33.6395C110.086 33.6395 109.963 33.6743 109.85 33.7439C109.738 33.8135 109.647 33.9101 109.577 34.0337C109.509 34.1559 109.475 34.2972 109.475 34.4577V36.5032H108.972ZM115.559 36.5713C115.244 36.5713 114.972 36.5017 114.743 36.3625C114.516 36.2219 114.34 36.0259 114.217 35.7745C114.094 35.5216 114.033 35.2276 114.033 34.8924C114.033 34.5571 114.094 34.2617 114.217 34.006C114.34 33.7489 114.512 33.5486 114.732 33.4051C114.954 33.2603 115.212 33.1878 115.508 33.1878C115.678 33.1878 115.847 33.2162 116.013 33.273C116.179 33.3299 116.33 33.4222 116.467 33.55C116.603 33.6765 116.712 33.8441 116.793 34.0529C116.874 34.2617 116.914 34.5188 116.914 34.8242V35.0372H114.391V34.6026H116.403C116.403 34.4179 116.366 34.2532 116.292 34.1083C116.219 33.9634 116.116 33.849 115.981 33.7652C115.847 33.6814 115.69 33.6395 115.508 33.6395C115.307 33.6395 115.134 33.6892 114.988 33.7887C114.843 33.8867 114.731 34.0145 114.653 34.1722C114.575 34.3299 114.536 34.4989 114.536 34.6793V34.9691C114.536 35.2162 114.579 35.4257 114.664 35.5976C114.751 35.7681 114.871 35.898 115.024 35.9875C115.178 36.0756 115.356 36.1196 115.559 36.1196C115.691 36.1196 115.81 36.1012 115.917 36.0642C116.025 36.0259 116.118 35.9691 116.196 35.8938C116.274 35.8171 116.334 35.7219 116.377 35.6083L116.863 35.7446C116.812 35.9094 116.726 36.0543 116.605 36.1793C116.484 36.3029 116.335 36.3995 116.158 36.4691C115.98 36.5372 115.78 36.5713 115.559 36.5713Z" fill="white"/>
<path d="M121.085 36.5032H120.531L122.133 32.1395H122.678L124.281 36.5032H123.727L122.423 32.8299H122.389L121.085 36.5032ZM121.289 34.7986H123.522V35.2674H121.289V34.7986ZM124.96 36.5032V32.1395H125.463V33.7503H125.506C125.543 33.6935 125.594 33.6211 125.659 33.533C125.726 33.4435 125.821 33.364 125.945 33.2944C126.07 33.2233 126.239 33.1878 126.452 33.1878C126.727 33.1878 126.97 33.2567 127.18 33.3945C127.391 33.5323 127.555 33.7276 127.673 33.9804C127.791 34.2333 127.849 34.5316 127.849 34.8753C127.849 35.2219 127.791 35.5223 127.673 35.7766C127.555 36.0294 127.391 36.2255 127.183 36.3647C126.974 36.5024 126.733 36.5713 126.46 36.5713C126.25 36.5713 126.082 36.5365 125.955 36.4669C125.829 36.3959 125.732 36.3157 125.663 36.2262C125.595 36.1353 125.543 36.06 125.506 36.0003H125.446V36.5032H124.96ZM125.455 34.8668C125.455 35.114 125.491 35.332 125.563 35.5209C125.636 35.7084 125.742 35.8554 125.881 35.962C126.02 36.0671 126.19 36.1196 126.392 36.1196C126.602 36.1196 126.778 36.0642 126.918 35.9534C127.06 35.8412 127.167 35.6907 127.238 35.5017C127.31 35.3114 127.347 35.0997 127.347 34.8668C127.347 34.6367 127.311 34.4293 127.24 34.2446C127.171 34.0586 127.065 33.9115 126.923 33.8036C126.782 33.6942 126.605 33.6395 126.392 33.6395C126.188 33.6395 126.016 33.6914 125.876 33.7951C125.737 33.8973 125.632 34.0408 125.561 34.2255C125.49 34.4087 125.455 34.6225 125.455 34.8668ZM129.948 36.5713C129.653 36.5713 129.394 36.501 129.171 36.3604C128.949 36.2198 128.776 36.023 128.651 35.7702C128.527 35.5174 128.465 35.2219 128.465 34.8838C128.465 34.5429 128.527 34.2453 128.651 33.9911C128.776 33.7368 128.949 33.5394 129.171 33.3988C129.394 33.2581 129.653 33.1878 129.948 33.1878C130.244 33.1878 130.502 33.2581 130.724 33.3988C130.947 33.5394 131.12 33.7368 131.244 33.9911C131.369 34.2453 131.431 34.5429 131.431 34.8838C131.431 35.2219 131.369 35.5174 131.244 35.7702C131.12 36.023 130.947 36.2198 130.724 36.3604C130.502 36.501 130.244 36.5713 129.948 36.5713ZM129.948 36.1196C130.173 36.1196 130.357 36.0621 130.502 35.9471C130.647 35.832 130.754 35.6807 130.824 35.4932C130.894 35.3057 130.928 35.1026 130.928 34.8838C130.928 34.6651 130.894 34.4613 130.824 34.2723C130.754 34.0834 130.647 33.9307 130.502 33.8142C130.357 33.6978 130.173 33.6395 129.948 33.6395C129.724 33.6395 129.539 33.6978 129.394 33.8142C129.249 33.9307 129.142 34.0834 129.072 34.2723C129.003 34.4613 128.968 34.6651 128.968 34.8838C128.968 35.1026 129.003 35.3057 129.072 35.4932C129.142 35.6807 129.249 35.832 129.394 35.9471C129.539 36.0621 129.724 36.1196 129.948 36.1196ZM134.261 35.1651V33.2304H134.764V36.5032H134.261V35.9492H134.227C134.15 36.1154 134.031 36.2567 133.869 36.3732C133.707 36.4882 133.503 36.5458 133.256 36.5458C133.051 36.5458 132.869 36.501 132.71 36.4115C132.551 36.3206 132.426 36.1843 132.335 36.0024C132.244 35.8192 132.199 35.5884 132.199 35.31V33.2304H132.702V35.2759C132.702 35.5145 132.768 35.7049 132.902 35.8469C133.037 35.989 133.209 36.06 133.417 36.06C133.542 36.06 133.67 36.028 133.799 35.9641C133.93 35.9002 134.039 35.8022 134.127 35.6701C134.216 35.538 134.261 35.3696 134.261 35.1651ZM137.108 33.2304V33.6566H135.412V33.2304H137.108ZM135.907 32.4463H136.409V35.5657C136.409 35.7077 136.43 35.8142 136.471 35.8853C136.514 35.9549 136.568 36.0017 136.633 36.0259C136.7 36.0486 136.77 36.06 136.844 36.06C136.9 36.06 136.945 36.0571 136.981 36.0515C137.016 36.0444 137.044 36.0387 137.066 36.0344L137.168 36.4861C137.134 36.4989 137.086 36.5117 137.025 36.5245C136.964 36.5387 136.887 36.5458 136.793 36.5458C136.651 36.5458 136.512 36.5152 136.375 36.4542C136.24 36.3931 136.128 36.3 136.039 36.175C135.951 36.05 135.907 35.8924 135.907 35.702V32.4463Z" fill="white"/>
<path d="M144.73 33.2304C144.704 33.0145 144.6 32.8469 144.418 32.7276C144.237 32.6083 144.014 32.5486 143.749 32.5486C143.556 32.5486 143.387 32.5799 143.242 32.6424C143.099 32.7049 142.987 32.7908 142.906 32.9002C142.826 33.0096 142.786 33.1338 142.786 33.273C142.786 33.3895 142.814 33.4897 142.869 33.5735C142.926 33.6559 142.999 33.7247 143.087 33.7801C143.175 33.8341 143.267 33.8789 143.364 33.9144C143.46 33.9485 143.549 33.9762 143.63 33.9975L144.073 34.1168C144.187 34.1466 144.313 34.1878 144.453 34.2404C144.593 34.2929 144.727 34.3647 144.855 34.4556C144.985 34.5451 145.091 34.6601 145.175 34.8007C145.259 34.9414 145.301 35.114 145.301 35.3185C145.301 35.5543 145.239 35.7674 145.115 35.9577C144.993 36.148 144.814 36.2993 144.578 36.4115C144.344 36.5238 144.059 36.5799 143.724 36.5799C143.411 36.5799 143.141 36.5294 142.912 36.4286C142.685 36.3277 142.506 36.1871 142.375 36.0067C142.246 35.8263 142.173 35.6168 142.156 35.3782H142.701C142.715 35.5429 142.771 35.6793 142.867 35.7872C142.965 35.8938 143.089 35.9733 143.238 36.0259C143.389 36.077 143.551 36.1026 143.724 36.1026C143.926 36.1026 144.107 36.0699 144.267 36.0046C144.428 35.9378 144.555 35.8455 144.649 35.7276C144.742 35.6083 144.789 35.4691 144.789 35.31C144.789 35.1651 144.749 35.0472 144.668 34.9563C144.587 34.8654 144.48 34.7915 144.348 34.7347C144.216 34.6779 144.073 34.6282 143.92 34.5855L143.383 34.4321C143.042 34.3341 142.772 34.1942 142.573 34.0124C142.374 33.8306 142.275 33.5926 142.275 33.2986C142.275 33.0543 142.341 32.8412 142.473 32.6594C142.607 32.4762 142.786 32.3341 143.01 32.2333C143.236 32.131 143.488 32.0799 143.766 32.0799C144.048 32.0799 144.298 32.1303 144.516 32.2311C144.735 32.3306 144.909 32.4669 145.036 32.6402C145.166 32.8135 145.234 33.0103 145.241 33.2304H144.73ZM147.473 36.5713C147.158 36.5713 146.886 36.5017 146.657 36.3625C146.43 36.2219 146.255 36.0259 146.131 35.7745C146.009 35.5216 145.948 35.2276 145.948 34.8924C145.948 34.5571 146.009 34.2617 146.131 34.006C146.255 33.7489 146.426 33.5486 146.647 33.4051C146.868 33.2603 147.127 33.1878 147.422 33.1878C147.593 33.1878 147.761 33.2162 147.927 33.273C148.093 33.3299 148.245 33.4222 148.381 33.55C148.517 33.6765 148.626 33.8441 148.707 34.0529C148.788 34.2617 148.828 34.5188 148.828 34.8242V35.0372H146.306V34.6026H148.317C148.317 34.4179 148.28 34.2532 148.206 34.1083C148.134 33.9634 148.03 33.849 147.895 33.7652C147.762 33.6814 147.604 33.6395 147.422 33.6395C147.222 33.6395 147.049 33.6892 146.902 33.7887C146.757 33.8867 146.646 34.0145 146.568 34.1722C146.49 34.3299 146.451 34.4989 146.451 34.6793V34.9691C146.451 35.2162 146.493 35.4257 146.578 35.5976C146.665 35.7681 146.785 35.898 146.939 35.9875C147.092 36.0756 147.27 36.1196 147.473 36.1196C147.605 36.1196 147.725 36.1012 147.831 36.0642C147.939 36.0259 148.032 35.9691 148.11 35.8938C148.189 35.8171 148.249 35.7219 148.292 35.6083L148.777 35.7446C148.726 35.9094 148.64 36.0543 148.52 36.1793C148.399 36.3029 148.25 36.3995 148.072 36.4691C147.895 36.5372 147.695 36.5713 147.473 36.5713ZM149.593 36.5032V33.2304H150.079V33.7247H150.113C150.173 33.5628 150.281 33.4314 150.437 33.3306C150.593 33.2297 150.77 33.1793 150.966 33.1793C151.002 33.1793 151.049 33.18 151.104 33.1814C151.159 33.1828 151.201 33.185 151.23 33.1878V33.6992C151.213 33.6949 151.174 33.6885 151.113 33.68C151.053 33.6701 150.99 33.6651 150.923 33.6651C150.764 33.6651 150.622 33.6985 150.497 33.7652C150.373 33.8306 150.275 33.9215 150.203 34.038C150.132 34.153 150.096 34.2844 150.096 34.4321V36.5032H149.593ZM154.602 33.2304L153.391 36.5032H152.88L151.67 33.2304H152.215L153.119 35.8384H153.153L154.056 33.2304H154.602ZM155.265 36.5032V33.2304H155.768V36.5032H155.265ZM155.521 32.685C155.423 32.685 155.338 32.6516 155.267 32.5848C155.198 32.5181 155.163 32.4378 155.163 32.3441C155.163 32.2503 155.198 32.1701 155.267 32.1033C155.338 32.0365 155.423 32.0032 155.521 32.0032C155.619 32.0032 155.703 32.0365 155.772 32.1033C155.843 32.1701 155.879 32.2503 155.879 32.3441C155.879 32.4378 155.843 32.5181 155.772 32.5848C155.703 32.6516 155.619 32.685 155.521 32.685ZM158.019 36.5713C157.712 36.5713 157.448 36.4989 157.226 36.354C157.004 36.2091 156.834 36.0096 156.715 35.7553C156.595 35.501 156.536 35.2105 156.536 34.8838C156.536 34.5515 156.597 34.2581 156.719 34.0039C156.842 33.7482 157.014 33.5486 157.235 33.4051C157.456 33.2603 157.715 33.1878 158.01 33.1878C158.24 33.1878 158.448 33.2304 158.632 33.3157C158.817 33.4009 158.968 33.5202 159.086 33.6736C159.204 33.827 159.277 34.006 159.306 34.2105H158.803C158.764 34.0614 158.679 33.9293 158.547 33.8142C158.416 33.6978 158.24 33.6395 158.019 33.6395C157.823 33.6395 157.651 33.6907 157.503 33.7929C157.357 33.8938 157.242 34.0365 157.16 34.2212C157.079 34.4044 157.039 34.6196 157.039 34.8668C157.039 35.1196 157.078 35.3398 157.158 35.5273C157.239 35.7148 157.352 35.8604 157.499 35.9641C157.646 36.0678 157.82 36.1196 158.019 36.1196C158.149 36.1196 158.268 36.0969 158.374 36.0515C158.481 36.006 158.571 35.9407 158.645 35.8554C158.719 35.7702 158.771 35.6679 158.803 35.5486H159.306C159.277 35.7418 159.207 35.9158 159.095 36.0706C158.984 36.224 158.837 36.3462 158.654 36.4371C158.472 36.5266 158.26 36.5713 158.019 36.5713ZM161.413 36.5713C161.097 36.5713 160.825 36.5017 160.597 36.3625C160.369 36.2219 160.194 36.0259 160.07 35.7745C159.948 35.5216 159.887 35.2276 159.887 34.8924C159.887 34.5571 159.948 34.2617 160.07 34.006C160.194 33.7489 160.366 33.5486 160.586 33.4051C160.808 33.2603 161.066 33.1878 161.362 33.1878C161.532 33.1878 161.7 33.2162 161.867 33.273C162.033 33.3299 162.184 33.4222 162.32 33.55C162.457 33.6765 162.565 33.8441 162.646 34.0529C162.727 34.2617 162.768 34.5188 162.768 34.8242V35.0372H160.245V34.6026H162.257C162.257 34.4179 162.22 34.2532 162.146 34.1083C162.073 33.9634 161.97 33.849 161.835 33.7652C161.701 33.6814 161.543 33.6395 161.362 33.6395C161.161 33.6395 160.988 33.6892 160.842 33.7887C160.697 33.8867 160.585 34.0145 160.507 34.1722C160.429 34.3299 160.39 34.4989 160.39 34.6793V34.9691C160.39 35.2162 160.433 35.4257 160.518 35.5976C160.605 35.7681 160.725 35.898 160.878 35.9875C161.031 36.0756 161.21 36.1196 161.413 36.1196C161.545 36.1196 161.664 36.1012 161.771 36.0642C161.879 36.0259 161.972 35.9691 162.05 35.8938C162.128 35.8171 162.188 35.7219 162.231 35.6083L162.717 35.7446C162.666 35.9094 162.58 36.0543 162.459 36.1793C162.338 36.3029 162.189 36.3995 162.012 36.4691C161.834 36.5372 161.634 36.5713 161.413 36.5713ZM165.851 33.9634L165.399 34.0912C165.371 34.0159 165.329 33.9428 165.274 33.8718C165.22 33.7993 165.146 33.7397 165.052 33.6928C164.958 33.6459 164.838 33.6225 164.692 33.6225C164.492 33.6225 164.325 33.6686 164.191 33.761C164.059 33.8519 163.993 33.9676 163.993 34.1083C163.993 34.2333 164.039 34.332 164.129 34.4044C164.22 34.4769 164.362 34.5372 164.556 34.5855L165.041 34.7049C165.334 34.7759 165.552 34.8846 165.695 35.0309C165.839 35.1757 165.911 35.3625 165.911 35.5912C165.911 35.7787 165.857 35.9463 165.749 36.0941C165.642 36.2418 165.493 36.3583 165.301 36.4435C165.11 36.5287 164.887 36.5713 164.632 36.5713C164.298 36.5713 164.022 36.4989 163.803 36.354C163.585 36.2091 163.446 35.9975 163.388 35.7191L163.865 35.5997C163.911 35.7759 163.997 35.908 164.123 35.9961C164.251 36.0841 164.418 36.1282 164.624 36.1282C164.858 36.1282 165.044 36.0784 165.182 35.979C165.321 35.8782 165.391 35.7574 165.391 35.6168C165.391 35.5032 165.351 35.408 165.271 35.3313C165.192 35.2532 165.07 35.1949 164.905 35.1566L164.36 35.0287C164.06 34.9577 163.84 34.8476 163.699 34.6985C163.56 34.5479 163.49 34.3597 163.49 34.1338C163.49 33.9492 163.542 33.7858 163.646 33.6438C163.751 33.5017 163.894 33.3902 164.074 33.3093C164.256 33.2283 164.462 33.1878 164.692 33.1878C165.016 33.1878 165.27 33.2588 165.455 33.4009C165.641 33.5429 165.773 33.7304 165.851 33.9634Z" fill="white"/>
<path d="M27.2668 60.2215V57.3124H28.2498C28.478 57.3124 28.6646 57.3536 28.8094 57.436C28.9553 57.5175 29.0632 57.6278 29.1333 57.767C29.2034 57.9062 29.2384 58.0615 29.2384 58.2329C29.2384 58.4043 29.2034 58.5601 29.1333 58.7002C29.0642 58.8404 28.9572 58.9521 28.8123 59.0354C28.6674 59.1178 28.4818 59.159 28.2555 59.159H27.5509V58.8465H28.2441C28.4003 58.8465 28.5258 58.8195 28.6205 58.7656C28.7152 58.7116 28.7839 58.6387 28.8265 58.5468C28.87 58.454 28.8918 58.3494 28.8918 58.2329C28.8918 58.1164 28.87 58.0122 28.8265 57.9204C28.7839 57.8285 28.7147 57.7566 28.6191 57.7045C28.5235 57.6515 28.3966 57.6249 28.2384 57.6249H27.6191V60.2215H27.2668ZM29.7604 60.2215V58.0397H30.0843V58.3693H30.107C30.1468 58.2613 30.2188 58.1737 30.3229 58.1065C30.4271 58.0392 30.5445 58.0056 30.6752 58.0056C30.6998 58.0056 30.7306 58.0061 30.7675 58.007C30.8045 58.008 30.8324 58.0094 30.8513 58.0113V58.3522C30.84 58.3494 30.8139 58.3451 30.7732 58.3394C30.7334 58.3328 30.6913 58.3295 30.6468 58.3295C30.5407 58.3295 30.446 58.3517 30.3627 58.3962C30.2803 58.4398 30.215 58.5004 30.1667 58.5781C30.1193 58.6548 30.0957 58.7424 30.0957 58.8408V60.2215H29.7604ZM32.0687 60.267C31.8717 60.267 31.6989 60.2201 31.5502 60.1264C31.4025 60.0326 31.2869 59.9015 31.2036 59.7329C31.1212 59.5643 31.08 59.3674 31.08 59.142C31.08 58.9147 31.1212 58.7163 31.2036 58.5468C31.2869 58.3773 31.4025 58.2457 31.5502 58.1519C31.6989 58.0582 31.8717 58.0113 32.0687 58.0113C32.2656 58.0113 32.438 58.0582 32.5857 58.1519C32.7344 58.2457 32.8499 58.3773 32.9323 58.5468C33.0156 58.7163 33.0573 58.9147 33.0573 59.142C33.0573 59.3674 33.0156 59.5643 32.9323 59.7329C32.8499 59.9015 32.7344 60.0326 32.5857 60.1264C32.438 60.2201 32.2656 60.267 32.0687 60.267ZM32.0687 59.9658C32.2183 59.9658 32.3414 59.9275 32.438 59.8508C32.5346 59.7741 32.6061 59.6732 32.6525 59.5482C32.6989 59.4232 32.7221 59.2878 32.7221 59.142C32.7221 58.9961 32.6989 58.8603 32.6525 58.7343C32.6061 58.6084 32.5346 58.5066 32.438 58.4289C32.3414 58.3513 32.2183 58.3124 32.0687 58.3124C31.919 58.3124 31.7959 58.3513 31.6994 58.4289C31.6028 58.5066 31.5313 58.6084 31.4849 58.7343C31.4385 58.8603 31.4153 58.9961 31.4153 59.142C31.4153 59.2878 31.4385 59.4232 31.4849 59.5482C31.5313 59.6732 31.6028 59.7741 31.6994 59.8508C31.7959 59.9275 31.919 59.9658 32.0687 59.9658ZM35.275 58.0397L34.4682 60.2215H34.1273L33.3204 58.0397H33.6841L34.2864 59.7783H34.3091L34.9114 58.0397H35.275ZM35.7175 60.2215V58.0397H36.0527V60.2215H35.7175ZM35.8879 57.6761C35.8226 57.6761 35.7662 57.6538 35.7189 57.6093C35.6725 57.5648 35.6493 57.5113 35.6493 57.4488C35.6493 57.3863 35.6725 57.3328 35.7189 57.2883C35.7662 57.2438 35.8226 57.2215 35.8879 57.2215C35.9533 57.2215 36.0091 57.2438 36.0555 57.2883C36.1029 57.3328 36.1266 57.3863 36.1266 57.4488C36.1266 57.5113 36.1029 57.5648 36.0555 57.6093C36.0091 57.6538 35.9533 57.6761 35.8879 57.6761ZM37.4905 60.267C37.3087 60.267 37.1482 60.2211 37.009 60.1292C36.8698 60.0364 36.7609 59.9057 36.6823 59.7372C36.6037 59.5676 36.5644 59.3674 36.5644 59.1363C36.5644 58.9071 36.6037 58.7083 36.6823 58.5397C36.7609 58.3711 36.8703 58.2409 37.0104 58.1491C37.1506 58.0572 37.3125 58.0113 37.4962 58.0113C37.6383 58.0113 37.7505 58.035 37.8329 58.0823C37.9162 58.1287 37.9797 58.1818 38.0232 58.2414C38.0677 58.3001 38.1023 58.3484 38.1269 58.3863H38.1553V57.3124H38.4905V60.2215H38.1667V59.8863H38.1269C38.1023 59.9261 38.0672 59.9763 38.0218 60.0369C37.9763 60.0965 37.9115 60.15 37.8272 60.1974C37.7429 60.2438 37.6307 60.267 37.4905 60.267ZM37.536 59.9658C37.6705 59.9658 37.7841 59.9308 37.8769 59.8607C37.9697 59.7897 38.0403 59.6917 38.0886 59.5667C38.1369 59.4408 38.161 59.2954 38.161 59.1306C38.161 58.9677 38.1373 58.8252 38.09 58.7031C38.0426 58.58 37.9726 58.4843 37.8797 58.4161C37.7869 58.347 37.6724 58.3124 37.536 58.3124C37.394 58.3124 37.2756 58.3489 37.1809 58.4218C37.0871 58.4938 37.0166 58.5918 36.9692 58.7158C36.9228 58.839 36.8996 58.9772 36.8996 59.1306C36.8996 59.2859 36.9233 59.427 36.9707 59.5539C37.019 59.6799 37.09 59.7802 37.1837 59.855C37.2784 59.9289 37.3958 59.9658 37.536 59.9658ZM39.1511 60.2215V58.0397H39.4863V60.2215H39.1511ZM39.3215 57.6761C39.2562 57.6761 39.1998 57.6538 39.1525 57.6093C39.1061 57.5648 39.0829 57.5113 39.0829 57.4488C39.0829 57.3863 39.1061 57.3328 39.1525 57.2883C39.1998 57.2438 39.2562 57.2215 39.3215 57.2215C39.3869 57.2215 39.4427 57.2438 39.4891 57.2883C39.5365 57.3328 39.5601 57.3863 39.5601 57.4488C39.5601 57.5113 39.5365 57.5648 39.4891 57.6093C39.4427 57.6538 39.3869 57.6761 39.3215 57.6761ZM40.4355 58.909V60.2215H40.1003V58.0397H40.4241V58.3806H40.4525C40.5037 58.2698 40.5813 58.1808 40.6855 58.1136C40.7897 58.0454 40.9241 58.0113 41.0889 58.0113C41.2366 58.0113 41.3659 58.0416 41.4767 58.1022C41.5875 58.1619 41.6737 58.2528 41.7352 58.3749C41.7968 58.4961 41.8275 58.6496 41.8275 58.8352V60.2215H41.4923V58.8579C41.4923 58.6865 41.4478 58.553 41.3588 58.4573C41.2698 58.3607 41.1476 58.3124 40.9923 58.3124C40.8853 58.3124 40.7897 58.3356 40.7054 58.382C40.6221 58.4284 40.5562 58.4961 40.5079 58.5852C40.4597 58.6742 40.4355 58.7821 40.4355 58.909ZM43.3208 61.0852C43.1589 61.0852 43.0197 61.0643 42.9032 61.0227C42.7867 60.9819 42.6896 60.928 42.612 60.8607C42.5353 60.7944 42.4742 60.7234 42.4288 60.6477L42.6958 60.4602C42.7261 60.4999 42.7645 60.5454 42.8109 60.5965C42.8573 60.6486 42.9207 60.6936 43.0012 60.7315C43.0826 60.7703 43.1892 60.7897 43.3208 60.7897C43.4969 60.7897 43.6423 60.7471 43.7569 60.6619C43.8715 60.5766 43.9288 60.4431 43.9288 60.2613V59.8181H43.9003C43.8757 59.8579 43.8407 59.9071 43.7952 59.9658C43.7507 60.0236 43.6863 60.0752 43.6021 60.1207C43.5187 60.1652 43.406 60.1874 43.264 60.1874C43.0878 60.1874 42.9297 60.1458 42.7896 60.0624C42.6503 59.9791 42.54 59.8579 42.4586 59.6988C42.3781 59.5397 42.3378 59.3465 42.3378 59.1193C42.3378 58.8958 42.3771 58.7012 42.4557 58.5354C42.5343 58.3688 42.6437 58.24 42.7839 58.1491C42.924 58.0572 43.086 58.0113 43.2697 58.0113C43.4117 58.0113 43.5244 58.035 43.6077 58.0823C43.692 58.1287 43.7564 58.1818 43.8009 58.2414C43.8464 58.3001 43.8814 58.3484 43.906 58.3863H43.9401V58.0397H44.264V60.284C44.264 60.4715 44.2214 60.624 44.1361 60.7414C44.0519 60.8598 43.9382 60.9464 43.7952 61.0014C43.6532 61.0572 43.495 61.0852 43.3208 61.0852ZM43.3094 59.8863C43.4439 59.8863 43.5575 59.8555 43.6503 59.794C43.7431 59.7324 43.8137 59.6439 43.862 59.5283C43.9103 59.4128 43.9344 59.2746 43.9344 59.1136C43.9344 58.9564 43.9108 58.8176 43.8634 58.6974C43.8161 58.5771 43.746 58.4829 43.6532 58.4147C43.5604 58.3465 43.4458 58.3124 43.3094 58.3124C43.1674 58.3124 43.049 58.3484 42.9543 58.4204C42.8606 58.4924 42.79 58.589 42.7427 58.7102C42.6963 58.8314 42.6731 58.9658 42.6731 59.1136C42.6731 59.2651 42.6967 59.3991 42.7441 59.5156C42.7924 59.6311 42.8634 59.722 42.9572 59.7883C43.0519 59.8536 43.1693 59.8863 43.3094 59.8863ZM46.0481 60.2215V57.3124H47.0651C47.2678 57.3124 47.4349 57.3475 47.5665 57.4175C47.6982 57.4867 47.7962 57.58 47.8606 57.6974C47.925 57.8139 47.9572 57.9431 47.9572 58.0852C47.9572 58.2102 47.9349 58.3134 47.8904 58.3948C47.8468 58.4763 47.7891 58.5407 47.7171 58.588C47.6461 58.6354 47.5689 58.6704 47.4856 58.6931V58.7215C47.5746 58.7272 47.6641 58.7585 47.754 58.8153C47.844 58.8721 47.9193 58.9535 47.9799 59.0596C48.0405 59.1657 48.0708 59.2954 48.0708 59.4488C48.0708 59.5946 48.0377 59.7258 47.9714 59.8423C47.9051 59.9587 47.8004 60.0511 47.6574 60.1193C47.5145 60.1874 47.3284 60.2215 47.0992 60.2215H46.0481ZM46.4003 59.909H47.0992C47.3293 59.909 47.4927 59.8645 47.5893 59.7755C47.6868 59.6855 47.7356 59.5766 47.7356 59.4488C47.7356 59.3503 47.7105 59.2594 47.6603 59.1761C47.6101 59.0918 47.5386 59.0246 47.4458 58.9744C47.353 58.9232 47.2431 58.8977 47.1163 58.8977H46.4003V59.909ZM46.4003 58.5908H47.0538C47.1598 58.5908 47.2555 58.57 47.3407 58.5283C47.4269 58.4867 47.495 58.428 47.5452 58.3522C47.5964 58.2765 47.6219 58.1874 47.6219 58.0852C47.6219 57.9573 47.5774 57.8489 47.4884 57.7599C47.3994 57.6699 47.2583 57.6249 47.0651 57.6249H46.4003V58.5908ZM49.519 60.267C49.3087 60.267 49.1274 60.2206 48.9749 60.1278C48.8234 60.034 48.7065 59.9033 48.6241 59.7357C48.5426 59.5672 48.5019 59.3711 48.5019 59.1477C48.5019 58.9242 48.5426 58.7272 48.6241 58.5568C48.7065 58.3854 48.821 58.2518 48.9678 58.1562C49.1155 58.0596 49.2879 58.0113 49.4849 58.0113C49.5985 58.0113 49.7107 58.0302 49.8215 58.0681C49.9323 58.106 50.0332 58.1675 50.1241 58.2528C50.215 58.3371 50.2874 58.4488 50.3414 58.588C50.3954 58.7272 50.4224 58.8986 50.4224 59.1022V59.2443H48.7405V58.9545H50.0815C50.0815 58.8314 50.0568 58.7215 50.0076 58.6249C49.9593 58.5283 49.8902 58.4521 49.8002 58.3962C49.7112 58.3404 49.6061 58.3124 49.4849 58.3124C49.3513 58.3124 49.2358 58.3456 49.1383 58.4119C49.0417 58.4772 48.9673 58.5624 48.9153 58.6675C48.8632 58.7727 48.8371 58.8854 48.8371 59.0056V59.1988C48.8371 59.3636 48.8655 59.5033 48.9224 59.6178C48.9801 59.7315 49.0601 59.8181 49.1624 59.8778C49.2647 59.9365 49.3835 59.9658 49.519 59.9658C49.607 59.9658 49.6866 59.9535 49.7576 59.9289C49.8296 59.9033 49.8916 59.8655 49.9437 59.8153C49.9958 59.7641 50.036 59.7007 50.0644 59.6249L50.3883 59.7158C50.3542 59.8257 50.2969 59.9223 50.2164 60.0056C50.1359 60.088 50.0365 60.1524 49.9181 60.1988C49.7997 60.2443 49.6667 60.267 49.519 60.267ZM52.4778 58.5283L52.1766 58.6136C52.1577 58.5634 52.1297 58.5146 52.0928 58.4673C52.0568 58.419 52.0076 58.3792 51.9451 58.3479C51.8826 58.3167 51.8026 58.3011 51.705 58.3011C51.5715 58.3011 51.4602 58.3318 51.3712 58.3934C51.2832 58.454 51.2391 58.5312 51.2391 58.6249C51.2391 58.7083 51.2694 58.7741 51.33 58.8224C51.3906 58.8707 51.4853 58.9109 51.6141 58.9431L51.938 59.0227C52.1331 59.07 52.2784 59.1425 52.3741 59.24C52.4697 59.3366 52.5175 59.4611 52.5175 59.6136C52.5175 59.7386 52.4815 59.8503 52.4096 59.9488C52.3386 60.0473 52.2391 60.1249 52.1113 60.1818C51.9834 60.2386 51.8348 60.267 51.6653 60.267C51.4427 60.267 51.2585 60.2187 51.1127 60.1221C50.9669 60.0255 50.8745 59.8844 50.8357 59.6988L51.1539 59.6193C51.1842 59.7367 51.2415 59.8247 51.3258 59.8835C51.411 59.9422 51.5223 59.9715 51.6596 59.9715C51.8158 59.9715 51.9399 59.9384 52.0317 59.8721C52.1245 59.8049 52.1709 59.7244 52.1709 59.6306C52.1709 59.5549 52.1444 59.4914 52.0914 59.4403C52.0384 59.3882 51.9569 59.3494 51.8471 59.3238L51.4834 59.2386C51.2836 59.1912 51.1369 59.1178 51.0431 59.0184C50.9503 58.918 50.9039 58.7925 50.9039 58.642C50.9039 58.5189 50.9385 58.41 51.0076 58.3153C51.0777 58.2206 51.1728 58.1462 51.2931 58.0923C51.4143 58.0383 51.5516 58.0113 51.705 58.0113C51.9209 58.0113 52.0905 58.0586 52.2136 58.1533C52.3376 58.248 52.4257 58.373 52.4778 58.5283ZM53.971 58.0397V58.3238H52.8403V58.0397H53.971ZM53.1699 57.517H53.5051V59.5965C53.5051 59.6912 53.5188 59.7622 53.5463 59.8096C53.5747 59.856 53.6107 59.8872 53.6543 59.9033C53.6988 59.9185 53.7456 59.9261 53.7949 59.9261C53.8318 59.9261 53.8621 59.9242 53.8858 59.9204C53.9095 59.9157 53.9284 59.9119 53.9426 59.909L54.0108 60.2102C53.9881 60.2187 53.9563 60.2272 53.9156 60.2357C53.8749 60.2452 53.8233 60.2499 53.7608 60.2499C53.6661 60.2499 53.5733 60.2296 53.4824 60.1889C53.3924 60.1481 53.3176 60.0861 53.2579 60.0028C53.1992 59.9194 53.1699 59.8143 53.1699 59.6874V57.517ZM27.6191 62.3124V65.2215H27.2668V62.3124H27.6191ZM28.1663 62.6249V62.3124H30.3481V62.6249H29.4334V65.2215H29.0811V62.6249H28.1663ZM33.5168 63.5283L33.2157 63.6136C33.1967 63.5634 33.1688 63.5146 33.1319 63.4673C33.0959 63.419 33.0467 63.3792 32.9842 63.3479C32.9217 63.3167 32.8416 63.3011 32.7441 63.3011C32.6106 63.3011 32.4993 63.3318 32.4103 63.3934C32.3222 63.454 32.2782 63.5312 32.2782 63.6249C32.2782 63.7083 32.3085 63.7741 32.3691 63.8224C32.4297 63.8707 32.5244 63.9109 32.6532 63.9431L32.9771 64.0227C33.1721 64.07 33.3175 64.1425 33.4131 64.24C33.5088 64.3366 33.5566 64.4611 33.5566 64.6136C33.5566 64.7386 33.5206 64.8503 33.4486 64.9488C33.3776 65.0473 33.2782 65.1249 33.1503 65.1818C33.0225 65.2386 32.8738 65.267 32.7043 65.267C32.4818 65.267 32.2976 65.2187 32.1518 65.1221C32.0059 65.0255 31.9136 64.8844 31.8748 64.6988L32.193 64.6193C32.2233 64.7367 32.2806 64.8247 32.3648 64.8835C32.4501 64.9422 32.5613 64.9715 32.6986 64.9715C32.8549 64.9715 32.9789 64.9384 33.0708 64.8721C33.1636 64.8049 33.21 64.7244 33.21 64.6306C33.21 64.5549 33.1835 64.4914 33.1305 64.4403C33.0774 64.3882 32.996 64.3494 32.8861 64.3238L32.5225 64.2386C32.3227 64.1912 32.1759 64.1178 32.0822 64.0184C31.9894 63.918 31.943 63.7925 31.943 63.642C31.943 63.5189 31.9775 63.41 32.0467 63.3153C32.1167 63.2206 32.2119 63.1462 32.3322 63.0923C32.4534 63.0383 32.5907 63.0113 32.7441 63.0113C32.96 63.0113 33.1295 63.0586 33.2526 63.1533C33.3767 63.248 33.4647 63.373 33.5168 63.5283ZM34.976 65.267C34.7658 65.267 34.5844 65.2206 34.432 65.1278C34.2804 65.034 34.1635 64.9033 34.0811 64.7357C33.9997 64.5672 33.9589 64.3711 33.9589 64.1477C33.9589 63.9242 33.9997 63.7272 34.0811 63.5568C34.1635 63.3854 34.2781 63.2518 34.4248 63.1562C34.5726 63.0596 34.7449 63.0113 34.9419 63.0113C35.0555 63.0113 35.1677 63.0302 35.2785 63.0681C35.3893 63.106 35.4902 63.1675 35.5811 63.2528C35.672 63.3371 35.7445 63.4488 35.7984 63.588C35.8524 63.7272 35.8794 63.8986 35.8794 64.1022V64.2443H34.1976V63.9545H35.5385C35.5385 63.8314 35.5139 63.7215 35.4646 63.6249C35.4163 63.5283 35.3472 63.4521 35.2572 63.3962C35.1682 63.3404 35.0631 63.3124 34.9419 63.3124C34.8084 63.3124 34.6928 63.3456 34.5953 63.4119C34.4987 63.4772 34.4244 63.5624 34.3723 63.6675C34.3202 63.7727 34.2942 63.8854 34.2942 64.0056V64.1988C34.2942 64.3636 34.3226 64.5033 34.3794 64.6178C34.4372 64.7315 34.5172 64.8181 34.6195 64.8778C34.7217 64.9365 34.8406 64.9658 34.976 64.9658C35.0641 64.9658 35.1436 64.9535 35.2146 64.9289C35.2866 64.9033 35.3486 64.8655 35.4007 64.8153C35.4528 64.7641 35.493 64.7007 35.5214 64.6249L35.8453 64.7158C35.8112 64.8257 35.7539 64.9223 35.6734 65.0056C35.5929 65.088 35.4935 65.1524 35.3751 65.1988C35.2568 65.2443 35.1237 65.267 34.976 65.267ZM36.3893 65.2215V63.0397H36.7132V63.3693H36.7359C36.7757 63.2613 36.8477 63.1737 36.9518 63.1065C37.056 63.0392 37.1734 63.0056 37.3041 63.0056C37.3287 63.0056 37.3595 63.0061 37.3964 63.007C37.4334 63.008 37.4613 63.0094 37.4802 63.0113V63.3522C37.4689 63.3494 37.4428 63.3451 37.4021 63.3394C37.3623 63.3328 37.3202 63.3295 37.2757 63.3295C37.1696 63.3295 37.0749 63.3517 36.9916 63.3962C36.9092 63.4398 36.8439 63.5004 36.7956 63.5781C36.7482 63.6548 36.7246 63.7424 36.7246 63.8408V65.2215H36.3893ZM39.7281 63.0397L38.9213 65.2215H38.5804L37.7736 63.0397H38.1372L38.7395 64.7783H38.7622L39.3645 63.0397H39.7281ZM40.1706 65.2215V63.0397H40.5058V65.2215H40.1706ZM40.341 62.6761C40.2757 62.6761 40.2194 62.6538 40.172 62.6093C40.1256 62.5648 40.1024 62.5113 40.1024 62.4488C40.1024 62.3863 40.1256 62.3328 40.172 62.2883C40.2194 62.2438 40.2757 62.2215 40.341 62.2215C40.4064 62.2215 40.4623 62.2438 40.5087 62.2883C40.556 62.3328 40.5797 62.3863 40.5797 62.4488C40.5797 62.5113 40.556 62.5648 40.5087 62.6093C40.4623 62.6538 40.4064 62.6761 40.341 62.6761ZM42.0062 65.267C41.8016 65.267 41.6255 65.2187 41.4778 65.1221C41.33 65.0255 41.2164 64.8925 41.1369 64.7229C41.0573 64.5534 41.0175 64.3598 41.0175 64.142C41.0175 63.9204 41.0583 63.7248 41.1397 63.5553C41.2221 63.3849 41.3367 63.2518 41.4834 63.1562C41.6312 63.0596 41.8035 63.0113 42.0005 63.0113C42.1539 63.0113 42.2922 63.0397 42.4153 63.0965C42.5384 63.1533 42.6392 63.2329 42.7178 63.3352C42.7964 63.4374 42.8452 63.5568 42.8641 63.6931H42.5289C42.5033 63.5937 42.4465 63.5056 42.3584 63.4289C42.2713 63.3513 42.1539 63.3124 42.0062 63.3124C41.8755 63.3124 41.7609 63.3465 41.6624 63.4147C41.5649 63.4819 41.4887 63.5771 41.4337 63.7002C41.3797 63.8224 41.3528 63.9658 41.3528 64.1306C41.3528 64.2992 41.3793 64.446 41.4323 64.571C41.4863 64.696 41.562 64.793 41.6596 64.8622C41.7581 64.9313 41.8736 64.9658 42.0062 64.9658C42.0933 64.9658 42.1724 64.9507 42.2434 64.9204C42.3144 64.8901 42.3745 64.8465 42.4238 64.7897C42.473 64.7329 42.5081 64.6647 42.5289 64.5852H42.8641C42.8452 64.714 42.7983 64.83 42.7235 64.9332C42.6496 65.0354 42.5516 65.1169 42.4295 65.1775C42.3083 65.2372 42.1672 65.267 42.0062 65.267ZM44.269 65.267C44.0587 65.267 43.8774 65.2206 43.7249 65.1278C43.5734 65.034 43.4565 64.9033 43.3741 64.7357C43.2926 64.5672 43.2519 64.3711 43.2519 64.1477C43.2519 63.9242 43.2926 63.7272 43.3741 63.5568C43.4565 63.3854 43.571 63.2518 43.7178 63.1562C43.8655 63.0596 44.0379 63.0113 44.2349 63.0113C44.3485 63.0113 44.4607 63.0302 44.5715 63.0681C44.6823 63.106 44.7832 63.1675 44.8741 63.2528C44.965 63.3371 45.0374 63.4488 45.0914 63.588C45.1454 63.7272 45.1724 63.8986 45.1724 64.1022V64.2443H43.4905V63.9545H44.8315C44.8315 63.8314 44.8068 63.7215 44.7576 63.6249C44.7093 63.5283 44.6402 63.4521 44.5502 63.3962C44.4612 63.3404 44.3561 63.3124 44.2349 63.3124C44.1013 63.3124 43.9858 63.3456 43.8883 63.4119C43.7917 63.4772 43.7173 63.5624 43.6653 63.6675C43.6132 63.7727 43.5871 63.8854 43.5871 64.0056V64.1988C43.5871 64.3636 43.6155 64.5033 43.6724 64.6178C43.7301 64.7315 43.8101 64.8181 43.9124 64.8778C44.0147 64.9365 44.1335 64.9658 44.269 64.9658C44.357 64.9658 44.4366 64.9535 44.5076 64.9289C44.5796 64.9033 44.6416 64.8655 44.6937 64.8153C44.7458 64.7641 44.786 64.7007 44.8144 64.6249L45.1383 64.7158C45.1042 64.8257 45.0469 64.9223 44.9664 65.0056C44.8859 65.088 44.7865 65.1524 44.6681 65.1988C44.5497 65.2443 44.4167 65.267 44.269 65.267ZM47.2278 63.5283L46.9266 63.6136C46.9077 63.5634 46.8797 63.5146 46.8428 63.4673C46.8068 63.419 46.7576 63.3792 46.6951 63.3479C46.6326 63.3167 46.5526 63.3011 46.455 63.3011C46.3215 63.3011 46.2102 63.3318 46.1212 63.3934C46.0332 63.454 45.9891 63.5312 45.9891 63.6249C45.9891 63.7083 46.0194 63.7741 46.08 63.8224C46.1406 63.8707 46.2353 63.9109 46.3641 63.9431L46.688 64.0227C46.8831 64.07 47.0284 64.1425 47.1241 64.24C47.2197 64.3366 47.2675 64.4611 47.2675 64.6136C47.2675 64.7386 47.2315 64.8503 47.1596 64.9488C47.0886 65.0473 46.9891 65.1249 46.8613 65.1818C46.7334 65.2386 46.5848 65.267 46.4153 65.267C46.1927 65.267 46.0085 65.2187 45.8627 65.1221C45.7169 65.0255 45.6245 64.8844 45.5857 64.6988L45.9039 64.6193C45.9342 64.7367 45.9915 64.8247 46.0758 64.8835C46.161 64.9422 46.2723 64.9715 46.4096 64.9715C46.5658 64.9715 46.6899 64.9384 46.7817 64.8721C46.8745 64.8049 46.9209 64.7244 46.9209 64.6306C46.9209 64.5549 46.8944 64.4914 46.8414 64.4403C46.7884 64.3882 46.7069 64.3494 46.5971 64.3238L46.2334 64.2386C46.0336 64.1912 45.8869 64.1178 45.7931 64.0184C45.7003 63.918 45.6539 63.7925 45.6539 63.642C45.6539 63.5189 45.6885 63.41 45.7576 63.3153C45.8277 63.2206 45.9228 63.1462 46.0431 63.0923C46.1643 63.0383 46.3016 63.0113 46.455 63.0113C46.6709 63.0113 46.8405 63.0586 46.9636 63.1533C47.0876 63.248 47.1757 63.373 47.2278 63.5283ZM49.721 65.2613C49.5297 65.2613 49.365 65.2263 49.2267 65.1562C49.0884 65.0861 48.9819 64.99 48.9071 64.8678C48.8323 64.7457 48.7949 64.606 48.7949 64.4488C48.7949 64.3276 48.8204 64.2201 48.8716 64.1264C48.9237 64.0317 48.9952 63.9441 49.0861 63.8636C49.1779 63.7821 49.2835 63.7007 49.4028 63.6193L49.8233 63.3068C49.9057 63.2528 49.9715 63.195 50.0207 63.1335C50.0709 63.0719 50.096 62.9914 50.096 62.892C50.096 62.8181 50.0633 62.7466 49.998 62.6775C49.9336 62.6084 49.8489 62.5738 49.7437 62.5738C49.6699 62.5738 49.6045 62.5927 49.5477 62.6306C49.4918 62.6675 49.4478 62.7149 49.4156 62.7727C49.3844 62.8295 49.3687 62.8882 49.3687 62.9488C49.3687 63.017 49.3872 63.0861 49.4241 63.1562C49.462 63.2253 49.5098 63.2963 49.5676 63.3693C49.6263 63.4412 49.6869 63.5151 49.7494 63.5908L51.0847 65.2215H50.6812L49.579 63.892C49.4767 63.7689 49.3839 63.6571 49.3006 63.5568C49.2172 63.4564 49.1509 63.3574 49.1017 63.2599C49.0525 63.1623 49.0278 63.0568 49.0278 62.9431C49.0278 62.8124 49.0567 62.6979 49.1145 62.5994C49.1732 62.4999 49.2551 62.4228 49.3602 62.3678C49.4663 62.312 49.5903 62.284 49.7324 62.284C49.8782 62.284 50.0037 62.3124 50.1088 62.3693C50.2139 62.4251 50.2949 62.4995 50.3517 62.5923C50.4085 62.6841 50.4369 62.784 50.4369 62.892C50.4369 63.0312 50.4024 63.1519 50.3332 63.2542C50.2641 63.3565 50.1699 63.4516 50.0506 63.5397L49.471 63.9715C49.3403 64.0681 49.2518 64.1619 49.2054 64.2528C49.159 64.3437 49.1358 64.409 49.1358 64.4488C49.1358 64.5397 49.1595 64.6245 49.2068 64.7031C49.2542 64.7817 49.3209 64.8451 49.4071 64.8934C49.4933 64.9417 49.5941 64.9658 49.7097 64.9658C49.8195 64.9658 49.9265 64.9426 50.0307 64.8962C50.1348 64.8489 50.2291 64.7807 50.3133 64.6917C50.3986 64.6027 50.4658 64.4957 50.515 64.3707C50.5652 64.2457 50.5903 64.105 50.5903 63.9488H50.9142C50.9142 64.142 50.8919 64.2997 50.8474 64.4218C50.8029 64.544 50.7527 64.6396 50.6969 64.7087C50.641 64.7779 50.596 64.8295 50.5619 64.8636C50.5506 64.8778 50.5401 64.892 50.5307 64.9062C50.5212 64.9204 50.5108 64.9346 50.4994 64.9488C50.4057 65.0539 50.2873 65.1325 50.1443 65.1846C50.0013 65.2357 49.8602 65.2613 49.721 65.2613ZM54.2171 63.0397C54.2001 62.8958 54.1309 62.784 54.0097 62.7045C53.8885 62.6249 53.7398 62.5852 53.5637 62.5852C53.4349 62.5852 53.3222 62.606 53.2256 62.6477C53.13 62.6893 53.0552 62.7466 53.0012 62.8195C52.9482 62.8925 52.9217 62.9753 52.9217 63.0681C52.9217 63.1458 52.9401 63.2125 52.9771 63.2684C53.0149 63.3233 53.0632 63.3693 53.1219 63.4062C53.1806 63.4422 53.2422 63.472 53.3066 63.4957C53.371 63.5184 53.4302 63.5369 53.4842 63.5511L53.7796 63.6306C53.8554 63.6505 53.9396 63.678 54.0324 63.713C54.1262 63.748 54.2157 63.7959 54.3009 63.8565C54.3871 63.9161 54.4581 63.9928 54.514 64.0866C54.5699 64.1803 54.5978 64.2954 54.5978 64.4318C54.5978 64.589 54.5566 64.731 54.4742 64.8579C54.3928 64.9848 54.2735 65.0856 54.1163 65.1604C53.96 65.2353 53.7701 65.2727 53.5467 65.2727C53.3383 65.2727 53.1579 65.239 53.0055 65.1718C52.8539 65.1046 52.7346 65.0108 52.6475 64.8906C52.5613 64.7703 52.5126 64.6306 52.5012 64.4715H52.8648C52.8743 64.5814 52.9112 64.6723 52.9756 64.7443C53.041 64.8153 53.1234 64.8683 53.2228 64.9033C53.3232 64.9374 53.4311 64.9545 53.5467 64.9545C53.6811 64.9545 53.8019 64.9327 53.9089 64.8891C54.0159 64.8446 54.1006 64.7831 54.1631 64.7045C54.2256 64.6249 54.2569 64.5321 54.2569 64.4261C54.2569 64.3295 54.2299 64.2509 54.1759 64.1903C54.1219 64.1297 54.0509 64.0804 53.9628 64.0425C53.8748 64.0047 53.7796 63.9715 53.6773 63.9431L53.3194 63.8408C53.0921 63.7755 52.9122 63.6822 52.7796 63.561C52.647 63.4398 52.5807 63.2812 52.5807 63.0852C52.5807 62.9223 52.6248 62.7802 52.7128 62.659C52.8019 62.5369 52.9212 62.4422 53.0708 62.3749C53.2214 62.3068 53.3895 62.2727 53.5751 62.2727C53.7626 62.2727 53.9292 62.3063 54.0751 62.3735C54.2209 62.4398 54.3364 62.5307 54.4217 62.6462C54.5078 62.7618 54.5533 62.8929 54.558 63.0397H54.2171ZM56.0179 65.267C55.8209 65.267 55.6481 65.2201 55.4994 65.1264C55.3517 65.0326 55.2362 64.9015 55.1528 64.7329C55.0704 64.5643 55.0293 64.3674 55.0293 64.142C55.0293 63.9147 55.0704 63.7163 55.1528 63.5468C55.2362 63.3773 55.3517 63.2457 55.4994 63.1519C55.6481 63.0582 55.8209 63.0113 56.0179 63.0113C56.2149 63.0113 56.3872 63.0582 56.5349 63.1519C56.6836 63.2457 56.7991 63.3773 56.8815 63.5468C56.9649 63.7163 57.0065 63.9147 57.0065 64.142C57.0065 64.3674 56.9649 64.5643 56.8815 64.7329C56.7991 64.9015 56.6836 65.0326 56.5349 65.1264C56.3872 65.2201 56.2149 65.267 56.0179 65.267ZM56.0179 64.9658C56.1675 64.9658 56.2906 64.9275 56.3872 64.8508C56.4838 64.7741 56.5553 64.6732 56.6017 64.5482C56.6481 64.4232 56.6713 64.2878 56.6713 64.142C56.6713 63.9961 56.6481 63.8603 56.6017 63.7343C56.5553 63.6084 56.4838 63.5066 56.3872 63.4289C56.2906 63.3513 56.1675 63.3124 56.0179 63.3124C55.8683 63.3124 55.7452 63.3513 55.6486 63.4289C55.552 63.5066 55.4805 63.6084 55.4341 63.7343C55.3877 63.8603 55.3645 63.9961 55.3645 64.142C55.3645 64.2878 55.3877 64.4232 55.4341 64.5482C55.4805 64.6732 55.552 64.7741 55.6486 64.8508C55.7452 64.9275 55.8683 64.9658 56.0179 64.9658ZM57.8535 62.3124V65.2215H57.5182V62.3124H57.8535ZM59.8425 64.3295V63.0397H60.1777V65.2215H59.8425V64.8522H59.8197C59.7686 64.963 59.6891 65.0572 59.5811 65.1349C59.4731 65.2116 59.3368 65.2499 59.172 65.2499C59.0356 65.2499 58.9144 65.2201 58.8084 65.1604C58.7023 65.0998 58.619 65.0089 58.5584 64.8877C58.4978 64.7656 58.4675 64.6117 58.4675 64.4261V63.0397H58.8027V64.4033C58.8027 64.5624 58.8472 64.6893 58.9362 64.784C59.0262 64.8787 59.1408 64.9261 59.28 64.9261C59.3633 64.9261 59.448 64.9048 59.5342 64.8622C59.6213 64.8195 59.6943 64.7542 59.753 64.6661C59.8126 64.5781 59.8425 64.4658 59.8425 64.3295ZM61.7405 63.0397V63.3238H60.6099V63.0397H61.7405ZM60.9394 62.517H61.2746V64.5965C61.2746 64.6912 61.2884 64.7622 61.3158 64.8096C61.3442 64.856 61.3802 64.8872 61.4238 64.9033C61.4683 64.9185 61.5152 64.9261 61.5644 64.9261C61.6013 64.9261 61.6316 64.9242 61.6553 64.9204C61.679 64.9157 61.6979 64.9119 61.7121 64.909L61.7803 65.2102C61.7576 65.2187 61.7259 65.2272 61.6851 65.2357C61.6444 65.2452 61.5928 65.2499 61.5303 65.2499C61.4356 65.2499 61.3428 65.2296 61.2519 65.1889C61.1619 65.1481 61.0871 65.0861 61.0275 65.0028C60.9688 64.9194 60.9394 64.8143 60.9394 64.6874V62.517ZM62.2448 65.2215V63.0397H62.58V65.2215H62.2448ZM62.4153 62.6761C62.3499 62.6761 62.2936 62.6538 62.2462 62.6093C62.1998 62.5648 62.1766 62.5113 62.1766 62.4488C62.1766 62.3863 62.1998 62.3328 62.2462 62.2883C62.2936 62.2438 62.3499 62.2215 62.4153 62.2215C62.4806 62.2215 62.5365 62.2438 62.5829 62.2883C62.6302 62.3328 62.6539 62.3863 62.6539 62.4488C62.6539 62.5113 62.6302 62.5648 62.5829 62.6093C62.5365 62.6538 62.4806 62.6761 62.4153 62.6761ZM64.0804 65.267C63.8834 65.267 63.7106 65.2201 63.5619 65.1264C63.4142 65.0326 63.2987 64.9015 63.2153 64.7329C63.1329 64.5643 63.0918 64.3674 63.0918 64.142C63.0918 63.9147 63.1329 63.7163 63.2153 63.5468C63.2987 63.3773 63.4142 63.2457 63.5619 63.1519C63.7106 63.0582 63.8834 63.0113 64.0804 63.0113C64.2774 63.0113 64.4497 63.0582 64.5974 63.1519C64.7461 63.2457 64.8616 63.3773 64.944 63.5468C65.0274 63.7163 65.069 63.9147 65.069 64.142C65.069 64.3674 65.0274 64.5643 64.944 64.7329C64.8616 64.9015 64.7461 65.0326 64.5974 65.1264C64.4497 65.2201 64.2774 65.267 64.0804 65.267ZM64.0804 64.9658C64.23 64.9658 64.3531 64.9275 64.4497 64.8508C64.5463 64.7741 64.6178 64.6732 64.6642 64.5482C64.7106 64.4232 64.7338 64.2878 64.7338 64.142C64.7338 63.9961 64.7106 63.8603 64.6642 63.7343C64.6178 63.6084 64.5463 63.5066 64.4497 63.4289C64.3531 63.3513 64.23 63.3124 64.0804 63.3124C63.9308 63.3124 63.8077 63.3513 63.7111 63.4289C63.6145 63.5066 63.543 63.6084 63.4966 63.7343C63.4502 63.8603 63.427 63.9961 63.427 64.142C63.427 64.2878 63.4502 64.4232 63.4966 64.5482C63.543 64.6732 63.6145 64.7741 63.7111 64.8508C63.8077 64.9275 63.9308 64.9658 64.0804 64.9658ZM65.916 63.909V65.2215H65.5807V63.0397H65.9046V63.3806H65.933C65.9842 63.2698 66.0618 63.1808 66.166 63.1136C66.2701 63.0454 66.4046 63.0113 66.5694 63.0113C66.7171 63.0113 66.8464 63.0416 66.9572 63.1022C67.068 63.1619 67.1541 63.2528 67.2157 63.3749C67.2772 63.4961 67.308 63.6496 67.308 63.8352V65.2215H66.9728V63.8579C66.9728 63.6865 66.9283 63.553 66.8393 63.4573C66.7503 63.3607 66.6281 63.3124 66.4728 63.3124C66.3658 63.3124 66.2701 63.3356 66.1859 63.382C66.1025 63.4284 66.0367 63.4961 65.9884 63.5852C65.9401 63.6742 65.916 63.7821 65.916 63.909ZM69.466 63.5283L69.1649 63.6136C69.146 63.5634 69.118 63.5146 69.0811 63.4673C69.0451 63.419 68.9959 63.3792 68.9334 63.3479C68.8709 63.3167 68.7909 63.3011 68.6933 63.3011C68.5598 63.3011 68.4485 63.3318 68.3595 63.3934C68.2714 63.454 68.2274 63.5312 68.2274 63.6249C68.2274 63.7083 68.2577 63.7741 68.3183 63.8224C68.3789 63.8707 68.4736 63.9109 68.6024 63.9431L68.9263 64.0227C69.1213 64.07 69.2667 64.1425 69.3623 64.24C69.458 64.3366 69.5058 64.4611 69.5058 64.6136C69.5058 64.7386 69.4698 64.8503 69.3979 64.9488C69.3268 65.0473 69.2274 65.1249 69.0996 65.1818C68.9717 65.2386 68.823 65.267 68.6535 65.267C68.431 65.267 68.2468 65.2187 68.101 65.1221C67.9552 65.0255 67.8628 64.8844 67.824 64.6988L68.1422 64.6193C68.1725 64.7367 68.2298 64.8247 68.3141 64.8835C68.3993 64.9422 68.5105 64.9715 68.6479 64.9715C68.8041 64.9715 68.9282 64.9384 69.02 64.8721C69.1128 64.8049 69.1592 64.7244 69.1592 64.6306C69.1592 64.5549 69.1327 64.4914 69.0797 64.4403C69.0266 64.3882 68.9452 64.3494 68.8354 64.3238L68.4717 64.2386C68.2719 64.1912 68.1251 64.1178 68.0314 64.0184C67.9386 63.918 67.8922 63.7925 67.8922 63.642C67.8922 63.5189 67.9267 63.41 67.9959 63.3153C68.0659 63.2206 68.1611 63.1462 68.2814 63.0923C68.4026 63.0383 68.5399 63.0113 68.6933 63.0113C68.9092 63.0113 69.0787 63.0586 69.2018 63.1533C69.3259 63.248 69.414 63.373 69.466 63.5283Z" fill="white"/>
<g filter="url(#filter6_d_59_28)">
<path d="M29.3069 86.9494C29.3069 82.5311 32.8887 78.9494 37.3069 78.9494H71.7721V80.519C71.7721 84.9373 68.1904 88.519 63.7721 88.519H29.3069V86.9494Z" fill="#480CA8"/>
</g>
<path d="M40.8041 84.3032C40.7876 84.1481 40.7177 84.0274 40.5946 83.9409C40.4727 83.8545 40.3141 83.8113 40.1188 83.8113C39.9815 83.8113 39.8637 83.832 39.7654 83.8735C39.6672 83.9149 39.592 83.9711 39.5399 84.0422C39.4878 84.1132 39.4612 84.1943 39.46 84.2854C39.46 84.3612 39.4772 84.4269 39.5115 84.4825C39.547 84.5381 39.595 84.5855 39.6553 84.6245C39.7157 84.6624 39.7826 84.6944 39.856 84.7204C39.9294 84.7465 40.0034 84.7684 40.0779 84.7861L40.4188 84.8713C40.5561 84.9033 40.6881 84.9465 40.8148 85.001C40.9426 85.0554 41.0569 85.1241 41.1575 85.2069C41.2593 85.2898 41.3398 85.3898 41.3989 85.507C41.4581 85.6242 41.4877 85.7615 41.4877 85.9189C41.4877 86.132 41.4333 86.3196 41.3244 86.4818C41.2155 86.6428 41.058 86.7688 40.8521 86.86C40.6473 86.9499 40.3993 86.9949 40.1081 86.9949C39.8252 86.9949 39.5796 86.9511 39.3712 86.8635C39.1641 86.7759 39.0019 86.6481 38.8847 86.48C38.7687 86.3119 38.706 86.1071 38.6965 85.8657H39.3446C39.3541 85.9923 39.3931 86.0977 39.4618 86.1817C39.5305 86.2658 39.6198 86.3285 39.7299 86.3699C39.8412 86.4114 39.9655 86.4321 40.1028 86.4321C40.246 86.4321 40.3715 86.4108 40.4792 86.3681C40.5881 86.3244 40.6733 86.264 40.7349 86.187C40.7964 86.1089 40.8278 86.0178 40.829 85.9136C40.8278 85.8189 40.8 85.7408 40.7455 85.6792C40.6911 85.6165 40.6147 85.5644 40.5165 85.523C40.4194 85.4804 40.3058 85.4425 40.1756 85.4093L39.7619 85.3028C39.4624 85.2259 39.2257 85.1093 39.0516 84.953C38.8788 84.7956 38.7924 84.5867 38.7924 84.3262C38.7924 84.112 38.8504 83.9244 38.9664 83.7634C39.0836 83.6024 39.2428 83.4775 39.444 83.3887C39.6453 83.2988 39.8731 83.2538 40.1276 83.2538C40.3857 83.2538 40.6118 83.2988 40.8059 83.3887C41.0012 83.4775 41.1545 83.6012 41.2658 83.7598C41.377 83.9173 41.4345 84.0984 41.438 84.3032H40.8041ZM43.4084 84.2126V84.7098H41.8406V84.2126H43.4084ZM42.2277 83.5592H42.8704V86.1196C42.8704 86.206 42.8835 86.2723 42.9095 86.3184C42.9367 86.3634 42.9722 86.3942 43.016 86.4108C43.0598 86.4273 43.1084 86.4356 43.1616 86.4356C43.2019 86.4356 43.2386 86.4327 43.2717 86.4267C43.3061 86.4208 43.3321 86.4155 43.3499 86.4108L43.4582 86.9132C43.4238 86.9251 43.3747 86.9381 43.3108 86.9523C43.2481 86.9665 43.1711 86.9748 43.08 86.9772C42.919 86.9819 42.774 86.9576 42.645 86.9044C42.5159 86.8499 42.4135 86.7659 42.3378 86.6522C42.2632 86.5386 42.2265 86.3966 42.2277 86.2261V83.5592ZM44.7308 86.9949C44.558 86.9949 44.4023 86.9641 44.2638 86.9026C44.1265 86.8399 44.0176 86.7475 43.9371 86.6256C43.8578 86.5037 43.8182 86.3534 43.8182 86.1746C43.8182 86.0207 43.8466 85.8935 43.9034 85.7929C43.9602 85.6922 44.0377 85.6118 44.136 85.5514C44.2342 85.491 44.3449 85.4454 44.468 85.4147C44.5923 85.3827 44.7207 85.3596 44.8533 85.3454C45.0131 85.3288 45.1427 85.3141 45.2422 85.301C45.3416 85.2868 45.4138 85.2655 45.4588 85.2371C45.5049 85.2075 45.528 85.1619 45.528 85.1004V85.0897C45.528 84.956 45.4884 84.8524 45.4091 84.779C45.3298 84.7056 45.2155 84.6689 45.0664 84.6689C44.9089 84.6689 44.7841 84.7033 44.6917 84.7719C44.6006 84.8406 44.539 84.9217 44.5071 85.0152L43.9069 84.9299C43.9543 84.7642 44.0324 84.6257 44.1413 84.5145C44.2502 84.402 44.3834 84.318 44.5408 84.2623C44.6982 84.2055 44.8723 84.1771 45.0628 84.1771C45.1942 84.1771 45.325 84.1925 45.4552 84.2233C45.5854 84.254 45.7044 84.3049 45.8121 84.376C45.9198 84.4458 46.0063 84.5411 46.0714 84.6618C46.1376 84.7826 46.1708 84.9335 46.1708 85.1146V86.9399H45.5529V86.5652H45.5316C45.4925 86.641 45.4375 86.712 45.3665 86.7783C45.2966 86.8434 45.2084 86.8961 45.1019 86.9363C44.9965 86.9754 44.8728 86.9949 44.7308 86.9949ZM44.8977 86.5226C45.0267 86.5226 45.1386 86.4972 45.2333 86.4463C45.328 86.3942 45.4008 86.3255 45.4517 86.2403C45.5038 86.1551 45.5298 86.0622 45.5298 85.9615V85.6402C45.5097 85.6567 45.4754 85.6721 45.4268 85.6863C45.3795 85.7005 45.3262 85.713 45.267 85.7236C45.2078 85.7343 45.1492 85.7437 45.0912 85.752C45.0332 85.7603 44.9829 85.7674 44.9403 85.7733C44.8444 85.7864 44.7586 85.8077 44.6829 85.8373C44.6071 85.8668 44.5473 85.9083 44.5035 85.9615C44.4597 86.0136 44.4378 86.0811 44.4378 86.164C44.4378 86.2823 44.481 86.3717 44.5674 86.4321C44.6539 86.4924 44.7639 86.5226 44.8977 86.5226ZM46.8171 86.9399V84.2126H47.4403V84.6672H47.4687C47.5184 84.5097 47.6037 84.3884 47.7244 84.3032C47.8463 84.2168 47.9854 84.1735 48.1417 84.1735C48.1772 84.1735 48.2168 84.1753 48.2606 84.1789C48.3056 84.1812 48.3429 84.1854 48.3725 84.1913V84.7826C48.3453 84.7731 48.3021 84.7648 48.2429 84.7577C48.1849 84.7494 48.1286 84.7453 48.0742 84.7453C47.957 84.7453 47.8517 84.7707 47.7581 84.8216C47.6658 84.8713 47.593 84.9406 47.5397 85.0294C47.4865 85.1181 47.4598 85.2205 47.4598 85.3365V86.9399H46.8171ZM50.3079 84.2126V84.7098H48.74V84.2126H50.3079ZM49.1271 83.5592H49.7699V86.1196C49.7699 86.206 49.7829 86.2723 49.8089 86.3184C49.8362 86.3634 49.8717 86.3942 49.9155 86.4108C49.9593 86.4273 50.0078 86.4356 50.0611 86.4356C50.1013 86.4356 50.138 86.4327 50.1711 86.4267C50.2055 86.4208 50.2315 86.4155 50.2493 86.4108L50.3576 86.9132C50.3232 86.9251 50.2741 86.9381 50.2102 86.9523C50.1475 86.9665 50.0705 86.9748 49.9794 86.9772C49.8184 86.9819 49.6734 86.9576 49.5444 86.9044C49.4153 86.8499 49.313 86.7659 49.2372 86.6522C49.1626 86.5386 49.1259 86.3966 49.1271 86.2261V83.5592ZM55.1023 83.3035V86.9399H54.5164L52.803 84.463H52.7728V86.9399H52.1141V83.3035H52.7035L54.4152 85.7822H54.4472V83.3035H55.1023ZM56.9813 86.9931C56.715 86.9931 56.4842 86.9346 56.2889 86.8174C56.0935 86.7002 55.942 86.5362 55.8343 86.3255C55.7278 86.1148 55.6745 85.8686 55.6745 85.5869C55.6745 85.3052 55.7278 85.0584 55.8343 84.8465C55.942 84.6346 56.0935 84.4701 56.2889 84.3529C56.4842 84.2357 56.715 84.1771 56.9813 84.1771C57.2477 84.1771 57.4785 84.2357 57.6738 84.3529C57.8691 84.4701 58.02 84.6346 58.1266 84.8465C58.2343 85.0584 58.2882 85.3052 58.2882 85.5869C58.2882 85.8686 58.2343 86.1148 58.1266 86.3255C58.02 86.5362 57.8691 86.7002 57.6738 86.8174C57.4785 86.9346 57.2477 86.9931 56.9813 86.9931ZM56.9849 86.4782C57.1293 86.4782 57.25 86.4386 57.3471 86.3593C57.4442 86.2788 57.5164 86.1711 57.5637 86.0361C57.6123 85.9012 57.6365 85.7508 57.6365 85.5851C57.6365 85.4182 57.6123 85.2673 57.5637 85.1324C57.5164 84.9962 57.4442 84.8879 57.3471 84.8074C57.25 84.7269 57.1293 84.6867 56.9849 84.6867C56.8369 84.6867 56.7138 84.7269 56.6156 84.8074C56.5185 84.8879 56.4457 84.9962 56.3972 85.1324C56.3498 85.2673 56.3261 85.4182 56.3261 85.5851C56.3261 85.7508 56.3498 85.9012 56.3972 86.0361C56.4457 86.1711 56.5185 86.2788 56.6156 86.3593C56.7138 86.4386 56.8369 86.4782 56.9849 86.4782ZM59.3184 86.9399L58.5478 84.2126H59.203L59.6824 86.1302H59.7073L60.1973 84.2126H60.8454L61.3355 86.1196H61.3621L61.8344 84.2126H62.4914L61.719 86.9399H61.0496L60.5382 85.0968H60.501L59.9896 86.9399H59.3184Z" fill="white"/>
<path d="M76.0601 101.079L75.9589 100.902L90.5255 92.4275L90.464 84.1907L132.894 59.5958L157.199 45.4557L157.301 45.6329L132.996 59.773L90.668 84.3084L90.7295 92.5453L76.0601 101.079Z" fill="#00CAF9"/>
<path d="M82.0411 102.275L81.9399 102.099L96.5065 93.6237L96.445 85.3869L138.875 60.792L163.18 46.6519L163.282 46.8291L138.977 60.9692L96.6491 85.5046L96.7105 93.7415L82.0411 102.275Z" fill="#00CAF9"/>
<path d="M155.529 54.4273L155.594 54.5391L146.373 59.9182L146.418 65.1356L119.56 80.7464L104.176 89.7212L104.111 89.6091L119.496 80.6342L146.289 65.0612L146.244 59.8438L155.529 54.4273Z" fill="#00CAF9"/>
<path d="M103.321 100.994L103.257 100.882L112.514 95.5643L112.503 90.3467L139.465 74.9152L154.909 66.0429L154.972 66.1555L139.528 75.0277L112.632 90.422L112.642 95.6396L103.321 100.994Z" fill="#00CAF9"/>
<path d="M208.939 66.9393C208.354 67.5251 208.354 68.4749 208.939 69.0607L218.485 78.6066C219.071 79.1924 220.021 79.1924 220.607 78.6066C221.192 78.0208 221.192 77.0711 220.607 76.4853L212.121 68L220.607 59.5147C221.192 58.9289 221.192 57.9792 220.607 57.3934C220.021 56.8076 219.071 56.8076 218.485 57.3934L208.939 66.9393ZM287 66.5H248.5V69.5H287V66.5ZM248.5 66.5L210 66.5V69.5L248.5 69.5V66.5Z" fill="#4895EF"/>
<path d="M288.061 83.9393C288.646 84.5251 288.646 85.4749 288.061 86.0607L278.515 95.6066C277.929 96.1924 276.979 96.1924 276.393 95.6066C275.808 95.0208 275.808 94.0711 276.393 93.4853L284.879 85L276.393 76.5147C275.808 75.9289 275.808 74.9792 276.393 74.3934C276.979 73.8076 277.929 73.8076 278.515 74.3934L288.061 83.9393ZM210 83.5H248.5V86.5H210V83.5ZM248.5 83.5L287 83.5V86.5L248.5 86.5V83.5Z" fill="#DD0EE2"/>
<path d="M208.939 100.939C208.354 101.525 208.354 102.475 208.939 103.061L218.485 112.607C219.071 113.192 220.021 113.192 220.607 112.607C221.192 112.021 221.192 111.071 220.607 110.485L212.121 102L220.607 93.5147C221.192 92.9289 221.192 91.9792 220.607 91.3934C220.021 90.8076 219.071 90.8076 218.485 91.3934L208.939 100.939ZM287 100.5H248.5V103.5H287V100.5ZM248.5 100.5L210 100.5V103.5L248.5 103.5V100.5Z" fill="#4895EF"/>
<defs>
<filter id="filter0_d_59_28" x="336.017" y="108.234" width="17.9829" height="85.7805" filterUnits="userSpaceOnUse" color-interpolation-filters="sRGB">
<feFlood flood-opacity="0" result="BackgroundImageFix"/>
<feColorMatrix in="SourceAlpha" type="matrix" values="0 0 0 0 0 0 0 0 0 0 0 0 0 0 0 0 0 0 127 0" result="hardAlpha"/>
<feOffset dy="4"/>
<feGaussianBlur stdDeviation="4"/>
<feComposite in2="hardAlpha" operator="out"/>
<feColorMatrix type="matrix" values="0 0 0 0 0.866667 0 0 0 0 0.054902 0 0 0 0 0.886275 0 0 0 0.5 0"/>
<feBlend mode="normal" in2="BackgroundImageFix" result="effect1_dropShadow_59_28"/>
<feBlend mode="normal" in="SourceGraphic" in2="effect1_dropShadow_59_28" result="shape"/>
</filter>
<filter id="filter1_d_59_28" x="479" y="106.002" width="17.2117" height="87.9981" filterUnits="userSpaceOnUse" color-interpolation-filters="sRGB">
<feFlood flood-opacity="0" result="BackgroundImageFix"/>
<feColorMatrix in="SourceAlpha" type="matrix" values="0 0 0 0 0 0 0 0 0 0 0 0 0 0 0 0 0 0 127 0" result="hardAlpha"/>
<feOffset dy="4"/>
<feGaussianBlur stdDeviation="4"/>
<feComposite in2="hardAlpha" operator="out"/>
<feColorMatrix type="matrix" values="0 0 0 0 0.866667 0 0 0 0 0.054902 0 0 0 0 0.886275 0 0 0 0.5 0"/>
<feBlend mode="normal" in2="BackgroundImageFix" result="effect1_dropShadow_59_28"/>
<feBlend mode="normal" in="SourceGraphic" in2="effect1_dropShadow_59_28" result="shape"/>
</filter>
<filter id="filter2_d_59_28" x="337" y="177" width="159.195" height="17" filterUnits="userSpaceOnUse" color-interpolation-filters="sRGB">
<feFlood flood-opacity="0" result="BackgroundImageFix"/>
<feColorMatrix in="SourceAlpha" type="matrix" values="0 0 0 0 0 0 0 0 0 0 0 0 0 0 0 0 0 0 127 0" result="hardAlpha"/>
<feOffset dy="4"/>
<feGaussianBlur stdDeviation="4"/>
<feComposite in2="hardAlpha" operator="out"/>
<feColorMatrix type="matrix" values="0 0 0 0 0.866667 0 0 0 0 0.054902 0 0 0 0 0.886275 0 0 0 0.5 0"/>
<feBlend mode="normal" in2="BackgroundImageFix" result="effect1_dropShadow_59_28"/>
<feBlend mode="normal" in="SourceGraphic" in2="effect1_dropShadow_59_28" result="shape"/>
</filter>
<filter id="filter3_d_59_28" x="301.661" y="41.4918" width="90.6119" height="82.9507" filterUnits="userSpaceOnUse" color-interpolation-filters="sRGB">
<feFlood flood-opacity="0" result="BackgroundImageFix"/>
<feColorMatrix in="SourceAlpha" type="matrix" values="0 0 0 0 0 0 0 0 0 0 0 0 0 0 0 0 0 0 127 0" result="hardAlpha"/>
<feOffset dy="5"/>
<feGaussianBlur stdDeviation="3.5"/>
<feComposite in2="hardAlpha" operator="out"/>
<feColorMatrix type="matrix" values="0 0 0 0 0.866667 0 0 0 0 0.054902 0 0 0 0 0.886275 0 0 0 0.25 0"/>
<feBlend mode="normal" in2="BackgroundImageFix" result="effect1_dropShadow_59_28"/>
<feBlend mode="normal" in="SourceGraphic" in2="effect1_dropShadow_59_28" result="shape"/>
</filter>
<filter id="filter4_d_59_28" x="442.423" y="32" width="91.5767" height="91.5766" filterUnits="userSpaceOnUse" color-interpolation-filters="sRGB">
<feFlood flood-opacity="0" result="BackgroundImageFix"/>
<feColorMatrix in="SourceAlpha" type="matrix" values="0 0 0 0 0 0 0 0 0 0 0 0 0 0 0 0 0 0 127 0" result="hardAlpha"/>
<feOffset dy="4"/>
<feGaussianBlur stdDeviation="2"/>
<feComposite in2="hardAlpha" operator="out"/>
<feColorMatrix type="matrix" values="0 0 0 0 0 0 0 0 0 0 0 0 0 0 0 0 0 0 0.25 0"/>
<feBlend mode="normal" in2="BackgroundImageFix" result="effect1_dropShadow_59_28"/>
<feBlend mode="normal" in="SourceGraphic" in2="effect1_dropShadow_59_28" result="shape"/>
</filter>
<filter id="filter5_d_59_28" x="451.972" y="37.5248" width="72.4796" height="81.5352" filterUnits="userSpaceOnUse" color-interpolation-filters="sRGB">
<feFlood flood-opacity="0" result="BackgroundImageFix"/>
<feColorMatrix in="SourceAlpha" type="matrix" values="0 0 0 0 0 0 0 0 0 0 0 0 0 0 0 0 0 0 127 0" result="hardAlpha"/>
<feOffset dy="5"/>
<feGaussianBlur stdDeviation="2"/>
<feComposite in2="hardAlpha" operator="out"/>
<feColorMatrix type="matrix" values="0 0 0 0 0.866667 0 0 0 0 0.054902 0 0 0 0 0.886275 0 0 0 0.25 0"/>
<feBlend mode="normal" in2="BackgroundImageFix" result="effect1_dropShadow_59_28"/>
<feBlend mode="normal" in="SourceGraphic" in2="effect1_dropShadow_59_28" result="shape"/>
</filter>
<filter id="filter6_d_59_28" x="21.8069" y="71.4494" width="57.4652" height="24.5696" filterUnits="userSpaceOnUse" color-interpolation-filters="sRGB">
<feFlood flood-opacity="0" result="BackgroundImageFix"/>
<feColorMatrix in="SourceAlpha" type="matrix" values="0 0 0 0 0 0 0 0 0 0 0 0 0 0 0 0 0 0 127 0" result="hardAlpha"/>
<feMorphology radius="2" operator="dilate" in="SourceAlpha" result="effect1_dropShadow_59_28"/>
<feOffset/>
<feGaussianBlur stdDeviation="2.75"/>
<feComposite in2="hardAlpha" operator="out"/>
<feColorMatrix type="matrix" values="0 0 0 0 0.282353 0 0 0 0 0.584314 0 0 0 0 0.937255 0 0 0 1 0"/>
<feBlend mode="normal" in2="BackgroundImageFix" result="effect1_dropShadow_59_28"/>
<feBlend mode="normal" in="SourceGraphic" in2="effect1_dropShadow_59_28" result="shape"/>
</filter>
<linearGradient id="paint0_linear_59_28" x1="94.5" y1="104.368" x2="94.5" y2="178.959" gradientUnits="userSpaceOnUse">
<stop stop-color="#DD0EE2"/>
<stop offset="1" stop-color="#4895EF"/>
</linearGradient>
<radialGradient id="paint1_radial_59_28" cx="0" cy="0" r="1" gradientUnits="userSpaceOnUse" gradientTransform="translate(6.46203 178.959) rotate(137.02) scale(249.508 374.133)">
<stop/>
<stop offset="1" stop-color="#3F37C9"/>
</radialGradient>
<linearGradient id="paint2_linear_59_28" x1="95.6962" y1="26.3165" x2="95.6962" y2="102.275" gradientUnits="userSpaceOnUse">
<stop stop-color="#4895EF"/>
<stop offset="1" stop-color="#3A0CA3"/>
</linearGradient>
<linearGradient id="paint3_linear_59_28" x1="19.7374" y1="35.288" x2="171.655" y2="35.288" gradientUnits="userSpaceOnUse">
<stop offset="0.415075" stop-color="#DD0EE2"/>
<stop offset="1" stop-color="#00CAF9"/>
</linearGradient>
<clipPath id="clip0_59_28">
<rect width="91.9343" height="91.9343" fill="white" transform="translate(301 32)"/>
</clipPath>
<clipPath id="clip1_59_28">
<rect width="83.5766" height="83.5766" fill="white" transform="translate(446.423 32)"/>
</clipPath>
</defs>
</svg>
