<svg width="984" height="316" viewBox="0 0 984 316" fill="none" xmlns="http://www.w3.org/2000/svg">
<g filter="url(#filter0_d_59_28)">
<line x1="651.5" y1="236" x2="651.5" y2="189" stroke="#DD0EE2"/>
</g>
<g filter="url(#filter1_d_59_28)">
<line x1="908.5" y1="236" x2="908.5" y2="185" stroke="#DD0EE2"/>
</g>
<g filter="url(#filter2_d_59_28)">
<line x1="652" y1="235.5" x2="909" y2="235.5" stroke="#DD0EE2"/>
</g>
<g filter="url(#filter3_d_59_28)">
<path d="M612.08 127.498C612.08 131.518 608.84 134.777 604.843 134.777C600.846 134.777 597.606 131.518 597.606 127.498C597.606 123.477 600.846 120.218 604.843 120.218C608.84 120.218 612.08 123.477 612.08 127.498Z" fill="#4895EF"/>
<path d="M612.08 171.174C612.08 175.195 608.84 178.453 604.843 178.453C600.846 178.453 597.606 175.195 597.606 171.174C597.606 167.154 600.846 163.895 604.843 163.895C608.84 163.895 612.08 167.154 612.08 171.174Z" fill="#4895EF"/>
<path d="M612.08 83.8211C612.08 87.8415 608.84 91.1006 604.843 91.1006C600.846 91.1006 597.606 87.8415 597.606 83.8211C597.606 79.8008 600.846 76.5417 604.843 76.5417C608.84 76.5417 612.08 79.8008 612.08 83.8211Z" fill="#4895EF"/>
<g opacity="0.5">
<path fill-rule="evenodd" clip-rule="evenodd" d="M597.169 153.108C599.036 152.98 601.421 152.978 604.842 152.978H706.158C709.579 152.978 711.964 152.98 713.831 153.108C715.665 153.234 716.734 153.47 717.549 153.809C720.209 154.917 722.322 157.043 723.424 159.718C723.761 160.538 723.996 161.613 724.121 163.458C724.248 165.336 724.25 167.735 724.25 171.176C724.25 174.618 724.248 177.017 724.121 178.895C723.996 180.74 723.761 181.814 723.424 182.635C722.322 185.31 720.209 187.436 717.549 188.544C716.734 188.883 715.665 189.119 713.831 189.245C711.964 189.373 709.579 189.375 706.158 189.375H604.842C601.421 189.375 599.036 189.373 597.169 189.245C595.335 189.119 594.267 188.883 593.451 188.544C590.791 187.436 588.678 185.31 587.576 182.635C587.238 181.814 587.004 180.74 586.879 178.895C586.752 177.017 586.75 174.618 586.75 171.176C586.75 167.735 586.752 165.336 586.879 163.458C587.004 161.613 587.238 160.538 587.576 159.718C588.678 157.043 590.791 154.917 593.451 153.809C594.267 153.47 595.335 153.234 597.169 153.108ZM604.842 178.456C608.839 178.456 612.079 175.197 612.079 171.176C612.079 167.156 608.839 163.897 604.842 163.897C600.845 163.897 597.605 167.156 597.605 171.176C597.605 175.197 600.845 178.456 604.842 178.456Z" fill="#4895EF"/>
<path fill-rule="evenodd" clip-rule="evenodd" d="M604.842 102.022C601.421 102.022 599.036 102.02 597.169 101.892C595.335 101.766 594.267 101.531 593.451 101.191C590.791 100.083 588.678 97.957 587.576 95.2815C587.238 94.4612 587.004 93.3867 586.879 91.5417C586.752 89.664 586.75 87.2651 586.75 83.8235C586.75 80.382 586.752 77.983 586.879 76.1053C587.004 74.2603 587.238 73.1859 587.576 72.3655C588.678 69.69 590.791 67.5644 593.451 66.4562C594.267 66.1164 595.335 65.881 597.169 65.7551C599.036 65.627 601.421 65.625 604.842 65.625H706.158C709.579 65.625 711.964 65.627 713.831 65.7551C715.665 65.881 716.734 66.1164 717.549 66.4562C720.209 67.5644 722.322 69.69 723.424 72.3655C723.761 73.1859 723.996 74.2603 724.121 76.1053C724.248 77.983 724.25 80.382 724.25 83.8235C724.25 87.2651 724.248 89.664 724.121 91.5417C723.996 93.3867 723.761 94.4612 723.424 95.2815C722.322 97.957 720.209 100.083 717.549 101.191C716.734 101.531 715.665 101.766 713.831 101.892C711.964 102.02 709.579 102.022 706.158 102.022H604.842ZM604.842 109.301C601.421 109.301 599.036 109.303 597.169 109.432C595.335 109.557 594.267 109.793 593.451 110.133C590.791 111.241 588.678 113.367 587.576 116.042C587.238 116.862 587.004 117.937 586.879 119.782C586.752 121.66 586.75 124.058 586.75 127.5C586.75 130.942 586.752 133.34 586.879 135.218C587.004 137.063 587.238 138.138 587.576 138.958C588.678 141.634 590.791 143.759 593.451 144.868C594.267 145.207 595.335 145.442 597.169 145.568C599.036 145.697 601.421 145.699 604.842 145.699H706.158C709.579 145.699 711.964 145.697 713.831 145.568C715.665 145.442 716.734 145.207 717.549 144.868C720.209 143.759 722.322 141.634 723.424 138.958C723.761 138.138 723.996 137.063 724.121 135.218C724.248 133.34 724.25 130.942 724.25 127.5C724.25 124.058 724.248 121.66 724.121 119.782C723.996 117.937 723.761 116.862 723.424 116.042C722.322 113.367 720.209 111.241 717.549 110.133C716.734 109.793 715.665 109.557 713.831 109.432C711.964 109.303 709.579 109.301 706.158 109.301H604.842ZM612.079 127.5C612.079 131.521 608.839 134.779 604.842 134.779C600.845 134.779 597.605 131.521 597.605 127.5C597.605 123.479 600.845 120.221 604.842 120.221C608.839 120.221 612.079 123.479 612.079 127.5ZM604.842 91.1029C608.839 91.1029 612.079 87.8438 612.079 83.8235C612.079 79.8032 608.839 76.5442 604.842 76.5442C600.845 76.5442 597.605 79.8032 597.605 83.8235C597.605 87.8438 600.845 91.1029 604.842 91.1029Z" fill="#4895EF"/>
</g>
</g>
<g filter="url(#filter4_d_59_28)">
<g filter="url(#filter5_d_59_28)">
<path d="M851.139 134.121V160.269C851.358 173.994 873.946 185.098 909 185.098C944.054 185.098 966.627 173.994 966.861 160.269V134.121H851.139Z" fill="#4361EE" stroke="#DD0EE2" stroke-width="0.0015"/>
<path d="M966.861 134.019C966.861 148.579 944.186 160.386 909 160.386C873.814 160.386 851.139 148.579 851.139 134.019C851.139 119.458 873.814 107.651 909 107.651C944.186 107.651 966.861 119.443 966.861 134.019Z" fill="white" fill-opacity="0.75" stroke="#DD0EE2" stroke-width="0.0015"/>
<path d="M851.139 107.754V130.972C851.358 144.697 873.946 157.266 909 157.266C944.054 157.266 966.627 144.697 966.861 130.972V107.754H851.139Z" fill="#4361EE" stroke="#DD0EE2" stroke-width="0.0015"/>
<path d="M966.861 107.651C966.861 122.212 944.186 134.019 909 134.019C873.814 134.019 851.139 122.212 851.139 107.651C851.139 93.0908 873.814 81.2842 909 81.2842C944.186 81.2842 966.861 93.0762 966.861 107.651Z" fill="white" fill-opacity="0.75" stroke="#DD0EE2" stroke-width="0.0015"/>
<path d="M851.139 81.3867V104.604C851.358 118.33 873.946 130.898 909 130.898C944.054 130.898 966.627 118.33 966.861 104.604V81.3867H851.139Z" fill="#4361EE" stroke="#DD0EE2" stroke-width="0.0015"/>
<path d="M966.861 81.2842C966.861 95.8447 944.186 107.651 909 107.651C873.814 107.651 851.139 95.8447 851.139 81.2842C851.139 66.7236 873.814 54.917 909 54.917C944.186 54.917 966.861 66.709 966.861 81.2842Z" fill="#4895EF" stroke="#DD0EE2" stroke-width="0.0015"/>
</g>
</g>
<path d="M127.004 290.75C126.678 295.323 130.3 299.212 134.885 299.212H181.115C185.7 299.212 189.323 295.323 188.996 290.75L181.7 188.612H134.3L127.004 290.75Z" fill="url(#paint0_linear_59_28)"/>
<path d="M284.4 14.8125H31.6C14.1478 14.8125 0 28.9603 0 46.4125V204.413C0 221.865 14.1478 236.012 31.6 236.012H284.4C301.852 236.012 316 221.865 316 204.413V46.4125C316 28.9603 301.852 14.8125 284.4 14.8125Z" fill="url(#paint1_radial_59_28)"/>
<path d="M0 220.212C0 237.665 14.1478 251.812 31.6 251.812H284.4C301.853 251.812 316 237.665 316 220.212V188.612H0V220.212Z" fill="#4895EF"/>
<path d="M173.8 220.212C173.8 211.486 166.727 204.413 158 204.413C149.273 204.413 142.2 211.486 142.2 220.212C142.2 228.939 149.273 236.012 158 236.012C166.727 236.012 173.8 228.939 173.8 220.212Z" fill="#4CC9F0"/>
<rect x="33" y="44" width="254" height="127" fill="url(#paint2_linear_59_28)" fill-opacity="0.54"/>
<rect x="33" y="44" width="254" height="30" fill="url(#paint3_linear_59_28)" fill-opacity="0.34"/>
<path d="M51.1264 56.3636C51.1264 57.1307 50.9879 57.7936 50.7109 58.3523C50.4339 58.911 50.054 59.3419 49.571 59.6449C49.0881 59.9479 48.5365 60.0994 47.9162 60.0994C47.2959 60.0994 46.7443 59.9479 46.2614 59.6449C45.7784 59.3419 45.3984 58.911 45.1214 58.3523C44.8445 57.7936 44.706 57.1307 44.706 56.3636C44.706 55.5966 44.8445 54.9337 45.1214 54.375C45.3984 53.8163 45.7784 53.3854 46.2614 53.0824C46.7443 52.7794 47.2959 52.6278 47.9162 52.6278C48.5365 52.6278 49.0881 52.7794 49.571 53.0824C50.054 53.3854 50.4339 53.8163 50.7109 54.375C50.9879 54.9337 51.1264 55.5966 51.1264 56.3636ZM50.2741 56.3636C50.2741 55.7339 50.1688 55.2024 49.9581 54.7692C49.7498 54.3359 49.4669 54.008 49.1094 53.7855C48.7543 53.563 48.3565 53.4517 47.9162 53.4517C47.4759 53.4517 47.0769 53.563 46.7195 53.7855C46.3643 54.008 46.0814 54.3359 45.8707 54.7692C45.6624 55.2024 45.5582 55.7339 45.5582 56.3636C45.5582 56.9934 45.6624 57.5249 45.8707 57.9581C46.0814 58.3913 46.3643 58.7192 46.7195 58.9418C47.0769 59.1643 47.4759 59.2756 47.9162 59.2756C48.3565 59.2756 48.7543 59.1643 49.1094 58.9418C49.4669 58.7192 49.7498 58.3913 49.9581 57.9581C50.1688 57.5249 50.2741 56.9934 50.2741 56.3636ZM54.7095 60.1136C54.1982 60.1136 53.7578 59.9929 53.3885 59.7514C53.0192 59.5099 52.7351 59.1773 52.5362 58.7536C52.3374 58.3298 52.2379 57.8456 52.2379 57.3011C52.2379 56.7472 52.3397 56.2583 52.5433 55.8345C52.7493 55.4084 53.0357 55.0758 53.4027 54.8366C53.772 54.5952 54.2029 54.4744 54.6953 54.4744C55.0788 54.4744 55.4245 54.5455 55.7322 54.6875C56.04 54.8295 56.2921 55.0284 56.4886 55.2841C56.6851 55.5398 56.8071 55.8381 56.8544 56.179H56.0163C55.9524 55.9304 55.8104 55.7102 55.5902 55.5185C55.3724 55.3243 55.0788 55.2273 54.7095 55.2273C54.3828 55.2273 54.0964 55.3125 53.8501 55.483C53.6063 55.651 53.4157 55.889 53.2784 56.1967C53.1435 56.5021 53.076 56.8608 53.076 57.2727C53.076 57.6941 53.1423 58.0611 53.2749 58.3736C53.4098 58.6861 53.5992 58.9287 53.843 59.1016C54.0893 59.2744 54.3781 59.3608 54.7095 59.3608C54.9273 59.3608 55.125 59.3229 55.3026 59.2472C55.4801 59.1714 55.6304 59.0625 55.7536 58.9205C55.8767 58.7784 55.9643 58.608 56.0163 58.4091H56.8544C56.8071 58.7311 56.6899 59.0211 56.5028 59.2791C56.3182 59.5348 56.0732 59.7384 55.7678 59.8899C55.4647 60.0391 55.112 60.1136 54.7095 60.1136ZM60.4517 54.5455V55.2557H57.625V54.5455H60.4517ZM58.4489 53.2386H59.2869V58.4375C59.2869 58.6742 59.3213 58.8518 59.3899 58.9702C59.4609 59.0862 59.5509 59.1643 59.6598 59.2045C59.7711 59.2424 59.8883 59.2614 60.0114 59.2614C60.1037 59.2614 60.1795 59.2566 60.2386 59.2472C60.2978 59.2353 60.3452 59.2259 60.3807 59.2188L60.5511 59.9716C60.4943 59.9929 60.415 60.0142 60.3132 60.0355C60.2114 60.0592 60.0824 60.071 59.9261 60.071C59.6894 60.071 59.4574 60.0201 59.2301 59.9183C59.0052 59.8165 58.8182 59.6615 58.669 59.4531C58.5223 59.2448 58.4489 58.982 58.4489 58.6648V53.2386ZM63.3175 60.1278C62.9718 60.1278 62.6581 60.0627 62.3764 59.9325C62.0947 59.8 61.871 59.6094 61.7053 59.3608C61.5395 59.1098 61.4567 58.8068 61.4567 58.4517C61.4567 58.1392 61.5182 57.8859 61.6413 57.6918C61.7644 57.4953 61.929 57.3414 62.1349 57.2301C62.3409 57.1188 62.5682 57.036 62.8168 56.9815C63.0677 56.9247 63.3198 56.8797 63.5732 56.8466C63.9046 56.804 64.1733 56.772 64.3793 56.7507C64.5876 56.727 64.7391 56.688 64.8338 56.6335C64.9309 56.5791 64.9794 56.4844 64.9794 56.3494V56.321C64.9794 55.9706 64.8835 55.6984 64.6918 55.5043C64.5024 55.3101 64.2147 55.2131 63.8288 55.2131C63.4287 55.2131 63.1151 55.3007 62.8878 55.4759C62.6605 55.651 62.5007 55.8381 62.4084 56.0369L61.6129 55.7528C61.755 55.4214 61.9444 55.1634 62.1811 54.9787C62.4202 54.7917 62.6806 54.6615 62.9624 54.5881C63.2464 54.5123 63.5258 54.4744 63.8004 54.4744C63.9756 54.4744 64.1768 54.4957 64.4041 54.5384C64.6338 54.5786 64.8551 54.6626 65.0682 54.7905C65.2836 54.9183 65.4624 55.1113 65.6044 55.3693C65.7464 55.6274 65.8175 55.973 65.8175 56.4062V60H64.9794V59.2614H64.9368C64.88 59.3797 64.7853 59.5064 64.6527 59.6413C64.5201 59.7763 64.3438 59.8911 64.1236 59.9858C63.9034 60.0805 63.6347 60.1278 63.3175 60.1278ZM63.4453 59.375C63.7768 59.375 64.0561 59.3099 64.2834 59.1797C64.513 59.0495 64.6858 58.8814 64.8018 58.6754C64.9202 58.4695 64.9794 58.2528 64.9794 58.0256V57.2585C64.9439 57.3011 64.8658 57.3402 64.745 57.3757C64.6267 57.4089 64.4893 57.4384 64.3331 57.4645C64.1792 57.4882 64.0289 57.5095 63.8821 57.5284C63.7377 57.545 63.6205 57.5592 63.5305 57.571C63.3127 57.5994 63.1091 57.6456 62.9197 57.7095C62.7327 57.7711 62.5812 57.8646 62.4652 57.9901C62.3516 58.1132 62.2947 58.2812 62.2947 58.4943C62.2947 58.7855 62.4025 59.0057 62.6179 59.1548C62.8357 59.3016 63.1115 59.375 63.4453 59.375ZM76.1255 55H75.2449C75.1928 54.7467 75.1016 54.5241 74.9714 54.3324C74.8436 54.1406 74.6873 53.9796 74.5027 53.8494C74.3204 53.7169 74.118 53.6174 73.8954 53.5511C73.6729 53.4848 73.4409 53.4517 73.1994 53.4517C72.7591 53.4517 72.3601 53.563 72.0027 53.7855C71.6475 54.008 71.3646 54.3359 71.1539 54.7692C70.9456 55.2024 70.8414 55.7339 70.8414 56.3636C70.8414 56.9934 70.9456 57.5249 71.1539 57.9581C71.3646 58.3913 71.6475 58.7192 72.0027 58.9418C72.3601 59.1643 72.7591 59.2756 73.1994 59.2756C73.4409 59.2756 73.6729 59.2424 73.8954 59.1761C74.118 59.1098 74.3204 59.0116 74.5027 58.8814C74.6873 58.7488 74.8436 58.5866 74.9714 58.3949C75.1016 58.2008 75.1928 57.9782 75.2449 57.7273H76.1255C76.0592 58.099 75.9385 58.4316 75.7633 58.7251C75.5881 59.0187 75.3703 59.2685 75.1099 59.4744C74.8495 59.678 74.5571 59.8331 74.2328 59.9396C73.9108 60.0462 73.5663 60.0994 73.1994 60.0994C72.5791 60.0994 72.0275 59.9479 71.5446 59.6449C71.0616 59.3419 70.6816 58.911 70.4047 58.3523C70.1277 57.7936 69.9892 57.1307 69.9892 56.3636C69.9892 55.5966 70.1277 54.9337 70.4047 54.375C70.6816 53.8163 71.0616 53.3854 71.5446 53.0824C72.0275 52.7794 72.5791 52.6278 73.1994 52.6278C73.5663 52.6278 73.9108 52.6811 74.2328 52.7876C74.5571 52.8942 74.8495 53.0504 75.1099 53.2564C75.3703 53.46 75.5881 53.7086 75.7633 54.0021C75.9385 54.2933 76.0592 54.6259 76.1255 55ZM79.6509 60.1136C79.1585 60.1136 78.7264 59.9964 78.3548 59.7621C77.9854 59.5277 77.6966 59.1998 77.4883 58.7784C77.2823 58.357 77.1793 57.8646 77.1793 57.3011C77.1793 56.733 77.2823 56.237 77.4883 55.8132C77.6966 55.3894 77.9854 55.0604 78.3548 54.826C78.7264 54.5916 79.1585 54.4744 79.6509 54.4744C80.1433 54.4744 80.5742 54.5916 80.9435 54.826C81.3152 55.0604 81.604 55.3894 81.81 55.8132C82.0183 56.237 82.1225 56.733 82.1225 57.3011C82.1225 57.8646 82.0183 58.357 81.81 58.7784C81.604 59.1998 81.3152 59.5277 80.9435 59.7621C80.5742 59.9964 80.1433 60.1136 79.6509 60.1136ZM79.6509 59.3608C80.025 59.3608 80.3327 59.2649 80.5742 59.0732C80.8157 58.8814 80.9944 58.6293 81.1104 58.3168C81.2264 58.0043 81.2844 57.6657 81.2844 57.3011C81.2844 56.9366 81.2264 56.5968 81.1104 56.282C80.9944 55.9671 80.8157 55.7126 80.5742 55.5185C80.3327 55.3243 80.025 55.2273 79.6509 55.2273C79.2769 55.2273 78.9691 55.3243 78.7276 55.5185C78.4862 55.7126 78.3074 55.9671 78.1914 56.282C78.0754 56.5968 78.0174 56.9366 78.0174 57.3011C78.0174 57.6657 78.0754 58.0043 78.1914 58.3168C78.3074 58.6293 78.4862 58.8814 78.7276 59.0732C78.9691 59.2649 79.2769 59.3608 79.6509 59.3608ZM85.4615 60.1136C85.0069 60.1136 84.6056 59.9988 84.2576 59.7692C83.9096 59.5372 83.6374 59.2105 83.4409 58.7891C83.2444 58.3653 83.1461 57.8646 83.1461 57.2869C83.1461 56.714 83.2444 56.2169 83.4409 55.7955C83.6374 55.3741 83.9108 55.0485 84.2612 54.8189C84.6116 54.5893 85.0164 54.4744 85.4757 54.4744C85.8308 54.4744 86.1113 54.5336 86.3173 54.652C86.5256 54.768 86.6842 54.9006 86.7931 55.0497C86.9044 55.1965 86.9908 55.3172 87.0524 55.4119H87.1234V52.7273H87.9615V60H87.1518V59.1619H87.0524C86.9908 59.2614 86.9032 59.3868 86.7896 59.5384C86.676 59.6875 86.5138 59.8213 86.3031 59.9396C86.0924 60.0556 85.8118 60.1136 85.4615 60.1136ZM85.5751 59.3608C85.9113 59.3608 86.1954 59.2732 86.4274 59.098C86.6594 58.9205 86.8358 58.6754 86.9565 58.3629C87.0772 58.0481 87.1376 57.6847 87.1376 57.2727C87.1376 56.8655 87.0784 56.5092 86.96 56.2038C86.8417 55.8961 86.6665 55.657 86.4345 55.4865C86.2025 55.3137 85.916 55.2273 85.5751 55.2273C85.22 55.2273 84.9241 55.3184 84.6873 55.5007C84.4529 55.6806 84.2766 55.9257 84.1582 56.2358C84.0422 56.5436 83.9842 56.8892 83.9842 57.2727C83.9842 57.661 84.0434 58.0137 84.1618 58.331C84.2825 58.6458 84.46 58.8968 84.6944 59.0838C84.9312 59.2685 85.2247 59.3608 85.5751 59.3608ZM91.8997 60.1136C91.3741 60.1136 90.9208 59.9976 90.5396 59.7656C90.1608 59.5312 89.8684 59.2045 89.6625 58.7855C89.4589 58.3641 89.3571 57.8741 89.3571 57.3153C89.3571 56.7566 89.4589 56.2642 89.6625 55.8381C89.8684 55.4096 90.1549 55.0758 90.5218 54.8366C90.8912 54.5952 91.322 54.4744 91.8145 54.4744C92.0985 54.4744 92.3791 54.5218 92.6561 54.6165C92.9331 54.7112 93.1852 54.8651 93.4125 55.0781C93.6397 55.2888 93.8208 55.5682 93.9558 55.9162C94.0907 56.2642 94.1582 56.6927 94.1582 57.2017V57.5568H89.9537V56.8324H93.3059C93.3059 56.5246 93.2444 56.25 93.1213 56.0085C93.0005 55.767 92.8277 55.5765 92.6028 55.4368C92.3803 55.2971 92.1175 55.2273 91.8145 55.2273C91.4806 55.2273 91.1918 55.3101 90.948 55.4759C90.7065 55.6392 90.5207 55.8523 90.3904 56.1151C90.2602 56.3778 90.1951 56.6596 90.1951 56.9602V57.4432C90.1951 57.8551 90.2662 58.2043 90.4082 58.4908C90.5526 58.7749 90.7527 58.9915 91.0083 59.1406C91.264 59.2874 91.5611 59.3608 91.8997 59.3608C92.1199 59.3608 92.3187 59.33 92.4963 59.2685C92.6762 59.2045 92.8313 59.1098 92.9615 58.9844C93.0917 58.8565 93.1923 58.6979 93.2633 58.5085L94.073 58.7358C93.9877 59.0104 93.8445 59.2519 93.6433 59.4602C93.4421 59.6662 93.1935 59.8272 92.8975 59.9432C92.6016 60.0568 92.269 60.1136 91.8997 60.1136ZM99.2967 55.767L98.5439 55.9801C98.4965 55.8546 98.4267 55.7327 98.3343 55.6143C98.2444 55.4936 98.1213 55.3942 97.965 55.3161C97.8088 55.2379 97.6087 55.1989 97.3649 55.1989C97.0311 55.1989 96.7529 55.2758 96.5304 55.4297C96.3102 55.5812 96.2001 55.7741 96.2001 56.0085C96.2001 56.2169 96.2759 56.3814 96.4274 56.5021C96.5789 56.6229 96.8156 56.7235 97.1376 56.804L97.9473 57.0028C98.435 57.1212 98.7984 57.3023 99.0375 57.5462C99.2766 57.7876 99.3961 58.099 99.3961 58.4801C99.3961 58.7926 99.3062 59.072 99.1262 59.3182C98.9487 59.5644 98.7001 59.7585 98.3805 59.9006C98.0609 60.0426 97.6892 60.1136 97.2654 60.1136C96.7091 60.1136 96.2486 59.9929 95.8841 59.7514C95.5195 59.5099 95.2886 59.1572 95.1916 58.6932L95.987 58.4943C96.0628 58.7879 96.206 59.008 96.4167 59.1548C96.6298 59.3016 96.908 59.375 97.2512 59.375C97.6419 59.375 97.952 59.2921 98.1816 59.1264C98.4136 58.9583 98.5297 58.7571 98.5297 58.5227C98.5297 58.3333 98.4634 58.1747 98.3308 58.0469C98.1982 57.9167 97.9946 57.8196 97.72 57.7557L96.8109 57.5426C96.3114 57.4242 95.9444 57.2408 95.71 56.9922C95.478 56.7412 95.362 56.4276 95.362 56.0511C95.362 55.7434 95.4484 55.4711 95.6213 55.2344C95.7965 54.9976 96.0344 54.8118 96.335 54.6768C96.6381 54.5419 96.9814 54.4744 97.3649 54.4744C97.9047 54.4744 98.3284 54.5928 98.6362 54.8295C98.9463 55.0663 99.1665 55.3788 99.2967 55.767Z" fill="white"/>
<path d="M168.94 61V53.7273H169.821V56.9659H173.699V53.7273H174.579V61H173.699V57.7472H169.821V61H168.94ZM178.445 61.1136C177.952 61.1136 177.52 60.9964 177.149 60.7621C176.779 60.5277 176.491 60.1998 176.282 59.7784C176.076 59.357 175.973 58.8646 175.973 58.3011C175.973 57.733 176.076 57.237 176.282 56.8132C176.491 56.3894 176.779 56.0604 177.149 55.826C177.52 55.5916 177.952 55.4744 178.445 55.4744C178.937 55.4744 179.368 55.5916 179.737 55.826C180.109 56.0604 180.398 56.3894 180.604 56.8132C180.812 57.237 180.916 57.733 180.916 58.3011C180.916 58.8646 180.812 59.357 180.604 59.7784C180.398 60.1998 180.109 60.5277 179.737 60.7621C179.368 60.9964 178.937 61.1136 178.445 61.1136ZM178.445 60.3608C178.819 60.3608 179.127 60.2649 179.368 60.0732C179.61 59.8814 179.788 59.6293 179.904 59.3168C180.02 59.0043 180.078 58.6657 180.078 58.3011C180.078 57.9366 180.02 57.5968 179.904 57.282C179.788 56.9671 179.61 56.7126 179.368 56.5185C179.127 56.3243 178.819 56.2273 178.445 56.2273C178.071 56.2273 177.763 56.3243 177.522 56.5185C177.28 56.7126 177.101 56.9671 176.985 57.282C176.869 57.5968 176.811 57.9366 176.811 58.3011C176.811 58.6657 176.869 59.0043 176.985 59.3168C177.101 59.6293 177.28 59.8814 177.522 60.0732C177.763 60.2649 178.071 60.3608 178.445 60.3608ZM182.196 61V55.5455H183.005V56.3977H183.076C183.19 56.1065 183.374 55.8804 183.627 55.7195C183.88 55.5561 184.184 55.4744 184.54 55.4744C184.899 55.4744 185.199 55.5561 185.438 55.7195C185.679 55.8804 185.868 56.1065 186.003 56.3977H186.059C186.199 56.116 186.409 55.8923 186.688 55.7266C186.967 55.5585 187.302 55.4744 187.693 55.4744C188.181 55.4744 188.58 55.6271 188.89 55.9325C189.2 56.2356 189.355 56.7079 189.355 57.3494V61H188.517V57.3494C188.517 56.947 188.407 56.6593 188.187 56.4865C187.966 56.3137 187.707 56.2273 187.409 56.2273C187.025 56.2273 186.728 56.3433 186.517 56.5753C186.307 56.8049 186.201 57.0961 186.201 57.4489V61H185.349V57.2642C185.349 56.9541 185.249 56.7043 185.047 56.5149C184.846 56.3232 184.587 56.2273 184.27 56.2273C184.052 56.2273 183.848 56.2853 183.659 56.4013C183.472 56.5173 183.32 56.6783 183.204 56.8842C183.091 57.0878 183.034 57.3234 183.034 57.5909V61H182.196ZM193.174 61.1136C192.649 61.1136 192.195 60.9976 191.814 60.7656C191.435 60.5312 191.143 60.2045 190.937 59.7855C190.733 59.3641 190.631 58.8741 190.631 58.3153C190.631 57.7566 190.733 57.2642 190.937 56.8381C191.143 56.4096 191.429 56.0758 191.796 55.8366C192.166 55.5952 192.596 55.4744 193.089 55.4744C193.373 55.4744 193.653 55.5218 193.93 55.6165C194.207 55.7112 194.46 55.8651 194.687 56.0781C194.914 56.2888 195.095 56.5682 195.23 56.9162C195.365 57.2642 195.433 57.6927 195.433 58.2017V58.5568H191.228V57.8324H194.58C194.58 57.5246 194.519 57.25 194.396 57.0085C194.275 56.767 194.102 56.5765 193.877 56.4368C193.655 56.2971 193.392 56.2273 193.089 56.2273C192.755 56.2273 192.466 56.3101 192.222 56.4759C191.981 56.6392 191.795 56.8523 191.665 57.1151C191.535 57.3778 191.47 57.6596 191.47 57.9602V58.4432C191.47 58.8551 191.541 59.2043 191.683 59.4908C191.827 59.7749 192.027 59.9915 192.283 60.1406C192.538 60.2874 192.836 60.3608 193.174 60.3608C193.394 60.3608 193.593 60.33 193.771 60.2685C193.951 60.2045 194.106 60.1098 194.236 59.9844C194.366 59.8565 194.467 59.6979 194.538 59.5085L195.347 59.7358C195.262 60.0104 195.119 60.2519 194.918 60.4602C194.716 60.6662 194.468 60.8272 194.172 60.9432C193.876 61.0568 193.543 61.1136 193.174 61.1136Z" fill="white"/>
<path d="M202.49 61H201.566L204.237 53.7273H205.146L207.816 61H206.893L204.72 54.8778H204.663L202.49 61ZM202.83 58.1591H206.552V58.9403H202.83V58.1591ZM208.949 61V53.7273H209.787V56.4119H209.858C209.92 56.3172 210.005 56.1965 210.114 56.0497C210.225 55.9006 210.384 55.768 210.59 55.652C210.798 55.5336 211.08 55.4744 211.435 55.4744C211.894 55.4744 212.299 55.5893 212.649 55.8189C213 56.0485 213.273 56.3741 213.47 56.7955C213.666 57.2169 213.764 57.714 213.764 58.2869C213.764 58.8646 213.666 59.3653 213.47 59.7891C213.273 60.2105 213.001 60.5372 212.653 60.7692C212.305 60.9988 211.904 61.1136 211.449 61.1136C211.099 61.1136 210.818 61.0556 210.607 60.9396C210.397 60.8213 210.235 60.6875 210.121 60.5384C210.007 60.3868 209.92 60.2614 209.858 60.1619H209.759V61H208.949ZM209.773 58.2727C209.773 58.6847 209.833 59.0481 209.954 59.3629C210.075 59.6754 210.251 59.9205 210.483 60.098C210.715 60.2732 210.999 60.3608 211.335 60.3608C211.686 60.3608 211.978 60.2685 212.213 60.0838C212.449 59.8968 212.627 59.6458 212.745 59.331C212.866 59.0137 212.926 58.661 212.926 58.2727C212.926 57.8892 212.867 57.5436 212.749 57.2358C212.633 56.9257 212.456 56.6806 212.22 56.5007C211.985 56.3184 211.691 56.2273 211.335 56.2273C210.994 56.2273 210.708 56.3137 210.476 56.4865C210.244 56.657 210.069 56.8961 209.95 57.2038C209.832 57.5092 209.773 57.8655 209.773 58.2727ZM217.262 61.1136C216.77 61.1136 216.338 60.9964 215.966 60.7621C215.597 60.5277 215.308 60.1998 215.1 59.7784C214.894 59.357 214.791 58.8646 214.791 58.3011C214.791 57.733 214.894 57.237 215.1 56.8132C215.308 56.3894 215.597 56.0604 215.966 55.826C216.338 55.5916 216.77 55.4744 217.262 55.4744C217.755 55.4744 218.186 55.5916 218.555 55.826C218.927 56.0604 219.215 56.3894 219.421 56.8132C219.63 57.237 219.734 57.733 219.734 58.3011C219.734 58.8646 219.63 59.357 219.421 59.7784C219.215 60.1998 218.927 60.5277 218.555 60.7621C218.186 60.9964 217.755 61.1136 217.262 61.1136ZM217.262 60.3608C217.636 60.3608 217.944 60.2649 218.186 60.0732C218.427 59.8814 218.606 59.6293 218.722 59.3168C218.838 59.0043 218.896 58.6657 218.896 58.3011C218.896 57.9366 218.838 57.5968 218.722 57.282C218.606 56.9671 218.427 56.7126 218.186 56.5185C217.944 56.3243 217.636 56.2273 217.262 56.2273C216.888 56.2273 216.58 56.3243 216.339 56.5185C216.097 56.7126 215.919 56.9671 215.803 57.282C215.687 57.5968 215.629 57.9366 215.629 58.3011C215.629 58.6657 215.687 59.0043 215.803 59.3168C215.919 59.6293 216.097 59.8814 216.339 60.0732C216.58 60.2649 216.888 60.3608 217.262 60.3608ZM224.451 58.7699V55.5455H225.289V61H224.451V60.0767H224.394C224.266 60.3537 224.067 60.5893 223.797 60.7834C223.527 60.9751 223.186 61.071 222.775 61.071C222.434 61.071 222.131 60.9964 221.865 60.8473C221.6 60.6958 221.392 60.4685 221.24 60.1655C221.089 59.8601 221.013 59.4754 221.013 59.0114V55.5455H221.851V58.9545C221.851 59.3523 221.962 59.6695 222.185 59.9062C222.41 60.143 222.696 60.2614 223.044 60.2614C223.253 60.2614 223.465 60.2081 223.68 60.1016C223.898 59.995 224.08 59.8317 224.227 59.6115C224.376 59.3913 224.451 59.1108 224.451 58.7699ZM229.196 55.5455V56.2557H226.369V55.5455H229.196ZM227.193 54.2386H228.031V59.4375C228.031 59.6742 228.065 59.8518 228.134 59.9702C228.205 60.0862 228.295 60.1643 228.404 60.2045C228.515 60.2424 228.632 60.2614 228.756 60.2614C228.848 60.2614 228.924 60.2566 228.983 60.2472C229.042 60.2353 229.089 60.2259 229.125 60.2188L229.295 60.9716C229.238 60.9929 229.159 61.0142 229.057 61.0355C228.956 61.0592 228.827 61.071 228.67 61.071C228.434 61.071 228.202 61.0201 227.974 60.9183C227.749 60.8165 227.562 60.6615 227.413 60.4531C227.266 60.2448 227.193 59.982 227.193 59.6648V54.2386Z" fill="white"/>
<path d="M242.031 55.5455C241.988 55.1856 241.815 54.9062 241.512 54.7074C241.209 54.5085 240.838 54.4091 240.397 54.4091C240.075 54.4091 239.794 54.4612 239.552 54.5653C239.313 54.6695 239.126 54.8127 238.991 54.995C238.858 55.1773 238.792 55.3845 238.792 55.6165C238.792 55.8106 238.838 55.9775 238.931 56.1172C239.025 56.2545 239.146 56.3693 239.293 56.4616C239.44 56.5516 239.594 56.6262 239.755 56.6854C239.916 56.7422 240.063 56.7884 240.198 56.8239L240.937 57.0227C241.126 57.0724 241.337 57.1411 241.569 57.2287C241.804 57.3163 242.027 57.4358 242.24 57.5874C242.456 57.7365 242.633 57.9283 242.773 58.1626C242.913 58.397 242.983 58.6847 242.983 59.0256C242.983 59.4186 242.88 59.7737 242.674 60.0909C242.47 60.4081 242.172 60.6603 241.779 60.8473C241.388 61.0343 240.913 61.1278 240.355 61.1278C239.834 61.1278 239.383 61.0438 239.002 60.8757C238.623 60.7076 238.325 60.4732 238.107 60.1726C237.891 59.8719 237.769 59.5227 237.741 59.125H238.65C238.674 59.3996 238.766 59.6269 238.927 59.8068C239.09 59.9844 239.296 60.117 239.545 60.2045C239.796 60.2898 240.066 60.3324 240.355 60.3324C240.691 60.3324 240.993 60.2779 241.26 60.169C241.528 60.0578 241.74 59.9039 241.896 59.7074C242.052 59.5085 242.13 59.2765 242.13 59.0114C242.13 58.7699 242.063 58.5734 241.928 58.4219C241.793 58.2704 241.615 58.1473 241.395 58.0526C241.175 57.9579 240.937 57.875 240.681 57.804L239.786 57.5483C239.218 57.3849 238.768 57.1518 238.437 56.8487C238.106 56.5457 237.94 56.1491 237.94 55.6591C237.94 55.2519 238.05 54.8968 238.27 54.5938C238.493 54.2884 238.791 54.0516 239.165 53.8835C239.541 53.7131 239.962 53.6278 240.426 53.6278C240.894 53.6278 241.311 53.7119 241.676 53.88C242.04 54.0457 242.329 54.273 242.542 54.5618C242.758 54.8506 242.871 55.1785 242.883 55.5455H242.031ZM246.604 61.1136C246.078 61.1136 245.625 60.9976 245.244 60.7656C244.865 60.5312 244.573 60.2045 244.367 59.7855C244.163 59.3641 244.061 58.8741 244.061 58.3153C244.061 57.7566 244.163 57.2642 244.367 56.8381C244.573 56.4096 244.859 56.0758 245.226 55.8366C245.595 55.5952 246.026 55.4744 246.519 55.4744C246.803 55.4744 247.083 55.5218 247.36 55.6165C247.637 55.7112 247.889 55.8651 248.117 56.0781C248.344 56.2888 248.525 56.5682 248.66 56.9162C248.795 57.2642 248.862 57.6927 248.862 58.2017V58.5568H244.658V57.8324H248.01C248.01 57.5246 247.948 57.25 247.825 57.0085C247.705 56.767 247.532 56.5765 247.307 56.4368C247.084 56.2971 246.822 56.2273 246.519 56.2273C246.185 56.2273 245.896 56.3101 245.652 56.4759C245.411 56.6392 245.225 56.8523 245.095 57.1151C244.964 57.3778 244.899 57.6596 244.899 57.9602V58.4432C244.899 58.8551 244.97 59.2043 245.112 59.4908C245.257 59.7749 245.457 59.9915 245.712 60.1406C245.968 60.2874 246.265 60.3608 246.604 60.3608C246.824 60.3608 247.023 60.33 247.2 60.2685C247.38 60.2045 247.535 60.1098 247.666 59.9844C247.796 59.8565 247.896 59.6979 247.967 59.5085L248.777 59.7358C248.692 60.0104 248.549 60.2519 248.347 60.4602C248.146 60.6662 247.898 60.8272 247.602 60.9432C247.306 61.0568 246.973 61.1136 246.604 61.1136ZM250.137 61V55.5455H250.947V56.3693H251.004C251.103 56.0994 251.283 55.8804 251.543 55.7124C251.804 55.5443 252.097 55.4602 252.424 55.4602C252.486 55.4602 252.563 55.4614 252.655 55.4638C252.747 55.4661 252.817 55.4697 252.864 55.4744V56.3267C252.836 56.3196 252.771 56.3089 252.669 56.2947C252.57 56.2782 252.464 56.2699 252.353 56.2699C252.088 56.2699 251.851 56.3255 251.643 56.4368C251.437 56.5457 251.274 56.6972 251.153 56.8913C251.034 57.0831 250.975 57.3021 250.975 57.5483V61H250.137ZM258.484 55.5455L256.467 61H255.615L253.598 55.5455H254.507L256.013 59.892H256.069L257.575 55.5455H258.484ZM259.59 61V55.5455H260.428V61H259.59ZM260.016 54.6364C259.853 54.6364 259.712 54.5807 259.594 54.4695C259.478 54.3582 259.42 54.2244 259.42 54.0682C259.42 53.9119 259.478 53.7782 259.594 53.6669C259.712 53.5556 259.853 53.5 260.016 53.5C260.18 53.5 260.319 53.5556 260.435 53.6669C260.554 53.7782 260.613 53.9119 260.613 54.0682C260.613 54.2244 260.554 54.3582 260.435 54.4695C260.319 54.5807 260.18 54.6364 260.016 54.6364ZM264.179 61.1136C263.668 61.1136 263.228 60.9929 262.858 60.7514C262.489 60.5099 262.205 60.1773 262.006 59.7536C261.807 59.3298 261.708 58.8456 261.708 58.3011C261.708 57.7472 261.809 57.2583 262.013 56.8345C262.219 56.4084 262.505 56.0758 262.872 55.8366C263.242 55.5952 263.673 55.4744 264.165 55.4744C264.549 55.4744 264.894 55.5455 265.202 55.6875C265.51 55.8295 265.762 56.0284 265.958 56.2841C266.155 56.5398 266.277 56.8381 266.324 57.179H265.486C265.422 56.9304 265.28 56.7102 265.06 56.5185C264.842 56.3243 264.549 56.2273 264.179 56.2273C263.853 56.2273 263.566 56.3125 263.32 56.483C263.076 56.651 262.885 56.889 262.748 57.1967C262.613 57.5021 262.546 57.8608 262.546 58.2727C262.546 58.6941 262.612 59.0611 262.745 59.3736C262.88 59.6861 263.069 59.9287 263.313 60.1016C263.559 60.2744 263.848 60.3608 264.179 60.3608C264.397 60.3608 264.595 60.3229 264.772 60.2472C264.95 60.1714 265.1 60.0625 265.223 59.9205C265.346 59.7784 265.434 59.608 265.486 59.4091H266.324C266.277 59.7311 266.16 60.0211 265.973 60.2791C265.788 60.5348 265.543 60.7384 265.237 60.8899C264.934 61.0391 264.582 61.1136 264.179 61.1136ZM269.836 61.1136C269.311 61.1136 268.857 60.9976 268.476 60.7656C268.097 60.5312 267.805 60.2045 267.599 59.7855C267.395 59.3641 267.294 58.8741 267.294 58.3153C267.294 57.7566 267.395 57.2642 267.599 56.8381C267.805 56.4096 268.091 56.0758 268.458 55.8366C268.828 55.5952 269.259 55.4744 269.751 55.4744C270.035 55.4744 270.316 55.5218 270.593 55.6165C270.87 55.7112 271.122 55.8651 271.349 56.0781C271.576 56.2888 271.757 56.5682 271.892 56.9162C272.027 57.2642 272.095 57.6927 272.095 58.2017V58.5568H267.89V57.8324H271.242C271.242 57.5246 271.181 57.25 271.058 57.0085C270.937 56.767 270.764 56.5765 270.539 56.4368C270.317 56.2971 270.054 56.2273 269.751 56.2273C269.417 56.2273 269.128 56.3101 268.884 56.4759C268.643 56.6392 268.457 56.8523 268.327 57.1151C268.197 57.3778 268.132 57.6596 268.132 57.9602V58.4432C268.132 58.8551 268.203 59.2043 268.345 59.4908C268.489 59.7749 268.689 59.9915 268.945 60.1406C269.201 60.2874 269.498 60.3608 269.836 60.3608C270.056 60.3608 270.255 60.33 270.433 60.2685C270.613 60.2045 270.768 60.1098 270.898 59.9844C271.028 59.8565 271.129 59.6979 271.2 59.5085L272.009 59.7358C271.924 60.0104 271.781 60.2519 271.58 60.4602C271.379 60.6662 271.13 60.8272 270.834 60.9432C270.538 61.0568 270.206 61.1136 269.836 61.1136ZM277.233 56.767L276.48 56.9801C276.433 56.8546 276.363 56.7327 276.271 56.6143C276.181 56.4936 276.058 56.3942 275.902 56.3161C275.745 56.2379 275.545 56.1989 275.301 56.1989C274.968 56.1989 274.689 56.2758 274.467 56.4297C274.247 56.5812 274.137 56.7741 274.137 57.0085C274.137 57.2169 274.212 57.3814 274.364 57.5021C274.515 57.6229 274.752 57.7235 275.074 57.804L275.884 58.0028C276.371 58.1212 276.735 58.3023 276.974 58.5462C277.213 58.7876 277.333 59.099 277.333 59.4801C277.333 59.7926 277.243 60.072 277.063 60.3182C276.885 60.5644 276.637 60.7585 276.317 60.9006C275.997 61.0426 275.626 61.1136 275.202 61.1136C274.646 61.1136 274.185 60.9929 273.821 60.7514C273.456 60.5099 273.225 60.1572 273.128 59.6932L273.924 59.4943C273.999 59.7879 274.143 60.008 274.353 60.1548C274.566 60.3016 274.844 60.375 275.188 60.375C275.578 60.375 275.889 60.2921 276.118 60.1264C276.35 59.9583 276.466 59.7571 276.466 59.5227C276.466 59.3333 276.4 59.1747 276.267 59.0469C276.135 58.9167 275.931 58.8196 275.657 58.7557L274.747 58.5426C274.248 58.4242 273.881 58.2408 273.647 57.9922C273.415 57.7412 273.299 57.4276 273.299 57.0511C273.299 56.7434 273.385 56.4711 273.558 56.2344C273.733 55.9976 273.971 55.8118 274.272 55.6768C274.575 55.5419 274.918 55.4744 275.301 55.4744C275.841 55.4744 276.265 55.5928 276.573 55.8295C276.883 56.0663 277.103 56.3788 277.233 56.767Z" fill="white"/>
<path d="M45.8807 104V96.7273H48.3381C48.9086 96.7273 49.375 96.8303 49.7372 97.0362C50.1018 97.2398 50.3717 97.5156 50.5469 97.8636C50.7221 98.2116 50.8097 98.5999 50.8097 99.0284C50.8097 99.4569 50.7221 99.8464 50.5469 100.197C50.3741 100.547 50.1065 100.826 49.7443 101.035C49.3821 101.241 48.9181 101.344 48.3523 101.344H46.5909V100.562H48.3239C48.7145 100.562 49.0282 100.495 49.2649 100.36C49.5017 100.225 49.6733 100.043 49.7798 99.8132C49.8887 99.5812 49.9432 99.3196 49.9432 99.0284C49.9432 98.7372 49.8887 98.4768 49.7798 98.2472C49.6733 98.0175 49.5005 97.8376 49.2614 97.7074C49.0223 97.5748 48.705 97.5085 48.3097 97.5085H46.7614V104H45.8807ZM52.1147 104V98.5455H52.9244V99.3693H52.9812C53.0806 99.0994 53.2605 98.8804 53.521 98.7124C53.7814 98.5443 54.0749 98.4602 54.4016 98.4602C54.4632 98.4602 54.5401 98.4614 54.6325 98.4638C54.7248 98.4661 54.7946 98.4697 54.842 98.4744V99.3267C54.8136 99.3196 54.7485 99.3089 54.6467 99.2947C54.5472 99.2782 54.4419 99.2699 54.3306 99.2699C54.0655 99.2699 53.8287 99.3255 53.6204 99.4368C53.4144 99.5457 53.2511 99.6972 53.1303 99.8913C53.012 100.083 52.9528 100.302 52.9528 100.548V104H52.1147ZM57.8853 104.114C57.3929 104.114 56.9608 103.996 56.5891 103.762C56.2198 103.528 55.931 103.2 55.7227 102.778C55.5167 102.357 55.4137 101.865 55.4137 101.301C55.4137 100.733 55.5167 100.237 55.7227 99.8132C55.931 99.3894 56.2198 99.0604 56.5891 98.826C56.9608 98.5916 57.3929 98.4744 57.8853 98.4744C58.3777 98.4744 58.8086 98.5916 59.1779 98.826C59.5496 99.0604 59.8384 99.3894 60.0444 99.8132C60.2527 100.237 60.3569 100.733 60.3569 101.301C60.3569 101.865 60.2527 102.357 60.0444 102.778C59.8384 103.2 59.5496 103.528 59.1779 103.762C58.8086 103.996 58.3777 104.114 57.8853 104.114ZM57.8853 103.361C58.2594 103.361 58.5671 103.265 58.8086 103.073C59.0501 102.881 59.2288 102.629 59.3448 102.317C59.4608 102.004 59.5188 101.666 59.5188 101.301C59.5188 100.937 59.4608 100.597 59.3448 100.282C59.2288 99.9671 59.0501 99.7126 58.8086 99.5185C58.5671 99.3243 58.2594 99.2273 57.8853 99.2273C57.5112 99.2273 57.2035 99.3243 56.962 99.5185C56.7205 99.7126 56.5418 99.9671 56.4258 100.282C56.3098 100.597 56.2518 100.937 56.2518 101.301C56.2518 101.666 56.3098 102.004 56.4258 102.317C56.5418 102.629 56.7205 102.881 56.962 103.073C57.2035 103.265 57.5112 103.361 57.8853 103.361ZM65.9011 98.5455L63.8841 104H63.0318L61.0147 98.5455H61.9238L63.4295 102.892H63.4863L64.992 98.5455H65.9011ZM67.0073 104V98.5455H67.8453V104H67.0073ZM67.4334 97.6364C67.2701 97.6364 67.1292 97.5807 67.0108 97.4695C66.8948 97.3582 66.8368 97.2244 66.8368 97.0682C66.8368 96.9119 66.8948 96.7782 67.0108 96.6669C67.1292 96.5556 67.2701 96.5 67.4334 96.5C67.5968 96.5 67.7364 96.5556 67.8525 96.6669C67.9708 96.7782 68.03 96.9119 68.03 97.0682C68.03 97.2244 67.9708 97.3582 67.8525 97.4695C67.7364 97.5807 67.5968 97.6364 67.4334 97.6364ZM71.44 104.114C70.9854 104.114 70.5842 103.999 70.2362 103.769C69.8881 103.537 69.6159 103.21 69.4194 102.789C69.2229 102.365 69.1246 101.865 69.1246 101.287C69.1246 100.714 69.2229 100.217 69.4194 99.7955C69.6159 99.3741 69.8893 99.0485 70.2397 98.8189C70.5901 98.5893 70.9949 98.4744 71.4542 98.4744C71.8093 98.4744 72.0898 98.5336 72.2958 98.652C72.5041 98.768 72.6628 98.9006 72.7717 99.0497C72.8829 99.1965 72.9693 99.3172 73.0309 99.4119H73.1019V96.7273H73.94V104H73.1303V103.162H73.0309C72.9693 103.261 72.8817 103.387 72.7681 103.538C72.6545 103.687 72.4923 103.821 72.2816 103.94C72.0709 104.056 71.7904 104.114 71.44 104.114ZM71.5536 103.361C71.8898 103.361 72.1739 103.273 72.4059 103.098C72.6379 102.92 72.8143 102.675 72.935 102.363C73.0558 102.048 73.1161 101.685 73.1161 101.273C73.1161 100.866 73.0569 100.509 72.9386 100.204C72.8202 99.8961 72.645 99.657 72.413 99.4865C72.181 99.3137 71.8945 99.2273 71.5536 99.2273C71.1985 99.2273 70.9026 99.3184 70.6658 99.5007C70.4315 99.6806 70.2551 99.9257 70.1367 100.236C70.0207 100.544 69.9627 100.889 69.9627 101.273C69.9627 101.661 70.0219 102.014 70.1403 102.331C70.261 102.646 70.4386 102.897 70.6729 103.084C70.9097 103.268 71.2032 103.361 71.5536 103.361ZM75.5913 104V98.5455H76.4293V104H75.5913ZM76.0174 97.6364C75.854 97.6364 75.7132 97.5807 75.5948 97.4695C75.4788 97.3582 75.4208 97.2244 75.4208 97.0682C75.4208 96.9119 75.4788 96.7782 75.5948 96.6669C75.7132 96.5556 75.854 96.5 76.0174 96.5C76.1808 96.5 76.3204 96.5556 76.4364 96.6669C76.5548 96.7782 76.614 96.9119 76.614 97.0682C76.614 97.2244 76.5548 97.3582 76.4364 97.4695C76.3204 97.5807 76.1808 97.6364 76.0174 97.6364ZM78.8024 100.719V104H77.9643V98.5455H78.774V99.3977H78.845C78.9728 99.1207 79.167 98.8982 79.4274 98.7301C79.6878 98.5597 80.024 98.4744 80.4359 98.4744C80.8052 98.4744 81.1284 98.5502 81.4054 98.7017C81.6824 98.8509 81.8978 99.0781 82.0517 99.3835C82.2056 99.6866 82.2825 100.07 82.2825 100.534V104H81.4444V100.591C81.4444 100.162 81.3332 99.8286 81.1106 99.5895C80.8881 99.348 80.5827 99.2273 80.1944 99.2273C79.9269 99.2273 79.6878 99.2853 79.4771 99.4013C79.2688 99.5173 79.1042 99.6866 78.9835 99.9091C78.8627 100.132 78.8024 100.402 78.8024 100.719ZM86.0156 106.159C85.6108 106.159 85.2628 106.107 84.9716 106.003C84.6804 105.901 84.4377 105.766 84.2436 105.598C84.0518 105.432 83.8991 105.255 83.7855 105.065L84.4531 104.597C84.5289 104.696 84.6248 104.81 84.7408 104.938C84.8568 105.068 85.0154 105.18 85.2166 105.275C85.4202 105.372 85.6866 105.42 86.0156 105.42C86.456 105.42 86.8194 105.314 87.1058 105.101C87.3923 104.888 87.5355 104.554 87.5355 104.099V102.991H87.4645C87.4029 103.091 87.3153 103.214 87.2017 103.361C87.0904 103.505 86.9295 103.634 86.7188 103.748C86.5104 103.859 86.2287 103.915 85.8736 103.915C85.4332 103.915 85.0379 103.811 84.6875 103.602C84.3395 103.394 84.0637 103.091 83.8601 102.693C83.6589 102.295 83.5582 101.812 83.5582 101.244C83.5582 100.686 83.6565 100.199 83.853 99.7848C84.0495 99.3681 84.3229 99.0462 84.6733 98.8189C85.0237 98.5893 85.4285 98.4744 85.8878 98.4744C86.2429 98.4744 86.5246 98.5336 86.733 98.652C86.9437 98.768 87.1046 98.9006 87.2159 99.0497C87.3295 99.1965 87.4171 99.3172 87.4787 99.4119H87.5639V98.5455H88.3736V104.156C88.3736 104.625 88.267 105.006 88.054 105.3C87.8433 105.596 87.5592 105.812 87.2017 105.95C86.8466 106.089 86.4512 106.159 86.0156 106.159ZM85.9872 103.162C86.3234 103.162 86.6075 103.085 86.8395 102.931C87.0715 102.777 87.2479 102.556 87.3686 102.267C87.4893 101.978 87.5497 101.633 87.5497 101.23C87.5497 100.837 87.4905 100.49 87.3722 100.19C87.2538 99.889 87.0786 99.6534 86.8466 99.483C86.6146 99.3125 86.3281 99.2273 85.9872 99.2273C85.6321 99.2273 85.3362 99.3172 85.0994 99.4972C84.8651 99.6771 84.6887 99.9186 84.5703 100.222C84.4543 100.525 84.3963 100.861 84.3963 101.23C84.3963 101.609 84.4555 101.944 84.5739 102.235C84.6946 102.524 84.8722 102.751 85.1065 102.917C85.3433 103.08 85.6368 103.162 85.9872 103.162ZM92.8338 104V96.7273H95.3764C95.883 96.7273 96.3009 96.8149 96.63 96.9901C96.959 97.1629 97.2041 97.3961 97.3651 97.6896C97.526 97.9808 97.6065 98.304 97.6065 98.6591C97.6065 98.9716 97.5509 99.2296 97.4396 99.4332C97.3307 99.6368 97.1863 99.7978 97.0064 99.9162C96.8288 100.035 96.6359 100.122 96.4276 100.179V100.25C96.6501 100.264 96.8738 100.342 97.0987 100.484C97.3236 100.626 97.5118 100.83 97.6634 101.095C97.8149 101.36 97.8906 101.685 97.8906 102.068C97.8906 102.433 97.8078 102.761 97.642 103.052C97.4763 103.343 97.2147 103.574 96.8572 103.744C96.4998 103.915 96.0346 104 95.4616 104H92.8338ZM93.7145 103.219H95.4616C96.0369 103.219 96.4453 103.107 96.6868 102.885C96.9306 102.66 97.0526 102.388 97.0526 102.068C97.0526 101.822 96.9898 101.595 96.8643 101.386C96.7389 101.176 96.5601 101.008 96.3281 100.882C96.0961 100.754 95.8215 100.69 95.5043 100.69H93.7145V103.219ZM93.7145 99.9233H95.348C95.6132 99.9233 95.8523 99.8712 96.0653 99.767C96.2808 99.6629 96.4512 99.5161 96.5767 99.3267C96.7045 99.1373 96.7685 98.9148 96.7685 98.6591C96.7685 98.3395 96.6572 98.0684 96.4347 97.8459C96.2121 97.621 95.8594 97.5085 95.3764 97.5085H93.7145V99.9233ZM101.511 104.114C100.985 104.114 100.532 103.998 100.151 103.766C99.7721 103.531 99.4798 103.205 99.2738 102.786C99.0702 102.364 98.9684 101.874 98.9684 101.315C98.9684 100.757 99.0702 100.264 99.2738 99.8381C99.4798 99.4096 99.7662 99.0758 100.133 98.8366C100.502 98.5952 100.933 98.4744 101.426 98.4744C101.71 98.4744 101.99 98.5218 102.267 98.6165C102.544 98.7112 102.797 98.8651 103.024 99.0781C103.251 99.2888 103.432 99.5682 103.567 99.9162C103.702 100.264 103.77 100.693 103.77 101.202V101.557H99.565V100.832H102.917C102.917 100.525 102.856 100.25 102.733 100.009C102.612 99.767 102.439 99.5765 102.214 99.4368C101.992 99.2971 101.729 99.2273 101.426 99.2273C101.092 99.2273 100.803 99.3101 100.559 99.4759C100.318 99.6392 100.132 99.8523 100.002 100.115C99.8716 100.378 99.8065 100.66 99.8065 100.96V101.443C99.8065 101.855 99.8775 102.204 100.02 102.491C100.164 102.775 100.364 102.991 100.62 103.141C100.875 103.287 101.172 103.361 101.511 103.361C101.731 103.361 101.93 103.33 102.108 103.268C102.288 103.205 102.443 103.11 102.573 102.984C102.703 102.857 102.804 102.698 102.875 102.509L103.684 102.736C103.599 103.01 103.456 103.252 103.255 103.46C103.053 103.666 102.805 103.827 102.509 103.943C102.213 104.057 101.88 104.114 101.511 104.114ZM108.908 99.767L108.155 99.9801C108.108 99.8546 108.038 99.7327 107.946 99.6143C107.856 99.4936 107.733 99.3942 107.576 99.3161C107.42 99.2379 107.22 99.1989 106.976 99.1989C106.642 99.1989 106.364 99.2758 106.142 99.4297C105.922 99.5812 105.811 99.7741 105.811 100.009C105.811 100.217 105.887 100.381 106.039 100.502C106.19 100.623 106.427 100.723 106.749 100.804L107.559 101.003C108.046 101.121 108.41 101.302 108.649 101.546C108.888 101.788 109.007 102.099 109.007 102.48C109.007 102.793 108.917 103.072 108.738 103.318C108.56 103.564 108.311 103.759 107.992 103.901C107.672 104.043 107.301 104.114 106.877 104.114C106.32 104.114 105.86 103.993 105.495 103.751C105.131 103.51 104.9 103.157 104.803 102.693L105.598 102.494C105.674 102.788 105.817 103.008 106.028 103.155C106.241 103.302 106.519 103.375 106.863 103.375C107.253 103.375 107.563 103.292 107.793 103.126C108.025 102.958 108.141 102.757 108.141 102.523C108.141 102.333 108.075 102.175 107.942 102.047C107.81 101.917 107.606 101.82 107.331 101.756L106.422 101.543C105.923 101.424 105.556 101.241 105.321 100.992C105.089 100.741 104.973 100.428 104.973 100.051C104.973 99.7434 105.06 99.4711 105.233 99.2344C105.408 98.9976 105.646 98.8118 105.946 98.6768C106.249 98.5419 106.593 98.4744 106.976 98.4744C107.516 98.4744 107.94 98.5928 108.248 98.8295C108.558 99.0663 108.778 99.3788 108.908 99.767ZM112.641 98.5455V99.2557H109.814V98.5455H112.641ZM110.638 97.2386H111.476V102.438C111.476 102.674 111.511 102.852 111.579 102.97C111.65 103.086 111.74 103.164 111.849 103.205C111.961 103.242 112.078 103.261 112.201 103.261C112.293 103.261 112.369 103.257 112.428 103.247C112.487 103.235 112.535 103.226 112.57 103.219L112.741 103.972C112.684 103.993 112.604 104.014 112.503 104.036C112.401 104.059 112.272 104.071 112.116 104.071C111.879 104.071 111.647 104.02 111.42 103.918C111.195 103.817 111.008 103.661 110.858 103.453C110.712 103.245 110.638 102.982 110.638 102.665V97.2386ZM46.7614 108.727V116H45.8807V108.727H46.7614ZM48.1294 109.509V108.727H53.584V109.509H51.2971V116H50.4164V109.509H48.1294ZM61.5057 111.767L60.7528 111.98C60.7055 111.855 60.6357 111.733 60.5433 111.614C60.4534 111.494 60.3303 111.394 60.174 111.316C60.0178 111.238 59.8177 111.199 59.5739 111.199C59.2401 111.199 58.9619 111.276 58.7393 111.43C58.5192 111.581 58.4091 111.774 58.4091 112.009C58.4091 112.217 58.4848 112.381 58.6364 112.502C58.7879 112.623 59.0246 112.723 59.3466 112.804L60.1562 113.003C60.6439 113.121 61.0073 113.302 61.2464 113.546C61.4856 113.788 61.6051 114.099 61.6051 114.48C61.6051 114.793 61.5152 115.072 61.3352 115.318C61.1577 115.564 60.9091 115.759 60.5895 115.901C60.2699 116.043 59.8982 116.114 59.4744 116.114C58.9181 116.114 58.4576 115.993 58.093 115.751C57.7285 115.51 57.4976 115.157 57.4006 114.693L58.196 114.494C58.2718 114.788 58.415 115.008 58.6257 115.155C58.8388 115.302 59.117 115.375 59.4602 115.375C59.8509 115.375 60.161 115.292 60.3906 115.126C60.6226 114.958 60.7386 114.757 60.7386 114.523C60.7386 114.333 60.6723 114.175 60.5398 114.047C60.4072 113.917 60.2036 113.82 59.929 113.756L59.0199 113.543C58.5204 113.424 58.1534 113.241 57.919 112.992C57.687 112.741 57.571 112.428 57.571 112.051C57.571 111.743 57.6574 111.471 57.8303 111.234C58.0054 110.998 58.2434 110.812 58.544 110.677C58.8471 110.542 59.1903 110.474 59.5739 110.474C60.1136 110.474 60.5374 110.593 60.8452 110.83C61.1553 111.066 61.3755 111.379 61.5057 111.767ZM65.1536 116.114C64.628 116.114 64.1747 115.998 63.7935 115.766C63.4147 115.531 63.1223 115.205 62.9164 114.786C62.7128 114.364 62.611 113.874 62.611 113.315C62.611 112.757 62.7128 112.264 62.9164 111.838C63.1223 111.41 63.4088 111.076 63.7757 110.837C64.1451 110.595 64.5759 110.474 65.0684 110.474C65.3525 110.474 65.633 110.522 65.91 110.616C66.187 110.711 66.4391 110.865 66.6664 111.078C66.8936 111.289 67.0748 111.568 67.2097 111.916C67.3446 112.264 67.4121 112.693 67.4121 113.202V113.557H63.2076V112.832H66.5598C66.5598 112.525 66.4983 112.25 66.3752 112.009C66.2544 111.767 66.0816 111.576 65.8567 111.437C65.6342 111.297 65.3714 111.227 65.0684 111.227C64.7346 111.227 64.4457 111.31 64.2019 111.476C63.9604 111.639 63.7746 111.852 63.6444 112.115C63.5141 112.378 63.449 112.66 63.449 112.96V113.443C63.449 113.855 63.5201 114.204 63.6621 114.491C63.8065 114.775 64.0066 114.991 64.2623 115.141C64.5179 115.287 64.815 115.361 65.1536 115.361C65.3738 115.361 65.5726 115.33 65.7502 115.268C65.9301 115.205 66.0852 115.11 66.2154 114.984C66.3456 114.857 66.4462 114.698 66.5172 114.509L67.3269 114.736C67.2417 115.01 67.0984 115.252 66.8972 115.46C66.696 115.666 66.4474 115.827 66.1515 115.943C65.8555 116.057 65.5229 116.114 65.1536 116.114ZM68.687 116V110.545H69.4966V111.369H69.5534C69.6529 111.099 69.8328 110.88 70.0932 110.712C70.3536 110.544 70.6472 110.46 70.9739 110.46C71.0355 110.46 71.1124 110.461 71.2047 110.464C71.2971 110.466 71.3669 110.47 71.4142 110.474V111.327C71.3858 111.32 71.3207 111.309 71.2189 111.295C71.1195 111.278 71.0141 111.27 70.9029 111.27C70.6377 111.27 70.401 111.326 70.1926 111.437C69.9867 111.546 69.8233 111.697 69.7026 111.891C69.5842 112.083 69.525 112.302 69.525 112.548V116H68.687ZM77.0339 110.545L75.0169 116H74.1646L72.1475 110.545H73.0566L74.5623 114.892H74.6191L76.1248 110.545H77.0339ZM78.1401 116V110.545H78.9782V116H78.1401ZM78.5662 109.636C78.4029 109.636 78.262 109.581 78.1436 109.469C78.0276 109.358 77.9696 109.224 77.9696 109.068C77.9696 108.912 78.0276 108.778 78.1436 108.667C78.262 108.556 78.4029 108.5 78.5662 108.5C78.7296 108.5 78.8693 108.556 78.9853 108.667C79.1036 108.778 79.1628 108.912 79.1628 109.068C79.1628 109.224 79.1036 109.358 78.9853 109.469C78.8693 109.581 78.7296 109.636 78.5662 109.636ZM82.729 116.114C82.2177 116.114 81.7773 115.993 81.408 115.751C81.0387 115.51 80.7546 115.177 80.5558 114.754C80.3569 114.33 80.2575 113.846 80.2575 113.301C80.2575 112.747 80.3593 112.258 80.5629 111.835C80.7688 111.408 81.0553 111.076 81.4222 110.837C81.7915 110.595 82.2224 110.474 82.7148 110.474C83.0984 110.474 83.444 110.545 83.7518 110.688C84.0595 110.83 84.3117 111.028 84.5082 111.284C84.7047 111.54 84.8266 111.838 84.8739 112.179H84.0359C83.9719 111.93 83.8299 111.71 83.6097 111.518C83.3919 111.324 83.0984 111.227 82.729 111.227C82.4023 111.227 82.1159 111.312 81.8697 111.483C81.6258 111.651 81.4353 111.889 81.2979 112.197C81.163 112.502 81.0955 112.861 81.0955 113.273C81.0955 113.694 81.1618 114.061 81.2944 114.374C81.4293 114.686 81.6187 114.929 81.8626 115.102C82.1088 115.274 82.3976 115.361 82.729 115.361C82.9469 115.361 83.1445 115.323 83.3221 115.247C83.4996 115.171 83.65 115.062 83.7731 114.92C83.8962 114.778 83.9838 114.608 84.0359 114.409H84.8739C84.8266 114.731 84.7094 115.021 84.5224 115.279C84.3377 115.535 84.0927 115.738 83.7873 115.89C83.4843 116.039 83.1315 116.114 82.729 116.114ZM88.386 116.114C87.8604 116.114 87.4071 115.998 87.0259 115.766C86.6471 115.531 86.3548 115.205 86.1488 114.786C85.9452 114.364 85.8434 113.874 85.8434 113.315C85.8434 112.757 85.9452 112.264 86.1488 111.838C86.3548 111.41 86.6412 111.076 87.0082 110.837C87.3775 110.595 87.8084 110.474 88.3008 110.474C88.5849 110.474 88.8654 110.522 89.1424 110.616C89.4194 110.711 89.6715 110.865 89.8988 111.078C90.1261 111.289 90.3072 111.568 90.4421 111.916C90.5771 112.264 90.6445 112.693 90.6445 113.202V113.557H86.44V112.832H89.7923C89.7923 112.525 89.7307 112.25 89.6076 112.009C89.4869 111.767 89.314 111.576 89.0891 111.437C88.8666 111.297 88.6038 111.227 88.3008 111.227C87.967 111.227 87.6781 111.31 87.4343 111.476C87.1928 111.639 87.007 111.852 86.8768 112.115C86.7466 112.378 86.6815 112.66 86.6815 112.96V113.443C86.6815 113.855 86.7525 114.204 86.8945 114.491C87.0389 114.775 87.239 114.991 87.4947 115.141C87.7504 115.287 88.0475 115.361 88.386 115.361C88.6062 115.361 88.805 115.33 88.9826 115.268C89.1625 115.205 89.3176 115.11 89.4478 114.984C89.578 114.857 89.6786 114.698 89.7496 114.509L90.5593 114.736C90.4741 115.01 90.3308 115.252 90.1296 115.46C89.9284 115.666 89.6798 115.827 89.3839 115.943C89.0879 116.057 88.7553 116.114 88.386 116.114ZM95.783 111.767L95.0302 111.98C94.9828 111.855 94.913 111.733 94.8207 111.614C94.7307 111.494 94.6076 111.394 94.4513 111.316C94.2951 111.238 94.0951 111.199 93.8512 111.199C93.5174 111.199 93.2392 111.276 93.0167 111.43C92.7965 111.581 92.6864 111.774 92.6864 112.009C92.6864 112.217 92.7622 112.381 92.9137 112.502C93.0652 112.623 93.302 112.723 93.6239 112.804L94.4336 113.003C94.9213 113.121 95.2847 113.302 95.5238 113.546C95.7629 113.788 95.8825 114.099 95.8825 114.48C95.8825 114.793 95.7925 115.072 95.6126 115.318C95.435 115.564 95.1864 115.759 94.8668 115.901C94.5472 116.043 94.1755 116.114 93.7518 116.114C93.1954 116.114 92.735 115.993 92.3704 115.751C92.0058 115.51 91.775 115.157 91.6779 114.693L92.4734 114.494C92.5491 114.788 92.6924 115.008 92.9031 115.155C93.1161 115.302 93.3943 115.375 93.7376 115.375C94.1282 115.375 94.4383 115.292 94.668 115.126C94.9 114.958 95.016 114.757 95.016 114.523C95.016 114.333 94.9497 114.175 94.8171 114.047C94.6845 113.917 94.4809 113.82 94.2063 113.756L93.2972 113.543C92.7977 113.424 92.4308 113.241 92.1964 112.992C91.9644 112.741 91.8484 112.428 91.8484 112.051C91.8484 111.743 91.9348 111.471 92.1076 111.234C92.2828 110.998 92.5207 110.812 92.8214 110.677C93.1244 110.542 93.4677 110.474 93.8512 110.474C94.391 110.474 94.8147 110.593 95.1225 110.83C95.4326 111.066 95.6528 111.379 95.783 111.767ZM102.016 116.099C101.538 116.099 101.126 116.012 100.78 115.837C100.435 115.661 100.168 115.421 99.9814 115.116C99.7943 114.81 99.7008 114.461 99.7008 114.068C99.7008 113.765 99.7647 113.496 99.8926 113.262C100.023 113.025 100.202 112.806 100.429 112.605C100.658 112.402 100.922 112.198 101.221 111.994L102.272 111.213C102.478 111.078 102.642 110.934 102.765 110.78C102.891 110.626 102.954 110.425 102.954 110.176C102.954 109.991 102.872 109.813 102.709 109.64C102.548 109.467 102.336 109.381 102.073 109.381C101.888 109.381 101.725 109.428 101.583 109.523C101.443 109.615 101.333 109.733 101.253 109.878C101.175 110.02 101.135 110.167 101.135 110.318C101.135 110.489 101.182 110.661 101.274 110.837C101.369 111.009 101.488 111.187 101.633 111.369C101.779 111.549 101.931 111.734 102.087 111.923L105.425 116H104.417L101.661 112.676C101.405 112.368 101.173 112.089 100.965 111.838C100.757 111.587 100.591 111.34 100.468 111.096C100.345 110.852 100.283 110.588 100.283 110.304C100.283 109.977 100.355 109.691 100.5 109.445C100.647 109.196 100.851 109.003 101.114 108.866C101.379 108.726 101.689 108.656 102.045 108.656C102.409 108.656 102.723 108.727 102.986 108.869C103.248 109.009 103.451 109.195 103.593 109.427C103.735 109.656 103.806 109.906 103.806 110.176C103.806 110.524 103.72 110.826 103.547 111.082C103.374 111.337 103.138 111.575 102.84 111.795L101.391 112.875C101.064 113.116 100.843 113.351 100.727 113.578C100.611 113.805 100.553 113.969 100.553 114.068C100.553 114.295 100.612 114.507 100.731 114.704C100.849 114.9 101.016 115.059 101.231 115.18C101.447 115.3 101.699 115.361 101.988 115.361C102.262 115.361 102.53 115.303 102.79 115.187C103.051 115.068 103.286 114.898 103.497 114.675C103.71 114.453 103.878 114.185 104.001 113.873C104.127 113.56 104.189 113.209 104.189 112.818H104.999C104.999 113.301 104.943 113.695 104.832 114.001C104.721 114.306 104.595 114.545 104.456 114.718C104.316 114.891 104.204 115.02 104.118 115.105C104.09 115.141 104.064 115.176 104.04 115.212C104.017 115.247 103.991 115.283 103.962 115.318C103.728 115.581 103.432 115.777 103.074 115.908C102.717 116.036 102.364 116.099 102.016 116.099ZM113.256 110.545C113.214 110.186 113.041 109.906 112.738 109.707C112.435 109.509 112.063 109.409 111.623 109.409C111.301 109.409 111.019 109.461 110.778 109.565C110.539 109.67 110.352 109.813 110.217 109.995C110.084 110.177 110.018 110.384 110.018 110.616C110.018 110.811 110.064 110.978 110.156 111.117C110.251 111.254 110.372 111.369 110.518 111.462C110.665 111.552 110.819 111.626 110.98 111.685C111.141 111.742 111.289 111.788 111.424 111.824L112.163 112.023C112.352 112.072 112.563 112.141 112.795 112.229C113.029 112.316 113.253 112.436 113.466 112.587C113.681 112.737 113.859 112.928 113.999 113.163C114.138 113.397 114.208 113.685 114.208 114.026C114.208 114.419 114.105 114.774 113.899 115.091C113.696 115.408 113.397 115.66 113.004 115.847C112.614 116.034 112.139 116.128 111.58 116.128C111.059 116.128 110.608 116.044 110.227 115.876C109.848 115.708 109.55 115.473 109.332 115.173C109.117 114.872 108.995 114.523 108.967 114.125H109.876C109.899 114.4 109.992 114.627 110.153 114.807C110.316 114.984 110.522 115.117 110.771 115.205C111.022 115.29 111.291 115.332 111.58 115.332C111.916 115.332 112.218 115.278 112.486 115.169C112.753 115.058 112.965 114.904 113.121 114.707C113.278 114.509 113.356 114.277 113.356 114.011C113.356 113.77 113.288 113.573 113.153 113.422C113.018 113.27 112.841 113.147 112.621 113.053C112.401 112.958 112.163 112.875 111.907 112.804L111.012 112.548C110.444 112.385 109.994 112.152 109.663 111.849C109.331 111.546 109.165 111.149 109.165 110.659C109.165 110.252 109.276 109.897 109.496 109.594C109.718 109.288 110.017 109.052 110.391 108.884C110.767 108.713 111.187 108.628 111.651 108.628C112.12 108.628 112.537 108.712 112.901 108.88C113.266 109.046 113.555 109.273 113.768 109.562C113.983 109.851 114.097 110.179 114.109 110.545H113.256ZM117.758 116.114C117.266 116.114 116.834 115.996 116.462 115.762C116.093 115.528 115.804 115.2 115.596 114.778C115.39 114.357 115.287 113.865 115.287 113.301C115.287 112.733 115.39 112.237 115.596 111.813C115.804 111.389 116.093 111.06 116.462 110.826C116.834 110.592 117.266 110.474 117.758 110.474C118.251 110.474 118.682 110.592 119.051 110.826C119.423 111.06 119.711 111.389 119.917 111.813C120.126 112.237 120.23 112.733 120.23 113.301C120.23 113.865 120.126 114.357 119.917 114.778C119.711 115.2 119.423 115.528 119.051 115.762C118.682 115.996 118.251 116.114 117.758 116.114ZM117.758 115.361C118.132 115.361 118.44 115.265 118.682 115.073C118.923 114.881 119.102 114.629 119.218 114.317C119.334 114.004 119.392 113.666 119.392 113.301C119.392 112.937 119.334 112.597 119.218 112.282C119.102 111.967 118.923 111.713 118.682 111.518C118.44 111.324 118.132 111.227 117.758 111.227C117.384 111.227 117.077 111.324 116.835 111.518C116.594 111.713 116.415 111.967 116.299 112.282C116.183 112.597 116.125 112.937 116.125 113.301C116.125 113.666 116.183 114.004 116.299 114.317C116.415 114.629 116.594 114.881 116.835 115.073C117.077 115.265 117.384 115.361 117.758 115.361ZM122.347 108.727V116H121.509V108.727H122.347ZM127.32 113.77V110.545H128.158V116H127.32V115.077H127.263C127.135 115.354 126.936 115.589 126.666 115.783C126.396 115.975 126.056 116.071 125.644 116.071C125.303 116.071 125 115.996 124.735 115.847C124.469 115.696 124.261 115.469 124.11 115.165C123.958 114.86 123.882 114.475 123.882 114.011V110.545H124.72V113.955C124.72 114.352 124.832 114.67 125.054 114.906C125.279 115.143 125.566 115.261 125.914 115.261C126.122 115.261 126.334 115.208 126.549 115.102C126.767 114.995 126.949 114.832 127.096 114.612C127.245 114.391 127.32 114.111 127.32 113.77ZM132.065 110.545V111.256H129.238V110.545H132.065ZM130.062 109.239H130.9V114.438C130.9 114.674 130.935 114.852 131.003 114.97C131.074 115.086 131.164 115.164 131.273 115.205C131.384 115.242 131.502 115.261 131.625 115.261C131.717 115.261 131.793 115.257 131.852 115.247C131.911 115.235 131.958 115.226 131.994 115.219L132.164 115.972C132.108 115.993 132.028 116.014 131.926 116.036C131.825 116.059 131.696 116.071 131.539 116.071C131.303 116.071 131.071 116.02 130.843 115.918C130.618 115.817 130.431 115.661 130.282 115.453C130.136 115.245 130.062 114.982 130.062 114.665V109.239ZM133.326 116V110.545H134.164V116H133.326ZM133.752 109.636C133.588 109.636 133.448 109.581 133.329 109.469C133.213 109.358 133.155 109.224 133.155 109.068C133.155 108.912 133.213 108.778 133.329 108.667C133.448 108.556 133.588 108.5 133.752 108.5C133.915 108.5 134.055 108.556 134.171 108.667C134.289 108.778 134.348 108.912 134.348 109.068C134.348 109.224 134.289 109.358 134.171 109.469C134.055 109.581 133.915 109.636 133.752 109.636ZM137.915 116.114C137.422 116.114 136.99 115.996 136.618 115.762C136.249 115.528 135.96 115.2 135.752 114.778C135.546 114.357 135.443 113.865 135.443 113.301C135.443 112.733 135.546 112.237 135.752 111.813C135.96 111.389 136.249 111.06 136.618 110.826C136.99 110.592 137.422 110.474 137.915 110.474C138.407 110.474 138.838 110.592 139.207 110.826C139.579 111.06 139.868 111.389 140.074 111.813C140.282 112.237 140.386 112.733 140.386 113.301C140.386 113.865 140.282 114.357 140.074 114.778C139.868 115.2 139.579 115.528 139.207 115.762C138.838 115.996 138.407 116.114 137.915 116.114ZM137.915 115.361C138.289 115.361 138.596 115.265 138.838 115.073C139.079 114.881 139.258 114.629 139.374 114.317C139.49 114.004 139.548 113.666 139.548 113.301C139.548 112.937 139.49 112.597 139.374 112.282C139.258 111.967 139.079 111.713 138.838 111.518C138.596 111.324 138.289 111.227 137.915 111.227C137.541 111.227 137.233 111.324 136.991 111.518C136.75 111.713 136.571 111.967 136.455 112.282C136.339 112.597 136.281 112.937 136.281 113.301C136.281 113.666 136.339 114.004 136.455 114.317C136.571 114.629 136.75 114.881 136.991 115.073C137.233 115.265 137.541 115.361 137.915 115.361ZM142.504 112.719V116H141.665V110.545H142.475V111.398H142.546C142.674 111.121 142.868 110.898 143.129 110.73C143.389 110.56 143.725 110.474 144.137 110.474C144.506 110.474 144.83 110.55 145.107 110.702C145.384 110.851 145.599 111.078 145.753 111.384C145.907 111.687 145.984 112.07 145.984 112.534V116H145.146V112.591C145.146 112.162 145.034 111.829 144.812 111.589C144.589 111.348 144.284 111.227 143.896 111.227C143.628 111.227 143.389 111.285 143.178 111.401C142.97 111.517 142.805 111.687 142.685 111.909C142.564 112.132 142.504 112.402 142.504 112.719ZM151.379 111.767L150.626 111.98C150.579 111.855 150.509 111.733 150.416 111.614C150.326 111.494 150.203 111.394 150.047 111.316C149.891 111.238 149.691 111.199 149.447 111.199C149.113 111.199 148.835 111.276 148.612 111.43C148.392 111.581 148.282 111.774 148.282 112.009C148.282 112.217 148.358 112.381 148.509 112.502C148.661 112.623 148.898 112.723 149.22 112.804L150.029 113.003C150.517 113.121 150.88 113.302 151.119 113.546C151.359 113.788 151.478 114.099 151.478 114.48C151.478 114.793 151.388 115.072 151.208 115.318C151.031 115.564 150.782 115.759 150.463 115.901C150.143 116.043 149.771 116.114 149.347 116.114C148.791 116.114 148.331 115.993 147.966 115.751C147.602 115.51 147.371 115.157 147.274 114.693L148.069 114.494C148.145 114.788 148.288 115.008 148.499 115.155C148.712 115.302 148.99 115.375 149.333 115.375C149.724 115.375 150.034 115.292 150.264 115.126C150.496 114.958 150.612 114.757 150.612 114.523C150.612 114.333 150.545 114.175 150.413 114.047C150.28 113.917 150.077 113.82 149.802 113.756L148.893 113.543C148.393 113.424 148.026 113.241 147.792 112.992C147.56 112.741 147.444 112.428 147.444 112.051C147.444 111.743 147.53 111.471 147.703 111.234C147.878 110.998 148.116 110.812 148.417 110.677C148.72 110.542 149.063 110.474 149.447 110.474C149.987 110.474 150.41 110.593 150.718 110.83C151.028 111.066 151.249 111.379 151.379 111.767Z" fill="white"/>
<g filter="url(#filter6_d_59_28)">
<path d="M49 140C49 135.582 52.5817 132 57 132H120V140C120 144.418 116.418 148 112 148H49V140Z" fill="#480CA8"/>
</g>
<path d="M74.7646 139.363C74.748 139.208 74.6781 139.087 74.555 139.001C74.4331 138.915 74.2745 138.871 74.0792 138.871C73.9419 138.871 73.8241 138.892 73.7259 138.934C73.6276 138.975 73.5524 139.031 73.5004 139.102C73.4483 139.173 73.4216 139.254 73.4205 139.346C73.4205 139.421 73.4376 139.487 73.4719 139.543C73.5075 139.598 73.5554 139.646 73.6158 139.685C73.6761 139.723 73.743 139.754 73.8164 139.781C73.8898 139.807 73.9638 139.828 74.0384 139.846L74.3793 139.931C74.5166 139.963 74.6486 140.007 74.7752 140.061C74.9031 140.116 75.0173 140.184 75.1179 140.267C75.2197 140.35 75.3002 140.45 75.3594 140.567C75.4186 140.684 75.4482 140.822 75.4482 140.979C75.4482 141.192 75.3937 141.38 75.2848 141.542C75.1759 141.703 75.0185 141.829 74.8125 141.92C74.6077 142.01 74.3597 142.055 74.0685 142.055C73.7856 142.055 73.54 142.011 73.3317 141.924C73.1245 141.836 72.9624 141.708 72.8452 141.54C72.7292 141.372 72.6664 141.167 72.657 140.926H73.305C73.3145 141.052 73.3536 141.158 73.4222 141.242C73.4909 141.326 73.5803 141.389 73.6903 141.43C73.8016 141.471 73.9259 141.492 74.0632 141.492C74.2064 141.492 74.3319 141.471 74.4396 141.428C74.5485 141.384 74.6338 141.324 74.6953 141.247C74.7569 141.169 74.7882 141.078 74.7894 140.974C74.7882 140.879 74.7604 140.801 74.706 140.739C74.6515 140.677 74.5752 140.625 74.4769 140.583C74.3799 140.54 74.2662 140.503 74.136 140.469L73.7223 140.363C73.4228 140.286 73.1861 140.169 73.0121 140.013C72.8393 139.856 72.7528 139.647 72.7528 139.386C72.7528 139.172 72.8108 138.984 72.9268 138.824C73.044 138.663 73.2032 138.538 73.4045 138.449C73.6057 138.359 73.8336 138.314 74.0881 138.314C74.3461 138.314 74.5722 138.359 74.7663 138.449C74.9616 138.538 75.1149 138.661 75.2262 138.82C75.3375 138.977 75.3949 139.158 75.3984 139.363H74.7646ZM77.3689 139.273V139.77H75.801V139.273H77.3689ZM76.1881 138.619H76.8309V141.18C76.8309 141.266 76.8439 141.332 76.8699 141.379C76.8972 141.424 76.9327 141.454 76.9765 141.471C77.0203 141.487 77.0688 141.496 77.1221 141.496C77.1623 141.496 77.199 141.493 77.2322 141.487C77.2665 141.481 77.2925 141.476 77.3103 141.471L77.4186 141.973C77.3843 141.985 77.3351 141.998 77.2712 142.012C77.2085 142.027 77.1315 142.035 77.0404 142.037C76.8794 142.042 76.7344 142.018 76.6054 141.964C76.4764 141.91 76.374 141.826 76.2982 141.712C76.2236 141.599 76.1869 141.457 76.1881 141.286V138.619ZM78.6912 142.055C78.5184 142.055 78.3627 142.024 78.2243 141.963C78.0869 141.9 77.978 141.808 77.8975 141.686C77.8182 141.564 77.7786 141.413 77.7786 141.235C77.7786 141.081 77.807 140.954 77.8638 140.853C77.9206 140.752 77.9982 140.672 78.0964 140.612C78.1947 140.551 78.3053 140.506 78.4284 140.475C78.5527 140.443 78.6812 140.42 78.8137 140.406C78.9735 140.389 79.1032 140.374 79.2026 140.361C79.302 140.347 79.3742 140.326 79.4192 140.297C79.4654 140.268 79.4885 140.222 79.4885 140.161V140.15C79.4885 140.016 79.4488 139.913 79.3695 139.839C79.2902 139.766 79.176 139.729 79.0268 139.729C78.8694 139.729 78.7445 139.763 78.6522 139.832C78.561 139.901 78.4995 139.982 78.4675 140.075L77.8674 139.99C77.9147 139.824 77.9928 139.686 78.1017 139.575C78.2106 139.462 78.3438 139.378 78.5012 139.322C78.6587 139.266 78.8327 139.237 79.0233 139.237C79.1547 139.237 79.2855 139.253 79.4157 139.283C79.5459 139.314 79.6648 139.365 79.7725 139.436C79.8803 139.506 79.9667 139.601 80.0318 139.722C80.0981 139.843 80.1312 139.994 80.1312 140.175V142H79.5133V141.625H79.492C79.4529 141.701 79.3979 141.772 79.3269 141.838C79.257 141.904 79.1689 141.956 79.0623 141.996C78.957 142.036 78.8333 142.055 78.6912 142.055ZM78.8581 141.583C78.9872 141.583 79.099 141.557 79.1937 141.506C79.2884 141.454 79.3612 141.386 79.4121 141.3C79.4642 141.215 79.4902 141.122 79.4902 141.022V140.7C79.4701 140.717 79.4358 140.732 79.3873 140.746C79.3399 140.761 79.2866 140.773 79.2275 140.784C79.1683 140.794 79.1097 140.804 79.0517 140.812C78.9937 140.82 78.9434 140.828 78.9007 140.833C78.8049 140.846 78.719 140.868 78.6433 140.897C78.5675 140.927 78.5078 140.968 78.464 141.022C78.4202 141.074 78.3983 141.141 78.3983 141.224C78.3983 141.342 78.4415 141.432 78.5279 141.492C78.6143 141.553 78.7244 141.583 78.8581 141.583ZM80.7775 142V139.273H81.4007V139.727H81.4292C81.4789 139.57 81.5641 139.449 81.6848 139.363C81.8068 139.277 81.9458 139.234 82.1021 139.234C82.1376 139.234 82.1773 139.235 82.2211 139.239C82.266 139.241 82.3033 139.246 82.3329 139.251V139.843C82.3057 139.833 82.2625 139.825 82.2033 139.818C82.1453 139.81 82.0891 139.805 82.0346 139.805C81.9174 139.805 81.8121 139.831 81.7186 139.882C81.6262 139.931 81.5534 140.001 81.5002 140.089C81.4469 140.178 81.4203 140.281 81.4203 140.397V142H80.7775ZM84.2683 139.273V139.77H82.7005V139.273H84.2683ZM83.0875 138.619H83.7303V141.18C83.7303 141.266 83.7433 141.332 83.7694 141.379C83.7966 141.424 83.8321 141.454 83.8759 141.471C83.9197 141.487 83.9682 141.496 84.0215 141.496C84.0617 141.496 84.0984 141.493 84.1316 141.487C84.1659 141.481 84.1919 141.476 84.2097 141.471L84.318 141.973C84.2837 141.985 84.2346 141.998 84.1706 142.012C84.1079 142.027 84.031 142.035 83.9398 142.037C83.7788 142.042 83.6338 142.018 83.5048 141.964C83.3758 141.91 83.2734 141.826 83.1976 141.712C83.123 141.599 83.0864 141.457 83.0875 141.286V138.619ZM89.0628 138.364V142H88.4768L86.7634 139.523H86.7332V142H86.0745V138.364H86.664L88.3756 140.842H88.4076V138.364H89.0628ZM90.9418 142.053C90.6754 142.053 90.4446 141.995 90.2493 141.877C90.054 141.76 89.9025 141.596 89.7947 141.386C89.6882 141.175 89.6349 140.929 89.6349 140.647C89.6349 140.365 89.6882 140.118 89.7947 139.907C89.9025 139.695 90.054 139.53 90.2493 139.413C90.4446 139.296 90.6754 139.237 90.9418 139.237C91.2081 139.237 91.4389 139.296 91.6342 139.413C91.8295 139.53 91.9805 139.695 92.087 139.907C92.1947 140.118 92.2486 140.365 92.2486 140.647C92.2486 140.929 92.1947 141.175 92.087 141.386C91.9805 141.596 91.8295 141.76 91.6342 141.877C91.4389 141.995 91.2081 142.053 90.9418 142.053ZM90.9453 141.538C91.0897 141.538 91.2105 141.499 91.3075 141.419C91.4046 141.339 91.4768 141.231 91.5241 141.096C91.5727 140.961 91.5969 140.811 91.5969 140.645C91.5969 140.478 91.5727 140.327 91.5241 140.192C91.4768 140.056 91.4046 139.948 91.3075 139.868C91.2105 139.787 91.0897 139.747 90.9453 139.747C90.7973 139.747 90.6742 139.787 90.576 139.868C90.4789 139.948 90.4061 140.056 90.3576 140.192C90.3103 140.327 90.2866 140.478 90.2866 140.645C90.2866 140.811 90.3103 140.961 90.3576 141.096C90.4061 141.231 90.4789 141.339 90.576 141.419C90.6742 141.499 90.7973 141.538 90.9453 141.538ZM93.2789 142L92.5083 139.273H93.1634L93.6428 141.19H93.6677L94.1578 139.273H94.8058L95.2959 141.18H95.3225L95.7948 139.273H96.4518L95.6794 142H95.01L94.4987 140.157H94.4614L93.95 142H93.2789Z" fill="white"/>
<path d="M127.169 169L127 168.705L151.355 154.535L151.252 140.763L222.194 99.6417L262.83 76L263 76.2962L222.363 99.9379L151.593 140.96L151.696 154.732L127.169 169Z" fill="#00CAF9"/>
<path d="M137.169 171L137 170.705L161.355 156.535L161.252 142.763L232.194 101.642L272.83 78L273 78.2962L232.363 101.938L161.593 142.96L161.696 156.732L137.169 171Z" fill="#00CAF9"/>
<path d="M260.039 91.0001L260.146 91.1871L244.73 100.181L244.805 108.904L199.9 135.004L174.177 150.01L174.069 149.823L199.792 134.817L244.589 108.78L244.514 100.056L260.039 91.0001Z" fill="#00CAF9"/>
<path d="M172.748 168.858L172.642 168.67L188.118 159.779L188.1 151.056L233.179 125.255L259 110.421L259.107 110.609L233.285 125.443L188.316 151.182L188.333 159.905L172.748 168.858Z" fill="#00CAF9"/>
<path d="M394.586 89.5858C393.805 90.3668 393.805 91.6332 394.586 92.4142L407.314 105.142C408.095 105.923 409.361 105.923 410.142 105.142C410.923 104.361 410.923 103.095 410.142 102.314L398.828 91L410.142 79.6863C410.923 78.9052 410.923 77.6389 410.142 76.8579C409.361 76.0768 408.095 76.0768 407.314 76.8579L394.586 89.5858ZM518 89L457 89V93L518 93V89ZM457 89H396V93H457V89Z" fill="#4895EF"/>
<path d="M519.414 116.586C520.195 117.367 520.195 118.633 519.414 119.414L506.686 132.142C505.905 132.923 504.639 132.923 503.858 132.142C503.077 131.361 503.077 130.095 503.858 129.314L515.172 118L503.858 106.686C503.077 105.905 503.077 104.639 503.858 103.858C504.639 103.077 505.905 103.077 506.686 103.858L519.414 116.586ZM396 116L457 116V120L396 120V116ZM457 116H518V120H457V116Z" fill="#DD0EE2"/>
<path d="M394.586 143.586C393.805 144.367 393.805 145.633 394.586 146.414L407.314 159.142C408.095 159.923 409.361 159.923 410.142 159.142C410.923 158.361 410.923 157.095 410.142 156.314L398.828 145L410.142 133.686C410.923 132.905 410.923 131.639 410.142 130.858C409.361 130.077 408.095 130.077 407.314 130.858L394.586 143.586ZM518 143H457V147H518V143ZM457 143L396 143V147L457 147V143Z" fill="#4895EF"/>
<defs>
<filter id="filter0_d_59_28" x="643" y="185" width="17" height="63" filterUnits="userSpaceOnUse" color-interpolation-filters="sRGB">
<feFlood flood-opacity="0" result="BackgroundImageFix"/>
<feColorMatrix in="SourceAlpha" type="matrix" values="0 0 0 0 0 0 0 0 0 0 0 0 0 0 0 0 0 0 127 0" result="hardAlpha"/>
<feOffset dy="4"/>
<feGaussianBlur stdDeviation="4"/>
<feComposite in2="hardAlpha" operator="out"/>
<feColorMatrix type="matrix" values="0 0 0 0 0.866667 0 0 0 0 0.054902 0 0 0 0 0.886275 0 0 0 0.5 0"/>
<feBlend mode="normal" in2="BackgroundImageFix" result="effect1_dropShadow_59_28"/>
<feBlend mode="normal" in="SourceGraphic" in2="effect1_dropShadow_59_28" result="shape"/>
</filter>
<filter id="filter1_d_59_28" x="900" y="181" width="17" height="67" filterUnits="userSpaceOnUse" color-interpolation-filters="sRGB">
<feFlood flood-opacity="0" result="BackgroundImageFix"/>
<feColorMatrix in="SourceAlpha" type="matrix" values="0 0 0 0 0 0 0 0 0 0 0 0 0 0 0 0 0 0 127 0" result="hardAlpha"/>
<feOffset dy="4"/>
<feGaussianBlur stdDeviation="4"/>
<feComposite in2="hardAlpha" operator="out"/>
<feColorMatrix type="matrix" values="0 0 0 0 0.866667 0 0 0 0 0.054902 0 0 0 0 0.886275 0 0 0 0.5 0"/>
<feBlend mode="normal" in2="BackgroundImageFix" result="effect1_dropShadow_59_28"/>
<feBlend mode="normal" in="SourceGraphic" in2="effect1_dropShadow_59_28" result="shape"/>
</filter>
<filter id="filter2_d_59_28" x="644" y="231" width="273" height="17" filterUnits="userSpaceOnUse" color-interpolation-filters="sRGB">
<feFlood flood-opacity="0" result="BackgroundImageFix"/>
<feColorMatrix in="SourceAlpha" type="matrix" values="0 0 0 0 0 0 0 0 0 0 0 0 0 0 0 0 0 0 127 0" result="hardAlpha"/>
<feOffset dy="4"/>
<feGaussianBlur stdDeviation="4"/>
<feComposite in2="hardAlpha" operator="out"/>
<feColorMatrix type="matrix" values="0 0 0 0 0.866667 0 0 0 0 0.054902 0 0 0 0 0.886275 0 0 0 0.5 0"/>
<feBlend mode="normal" in2="BackgroundImageFix" result="effect1_dropShadow_59_28"/>
<feBlend mode="normal" in="SourceGraphic" in2="effect1_dropShadow_59_28" result="shape"/>
</filter>
<filter id="filter3_d_59_28" x="579.75" y="63.625" width="151.5" height="137.75" filterUnits="userSpaceOnUse" color-interpolation-filters="sRGB">
<feFlood flood-opacity="0" result="BackgroundImageFix"/>
<feColorMatrix in="SourceAlpha" type="matrix" values="0 0 0 0 0 0 0 0 0 0 0 0 0 0 0 0 0 0 127 0" result="hardAlpha"/>
<feOffset dy="5"/>
<feGaussianBlur stdDeviation="3.5"/>
<feComposite in2="hardAlpha" operator="out"/>
<feColorMatrix type="matrix" values="0 0 0 0 0.866667 0 0 0 0 0.054902 0 0 0 0 0.886275 0 0 0 0.25 0"/>
<feBlend mode="normal" in2="BackgroundImageFix" result="effect1_dropShadow_59_28"/>
<feBlend mode="normal" in="SourceGraphic" in2="effect1_dropShadow_59_28" result="shape"/>
</filter>
<filter id="filter4_d_59_28" x="830" y="45" width="158" height="158" filterUnits="userSpaceOnUse" color-interpolation-filters="sRGB">
<feFlood flood-opacity="0" result="BackgroundImageFix"/>
<feColorMatrix in="SourceAlpha" type="matrix" values="0 0 0 0 0 0 0 0 0 0 0 0 0 0 0 0 0 0 127 0" result="hardAlpha"/>
<feOffset dy="4"/>
<feGaussianBlur stdDeviation="2"/>
<feComposite in2="hardAlpha" operator="out"/>
<feColorMatrix type="matrix" values="0 0 0 0 0 0 0 0 0 0 0 0 0 0 0 0 0 0 0.25 0"/>
<feBlend mode="normal" in2="BackgroundImageFix" result="effect1_dropShadow_59_28"/>
<feBlend mode="normal" in="SourceGraphic" in2="effect1_dropShadow_59_28" result="shape"/>
</filter>
<filter id="filter5_d_59_28" x="847.138" y="54.9162" width="123.724" height="139.182" filterUnits="userSpaceOnUse" color-interpolation-filters="sRGB">
<feFlood flood-opacity="0" result="BackgroundImageFix"/>
<feColorMatrix in="SourceAlpha" type="matrix" values="0 0 0 0 0 0 0 0 0 0 0 0 0 0 0 0 0 0 127 0" result="hardAlpha"/>
<feOffset dy="5"/>
<feGaussianBlur stdDeviation="2"/>
<feComposite in2="hardAlpha" operator="out"/>
<feColorMatrix type="matrix" values="0 0 0 0 0.866667 0 0 0 0 0.054902 0 0 0 0 0.886275 0 0 0 0.25 0"/>
<feBlend mode="normal" in2="BackgroundImageFix" result="effect1_dropShadow_59_28"/>
<feBlend mode="normal" in="SourceGraphic" in2="effect1_dropShadow_59_28" result="shape"/>
</filter>
<filter id="filter6_d_59_28" x="41.5" y="124.5" width="86" height="31" filterUnits="userSpaceOnUse" color-interpolation-filters="sRGB">
<feFlood flood-opacity="0" result="BackgroundImageFix"/>
<feColorMatrix in="SourceAlpha" type="matrix" values="0 0 0 0 0 0 0 0 0 0 0 0 0 0 0 0 0 0 127 0" result="hardAlpha"/>
<feMorphology radius="2" operator="dilate" in="SourceAlpha" result="effect1_dropShadow_59_28"/>
<feOffset/>
<feGaussianBlur stdDeviation="2.75"/>
<feComposite in2="hardAlpha" operator="out"/>
<feColorMatrix type="matrix" values="0 0 0 0 0.282353 0 0 0 0 0.584314 0 0 0 0 0.937255 0 0 0 1 0"/>
<feBlend mode="normal" in2="BackgroundImageFix" result="effect1_dropShadow_59_28"/>
<feBlend mode="normal" in="SourceGraphic" in2="effect1_dropShadow_59_28" result="shape"/>
</filter>
<linearGradient id="paint0_linear_59_28" x1="158" y1="174.498" x2="158" y2="299.212" gradientUnits="userSpaceOnUse">
<stop stop-color="#DD0EE2"/>
<stop offset="1" stop-color="#4895EF"/>
</linearGradient>
<radialGradient id="paint1_radial_59_28" cx="0" cy="0" r="1" gradientUnits="userSpaceOnUse" gradientTransform="translate(10.8042 299.213) rotate(137.02) scale(417.166 625.535)">
<stop/>
<stop offset="1" stop-color="#3F37C9"/>
</radialGradient>
<linearGradient id="paint2_linear_59_28" x1="160" y1="44" x2="160" y2="171" gradientUnits="userSpaceOnUse">
<stop stop-color="#4895EF"/>
<stop offset="1" stop-color="#3A0CA3"/>
</linearGradient>
<linearGradient id="paint3_linear_59_28" x1="33" y1="59" x2="287" y2="59" gradientUnits="userSpaceOnUse">
<stop offset="0.415075" stop-color="#DD0EE2"/>
<stop offset="1" stop-color="#00CAF9"/>
</linearGradient>
</defs>
</svg>
