<svg width="130" height="130" viewBox="0 0 130 130" fill="none" xmlns="http://www.w3.org/2000/svg">
<g clip-path="url(#clip0_81_345)">
<path fill-rule="evenodd" clip-rule="evenodd" d="M0 64.998C0 90.7266 14.9504 112.961 36.6327 123.496L5.62677 38.5461C2.02322 46.6267 0 55.5727 0 64.998ZM108.879 61.7194C108.879 53.6835 105.991 48.1219 103.521 43.7952C100.226 38.4366 97.1342 33.9026 97.1342 28.5481C97.1342 22.572 101.664 17.0102 108.05 17.0102C108.339 17.0102 108.611 17.0467 108.891 17.063C97.3292 6.46763 81.9196 0 64.9988 0C42.2887 0 22.3128 11.6516 10.6896 29.2956C12.2172 29.3443 13.6553 29.3728 14.8741 29.3728C21.6709 29.3728 32.1972 28.5481 32.1972 28.5481C35.6991 28.3409 36.1135 33.4923 32.6115 33.9026C32.6115 33.9026 29.0892 34.3169 25.1728 34.5241L48.8417 104.93L63.069 62.2679L52.945 34.5241C49.443 34.3169 46.1238 33.9026 46.1238 33.9026C42.6218 33.6954 43.0322 28.3409 46.5382 28.5481C46.5382 28.5481 57.2717 29.3728 63.6581 29.3728C70.4549 29.3728 80.9811 28.5481 80.9811 28.5481C84.4872 28.3409 84.8975 33.4923 81.3955 33.9026C81.3955 33.9026 77.8692 34.3169 73.9569 34.5241L97.447 104.393L103.935 82.7313C106.738 73.7366 108.879 67.2811 108.879 61.7194ZM122.037 33.8145C122.318 35.8864 122.476 38.1047 122.476 40.4975C122.476 47.0912 121.241 54.5054 117.532 63.7804L97.6777 121.181C117.004 109.916 130 88.9768 130 64.9992C130 53.6969 127.111 43.0732 122.037 33.8145ZM66.1403 70.684L46.6357 127.354C52.4615 129.068 58.6204 130.002 64.9988 130.002C72.5674 130.002 79.8274 128.694 86.5835 126.318C86.4129 126.037 86.2503 125.745 86.1203 125.424L66.1403 70.684Z" fill="#007ACC"/>
</g>
<defs>
<clipPath id="clip0_81_345">
<rect width="130" height="130" fill="white"/>
</clipPath>
</defs>
</svg>
