<svg width="130" height="130" viewBox="0 0 130 130" fill="none" xmlns="http://www.w3.org/2000/svg">
<path d="M8.125 49.2915C8.125 34.882 8.125 27.6771 10.9293 22.1734C13.3961 17.3321 17.3321 13.3961 22.1734 10.9293C27.6771 8.125 34.882 8.125 49.2915 8.125H80.7085C95.1182 8.125 102.323 8.125 107.826 10.9293C112.668 13.3961 116.604 17.3321 119.071 22.1734C121.875 27.6771 121.875 34.882 121.875 49.2915V80.7085C121.875 95.1182 121.875 102.323 119.071 107.826C116.604 112.668 112.668 116.604 107.826 119.071C102.323 121.875 95.1182 121.875 80.7085 121.875H49.2915C34.882 121.875 27.6771 121.875 22.1734 119.071C17.3321 116.604 13.3961 112.668 10.9293 107.826C8.125 102.323 8.125 95.1182 8.125 80.7085V49.2915Z" fill="#470137"/>
<path d="M67.6264 41.5749L53.4333 65.6022L68.6181 91.1159C68.9337 91.6944 68.6181 91.8224 68.1606 91.8224H57.3251C56.5618 91.8224 56.0276 91.7947 55.7225 91.2727C54.704 89.2378 53.6868 87.2159 52.6699 85.207C51.6519 83.1989 50.5708 81.151 49.4272 79.0633C48.2824 76.9772 47.1506 74.8643 46.0314 72.7241C45.0133 74.8114 43.8811 76.8983 42.7883 78.9853C41.6939 81.0726 40.6128 83.1465 39.5452 85.207C38.477 87.2687 37.3833 89.3166 36.2641 91.3507C36.0602 91.8203 35.7036 91.8687 35.1956 91.8687H24.7417C24.3309 91.8687 24.2814 91.5599 24.5128 91.1943L39.24 66.3846L24.8942 41.4965C24.6336 41.1414 24.8579 40.7632 25.2758 40.7921H36.035C36.5009 40.7661 36.9126 40.9416 37.1796 41.3401C38.0954 43.4274 39.1128 45.5147 40.2319 47.6012C41.3502 49.6885 42.4824 51.7499 43.6276 53.7839C44.7724 55.8189 45.9042 57.8798 46.8707 59.9671C47.8875 57.8282 48.9178 55.7413 49.961 53.7059C51.0035 51.671 52.0715 49.6231 53.1659 47.5622C54.2596 45.5017 55.315 43.4538 56.3327 41.4185C56.4679 40.972 56.7913 40.7458 57.2484 40.7921H67.2445C67.6264 40.7921 67.784 41.3133 67.6264 41.5749Z" fill="#FF61F6"/>
<path d="M89.5257 92.8383C82.7962 92.9435 75.7473 90.1725 72.204 84.0336C70.4742 81.0863 69.6093 77.3951 69.6097 72.9592C69.5809 69.3672 70.4758 65.8308 72.204 62.7067C76.6634 54.7353 85.6472 51.7485 94.1805 52.5326V37.1144C94.1805 36.75 94.3333 36.5666 94.6384 36.5666H104.253C104.516 36.5281 104.748 36.7666 104.711 37.0361V83.2902C104.711 85.1983 104.9 87.1 105.016 89.0033C105.035 89.3283 104.847 89.65 104.558 89.7861C99.8079 91.8182 94.6676 92.8147 89.5257 92.8383ZM94.1805 83.1334V61.7675C87.2109 59.8313 80.4444 65.1397 80.4452 72.4896C80.2799 80.0885 86.8302 85.3385 94.1805 83.1334Z" fill="#FF61F6"/>
</svg>
