<?xml version="1.0" encoding="UTF-8"?>
<svg xmlns="http://www.w3.org/2000/svg" xmlns:xlink="http://www.w3.org/1999/xlink" viewBox="0 0 578.34 444.2">
  <defs>
    <style>
      .cls-1 {
        fill: url(#linear-gradient-38);
      }

      .cls-1, .cls-2, .cls-3, .cls-4, .cls-5, .cls-6, .cls-7, .cls-8, .cls-9, .cls-10, .cls-11, .cls-12, .cls-13, .cls-14, .cls-15, .cls-16, .cls-17, .cls-18, .cls-19, .cls-20, .cls-21, .cls-22, .cls-23, .cls-24, .cls-25, .cls-26, .cls-27, .cls-28, .cls-29, .cls-30, .cls-31, .cls-32, .cls-33, .cls-34, .cls-35, .cls-36, .cls-37, .cls-38, .cls-39, .cls-40, .cls-41, .cls-42, .cls-43, .cls-44, .cls-45, .cls-46, .cls-47, .cls-48, .cls-49, .cls-50, .cls-51, .cls-52, .cls-53, .cls-54, .cls-55, .cls-56 {
        stroke-width: 0px;
      }

      .cls-2 {
        fill: url(#linear-gradient-12);
      }

      .cls-3 {
        fill: url(#linear-gradient-23);
      }

      .cls-3, .cls-5, .cls-9, .cls-53 {
        mix-blend-mode: multiply;
      }

      .cls-4 {
        fill: url(#linear-gradient-17);
      }

      .cls-5 {
        fill: #b3e5fc;
      }

      .cls-6 {
        fill: url(#linear-gradient-19);
      }

      .cls-7 {
        fill: url(#linear-gradient-33);
      }

      .cls-8 {
        fill: url(#linear-gradient);
      }

      .cls-9 {
        fill: #29b6f6;
      }

      .cls-10 {
        fill: url(#linear-gradient-21);
      }

      .cls-11 {
        fill: url(#linear-gradient-6);
      }

      .cls-12 {
        opacity: .32;
      }

      .cls-12, .cls-15, .cls-24, .cls-27, .cls-30 {
        fill: #fff;
      }

      .cls-12, .cls-15, .cls-24, .cls-27, .cls-57 {
        mix-blend-mode: overlay;
      }

      .cls-58 {
        isolation: isolate;
      }

      .cls-13 {
        fill: url(#linear-gradient-42);
      }

      .cls-14 {
        fill: url(#linear-gradient-15);
      }

      .cls-15 {
        opacity: .36;
      }

      .cls-16 {
        fill: url(#linear-gradient-11);
      }

      .cls-17 {
        fill: url(#linear-gradient-5);
      }

      .cls-18, .cls-59 {
        fill: none;
      }

      .cls-19 {
        fill: url(#linear-gradient-31);
      }

      .cls-20 {
        fill: url(#linear-gradient-34);
      }

      .cls-60 {
        clip-path: url(#clippath-1);
      }

      .cls-21 {
        fill: url(#linear-gradient-41);
      }

      .cls-22 {
        fill: url(#linear-gradient-40);
      }

      .cls-23 {
        fill: url(#linear-gradient-13);
      }

      .cls-24 {
        opacity: .2;
      }

      .cls-25 {
        fill: url(#linear-gradient-25);
      }

      .cls-26 {
        fill: url(#linear-gradient-43);
      }

      .cls-27 {
        opacity: .38;
      }

      .cls-28 {
        fill: url(#linear-gradient-16);
      }

      .cls-29 {
        fill: url(#linear-gradient-22);
      }

      .cls-31 {
        fill: url(#linear-gradient-35);
      }

      .cls-32 {
        fill: url(#linear-gradient-32);
      }

      .cls-33 {
        fill: url(#linear-gradient-20);
      }

      .cls-34 {
        fill: url(#linear-gradient-14);
      }

      .cls-57 {
        opacity: .65;
      }

      .cls-35 {
        fill: url(#linear-gradient-2);
      }

      .cls-36 {
        fill: url(#linear-gradient-45);
      }

      .cls-37 {
        fill: url(#linear-gradient-7);
      }

      .cls-38 {
        fill: url(#linear-gradient-39);
      }

      .cls-39 {
        fill: url(#linear-gradient-3);
      }

      .cls-59 {
        stroke: #fff;
        stroke-linecap: round;
        stroke-linejoin: round;
        stroke-width: 2px;
      }

      .cls-61 {
        clip-path: url(#clippath);
      }

      .cls-40 {
        fill: #eceff1;
      }

      .cls-41 {
        fill: url(#linear-gradient-9);
      }

      .cls-42 {
        fill: url(#linear-gradient-27);
      }

      .cls-43 {
        fill: url(#linear-gradient-36);
      }

      .cls-44 {
        fill: url(#linear-gradient-24);
      }

      .cls-45 {
        fill: url(#linear-gradient-26);
      }

      .cls-46 {
        fill: url(#linear-gradient-18);
      }

      .cls-47 {
        fill: url(#linear-gradient-30);
      }

      .cls-48 {
        fill: url(#linear-gradient-44);
      }

      .cls-49 {
        fill: url(#linear-gradient-29);
      }

      .cls-50 {
        fill: url(#linear-gradient-46);
      }

      .cls-51 {
        fill: url(#linear-gradient-28);
      }

      .cls-52 {
        fill: url(#linear-gradient-10);
      }

      .cls-53 {
        fill: url(#linear-gradient-8);
      }

      .cls-54 {
        fill: url(#linear-gradient-4);
      }

      .cls-55 {
        fill: #90caf9;
      }

      .cls-56 {
        fill: url(#linear-gradient-37);
      }
    </style>
    <linearGradient id="linear-gradient" x1="-26.7" y1="158.77" x2="367.05" y2="552.52" gradientUnits="userSpaceOnUse">
      <stop offset="0" stop-color="#fff"/>
      <stop offset="1" stop-color="#fff" stop-opacity=".5"/>
    </linearGradient>
    <linearGradient id="linear-gradient-2" x1="58.47" y1="73.59" x2="452.22" y2="467.34" xlink:href="#linear-gradient"/>
    <linearGradient id="linear-gradient-3" x1="107.96" y1="24.1" x2="501.72" y2="417.85" xlink:href="#linear-gradient"/>
    <linearGradient id="linear-gradient-4" x1="280.04" y1="-147.98" x2="673.79" y2="245.77" xlink:href="#linear-gradient"/>
    <linearGradient id="linear-gradient-5" x1="73.45" y1="93.02" x2="341.28" y2="93.02" gradientUnits="userSpaceOnUse">
      <stop offset="0" stop-color="#1e88e5"/>
      <stop offset="1" stop-color="#0d47a1"/>
    </linearGradient>
    <linearGradient id="linear-gradient-6" x1="207.36" y1="229.15" x2="207.36" y2="105" gradientUnits="userSpaceOnUse">
      <stop offset="0" stop-color="#90caf9"/>
      <stop offset="1" stop-color="#d3eafc"/>
    </linearGradient>
    <linearGradient id="linear-gradient-7" x1="288.32" y1="361.32" x2="288.32" y2="312.81" gradientUnits="userSpaceOnUse">
      <stop offset="0" stop-color="#90caf9"/>
      <stop offset="1" stop-color="#64b5f6"/>
    </linearGradient>
    <linearGradient id="linear-gradient-8" x1="256.44" y1="326.73" x2="320.19" y2="326.73" xlink:href="#linear-gradient-7"/>
    <linearGradient id="linear-gradient-9" x1="238.14" y1="366.36" x2="338.49" y2="366.36" gradientUnits="userSpaceOnUse">
      <stop offset="0" stop-color="#0d47a1"/>
      <stop offset="1" stop-color="#1e88e5"/>
    </linearGradient>
    <linearGradient id="linear-gradient-10" x1="288.32" y1="334.36" x2="288.32" y2="138.94" xlink:href="#linear-gradient-9"/>
    <linearGradient id="linear-gradient-11" x1="288.32" y1="302.04" x2="288.32" y2="152.9" gradientUnits="userSpaceOnUse">
      <stop offset="0" stop-color="#ea80fc"/>
      <stop offset="1" stop-color="#ab47bc"/>
    </linearGradient>
    <linearGradient id="linear-gradient-12" x1="261.68" y1="132.24" x2="529.51" y2="132.24" gradientUnits="userSpaceOnUse">
      <stop offset="0" stop-color="#ab47bc"/>
      <stop offset="1" stop-color="#ea80fc"/>
    </linearGradient>
    <linearGradient id="linear-gradient-13" x1="395.6" y1="268.37" x2="395.6" y2="144.22" gradientUnits="userSpaceOnUse">
      <stop offset="0" stop-color="#bbdefb"/>
      <stop offset="1" stop-color="#e3f2fd"/>
    </linearGradient>
    <clipPath id="clippath">
      <path class="cls-18" d="m261.68,144.22v114.17c0,5.52,4.47,9.99,9.99,9.99h247.85c5.52,0,9.99-4.47,9.99-9.99v-114.17h-267.83Z"/>
    </clipPath>
    <linearGradient id="linear-gradient-14" x1="303.61" y1="-308.8" x2="303.61" y2="-369.45" gradientTransform="translate(165.75 -184.21) scale(1 -1)" xlink:href="#linear-gradient-9"/>
    <linearGradient id="linear-gradient-15" x1="303.61" y1="-313.78" x2="303.61" y2="-334.61" gradientTransform="translate(165.75 -184.21) scale(1 -1)" gradientUnits="userSpaceOnUse">
      <stop offset="0" stop-color="#fff"/>
      <stop offset="1" stop-color="#bbdefb"/>
    </linearGradient>
    <linearGradient id="linear-gradient-16" x1="427.32" y1="340.48" x2="427.32" y2="327.65" gradientTransform="translate(42.04 -142.4)" gradientUnits="userSpaceOnUse">
      <stop offset="0" stop-color="#64b5f6"/>
      <stop offset="1" stop-color="#1e88e5"/>
    </linearGradient>
    <linearGradient id="linear-gradient-17" x1="427.32" y1="327.65" x2="427.32" y2="318.81" gradientTransform="translate(42.04 -142.4)" gradientUnits="userSpaceOnUse">
      <stop offset="0" stop-color="#0d47a1"/>
      <stop offset="1" stop-color="#1565c0"/>
    </linearGradient>
    <linearGradient id="linear-gradient-18" x1="427.32" y1="318.81" x2="427.32" y2="298.35" gradientTransform="translate(42.04 -142.4)" gradientUnits="userSpaceOnUse">
      <stop offset="0" stop-color="#1e88e5"/>
      <stop offset="1" stop-color="#64b5f6"/>
    </linearGradient>
    <linearGradient id="linear-gradient-19" x1="360.81" y1="35.93" x2="423.36" y2="98.48" xlink:href="#linear-gradient-7"/>
    <linearGradient id="linear-gradient-20" x1="359.59" y1="67.64" x2="437.82" y2="67.64" gradientUnits="userSpaceOnUse">
      <stop offset="0" stop-color="#bbdefb"/>
      <stop offset="1" stop-color="#fff"/>
    </linearGradient>
    <linearGradient id="linear-gradient-21" x1="376.41" y1="289.81" x2="396.35" y2="289.81" gradientTransform="translate(318.1 -188.33) rotate(45)" xlink:href="#linear-gradient-9"/>
    <linearGradient id="linear-gradient-22" x1="334.23" y1="237.66" x2="381.36" y2="284.79" gradientTransform="matrix(1,0,0,1,0,0)" xlink:href="#linear-gradient-15"/>
    <linearGradient id="linear-gradient-23" x1="338.54" y1="290.06" x2="386.51" y2="290.06" gradientTransform="translate(-103.64 312.47) rotate(-45)" gradientUnits="userSpaceOnUse">
      <stop offset="0" stop-color="#80d8ff"/>
      <stop offset="1" stop-color="#29b6f6"/>
    </linearGradient>
    <linearGradient id="linear-gradient-24" x1="277.95" y1="347.55" x2="311.02" y2="347.55" gradientTransform="translate(49.66 595.12) rotate(-90)" gradientUnits="userSpaceOnUse">
      <stop offset="0" stop-color="#1e88e5"/>
      <stop offset="1" stop-color="#90caf9"/>
    </linearGradient>
    <linearGradient id="linear-gradient-25" x1="113.19" y1="393.11" x2="113.19" y2="339.78" xlink:href="#linear-gradient-9"/>
    <linearGradient id="linear-gradient-26" x1="113.19" y1="394.4" x2="113.19" y2="366.45" xlink:href="#linear-gradient-9"/>
    <linearGradient id="linear-gradient-27" x1="-173.41" y1="353.77" x2="-173.41" y2="286.78" gradientTransform="translate(-60.04) rotate(-180) scale(1 -1)" xlink:href="#linear-gradient-9"/>
    <linearGradient id="linear-gradient-28" x1="-84.66" y1="383.99" x2="-84.66" y2="301.32" gradientTransform="translate(-214.89 108.41) rotate(133.57) scale(1 -1)" xlink:href="#linear-gradient-9"/>
    <linearGradient id="linear-gradient-29" x1="105.24" y1="328.64" x2="121.5" y2="344.9" gradientTransform="matrix(1,0,0,1,0,0)" xlink:href="#linear-gradient-15"/>
    <linearGradient id="linear-gradient-30" x1="-168.41" y1="298.78" x2="-178.41" y2="308.79" gradientTransform="translate(-60.04) rotate(-180) scale(1 -1)" xlink:href="#linear-gradient-15"/>
    <linearGradient id="linear-gradient-31" x1="-125.22" y1="201.45" x2="-125.22" y2="65.02" gradientTransform="translate(-66.58 219.5) rotate(-132.28)" xlink:href="#linear-gradient-18"/>
    <linearGradient id="linear-gradient-32" x1="-119.26" y1="73.62" x2="-131.24" y2="74.19" gradientTransform="translate(-66.58 219.5) rotate(-132.28)" xlink:href="#linear-gradient-15"/>
    <linearGradient id="linear-gradient-33" x1="49.06" y1="-249.01" x2="49.06" y2="-309.66" gradientTransform="translate(-63.07 32.74) rotate(-45) scale(1 -1)" xlink:href="#linear-gradient-9"/>
    <linearGradient id="linear-gradient-34" x1="150.46" y1="176.87" x2="166.72" y2="193.14" gradientTransform="matrix(1,0,0,1,0,0)" xlink:href="#linear-gradient-15"/>
    <linearGradient id="linear-gradient-35" x1="172.78" y1="280.84" x2="172.78" y2="268.01" gradientTransform="translate(22.35 -52.88)" xlink:href="#linear-gradient-16"/>
    <linearGradient id="linear-gradient-36" x1="172.78" y1="268.01" x2="172.78" y2="259.18" gradientTransform="translate(-121.09 149.67) rotate(-45)" xlink:href="#linear-gradient-17"/>
    <linearGradient id="linear-gradient-37" x1="172.78" y1="259.18" x2="172.78" y2="238.72" gradientTransform="translate(-121.09 149.67) rotate(-45)" xlink:href="#linear-gradient-18"/>
    <clipPath id="clippath-1">
      <rect class="cls-18" x="61.81" y="366.45" width="102.75" height="27.95"/>
    </clipPath>
    <linearGradient id="linear-gradient-38" x1="14.26" y1="397.81" x2="14.26" y2="363.93" gradientTransform="translate(301.48 100.76) rotate(45)" xlink:href="#linear-gradient-20"/>
    <linearGradient id="linear-gradient-39" x1="26.8" y1="385.27" x2="26.8" y2="351.38" gradientTransform="translate(301.48 100.76) rotate(45)" xlink:href="#linear-gradient-20"/>
    <linearGradient id="linear-gradient-40" x1="39.34" y1="372.73" x2="39.34" y2="338.84" gradientTransform="translate(301.48 100.76) rotate(45)" xlink:href="#linear-gradient-20"/>
    <linearGradient id="linear-gradient-41" x1="51.88" y1="360.19" x2="51.88" y2="326.3" gradientTransform="translate(301.48 100.76) rotate(45)" xlink:href="#linear-gradient-20"/>
    <linearGradient id="linear-gradient-42" x1="64.42" y1="347.65" x2="64.42" y2="313.76" gradientTransform="translate(301.48 100.76) rotate(45)" xlink:href="#linear-gradient-20"/>
    <linearGradient id="linear-gradient-43" x1="76.96" y1="335.11" x2="76.96" y2="301.22" gradientTransform="translate(301.48 100.76) rotate(45)" xlink:href="#linear-gradient-20"/>
    <linearGradient id="linear-gradient-44" x1="89.5" y1="322.57" x2="89.5" y2="288.68" gradientTransform="translate(301.48 100.76) rotate(45)" xlink:href="#linear-gradient-20"/>
    <linearGradient id="linear-gradient-45" x1="102.04" y1="310.03" x2="102.04" y2="276.14" gradientTransform="translate(301.48 100.76) rotate(45)" xlink:href="#linear-gradient-20"/>
    <linearGradient id="linear-gradient-46" x1="114.58" y1="297.49" x2="114.58" y2="263.6" gradientTransform="translate(301.48 100.76) rotate(45)" xlink:href="#linear-gradient-20"/>
  </defs>
  <g class="cls-58">
    <g id="Layer_2" data-name="Layer 2">
      <g id="OBJECTS">
        <g>
          <g class="cls-57">
            <circle class="cls-8" cx="24.5" cy="209.97" r="24.5"/>
            <circle class="cls-35" cx="409.74" cy="424.86" r="12"/>
            <path class="cls-39" d="m578.34,152.9c0-35.8-29.02-64.82-64.82-64.82-9.97,0-19.41,2.26-27.85,6.28C457.41,38.39,399.4,0,332.41,0c-48.47,0-92.24,20.1-123.45,52.42-18.51-16.88-43.13-27.17-70.16-27.17-57.53,0-104.17,46.64-104.17,104.17,0,28.67,11.59,54.64,30.33,73.47-8.85,20.05-13.78,42.23-13.78,65.56,0,89.73,72.74,162.47,162.47,162.47,25.83,0,50.25-6.04,71.94-16.77,9.93,17.91,29.02,30.05,50.96,30.05,28.85,0,52.78-20.98,57.41-48.51,13.53,5.14,28.2,7.96,43.53,7.96,67.69,0,122.56-54.87,122.56-122.56,0-25.42-7.74-49.02-20.98-68.6,23.1-9.91,39.29-32.86,39.29-59.59Zm-303.66-82.45c-6.63,0-12-5.37-12-12s5.37-12,12-12,12,5.37,12,12-5.37,12-12,12Zm-59.61,349.17c-10.94,0-19.81-8.87-19.81-19.81s8.87-19.81,19.81-19.81,19.81,8.87,19.81,19.81-8.87,19.81-19.81,19.81Zm-26.65-53.34c-3.63,0-6.58-2.95-6.58-6.58s2.95-6.58,6.58-6.58,6.58,2.95,6.58,6.58-2.95,6.58-6.58,6.58ZM320.74,63.57c-14.64,0-26.5-11.86-26.5-26.5s11.86-26.5,26.5-26.5,26.5,11.86,26.5,26.5-11.86,26.5-26.5,26.5Zm135.5,324.25c-14.64,0-26.5-11.86-26.5-26.5s11.86-26.5,26.5-26.5,26.5,11.86,26.5,26.5-11.86,26.5-26.5,26.5Zm39.22-55.54c-6.63,0-12-5.37-12-12s5.37-12,12-12,12,5.37,12,12-5.37,12-12,12ZM125.9,51.44c-4.32,0-7.82-3.5-7.82-7.82s3.5-7.82,7.82-7.82,7.82,3.5,7.82,7.82-3.5,7.82-7.82,7.82Z"/>
            <circle class="cls-54" cx="495.47" cy="67.45" r="12"/>
          </g>
          <g>
            <g>
              <g>
                <path class="cls-17" d="m341.28,91.02c0-5.52-4.47-9.99-9.99-9.99H83.44c-5.52,0-9.99,4.47-9.99,9.99v13.97h267.83v-13.97Z"/>
                <path class="cls-11" d="m73.45,105v114.17c0,5.52,4.47,9.99,9.99,9.99h247.85c5.52,0,9.99-4.47,9.99-9.99v-114.17H73.45Z"/>
              </g>
              <path class="cls-12" d="m129.59,88.31l5.41,5.41,4.85,4.85,16.2,16.2c.65.65,1.29,1.29,1.94,1.94l5.43,5.43c.71.71,1.43,1.43,2.14,2.14l9.19,9.19c3.43,3.43,6.89,6.89,10.39,10.39l5.16,5.16,2.89,2.89,9.04,9.04c1.07,1.07,2.14,2.14,3.21,3.21l21.09,21.09c1.28,1.28,2.56,2.56,3.84,3.84l36.99,36.99c1.02,1.02,2.04,2.04,3.05,3.05h60.86c5.52,0,9.99-4.47,9.99-9.99V91.02c0-5.52-4.47-9.99-9.99-9.99H122.31l2.85,2.85c1.46,1.46,2.93,2.93,4.43,4.43Z"/>
              <g>
                <circle class="cls-30" cx="85.93" cy="91.45" r="3.77"/>
                <circle class="cls-30" cx="103.09" cy="91.45" r="3.77"/>
                <circle class="cls-30" cx="120.26" cy="91.45" r="3.77"/>
              </g>
            </g>
            <g>
              <rect class="cls-37" x="256.44" y="312.81" width="63.75" height="48.51"/>
              <rect class="cls-53" x="256.44" y="312.81" width="63.75" height="27.84"/>
              <path class="cls-41" d="m338.49,375.4h-100.35l2.24-6.74c2.25-6.77,8.57-11.33,15.7-11.33h64.46c7.13,0,13.46,4.57,15.7,11.33l2.24,6.74Z"/>
              <rect class="cls-52" x="138.81" y="138.94" width="299.02" height="195.42" rx="14.23" ry="14.23"/>
              <rect class="cls-16" x="146.89" y="152.9" width="282.86" height="149.14"/>
              <path class="cls-40" d="m294.6,318.2c0,3.47-2.81,6.29-6.29,6.29s-6.29-2.81-6.29-6.29,2.81-6.29,6.29-6.29,6.29,2.81,6.29,6.29Z"/>
              <path class="cls-24" d="m423.59,334.36c7.86,0,14.23-6.37,14.23-14.23v-166.96c0-7.86-6.37-14.23-14.23-14.23h-243.1l195.42,195.42h47.68Z"/>
            </g>
            <path class="cls-5" d="m510.36,129.42h-247.85c-5.52,0-9.99,4.47-9.99,9.99v126.02c0,6.69,5.42,12.11,12.11,12.11h245.73c2.41,0,4.63-.86,6.35-2.28.25-.2.48-.42.71-.64.45-.45.86-.95,1.22-1.48.42-.63.77-1.31,1.04-2.03.16-.42.29-.85.4-1.29.17-.73.27-1.48.27-2.26h0v-128.14c0-5.52-4.47-9.99-9.99-9.99Z"/>
            <g>
              <g>
                <path class="cls-2" d="m529.51,130.24c0-5.52-4.47-9.99-9.99-9.99h-247.85c-5.52,0-9.99,4.47-9.99,9.99v13.97h267.83v-13.97Z"/>
                <path class="cls-23" d="m261.68,144.22v114.17c0,5.52,4.47,9.99,9.99,9.99h247.85c5.52,0,9.99-4.47,9.99-9.99v-114.17h-267.83Z"/>
              </g>
              <path class="cls-27" d="m317.82,127.53l5.41,5.41c1.6,1.6,3.22,3.22,4.85,4.85l16.2,16.2c.65.65,1.29,1.29,1.94,1.94l5.43,5.43c.71.71,1.43,1.43,2.14,2.14l9.19,9.19c3.43,3.43,6.89,6.89,10.39,10.39l5.16,5.16c.96.96,1.92,1.92,2.89,2.89l9.04,9.04c1.07,1.07,2.14,2.14,3.21,3.21l21.09,21.09c1.28,1.28,2.56,2.56,3.84,3.84l36.99,36.99,3.05,3.05h60.86c5.52,0,9.99-4.47,9.99-9.99v-128.14c0-5.52-4.47-9.99-9.99-9.99h-208.98l2.85,2.85c1.46,1.46,2.93,2.93,4.43,4.43Z"/>
              <g>
                <circle class="cls-30" cx="274.17" cy="130.67" r="3.77"/>
                <circle class="cls-30" cx="291.33" cy="130.67" r="3.77"/>
                <circle class="cls-30" cx="308.5" cy="130.67" r="3.77"/>
              </g>
              <g class="cls-61">
                <g>
                  <g>
                    <rect class="cls-34" x="453.97" y="124.59" width="30.78" height="60.65" rx="15.39" ry="15.39"/>
                    <circle class="cls-14" cx="469.36" cy="139.98" r="10.41"/>
                  </g>
                  <g>
                    <g>
                      <polygon class="cls-30" points="449.58 223.07 449.58 198.07 436.91 198.07 436.91 223.07 456.91 240.25 456.91 251.74 462.24 251.74 462.24 244.82 462.24 234.07 449.58 223.07"/>
                      <polygon class="cls-30" points="489.14 223.07 489.14 198.07 501.81 198.07 501.81 223.07 481.81 240.25 481.81 251.74 476.48 251.74 476.48 244.82 476.48 234.07 489.14 223.07"/>
                    </g>
                    <rect class="cls-28" x="432.91" y="185.24" width="72.9" height="12.83"/>
                    <polygon class="cls-4" points="491.81 176.41 446.91 176.41 432.91 185.24 505.81 185.24 491.81 176.41"/>
                    <path class="cls-46" d="m446.91,176.41h44.9v-11.28c0-5.07-4.11-9.18-9.18-9.18h-26.54c-5.07,0-9.18,4.11-9.18,9.18v11.28Z"/>
                  </g>
                </g>
              </g>
            </g>
            <g>
              <path class="cls-6" d="m359.59,52.8h78.23v38.52c0,4.71-3.83,8.54-8.54,8.54h-61.15c-4.71,0-8.54-3.83-8.54-8.54v-38.52h0Z"/>
              <path class="cls-9" d="m392.21,85.4l-32.62-32.61h78.23l-32.62,32.61c-3.59,3.59-9.41,3.59-13,0Z"/>
              <path class="cls-33" d="m394.6,81.04l-35.01-28.24h78.23l-35.01,28.24c-2.4,1.93-5.81,1.93-8.21,0Z"/>
            </g>
            <g>
              <rect class="cls-55" x="277.09" y="171.12" width="39.77" height="39.77"/>
              <polyline class="cls-59" points="286.15 187.95 295.5 197.29 332.35 160.43"/>
            </g>
            <g>
              <rect class="cls-10" x="381.68" y="280.41" width="9.4" height="18.8" transform="translate(-91.76 358.1) rotate(-45)"/>
              <circle class="cls-15" cx="357.8" cy="261.22" r="23.99"/>
              <path class="cls-29" d="m334.23,237.66c-13.01,13.01-13.01,34.11,0,47.13,13.01,13.01,34.12,13.01,47.13,0,13.01-13.01,13.01-34.11,0-47.13-13.01-13.01-34.12-13.01-47.13,0Zm40.53,6.6c9.37,9.37,9.37,24.55,0,33.92-9.37,9.37-24.55,9.37-33.92,0-9.37-9.37-9.37-24.55,0-33.92,9.37-9.37,24.55-9.37,33.92,0Z"/>
              <path class="cls-3" d="m344.91,276.83c-8.62-8.62-8.62-22.59,0-31.2,8.39-8.39,21.85-8.61,30.51-.66-.22-.23-.43-.47-.66-.7-9.37-9.37-24.55-9.37-33.92,0-9.37,9.37-9.37,24.55,0,33.92,9.37,9.37,24.55,9.37,33.92,0,.23-.23.45-.46.66-.7-8.66,7.94-22.12,7.73-30.51-.66Z"/>
              <path class="cls-44" d="m411.49,314.92h0c-3,3-7.87,3-10.88,0l-19.94-19.94,10.88-10.88,19.94,19.94c3,3,3,7.87,0,10.88Z"/>
            </g>
            <g>
              <g>
                <rect class="cls-30" x="336.97" y="166.11" width="6.66" height="44.78"/>
                <rect class="cls-30" x="346.96" y="183.87" width="6.66" height="27.02"/>
                <rect class="cls-30" x="356.95" y="175.95" width="6.66" height="34.94"/>
              </g>
              <g>
                <rect class="cls-30" x="375.71" y="166.11" width="6.66" height="44.78"/>
                <rect class="cls-30" x="385.7" y="183.87" width="6.66" height="27.02"/>
                <rect class="cls-30" x="395.69" y="175.95" width="6.66" height="34.94"/>
              </g>
            </g>
            <g>
              <path class="cls-59" d="m158.59,185l-22.58-22.58c-4.68-4.68-12.27-4.68-16.94,0h0c-4.68,4.68-4.68,12.27,0,16.95l.09.09c3.82,3.82,3.82,10.01,0,13.83l-14.72,14.72c-3.82,3.82-3.82,10.01,0,13.83l6.21,6.21"/>
              <path class="cls-59" d="m96.37,320.28h-55.95c-7.73,0-14,6.27-14,14h0c0,7.73,6.27,14,14,14h21.77c4.51,0,8.17,3.66,8.17,8.17v16.18c0,4.51,3.66,8.17,8.17,8.17h0"/>
              <path class="cls-25" d="m101.27,339.78h23.83c7.04,0,12.75,5.71,12.75,12.75v40.58h-49.33v-40.58c0-7.04,5.71-12.75,12.75-12.75Z"/>
              <rect class="cls-45" x="61.81" y="366.45" width="102.75" height="27.95"/>
              <path class="cls-42" d="m113.37,353.77h0c9.39,0,17-7.61,17-17v-32.99c0-9.39-7.61-17-17-17h0c-9.39,0-17,7.61-17,17v32.99c0,9.39,7.61,17,17,17Z"/>
              <path class="cls-51" d="m121.7,311.71h0c4.2-4.42,4.03-11.41-.39-15.62l-43.9-41.75c-4.42-4.2-11.41-4.03-15.62.39h0c-4.2,4.42-4.03,11.41.39,15.62l43.9,41.75c4.42,4.2,11.41,4.03,15.62-.39Z"/>
              <path class="cls-49" d="m113.37,325.27c-6.35,0-11.5,5.15-11.5,11.5s5.15,11.5,11.5,11.5,11.5-5.15,11.5-11.5-5.15-11.5-11.5-11.5Zm0,17c-3.04,0-5.5-2.46-5.5-5.5s2.46-5.5,5.5-5.5,5.5,2.46,5.5,5.5-2.46,5.5-5.5,5.5Z"/>
              <circle class="cls-47" cx="113.37" cy="303.78" r="7.08"/>
              <g>
                <path class="cls-19" d="m166.72,176.61h0c3.54,3.89,3.25,9.92-.64,13.45l-86.85,78.98c-3.89,3.54-9.92,3.25-13.45-.64h0c-3.54-3.89-3.25-9.92.64-13.45l86.85-78.98c3.89-3.54,9.92-3.25,13.45.64Z"/>
                <path class="cls-32" d="m68.34,258.01c2.45-2.23,6.25-2.05,8.48.4,2.23,2.45,2.05,6.25-.4,8.48-2.45,2.23-6.25,2.05-8.48-.4-2.23-2.45-2.05-6.25.4-8.48Z"/>
              </g>
              <g>
                <g>
                  <path class="cls-7" d="m147.7,174.12h0c-6.01,6.01-6.01,15.76,0,21.77l21.12,21.12c6.01,6.01,15.76,6.01,21.77,0h0c6.01-6.01,6.01-15.76,0-21.77l-21.12-21.12c-6.01-6.01-15.76-6.01-21.77,0Z"/>
                  <path class="cls-20" d="m158.59,173.5c-6.35,0-11.5,5.15-11.5,11.5s5.15,11.5,11.5,11.5,11.5-5.15,11.5-11.5-5.15-11.5-11.5-11.5Zm0,17c-3.04,0-5.5-2.46-5.5-5.5s2.46-5.5,5.5-5.5,5.5,2.46,5.5,5.5-2.46,5.5-5.5,5.5Z"/>
                </g>
                <g>
                  <g>
                    <polygon class="cls-30" points="203.35 257.75 185.67 240.07 176.72 249.02 194.4 266.7 220.68 264.7 228.81 272.83 232.58 269.06 227.69 264.17 220.09 256.57 203.35 257.75"/>
                    <polygon class="cls-30" points="231.33 229.77 213.65 212.09 222.61 203.13 240.29 220.81 238.29 247.1 246.41 255.22 242.64 259 237.75 254.11 230.15 246.5 231.33 229.77"/>
                  </g>
                  <rect class="cls-31" x="158.68" y="215.13" width="72.9" height="12.83" transform="translate(-99.5 202.86) rotate(-45)"/>
                  <polygon class="cls-43" points="200.22 194.88 168.47 226.63 164.81 242.78 216.36 191.23 200.22 194.88"/>
                  <path class="cls-56" d="m168.47,226.63l31.75-31.75-7.98-7.98c-3.58-3.58-9.4-3.58-12.98,0l-18.77,18.77c-3.58,3.58-3.58,9.4,0,12.98l7.98,7.98Z"/>
                </g>
              </g>
              <g class="cls-60">
                <g>
                  <polygon class="cls-1" points="44.86 372.37 29.3 387.93 39.64 387.93 55.19 372.37 44.86 372.37"/>
                  <polygon class="cls-38" points="62.59 372.37 47.04 387.93 57.37 387.93 72.93 372.37 62.59 372.37"/>
                  <polygon class="cls-22" points="80.33 372.37 64.77 387.93 75.11 387.93 90.66 372.37 80.33 372.37"/>
                  <polygon class="cls-21" points="98.06 372.37 82.51 387.93 92.84 387.93 108.4 372.37 98.06 372.37"/>
                  <polygon class="cls-13" points="115.8 372.37 100.24 387.93 110.58 387.93 126.13 372.37 115.8 372.37"/>
                  <polygon class="cls-26" points="133.53 372.37 117.98 387.93 128.31 387.93 143.86 372.37 133.53 372.37"/>
                  <polygon class="cls-48" points="151.26 372.37 135.71 387.93 146.05 387.93 161.6 372.37 151.26 372.37"/>
                  <polygon class="cls-36" points="169 372.37 153.45 387.93 163.78 387.93 179.33 372.37 169 372.37"/>
                  <polygon class="cls-50" points="186.73 372.37 171.18 387.93 181.52 387.93 197.07 372.37 186.73 372.37"/>
                </g>
              </g>
            </g>
          </g>
        </g>
      </g>
    </g>
  </g>
</svg>